<?xml version="1.0" encoding="utf-8"?>
<!-- Generator: Adobe Illustrator 21.1.0, SVG Export Plug-In . SVG Version: 6.00 Build 0)  -->
<svg version="1.1" id="Layer_1" xmlns="http://www.w3.org/2000/svg" xmlns:xlink="http://www.w3.org/1999/xlink" x="0px" y="0px"
	 viewBox="0 0 20 29" style="enable-background:new 0 0 20 29;" xml:space="preserve">
<style type="text/css">
	.st0{fill:#848484;}
</style>
<g id="Hvyb1a_1_">
	<g>
		<path class="st0" d="M1,22c0.2-3,0.4-6,0.6-9c0-0.5,0.4-1.3,0.7-1.4C4.2,11.2,4,9.8,4.2,8.4c0.3-2.1,0.7-4.2,1.2-6.3
			C5.6,1.6,6.3,0.9,7,0.7c3-0.9,6-0.5,8.4,1.5c1,0.8,1.3,2.7,1.5,4.1C17,8,17.1,9.4,18.3,11c1,1.2,1,3.4,1.1,5.1
			c0.1,3.2-0.1,6.3,0,9.5c0,1.9-1.4,3.5-3.1,3.4c-3.8-0.1-7.7-0.2-11.5-0.3c-3.2,0-3.4-0.2-3.5-3.4c0-1.1,0-2.2,0-3.3
			C1.1,22,1.1,22,1,22z M9.5,26.4c1.5-0.1,3-0.1,4.5-0.5c0.6-0.1,1.4-0.9,1.5-1.5c0.5-2.5,0.9-5,1.1-7.6c0.2-2.8-0.6-3.9-3-3.8
			c-2.9,0.1-5.8,0.4-8.7,0.6c-1.2,0.1-1.7,0.8-1.6,1.9c0.1,1.5,0.1,3,0.2,4.6C3.9,26.7,2.6,25.8,9.5,26.4z M9.5,10.9
			c3.5,0.3,4.8-1.3,4.1-4.9c-0.4-1.9-1.9-2.8-4-2.8c-2,0.1-2.2,1.5-2.4,3C7.1,6.7,7,7.1,6.9,7.6C6.4,10.4,6.7,10.7,9.5,10.9z"/>
		<path class="st0" d="M9.6,17c0.7,1.3,1.5,2.1,1.6,3.1c0.1,0.5-0.9,1.1-1.4,1.6C9,21,8.1,20.3,7.5,19.4C7.4,19.2,8.6,18.2,9.6,17z"
			/>
	</g>
</g>
</svg>
