<?xml version="1.0" encoding="utf-8"?>
<!-- Generator: Adobe Illustrator 21.1.0, SVG Export Plug-In . SVG Version: 6.00 Build 0)  -->
<svg version="1.1" id="Layer_1" xmlns="http://www.w3.org/2000/svg" xmlns:xlink="http://www.w3.org/1999/xlink" x="0px" y="0px"
	 viewBox="0 0 200 200" style="enable-background:new 0 0 200 200;" xml:space="preserve">
<style type="text/css">
	.st0{fill:#020202;}
</style>
<title>all-inclusive</title>
<path class="st0" d="M143.8,121.6c1.6,0,1.7,1.1,1.7,2.5c-0.1,4.2-0.1,8.5-0.1,12.7c0.1,0.7,0.4,1.3,0.8,1.9c0.4,0.5,0.7,0.9,1,1.4
	c0.2,0.6,0.3,1.3,0.4,1.9c-0.6,0.1-1.1,0.2-1.7,0.3c-5.5,0.2-11,0.4-16.4,0.6c-1.7,0.1-3.3,0-5,0c-0.7,0.1-1.4,0.3-2.1,0.5
	c-0.4,0-0.7,0-1.1-0.1c-0.6-0.2-1.3-0.4-1.9-0.4c-4.3,0.3-8.6,0.7-12.9,1c-3,0.2-3.6-1.5-3.7-4c-0.1-6.3,0-12.6-0.1-18.8
	c-0.1-4.4-0.5-8.9-0.6-13.3c-0.1-2-0.1-4.1,0-6.1c0.1-1.1,1.1-1.2,2.1-1.1c3.9,0.2,7.7,0.4,11.6,0.6c1.6,0.1,3.1,0,4.7,0
	c2.1,0.1,2.8,0.7,2.8,2.8c0.1,5.5,0.1,11.1,0.2,16.6c0,1.1,0.3,1.7,1.6,1.5c1-0.2,1.9,0.3,1.9-1.6c-0.2-3.6-1.2-7-1.9-10.5
	c-0.3-1.7,0.5-3.5,2-4.4c0.4-0.2,0.8-0.2,1.2-0.1c1.2,0.7,1.7-0.1,2.7-0.6c1.4-0.6,2.7-1.5,3.9-2.5c0.2-0.2,0.7-0.1,1.1-0.1
	c0.9,0,1.9,0.1,2.8,0.2c0.7,0.1,1.2,0.5,1.6,1.1c0.5,1,0.9,1.8,2.2,2.1c1.4,0.5,2.6,1.2,3.7,2.2c0.8,0.6,0.7,2.7-0.1,3.4
	c-0.3,0.2-0.6,0.6-0.7,0.9c-0.3,1.6-0.5,3.3-0.8,4.9C144.3,118.7,144.1,120.1,143.8,121.6z M145.9,140.8c-0.4-0.7-0.5-1.1-0.7-1.3
	c-1.5-1-1.4-2.6-1.5-4.1c0-1.1,0.1-2.2,0.1-3.3c0.1-2.3,0.1-4.6,0.1-6.9c0-1.3-0.6-2-2-1.9c-2.2,0.1-4.5-0.1-6.7-0.1
	c-3.2,0.1-6.5,0.3-9.7,0.6c-1.4,0.1-2.6,0.6-2.1,2.5c0.1,0.7,0.1,1.5,0,2.2c-0.1,3.7-0.2,7.4-0.4,11.1c-0.1,1.4,0.6,1.7,1.8,1.6
	c3.8-0.2,7.5-0.4,11.3-0.5C139.2,140.7,142.4,140.8,145.9,140.8L145.9,140.8z M103.6,110.7l0.5,0c0,2.7,0,5.4,0,8.2
	c0,1.5,0.6,2,2.1,2.1c4.5,0.3,9,0.9,13.5,1.4c2.3,0.2,2.3,0.3,2.3-2.1c0-0.2,0-0.4,0-0.6c-0.1-4.9-0.2-9.8-0.2-14.7
	c0-1.3-0.5-2.1-1.9-2.1c-1.1,0-2.3,0-3.4-0.1c-3.8-0.1-7.5-0.2-11.3-0.3c-1.2-0.1-1.6,0.4-1.5,1.5
	C103.6,106.3,103.6,108.5,103.6,110.7z M109.3,122.6l-0.1,0.5c-1.1-0.1-2.2-0.1-3.3-0.2c-1.1-0.1-1.7,0.3-1.7,1.4
	c0,1.9-0.1,3.9,0,5.8c0.1,3.5,0.2,7,0.5,10.5c0.2,0.7,0.7,1.3,1.4,1.5c1.5,0.3,3,0.4,4.5,0.3c3.4-0.3,6.8-0.7,10.1-1.1
	c0.5-0.2,0.8-0.6,0.9-1.1c0.1-2.8,0.1-5.5,0.2-8.3c0-1.8,0.2-3.7,0.2-5.5c0-0.9-0.1-1.6-1.4-1.8C116.8,124,113,123.3,109.3,122.6z
	 M138.6,104.2c-0.9,2-1.7,2.1-2.6,0.6c-0.3-0.3-0.7-0.5-1.1-0.5c-0.4,0.3-0.6,0.7-0.6,1.1c-0.1,1.1-0.5,1.5-1.6,1
	c-0.5-0.1-1.1,0.1-1.4,0.5c-1,2-1,2-2.8,0.6c-1-0.8-1.6-0.6-1.9,0.6c-0.4,1.3,0.1,1.8,1.9,1.7c4.9-0.3,9.7-0.6,14.5,0.2
	c0.5,0,1.1-0.1,1.6-0.3l0.1-0.6c-1.4-0.1-2.6-0.5-3.3-1.8c0-0.1-0.3-0.1-0.4-0.1c-1.4,0.4-1.6-0.5-1.7-1.5
	C139,105.2,138.9,104.7,138.6,104.2z M140.9,118.1c1.6,0,2.3-0.7,2.2-2.5c-0.1-1.7-1.3-0.8-2.1-0.9c-0.4,0-0.7,0-1.1,0
	c-1-0.1-1.4,0.2-1.4,1.3C138.5,117.8,138.8,118.1,140.9,118.1L140.9,118.1z M134.9,117.8l0.1,0.1c0.7-0.3,1.8-0.3,2.1-0.8
	c0.8-1.4-0.2-2.6-1.8-2.5c-0.6,0-1.2,0.1-1.8,0.4c-0.5,0.3-0.8,0.9-0.8,1.5c0.1,0.5,0.7,0.9,1.2,1.2
	C134.1,117.9,134.5,117.8,134.9,117.8z M135.3,111.2L135.3,111.2c-0.8,0-1.6,0.1-2.3,0.1c-1,0-1.1,0.7-0.9,1.3
	c0.2,0.4,0.5,0.7,1,0.8c1,0.1,2.1,0,3.1-0.2c0.4-0.1,0.7-0.8,1.1-1.2c-0.4-0.3-0.8-0.6-1.2-0.8C135.8,111.1,135.6,111.1,135.3,111.2
	z M137.2,122c0.2-1.5,0.5-2.7-1.1-2.8c-0.9,0-2.6-0.5-2.5,1.2C133.8,123,135.9,121,137.2,122L137.2,122z M127.9,115.5
	c0,1.5,0.2,2.5,1.4,2.5c0.6,0,1.6-0.1,1.8-0.4c0.2-0.5,0-1.7-0.4-1.8C129.8,115.6,128.9,115.5,127.9,115.5L127.9,115.5z
	 M128.6,114.4l1.9-1.7c-0.5-0.4-1-1.2-1.5-1.2c-0.7,0-2-0.1-1.9,1.1C127.1,113.2,127.9,113.6,128.6,114.4L128.6,114.4z M138.9,113.3
	c1.2-0.1,2.4-0.2,3.6-0.4c0.3,0,0.5-0.4,0.8-0.6c-0.3-0.3-0.5-0.7-0.8-0.8c-0.8-0.1-1.6,0-2.3-0.1
	C138.8,111.3,138.6,111.9,138.9,113.3L138.9,113.3z M142.3,121.6c-0.1-1.7-1.2-1.9-2.4-2c-0.4,0-0.8,0.4-1.1,0.7
	c0.3,0.4,0.5,1.1,0.9,1.2C140.6,121.7,141.4,121.7,142.3,121.6L142.3,121.6z M130.8,122l1.1-1.1c-0.5-0.4-0.9-1.1-1.3-1.1
	c-0.7,0.2-1.4,0.5-2,0.9L130.8,122z"/>
<path class="st0" d="M55.8,145.1c-0.2-0.5-0.3-1.1-0.3-1.6c-0.1-3.6-0.1-7.1-0.2-10.7c-0.1-3.7-0.5-7.4-0.6-11.1
	c-0.1-2.2,0-2.2,2.2-2.3c0.4,0,0.7-0.1,1.2-0.2c-0.2-1-0.3-2-0.6-2.9c-0.3-1-0.2-1.5,1.1-1.6c2.9-0.2,5.7-0.5,8.5-0.9
	c1.6-0.2,3.7,0.9,3.9,2.6c0.2,1.8,1.2,1.8,2.5,1.7c0.4-0.1,0.8-0.1,1.2-0.1c1.4,0.2,2.1-0.1,2-1.7c0.1-0.5,0.4-0.9,0.8-1
	c4-1.1,8.2-1.4,12.3-0.9c0.5,0.1,1,0.1,1.6,0.1c1.1,0.1,1.7,0.5,1.8,1.8c0,1.2-0.2,2.7,1.8,2.9c0.3,0,0.7,0.8,0.7,1.2
	c0,5.1-0.1,10.2-0.1,15.3c0,2.3-0.1,4.7-0.1,7c0,0.9-0.4,1.2-1.3,1.1c-4.9-0.3-9.8-0.6-14.7-0.7c-3.2-0.1-6.4,0.2-9.6,0.4
	c-4.1,0.3-8.1,0.6-12.2,1C57,144.7,56.4,144.9,55.8,145.1z M74.7,119.5c0.3,1.6,0.7,3,0.8,4.4c0.4,5.3,0.8,10.6,1.1,16
	c0.1,1.3,0.3,2,1.8,1.7c0.6-0.1,1.3-0.1,1.9,0c4.4,0.1,8.9,0.3,13.3,0.4c0.3,0,0.7-0.2,1-0.3c0-3,0-5.8,0-8.7
	c-0.1-3.4-0.2-6.8-0.4-10.2c-0.1-1.4-0.7-2.2-2.3-2.2C86.2,120.3,80.6,119.9,74.7,119.5L74.7,119.5z M56.8,135.2l-0.2,0
	c0.1,2,0.2,4,0.3,6c0,1.2,0.4,1.6,1.6,1.5c4.9-0.3,9.8-0.5,14.7-0.8c2.1-0.1,2.1-0.2,2-2.3c-0.3-3.9-0.4-7.8-0.7-11.7
	c-0.3-2.3-0.7-4.5-1.3-6.7c-0.2-0.6-0.7-1-1.4-1.1c-4.7,0.4-9.5,0.9-14.2,1.3c-1.6,0.1-1.8,1.1-1.7,2.2
	C56.1,127.4,56.5,131.3,56.8,135.2L56.8,135.2z M62.2,119.2c1.8-0.2,3.8-0.5,5.8-0.7c0.9-0.1,1.6-0.4,1.2-1.3
	c-0.3-0.7-1.2-1.7-1.7-1.7c-2.4,0.1-4.8,0.5-7.2,0.8c-0.9,0.1-1.2,0.6-1.1,1.5C59.3,119.7,60.8,119.1,62.2,119.2L62.2,119.2z
	 M85.4,115.9l-0.1-0.3c-1.8,0.3-3.6,0.5-5.3,0.9c-0.5,0.1-0.8,0.7-1.3,1.1c0.5,0.3,1.1,0.6,1.7,0.7c3.2,0.2,6.5,0.3,9.7,0.4
	c0.4,0,1-0.1,1-0.3c0.1-0.4,0.1-0.9-0.1-1.3c-0.4-0.4-0.9-0.7-1.5-0.8C88.3,116.1,86.8,116,85.4,115.9L85.4,115.9z"/>
<path class="st0" d="M49.1,96.5c0.3-0.7,0.7-1.3,1.3-1.8c3.5-2.6,7-5.1,10.5-7.6c3.2-2.3,6.3-4.6,9.5-6.9c4.9-3.4,9.7-6.9,14.7-10.1
	c4.4-2.7,9-5.1,13.5-7.6c0.9-0.5,1.8-1,2.6-1.7c0.7-0.6,1.6-0.6,2.3,0c5,2.8,10,5.5,14.9,8.4c2.1,1.2,4,2.8,6,4.2
	c3.7,2.7,7.4,5.3,11,8c5.8,4.4,12.1,8.3,17.1,13.8c1,1.1,2.3,2,3.4,3c0.3,0.3,0.4,0.6,0.4,1c0,0.2-0.6,0.5-0.8,0.4
	c-0.7-0.1-1.3-0.5-1.8-0.9c-3.1-4-6.9-7.5-11.1-10.3c-2.3-1.6-4.5-3.5-6.9-5.2c-1.7-1.2-3.4-2.3-5.2-3.5c-1.5-0.9-3-1.9-4.4-3
	c-6-5.2-12.9-8.8-20-12.1c-0.8-0.4-1.5-0.9-2.2-1.4c-0.9-0.7-2.1-0.8-3.1-0.3c-6,3.5-12,6.8-17.8,10.4c-4.7,2.9-9.3,6.1-13.8,9.4
	c-5.4,3.9-10.7,8.1-16,12.1c-1.1,0.8-2.4,1.5-3.6,2.2L49.1,96.5z"/>
<path class="st0" d="M111.4,78.2c0,4,0,8,0,12.1c0,1.4-0.5,1.7-1.9,1.4c-0.9-0.1-1.8-0.1-2.6,0c-2.7,0-5.3,0-8,0
	c-1.2,0-2.4,0-3.6,0.1c-0.9,0-1.1-0.4-1.2-1.2c-0.5-4.5-1-9-1.6-13.5c-0.3-2-0.1-2.4,1.9-2.5c5.2-0.2,10.5-0.3,15.7-0.4
	c0.4,0,1.1,0.7,1.2,1.2c0.1,1,0.1,2,0.1,3L111.4,78.2z M97.4,75.8c-3.4,0.1-3.5,0.2-3.1,3.4c0.1,0.5,0.2,1,0.2,1.6
	c0.3,2.2,0.3,2.4,2.6,2.1c4.9-0.6,3.7,0.5,3.6-4.2C100.7,76.2,99.9,75.7,97.4,75.8z M106.8,83.3c0.1,0-0.1,0-0.4,0
	c-3,0.1-3.5,0.6-3.2,3.5c0,0.4,0.2,0.7,0.2,1.1c0.2,3,0.7,2.5,3.3,2.2c3.6-0.4,3.6-0.5,3.3-4.4C109.8,83.3,109.6,83.2,106.8,83.3
	L106.8,83.3z M109.7,78.7c0-0.3,0-0.6,0-0.9c0.1-1.4-0.4-2.1-1.9-2c-1.5,0.1-3,0.2-4.5,0.3c-0.3,0-0.8,0.4-0.8,0.6
	c-0.1,1.7,0,3.3,0.3,4.9c0.1,0.3,2.1,0.2,3.2,0.2c0.3,0,0.6,0,0.9-0.1C109.7,81.5,109.7,81.5,109.7,78.7L109.7,78.7z M95.5,84.8
	c0,1.2,0.1,2.1,0,3c-0.3,1,0.3,2.1,1.3,2.3c0.2,0.1,0.4,0.1,0.6,0.1c1.1,0.1,2.2,0.2,3.3,0.1c0.5-0.1,0.9-0.5,1.1-1
	c0.1-1.3,0-2.7-0.2-4c-0.2-0.6-0.7-1-1.3-1.1C98.7,84.2,97.1,84.6,95.5,84.8L95.5,84.8z"/>
<path class="st0" d="M66.8,58.8c3.2-0.3,6.5-0.6,9.7-0.8c2.4-0.1,3.9,0.8,3.6,2.9c-0.2,1.4,0,2.8-0.1,4.2c0,0.5-0.5,0.9-0.8,1.3
	c-0.3-0.5-0.8-0.9-0.9-1.4c-0.1-1,0-2.1,0.1-3.1c0.1-1.7-0.4-2.4-2.1-2.3c-1.5,0-2.9,0.2-4.4,0.3c-2.1,0.2-4.2,0.4-6.2,0.4
	c-1.2,0-1.6,0.5-1.5,1.6c0.1,3.7,0.3,7.3,0.3,11c-0.1,0.9-0.4,1.7-0.8,2.5c-1.4-0.5-0.6-1.6-0.6-2.4c-0.2-4.4-0.3-8.8-0.5-13.1
	c0-0.9,0.2-1.3,1.1-1.2c1,0,2.1,0,3.1,0L66.8,58.8z"/>
<path class="st0" d="M125.6,129.9c0.4-0.8,0.9-2.2,1.3-2.2c1.5,0,0.7,1.4,0.8,2.2c0.2,0.9,0.3,1.9,0.2,2.8c0,0.4-0.5,0.7-0.7,1.1
	c-0.3-0.3-0.8-0.5-0.9-0.8c-0.2-1-0.3-2-0.5-2.9L125.6,129.9z"/>
<path class="st0" d="M107.1,118.5c-1.1-1.4-1-3.1-1-4.7c0.4-0.4,1-0.6,1.5-0.5C108.7,113.9,108.3,117.7,107.1,118.5z"/>
<path class="st0" d="M106.8,128.7c0-0.6,0-1.3,0.1-1.9c0.1-0.4,0.7-0.7,1-1c0.3,0.3,0.6,0.7,0.7,1.1c0.3,1.1,0.5,2.2,0.5,3.3
	c-0.1,0.5-0.3,0.9-0.7,1.2c-0.6-0.1-1.2-0.4-1.6-0.9C106.7,130.1,106.9,129.3,106.8,128.7L106.8,128.7z"/>
<path class="st0" d="M79.4,132.9c0.2-2.7,2.6-4.8,5.3-4.6c0.3,0,0.5,0.1,0.8,0.1c1.5,0.3,2.9,0.8,4.2,1.4c2.1,1.1,1.2,3.1,0.8,4.8
	c-0.4,1.7-3.9,3.8-5.6,3.6c-3.2-0.4-5.3-2.2-5.6-4.7C79.4,133.3,79.4,133.1,79.4,132.9z M89.5,132.9c0.2-1.4-0.8-2.6-2.2-2.8
	c-0.2,0-0.3,0-0.5,0c-0.4,0-0.8-0.1-1.2-0.2c-1.6-0.6-3.4,0.1-4.2,1.6c-0.9,1.3-0.6,3.1,0.7,4.1c0,0,0,0,0,0c0.9,0.6,2,1,3.1,1.1
	C87,137,89.5,134.5,89.5,132.9L89.5,132.9z"/>
<path class="st0" d="M65.8,137.2c-1.2-0.2-2.9,0.1-3.7-1.7c-1-2.2-1.3-4.3,0.1-6.4c2.8-4,3-3.2,6.8-1.5c2.2,1,2.3,2.7,1.7,4.4
	c-0.3,0.9-0.7,1.9-1.1,2.8C68.8,136.8,68.3,137.2,65.8,137.2z M65.4,135.8c2.3-0.1,3.2-1,3.9-3.6c0.6-2.2,0.1-3.2-2.1-4
	c-0.6-0.2-1.7-0.5-2-0.2c-0.9,0.9-1.6,1.9-2.2,3C62,133.2,63.4,135.9,65.4,135.8z"/>
</svg>
