<?xml version="1.0" encoding="utf-8"?>
<!-- Generator: Adobe Illustrator 21.1.0, SVG Export Plug-In . SVG Version: 6.00 Build 0)  -->
<svg version="1.1" id="Layer_1" xmlns="http://www.w3.org/2000/svg" xmlns:xlink="http://www.w3.org/1999/xlink" x="0px" y="0px"
	 viewBox="0 0 2812.9 960" style="enable-background:new 0 0 2812.9 960;" xml:space="preserve">
<polygon points="376.2,231.9 288.6,284.8 288.6,178.9 230.2,214.2 230.2,320.1 142.7,373.1 142.7,443.7 434.6,267.2 "/>
<polygon points="230.2,567.3 142.7,514.3 142.7,584.9 230.2,637.9 230.2,743.8 288.6,779.1 288.6,426 230.2,461.3 "/>
<polygon points="347,708.5 434.6,761.5 347,814.4 405.4,849.7 492.9,796.8 580.5,849.7 638.9,814.4 347,637.9 "/>
<polygon points="609.7,726.2 697.3,673.2 697.3,779.1 755.6,743.8 755.6,637.9 843.2,584.9 843.2,514.3 551.3,690.9 "/>
<polygon points="755.6,320.1 755.6,214.2 697.3,178.9 697.3,532 755.6,496.7 755.6,390.7 843.2,443.7 843.2,373.1 "/>
<polygon points="638.9,249.5 551.3,196.5 638.9,143.6 580.5,108.3 492.9,161.2 405.4,108.3 347,143.6 638.9,320.1 "/>
<g>
	<path d="M1251,347.3c-4.5-2.2-8.7-3.4-12.6-3.4c-5.2,0-7.8,6-7.8,17.9c0,3.9,1.8,7.6,5.5,10.9c3.6,3.4,7.7,5,12.2,5
		c17.2,0,25.8-15.1,25.8-45.3c0-12.1-4.8-22.6-14.4-31.5c-9.6-8.9-20.8-13.3-33.6-13.3c-17.1,0-32,6.5-44.5,19.5
		c-12.6,13-18.8,27.6-18.8,43.8c0,13.3,4.9,26.3,14.8,39c9.9,12.8,29.7,27.3,59.5,43.5s51.1,28.6,63.7,37.2
		c12.7,8.6,23.4,19,32.3,31.4c8.9,12.3,13.3,26.5,13.3,42.5c0,30-13.6,58.7-40.7,86.1c-27.2,27.3-57.2,41-90,41
		c-23.9,0-44.7-9.2-62.6-27.7c-17.8-18.5-26.7-39.9-26.7-64.4c0-19.6,8.6-37.3,25.9-53.2c17.3-15.9,35-23.8,53.3-23.8
		c17,0,30.7,4.1,41,12.2c10.4,8.1,15.5,19,15.5,32.6c0,14.4-5.8,26.9-17.5,37.5c-11.7,10.6-25,16-39.9,16c-6.3,0-11.6-2.3-15.8-6.9
		c-4.2-4.6-6.3-9.8-6.3-15.5c0-5.8,2.1-10.5,6.4-14.1c4.3-3.6,9.8-5.5,16.5-5.5c5.2,0,9,2.1,11.2,6.4c-9.9,3-14.8,6.5-14.8,10.6
		c0,10.5,4.8,15.7,14.3,15.7c7.5,0,13.6-4,18.3-11.9c4.8-7.9,7.1-16.4,7.1-25.3c0-11.4-3.9-21.2-11.8-29.5
		c-7.8-8.3-17.4-12.5-28.6-12.5c-14.7,0-26.1,6.8-34,20.4c-7.9,13.6-11.9,31.4-11.9,53.5c0,20,6.3,37.2,18.9,51.6
		c12.6,14.5,28.1,21.7,46.6,21.7c28.7,0,53.3-10,73.8-30.1c20.4-20.1,30.7-46.5,30.7-79.4c0-15.1-4.4-27.9-13.3-38.5
		c-8.9-10.5-19.8-19.3-32.8-26.2c-13-6.9-30.7-14.9-53.3-24.1c-22.6-9.1-40.8-17.4-54.7-24.8c-13.9-7.4-25.7-17-35.3-29
		c-9.6-11.9-14.4-26.5-14.4-43.7c0-23.7,10.6-43.8,31.8-60.2c21.2-16.4,46-24.6,74.3-24.6c18.3,0,33.8,4.4,46.5,13.3
		c12.7,8.9,19,20.5,19,34.9c0,16.2-4.2,30.1-12.7,41.7c-8.5,11.6-19.7,17.4-33.7,17.4c-10.8,0-20.2-2.4-28-7.1s-11.8-11.1-11.8-19.2
		c0-6.7,2.4-12.8,7.1-18.3c4.8-5.5,10.9-8.3,18.3-8.3C1244.7,333.6,1251,338.2,1251,347.3z"/>
	<path d="M1542.4,396.6c-15.3,2.8-27.9,4.8-37.9,6c-10,1.2-24.5,4.8-43.5,10.8c-0.9,11.9-6.4,41.3-16.5,88
		c-10.1,46.7-15.1,78.3-15.1,94.8c0,21.3,4.3,37.6,13,49c8.7,11.4,20.9,17.1,36.8,17.1c11.6,0,20.5-5.2,26.7-15.5
		c6.2-10.4,9.4-23.7,9.4-40.2c0-6.3-2.2-12.9-6.7-19.6c-4.5-6.7-9.4-10.1-14.8-10.1c-4.9,0-8.8,2.3-11.8,7c-3,4.7-4.5,10.1-4.5,16.2
		c0,5.4,2.5,8.1,7.6,8.1c5,0,8.7-4,10.9-12l3.4,2.2c0,5.8-1.6,10.6-4.9,14.4c-3.3,3.8-6.8,5.7-10.5,5.7c-6.2,0-12-2-17.5-6
		c-5.5-4-8.3-9.1-8.3-15.3c0-8,3.5-15.2,10.5-21.4c7-6.2,14.5-9.4,22.5-9.4c10.3,0,20.5,3.5,30.7,10.6c10.2,7.1,15.3,14.6,15.3,22.4
		c0,17.7-5.4,34.1-16.2,49.1c-10.8,15-23.3,22.5-37.5,22.5c-21.7,0-38.9-6.8-51.8-20.3c-12.9-13.5-19.3-31.4-19.3-53.6
		c0-11,2.2-40.6,6.6-88.9c4.4-48.2,6.4-76.3,6-84.1l-51.8,14.8v-15.4l51.8-12c0.4-5.6,0.6-12.1,0.6-19.6c0-22.2-1.6-43.8-4.8-64.7
		l48.1-8.1c0.6,23.3-1.7,50.3-6.7,80.9c23.3-7.5,39.1-12,47.3-13.6c8.2-1.6,17.8-4,28.8-7.1L1542.4,396.6z"/>
	<path d="M1632.2,482.8c-1.3,7.7-5.7,11.5-13.2,11.5c-4.1,0-7.5-1.4-10.1-4.3c-2.6-2.9-3.9-6.7-3.9-11.3c0-5.4,2.4-10.5,7.1-15.3
		s9.8-7.1,15.3-7.1c25.2,0,37.8,7.3,37.8,21.8c0,12.1-6.4,23.3-19.3,33.5c-12.9,10.2-24,15.3-33.3,15.3c-11,0-20.3-3.1-28-9.4
		c-7.7-6.2-11.5-14.6-11.5-25.1c0-21.6,10.2-43.7,30.5-66.1c20.3-22.4,41.5-33.6,63.5-33.6c18.1,0,33.3,7.8,45.6,23.4
		c12.3,15.6,18.5,34.8,18.5,57.5c0,16.2-2.3,30.1-6.9,41.7c-4.6,11.6-11.5,25.2-20.9,40.9c-23.9,39.6-35.8,75.9-35.8,108.9
		c0,3.7,0.2,7.6,0.6,11.5h-11.5l0.6-37.2c-23.3,15.3-40.1,23-50.4,23c-12.7,0-23.1-3.9-31.4-11.6c-8.2-7.7-12.3-17.9-12.3-30.4
		c0-11.8,6.1-22.2,18.3-31.2c12.2-9,25.8-13.6,40.7-13.6c10.6,0,27.6-1.1,50.9-3.4c13.8-30,20.7-56.8,20.7-80.3
		c0-54.1-12.4-81.2-37.2-81.2c-22.8,0-39.1,7.3-49,21.9c-9.9,14.6-14.8,34.8-14.8,60.4c0,7.1,2.1,13.1,6.3,18.2
		c4.2,5,9.4,7.5,15.5,7.5c7.6,0,14.9-3.5,21.8-10.6c6.9-7.1,10.4-14.8,10.4-23.2c0-4.7-2.1-8.7-6.4-12.2c-4.3-3.5-9.1-5.2-14.3-5.2
		c-2.2,0-4.2,1.1-6,3.4c-1.8,2.3-2.7,4.6-2.7,7.1c0,4.7,2,7.1,5.9,7.1C1626.7,485.1,1629.6,484.3,1632.2,482.8z M1669.5,581.9
		c-15.7,0.9-28.3,2.2-37.9,3.8c-9.6,1.6-17.4,6-23.2,13.2c-5.9,7.2-8.8,14.7-8.8,22.5c0,7.5,2,13.6,6,18.5c4,4.9,9.3,7.3,15.8,7.3
		c11.4,0,24.2-7.2,38.3-21.6L1669.5,581.9z"/>
	<path d="M1824,477.5c7.6-25.8,18.4-45.4,32.3-59.1c13.9-13.6,28-20.4,42.4-20.4c13.8,0,25.7,5.6,35.5,16.9
		c9.9,11.3,14.8,25.1,14.8,41.3c0,19-5.6,34.5-16.8,46.5c-11.2,11.9-25.7,17.9-43.4,17.9c-9.1,0-16.9-3.5-23.2-10.6
		c-6.3-7.1-9.5-15.6-9.5-25.5c0-4.9,4.2-10.9,12.5-18.1c8.3-7.2,15.1-10.8,20.3-10.8c7.5,0,13.9,1.8,19.3,5.3
		c5.4,3.5,8.1,8.5,8.1,14.8c0,7.1-6.3,12-18.8,14.8c2.2-5.6,3.4-10.2,3.4-13.7c0-7.3-2.5-10.9-7.6-10.9c-4.3,0-7.9,2.6-10.9,7.8
		c-3,5.2-4.5,10.5-4.5,15.7c0,4.9,2.1,9.6,6.3,14.3c4.2,4.7,8.6,7,13.3,7c12.7,0,22.7-4.5,30.1-13.6c7.4-9,11.1-20.4,11.1-34
		c0-9.7-4.4-18.1-13.2-25.1c-8.8-7-18.8-10.5-30-10.5c-11.6,0-22.1,3-31.6,9.1c-9.5,6.1-18.3,16.8-26.5,32.3
		c-8.1,15.5-12.2,25.2-12.2,29.1c0,3,3.5,55.3,10.6,157c22.8-6.9,43.5-16.2,62.1-28l3.4,13.7c-20.9,10.5-40.3,18.7-58.2,24.6
		c-17.9,6-40.8,10.7-68.6,14.3v-14.3c16.4,0,32.3-2.1,47.6-6.4c0-19.8-4.4-53.9-13.3-102.5c-8.9-48.5-18.3-89.4-28.4-122.6
		l-39.7,14.3l-2.8-9.2c36.2-9.3,65-23.9,86.5-43.7c-1.1,15.9-1.7,26.8-1.7,32.8C1822.9,444.7,1823.2,461.1,1824,477.5z"/>
	<path d="M2142.8,652.5c-20.2,5.4-36.8,8.1-49.8,8.1c-31.2,0-57.5-13.7-78.9-41.1c-21.5-27.4-32.2-59.4-32.2-96
		c0-33.6,13.1-63.7,39.2-90.3c26.1-26.6,55.9-39.9,89.3-39.9c15.3,0,30.9,4.8,46.7,14.4c15.9,9.6,23.8,21,23.8,34.3
		c0,11.2-5.3,21.9-15.8,32.2c-10.5,10.3-21.8,15.4-33.7,15.4c-10.6,0-20.2-2.8-28.6-8.5c-8.4-5.7-12.6-13.1-12.6-22.3
		c0-8.6,2.7-15.3,8.1-20c5.4-4.8,12.8-7.1,22.1-7.1c5.4,0,10.3,1.4,14.7,4.1c4.4,2.7,6.6,6.2,6.6,10.5c0,2.6-1.7,5.3-5.2,8
		c-3.5,2.7-6.7,4.1-9.7,4.1h-3.4c1.9-6.2,2.8-10.2,2.8-12c0-4.7-2.9-7-8.7-7c-3.4,0-6.3,2-8.8,5.9s-3.8,7.8-3.8,11.8
		c0,14.9,6.9,22.4,20.7,22.4c9.3,0,16.9-3.4,22.8-10.2c5.9-6.8,8.8-15.1,8.8-24.8c0-11.6-4.9-21.4-14.7-29.5
		c-9.8-8.1-20.8-12.2-32.9-12.2c-25.4,0-46.6,13.2-63.5,39.5c-17,26.3-25.5,54.2-25.5,83.7c0,32.5,6.6,61.6,19.9,87.5
		c13.2,25.8,30.7,38.8,52.3,38.8c17,0,29.6-7.1,37.8-21.3L2142.8,652.5z"/>
	<path d="M2320.8,672.6c-43.1,0-70,0.7-80.6,2.1c-10.6,1.4-19.9,2.9-27.7,4.6v-15.4l36.1-1.1c0-81-4.2-158.4-12.6-232.3l-31.1-1.1
		V419c19.2,0.4,32.6,0.6,40,0.6c13.2,0,31.1-3.5,53.5-10.4v12.9l-25.2,6.2l-5.9,90.1l-6.7,142.2c21.3,0,41.3-1.2,60.2-3.6V672.6z
		 M2300.7,335.3l-3.4,0.6c-7.1-11.4-17.6-17.1-31.6-17.1c-10.6,0-20.3,3.2-29.1,9.5c-8.8,6.3-13.2,13.7-13.2,22.1
		c0,10.1,3.7,18.1,11.2,24.1c7.5,6,14.7,9,21.8,9c14.2,0,21.3-6.2,21.3-18.8c0-14.2-5.5-21.3-16.3-21.3c-2,0-4.2,0.8-6.6,2.3
		c-2.4,1.6-3.6,3.4-3.6,5.6c0,4.4,2.7,6.6,8,6.6c2.4,0,5.3-1.1,8.8-3.4c-2.1,9.7-6.4,14.6-13.2,14.6c-3,0-5.6-1.8-8-5.3
		c-2.3-3.5-3.5-6.5-3.5-9c0-4.7,2-8.7,5.9-12.2c3.9-3.5,8.7-5.2,14.3-5.2c7.5,0,14.4,2.1,20.7,6.2c6.3,4.1,9.5,9.9,9.5,17.4
		c0,7.8-4,14.5-11.9,20c-7.9,5.5-16.6,8.3-25.9,8.3c-11,0-20.6-3.8-28.8-11.5c-8.2-7.6-12.3-17.3-12.3-28.8
		c0-12.1,4.3-22.9,12.9-32.2c8.6-9.3,17.8-14,27.7-14C2280.2,302.8,2295.3,313.7,2300.7,335.3z"/>
	<path d="M2489.9,396.6c-15.3,2.8-27.9,4.8-37.9,6c-10,1.2-24.5,4.8-43.5,10.8c-0.9,11.9-6.4,41.3-16.5,88
		c-10.1,46.7-15.1,78.3-15.1,94.8c0,21.3,4.3,37.6,13,49c8.7,11.4,20.9,17.1,36.8,17.1c11.6,0,20.5-5.2,26.7-15.5
		c6.2-10.4,9.4-23.7,9.4-40.2c0-6.3-2.2-12.9-6.7-19.6c-4.5-6.7-9.4-10.1-14.8-10.1c-4.9,0-8.8,2.3-11.8,7c-3,4.7-4.5,10.1-4.5,16.2
		c0,5.4,2.5,8.1,7.6,8.1c5,0,8.7-4,10.9-12l3.4,2.2c0,5.8-1.6,10.6-4.9,14.4c-3.3,3.8-6.8,5.7-10.5,5.7c-6.2,0-12-2-17.5-6
		c-5.5-4-8.3-9.1-8.3-15.3c0-8,3.5-15.2,10.5-21.4c7-6.2,14.5-9.4,22.5-9.4c10.3,0,20.5,3.5,30.7,10.6c10.2,7.1,15.3,14.6,15.3,22.4
		c0,17.7-5.4,34.1-16.2,49.1c-10.8,15-23.3,22.5-37.5,22.5c-21.7,0-38.9-6.8-51.8-20.3c-12.9-13.5-19.3-31.4-19.3-53.6
		c0-11,2.2-40.6,6.6-88.9c4.4-48.2,6.4-76.3,6-84.1l-51.8,14.8v-15.4l51.8-12c0.4-5.6,0.6-12.1,0.6-19.6c0-22.2-1.6-43.8-4.8-64.7
		l48.1-8.1c0.6,23.3-1.7,50.3-6.7,80.9c23.3-7.5,39.1-12,47.3-13.6c8.2-1.6,17.8-4,28.8-7.1L2489.9,396.6z"/>
	<path d="M2659,409.2c1.1,1.7,1.7,3.4,1.7,5c0,3.4-1.6,6.5-4.9,9.5c-3.3,3-6.2,4.5-8.8,4.5c-5.6,0-10.7-3-15.4-9
		c-4.7-6-7-11.6-7-16.8c0-8.6,3.7-17,11.2-25.3c7.5-8.3,14.6-12.5,21.6-12.5c10.4,0,20,4.3,28.6,13c8.6,8.7,12.9,18.1,12.9,28.1
		c0,10.5-2.4,23.1-7.1,37.9c-4.8,14.8-16.6,40.7-35.5,77.7c-18.9,37-32.6,65.7-41.2,86.2c-8.6,20.5-15.4,41.3-20.5,62.4
		c-10.3,42.7-23.1,68.3-38.4,76.8c-15.3,8.5-27.3,12.7-35.9,12.7c-14.6,0-26.3-3.4-35.3-10.1c-9-6.7-13.4-14.7-13.4-23.8
		c0-9.7,5-18.1,15.1-25.1s21.6-10.5,34.7-10.5c5.6,0,10.6,2,15.1,5.9s6.7,8.9,6.7,14.8c0,4.9-3.1,9.4-9.2,13.7
		c-6.2,4.3-12,6.4-17.6,6.4c-4.7,0-7-2-7-5.9c2.2,0,5-1.6,8.4-4.8c3.4-3.2,5-7.1,5-11.8c0-6.9-2.4-10.4-7.3-10.4
		c-7.5,0-13.6,1.8-18.5,5.5c-4.9,3.6-7.3,8.6-7.3,15c0,8.4,3.4,16,10.1,23c6.7,6.9,14.5,10.4,23.3,10.4c9.5,0,19.3-7.7,29.4-23
		c10.1-15.3,17.5-31,22.3-47c4.8-16,12.6-38.3,23.4-66.9c-33.8-95-66.7-162.4-98.7-202.1c-8.4,2.2-21.6,6.4-39.5,12.6l-3.1-11.2
		c19.2-4.3,44.3-13.8,75.3-28.6c10.1,13.1,19.5,30.3,28.2,51.6c8.7,21.4,17,45.9,24.8,73.5l23.3,82.3l43.8-87.8
		c12.2-24.4,20.2-43.5,24.3-57.2c4-13.7,6-25.1,6-34.2c0-8.9-2.8-16.2-8.5-21.7c-5.7-5.5-13.1-8.2-22.3-8.2c-4.3,0-7.9,1.2-10.8,3.5
		c-2.9,2.3-4.3,5.1-4.3,8.5c0,11.1,3.1,16.6,9.2,16.6C2649.4,412.8,2653.8,411.6,2659,409.2z"/>
</g>
</svg>
