<?xml version="1.0" encoding="UTF-8"?>
<svg width="212px" height="87px" viewBox="0 0 212 87" version="1.1" xmlns="http://www.w3.org/2000/svg" xmlns:xlink="http://www.w3.org/1999/xlink">
    <!-- Generator: Sketch 47.1 (45422) - http://www.bohemiancoding.com/sketch -->
    <title>minsize-digital</title>
    <desc>Created with Sketch.</desc>
    <defs></defs>
    <g id="Page-1" stroke="none" stroke-width="1" fill="none" fill-rule="evenodd">
        <g id="Guidelines-B" transform="translate(-976.000000, -3257.000000)">
            <g id="Group-20" transform="translate(901.000000, 3227.000000)">
                <g id="minsize-digital" transform="translate(75.000000, 30.000000)">
                    <text id="66px" font-family="WorkSans-Regular, Work Sans" font-size="14" font-weight="normal" fill="#B121D5">
                        <tspan x="121" y="84">66px</tspan>
                    </text>
                    <rect id="Rectangle-3" fill="#B121D5" x="81" y="68" width="130" height="1"></rect>
                    <rect id="Rectangle-4" fill="#B121D5" x="80" y="66" width="1" height="5"></rect>
                    <rect id="Rectangle-4" fill="#B121D5" x="211" y="66" width="1" height="5"></rect>
                    <g id="dark-horizontal-logo" fill-rule="nonzero" fill="#2E2B2C">
                        <polygon id="Shape" points="19.9982871 10.6034743 12.4957177 15.1982628 12.4957177 6 7.4940048 9.06608761 7.4940048 18.2643505 0 22.8678248 0 29 25 13.6695619"></polygon>
                        <polygon id="Shape" points="7.79643592 39.0050977 0 34.502124 0 40.5004248 7.79643592 45.0033985 7.79643592 54.0008496 13 57 13 27 7.79643592 29.9991504"></polygon>
                        <polygon id="Shape" points="18 51 25.5025694 55.5042493 18 60 23.0017129 63 30.4957177 58.5042493 37.9982871 63 43 60 18 45"></polygon>
                        <polygon id="Shape" points="40.0017129 53.4052115 47.5042823 48.8017372 47.5042823 58 52.4974306 54.9339124 52.4974306 45.7356495 60 41.1321752 60 35 35 50.3391239"></polygon>
                        <polygon id="Shape" points="53.1946539 17.9966015 53.1946539 8.99915038 48 6 48 36 53.1946539 33.0008496 53.1946539 23.9949023 61 28.497876 61 22.4995752"></polygon>
                        <polygon id="Shape" points="43 12 35.4974306 7.49575071 43 3 37.9982871 0 30.4957177 4.49575071 23.0017129 0 18 3 43 18"></polygon>
                        <g id="Group" transform="translate(81.000000, 15.000000)">
                            <path d="M19.6201201,1.84731123 L18.9151026,3.40248952 C17.9349564,2.99006655 16.7656591,2.6206043 15.3900153,2.29410278 C14.0143715,1.96760126 12.6731187,1.79575836 11.3490616,1.79575836 C10.153971,1.79575836 9.0620537,1.95900912 8.08190748,2.29410278 C7.10176125,2.6206043 6.27637495,3.06739586 5.59715082,3.61729315 C4.91792668,4.16719045 4.40206024,4.81160134 4.04095374,5.55052583 C3.67984723,6.28945033 3.49929398,7.08851983 3.49929398,7.93914221 C3.49929398,8.94442321 3.74862942,9.79504559 4.25589809,10.4910094 C4.76316675,11.1869731 5.43379311,11.7798311 6.26777718,12.2867677 C7.10176125,12.7937043 8.04751638,13.2404958 9.10504257,13.6357345 C10.1625688,14.0309732 11.2458883,14.434804 12.3635989,14.8386349 C13.4813095,15.2510578 14.5732268,15.7150337 15.630753,16.2305624 C16.6882792,16.7460911 17.6340343,17.3819098 18.4680184,18.1208343 C19.3020024,18.8597588 19.9726288,19.7447498 20.4798975,20.7672151 C20.9871661,21.7896804 21.2365016,23.0441336 21.2365016,24.5219826 C21.2365016,25.9740551 20.9785683,27.2800612 20.4541041,28.4400008 C19.9296399,29.6085325 19.1816336,30.5966292 18.2100851,31.4214752 C17.2299389,32.237729 16.0692394,32.8735477 14.7107912,33.3117471 C13.3523429,33.7499466 11.8391347,33.9733423 10.1711665,33.9733423 C8.84710935,33.9733423 7.64342101,33.8444602 6.55150372,33.5952879 C5.45958643,33.3461157 4.49663576,33.0367985 3.64545614,32.6759284 C2.79427652,32.3150583 2.06346574,31.9541882 1.44442602,31.584726 C0.833984069,31.2238558 0.35250873,30.9489072 0,30.75988 L0.94575513,29.0156745 C1.45302379,29.3593603 2.05486796,29.7202304 2.7684832,30.0811005 C3.47350066,30.4419706 4.23870254,30.7770643 5.03829551,31.0691972 C5.84648626,31.3699223 6.6890681,31.6105024 7.56604104,31.7995296 C8.45161175,31.9885568 9.32858469,32.0830704 10.2141554,32.0830704 C11.220095,32.0830704 12.2604256,31.9370039 13.3351473,31.6362788 C14.4098691,31.3355537 15.3814175,30.88017 16.2669882,30.2615356 C17.152559,29.6514933 17.874772,28.8610159 18.442225,27.8986956 C19.0096781,26.9363754 19.2934047,25.79362 19.2934047,24.4704297 C19.2934047,23.2073843 19.0440692,22.1419583 18.5368006,21.2569674 C18.0295319,20.3719764 17.3589055,19.6244598 16.5249215,19.0144174 C15.6909374,18.395783 14.7451823,17.86307 13.6876561,17.4076863 C12.6301299,16.9523026 11.5468104,16.5141032 10.420502,16.1102723 C9.30279137,15.6978494 8.21087408,15.2768343 7.15334789,14.8386349 C6.0958217,14.4004354 5.15006657,13.8763146 4.3160825,13.2748644 C3.48209843,12.6734142 2.81147207,11.9688583 2.30420341,11.1440124 C1.79693475,10.3277586 1.5475993,9.31388545 1.5475993,8.11957726 C1.5475993,7.01978267 1.7797392,5.97154095 2.23542122,4.9748521 C2.69110323,3.9867554 3.33593628,3.11894873 4.16992035,2.38002424 C5.00390442,1.64109974 6.00984396,1.05683387 7.17054344,0.635818749 C8.33984069,0.206211486 9.62950678,0 11.0481395,0 C11.7703525,0 12.5355544,0.0515528715 13.3437451,0.16325076 C14.1519359,0.274948648 14.9429311,0.412422972 15.7339263,0.592858022 C16.5249215,0.764700928 17.2557322,0.962320268 17.9349564,1.18571604 C18.6141805,1.40911182 19.1730358,1.6325076 19.6201201,1.84731123 Z" id="Shape"></path>
                            <polygon id="Shape" points="27.0237582 7 28.6745308 7 28.6745308 15.3171966 34.4436371 15.3171966 34.4436371 16.7778613 28.6745308 16.7778613 28.6745308 33.3177409 27.0237582 33.3177409 27.0237582 16.7778613 23 16.7778613 23 15.3171966 27.0237582 15.3171966"></polygon>
                            <path d="M37,24.5888341 C37,23.2656437 37.2493354,22.0197827 37.7566041,20.8598431 C38.2638728,19.6913113 38.9430969,18.6774382 39.7942765,17.8096315 C40.6454561,16.9418248 41.6427979,16.2544532 42.7948996,15.7561088 C43.9470013,15.2491722 45.1850808,15 46.5091379,15 C47.4548931,15 48.3576593,15.1374743 49.2002412,15.4038308 C50.0514208,15.6701873 50.8252204,16.0396496 51.5216401,16.5122176 C52.2180598,16.9847856 52.819904,17.5260907 53.3443682,18.1447252 C53.8688324,18.7547675 54.26433,19.4163627 54.5480566,20.1037343 C54.5480566,19.3132569 54.5652521,18.5313717 54.5910454,17.7408943 C54.6254365,16.950417 54.6684254,16.185716 54.7372076,15.4296073 L56.1558403,15.4296073 L56.1558403,33.7136924 L54.5480566,33.7136924 L54.5480566,29.0309732 C54.0149946,30.4143086 53.0348483,31.6000246 51.6162156,32.570937 C50.197583,33.5504416 48.4952237,34.0316017 46.5091379,34.0316017 C45.1506897,34.0316017 43.9040124,33.7824295 42.7519107,33.275493 C41.599809,32.7685564 40.6024673,32.0897769 39.7512877,31.2477467 C38.900108,30.3971243 38.2294817,29.4004354 37.7394086,28.249088 C37.2407377,27.0977405 37,25.8776559 37,24.5888341 Z M38.6077837,24.5372812 C38.6077837,25.6370758 38.8141303,26.6681333 39.2182257,27.6304535 C39.6309188,28.5927738 40.1897741,29.4262119 40.8947916,30.1307678 C41.599809,30.8353237 42.4509887,31.4024053 43.4225371,31.8062361 C44.4026833,32.2186591 45.443014,32.4248706 46.543529,32.4248706 C47.6440441,32.4248706 48.6843747,32.2186591 49.664521,31.8062361 C50.6446672,31.3938131 51.4958468,30.8353237 52.2180598,30.1307678 C52.9402728,29.4262119 53.5077259,28.5841816 53.9204191,27.6304535 C54.3331122,26.6681333 54.5394588,25.6370758 54.5394588,24.5372812 C54.5394588,23.4374866 54.3331122,22.3978371 53.9204191,21.4183325 C53.5077259,20.4388279 52.9402728,19.5967977 52.2180598,18.8922418 C51.4958468,18.1876859 50.6446672,17.6206043 49.664521,17.2167735 C48.6843747,16.8043505 47.6440441,16.6067312 46.543529,16.6067312 C45.443014,16.6067312 44.4026833,16.8129426 43.4225371,17.2167735 C42.4423909,17.6291964 41.599809,18.1876859 40.8947916,18.8922418 C40.1897741,19.5967977 39.622321,20.4474201 39.2182257,21.4183325 C38.8141303,22.3978371 38.6077837,23.4374866 38.6077837,24.5372812 Z" id="Shape"></path>
                            <path d="M71.0706515,16.9418248 C70.0905052,16.9761934 69.1533479,17.1480363 68.2591794,17.4573535 C67.3564131,17.7752629 66.5654179,18.2220545 65.8689983,18.8063203 C65.1725786,19.3905862 64.622321,20.0779578 64.2182257,20.8856195 C63.8055325,21.6932812 63.6077837,22.5782721 63.6077837,23.5577767 L63.6077837,33.6707316 L62,33.6707316 L62,15.3866465 L63.3756438,15.3866465 C63.3756438,15.5155287 63.3842416,15.8076617 63.4014371,16.2802296 C63.4186327,16.7527976 63.4272305,17.2597342 63.4272305,17.7924472 C63.4272305,18.3251602 63.4358282,18.8235046 63.4530238,19.2788883 C63.4702193,19.734272 63.4788171,20.0092207 63.4788171,20.1037343 C64.2010301,18.5313717 65.3015452,17.2941028 66.7631667,16.3919275 C68.2247883,15.4983444 69.7637898,15.0257764 71.3715736,15 L71.0706515,16.9418248 Z" id="Shape"></path>
                            <path d="M87.5302379,30.732218 C87.7193889,30.9212452 87.8999422,31.1188645 88.0718977,31.325076 C88.2438531,31.5312875 88.4072108,31.7460911 88.5705686,31.9608947 C87.75378,32.5881213 86.8338182,33.0950579 85.8278787,33.4731123 C84.8219391,33.8511667 83.7300218,34.0401939 82.5607246,34.0401939 C81.2366674,34.0401939 79.9899902,33.7910217 78.8206929,33.2840851 C77.6513957,32.7771485 76.6368584,32.0983691 75.7684832,31.2563388 C74.900108,30.4057164 74.2208839,29.4090276 73.7308108,28.2576801 C73.2407377,27.1063327 73,25.8690637 73,24.5458734 C73,23.222683 73.2407377,21.9768219 73.7308108,20.8082902 C74.2208839,19.6397584 74.900108,18.6344774 75.7684832,17.7838551 C76.6368584,16.9332327 77.6513957,16.2544532 78.8206929,15.7561088 C79.9899902,15.2491722 81.2366674,15 82.5607246,15 C83.7300218,15 84.8219391,15.1890272 85.8450742,15.5670816 C86.8682093,15.945136 87.7881711,16.4520725 88.6135574,17.0792992 C88.4587975,17.3026949 88.2782442,17.5003143 88.097691,17.6893415 C87.90854,17.8783687 87.7193889,18.1017644 87.5302379,18.3509366 C86.8682093,17.8182236 86.1116052,17.3886164 85.2604256,17.0792992 C84.409246,16.7613898 83.5064797,16.6067312 82.5607246,16.6067312 C81.4258184,16.6067312 80.37689,16.8129426 79.4139393,17.2167735 C78.4509887,17.6291964 77.6170046,18.1876859 76.9119871,18.8922418 C76.2069697,19.5967977 75.6395166,20.4474201 75.2354212,21.4183325 C74.8227281,22.3978371 74.6249793,23.4374866 74.6249793,24.5372812 C74.6249793,25.6370758 74.8313258,26.6681333 75.2354212,27.6304535 C75.6481144,28.5927738 76.2069697,29.4262119 76.9119871,30.1307678 C77.6170046,30.8353237 78.4595864,31.4024053 79.4139393,31.8062361 C80.37689,32.2186591 81.4258184,32.4248706 82.5607246,32.4248706 C83.5064797,32.4248706 84.409246,32.2788041 85.2604256,31.978079 C86.1116052,31.6859461 86.8682093,31.264931 87.5302379,30.732218 Z" id="Shape"></path>
                            <path d="M93,8.46925684 C93,8.05683387 93.1375644,7.71314806 93.4212909,7.42960726 C93.7050175,7.14606647 94.0403306,7 94.4186327,7 C94.7625437,7 95.0806613,7.14606647 95.3643878,7.42960726 C95.6481144,7.71314806 95.7856787,8.05683387 95.7856787,8.46925684 C95.7856787,8.88167981 95.6481144,9.21677348 95.3643878,9.48312998 C95.0806613,9.74948648 94.7625437,9.88696081 94.4186327,9.88696081 C94.0403306,9.88696081 93.7136152,9.74948648 93.4212909,9.48312998 C93.1375644,9.21677348 93,8.88167981 93,8.46925684 Z M95.1752368,33.1373059 L93.5674531,33.1373059 L93.5674531,14.8532208 L95.1752368,14.8532208 L95.1752368,33.1373059 Z" id="Shape"></path>
                            <polygon id="Shape" points="103.023758 7 104.674531 7 104.674531 15.3171966 110.443637 15.3171966 110.443637 16.7778613 104.674531 16.7778613 104.674531 33.3177409 103.023758 33.3177409 103.023758 16.7778613 99 16.7778613 99 15.3171966 103.023758 15.3171966"></polygon>
                            <path d="M117.138811,42.0738497 L115.341876,42.0738497 C115.720178,41.2833723 116.046893,40.55304 116.339218,39.8742605 C116.622944,39.195481 116.898073,38.5081094 117.164604,37.8207378 C117.431135,37.124774 117.723459,36.3944417 118.041577,35.6211486 C118.359694,34.8478555 118.737997,33.9456803 119.176483,32.9060307 C117.723459,29.9761092 116.373609,26.9946348 115.109736,23.9787918 C113.845863,20.9543567 112.478817,17.9642901 111,15 L112.745348,15 C113.596528,16.6668762 114.353132,18.2392388 115.01516,19.6999035 C115.677189,21.1605681 116.287631,22.5782721 116.863682,23.9272389 C117.431135,25.2847979 117.981392,26.5908039 118.514454,27.8538493 C119.047516,29.1168947 119.597774,30.3627557 120.165227,31.5914325 C120.73268,30.3627557 121.282938,29.1168947 121.816,27.8538493 C122.349062,26.5908039 122.899319,25.29339 123.466772,23.9530154 C124.034225,22.6126407 124.644667,21.2035289 125.2895,19.7256799 C125.934333,18.2478309 126.68234,16.6668762 127.533519,15 L129.330454,15 L117.138811,42.0738497 Z" id="Shape"></path>
                        </g>
                    </g>
                </g>
            </g>
        </g>
    </g>
</svg>