<?xml version="1.0" encoding="utf-8"?>
<!-- Generator: Adobe Illustrator 21.1.0, SVG Export Plug-In . SVG Version: 6.00 Build 0)  -->
<svg version="1.1" id="Layer_1" xmlns="http://www.w3.org/2000/svg" xmlns:xlink="http://www.w3.org/1999/xlink" x="0px" y="0px"
	 viewBox="0 0 2812.9 1680.8" style="enable-background:new 0 0 2812.9 1680.8;" xml:space="preserve">
<style type="text/css">
	.st0{fill:#2E2B2C;}
	.st1{enable-background:new    ;}
</style>
<polygon class="st0" points="376.2,592.3 288.6,645.2 288.6,539.3 230.2,574.6 230.2,680.5 142.7,733.5 142.7,804.1 434.6,627.6 "/>
<polygon class="st0" points="230.2,927.7 142.7,874.7 142.7,945.3 230.2,998.3 230.2,1104.2 288.6,1139.5 288.6,786.4 230.2,821.7 
	"/>
<polygon class="st0" points="347,1068.9 434.6,1121.9 347,1174.8 405.4,1210.1 492.9,1157.2 580.5,1210.1 638.9,1174.8 347,998.3 
	"/>
<polygon class="st0" points="609.7,1086.6 697.3,1033.6 697.3,1139.5 755.6,1104.2 755.6,998.3 843.2,945.3 843.2,874.7 
	551.3,1051.3 "/>
<polygon class="st0" points="755.6,680.5 755.6,574.6 697.3,539.3 697.3,892.4 755.6,857.1 755.6,751.1 843.2,804.1 843.2,733.5 "/>
<polygon class="st0" points="638.9,609.9 551.3,556.9 638.9,504 580.5,468.7 492.9,521.6 405.4,468.7 347,504 638.9,680.5 "/>
<g class="st1">
	<path class="st0" d="M1319.9,663.1l-8.2,18.1c-11.4-4.8-25-9.1-41-12.9s-31.6-5.8-47-5.8c-13.9,0-26.6,1.9-38,5.8
		c-11.4,3.8-21,9-28.9,15.4c-7.9,6.4-13.9,13.9-18.1,22.5c-4.2,8.6-6.3,17.9-6.3,27.8c0,11.7,2.9,21.6,8.8,29.7
		c5.9,8.1,13.7,15,23.4,20.9c9.7,5.9,20.7,11.1,33,15.7c12.3,4.6,24.9,9.3,37.9,14c13,4.8,25.7,10.2,38,16.2s23.3,13.4,33,22
		c9.7,8.6,17.5,18.9,23.4,30.8s8.8,26.5,8.8,43.7c0,16.9-3,32.1-9.1,45.6c-6.1,13.6-14.8,25.1-26.1,34.7
		c-11.4,9.5-24.9,16.9-40.7,22c-15.8,5.1-33.4,7.7-52.8,7.7c-15.4,0-29.4-1.5-42.1-4.4s-23.9-6.5-33.8-10.7s-18.4-8.4-25.6-12.7
		c-7.1-4.2-12.7-7.4-16.8-9.6l11-20.3c5.9,4,12.9,8.2,21.2,12.4c8.2,4.2,17.1,8.1,26.4,11.5c9.4,3.5,19.2,6.3,29.4,8.5
		c10.3,2.2,20.5,3.3,30.8,3.3c11.7,0,23.8-1.7,36.3-5.2s23.8-8.8,34.1-16c10.3-7.1,18.7-16.3,25.3-27.5c6.6-11.2,9.9-24.5,9.9-39.9
		c0-14.7-2.9-27.1-8.8-37.4c-5.9-10.3-13.7-19-23.4-26.1c-9.7-7.2-20.7-13.4-33-18.7c-12.3-5.3-24.9-10.4-38-15.1
		c-13-4.8-25.7-9.7-38-14.8c-12.3-5.1-23.3-11.2-33-18.2s-17.5-15.2-23.4-24.8c-5.9-9.5-8.8-21.3-8.8-35.2c0-12.8,2.7-25,8-36.6
		c5.3-11.5,12.8-21.6,22.5-30.2c9.7-8.6,21.4-15.4,34.9-20.3c13.6-5,28.6-7.4,45.1-7.4c8.4,0,17.3,0.6,26.7,1.9
		c9.4,1.3,18.6,2.9,27.8,5c9.2,2,17.7,4.3,25.6,6.9C1308.2,658,1314.7,660.6,1319.9,663.1z"/>
	<path class="st0" d="M1408.4,726.4h19.2v96.8h67.1v17h-67.1v192.5h-19.2V840.2h-46.8v-17h46.8V726.4z"/>
	<path class="st0" d="M1515.7,926.6c0-15.4,2.9-29.9,8.8-43.4c5.9-13.6,13.8-25.4,23.7-35.5c9.9-10.1,21.5-18.1,34.9-23.9
		c13.4-5.9,27.8-8.8,43.2-8.8c11,0,21.5,1.6,31.3,4.7c9.9,3.1,18.9,7.4,27,12.9s15.1,11.8,21.2,19c6.1,7.1,10.7,14.8,14,22.8
		c0-9.2,0.2-18.3,0.5-27.5c0.4-9.2,0.9-18.1,1.7-26.9h16.5v212.8h-18.7v-54.5c-6.2,16.1-17.6,29.9-34.1,41.2
		c-16.5,11.4-36.3,17-59.4,17c-15.8,0-30.3-2.9-43.7-8.8c-13.4-5.9-25-13.8-34.9-23.6c-9.9-9.9-17.7-21.5-23.4-34.9
		C1518.5,955.8,1515.7,941.6,1515.7,926.6z M1534.4,926c0,12.8,2.4,24.8,7.1,36c4.8,11.2,11.3,20.9,19.5,29.1s18.1,14.8,29.4,19.5
		c11.4,4.8,23.5,7.2,36.3,7.2s24.9-2.4,36.3-7.2s21.3-11.3,29.7-19.5c8.4-8.2,15-18,19.8-29.1c4.8-11.2,7.2-23.2,7.2-36
		s-2.4-24.9-7.2-36.3c-4.8-11.4-11.4-21.2-19.8-29.4s-18.3-14.8-29.7-19.5c-11.4-4.8-23.5-7.1-36.3-7.1s-24.9,2.4-36.3,7.1
		c-11.4,4.8-21.2,11.3-29.4,19.5s-14.8,18.1-19.5,29.4C1536.8,901.1,1534.4,913.2,1534.4,926z"/>
	<path class="st0" d="M1921,838c-11.4,0.4-22.3,2.4-32.7,6c-10.5,3.7-19.7,8.9-27.8,15.7c-8.1,6.8-14.5,14.8-19.2,24.2
		c-4.8,9.4-7.1,19.7-7.1,31.1v117.7h-18.7V819.9h16c0,1.5,0.1,4.9,0.3,10.4c0.2,5.5,0.3,11.4,0.3,17.6s0.1,12,0.3,17.3
		c0.2,5.3,0.3,8.5,0.3,9.6c8.4-18.3,21.2-32.7,38.2-43.2c17-10.4,34.9-15.9,53.6-16.2L1921,838z"/>
	<path class="st0" d="M2104.7,998.1c2.2,2.2,4.3,4.5,6.3,6.9s3.9,4.9,5.8,7.4c-9.5,7.3-20.2,13.2-31.9,17.6s-24.4,6.6-38,6.6
		c-15.4,0-29.9-2.9-43.5-8.8c-13.6-5.9-25.4-13.8-35.5-23.6c-10.1-9.9-18-21.5-23.7-34.9s-8.5-27.8-8.5-43.2s2.8-29.9,8.5-43.5
		c5.7-13.6,13.6-25.3,23.7-35.2s21.9-17.8,35.5-23.6c13.6-5.9,28.1-8.8,43.5-8.8c13.6,0,26.3,2.2,38.2,6.6
		c11.9,4.4,22.6,10.3,32.2,17.6c-1.8,2.6-3.9,4.9-6,7.1c-2.2,2.2-4.4,4.8-6.6,7.7c-7.7-6.2-16.5-11.2-26.4-14.8
		c-9.9-3.7-20.4-5.5-31.4-5.5c-13.2,0-25.4,2.4-36.6,7.1c-11.2,4.8-20.9,11.3-29.1,19.5s-14.8,18.1-19.5,29.4
		c-4.8,11.4-7.1,23.5-7.1,36.3s2.4,24.8,7.1,36c4.8,11.2,11.3,20.9,19.5,29.1s18,14.8,29.1,19.5c11.2,4.8,23.4,7.2,36.6,7.2
		c11,0,21.5-1.7,31.4-5.2C2088.2,1009.2,2097,1004.3,2104.7,998.1z"/>
	<path class="st0" d="M2166.9,745.6c0-4.8,1.6-8.8,4.9-12.1c3.3-3.3,7.2-5,11.6-5c4,0,7.7,1.7,11,5s4.9,7.3,4.9,12.1
		c0,4.8-1.6,8.7-4.9,11.8c-3.3,3.1-7,4.7-11,4.7c-4.4,0-8.2-1.6-11.6-4.7C2168.5,754.3,2166.9,750.4,2166.9,745.6z M2192.2,1032.7
		h-18.7V819.9h18.7V1032.7z"/>
	<path class="st0" d="M2285.7,726.4h19.2v96.8h67.1v17h-67.1v192.5h-19.2V840.2h-46.8v-17h46.8V726.4z"/>
	<path class="st0" d="M2457.8,1135h-20.9c4.4-9.2,8.2-17.7,11.6-25.6c3.3-7.9,6.5-15.9,9.6-23.9c3.1-8.1,6.5-16.6,10.2-25.6
		s8.1-19.5,13.2-31.6c-16.9-34.1-32.6-68.8-47.3-103.9c-14.7-35.2-30.6-70-47.8-104.5h20.3c9.9,19.4,18.7,37.7,26.4,54.7
		s14.8,33.5,21.5,49.2c6.6,15.8,13,31,19.2,45.7s12.6,29.2,19.2,43.5c6.6-14.3,13-28.8,19.2-43.5s12.6-29.8,19.2-45.4
		c6.6-15.6,13.7-32,21.2-49.2s16.2-35.6,26.1-55h20.9L2457.8,1135z"/>
</g>
<path d="M1748,1280.3c7-1.4,12.6-2.8,19.6-2.8c94,1.4,186.6,5.6,280.6,4.2c78.6-1.4,157.1-7,235.7-11.2c54.7-2.8,109.4-5.6,162.7-7
	c150.1-5.6,300.2-12.6,449-16.8c127.7-4.2,255.3-7,383-7c122.1,0,242.7,4.2,364.8,7c42.1,1.4,84.2,4.2,124.9,7
	c23.9,1.4,47.7,7,74.4,19.6c-46.3-2.8-87-5.6-129.1-8.4c-33.7-2.8-65.9-5.6-99.6-5.6c-106.6-1.4-214.7-1.4-321.3-1.4
	c-92.6,0-185.2,0-277.8,1.4c-73,1.4-145.9,4.2-218.9,7c-144.5,5.6-287.6,11.2-432.1,18.2c-91.2,4.2-182.4,11.2-273.6,16.8
	c-105.2,5.6-210.5,2.8-315.7-4.2c-9.8,0-19.6-4.2-29.5-5.6C1746.6,1285.9,1748,1283.1,1748,1280.3z"/>
<path d="M3145.4,1149.8c-19.6,0-40.7,1.4-60.3,0c-106.6-4.2-211.9-9.8-318.5-14c-96.8-4.2-192.2-7-289-11.2
	c-106.6-4.2-213.3-8.4-321.3-12.6c-129.1-4.2-256.8-9.8-385.8-12.6c-117.9-2.8-235.7-2.8-353.6-5.6c-12.6,0-25.3-1.4-37.9-2.8
	c-5.6-1.4-11.2-5.6-22.4-11.2c12.6-4.2,18.2-7,23.9-7c43.5,2.8,87,7,130.5,8.4c42.1,1.4,84.2,1.4,124.9,0
	c123.5-4.2,246.9,1.4,370.4,7c87,4.2,172.6,7,259.6,11.2c162.7,7,326.9,14,489.6,21c77.2,2.8,155.7,5.6,232.9,9.8
	c50.5,2.8,101,7,152.9,11.2C3145.4,1144.2,3145.4,1147,3145.4,1149.8z"/>
<path d="M1614.7,964.6c19.6-1.4,40.7-2.8,60.3-4.2c112.2-5.6,223.1-14,335.3-18.2c159.9-4.2,321.3-5.6,481.2-8.4
	c87-1.4,172.6-5.6,259.6-7c116.4-1.4,231.5-1.4,347.9,1.4c115,2.8,230.1,11.2,343.7,16.8c16.8,1.4,33.7,7,50.5,14
	c-39.3-1.4-77.2-4.2-116.4-5.6c-99.6-4.2-200.6-9.8-300.2-12.6c-95.4,0-190.8,0-286.2,0c-96.8,1.4-192.2,5.6-289,8.4
	c-63.1,1.4-124.9,1.4-186.6,1.4c-87,1.4-174,4.2-261,7c-84.2,2.8-168.4,8.4-253.9,11.2c-58.9,2.8-117.9,2.8-178.2,2.8
	c-2.8,0-5.6-1.4-8.4-1.4C1614.7,968.8,1614.7,966,1614.7,964.6z"/>
</svg>
