<?xml version="1.0" encoding="utf-8"?>
<!-- Generator: Adobe Illustrator 21.1.0, SVG Export Plug-In . SVG Version: 6.00 Build 0)  -->
<svg version="1.1" id="Layer_1" xmlns="http://www.w3.org/2000/svg" xmlns:xlink="http://www.w3.org/1999/xlink" x="0px" y="0px"
	 viewBox="0 0 2812.9 1680.8" style="enable-background:new 0 0 2812.9 1680.8;" xml:space="preserve">
<style type="text/css">
	.st0{fill:#2E2B2C;}
	.st1{enable-background:new    ;}
	.st2{fill:#4155C4;}
</style>
<polygon class="st0" points="376.2,592.3 288.6,645.2 288.6,539.3 230.2,574.6 230.2,680.5 142.7,733.5 142.7,804.1 434.6,627.6 "/>
<polygon class="st0" points="230.2,927.7 142.7,874.7 142.7,945.3 230.2,998.3 230.2,1104.2 288.6,1139.5 288.6,786.4 230.2,821.7 
	"/>
<polygon class="st0" points="347,1068.9 434.6,1121.9 347,1174.8 405.4,1210.1 492.9,1157.2 580.5,1210.1 638.9,1174.8 347,998.3 
	"/>
<polygon class="st0" points="609.7,1086.6 697.3,1033.6 697.3,1139.5 755.6,1104.2 755.6,998.3 843.2,945.3 843.2,874.7 
	551.3,1051.3 "/>
<polygon class="st0" points="755.6,680.5 755.6,574.6 697.3,539.3 697.3,892.4 755.6,857.1 755.6,751.1 843.2,804.1 843.2,733.5 "/>
<polygon class="st0" points="638.9,609.9 551.3,556.9 638.9,504 580.5,468.7 492.9,521.6 405.4,468.7 347,504 638.9,680.5 "/>
<g class="st1">
	<path class="st0" d="M1319.9,663.1l-8.2,18.1c-11.4-4.8-25-9.1-41-12.9s-31.6-5.8-47-5.8c-13.9,0-26.6,1.9-38,5.8
		c-11.4,3.8-21,9-28.9,15.4c-7.9,6.4-13.9,13.9-18.1,22.5c-4.2,8.6-6.3,17.9-6.3,27.8c0,11.7,2.9,21.6,8.8,29.7
		c5.9,8.1,13.7,15,23.4,20.9c9.7,5.9,20.7,11.1,33,15.7c12.3,4.6,24.9,9.3,37.9,14c13,4.8,25.7,10.2,38,16.2s23.3,13.4,33,22
		c9.7,8.6,17.5,18.9,23.4,30.8s8.8,26.5,8.8,43.7c0,16.9-3,32.1-9.1,45.6c-6.1,13.6-14.8,25.1-26.1,34.7
		c-11.4,9.5-24.9,16.9-40.7,22c-15.8,5.1-33.4,7.7-52.8,7.7c-15.4,0-29.4-1.5-42.1-4.4s-23.9-6.5-33.8-10.7s-18.4-8.4-25.6-12.7
		c-7.1-4.2-12.7-7.4-16.8-9.6l11-20.3c5.9,4,12.9,8.2,21.2,12.4c8.2,4.2,17.1,8.1,26.4,11.5c9.4,3.5,19.2,6.3,29.4,8.5
		c10.3,2.2,20.5,3.3,30.8,3.3c11.7,0,23.8-1.7,36.3-5.2s23.8-8.8,34.1-16c10.3-7.1,18.7-16.3,25.3-27.5c6.6-11.2,9.9-24.5,9.9-39.9
		c0-14.7-2.9-27.1-8.8-37.4c-5.9-10.3-13.7-19-23.4-26.1c-9.7-7.2-20.7-13.4-33-18.7c-12.3-5.3-24.9-10.4-38-15.1
		c-13-4.8-25.7-9.7-38-14.8c-12.3-5.1-23.3-11.2-33-18.2s-17.5-15.2-23.4-24.8c-5.9-9.5-8.8-21.3-8.8-35.2c0-12.8,2.7-25,8-36.6
		c5.3-11.5,12.8-21.6,22.5-30.2c9.7-8.6,21.4-15.4,34.9-20.3c13.6-5,28.6-7.4,45.1-7.4c8.4,0,17.3,0.6,26.7,1.9
		c9.4,1.3,18.6,2.9,27.8,5c9.2,2,17.7,4.3,25.6,6.9C1308.2,658,1314.7,660.6,1319.9,663.1z"/>
	<path class="st0" d="M1408.4,726.4h19.2v96.8h67.1v17h-67.1v192.5h-19.2V840.2h-46.8v-17h46.8V726.4z"/>
	<path class="st0" d="M1515.7,926.6c0-15.4,2.9-29.9,8.8-43.4c5.9-13.6,13.8-25.4,23.7-35.5c9.9-10.1,21.5-18.1,34.9-23.9
		c13.4-5.9,27.8-8.8,43.2-8.8c11,0,21.5,1.6,31.3,4.7c9.9,3.1,18.9,7.4,27,12.9s15.1,11.8,21.2,19c6.1,7.1,10.7,14.8,14,22.8
		c0-9.2,0.2-18.3,0.5-27.5c0.4-9.2,0.9-18.1,1.7-26.9h16.5v212.8h-18.7v-54.5c-6.2,16.1-17.6,29.9-34.1,41.2
		c-16.5,11.4-36.3,17-59.4,17c-15.8,0-30.3-2.9-43.7-8.8c-13.4-5.9-25-13.8-34.9-23.6c-9.9-9.9-17.7-21.5-23.4-34.9
		C1518.5,955.8,1515.7,941.6,1515.7,926.6z M1534.4,926c0,12.8,2.4,24.8,7.1,36c4.8,11.2,11.3,20.9,19.5,29.1s18.1,14.8,29.4,19.5
		c11.4,4.8,23.5,7.2,36.3,7.2s24.9-2.4,36.3-7.2s21.3-11.3,29.7-19.5c8.4-8.2,15-18,19.8-29.1c4.8-11.2,7.2-23.2,7.2-36
		s-2.4-24.9-7.2-36.3c-4.8-11.4-11.4-21.2-19.8-29.4s-18.3-14.8-29.7-19.5c-11.4-4.8-23.5-7.1-36.3-7.1s-24.9,2.4-36.3,7.1
		c-11.4,4.8-21.2,11.3-29.4,19.5s-14.8,18.1-19.5,29.4C1536.8,901.1,1534.4,913.2,1534.4,926z"/>
	<path class="st0" d="M1921,838c-11.4,0.4-22.3,2.4-32.7,6c-10.5,3.7-19.7,8.9-27.8,15.7c-8.1,6.8-14.5,14.8-19.2,24.2
		c-4.8,9.4-7.1,19.7-7.1,31.1v117.7h-18.7V819.9h16c0,1.5,0.1,4.9,0.3,10.4c0.2,5.5,0.3,11.4,0.3,17.6s0.1,12,0.3,17.3
		c0.2,5.3,0.3,8.5,0.3,9.6c8.4-18.3,21.2-32.7,38.2-43.2c17-10.4,34.9-15.9,53.6-16.2L1921,838z"/>
	<path class="st0" d="M2104.7,998.1c2.2,2.2,4.3,4.5,6.3,6.9s3.9,4.9,5.8,7.4c-9.5,7.3-20.2,13.2-31.9,17.6s-24.4,6.6-38,6.6
		c-15.4,0-29.9-2.9-43.5-8.8c-13.6-5.9-25.4-13.8-35.5-23.6c-10.1-9.9-18-21.5-23.7-34.9s-8.5-27.8-8.5-43.2s2.8-29.9,8.5-43.5
		c5.7-13.6,13.6-25.3,23.7-35.2s21.9-17.8,35.5-23.6c13.6-5.9,28.1-8.8,43.5-8.8c13.6,0,26.3,2.2,38.2,6.6
		c11.9,4.4,22.6,10.3,32.2,17.6c-1.8,2.6-3.9,4.9-6,7.1c-2.2,2.2-4.4,4.8-6.6,7.7c-7.7-6.2-16.5-11.2-26.4-14.8
		c-9.9-3.7-20.4-5.5-31.4-5.5c-13.2,0-25.4,2.4-36.6,7.1c-11.2,4.8-20.9,11.3-29.1,19.5s-14.8,18.1-19.5,29.4
		c-4.8,11.4-7.1,23.5-7.1,36.3s2.4,24.8,7.1,36c4.8,11.2,11.3,20.9,19.5,29.1s18,14.8,29.1,19.5c11.2,4.8,23.4,7.2,36.6,7.2
		c11,0,21.5-1.7,31.4-5.2C2088.2,1009.2,2097,1004.3,2104.7,998.1z"/>
	<path class="st0" d="M2166.9,745.6c0-4.8,1.6-8.8,4.9-12.1c3.3-3.3,7.2-5,11.6-5c4,0,7.7,1.7,11,5s4.9,7.3,4.9,12.1
		c0,4.8-1.6,8.7-4.9,11.8c-3.3,3.1-7,4.7-11,4.7c-4.4,0-8.2-1.6-11.6-4.7C2168.5,754.3,2166.9,750.4,2166.9,745.6z M2192.2,1032.7
		h-18.7V819.9h18.7V1032.7z"/>
	<path class="st0" d="M2285.7,726.4h19.2v96.8h67.1v17h-67.1v192.5h-19.2V840.2h-46.8v-17h46.8V726.4z"/>
	<path class="st0" d="M2457.8,1135h-20.9c4.4-9.2,8.2-17.7,11.6-25.6c3.3-7.9,6.5-15.9,9.6-23.9c3.1-8.1,6.5-16.6,10.2-25.6
		s8.1-19.5,13.2-31.6c-16.9-34.1-32.6-68.8-47.3-103.9c-14.7-35.2-30.6-70-47.8-104.5h20.3c9.9,19.4,18.7,37.7,26.4,54.7
		s14.8,33.5,21.5,49.2c6.6,15.8,13,31,19.2,45.7s12.6,29.2,19.2,43.5c6.6-14.3,13-28.8,19.2-43.5s12.6-29.8,19.2-45.4
		c6.6-15.6,13.7-32,21.2-49.2s16.2-35.6,26.1-55h20.9L2457.8,1135z"/>
</g>
<path class="st2" d="M1577,1170.6c-20.3-5.9-36.4-4.2-52.5,5.9c5.9-9.3,16.1-13.6,28.8-14.4c21.2-0.8,40.7,6.8,58.5,16.1
	c11,5.9,21.2,11.9,31.4,19.5c27.1,19.5,36.4,47.5,39,79.7c0.8,12.7,1.7,24.6,1.7,37.3c0,22.9-11,41.5-24.6,57.6
	c-14.4,17.8-32.2,31.4-53.4,42.4c-29.7,15.3-72-1.7-83.1-28c-10.2-22.9-13.6-45.8-11.9-69.5c1.7-29.7,8.5-57.6,18.6-85.6
	c7.6-20.3,20.3-37.3,37.3-51.7C1570.3,1177.4,1572.8,1174.9,1577,1170.6z M1677,1300.3c-0.8-10.2-0.8-21.2-2.5-31.4
	c-3.4-16.1-4.2-33.1-16.1-47.5c-16.1-20.3-37.3-33.1-60.2-44.1c-6.8-3.4-14.4-2.5-20.3,2.5c-16.1,12.7-29.7,28-37.3,46.6
	c-16.1,38.1-26.3,77.1-22,118.7c2.5,25.4,10.2,48.3,35.6,61c13.6,6.8,27.1,8.5,42.4,3.4c15.3-5.9,28.8-15.3,41.5-26.3
	C1662.6,1360.5,1680.4,1335.1,1677,1300.3z"/>
<path class="st2" d="M1155.8,1142.7c19.5,1.7,43.2,2.5,65.3,14.4c14.4,7.6,21.2,19.5,18.6,36.4c-2.5,16.1-3.4,32.2-9.3,48.3
	c-11.9,35.6-37.3,60.2-68.7,78c-20.3,11.9-42.4,11-62.7-1.7c-16.1-10.2-32.2-21.2-40.7-39c-11.9-25.4-19.5-50.9-8.5-78.8
	c5.9-15.3,16.1-27.1,29.7-36.4C1101.5,1146,1124.4,1144.4,1155.8,1142.7z M1142.2,1163.8c-11.9-11.9-22.9-11.9-33.9-5.9
	c-10.2,4.2-19.5,10.2-28.8,16.1c-18.6,11.9-28,30.5-27.1,51.7c1.7,40.7,21.2,69.5,58.5,87.3c9.3,4.2,17.8,5.9,28,5.1
	c9.3-0.8,16.1-5.9,23.7-10.2c15.3-8.5,29.7-18.6,39.8-32.2c20.3-25.4,28-55.1,28.8-86.5c0.8-13.6-5.1-22-17-27.1
	c-23.7-10.2-48.3-11.9-73.7-12.7C1141.4,1153.7,1141.4,1157.9,1142.2,1163.8z"/>
<path class="st2" d="M1148.2,1494.4c0-0.8,0-1.7,0-2.5c-6.8-17-1.7-29.7,15.3-34.8c14.4-4.2,29.7-6.8,44.1-5.9
	c17.8,0.8,35.6,4.2,52.5,13.6c11.9,5.9,21.2,14.4,29.7,23.7c0.8,0.8,1.7,2.5,2.5,3.4c13.6,34.8,18.6,68.7-2.5,102.6
	c-11.9,19.5-27.1,35.6-47.5,47.5c-22.9,13.6-45.8,10.2-66.1-3.4c-39-24.6-52.5-62.7-44.9-106.8c1.7-12.7,10.2-25.4,15.3-37.3
	C1146.5,1493.6,1147.3,1493.6,1148.2,1494.4z M1196.5,1466.4c-4.2,10.2-11,12.7-17.8,15.3c-16.1,6.8-27.1,19.5-33.9,33.9
	c-17,37.3-5.9,89,33.9,114.4c22,14.4,47.5,12.7,67.8-1.7c14.4-10.2,25.4-23.7,35.6-38.1c4.2-5.9,6.8-13.6,9.3-21.2
	c6.8-22,4.2-43.2-3.4-64.4c-5.1-15.3-15.3-26.3-28.8-33.1c-24.6-12.7-50.9-17-78.8-12.7c-7.6,0.8-15.3,4.2-21.2,7.6
	c-9.3,5.1-10.2,10.2-5.9,21.2C1166.8,1482.5,1178.7,1470.7,1196.5,1466.4z"/>
<path class="st2" d="M713.4,1055.4c-17,0-28.8,5.1-41.5,11.9c0.8-7.6,4.2-9.3,8.5-11c23.7-10.2,47.5-11,72-5.9
	c12.7,2.5,24.6,6.8,34.8,17c6.8,7.6,11.9,15.3,14.4,24.6c8.5,25.4,14.4,50.9,11.9,78c-2.5,22.9-11.9,40.7-28.8,55.9
	c-4.2,3.4-10.2,5.9-16.1,6.8c-23.7,5.1-46.6,0-67-11.9c-32.2-18.6-43.2-49.2-36.4-85.6C671,1104.5,687.1,1078.2,713.4,1055.4z
	 M673.5,1151.1c-2.5,12.7,0,26.3,7.6,38.1c19.5,28,48.3,38.1,81.4,35.6c6.8-0.8,14.4-4.2,19.5-8.5c16.1-14.4,24.6-33.9,23.7-55.1
	c0-24.6-4.2-48.3-13.6-71.2c-2.5-6.8-6.8-13.6-11.9-17.8c-11.9-10.2-27.1-15.3-42.4-17c-4.2,0-10.2,0-12.7,2.5
	c-9.3,6.8-18.6,14.4-25.4,22.9C683.7,1101.1,672.7,1123.2,673.5,1151.1z"/>
<path class="st2" d="M963.4,1524.1c4.2,4.2,6.8,7.6,10.2,10.2c7.6,6.8,15.3,13.6,22.9,21.2c16.1,15.3,7.6,45.8-14.4,54.2
	c-10.2,3.4-19.5,8.5-31.4,5.1c-16.1-4.2-22-16.1-25.4-30.5c-1.7-7.6,0-16.1,0-24.6c0-4.2,0.8-9.3,0.8-13.6c0-11,3.4-17,13.6-18.6
	C948.1,1525.8,957.5,1524.9,963.4,1524.1z M932.9,1570.7c1.7,31.4,24.6,44.1,47.5,30.5c16.1-9.3,19.5-25.4,8.5-41.5
	c-6.8-9.3-15.3-16.1-25.4-22c-5.9-3.4-10.2-2.5-15.3,1.7C937.1,1547.8,932.9,1559.7,932.9,1570.7z"/>
<path class="st2" d="M1362.6,1240.1c-14.4-3.4-22-17.8-15.3-28.8c4.2-7.6,11-13.6,21.2-13.6c17.8-0.8,33.9,5.1,49.2,15.3
	c5.9,4.2,6.8,9.3,3.4,15.3c-5.9,10.2-13.6,19.5-25.4,23.7c-9.3,3.4-20.3,1.7-25.4-5.1c-5.1-6.8-4.2-12.7,5.1-25.4
	c0.8,5.1,1.7,8.5,1.7,11c0,9.3,2.5,11.9,10.2,11.9c8.5,0,24.6-12.7,25.4-20.3c0-2.5-1.7-5.1-3.4-6.8c-11-7.6-24.6-11-37.3-11.9
	c-13.6,0-20.3,11.9-15.3,24.6C1357.5,1233.3,1360.1,1236.7,1362.6,1240.1z"/>
<path class="st2" d="M913.4,1124c8.5-12.7,21.2-12.7,28.8-2.5c9.3,11.9,7.6,25.4,3.4,38.1c-2.5,8.5-9.3,15.3-14.4,22.9
	c-13.6,17.8-35.6,7.6-42.4-7.6c-6.8-13.6-4.2-28.8,3.4-41.5c2.5-3.4,5.1-7.6,11-5.9c-2.5,7.6-6.8,14.4-8.5,22
	c-0.8,5.1-0.8,11,0.8,16.1c2.5,8.5,7.6,17,17,17c9.3,0.8,14.4-6.8,18.6-13.6c6.8-10.2,10.2-20.3,8.5-32.2
	c-2.5-13.6-7.6-17-20.3-12.7C917.6,1124,916.8,1124,913.4,1124z"/>
<path class="st2" d="M868.5,1275.7c-4.2,6.8-9.3,11-11.9,17c-4.2,10.2,1.7,18.6,12.7,17.8c12.7-0.8,23.7-14.4,22-26.3
	c-0.8-5.9-6.8-11-14.4-11.9c-3.4-0.8-6.8,0-9.3,0c-2.5-0.8-5.9-2.5-11-5.9c15.3-5.1,27.1-3.4,37.3,3.4c4.2,2.5,7.6,8.5,8.5,13.6
	c3.4,22.9-21.2,42.4-43.2,35.6c-11-3.4-16.1-12.7-12.7-23.7c1.7-5.9,5.1-11.9,8.5-17C859.1,1272.3,863.4,1271.5,868.5,1275.7z"/>
<path class="st2" d="M1308.4,1357.9c3.4-7.6,5.1-15.3,9.3-22c4.2-6.8,9.3-5.1,14.4,1.7c2.5,3.4,5.9,6.8,9.3,9.3
	c9.3,7.6,11,11,7.6,20.3c-2.5,7.6-13.6,13.6-22,12.7c-8.5-0.8-15.3-6.8-17-15.3c-0.8-2.5,0-4.2-0.8-6.8
	C1310,1358.8,1309.2,1357.9,1308.4,1357.9z M1321.9,1341.8c-0.8,8.5-1.7,14.4-1.7,20.3c0,5.9,3.4,9.3,9.3,10.2
	c5.9,0.8,8.5-3.4,10.2-7.6c2.5-5.1,1.7-9.3-3.4-12.7C1332.1,1349.5,1328.7,1346.9,1321.9,1341.8z"/>
<path class="st2" d="M973.6,1388.5c0.8,5.1,1.7,9.3,2.5,12.7c1.7,6.8,5.1,10.2,11.9,11c7.6,0,15.3-4.2,17-9.3
	c2.5-6.8-2.5-11-7.6-12.7c-5.9-2.5-12.7-4.2-19.5-5.9c-1.7-0.8-4.2-0.8-8.5-1.7c3.4-2.5,5.1-5.1,6.8-5.1
	c13.6-1.7,25.4,4.2,34.8,12.7c5.1,4.2,5.1,11.9,1.7,17.8c-5.9,11-21.2,17-33.1,11.9c-10.2-3.4-16.1-17-11.9-27.1
	C968.5,1390.2,971,1390.2,973.6,1388.5z"/>
<path class="st2" d="M1065.9,1424.1c-0.8,4.2-2.5,9.3-3.4,13.6c-1.7,5.9,0,10.2,5.9,12.7c4.2,2.5,7.6,0,11-2.5
	c3.4-3.4,2.5-5.9,0.8-10.2c-2.5-4.2-4.2-9.3-6.8-14.4c0.8-0.8,1.7-0.8,2.5-1.7c5.1,5.1,10.2,9.3,14.4,14.4c1.7,2.5,2.5,6.8,1.7,10.2
	c-0.8,6.8-12.7,13.6-20.3,13.6s-17.8-8.5-19.5-15.3c-1.7-7.6,1.7-16.1,9.3-20.3C1061.7,1423.2,1062.6,1424.1,1065.9,1424.1z"/>
<path class="st2" d="M1427,1320.6c0,6.8,0,13.6,0,19.5c0.8,9.3,1.7,10.2,13.6,9.3c-1.7-5.9-2.5-11.9-4.2-17c0.8,0,1.7-0.8,1.7-0.8
	c5.1,5.1,11,10.2,16.1,15.3c-4.2,10.2-11,15.3-20.3,13.6c-10.2-1.7-14.4-5.9-15.3-17.8c0-7.6-1.7-16.1,4.2-22.9
	C1424.5,1320.6,1426.2,1320.6,1427,1320.6z"/>
</svg>
