<?xml version="1.0" encoding="UTF-8"?>
<svg width="104px" height="63px" viewBox="0 0 104 63" version="1.1" xmlns="http://www.w3.org/2000/svg" xmlns:xlink="http://www.w3.org/1999/xlink">
    <!-- Generator: Sketch 47.1 (45422) - http://www.bohemiancoding.com/sketch -->
    <title>proportion-dont2</title>
    <desc>Created with Sketch.</desc>
    <defs></defs>
    <g id="Page-1" stroke="none" stroke-width="1" fill="none" fill-rule="evenodd">
        <g id="Guidelines-B" transform="translate(-925.000000, -2943.000000)" fill-rule="nonzero" fill="#2E2B2C">
            <g id="Group-17" transform="translate(892.000000, 2896.000000)">
                <g id="Group-3">
                    <g id="proportion-dont2" transform="translate(33.000000, 47.000000)">
                        <polygon id="Shape" points="34.3970538 10.6034743 21.4926345 15.1982628 21.4926345 6 12.8896882 9.06608761 12.8896882 18.2643505 0 22.8678248 0 29 43 13.6695619"></polygon>
                        <polygon id="Shape" points="13.1939685 39.0050977 0 34.502124 0 40.5004248 13.1939685 45.0033985 13.1939685 54.0008496 22 57 22 27 13.1939685 29.9991504"></polygon>
                        <polygon id="Shape" points="31 51 43.9044193 55.5042493 31 60 39.6029462 63 52.4926345 58.5042493 65.3970538 63 74 60 31 45"></polygon>
                        <polygon id="Shape" points="68.6029462 53.4052115 81.5073655 48.8017372 81.5073655 58 90.0955807 54.9339124 90.0955807 45.7356495 103 41.1321752 103 35 60 50.3391239"></polygon>
                        <polygon id="Shape" points="90.7909527 17.9966015 90.7909527 8.99915038 82 6 82 36 90.7909527 33.0008496 90.7909527 23.9949023 104 28.497876 104 22.4995752"></polygon>
                        <polygon id="Shape" points="74 12 61.0955807 7.49575071 74 3 65.3970538 0 52.4926345 4.49575071 39.6029462 0 31 3 74 18"></polygon>
                    </g>
                </g>
            </g>
        </g>
    </g>
</svg>