<svg xmlns="http://www.w3.org/2000/svg" viewBox="0 0 135 7.1"><path d="M132.9 1.6c-0.1 0-0.3-0.1-0.4-0.1 -0.3-0.1-0.6-0.2-1-0.2 -3.2 0.1-6.9 0.2-10.6 0.3 -1.4 0.1-2.8 0.1-4.2 0.2 -2.5 0.1-5.1 0.3-7.6 0.3 -3.4 0-6.8-0.2-10.1-0.3 -2.3-0.1-4.7-0.2-7.1-0.3 -6-0.2-35.9-0.4-41.5-0.3 -2.1 0-4.3 0-6.3-0.1 -3.8-0.1-7.7-0.2-11.5 0.2l-2.9 0.4c-2.3 0.3-4.5 0.6-6.9 0.9 -1.8 0.2-3.5 0.5-5.1-0.2 -0.7-0.3-1.4-0.5-2.1-0.7 -0.2-0.1-0.5-0.1-0.7-0.2 -2.7-0.8-5.3-0.4-7.5 1.3C6 3.7 6 3.7 4.6 2.9L4.5 2.8C3.6 2.2 2.7 1.9 2 1.6 1.7 1.6 1.3 1.7 1.1 1.9 0.9 2 0.8 2.1 0.8 2.2c0 0.4 0.1 1 0.4 1.2 0.3 0.3 0.6 0.5 1 0.7 0.3 0.2 0.6 0.4 0.9 0.6 1.1 0.9 1.8 1.4 2.5 1.4 0.7 0 1.4-0.4 2.5-1.3 1.7-1.4 3.7-1.8 6-1.2 0.8 0.2 1.6 0.5 2.3 0.8 1.8 0.8 3.4 1 5 0.6 1.6-0.4 3.2-0.6 4.8-0.8L27.4 4c3.9-0.5 8-1 12.1-0.9 1.2 0 2.5 0 3.8 0C53 3 87.1 3 97.2 3.5c5 0.3 9.5 0.5 14.2 0.3 4.4-0.1 8.9-0.4 13.2-0.7 1.7-0.1 3.4-0.2 5-0.3 0.7 0 1.5-0.1 2.2-0.2 0.3 0 0.7-0.1 1-0.1l0.2-0.1 0.1-0.7L132.9 1.6z"/></svg>