<svg xmlns="http://www.w3.org/2000/svg" viewBox="0 0 19.1 26.3"><path d="M0 22.5c0-1.9 1.5-3.1 2.9-2.8C4.4 20 5.3 21 5.8 22.4c0.4 1.3-0.3 2.3-1.1 3.2 -1 1.1-2.5 1-3.4-0.3C0.6 24.3 0.3 23.1 0 22.5zM2.3 21.4c-0.6 1.4 0.2 2.2 1.1 3.3 0.4-0.6 0.9-1.1 0.9-1.6C4.3 22.1 3.3 21.8 2.3 21.4z"/><path d="M7.1 2.5C6.6 1.5 6.9 0.7 7.7 0.2c0.7-0.5 2.2 0 2.7 0.9 1.3 1.9 0.3 5.1-1.9 6C7.3 7.5 5.9 6.8 5.3 5.3 5 4.4 5.4 3.8 6.9 3.1c0.2 0.7 0.4 1.4 0.7 2.3 0.6-0.4 1.1-0.6 1.3-1 0.3-0.5 0.5-1.2 0.3-1.7C9 1.9 8.3 2.2 7.7 2.5 7.6 2.6 7.4 2.5 7.1 2.5z"/><path d="M19.1 13.1c-0.2 0.5-0.4 1.2-0.7 1.3 -0.7 0.2-1.6 0.3-2.1 0 -1.7-0.9-1.9-4-0.4-5.2 0.8-0.7 1.9-0.4 2.4 0.7C18.7 10.8 18.8 11.9 19.1 13.1z"/></svg>
