<svg xmlns="http://www.w3.org/2000/svg" viewBox="0 0 101.9 72.7"><path d="M51.6 18c1.9 0.7 3.7 1.2 5.4 1.9 1.3 0.6 2.6 1.4 3.8 2.3 1.9 1.4 3 3.5 3.7 5.7 0.3 1 0.2 2.4-0.2 3.5 -0.8 1.9-1.3 4.1-3.5 5 -1 0.4-1.9 0.4-2.8-0.2 -3.9-2.6-6.8-6-7.7-10.7 -0.3-1.4-0.4-2.8-0.5-4.2 -0.1-0.8-0.5-1.2-1.3-1.3 -1.9-0.4-3.7 0.2-5.5 0.6 -3.5 0.7-6.5 2.7-9.7 4.1 -2.1 0.9-4.2 2.1-5.9 3.6 -1.8 1.6-3.2 3.6-4.7 5.5 -3.4 4.7-5.6 10.1-7 15.7 -0.8 3.3-1.8 6.6-1.4 10.3 1.1 0 2.1 0 3.1 0 1.1 0 2.1-0.1 3.2 0 1.3 0.2 1.7 1.1 1 2.1 -1.8 2.7-3.7 5.4-5.5 8.2 -0.4 0.6-0.8 1.1-1.2 1.6 -1 1.2-1.4 1.4-2.6 0.4 -1.7-1.3-3.3-2.8-5-4.2 -0.9-0.8-1.9-1.6-2.8-2.4 -0.6-0.6-1.3-1.2-1.9-1.7 -0.4-0.4-0.9-0.6-1.3-1 -0.4-0.3-0.8-0.6-1.1-0.9 -0.2-0.2-0.2-0.8 0-1 0.2-0.2 0.7-0.4 1-0.3 0.5 0.1 1 0.4 1.7 0.6 0.9-1.6 2.4-1.8 4-1.7 1 0.1 2 0.1 3 0.2 1.8 0.1 2.4-0.4 2.6-2.1 0.7-5.4 2-10.7 4.1-15.8 1.4-3.5 3.1-6.9 5.4-9.7 1.8-2.3 3.7-4.8 6.4-6.3 2.9-1.6 5.7-3.5 8.9-4.8 2.1-0.9 4.1-2.1 6.4-2.4 1.6-0.2 3.2-0.4 4.8-0.5 1-0.1 1.8-0.4 1.8-1.4 0.4-4.4 3.4-7.1 6.5-9.5 2.8-2.2 6-4.1 9.5-4.9 2.9-0.7 5.7-1.8 8.9-1.6C76.7 0.5 78.2 0 79.7 0c2.3 0 4.6 0.1 6.8 0.6 4.4 1.1 8.7 2.7 12.5 5.2 0.9 0.6 1.7 1.2 2.5 1.9 0.3 0.3 0.2 0.9 0.3 1.3 -0.5 0-1 0.2-1.3 0.1 -1.3-0.8-2.7-1.6-3.9-2.5 -1.7-1.4-3.6-2.4-5.7-3 -3.4-1.1-6.8-2-10.4-1.9 -3.3 0.2-6.6 0.3-9.8 0.9 -4.5 0.8-8.6 2.6-12.3 5.3 -1.8 1.3-3.4 2.7-4.7 4.4C52.4 13.9 51.8 15.8 51.6 18zM51.3 22.3c-0.1 0-0.1 0-0.2 0.1 0.3 1 0.7 2 0.8 3 0.4 3.3 2.7 5.7 4.6 8.1 0.4 0.6 1.2 0.9 1.8 1.3 0.7 0.3 1.5 0.6 2.3 0.1 1.8-1.3 2.8-4.6 2-6.7 -1.8-4.5-5.4-6.8-9.9-7.8 -1.1-0.2-1.4 0.1-1.5 1.3C51.3 21.8 51.3 22 51.3 22.3zM18.6 62c-0.9-0.2-1.5-0.3-2.2-0.4 -3-0.1-6.1-0.3-9.1-0.3 -1.1 0-2.4-0.2-3.2 1.2 0.4 0.5 0.8 1 1.2 1.4 2.3 1.9 4.6 3.7 6.8 5.7 0.6 0.5 1.1 0.6 1.6 0 0.8-0.8 1.6-1.6 2.2-2.5C16.9 65.6 17.6 64 18.6 62z"/></svg>
