<svg xmlns="http://www.w3.org/2000/svg" viewBox="0 0 69.8 8.6"><path d="M69.5 5.5c-0.2-0.2-0.5-0.5-0.7-0.8 -1.1-1.2-2.3-2.6-4.4-2.5 -1.1 0-2.3 0.3-3.4 0.7 -1.1 0.4-2.2 0.9-3.2 1.4 -0.6 0.3-1.3 0.6-1.9 0.9 -1.8 0.8-2.3 0.6-3.6-0.8 -0.8-0.9-1.7-1.9-2.7-2.7C48 0.4 46.4 0.2 44.8 1c-0.7 0.3-1.4 0.7-2.1 1 -1 0.4-2 0.9-2.9 1.4 -2.4 1.3-2.9 1.2-4.8-0.8C33.4 0.9 31.8 0 30.2 0c-1.7-0.1-3.3 0.7-4.9 2.3 -2 1.9-2 1.9-4.1 0 -2-1.9-4.2-2.2-6.5-1 -1.1 0.6-2.1 1.3-3.1 2C11 3.8 10.4 4.2 9.8 4.6L9.6 4.7C8.8 5.3 7.9 5.9 6.9 6.3 5.6 6.9 4.7 6.2 4.1 5.6 3.8 5.2 3.5 4.8 3.2 4.3 3 4.1 2.9 3.8 2.7 3.6c-0.2-0.3-0.5-0.6-1-0.7C1.3 2.8 0.9 2.9 0.4 3.3L0 3.6 0.3 4c0.2 0.3 0.3 0.5 0.5 0.8C1.2 5.3 1.5 5.9 2 6.5c1.1 1.4 2.5 2.1 4 2.1 1 0 2-0.3 3-1 0.7-0.4 1.3-1 1.9-1.4 0.5-0.4 1-0.9 1.6-1.2 0.9-0.6 1.9-1.2 3-1.7 1.7-0.8 3.2-0.5 4.5 0.9 0.5 0.5 1.1 1.2 1.7 1.6 1.4 1 2.6 0.9 3.7-0.5L25.5 5c0.5-0.6 1-1.2 1.5-1.7 1.5-1.4 2.9-1.5 4.7-0.4 0.6 0.4 1.2 1 1.8 1.5l0.3 0.3c2 2 3.8 2.2 6.2 0.6 1.2-0.8 2.6-1.6 4.1-2.3 1.9-0.8 3.3-0.7 4.4 0.5 0.9 0.9 1.6 1.7 2.3 2.6 1.6 2 2.7 2.3 4.9 1.3 1.1-0.5 2.2-1.1 3.3-1.7 0.5-0.3 1-0.6 1.5-0.8 2.1-1.1 4-0.9 5.8 0.5 0.5 0.4 1 0.7 1.5 1 0.2 0.1 0.5 0.3 0.7 0.4l0.4 0.3 0.9-1.3L69.5 5.5z"/></svg>
