<svg xmlns="http://www.w3.org/2000/svg" viewBox="0 0 15.1 16.7"><path d="M9.7 15.4c-1 0.5-1.4-0.2-1.5-0.7 -0.3-1.1-0.6-2.1-0.8-3.2C7 8.1 6.7 4.7 6.4 1.3c0-0.3-0.1-0.6 0-0.8C6.5 0.3 6.7 0 6.9 0c0.2 0 0.6 0.2 0.6 0.4 0.1 0.4 0.1 0.8 0.2 1.2C8 4.9 8.2 8.1 8.6 11.3 8.7 12.7 9.3 14 9.7 15.4z"/><path d="M14.3 15.6c-0.2-0.3-0.6-0.6-0.6-0.9 0-2.3 0-4.7 0-7 0-0.7 0.4-1.1 1.4-1 -0.1 3-0.2 5.9-0.4 8.8C14.6 15.5 14.4 15.6 14.3 15.6z"/><path d="M4.3 16.6c-1.8-1-3.9-4.3-4.3-6.8 0.7-0.6 1.2-0.1 1.5 0.4 0.6 1.1 1.1 2.2 1.6 3.3C3.5 14.5 3.8 15.4 4.3 16.6z"/></svg>