<svg xmlns="http://www.w3.org/2000/svg" viewBox="0 0 814 402"><style>.a{fill:#000;}</style><path d="M425 288.4c-1.3 21-3.6 39.8-3.3 58.5 0.2 18.1 3.1 36.1 1.7 55.1 -1.2-2.4-2.7-4.8-3.6-7.3 -10.8-31.4-5.5-64-6.9-96.1C412.6 292.7 413.3 292.7 425 288.4z" class="a"/><path d="M162.1 282.9c-29.1 30.9-58.1 61.7-87.2 92.6 -0.8-0.4-1.7-0.7-2.5-1.1 0.5-2.7 0-6.1 1.5-7.9 8.3-9.8 17-19.2 25.7-28.7 14.6-16.1 29.1-32.3 43.9-48.3C147.7 284.7 151.6 278.6 162.1 282.9z" class="a"/><path d="M775.3 296.3c-25.6-24.3-57.1-42.9-75.2-75.1 7-5.2 11.3-3.7 14.4 1.3 15.4 24.5 38.3 41.8 58.4 61.8 2.7 2.7 4.1 6.7 6.1 10.1C777.9 295 776.6 295.6 775.3 296.3z" class="a"/><path d="M729.4 70.9c-4-9.4 1.2-13.7 6.7-17.7 9.9-7.3 19.8-14.5 29.8-21.5 13.7-9.6 27.5-19 41.4-28.4 1.8-1.2 4-1.7 6.7-2.7C809.8 8.2 742.3 64.4 729.4 70.9z" class="a"/><path d="M0 240.7c1.8-3.1 2.8-7.6 5.4-9.1 20.3-11.4 39.5-25.2 63.1-29.5 5.6-1 11.7-2.8 16.2 3.9 -15.3 5.5-29.9 9.8-43.7 15.9 -13.3 5.9-23 18.7-37.7 22.1C2.2 243 1.1 241.9 0 240.7z" class="a"/><path d="M98.5 100.5C79.7 98.8 61 97.3 42.3 95c-2.7-0.3-5-4.6-7.4-7.1 2.7-2.1 5.9-6.4 8.2-6 19 3.8 39.1 3.5 56.3 14C99 97.5 98.8 99 98.5 100.5z" class="a"/><path d="M297.7 288.2c-4.3 21.2-8 40-12.3 61.5 -6.9-7.9-5.3-14.3-4.3-19.8 2.5-13.6 5.8-27 9.1-40.4C290.3 288.9 293.1 288.9 297.7 288.2z" class="a"/><path d="M786.2 128.9c-14.6 2.7-27 5-38.8 7.2 -5.3-4.8-4.2-8.7-0.1-11.8C755.5 118.2 774.3 119.7 786.2 128.9z" class="a"/><path d="M603.3 266.1c5.4 16.2 7.9 30.8 5.1 46.9 -1.7-2.3-4-4.4-4.9-6.9 -3.1-10-5.9-20.2-8.5-30.3C594 271.9 594.4 271.8 603.3 266.1z" class="a"/><path d="M160.9 48.4c-14.8-3.3-21.7-14.8-29.4-25.1 -1.3-1.8 1-6.6 3-9.3 0.6-0.8 7.2 0 8.6 1.8 7.8 9.5 14.9 19.4 22.3 29.2C163.9 46.1 162.4 47.2 160.9 48.4z" class="a"/></svg>