<svg xmlns="http://www.w3.org/2000/svg" viewBox="0 0 23.1 15"><path d="M23.1 2.3c-0.6 0.4-0.9 0.7-1.3 0.8C16.2 4 11 5.9 6.4 9.2 6.2 9.3 6 9.5 5.9 9.5c-0.4 0-0.9 0-1.1-0.2C4.6 9.1 4.7 8.5 4.9 8.2 5.4 7.8 5.9 7.3 6.6 7c1.9-0.9 3.7-1.8 5.6-2.6 2.4-1 4.9-1.8 7.4-2.6 0.7-0.2 1.5-0.3 2.2-0.4C22.2 1.5 22.5 1.9 23.1 2.3z"/><path d="M17.4 12.2c-0.8 0.4-1.2 0.7-1.6 0.7 -1.5 0.3-3 0.5-4.5 0.8 -1.1 0.2-2.1 0.6-3.2 0.9C7.6 14.9 7.1 15 6.6 15c-0.3 0-0.7-0.3-0.7-0.5 -0.1-0.2 0-0.7 0.2-0.9 0.3-0.3 0.7-0.5 1.1-0.5 2.9-0.5 5.8-1 8.8-1.5C16.3 11.5 16.7 11.9 17.4 12.2z"/><path d="M6.9 0c0.6 0.9 0.5 1.4-0.2 1.8C4.7 2.7 3.4 4.3 2 5.8 1.8 6 1.7 6.3 1.5 6.4 1.1 6.6 0.6 6.8 0.4 6.6c-0.6-0.3-0.4-0.9 0-1.2 1.5-1.4 3-2.9 4.5-4.2C5.4 0.7 6.1 0.4 6.9 0z"/></svg>