<svg xmlns="http://www.w3.org/2000/svg" viewBox="0 0 42.61 40"><title>sketch-social_linkedin</title><g id="Layer_2" data-name="Layer 2"><g id="Layer_1-2" data-name="Layer 1"><g id="Layer_2-2" data-name="Layer 2"><g id="Layer_1-2-2" data-name="Layer 1-2"><g id="Layer_2-2-2" data-name="Layer 2-2"><g id="Layer_1-2-2-2" data-name="Layer 1-2-2"><path d="M30.47.16a8.42,8.42,0,0,1,5.62,1.1,5.34,5.34,0,0,1,2,2.21c.5,1,.7,1.91,1.1,2.91a19.73,19.73,0,0,1,1,3.21c.1.6.1,1.1.2,1.71a9,9,0,0,1,.3,1.61,6.66,6.66,0,0,0,.3,1.51,4.2,4.2,0,0,1,.1,1.61c0,1.1.4,2.21.5,3.31s.4,2.41.5,3.61,0,2.61.2,4c.1,1.2.3,2.41.3,3.61s-.1,2.21-.1,3.31a2.93,2.93,0,0,1-.4,2c-.4.5-1.1.7-1.51.1a3.43,3.43,0,0,1-.3-1.71c0-1.1-.1-2.21-.1-3.41a18.66,18.66,0,0,0-.4-3.31c-.2-1.3-.1-2.51-.3-3.81s0-2.31-.1-3.51-.3-2.61-.5-4c-.4-2.41-.6-4.92-1.2-7.33A13.84,13.84,0,0,0,36.89,6a5.69,5.69,0,0,0-.8-1.3c-.2-.4-.3-1-.7-1.3a4.72,4.72,0,0,0-2.61-.8c-1.4-.1-2.81,0-4.11-.1-2.61-.1-5.12-.1-7.73-.1-4.92-.1-10,.1-14.85,1.71-1.51.4-3.51.8-4.11,2.41A7.11,7.11,0,0,0,2,9.39c.1,1.2.4,2.41.6,3.61a66.73,66.73,0,0,1,.7,7.83c.1,2.41.4,4.82.5,7.23,0,1.2.3,2.21.4,3.41a20.88,20.88,0,0,0,.6,3.61A4.71,4.71,0,0,0,8.89,38a33.27,33.27,0,0,0,6.32,0c1.2-.1,2.31-.2,3.51-.2s2.61,0,3.91-.1c2.51-.2,4.92-.6,7.43-.8,1.2-.1,2.41-.1,3.71-.3a20.21,20.21,0,0,0,3.51-1c.4-.1,1.1-.5,1.4-.2.6.5-.2,1.51-.6,1.71-1.71,1.2-4.21,1.51-6.12,1.81a65,65,0,0,1-7.73.9c-1.2,0-2.51.1-3.71,0s-2.51.1-3.81.1H13a10.4,10.4,0,0,1-3.51-.1c-2-.4-4.42-.6-5.72-2.41s-1.51-4-1.91-6.12c-.4-2.51-.3-5.12-.6-7.63a59.86,59.86,0,0,1-.7-7.53c0-2.51-.3-5-.2-7.43a8.11,8.11,0,0,0-.1-1.61A2.74,2.74,0,0,1,0,5.57,3.76,3.76,0,0,1,1.93,3.37a26.63,26.63,0,0,0,3-1.1,10,10,0,0,1,3.41-.8c2.51-.3,5-.9,7.53-1.2s4.92.1,7.43,0C25.65.26,28.12-.25,30.47.16Z"/><path d="M19.63,15.41a6.28,6.28,0,0,1,5.92-2.71c2.51.4,4.42,2.61,5.22,4.92a25.18,25.18,0,0,1,1.4,8.13c-.1,1-.7,1.71-1.71,1.3s-1-1.81-1.1-2.81a25.09,25.09,0,0,0-.6-3.81,14.7,14.7,0,0,0-1.1-4.11,3.39,3.39,0,0,0-5.22-.7c-.5.6-.9,2-1.71,2.11-.3,0-.6-.3-.8.1s.2.9.3,1.2l1.2,3.91c.3.9.8,2.11,0,2.81-1,.9-1.91-.3-2.11-1.2-.1-.7-.1-1.3-.2-2a21.8,21.8,0,0,0-.7-2.41l-.6-2.41a6.82,6.82,0,0,1-.3-1.91C17.52,15,18.93,14.71,19.63,15.41Z"/><path d="M13.51,15.61c0,.5.4,1,.4,1.61a14.13,14.13,0,0,0,.1,2,22.26,22.26,0,0,1,.6,4.52,13.71,13.71,0,0,0,.2,1.91c.1.5.4,1.1.1,1.61-.6,1.1-2.11.3-2.41-.6a18.91,18.91,0,0,1-.2-3.41c-.2-1.4-.4-2.91-.6-4.32-.1-.8-.9-2.31-.4-3.11S12.91,15.31,13.51,15.61Z"/><path d="M14,10.79c-.1.9-.4,1.51-1.4,1.51A1.76,1.76,0,0,1,10.8,11c-.2-1,.1-1.51,1-1.71S14.21,9.59,14,10.79Z"/></g></g></g></g></g></g></svg>