<svg xmlns="http://www.w3.org/2000/svg" viewBox="0 0 177.1 26.7"><path d="M27.8 25.2c0.5-0.1 0.9-0.2 1.4-0.2 6.7 0.1 13.3 0.4 20 0.3 5.6-0.1 11.2-0.5 16.8-0.8 3.9-0.2 7.8-0.4 11.6-0.5 10.7-0.4 21.4-0.9 32-1.2 9.1-0.3 18.2-0.5 27.3-0.5 8.7 0 17.3 0.3 26 0.5 3 0.1 6 0.3 8.9 0.5 1.7 0.1 3.4 0.5 5.3 1.4 -3.3-0.2-6.2-0.4-9.2-0.6 -2.4-0.2-4.7-0.4-7.1-0.4 -7.6-0.1-15.3-0.1-22.9-0.1 -6.6 0-13.2 0-19.8 0.1 -5.2 0.1-10.4 0.3-15.6 0.5 -10.3 0.4-20.5 0.8-30.8 1.3 -6.5 0.3-13 0.8-19.5 1.2 -7.5 0.4-15 0.2-22.5-0.3 -0.7 0-1.4-0.3-2.1-0.4C27.7 25.6 27.8 25.4 27.8 25.2z"/><path d="M127.4 15.9c-1.4 0-2.9 0.1-4.3 0 -7.6-0.3-15.1-0.7-22.7-1 -6.9-0.3-13.7-0.5-20.6-0.8 -7.6-0.3-15.2-0.6-22.9-0.9 -9.2-0.3-18.3-0.7-27.5-0.9 -8.4-0.2-16.8-0.2-25.2-0.4 -0.9 0-1.8-0.1-2.7-0.2 -0.4-0.1-0.8-0.4-1.6-0.8 0.9-0.3 1.3-0.5 1.7-0.5 3.1 0.2 6.2 0.5 9.3 0.6 3 0.1 6 0.1 8.9 0 8.8-0.3 17.6 0.1 26.4 0.5 6.2 0.3 12.3 0.5 18.5 0.8 11.6 0.5 23.3 1 34.9 1.5 5.5 0.2 11.1 0.4 16.6 0.7 3.6 0.2 7.2 0.5 10.9 0.8C127.4 15.5 127.4 15.7 127.4 15.9z"/><path d="M18.3 2.7c1.4-0.1 2.9-0.2 4.3-0.3 8-0.4 15.9-1 23.9-1.3 11.4-0.3 22.9-0.4 34.3-0.6 6.2-0.1 12.3-0.4 18.5-0.5 8.3-0.1 16.5-0.1 24.8 0.1 8.2 0.2 16.4 0.8 24.5 1.2 1.2 0.1 2.4 0.5 3.6 1 -2.8-0.1-5.5-0.3-8.3-0.4 -7.1-0.3-14.3-0.7-21.4-0.9C115.7 1 108.9 1 102.1 1c-6.9 0.1-13.7 0.4-20.6 0.6C77 1.7 72.6 1.7 68.2 1.7 62 1.8 55.8 2 49.6 2.2c-6 0.2-12 0.6-18.1 0.8 -4.2 0.2-8.4 0.2-12.7 0.2 -0.2 0-0.4-0.1-0.6-0.1C18.3 3 18.3 2.8 18.3 2.7z"/></svg>
