<svg xmlns="http://www.w3.org/2000/svg" viewBox="0 0 49.44 40"><title>Asset 1</title><g id="Layer_2" data-name="Layer 2"><g id="Layer_1-2" data-name="Layer 1"><g id="Layer_2-2" data-name="Layer 2"><g id="Layer_1-2-2" data-name="Layer 1-2"><path d="M46,15a61.72,61.72,0,0,1-3.8,10.5,34.79,34.79,0,0,1-9.8,11.4c-7.7,5.6-18.2,2.4-26.4-.7-1.6-.6-4.7-1.7-5.6-3.5-1.3-2.6.6-1.8,1.8-.9,3.1,2.4,7.1,3.6,11,4.6,5.7,1.6,11.8,2.3,17-.9a31.33,31.33,0,0,0,8.7-8.7,27.91,27.91,0,0,0,3.4-7.2c.8-2.8.4-4.9,3.1-6-1-.7-1.8-.9-2.7-1.5-1.2-.8-1.8-2.6-3.2-3.3-4.2-2.1-7.4.5-10.8,2.8s-8.1,1.6-11.7,0c-4.1-1.8-6.2-4.6-9-8.1.5,3.8,1.6,6.3,4.6,8.7.7.6,2.8,1.4.6,2-1.3.3-2.6-1.5-3.7-2a8.15,8.15,0,0,0,2.4,5.1c.8.8,4.3,1.8,4.7,2.8.9,2.4-4.2-.4-5.5-1.1.5,2.8,1.3,5.2,3.8,6.9,1.1.7,3.1,1,3.9,2-1.3,1.2-4.5-.4-5.6-1.2a9.37,9.37,0,0,1-3.5-6.4c-.3-2-.1-2.7-1-4.5-.4-.8-1.9-4.9-.3-5-1.3-1.9-3.9-7.6-2.6-9.7,1.9-3.3,3.8,1.5,4.7,2.7a15.78,15.78,0,0,0,6.9,5.9,19.24,19.24,0,0,0,6.3,1.4c2.7.2,2.7,0,4.4-1.5A12.36,12.36,0,0,1,38,6.24c2,.3,3.4,2,5,3.1.5.4.4,1.2,1.2,1.4,1.2.4,2-.8,2.9-1,1.8-.5,2.1-.6,2.3,1.4a10.41,10.41,0,0,1-.6,2.2A8.11,8.11,0,0,1,46,15Z"/><path d="M1.34,28.64c0-1.5,3.4-.2,4-.2a15.81,15.81,0,0,0,4.8-.6c2.1-.5,5.7-.3,2.1,1.4C11.54,29.64.84,31.44,1.34,28.64Z"/></g></g></g></g></svg>