<svg xmlns="http://www.w3.org/2000/svg" viewBox="0 0 24.7 23.9"><path d="M12.5 0c1.4 1.3 1.7 2.5 2 3.8 0.5 2.2 1 2.6 3.3 2.7 1.1 0 2.2-0.1 3.3-0.3 1.2-0.1 2.3-0.5 3.6 0.6 -0.2 0.4-0.5 0.9-0.8 1.2C23 9 22 9.9 21.1 10.8c-0.8 0.7-1.1 1.6-0.7 2.6 0.3 1 0.7 2.1 0.9 3.2 0.1 0.5 0.1 1.2-0.1 1.5 -0.2 0.2-1 0.1-1.4 0 -0.8-0.3-1.7-0.6-2.5-1.1 -1.4-0.8-2.1-0.7-3 0.8 -0.8 1.4-1.6 2.8-2.3 4.2 -0.5 0.9-1 1.6-2.3 2 -0.1-1.9-0.3-3.6-0.4-5.3C9 15.5 8.9 15.4 5.7 16c-1.3 0.2-2.6 0.5-3.9 0.7 -0.6 0.1-1.4-0.1-1.7-0.5 -0.5-0.6 0.2-1.1 0.7-1.5 2.1-1.6 4.1-3.3 6.7-4.1 0.6-0.2 1.2-0.8 1.4-1.3 0.9-2.3 1.7-4.7 2.5-7C11.7 1.6 12.1 0.9 12.5 0zM22.7 7.4c-1 0.1-1.4 0.2-1.9 0.2 -1 0.2-2.1 0.4-3.1 0.5 -2.9 0.2-3.4-0.2-4.3-3 -0.2-0.6-0.4-1.2-0.8-2.1 -1 2.7-2 4.7-2.5 6.9 -0.4 1.4-1 2.2-2.4 2.5 -0.6 0.1-1.3 0.2-1.8 0.4 -1 0.4-2.2 0.7-2.9 2.3 2.6-0.2 4.8-0.4 7.1-0.5 0.3 2.2 0.5 4.1 0.7 6.1 0.2 0 0.3 0.1 0.5 0.1 1-1.5 2-3.1 3.1-4.6 0.9-1.4 1.8-1.6 3.3-0.7 0.5 0.3 1 0.6 1.6 1 0.6-2.1-0.9-3.6-0.8-5.5C20 10.2 21.5 9.3 22.7 7.4z"/></svg>