<svg xmlns="http://www.w3.org/2000/svg" viewBox="0 0 61.7 16.9"><path d="M61.7 0.5c-1.5 0.8-3.2 1-4.9 1.2 -4.5 0.6-9.1 0.9-13.6 1.7 -4.9 0.9-9.8 2-14.6 3.2C22.8 8 17 9.5 11.2 11.2c-3.2 0.9-6.2 2.2-9.4 3.4 -0.3 0.1-0.5 0.3-0.8 0.3 -0.4 0-0.7-0.2-1-0.4 0.2-0.3 0.4-0.7 0.6-1 0.1-0.1 0.4-0.1 0.6-0.2C8 11.1 14.9 9 22 7.5c3.2-0.7 6.3-1.7 9.5-2.4 3.6-0.8 7.2-1.4 10.8-2 5.7-1 11.5-2 17.2-3C60.2 0 60.9 0 61.7 0 61.7 0.2 61.7 0.3 61.7 0.5z"/><path d="M11.8 16.9c0.2-1.3 1-1.3 1.6-1.5 3.5-1 7-2.1 10.6-3 7.8-1.9 15.7-3 23.5-4.1 3.7-0.6 7.4-1.3 11.1-1.9 0.5-0.1 1 0 1.7 0 -0.4 1-0.9 1.7-1.7 1.5 -2-0.5-3.9 0.1-5.7 0.4 -7.7 1.2-15.4 2.3-23 3.8 -5.5 1.1-11 2.2-16.2 4.4C13.1 16.8 12.5 16.8 11.8 16.9z"/></svg>