<svg xmlns="http://www.w3.org/2000/svg" viewBox="0 0 216 108"><path d="M71.3 7.3c0.1-0.5 0.1-0.9 0.3-1.6 4.2 2.2 7.5 5.5 11.6 7.5 4 2 7.8 4.5 11.8 6.9 0.5-0.7 0.9-1.2 1.2-1.8 2.4-4 4.8-8 7.1-12 0.4-0.7 0.5-1.6 0.8-2.7 0.8 0.4 1.6 0.9 2.5 1.3 3.6 1.9 6.9 4.4 10.3 6.6 3 1.9 6 3.9 9 5.9 0.2 0.2 0.5 0.3 0.9 0.5 3.2-4.6 5.8-9.5 8.5-14.3 0.1 0 0.3 0.1 0.4 0.1 0 0.3 0.2 0.8 0 1 -1.9 3.2-3.8 6.4-5.7 9.6 -0.8 1.3-1.5 2.7-2.3 4.2 5.3 4.6 11.5 7.9 17 12.4 0.8-1.5 1.6-2.8 2.2-4.1 1.5-3 3-6 4.5-9 0.7-1.4 0.5-2-0.6-2.8 -2.5-1.9-5-3.9-7.5-5.9 -2.7-2.2-5.5-4.5-8.2-6.7 -0.1-0.1-0.2-0.3-0.4-0.5 0.4-0.7 0.8-0.9 1.4-0.3 0.9 0.8 1.8 1.6 2.8 2.4 4.1 3.4 8.3 6.8 12.4 10.2 0.3 0.2 0.6 0.4 1 0.6 1.1-2.4 2.1-4.7 3.3-6.9 1.2-2.2 2.6-4.2 3.9-6.4 0.7 0.2 0.9 0.6 0.5 1.2 -0.7 1.1-1.3 2.2-2 3.2 -1.9 2.8-3.5 5.7-4.6 8.9 -0.1 0.3-0.1 0.6-0.2 1 4.7 3.8 9.4 7.7 14.3 11.6 0.5-0.8 0.9-1.4 1.3-2 2.3-4.6 4.5-9.3 6.9-13.9 0.9-1.7 1.9-3.4 2.9-5 0.2-0.3 0.5-0.4 0.8-0.7 0.5 0.8-0.1 1.3-0.4 1.8 -2.8 5.5-5.7 11-8.5 16.5 -0.4 0.8-0.8 1.5-1.2 2.2 -0.9 1.6-1 1.8 0.4 2.9 2.4 2 4.9 4 7.4 6 3.4 2.6 6.9 5 10.2 7.6 4.1 3.2 8.2 6.4 12.2 9.6 4.4 3.6 8.8 7.3 13.2 11 0.6 0.5 1.1 1.1 1.6 1.7 -0.1 0.1-0.2 0.2-0.2 0.3 -0.3-0.2-0.7-0.3-1-0.5 -3.4-2.8-6.9-5.6-10.3-8.4 -4.8-3.9-9.5-7.9-14.3-11.6 -3.3-2.6-6.9-4.8-10.2-7.3 -3-2.3-5.9-4.7-8.9-7.1 -0.5-0.4-0.9-0.7-1.6-1.2 -2.5 4.5-4.8 8.8-7.3 13.2 0.4 0.4 0.7 0.8 1.1 1.1 3.5 2.8 6.9 5.6 10.4 8.4 1.5 1.2 3.2 2.3 4.7 3.4 1.7 1.3 3.4 2.6 5.1 3.8 3.4 2.4 6.8 4.7 10.2 7.1 2.6 1.8 5.3 3.7 7.9 5.6 3.1 2.3 6.2 4.6 9.2 6.8 0.4 0.3 0.9 0.6 0.7 1.4 -0.3-0.1-0.7-0.2-0.9-0.3 -3.6-3.4-7.9-5.9-11.9-8.7 -5.7-4-11.5-7.8-17.1-11.9 -5.4-4-10.6-8.2-15.9-12.3 -1.3-1-2.6-1.9-4-3 -2.4 3.9-4.1 8-6.1 12.1 3.8 2.3 7.4 4.4 11 6.6 -0.6 1-1.2 0.5-1.7 0.2 -1.9-1.1-3.8-2.2-5.6-3.3 -1.3-0.8-2.6-1.6-4.1-2.5 -0.7 1.3-1.3 2.5-1.9 3.7 -2.2 4.7-4.4 9.4-6.6 14.1 -2.9 6-6 12-8.9 18 -0.6 1.2-0.9 2.5-1.5 3.7 -0.2 0.4-0.6 0.6-1 0.9l0 0c0.4-1.1 0.8-2.2 1.3-3.2 2.1-4.5 4.1-9.1 6.3-13.6 2.7-5.6 5.4-11.2 8.1-16.8 1.1-2.4 2.1-4.8 3.2-7.3 -0.6-0.4-1.1-0.9-1.7-1.3 -4.2-2.5-8.3-5-12.5-7.6 -1.5-0.9-1.6-0.9-2.5 0.6 -2.2 3.7-4.5 7.4-6.7 11.1 -0.3 0.5-0.5 0.9-0.8 1.5 1.7 1.5 3.7 2.3 5.6 3.4 1.2 0.6 2.4 1.3 3.5 2 0.5 0.3 1 0.7 0.6 1.7 -1.7-1-3.4-2.1-5.1-3 -1.7-1-3.4-1.8-5.3-2.9 -4.2 5.9-7.7 12.3-11.5 18.4 -3.9 6.1-7.6 12.3-11.2 18.6 1.6 1.2 3 2.3 4.7 3.6 -2.2-0.2-3.3-1.9-5.2-2.6 -0.9 1.4-1.9 2.8-2.9 4.2 -1 1.4-1.3 3.2-3.2 3.9 1.7-2.8 3.4-5.6 5.1-8.3 -0.8-1.2-14.4-11.3-20.6-15.3 -2.8 2.9-5 6.3-7.3 9.6 -2.2 3.3-4.5 6.5-7 9.7 0-0.3 0-0.6 0.1-0.9 1.7-2.6 3.3-5.1 5-7.6 2.7-3.8 5.4-7.5 8.1-11.2C81.6 83 68 71.8 64.3 69.2c-2 2.5-3.6 5.3-5.2 8 -1.6 2.7-3 5.5-4.7 8.2 0.1-2.2 1.5-3.8 2.4-5.7 0.9-1.9 2.1-3.7 3.2-5.5 1.1-1.8 2.3-3.6 3.4-5.3 -0.8-1.5-17.7-16.2-21-18.4 -0.9 1.4-1.8 2.8-2.8 4.3 -0.9 1.4-1.8 2.9-2.7 4.3 -0.9 1.5-1.8 2.9-2.6 4.4 -0.9 1.5-1.8 2.9-2.6 4.4 -0.8 1.5-1.5 3.1-2.3 4.5 -0.8 1.4-1.1 3-2.4 4.1 3.6-9.5 9.5-17.8 14.6-26.4C40.3 48.4 27.3 39 23.1 36.8c-2 2.7-3.9 5.5-5.7 8.4 -1.9 2.9-3.7 5.9-5.6 8.8 -1.9 2.7-3.4 5.7-5.5 8.3 1-3.3 3.1-5.9 4.8-8.8 1.7-2.9 3.6-5.8 5.5-8.6 1.9-2.8 3.8-5.6 5.7-8.4 -0.2-0.3-0.2-0.5-0.3-0.6 -2.6-1.8-5.1-3.5-7.7-5.2 -3.7-2.5-7.3-5-11-7.5 -0.5-0.4-0.7-0.8-0.2-1.4 3.3 2.2 6.6 4.4 9.9 6.6 3.3 2.2 6.6 4.5 10 6.9 3-4.7 5.9-9.2 8.9-13.9 -2.8-1.8-5.5-3.5-8.2-5.3 -2.6-1.7-5.2-3.6-7.8-5.4 -0.5-0.3-1.1-0.7-0.5-1.5 5.6 3.7 11.3 7.4 17.1 11.2 1.5-2.2 2.9-4.4 4.2-6.5 1.3-2 2.3-4.3 4.3-5.8 0.1 0.1 0.2 0.2 0.3 0.2 -2.7 4.1-5.4 8.3-8.2 12.6 6.1 4.7 12.6 8.6 18.7 13.2 3.3-4.1 6.5-8.1 9.1-12.7 -0.6-1.1-1.9-1.4-2.9-2 -4.1-2.2-8.2-4.2-11.9-7.1 -1.3-1.1-2.6-2.1-4-3.2 0.5-0.9 1-0.6 1.5-0.2 2.2 1.6 4.4 3.1 6.5 4.7 2.4 1.9 5.1 3.1 7.7 4.4 1.2 0.6 2.4 1.4 3.8 2.1 0.6-0.9 1.1-1.6 1.6-2.3 2-3.1 4-6.2 6.1-9.3C70.1 7.9 70.5 7.3 71.3 7.3c-0.1 0.3-0.3 0.7-0.5 1.1 -2.1 3.2-4.2 6.4-6.3 9.6 -0.5 0.7-0.9 1.6-1.4 2.5 7.8 4.7 15.5 9.3 23.3 14 2.9-4.4 5.6-8.8 8.2-13.4 -3.1-1.8-6.1-3.4-9.1-5.1 -2.8-1.6-5.6-3.4-8.4-5.1 -1.2-0.7-2.2-1.7-3.4-2.4C73 8 72.1 7.7 71.3 7.3zM108.3 74.9c-0.3 0-0.5 0.1-0.6 0 -3.4-2.4-6.9-4.8-10.3-7.2 -0.7-0.5-1.3-0.6-1.9 0.1 -0.9 1.2-2 2.3-2.9 3.5 -1.8 2.3-3.5 4.7-5.3 7 -1.2 1.6-2.4 3.2-3.6 4.8 2.7 2.6 19.2 14.4 20.8 14.9 7.5-12.1 14.9-24.3 22.5-36.7 -6.3-3.6-11.9-7.9-18.3-11.4 -4 5.4-7.9 10.7-11.9 16.1 2.2 1.7 4.2 3.3 6.5 4.7 1.3 0.7 2.5 1.5 3.7 2.3C107.8 73.4 108.3 74 108.3 74.9zM75 51.8c-7.8-5.4-14.7-11.5-22.9-16.1 -3.4 4.4-6.2 9-9 13.6 2.8 3 19.9 17.5 21.3 18.1C67.9 62.3 71.4 57.1 75 51.8zM76.5 51.4c6.6 4.7 13.1 9.4 19.6 14 2.2-2.1 10.8-13.7 11.9-16.1 -7.1-4.4-14.2-8.7-21.4-13.1 -3.2 4.6-6.3 9-9.3 13.4C76.9 50.1 76.7 50.8 76.5 51.4zM83.2 82.6c4.1-5.4 8.1-10.7 12.3-16.2C89 61.4 82.3 57 75.6 52.2 72 57.6 68.4 62.8 64.9 68 66 69.6 79.5 80.4 83.2 82.6zM75.7 50.7c3.4-5.1 6.6-10 10-15.1 -7.7-5-15.4-9.6-23.2-14 -3.2 4.4-6.3 8.7-9.4 12.9 0.1 0.2 0.2 0.4 0.3 0.5 7.4 4.5 14.1 10 21 15C74.7 50.2 75.1 50.4 75.7 50.7zM105.3 5.6c-2.1 2-8.3 12.5-9 15 3.5 2.1 7.1 4.3 10.7 6.4 3.6 2.1 7.1 4.6 10.9 6.5 2.8-4.9 5.5-9.6 8.3-14.5C119.2 14.5 112.3 10.1 105.3 5.6zM95.5 21.5c-2.8 4.6-5.5 9-8.3 13.6 7.1 4.8 14.3 9.1 21.6 13.5 2.9-4.7 5.7-9.3 8.5-13.9C110.1 30.2 102.9 25.9 95.5 21.5zM23.9 35.7c6.2 4.4 12.3 8.7 18.5 13.1 3-4.6 6-9.2 9-13.8 -2.4-1.8-4.8-3.5-7.1-5.2 -3.3-2.3-6.7-4.6-10.1-6.9 -1.3-0.9-1.3-0.9-2.2 0.4 -1.7 2.5-3.4 5.1-5 7.6C25.8 32.5 24.9 34.1 23.9 35.7zM109.5 48.9c0.3 0.2 0.4 0.4 0.6 0.5 4.2 2.7 8.4 5.4 12.6 8 1.1 0.7 2.2 1.5 3.4 2.1 1.5 0.9 1.7 0.9 2.6-0.6 1.6-2.5 3.1-5.1 4.7-7.6 1-1.7 1.9-3.3 3-5.2 -6.2-3.8-12.1-7.4-18.2-11.2C115.2 39.8 112.3 44.3 109.5 48.9zM144.4 31.9c-5.8-4.1-11.4-8.1-17.3-12.2 -3.2 4.7-5.8 9.6-8.5 14.5 6.2 3.8 12.1 7.5 18.3 11.3C139.4 40.9 141.8 36.5 144.4 31.9zM167.3 28.6c-4.9-3.9-9.5-7.7-14.3-11.5 -2.5 4.9-4.9 9.5-7.4 14.3 4.8 3.5 9.4 7.2 14.3 10.6C162.4 37.5 164.8 33.1 167.3 28.6zM153.4 55.3c1.7-3.5 3.4-6.9 5-10.3 0.9-1.9 0.9-2-0.8-3.3 -3-2.3-6-4.6-9-6.8 -1.1-0.8-2.3-1.6-3.5-2.4 -2.5 4.4-5 8.7-7.6 13.2C142.9 48.9 148 52 153.4 55.3z"/></svg>
