<svg xmlns="http://www.w3.org/2000/svg" viewBox="0 0 27.2 24.9"><path d="M12.6 14.4c-1.6 0.5-3 0.7-4.1 1.3 -3.3 1.6-6.3 3.5-7.1 7.6 -0.1 0.6-0.6 1.1-1.1 1.6 -0.5-1.4-0.1-2.6 0.4-3.7 1.3-2.7 3.6-4.4 6.1-5.7 1.7-0.9 3.6-1.4 5.4-2 0.7-0.2 1.3-0.4 1.4-1.3 0.8-5 4.4-7.6 8.4-9.9 0.9-0.5 1.8-1 2.8-1.4 0.7-0.3 1.5-0.5 2.4-0.8 0.2 1.3-0.4 1.6-1.2 1.8 -3.7 0.8-6.5 3-9 5.6 -1.4 1.4-1.9 3.3-1.9 5.6 0.9 0.2 1.8 0.6 2.8 0.7 3.1 0.2 3.7 3 3.2 5.6 -0.6 2.7-2.6 3.3-5.2 2.6 -2-0.5-2.8-2.1-3-4C12.8 16.8 12.7 15.8 12.6 14.4zM13.7 16.9c0.3 0.8 0.4 1.7 0.8 2.5 0.7 1.2 2.9 1.9 4 1.4 1-0.5 1.6-2.2 1.2-3.7 -0.5-1.8-1.8-2.2-3.4-2.3C14.2 14.6 13.9 14.7 13.7 16.9z"/></svg>
