<svg xmlns="http://www.w3.org/2000/svg" viewBox="0 0 158.9 7.3"><path d="M158.7 3.8c-1.5-0.3-3-0.5-4.4-0.8 -6-1.4-12.1-1.9-18.2-1.6 -5.4 0.3-10.8 0.6-16.2 0.8 -4 0.2-7.9 0.3-11.9 0.4 -0.4 0-0.8 0-1.2-0.1 -3.6-0.6-7.2-0.7-10.7 0.2 -5.1 1.3-10.3 0.8-15.5 0.5 -2.6-0.1-5.1 0-7.7 0 -3.2 0-6.4 0-9.6-0.3 -2.1-0.1-4.1-0.1-6.2 0.3 -2.2 0.5-4.4 0.8-6.6 0.2 -1.2-0.3-2.4-0.2-3.4 0.4 -2.2 1.2-4.6 2-7 1.8 -2.9-0.2-5.6 0.1-8.4 0.6 -1.3 0.2-2.7-0.5-4.1-0.7 -1.5-0.2-3-0.1-4.5-0.2 -0.7 0-1.4 0-2-0.2 -0.4-0.2-0.5-0.8-0.7-1.3 0.4-0.1 0.8-0.4 1.2-0.4 0.7 0 1.4 0.2 2 0.1 2.3-0.5 4.5-0.1 6.6 0.6 1.3 0.4 2.4 0.5 3.6 0.1 1.6-0.5 3.1-0.5 4.7-0.1 2.5 0.6 4.9-0.2 7-1.3 2-1 4-1.3 6.2-0.9 1.5 0.3 3.1 0.2 4.5-0.1 3.1-0.7 6.2-0.6 9.3-0.3 3.1 0.3 6.2 0.1 9.4 0.1 4 0.1 8 0.2 12.1 0.4 3.2 0.2 6.4-0.2 9.5-0.9 2.7-0.6 5.5-0.8 8.3-0.4 3.9 0.6 7.9 0 11.8-0.1 7.8-0.3 15.5-0.8 23.3-0.9 3.5-0.1 7.1 0.4 10.6 0.9 2.5 0.3 4.9 1.1 7.3 1.7 0.4 0.1 0.8 0.4 1.2 0.6C158.8 3.4 158.8 3.6 158.7 3.8z"/><path d="M15.5 5.2C13.1 5.1 10.9 5 8.8 4.9c-1.5 0-2.8 0.2-4 1.3C2.7 8.1 0.8 7.4 0 4.5c0.8-0.7 1.4-0.1 2 0.3 0.7 0.4 1.4 0.5 2.1-0.2C5.6 3.1 7.5 3 9.5 3.1c1.4 0.1 2.9 0.1 4.3 0.2C15.1 3.3 15.3 3.5 15.5 5.2z"/></svg>
