<svg xmlns="http://www.w3.org/2000/svg" viewBox="0 0 18.6 27.4"><path d="M2.4 3.4c0.2-1 0.3-1.7 0.5-2.4 0.6 0.3 1.2 0.7 1.9 1.1C5.1 1.5 5.5 0.8 6 0c0.7 0.4 1.4 0.8 2.2 1.4 -0.4 0.5-0.7 0.9-1 1.3C6.9 3.1 6.5 3.5 6 4.2c0.9 0.5 1.7 1 2.9 1.7C8 6.1 7.3 6.2 6.4 6.4c0.5 0.6 1 1 1.4 1.5C7.1 9 6.2 8 5.3 8c-0.2 1-0.3 2-0.6 3.3 -1.4-1.3-0.5-2.7-1-3.9 -1.7 0.5-0.6 2.7-2 3.4 -0.8-1.2-0.8-1.2 1-5.4C2 5.3 1.2 5.2 0.6 4.9 0.3 4.7 0 4.1 0 3.7c0-0.2 0.6-0.5 0.9-0.5C1.5 3.1 2 3.3 2.4 3.4z"/><path d="M13.5 18.1c0.7 1.1 1.7 0.9 3.1 0.7 -0.9 1-1.4 1.6-2.1 2.4 1.1 0.9 2.8-0.1 4.1 1.3 -1.2 0.2-2.1 0.3-3.4 0.5 1 1 1.9 1.8 2.8 2.7 -1.7 0.8-2.5-1-3.8-1 -0.6 0.8 0.5 2.1-1.2 2.6 -0.2-1.1-0.4-2.1-0.6-3.1 -0.9 0.6-0.9 0.6-1.4 2.1 -1.8-0.1-0.8-2-2.1-2.5 1-0.7 1.7-1.1 2.4-1.6 -0.4-0.4-0.8-0.7-1-1.2 -0.2-0.3-0.2-0.8-0.1-1.1 0.1-0.1 0.6-0.2 0.9-0.1 0.4 0.2 0.8 0.5 1.3 0.9C12.8 19.8 13.1 19 13.5 18.1z"/></svg>
