<svg xmlns="http://www.w3.org/2000/svg" viewBox="0 0 69.2 73.6"><path d="M1.9 29.9C3 29.9 4 30 5 29.9c2.6-0.3 5.2-0.6 7.9-0.9 0.8-0.1 1.6-0.1 2.4-0.1 0.7 0 1.2 0.4 1.3 1.2 0.1 1.2 0.1 2.4 0.3 3.5 0.1 0.7-0.2 1.2-0.8 1.4 -0.6 0.2-1.1 0.3-1.7 0.4C11 35.8 7.7 36 4.4 36.9c-1.3 0.3-1.4 0.2-1.9-1C1.4 33.1 1.4 32.7 1.9 29.9zM3.6 35.6c2.8-0.3 5.4-0.5 7.9-0.8 1.1-0.1 2.1-0.4 3.2-0.6 0.7-0.1 0.9-0.5 0.8-1.1 -0.1-0.9-0.2-1.9-0.3-3 -4.3 0.4-8.5 0.9-13 1.4C2.7 33 3.1 34.4 3.6 35.6z"/><path d="M66.5 48.5c0.2 1.5 0.3 2.8 0.5 4.2 -0.2 0.1-0.4 0.2-0.6 0.2 -2.6 0-5.1 0.6-7.5 1.6 -0.5 0.2-1.2 0.3-1.7 0.3 -1.4 0-2.1-0.6-2.3-2 -0.2-0.8-0.3-1.7-0.3-2.5 0-0.3 0.5-0.8 0.9-0.9 1.1-0.4 2.3-0.7 3.4-0.9 2.3-0.5 4.5-0.9 6.8-1.3 0.9-0.2 1.8-0.1 2.7-0.1 0.7 0 0.9 0.4 0.7 1.2C68.4 48.3 67.6 48.4 66.5 48.5zM55.5 50.7c0 0.3-0.1 0.4-0.1 0.5 0.1 0.4 0.3 0.8 0.4 1.2 0.4 1.1 0.8 1.3 2 1.1 0.4-0.1 0.7-0.2 1.1-0.3 1.7-0.4 3.4-0.8 5.1-1.3 0.4-0.1 0.8-0.3 1.1-0.4 0-1 0-1.9 0-2.9C61.7 48.6 58.6 49.9 55.5 50.7z"/><path d="M63 8.5c0 0 0.4 0.3 0.4 0.6 0.1 1.7 0 3.4 0 5.1 -2.3 0.1-4.5 0.3-6.7 1.1 -1 0.4-2 0.9-2.9 1.3 -1.1 0.5-1.7 0.3-2.1-0.9 -0.5-1.4-0.9-2.8-1.2-4.2 -0.3-1.2 0.4-2.1 1.7-2.2 2.3-0.1 4.5-0.1 6.8-0.3C60.3 9 61.6 8.7 63 8.5zM53.1 15.9c2.9-2.1 6.1-2.4 9.1-3 0-1 0-1.9 0-2.8 -3.6 0.2-7.1 0.3-10.7 0.5C52.1 12.4 52.5 14 53.1 15.9z"/><path d="M49.3 14.9c-2.1 0.1-3.8 0.7-5.9 0.5 1.3-1.3 2.9-0.9 4-1.5 -0.5-3.3-1-6.5-1.5-9.6 -0.3-1.7-0.4-1.8-2.2-1.1 -0.5 2.4-0.2 4.8 0.2 7.1 0.1 0.8 0.6 1.6 0.8 2.4 0.1 0.3-0.2 0.6-0.2 0.9 -0.3-0.2-0.8-0.2-0.9-0.5 -0.3-0.8-0.7-1.6-0.7-2.5 -0.2-2.2-0.8-4.5-0.4-6.7 0.1-0.3-0.2-0.7-0.2-1.1C42 2 42.5 1.4 43.4 1.4c0.7 0 1.5 0.1 2.2 0 1 0 1.4 0.3 1.5 1.3 0.3 2 0.6 3.9 0.7 5.9 0.1 1.6 0.5 3.2 1.1 4.7C49 13.7 49.1 14.2 49.3 14.9z"/><path d="M13.8 26.2c-3.6-0.3-6.9 0.7-10.3 1.3 -0.3 0.1-0.6 0.2-0.9 0.2 -0.7 0.1-1.1-0.2-1.2-1 0-0.5-0.1-1.1-0.1-1.6 -0.1-0.7-0.1-1.4-0.9-1.7 -0.5-0.2-0.4-0.8 0.2-1.1 0.4-0.2 0.8-0.2 1.3-0.2 3.3-0.4 6.5-0.7 9.8-1.1 0.3 0 0.6-0.2 0.9-0.3 0.8-0.3 1.2-0.1 1.3 0.8 0.1 0.6 0.1 1.3 0.4 1.8C14.7 24.4 14.6 25.3 13.8 26.2zM2.7 26.4c3.6-0.5 6.9-1 10.4-1.6 -0.1-0.6-0.1-1-0.2-1.4 -0.2-1.2-0.4-1.3-1.6-1.2 -0.9 0.1-1.8 0.1-2.7 0.2 -2.1 0.2-4.1 0.5-6.3 0.8C2.4 24.3 2.5 25.3 2.7 26.4z"/><path d="M19.3 46.6c2-0.4 3.8-0.8 5.6-1.1 1.8-0.3 3.6-0.6 5.5-0.9 -0.1-0.9-0.2-1.9-0.4-3 -1.5 0.2-2.8 0.4-4.2 0.6 -1.9 0.2-3.8 0.5-5.7 0.7 -0.8 0.1-1.1-0.3-1-1.2 2.2-0.2 4.4-0.4 6.5-0.7 2.2-0.3 4.3-0.7 6.7-1.1 -0.2 0.6-0.3 1-0.5 1.2 -0.6 0.6-0.6 1.3-0.3 2.1 0.3 0.7 0.4 1.5 0.7 2.5 -0.6 0.1-1.1 0.3-1.5 0.2 -1.8-0.2-3.5 0.1-5.3 0.5 -1.1 0.3-2.2 0.3-3.3 0.6 -0.8 0.2-1.5 0.6-2.2 1 -0.8 0.4-1.4 0.2-1.5-0.7 -0.2-1.3-0.2-2.7-0.3-4C18.9 43.8 18.9 43.8 19.3 46.6z"/><path d="M41.2 13.5c-1.6 0.3-3.2 0.6-5.2 1 -0.4-0.2-0.7-0.9-0.9-1.7 -0.5-3.1-1-6.3-1.4-9.4 -0.1-0.8-0.3-1.8 0.5-2.4 1-0.7 2.2-1 3.4-0.9 0.3 0 0.6 0.5 0.8 0.9 0.2 0.6 0.2 1.3 0.3 1.9 0.7 3.2 1.5 6.4 2.2 9.6C41.1 12.7 41.1 13.1 41.2 13.5zM37 1.1c-0.3 0.1-0.5 0.1-0.8 0.2 -1.6 0.6-1.5 0.4-1.3 2 0.3 2.6 0.6 5.2 1 7.8 0.1 0.6 0.5 1.2 0.8 1.9 1.1-0.3 1.9-0.5 2.8-0.7C38.7 8.5 37.9 4.8 37 1.1z"/><path d="M18.5 15.6c-0.3-1.4-0.6-2.7-0.9-4.2 0.4-0.1 0.8-0.3 1.1-0.3 4-0.3 7.9-0.6 11.9-0.9 1.4-0.1 1.7 0.1 2 1.5 0.5 2.5 0.2 2.6-2.2 2.8 -3.2 0.2-6.3 0.7-9.4 1C20.2 15.5 19.4 15.5 18.5 15.6zM31 11.4c-2.1 0.2-4 0.3-5.9 0.5 -1.9 0.2-3.9 0.4-5.9 0.6 0.1 0.7 0.2 1.2 0.3 1.7 4.1 0.2 8-0.6 12.1-1.2C31.3 12.3 31.2 11.9 31 11.4z"/><path d="M34.9 52.3c-3.8 1-7.5 2-11.3 3 -0.6 0.2-1.3 0.4-1.8-0.5 1.1-0.8 2.6-0.6 3.8-1 1.3-0.5 2.6-0.8 3.9-1.2 1.3-0.4 2.6-0.7 4-1 -0.2-0.8-0.3-1.4-0.5-2.1 -0.6 0-1.2-0.1-1.7 0 -2.3 0.4-4.5 0.9-6.8 1.3 -0.5 0.1-1.1 0.1-1.6 0.2 -0.8 0.1-1.7 0.3-2.6 0.4 0.2 1.4 0.3 2.5 0.5 4.1 -0.5-0.4-0.8-0.5-0.9-0.7 -0.3-1-0.6-2-0.9-2.9 -0.3-0.9 0.1-1.4 0.9-1.6 0.8-0.2 1.7-0.5 2.5-0.5 2.8-0.2 5.6-0.6 8.3-1.2 0.5-0.1 1-0.1 1.5-0.1 1.7-0.1 2 0.1 2.3 1.7 0 0.2 0.1 0.4 0.1 0.6C34.8 51.3 34.9 51.8 34.9 52.3z"/><path d="M55.9 43.7c3.4-0.4 6.4-0.8 9.4-1.2 0.1 0 0.3-0.2 0.5-0.3 -0.2-0.9-0.4-1.7-0.6-2.7 -0.7 0-1.3 0-1.9 0 -2.1 0.1-4.2 0.4-6.3 0.4 -0.8 0-1.7 0.2-2.3-0.7 0.3-0.7 0.8-0.5 1.3-0.5 2.8-0.3 5.6-0.5 8.3-0.8 0.5 0 0.9-0.2 1.6-0.3 1 1.7 0.5 3.9 1.8 5.5 -0.3 0.2-0.5 0.4-0.7 0.4 -2.8 0.3-5.6 0.6-8.3 1 -1 0.1-2 0.5-2.9 0.8 -0.6 0.2-0.9-0.1-0.9-0.7 0-1 0-2 0-3.1 0-0.2 0.3-0.5 0.5-0.5 0.2 0 0.5 0.3 0.5 0.5C56 42.2 55.9 42.9 55.9 43.7z"/><path d="M48.4 24.3c-2.2 0.4-4.1 0.8-5.9 1 -1.5 0.2-2.9 0.7-4.2 1.5 -1.4 0.7-1.7 0.5-2.1-1 -0.3-1.2-0.8-2.4-1.3-3.8 0.3-0.1 0.6-0.3 1-0.4 0.7-0.1 1.4-0.2 2.1-0.2 2.4 0 4.7-0.4 7-1.1 0.7-0.2 1.4-0.3 1.8 0.9 -1.6 0.7-3.3 0.6-4.9 1 -1.6 0.4-3.3 0.4-5.2 0.5 0.3 1 0.5 1.8 0.7 2.5 0.3 0 0.5 0.1 0.6 0.1 2.5-1.1 5.2-1.4 7.8-1.8 0.8-0.1 1.2-0.4 1.2-1.2 0-0.8 0.1-1.6 0.2-2.4 0-0.3 0.3-0.6 0.6-0.9C48.2 20.8 47.9 22.6 48.4 24.3z"/><path d="M2 61.3c1.7-0.1 3.3-0.3 4.8-0.4 1.8-0.1 3.5-0.2 5.3-0.4 1.6-0.2 2.1 0.1 2.7 1.5 -0.5 0.8-1-0.3-1.7 0 0 0.9 0 1.9 0 3 0 1.4-0.3 1.5-1.6 1.4 -1.9-0.2-3.9-0.1-5.8-0.1 -0.7 0-1.4 0.2-2.1 0.2 -0.8 0.1-1.2-0.3-1.3-1.1C2.2 64.2 2.1 62.9 2 61.3zM11.9 61.9c-2.9 0.2-5.6 0.3-8.2 0.5 0 1.1 0 1.9 0 2.6 2.7 0 5.3 0 8 0C11.8 64 11.8 63.1 11.9 61.9z"/><path d="M42 69c0.1 0.7 0.2 1.3 0.3 1.8 0.1 0.3 0.2 0.6 0.2 1 0 0.3-0.2 0.5-0.4 0.8 -0.3-0.2-0.7-0.3-0.8-0.6 -0.2-0.9-0.4-1.8-0.4-2.7 0-1.3 0.5-1.7 1.7-1.6 1.5 0.1 3-0.4 4.4-0.8 1.6-0.4 3.1-0.7 4.7-0.9 2-0.2 2.8 0.5 3.3 2.5 0.1 0.5 0.3 1 0.4 1.5 0.3 1 0.1 1.4-0.8 1.4 -2.8 0.2-5.5 1-8.2 1.8 -0.9 0.3-1.9 0.3-2.9 0.4 -0.2 0-0.5-0.3-1-0.5 2.1-0.5 4-1 5.8-1.4 1.8-0.5 3.6-0.9 5.5-1.4 0-0.2 0.1-0.3 0.1-0.4 -0.3-2.7-1-3.3-3.7-2.7 -1.3 0.3-2.6 0.7-3.9 1.1 -1 0.2-2.1 0.4-3.2 0.6C43 68.8 42.6 68.9 42 69z"/><path d="M28.1 32.5c-0.2-0.2-0.6-0.3-0.7-0.6 -1.3-3.3-1.6-6.8-2.2-10.2 1.2-0.9 2.5-1.2 3.8-1.4 1.2-0.2 1.7 0.2 1.8 1.4 0.5 3.3 1 6.6 1.6 9.9 0.1 0.8 0.5 1.6 0.7 2.6 -0.5 0.1-0.8 0.2-1.1 0.1 -0.7-0.1-1.5-0.3-2.2-0.3 -0.6-0.1-1-0.3-1.1-1 0.9-0.1 1.7-0.2 2.8-0.3 -0.6-3.8-1.3-7.5-1.9-11 -1.2-0.7-2 0.1-2.7 0.5 -0.3 0.1-0.4 0.9-0.3 1.3 0.4 2.2 0.9 4.3 1.4 6.5 0.2 0.8 0.4 1.5 0.6 2.3C28.4 32.4 28.2 32.5 28.1 32.5z"/><path d="M18 21.8c0.8-0.1 1.6-0.2 2.3-0.3 1.2-0.1 1.7 0.1 2.1 1.2 0.4 1.2 0.6 2.5 0.9 3.7 0.3 1.2 0.5 2.3 0.7 3.5 0.1 0.6 0.3 1.2 0.5 1.9 0.5 0 0.9 0.1 1.3 0.1 0 0.2 0 0.4 0 0.5 -0.7 1.2-1.7 1.8-3.1 1.9 -1 0-1.8-0.3-2.1-1.3 -0.4-1.1-0.7-2.2-0.9-3.2 -0.6-2.4-1.1-4.8-1.7-7.2C18 22.3 18 22.1 18 21.8zM19.4 23c0.6 2.9 1.3 5.7 1.9 8.6 0.1 0.3 0.3 0.6 0.4 0.9 0.3 0.4 0.7 0.6 1.1 0.4 0.2-0.2 0.4-0.7 0.3-0.9 -0.6-2.7-1.2-5.4-1.8-8C21.1 22.9 20.5 22.5 19.4 23z"/><path d="M52.7 61.4c-1.4 0.3-2.6 0.6-3.8 0.9 -2.2 0.4-4.3 0.8-6.5 1.2 -0.5 0.1-1 0.3-1.4-0.6 3.2-1.1 6.6-1.2 9.9-2.1 0.5-1.4-0.6-2.2-0.7-3.4 -3.5 0.5-6.8 1.1-10.3 1.6 0.3 1.4 0 2.7 0.8 3.8 0.1 0.1-0.2 0.5-0.2 0.8 -0.3-0.1-0.9-0.1-0.9-0.3 -0.3-0.9-0.5-1.7-0.7-2.6 -0.1-0.6-0.2-1.2-0.2-1.8 -0.1-0.5 0.1-0.8 0.7-0.9 1.5-0.2 3.1-0.4 4.6-0.6 1.9-0.3 3.8-0.6 5.7-1 1.5-0.3 1.6-0.2 2.1 1.2C51.9 58.7 52.2 59.8 52.7 61.4z"/><path d="M62.8 29.1c0.9-0.1 1.6-0.1 2.4-0.2 0-1 0.1-1.9 0.1-2.9 0-1.3 0-2.7-0.2-4 -0.2-1.4 0-2.2-2.1-2.4 -0.9-0.1-1.7-0.3-2.5-0.5 -0.3 0-0.5-0.1-0.8-0.5 0.3-0.1 0.7-0.4 1-0.3 1.3 0.1 2.6 0.1 3.8 0.4 1.1 0.3 1.6 1.2 1.7 2.3 0.2 2.2 0.4 4.4 0.5 6.6 0.1 0.7 0.1 1.4 0.2 2.3 -0.5 0.1-1 0.2-1.5 0.2 -0.8 0.1-1.6 0.2-2.4 0.4 -1 0.2-1.5-0.1-1.7-1.1 -0.3-1.3-0.4-2.6-0.8-3.8 -0.5-1.6-1.1-3.1-1.6-4.7 0.9-0.1 1.2 0.1 1.6 1.2 0.6 2.1 1.3 4.1 1.9 6.2C62.6 28.4 62.6 28.7 62.8 29.1z"/><path d="M42.7 51.6c-1.4 0.1-2.6 0.2-3.7 0.2 -0.6 0-0.9-0.5-1-1.1 -0.4-1.8-0.9-3.7-1.3-5.5 -0.2-1-0.5-2.1-0.6-2.8 0.7-0.7 1.2-1.2 1.6-1.8 0.9-1.2 1.7-1.3 3-0.4 0.3 0.2 0.5 0.4 0.8 0.5 0.6 0.3 0.7 0.7 0.6 1.3 -0.2 1.6-0.4 3.3-0.6 5 -0.2 1.4 0.1 2.6 0.9 3.7C42.5 50.9 42.5 51.1 42.7 51.6zM38.9 40.8c-0.6 0.7-1.2 1.3-1.7 1.8 0.5 2.2 1 4.4 1.5 6.7 0.3 1.3 0.3 1.4 1.7 0.9 -0.1-0.9-0.2-1.8-0.2-2.7 0-1.4 0.2-2.9 0.3-4.3C40.7 41.6 40.7 41.5 38.9 40.8z"/><path d="M19.3 62.9c0.9-0.3 1.4-0.1 1.4 0.7 0 1.2 0 2.5 0.1 3.7 0.1 1.5 0.2 3 0.4 4.6 0.8-0.1 1.4-0.2 2.2-0.3 -0.3-1.2-0.5-2.2-0.8-3.3 -0.3-1.6-0.7-3.2-0.8-4.8 0-1.1-0.8-1.3-1.6-2 0.5-0.3 0.9-0.7 1.3-0.9 1-0.3 1.4 0 1.4 1.1 0.1 1.4 0 2.9 0.3 4.3 0.5 2.2 1.1 4.4 1.8 6.7 -0.2 0.5-0.7 0.6-1.2 0.4 -0.8-0.3-1.5-0.2-2.4 0 -1 0.2-1.3-0.1-1.4-1.1 -0.3-2.4-0.6-4.7-0.8-7.1C19.3 64.3 19.3 63.6 19.3 62.9z"/><path d="M26.8 61.7c0.1 0.5 0.3 1 0.4 1.4 0.3 1.4 0.6 2.8 0.9 4.2 0.5 2.1 1.4 2.5 3.6 1.6 -0.5-1.5-1.1-2.9-1.4-4.4 -0.3-1.5-0.2-3.1-0.3-4.7 -1 0.3-2 0.5-3.1 0.8 0.3-1.5 1.4-1.6 2.2-1.9 0.3-0.1 0.6-0.1 1-0.1 1 0 1.3 0.2 1.3 1.1 0 0.8-0.1 1.6-0.1 2.4 0 2.6 0.5 5.1 2.8 6.8 0.1 0.1 0.1 0.3 0.2 0.5 -0.5 0.8-1.4 0.6-2.2 0.8 -0.9 0.2-1.9 0.3-2.9 0.4 -1.1 0.1-1.5-0.1-1.8-1.2 -0.5-2.1-1-4.3-1.5-6.4C25.8 62.5 25.8 62 26.8 61.7z"/><path d="M2.3 55.2c-0.3-1.6-0.6-3-0.8-4.3 -0.2-1.4-0.3-2.9-0.5-4.3 -0.2-1.3 0.4-2.7-0.2-4.2 1.2 0.1 2.2 0.2 3.4 0.4 0.8 1 0.5 2.3 0.5 3.5 0 2.2-0.5 4.5 0.4 6.7 0.3 0.8 0 1.3-0.7 1.5C3.9 54.7 3.3 54.8 2.3 55.2zM3.5 53.1c0-0.2 0.1-0.4 0.1-0.6 -0.3-1.4-0.2-2.8 0-4.2 0.1-1.1 0.1-2.2 0-3.2 0-0.5 0-1.3-1-1.1C2.1 47.1 2.4 50.1 3.5 53.1z"/><path d="M9.8 43.6c-0.8-0.1-1.3-0.1-1.9-0.3 -0.1 0-0.3-0.3-0.3-0.5 0-0.2 0.2-0.4 0.3-0.5 1.1-0.2 2.3-0.7 3.2 0.2 -0.1 3.6 1.1 6.9 1.5 10.4 -1.7 0.2-3.2 0.4-4.9 0.7 -0.3-1.3-0.7-2.5-0.9-3.7 -0.3-1.8-0.6-3.6-0.9-5.4C5.8 43.7 6 43.2 7 43.3c0.4 2.9 0.9 5.8 1.3 8.8 0.5 0 0.8 0.1 1.1 0.1 1.2-0.1 1.5-0.2 1.3-1.4C10.5 48.3 10.1 46 9.8 43.6z"/><path d="M49.4 32c-0.4 0.1-1 0.3-1.4 0.2 -0.7-0.1-1.3 0-2 0.2 -1.9 0.5-3.8 1-5.8 1.3 -2.6 0.4-3.4-0.6-2.9-3.5 0.3 0.3 0.7 0.5 0.8 0.7 0.7 1.6 0.8 1.8 2.4 1.4 2.1-0.4 4.2-0.9 6.3-1.4 0.4-0.1 0.7-0.1 1.2-0.2 0-0.7 0-1.4 0-2.3 -3.3 0.1-6.5 1-10.1 1.5 0.7-1 1.4-1.2 2.1-1.3 1.1-0.2 2.1-0.4 3.2-0.5 1.6-0.3 3.3-0.6 4.9-0.9 1.1-0.2 1.3 0 1.3 1C49.4 29.4 49.4 30.6 49.4 32z"/><path d="M53.7 20.4c1.6-0.4 2.9 0.2 4.4 0.4 0.6 1.3 0.5 2.7 0.3 4 -0.2 1.3 0.2 2.4 0.7 3.5 0.2 0.4 0.8 0.6 1.2 0.9 0.1 0.5-0.1 0.9-0.6 0.9 -1.5 0.1-2.9 0.4-4.2 1 -0.6 0.3-1.1 0-1.2-0.7 -0.4-2.4-0.9-4.9-1.2-7.3C53 22.3 53.5 21.3 53.7 20.4zM57 21.9c-0.9-0.2-1.6-0.3-2.6-0.5 -0.5 2.9 0.1 5.6 0.8 8.4 0.9-0.2 1.7-0.3 2.2-0.4C57.4 26.8 57.2 24.4 57 21.9z"/><path d="M51.1 49.3c-2.1 0.2-3.9 0.5-5.9 0.7 -0.8-2.9-1.5-5.6-1.4-8.5 0.1 0 0.3-0.1 0.4-0.1 0.2 0.3 0.5 0.5 0.5 0.8 0.3 1.3 0.5 2.5 0.7 3.8 0 0.1 0 0.2 0 0.3 0.6 2.7 0.5 2.6 3 2.2 0.2 0 0.4-0.1 0.7-0.1 -0.3-2.9-0.6-5.8-0.9-8.8 -0.8 0.1-1.5 0.1-2.2 0.2 -0.8 0-0.8 0-0.9-1 1.2-0.2 2.5-0.5 3.7-0.7 0.6-0.1 0.9 0.3 0.8 1.1 -0.2 1.6 0 3.2 0.2 4.8C50 45.7 50.2 47.5 51.1 49.3z"/></svg>
