<svg xmlns="http://www.w3.org/2000/svg" viewBox="0 0 74.2 27.7"><path d="M46.3 5.6c-1.5-0.6-2.9-1.3-4.3-1.5 -3.7-0.5-7.6-1-11.3-0.4 -3.4 0.6-7 1.2-9.9 3.3 -1.6 1.2-3.2 2.3-4.8 3.5 -3.1 2.3-5.2 5.3-6.7 8.8 -0.8 1.9-1.7 3.8-2.6 6 1 0 1.7 0 2.4 0 2.3-0.1 4.6-0.2 6.9-0.3 0.5 0 0.9-0.1 1.4-0.2 1.3-0.2 2.7-0.4 4.1-0.5 0.3 0 0.8 0.3 1 0.7 0.2 0.5-0.1 0.9-0.7 1.1 -0.5 0.2-0.9 0.4-1.4 0.4 -3.3 0.2-6.6 0.3-9.8 0.5 -1.2 0.1-2.4 0.3-3.7 0.5 -1.5 0.2-3.1 0.2-4.8-0.1 -0.6-3.3-1.3-6.5-1.8-9.7 -0.2-1.3 0.1-1.9 0.9-1.9 1.1 0 1.2 0.9 1.4 1.7 0.5 2.2 0.8 4.4 1.3 6.6C3.7 24.6 3.8 25 4 25.4c0.6 0 1.1 0 2 0C4.8 24.2 5 23 5.6 21.9c1.4-2.6 2.6-5.4 4.3-7.8 1.3-1.9 3.2-3.4 5-4.9 1.5-1.3 3.2-2.6 4.8-3.8 0.8-0.6 1.8-1.2 2.8-1.4 2.4-0.7 4.7-1.8 7.3-2 2.3-0.2 4.5-0.8 6.8-0.5 2.7 0.4 5.5 0 8 1.2 0.7 0.3 1.4 0.5 2 0.9 1.3 0.8 2.2 0.9 3.4 0C53.5 1 57.5 0.2 61.7 0 64.3-0.1 66.7 0.4 69 1c2.1 0.5 3.7 2 5.2 3.4C73.2 6 72.9 6 71.7 5 68.1 2.2 64 1.5 59.6 2.1c-1.7 0.2-3.4 0.9-5 1.2 -1.5 0.3-2.6 1.3-4.1 2.2 0.5 0.5 0.9 0.9 1.2 1.3 2 1.8 3.8 3.9 5.2 6.3 1 1.9 0.6 4.9-0.9 6.5 -1.9 2-4.3 2.3-6.8 0.9 -2-1.2-3.6-2.9-4.6-5 -1.5-3-1-5.9 0.9-8.6 0.1-0.2 0.3-0.3 0.4-0.4C46 6.3 46 6.2 46.3 5.6zM45.6 12.3c0 0.4-0.1 0.8 0 1.1 1 2.4 2.4 4.5 4.8 5.6 1.9 0.9 4.4-0.2 4.7-1.7 0.4-1.6 0.3-3.2-0.8-4.6 -1.4-1.8-3-3.6-4.9-5C48.3 7 47.9 7 47 8.1 45.9 9.3 45.6 10.8 45.6 12.3z"/></svg>
