<svg xmlns="http://www.w3.org/2000/svg" viewBox="0 0 25.9 65.5"><path d="M1.8 17.6c0.5 0.6 0.9 1 1.3 1.5 1.3 1.5 1.3 3.3 0.1 4.8 -0.5 0.7-1.1 1.3-1.6 2 -0.8 1.1-0.7 1.3 0.1 2.2 0.8 0.9 1.6 1.7 2.3 2.7 0.4 0.6 0.7 1.3 1.1 2 0.4 0.8 0.4 1.6 0 2.3 -0.6 1.2-1.1 2.3-1.8 3.4 -0.9 1.5-0.8 1.9 0.5 3 0.2 0.2 0.5 0.4 0.8 0.6 1.8 1.2 1.8 2.8 1.1 4.5 -0.5 1.4-1.3 2.7-2 4 -0.2 0.4-0.2 0.8-0.4 1.2 -0.1 0.3-0.4 0.6-0.7 0.9 -0.8-0.6-0.5-1.1-0.2-1.7 0.8-1.5 1.6-3 2.2-4.5 0.9-2.2 0.4-3.3-1.5-4.5 -1.5-0.9-1.8-1.6-1.2-3.1 0.4-1 0.9-2 1.5-2.9 0.9-1.4 0.9-2.7 0.2-4.1 -0.6-1.1-1.3-2.1-2.3-2.9 -1.5-1.2-1.7-2.1-0.6-3.7 0.5-0.8 1.1-1.6 1.7-2.4 0.8-1.1 1.1-2.3-0.2-3.6 -1.7-1.7-1.7-3.4-0.2-5.3 0.4-0.5 0.9-1 1.4-1.6 0.8-1 0.7-1.3-0.1-2.2 -0.5-0.5-0.9-1-1.4-1.6C1.4 8.2 1.2 7.3 1.6 6.7c1.1-1.6 2.2-3.4 4.3-3.9 0.1 0 0.2-0.1 0.3-0.1C6.5 2.8 6.8 2.8 6.9 3 7 3.2 7 3.5 6.8 3.7 6.6 4 6.2 4.2 5.8 4.5 5 5.2 4.1 5.8 3.4 6.5 2.5 7.4 2.6 8.4 3.5 9.2c0 0 0.1 0.1 0.1 0.1 2.2 1.2 1.9 2.4 0.5 4.3 -0.4 0.6-0.9 1.1-1.3 1.7C2.5 16 2.2 16.8 1.8 17.6z"/><path d="M25.6 0c0.5 0.6 0.3 0.9-0.1 1.2 -0.8 0.7-1.6 1.4-2.4 2.2 -1.2 1.1-1.3 2.1-0.2 3.3 0.4 0.5 0.8 1 1.2 1.5 0.9 1.2 0.6 2.3-0.1 3.4 -0.4 0.6-0.8 1.2-1.2 1.7 -1 1.4-0.9 2.4 0.1 3.8 0.2 0.3 0.4 0.5 0.6 0.8 1 1.3 1.2 2.6 0.3 4 -0.3 0.5-0.4 1-0.7 1.5 -0.6 1.1-0.6 2.2-0.1 3.4 0.8 2.1 0.5 4-1.4 5.5C20.7 33 20.4 34 20.7 35c0.3 1 0.6 2 0.7 3 0.1 0.9-0.1 1.8-0.2 2.7 -0.3 1.3-0.7 2.5-1 3.7 -0.4 1.6-0.1 3.1 1.2 4.3 -1.3 0.3-2.1-0.4-2.3-1.9 -0.1-1.7-0.1-3.4 0.6-4.9 0.9-2.2 0.9-4.3-0.2-6.4 -0.5-1.1-0.3-2 0.5-2.8 0.4-0.4 0.7-1 1.1-1.4 1.1-1.1 1.4-2.4 0.8-3.7 -0.9-1.9-0.6-3.7 0.5-5.4 0.2-0.3 0.3-0.7 0.5-1 0.6-1 0.4-2-0.4-2.8 -0.2-0.3-0.5-0.6-0.7-0.9 -1.1-1.7-1.1-2.8 0-4.5 0.4-0.5 0.7-1.1 1.1-1.6 0.8-1.1 0.7-2.1 0-3.1 -0.5-0.7-1-1.3-1.5-1.9 -0.5-0.6-0.7-1.2-0.2-1.9 0.3-0.5 0.7-1 1-1.4 0.2-0.3 0.4-0.5 0.7-0.7C23.7 1.6 24.6 0.8 25.6 0z"/><path d="M12.3 65.5c-1 0.1-1.4-0.3-1.6-1 -0.3-1.2-0.2-2.3 0.7-3.3 0.9-1.1 1.8-2.3 2.7-3.4 1.1-1.5 1.1-2-0.3-3.3 -0.6-0.5-1.3-1-1.9-1.6 -1.1-0.9-1.2-1.5-0.7-2.8 0.6-1.6 1.3-3.2 2-4.8 0.7-1.7 0.4-3.1-0.9-4.4 -0.6-0.6-1.2-1.4-1.7-2.1 -0.7-0.9-0.9-2-0.3-3 0.9-1.8 1.9-3.6 2.9-5.4 0.8-1.3 0.8-1.8-0.3-3 -0.7-0.8-1.4-1.5-2.1-2.2 -0.7-0.7-0.9-1.5-0.5-2.4 0.8-1.5 2.1-2.6 3.7-3.3 0.1 0.1 0.2 0.2 0.2 0.2 -0.6 0.6-1.1 1.3-1.7 1.9 -0.3 0.3-0.6 0.6-0.9 1 -0.7 0.9-0.7 1.1 0.1 1.9 0.6 0.6 1.3 1.2 1.9 1.8 0.3 0.3 0.5 0.5 0.7 0.9 0.8 1.3 0.8 2.5-0.2 3.9 -1 1.3-1.8 2.8-2.6 4.3 -0.8 1.4-0.6 2.2 0.4 3.5 0.9 1.1 1.6 2.3 2.4 3.4 0.4 0.6 0.4 1.3 0.1 2 -0.7 1.8-1.4 3.6-2.1 5.4 -0.6 1.6-0.5 1.9 0.8 3 0.6 0.5 1.2 1.1 1.7 1.7 1.3 1.4 1.3 2.4 0 3.8 -0.9 1-1.8 2-2.7 3 -0.9 1-1 2.5-0.3 3.7C12.2 65 12.2 65.2 12.3 65.5z"/></svg>
