<svg xmlns="http://www.w3.org/2000/svg" viewBox="0 0 98.9 54"><path d="M65.7 50.5c-2.7-3.5-6.2-6.3-7.8-10.6 1-0.5 1.5-0.2 1.7 0.4 1.4 3.3 3.9 5.8 6 8.6 0.3 0.4 0.4 0.9 0.6 1.4C66 50.4 65.8 50.5 65.7 50.5z"/><path d="M85.4 23.3c0.2-1.3 1-1.4 1.8-1.5 1.5-0.2 3-0.3 4.5-0.4 2.1-0.2 4.1-0.3 6.2-0.4 0.3 0 0.5 0.1 0.9 0.1C98 21.6 87.2 23.4 85.4 23.3z"/><path d="M47.6 14.1c0.5-2.7 2.5-4.7 3.5-7.1 1-2.4 2.3-4.7 3.4-7 0.3 1 0.3 1-1.5 4.8 -0.8 1.7-1.4 3.5-2.4 5.1C49.7 11.3 49.5 13.3 47.6 14.1z"/><path d="M69.8 15.2c-0.3-1.2 0.2-2 1-2.7 1.1-1 1.4-2.8 3-3.3 0.1 0.1 0.3 0.2 0.4 0.3 -1.2 1.8-2.4 3.6-3.6 5.4C70.5 15.1 70.1 15.1 69.8 15.2z"/><path d="M81.9 34.7c-1.8 0.1-3.4 0.1-4.9 0.2 -0.6-0.7-0.4-1.1 0.2-1.4C78.4 32.8 80.6 33.3 81.9 34.7z"/><path d="M27.5 36.6c-4.1 3.2-8.3 6.5-12.4 9.7 -0.1-0.1-0.2-0.1-0.3-0.2 0.1-0.3 0.1-0.7 0.3-0.9 1.2-1 2.4-2 3.7-3 2.1-1.7 4.2-3.4 6.3-5.1C25.7 36.6 26.3 35.9 27.5 36.6z"/><path d="M0 34.4c0.3-0.3 0.5-0.9 0.8-1 2.7-1 5.3-2.3 8.3-2.4 0.7 0 1.5-0.1 1.9 0.8 -2 0.4-3.8 0.6-5.6 1.1 -1.7 0.5-3.2 1.8-5 2C0.2 34.7 0.1 34.6 0 34.4z"/><path d="M17.8 18.6c-2.3-0.6-4.5-1.1-6.8-1.7 -0.3-0.1-0.5-0.7-0.8-1 0.4-0.2 0.8-0.7 1.1-0.6 2.3 0.8 4.7 1.2 6.6 2.8C17.9 18.2 17.9 18.4 17.8 18.6z"/><path d="M43.4 41.4c-0.9 2.5-1.7 4.7-2.7 7.3 -0.7-1.1-0.4-1.8-0.2-2.5 0.6-1.6 1.2-3.2 1.9-4.8C42.5 41.4 42.8 41.5 43.4 41.4z"/><path d="M32 11.5c-1.2-0.9-1.4-2.4-1.7-3.8 0-0.2 0.4-0.7 0.6-0.8 0.1-0.1 0.7 0.3 0.7 0.5 0.3 1.3 0.6 2.6 0.9 3.9C32.3 11.3 32.2 11.4 32 11.5z"/></svg>
