<svg xmlns="http://www.w3.org/2000/svg" viewBox="0 0 54.9 47.9"><path d="M10.4 47.9c-0.8-2.7-0.4-5.3-1.1-7.8C6.3 39.2 3 39.5 0 37.3c0.7-0.6 1.2-1.1 1.8-1.5 2.2-1.3 4.4-2.6 6.6-4 0.5-0.3 0.8-1.1 1.1-1.7 0.8-1.8 1.4-3.6 2.2-5.4 0.5-1.1 1.1-1.2 2-0.3 1 1.1 1.9 2.2 2.9 3.3 1.3 1.5 1.4 1.5 3.4 0.9 1.8-0.6 3.7-1 5.5-1.4 0.5 1-0.1 1.5-0.6 1.9 -1.7 1.4-2.2 3.3-2.8 5.2 -0.5 1.5 0.2 2.8 0.9 4.2 0.5 1 1 2 0.2 3.3 -2.2-0.5-4.5-1-6.7-1.5C14 42.5 13.6 46.1 10.4 47.9zM21.5 39.8c-0.3-0.9-0.3-1.4-0.5-1.7 -1.4-1.9-0.9-3.8 0.1-5.6 0.4-0.8 0.7-1.6 1-2.4 -0.1-0.1-0.2-0.2-0.4-0.3 -0.7 0.2-1.4 0.4-2 0.7 -2.1 1-2.5 0.9-4-1 -0.8-1.1-1.6-2.2-3-2.9 -1.2 1.6-2 3.4-2.3 5.3 -0.2 1.1-0.6 1.8-1.9 2 -2 0.4-3.6 1.5-5.3 2.8 2.5 1.5 4.9 1.2 7.4 1.2 0.2 1.2 0.3 2.3 0.4 3.4 0.1 1 0.2 2 0.2 3.1 0.2 0 0.3 0.1 0.5 0.1 0.9-1.4 1.7-2.8 2.6-4.2 1.2-2.1 1.2-2.1 3.6-1.4C19 39.2 20.1 39.4 21.5 39.8z"/><path d="M54.8 8.1c-1.5 0.9-3 1.9-4.6 2.7C49.3 11.4 49 12 49 13.1c0.1 1.1 0.1 2.2 0.1 3.3 0 0.7-0.2 1.3-0.3 2.1 -1.5-0.4-2.2-1.3-2.7-2.4 -0.8-1.6-1.5-1.8-2.9-0.8 -1.4 1-2.8 2-4.2 3 -0.4 0.3-1 0.4-1.7 0.8 0-0.7 0-1.1 0.1-1.4 0.7-1.6 1.5-3.1 2.3-4.7 0.7-1.4 0.7-1.7-0.5-2.6 -0.4-0.3-0.9-0.6-1.4-0.9 -0.8-0.6-1.6-1.3-2.4-2 -0.5-0.5-1.1-1-0.7-1.8 0.4-0.9 1.2-0.4 1.8-0.3 1.4 0.2 2.9 0.3 4.3 0.5 1.2 0.1 1.9-0.3 2.5-1.4 0.6-1.3 1.4-2.6 2.2-3.7C45.7 0.3 46.4 0 46.9 0c0.3 0 0.7 0.6 0.8 1C47.8 2 47.8 3 47.9 3.9c0.2 2.7 0.9 3.4 3.3 3.2 0.6 0 1.3-0.1 1.9 0 0.6 0.1 1.2 0.3 1.8 0.5C54.8 7.8 54.8 8 54.8 8.1zM48 10.1c1.7-0.7 1.7-0.7 2.4-1.5 -0.1-0.1-0.2-0.2-0.3-0.2 -2.9-0.1-2.9-0.1-3.2-3 -0.1-0.7-0.1-1.4-0.2-2.1 -0.1-0.4-0.2-0.9-0.4-1.4 -1.4 0.6-1.6 1.8-2.2 2.8 -0.6 1-1 2.1-1.4 3.1 -1.7-0.3-3-1.2-4.6-0.8 0.5 1.1 0.5 1.1 2.2 2.4 1.9 1.4 1.9 1.5 0.7 3.5 -0.5 0.9-1 1.8-1.5 2.8 0.1 0.1 0.2 0.2 0.3 0.3 0.9-0.5 1.9-1.1 2.8-1.6 2.7-1.4 2.7-1.4 5 0.5C47.7 13.3 47.8 11.7 48 10.1z"/></svg>