<svg xmlns="http://www.w3.org/2000/svg" viewBox="0 0 134.2 32.7"><path d="M0.1 3.8c1 0.8 1.7 1.4 2.5 2 1.5 1 3.1 1.9 4.7 2.8 1.3 0.7 2.6 1.2 3.9 1.9 2.5 1.3 5.2 2 7.9 2.7 1.3 0.3 2.7 0.2 4.1 0.2 3.1-0.1 6.2-0.2 9.3-0.3 0.5 0 1 0.1 1.5 0.1 0.2 0 0.4 0.2 0.5 0.1 2.7-0.9 5.5-1 8.2-1.8 1.3-0.3 2.6-0.6 4-0.8 2.8-0.5 5.6-0.9 8.2-2.2 0.3-0.2 0.7-0.3 1.1-0.3 3.7-0.6 7.1-2.1 10.6-3.4 2.8-1 5.5-2.3 8.4-3.3 1.7-0.6 3.6-1 5.4-1.2C83 0.2 85.7-0.1 88.3 0c2.4 0.1 4.8 0.6 7.2 1.1 2.3 0.5 4.6 1.1 6.8 2 2.4 1 4.7 2.2 6.9 3.5 2.6 1.5 5.1 3.3 7.6 5 0.3 0.2 0.5 0.6 0.7 0.8 0.2 0.3 0.5 0.7 0.7 0.8 1.7 0.3 2.5 1.7 3.5 2.8 0.9 1 1.4 1.1 2.3 0.2 1.5-1.3 3.1-2.6 4.6-4 0.7-0.6 1.5-0.4 1.8 0.1 0.7 1 1.7 1.1 2.7 1.7 -0.1 0.8-0.1 1.6-0.2 2.4 -0.5 3.8 0.5 7.5 1.2 11.2 0.3 1.7-0.2 3-1 4.4 -0.4 0.7-1.1 0.9-1.9 0.5 -3.2-1.3-6.4-2.6-9.7-3.7 -2.6-0.9-5.2-1.4-7.9-2 -0.9-0.2-1.8-0.8-2.9-0.5 -0.3 0.1-1-0.5-1.1-1 -0.2-0.6 0.3-1.1 0.9-1.1 2.2-0.2 3.7-1.5 5.4-2.7 1.2-0.9 2.5-1.6 3.8-2.4 0.4-0.2 0.7-0.5 1.2-0.9 -0.4-0.5-0.7-1.1-1.1-1.5 -2.2-2.2-4.6-4.1-7.2-5.8 -2.2-1.5-4.4-2.9-6.7-4.2 -3.4-1.8-6.9-3.1-10.7-4.1 -4.7-1.2-9.4-0.8-14.1-0.4C77.9 2.5 75 3.8 72 4.9 68.1 6.3 64.5 8.3 60.5 9c-1.4 0.2-2.7 0.9-4 1.3 -3.3 0.9-6.5 1.8-9.8 2.6 -3.4 0.7-6.8 1.4-10.3 1.8 -3.4 0.4-6.8 0.8-10.2 0.7 -3.8-0.1-7.6-0.6-11.3-1.9 -3.7-1.2-7.3-2.8-10.6-4.9C3.3 8 2.2 7.5 1.2 6.9 0.1 6.2-0.2 5.4 0.1 3.8zM115.4 24.5c0.6 0.5 0.8 0.7 1 0.8 4.7 1.4 9.4 2.8 14.2 4.2 0.3 0.1 0.6 0 0.9 0 0.5-1.4 0.5-2.6 0.2-3.9 -0.4-2.3-1.2-4.6-1-7 0.1-1.2 0.1-2.5 0.1-3.7 0-0.4-0.1-0.8-0.1-1.5 -1.3 1.1-2.5 1.8-3.4 2.8 -1.8 2.2-4.3 3.2-6.5 4.8 -0.8 0.6-1.6 1.1-2.4 1.6 -0.6 0.4-1.1 0.8-1.7 1.2C116.3 24.1 115.9 24.3 115.4 24.5z"/></svg>
