<svg xmlns="http://www.w3.org/2000/svg" viewBox="0 0 15.6 18.9"><path d="M5.1 14.6c1.1-0.3 2.1-0.5 3.1-0.7 0.2 0 0.4 0 0.6 0.1 0.7 0.3 1.3 2 1 3.2 -0.2 1-1 1.7-2 1.7 -1.2 0-2.2-0.7-2.5-1.8 -0.1-0.2-0.1-0.4-0.1-0.6C5.2 16 5.2 15.5 5.1 14.6zM6.7 15.2c0 1-0.3 1.9 0.9 2.2 0.3 0.1 0.9-0.3 1-0.6C8.7 15.8 8.2 15.2 6.7 15.2z"/><path d="M1.6 0c0.9 0.5 1.7 1 2.5 1.5C5 2.1 5 3.3 4.4 4.5c-0.5 1-1.4 1.3-2.4 1C0.1 5-0.5 3.4 0.5 1.7 0.8 1.1 1.2 0.6 1.6 0zM0.9 3.2c0.7 0.5 1.1 1 1.7 1.2 0.2 0.1 0.6-0.7 0.9-1.1C3 3 2.5 2.6 1.9 2.3 1.8 2.3 1.4 2.8 0.9 3.2z"/><path d="M13.3 2.8c-0.2-0.4-0.4-0.8-0.6-1.2 0.7-0.6 1.2-0.5 1.5 0 0.5 0.7 0.9 1.4 1.2 2.1 0.4 0.9-0.1 1.7-0.9 2 -0.8 0.3-1.6 0.9-2.5 0 -0.5-0.5-0.8-2-0.3-2.5C12.2 3 12.8 2.9 13.3 2.8c-0.1 0.7-0.3 1.4 0.6 2C14.4 3.8 13.8 3.3 13.3 2.8z"/></svg>
