<svg xmlns="http://www.w3.org/2000/svg" viewBox="0 0 42.72 39.86"><title>sketch-social_instagram</title><g id="Layer_2" data-name="Layer 2"><g id="Layer_1-2" data-name="Layer 1"><g id="Layer_2-2" data-name="Layer 2"><g id="Layer_1-2-2" data-name="Layer 1-2"><path d="M5.34,37.35c-2.8-.8-3.1-4.3-3.4-6.5a52.12,52.12,0,0,1-1-6.9c-.2-5.5-.7-11.1-.9-16.7,0-1.1-.2-2.4.3-3.3A8.69,8.69,0,0,1,3.14,2c2.6-1.1,6.6-.8,9.4-.9,5.1-.2,10.3-.4,15.4-.9,4.5-.4,10.3-1,11.9,4.4,1.5,5.1,1.2,10.6,1.9,15.8.4,2.8.5,5.6.8,8.4.3,2.6.5,6.1-1.6,8.2-1,1-2.6,1.2-4,1.5a41.87,41.87,0,0,1-7.8,1.1,92,92,0,0,1-10.5.1c-2.4-.1-4.7-.4-7.1-.6C10.44,39.25,4.74,38.55,5.34,37.35Zm2-33.6c-1.4,0-4,.9-4.8,2.4-.6,1.2-.1,2.5,0,3.7.2,1.5,0,2.9.2,4.3.6,4.4.7,8.9,1.2,13.3s2.4,8.7,7.2,9.5a68.47,68.47,0,0,0,12,.5c3.7-.1,8,0,11.4-1.2,1.1-.4,2.5-.6,3.5-1,2.2-.8,2-3.3,1.9-5.3-.3-4.7-1-9.3-1.6-14-.2-2.2-.4-4.4-.8-6.6-.3-1.9-.2-5.5-2.3-6.5-1.9-1-6.1-.2-8.2-.1-2.7.2-5.3,0-7.9.3C15.24,3.55,11.24,3.55,7.34,3.75Z"/><path d="M12.14,22.95a15.49,15.49,0,0,1,3.1-8c.9-1.4,1-2.1,2.8-2.6a8.27,8.27,0,0,1,3.5-.1c5.6.3,12.3,4.1,11,10.5-.5,2.7-.8,4.2-2.8,6.2a11.25,11.25,0,0,1-7.7,2.8c-2.6.1-5.5-.7-7.2-2.7C13,27.25,12.84,25.15,12.14,22.95Zm17.6-2c.5-4.2-6-6.9-9.4-6.2-3.2.7-5.4,5-5.4,8.1a6.82,6.82,0,0,0,7.6,6.5C26.84,28.65,30,25.45,29.74,20.95Z"/><path d="M33.74,9c-.7,2.5-5.2,2.5-5.9-.3a2.42,2.42,0,0,1,2.3-2.9C32,5.75,33.34,7.55,33.74,9Z"/></g></g></g></g></svg>