<svg xmlns="http://www.w3.org/2000/svg" viewBox="0 0 27 20.2"><path d="M16.8 19.3c-0.1-1.8 1.3-1.9 2.2-2.7 -0.5-0.7-1-1.4-1.4-2 1.8-1.8 1.9-1.8 3.5-0.5 0.3-0.6 0.5-1.1 0.8-1.7 0.2-0.4 0.4-0.9 0.7-1.2 0.2-0.2 0.7-0.1 1.1-0.1 0 0.3 0.1 0.7 0 0.9 -0.2 0.5-0.5 0.9-0.8 1.3 0.1 0.1 0.2 0.2 0.3 0.3 0.6-0.4 1.3-0.8 1.9-1.2 0 0.2-1.6 2.9-2.1 3.4 1 1.2 2.4 1.3 3.9 1.1 -0.6 1.5-0.6 1.5-4.1 1.1 -0.1 1.2-0.7 1.8-2 1.5 -0.4-0.1-0.8 0.3-1.3 0.5 -0.3-0.5-0.5-0.9-0.7-1.3C18.2 19 17.5 19.2 16.8 19.3z"/><path d="M5.8 8.4c0 0.7 0 1.2 0 1.7 -0.1 0-0.2 0.1-0.3 0.1 -0.4-0.6-0.8-1.2-1.3-2 -1.5 1.6-1.4 3.7-2.1 5.6 -0.4-1.3-0.8-2.4-1.3-3.9C1.4 9 2.1 7.8 3 6.3 2.1 6 1.4 5.8 0.8 5.5 0.4 5.3 0.2 4.8 0 4.5c0.3-0.2 0.7-0.4 1-0.4 0.6 0 1.2 0.2 1.9 0.3C3 3.7 3 3.2 3.1 2.5c2.2 0.7 2.1-2 3.7-2.5 0.5 0.6 1 1.2 1.6 1.9 -1 1.2-2 2.4-3.1 3.7C6.3 6.4 7.3 7 8.3 7.7 7.7 8.9 6.7 8.3 5.8 8.4z"/></svg>
