<svg xmlns="http://www.w3.org/2000/svg" viewBox="0 0 44.1 39.83"><title>sketch-social_github</title><g id="Layer_2" data-name="Layer 2"><g id="Layer_1-2" data-name="Layer 1"><g id="Layer_2-2" data-name="Layer 2"><g id="Layer_1-2-2" data-name="Layer 1-2"><path d="M2,27.09c.4.2.3,1.7.5,2.3a9,9,0,0,0,1.1,2.7,10.4,10.4,0,0,0,4.6,3.7,28.51,28.51,0,0,0,5,1.4c.4.1,3.2,1,3.6.6.3-.2.1-1.1,0-1.4-.2-.7.1-.5-.6-.7a21.28,21.28,0,0,1-2.7-.8,6.62,6.62,0,0,1-2.2-1.5,15.58,15.58,0,0,0-2-1.6c-.8-.6-1.9-.7-2.6-1.2-1-.7-.2-1.5.7-1.7a7.74,7.74,0,0,1,3,.2,9.89,9.89,0,0,1,3.3,1.1,7.33,7.33,0,0,0,3.2,1.2,13.35,13.35,0,0,0,0-2c0-.4.3-1.7.1-1.9s-1.2-.4-1.5-.6a8.12,8.12,0,0,1-4.1-4.8,14.72,14.72,0,0,1-.4-3.6,8.75,8.75,0,0,1,.2-1.6,1.88,1.88,0,0,0,.2-.8c0-.2.7-1.8.7-2.2s-.3-.5-.4-.7a4.24,4.24,0,0,1-.6-1.9c-.1-.6-.1-2.4,1-2s.6,2.2.9,3,.7,1.4.9,2c.3,1.3-.6,2-.9,3.2-.4,1.9-.2,4.6,1.1,6a8.26,8.26,0,0,0,2.8,2.1c.5.2,1.5.2,1.9.4.6.4.5,1,.3,1.7a8.77,8.77,0,0,0-.2,3.6c.2,1.2-.2,1.8-1.4,1.8a7.83,7.83,0,0,1-2.6-.4c-1.5-.5-2.9-1.6-4.4-1.9.4.6,1.2.9,1.7,1.4a10.15,10.15,0,0,0,2.7,1.9c1.5.6,3.8-.9,4.1,1.5a7.57,7.57,0,0,1-.1,1.5c0,.4.2.8.1,1.2a2.82,2.82,0,0,1-2,1.5,7.39,7.39,0,0,1-2.9-.5c-1.1-.3-2.1-.4-3.2-.6a11.4,11.4,0,0,1-5.1-2,14.29,14.29,0,0,1-3.5-3c-.5-.7-.7-1.6-1.2-2.3s-.3-1-.5-1.8a9.3,9.3,0,0,1-.5-2.4c0-1-.1-1.9-.1-2.9a20.85,20.85,0,0,1,0-2.5,17.2,17.2,0,0,1,.2-3.2c.4-1.9.4-3.7,1.2-5.6a21.15,21.15,0,0,1,6.5-8.4c3.2-2.5,8-3.8,11.9-4.4,3.2-.5,6.4.1,9.6.6a14.21,14.21,0,0,1,5.2,1.9,25.14,25.14,0,0,1,4.1,3.2c2.7,3,4.9,7.1,5,11.2a41.55,41.55,0,0,1,.3,6.1c-.2,2.2-.4,4.4-.8,6.6a10.19,10.19,0,0,1-2.3,4.5c-1,1.3-2.2,3-3.6,3.7a14.8,14.8,0,0,1-4.1,1.7c-.8.2-1.9-.1-1.6-1.2.2-.7,1.4-1,2-1.3a27.18,27.18,0,0,0,2.5-1.1A9.52,9.52,0,0,0,38,34c1-1.2,2.3-2.2,2.8-3.8a40.83,40.83,0,0,0,1.3-10.5,28.91,28.91,0,0,0-.8-5.9c-.3-1.1-.8-2-1.2-3.1a21.41,21.41,0,0,0-1.3-1.9,14.07,14.07,0,0,0-9.7-6.5,29.05,29.05,0,0,0-12.8.6c-3.9,1.2-7.6,3-10.3,6.2a18.9,18.9,0,0,0-3.1,5.3,21.05,21.05,0,0,0-1,6.1A48.47,48.47,0,0,0,2,27.09Z"/><path d="M29.44,10.59a2.49,2.49,0,0,1,1.7-2.1,2.07,2.07,0,0,1,2.7.6c.9.9.5,2.2.5,3.3s.8,1.8,1.2,2.7a10.42,10.42,0,0,1,.7,6.7,6.33,6.33,0,0,1-1.5,3.2,7.15,7.15,0,0,1-3.3,1.8c.2.8.6,1.4.8,2.3s.4,1.7.5,2.5a14.77,14.77,0,0,0,.1,2.1c.1.7.5,1.5.2,2.1a1.15,1.15,0,0,1-1.4.5c-.7-.3-.7-1.1-.8-1.8a45.73,45.73,0,0,0-.5-5.2,5.63,5.63,0,0,0-.7-1.8c-.3-.4-1.4-1-1.3-1.5s1.2-.5,1.6-.5a2.84,2.84,0,0,0,1.7-.7c2.4-1.4,3.3-3.9,2.9-6.7a10.55,10.55,0,0,0-.6-2.4,3,3,0,0,0-.4-1c-.2-.3-.6-.4-.9-.7a1.7,1.7,0,0,1-.3-1.8c.1-.5.7-1.9.4-2.4s-.8,0-1.3.4c-.3.2-.3.5-.7.6h-.6c-.2.1-.3.3-.5.4a4.12,4.12,0,0,1-2.2.1,30.6,30.6,0,0,0-8,0,19.67,19.67,0,0,1-2.4.3c-1.1,0-.7-.3-1.3-.9-.5-.4-1.3-.6-1.8-1s-1.4-.9-.9-1.5,1.6.3,2.1.6c.3.2.7.4,1,.6s.5.6.8.7c.7.2,1.6-.3,2.3-.4C22.34,9.39,26.44,8.89,29.44,10.59Z"/></g></g></g></g></svg>