<svg xmlns="http://www.w3.org/2000/svg" viewBox="0 0 85.8 64.5"><path d="M66.8 20.6c1.5-2.2 4-2.6 5.8-0.8 2.4 2.3 4.1 5.2 5.1 8.3 0.9 2.5 0.2 4.8-1.7 6.7 -2.7 2.7-5.8 3.9-9.6 2.4 -2.4-0.9-4.1-2.5-4.8-4.9 -1.1-3.5-0.4-6.7 2.4-9.3 0.5-0.5 1.3-0.8 2-1 0.6-0.2 1.2-0.1 1.4 0.7 -0.6 0.3-1.2 0.5-1.8 0.8 -3.7 1.8-3.9 6.9-2.5 9.4 1.6 2.9 5.4 4.3 8.1 3.5 2.1-0.6 3.9-1.9 5-3.9 0.9-1.5 0.9-3.2 0.2-4.8 -0.9-2-1.7-3.9-3-5.7 -2-2.8-3.4-3.1-6.4-1.4C67.1 20.6 67 20.6 66.8 20.6z"/><path d="M43.6 46.9c-2 1.2-3.3 2.7-4.3 4.5 -1.5 3-1.7 6 0.1 8.9 1.1 1.9 3 2.7 5.1 3.1 1.1 0.2 2.4 0.2 3.5-0.1 4.2-0.8 6.7-6.3 6.2-10.1 -0.4-3.6-3.3-6.9-7.2-7.4 -1.2-0.1-2.4-0.2-3.7-0.3 0.5-0.4 1.1-0.6 1.7-0.6 2.9 0 5.6 0.6 7.7 2.8 0.9 1 1.7 2.4 2.1 3.8 0.7 2.4 0.8 4.8-0.4 7.1 -1.3 2.6-2.9 5-6.1 5.7 -4.4 1-10.7-1.3-11-7.5 -0.2-3.8 1.1-6.7 4-9.1C41.8 47.3 42.4 46.8 43.6 46.9z"/><path d="M6.2 41.5c0-2.4 0.9-4.6 2.4-6.4 0.5-0.6 1.4-1 2.2-1.1 4.8-0.7 8.5 3.5 8 8 -0.2 1.5-0.5 2.8-1.3 4.1 -1.7 2.7-7.7 3.5-10-0.2C6.7 44.5 6.2 43.2 6.2 41.5zM7.4 41.7c0 0.3 0 0.5 0 0.8 0.2 2.2 1.3 3.7 3.4 4.5 2 0.7 3.9 0.4 5.5-1.1 2.9-2.8 2-9-2.5-10.7 -1.8-0.7-3.4-0.2-4.6 1.4C8.1 38 7.4 39.7 7.4 41.7z"/><path d="M20 17.2c0.4 3-2.5 6.6-5.8 6.5 -3.1-0.1-5.6-1.3-6.5-4.9 -0.6-2.3 0.1-4 1.6-5.6 0.4-0.4 1-0.6 1.5-0.9 0.5-0.3 1.1-0.5 1.5-0.8 0.6-0.5 1.2-0.5 1.8-0.3 1.2 0.5 2.3 1.1 3.5 1.7C19.4 13.9 20.2 15.4 20 17.2zM11.5 13.4c-2.2 0.8-3.3 2.9-2.7 5.4 0.6 2.7 2.7 4.1 5.7 3.8 2.5-0.2 4.2-2.3 4.4-4.9 0.1-1.1 0.1-2.3-0.9-3.2 -1.5-1.4-3.1-2.2-5.2-2.2 0 0.7 0.7 1.5-0.1 2C11.9 14.6 12 13.6 11.5 13.4z"/><path d="M68.4 48.2c0.3-0.3 0.5-0.6 0.7-0.6 1.9-0.2 4.1 1.5 4.3 3.5 0.1 1.2 0.2 2.4 0.2 3.7 0 1.9-1 3.2-2.5 4.3 -0.8 0.5-1.5 0.5-2.3 0.1 -2.1-1.3-3.8-3-5.3-4.9 -0.2-0.2-0.2-0.5-0.3-0.7 -1.2-3.2 2.3-7.5 4.7-7.7 0.6 0 0.9 0 1.2 0.6 -0.1 0.1-0.2 0.3-0.3 0.3 -1.2 0-2 0.5-2.8 1.4 -1 1.2-1.9 2.4-2 4 0 0.6 0.2 1.3 0.6 1.8 0.9 1.1 2 2.1 3 3.1 0.3 0.3 0.7 0.5 1 0.8 1 0.9 1.3 0.9 2.3 0 1.6-1.5 1.6-3.4 1.6-5.4 0-1.7-0.8-2.8-2.2-3.5C69.9 48.5 69.2 48.4 68.4 48.2z"/><path d="M43.2 2.2c1-1.4 2.1-1.7 3.3-1.8 2.3-0.1 5.2 1.8 6.1 3.9 1.1 2.6 0.1 7.3-2 9.2 -1.4 1.2-3 1.2-4.6 0.6 -0.9-0.4-1.8-1-2.4-1.8 -1.4-1.9-2.1-4.1-1.4-6.5C42.8 4 44 3.4 45.8 4.2c-0.3 0.2-0.6 0.3-0.9 0.4 -1.1 0.3-1.7 1.1-1.8 2.1 -0.2 2.3 0.5 4.3 2.2 5.8 2.2 2 4.9 1.2 6.1-1.7 0.7-1.8 0.9-3.7 0.6-5.6 -0.3-1.7-2.4-3.5-4.2-3.8 -1-0.1-2-0.2-3 0.4C44.4 2 44 2.1 43.2 2.2z"/><path d="M1.4 13c-0.3-0.5-0.5-1.2 0.1-1.5 0.3-0.2 1 0 1.4 0.3 0.6 0.4 1.2 1 1.7 1.5C5.4 14 5.5 15.1 5 15.9c-0.7 1.2-2.5 1.9-3.8 1.4 -1-0.4-1.3-0.9-1.2-2.4 0.3 0.3 0.6 0.6 0.8 0.8 0.6 0.7 1.4 0.8 2.2 0.5 1.2-0.5 1.4-1.3 0.6-2.3C2.9 13 2.7 12.9 1.4 13z"/><path d="M27.2 22.8c-0.1 0.5-0.1 0.8-0.2 1 0 0.3 0 0.5 0 0.8 1.5 0.4 1.5 0.4 2.6-0.6 -0.4-1.6-0.4-1.6-2.8-2.3 0.2-0.8 0.8-0.9 1.4-0.7 1 0.3 1.9 0.7 2.3 1.8 0.6 1.6-0.3 3-2 3.1 -0.4 0-0.8 0-1.1 0 -0.7 0-1.3-0.4-1.4-1.1C25.8 23.9 26 23.2 27.2 22.8z"/><path d="M41 29.9c0.5 0.5 0.8 0.9 1.2 1.3 0.3-0.4 0.6-0.6 0.6-0.9 0.1-0.5 0.3-1.3 0.1-1.5 -0.4-0.4-1.1-0.5-1.7-0.5 -0.8 0-1.6 0.3-2.8 0.6 0.4-0.5 0.5-0.8 0.7-0.9 1.2-0.7 2.4-0.8 3.7-0.5 1.2 0.3 1.7 1.1 1.3 2.3 -0.1 0.3-0.2 0.6-0.3 0.9 -0.4 0.9-1.1 1.4-1.8 1.3C41.3 31.8 41.1 31.5 41 29.9z"/><path d="M50.5 21.5c0.3 0.9 0.4 1.5 0.7 1.9 0.2 0.4 0.7 0.7 1.1 0.7 0.4 0 0.8-0.4 1.1-0.8 0.3-0.4 0.2-0.9-0.4-1.1 -0.3-0.1-0.6-0.3-1.1-0.4 0.5-0.9 1.2-0.7 1.9-0.5 0.7 0.2 1.1 0.9 1.1 1.6 0.1 0.7-0.9 1.9-1.7 2.2 -1 0.4-2.1 0.2-2.6-0.5C50 23.7 49.8 22.8 50.5 21.5z"/><path d="M54.7 39.2c-1.1 0-1.6-0.3-1.6-1.1 -0.1-1.2 0.8-2.7 1.7-2.7 1.1-0.1 2 0.8 2 1.9C56.8 38.3 55.9 39.2 54.7 39.2zM54.8 36.5c-0.4 0.5-0.8 1-0.2 1.5 0.1 0.1 0.6-0.1 0.8-0.3C55.8 37.1 55.6 36.7 54.8 36.5z"/><path d="M20.8 50c0.1-0.8 0-1.5 0.1-2.1 0.1-0.6 0.3-1.2 0.5-1.9 1.1-0.5 1.8 0.2 2.4 1 0.5 0.7 0.5 1.5 0 2.1C23.2 50 22.2 50.4 20.8 50zM21.9 46.8c0 0.8-0.1 1.4-0.1 1.9 0.7 0.2 1 0.1 1.2-0.4C23.2 47.6 22.8 47.2 21.9 46.8z"/><path d="M85.8 55.3c-0.5 0.5-1 1.2-1.7 1.7 -0.8 0.5-1.4 0.3-2-0.4 -0.5-0.6-0.6-1.7-0.2-2.4 0.4-0.7 1.1-0.9 1.8-0.7C84.5 53.7 85.4 53.8 85.8 55.3zM83.1 54.2c-0.5 1.2-0.5 1.8 0.1 2 0.5 0.2 1.1-0.2 1.2-0.8C84.5 54.4 83.8 54.3 83.1 54.2z"/><path d="M35.5 14.2c-0.7-0.4-1.1-0.7-1.6-0.9 1.2-0.6 1.6-0.5 2 0.1 0.5 0.7 0.4 1.6-0.3 2.3 -0.6 0.7-1.6 0.9-2.3 0.4 -0.8-0.5-1-1.4-0.6-2.6 0.2 0.3 0.3 0.4 0.5 0.6 0.3 0.4 0.6 1 0.9 1C34.5 15.1 34.9 14.6 35.5 14.2z"/><path d="M39 39.3C38.9 39.4 39 39.2 39 39.3c0.8 0.1 1.8 0 2.3 0.5 0.5 0.4 0.1 1.2-0.3 1.7 -0.6 0.8-1.3 1.3-2.3 1.1 -0.6-0.1-0.8-0.6-0.5-1.2C38.4 40.7 38.7 40.1 39 39.3zM39 41.6c0.7-0.2 1.1-0.5 1-1.2C39.3 40.5 38.9 40.7 39 41.6z"/></svg>
