<svg xmlns="http://www.w3.org/2000/svg" viewBox="0 0 239.7 254.3"><path d="M239.7 63.8c-0.4 0.6-0.8 1.3-1.3 1.8 -1.4 1.4-2.9 2.8-4.3 4.1 -2.4 2.2-4.8 4.5-7.4 6.5 -1.3 1-2.4 2.3-3.6 3.4 -1.3 1.3-2.9 2.4-4.2 3.7 -1.2 1.2-2.7 2.2-3.7 3.5 -0.5 0.7-1.4 1.1-2.1 1.7 -0.9 0.8-1.8 1.7-2.8 2.6 0.3 0.3 0.6 0.7 0.9 0.9 1.1 1.1 2.3 2.1 3.4 3.1 1.6 1.5 3.1 2.9 4.6 4.5 2.8 2.8 5.5 5.6 8.3 8.4 0.6 0.6 1.2 1.2 1.8 1.9 0.2 0.2 0.2 0.6 0.3 0.9 -0.1 0.1-0.2 0.1-0.3 0.2 -0.3-0.2-0.6-0.3-0.8-0.6 -1.1-1.2-2.1-2.5-3.2-3.8 -0.1-0.2-0.4-0.2-0.5-0.3 -1.2-1.1-2.3-2.2-3.5-3.3 -1.4-1.3-2.8-2.6-4.2-3.9 -0.6-0.6-1-1.2-1.5-1.8 -0.1-0.2-0.2-0.4-0.4-0.5 -1.4-1.2-2.8-2.4-4.3-3.6 -0.5-0.4-1-0.7-1.5-1.1 -1.8 1.6-3.5 3-5.2 4.5 -1.3 1.2-2.6 2.5-3.9 3.8 -0.6 0.7-0.6 1.1 0 1.6 1.4 1.3 2.9 2.6 4.2 3.9 2.2 2.2 4.4 4.5 6.7 6.7 0.9 0.9 2 1.7 2.9 2.5 0.5 0.5 0.5 0.9-0.2 1.3 -0.2-0.1-0.4-0.2-0.6-0.4 -1.7-1.7-3.4-3.4-5.1-5.1 -1.3-1.3-2.7-2.4-4-3.7 -1.1-1.1-2.1-2.4-3.3-3.5 -0.6-0.6-1.5-1-2.3-1.6 -1.2 1-2.3 2-3.5 3 -0.3 0.2-0.6 0.5-0.8 0.7 -0.6 0.6-0.6 1.1 0 1.8 2.2 2.6 4.4 5.1 6.5 7.8 0.4 0.5 0.9 1.1 0.3 2.1 -2.8-3.3-5-6.9-8.1-9.7 -1.4 0.5-7.8 6.1-11.8 10.5 0.4 1.4 1.7 2.3 2.6 3.4 0.9 1.1 1.8 2.2 2.7 3.4 0.2 0.3 0.2 0.9 0.4 1.5 -0.9-0.1-1.2-0.6-1.5-1.1 -0.9-1.5-2-2.9-3.4-4.1 -0.2-0.2-0.4-0.5-0.6-0.8 -0.4-0.4-0.8-0.8-1.2-1.3 -2.1 1.8-4.3 3.3-5.9 5.7 0.4 0.5 0.8 1.2 1.3 1.8 0.7 1 1.4 2 2 3.1 0.4 0.7 0.3 0.8-0.8 1.3 -0.7-2.1-2.1-3.8-3.7-5.4 -0.5 0.4-0.9 0.6-1.2 0.9 -1.3 1.3-2.6 2.6-4 4 -0.2 0.2-0.4 0.5-0.6 0.5 -1.4 0.5-1.8 2.1-2.9 2.9 -0.2 0.1-0.3 0.7-0.2 1 0.4 0.8 0.8 1.5 1.3 2.2 0.1 0.1 0.3 0.3 0.2 0.4 -0.1 0.4-0.1 0.9-0.3 1.1 -0.5 0.4-0.8 0-0.9-0.5 -0.2-1-0.8-1.7-1.6-2.5 -0.4 0.2-0.8 0.4-1 0.7 -1.4 1.4-3 2.6-4.4 4.2 -0.7 0.8-0.8 1 0 1.9 0.6 0.7 1.2 1.3 0.9 2.5 -1.2-0.5-1.4-1.7-2.3-2.5 -0.6 0.1-1.1 0.5-1.5 0.9 -1.4 1.4-2.9 2.7-4.3 4 -0.7 0.7-1.4 1.4-2 2.2 -0.4 0.5 0 1 0.3 1.4 1.2 1.4 2.4 2.9 3.6 4.3 1.6 1.9 3.1 3.8 4.7 5.8 1.6 2 3.2 3.9 4.7 5.9 1 1.3 1.8 2.8 2.6 4.3 0.2 0.3 0.2 0.7 0.1 1.1 0 0.2-0.4 0.5-0.5 0.4 -0.3 0-0.7-0.3-0.7-0.5 0.2-1.5-0.9-2.5-1.7-3.5 -2.2-2.9-4.5-5.7-6.7-8.6 -1.2-1.5-2.3-3-3.5-4.4 -1.4-1.6-2.8-3.1-4.3-4.7 -0.2 0.3-0.5 0.6-0.8 0.9 -1.8 1.8-3.6 3.6-5.4 5.3 -1.9 1.9-3.9 3.7-5.8 5.5 -0.6 0.6-1.1 1.2-1.6 1.8 -0.4 0.5-0.1 0.9 0.2 1.3 0.9 1.1 1.8 2.3 2.7 3.4 3.2 4 6.5 8 9 12.6 0.2 0.4 0.4 0.8 0.5 1.1 -0.6 0.3-1 0.2-1.1-0.3 -0.4-1.9-1.8-3.2-2.9-4.7 -1.3-1.8-2.8-3.5-4.3-5.2 -0.6-0.8-1.2-1.6-1.9-2.4 -1.1-1.4-2.3-2.9-3.5-4.4 -1.7 1.8-3.4 3.4-5.1 5.1 0.6 0.8 1.1 1.6 1.7 2.3 2.4 3.2 4.7 6.5 7.3 9.6 2.3 2.8 4.2 5.8 6.2 8.8 0.7 1.1 1.2 2.4 1.8 3.6 0.2 0.3 0.1 0.8 0.2 1.2 -0.8 0.2-1-0.2-1.1-0.8 -0.2-1.1-0.6-2.1-1.5-2.9 -0.2-0.1-0.2-0.4-0.3-0.5 -0.5-0.8-1.2-1.7-1.6-2.5 -1.6-3-4-5.4-5.9-8.2 -1.8-2.7-4-5-6-7.5 -0.5-0.6-1-1.2-1.6-1.9 -0.6 0.5-1 0.9-1.4 1.3 -1.7 1.8-3.3 3.6-5 5.4 -1.5 1.6-3 3.1-4.4 4.7 -1.1 1.1-1.1 1.2-0.1 2.4 2.5 2.9 5 5.8 7.4 8.7 1.2 1.4 2.4 2.9 3.5 4.4 0.3 0.3 0.4 0.8 0.7 1.4 -1.1 0-1.6-0.5-1.8-1.1 -0.2-0.7-0.6-1.1-1.2-1.4 -0.3-0.2-0.5-0.5-0.8-0.8 -2.2-2.7-4.5-5.3-6.7-8 -0.7-0.8-1.5-1.6-2.3-2.4 -0.9-0.9-1.3-0.8-2.1 0.2 -1.1 1.4-2.3 2.7-3.5 4.1 0.2 0.3 0.3 0.7 0.6 1.1 1.7 2.1 3.6 4.2 5.2 6.3 1.6 2 3 4.1 4.5 6.2 0.8 1.1 1.6 2.2 2.3 3.3 0.8 1.2 1.5 2.4 2.3 3.6 0.3 0.5 0.2 0.8-0.3 1.7 -0.5-0.9-0.8-1.7-1.3-2.5 -1.6-2.4-3.3-4.8-5-7.2 -2.2-2.9-4.6-5.8-6.9-8.7 -0.7-0.9-1.5-1.7-2.4-2.6 -0.8 0.8-1.6 1.5-2.3 2.2 -1.8 2-3.6 4.1-5.5 6.1 -1.2 1.3-1.3 1.6-0.2 2.9 1.9 2.2 3.8 4.3 5.5 6.5 2.1 2.5 4.1 5.1 5.7 8 0.2 0.3 0.5 0.6 0.7 0.9 0.2 0.3 0.2 0.7 0.3 1.1 -0.1 0.1-0.2 0.1-0.3 0.2 -0.3-0.2-0.6-0.4-0.8-0.6 -0.3-0.5-0.4-1-0.6-1.5 -0.3-0.8-0.7-1.4-1.4-1.9 -1-0.8-1.7-2-2.5-3.1 -0.8-1-1.6-2.1-2.4-3.1 -1-1.2-2.1-2.4-3.2-3.6 -0.4-0.4-0.7-0.8-1-1.2 -0.5-0.6-1.1-1.1-1.9-2 -0.3 0.5-0.5 0.9-0.8 1.2 -2.9 3.4-5.9 6.7-8.8 10 -0.5 0.6-0.6 1.1-0.2 1.7 0.4 0.6 0.9 1.2 1.4 1.8 2.6 3.1 5.2 6.3 7.8 9.4 2.1 2.5 4.1 4.9 6.1 7.5 2 2.5 3.9 5 5.9 7.5 2.7 3.4 5.4 6.8 8.1 10.3 0.3 0.4 0.3 1 0.5 1.5l0 0c-0.8-1-1.6-2.1-2.5-3.1 -1.6-1.9-3.2-3.7-4.7-5.6 -1.2-1.4-2.2-2.9-3.4-4.3 -0.4-0.5-1-1-1.4-1.5 -0.5-0.6-1-1.3-1.4-1.9 -0.3-0.4-0.5-0.9-0.8-1.2 -2.4-2.1-4-4.7-6-7.1 -1.9-2.2-3.7-4.4-5.6-6.6 -1.5-1.7-2.9-3.4-4.4-5.2 -0.3-0.4-0.7-0.6-1.1-1.1 -1.7 2-3.5 3.7-5.7 5.4 0.2-1.8 1.4-2.5 2.2-3.5 0.8-1 1.7-1.9 2.7-2.9 -1.8-2.3-3.7-4.5-5.8-6.7 -4.3 5.1-8.3 10.4-12.6 15.3 -0.1-0.1-0.2-0.1-0.3-0.2 0.3-0.6 0.4-1.2 0.8-1.7 1.8-2.4 3.6-4.7 5.5-7.1 1.7-2.2 3.4-4.3 5.1-6.5 0.5-0.6 0.7-1.2 0.1-1.9 -2.6-2.9-5.2-5.7-7.8-8.6 -0.2-0.2-0.4-0.4-0.6-0.6 -0.4-0.5-0.9-0.4-1.2 0 -0.9 1.2-1.9 2.3-2.8 3.5 -1.5 2-3 4.1-4.9 5.7 -0.5 0.4-0.5 0.4-1.5 0.3 0-0.6 0.1-1.1 0.7-1.5 1.9-1.3 3-3.4 4.5-5.1 0.7-0.8 1.4-1.8 2.1-2.7 0.4-0.5 0.7-1 1-1.4 0.4-0.5 0.4-1 0-1.4 -1.6-1.7-3.2-3.5-5-5.3 -0.7 0.8-1.4 1.4-2 2.1 -2.5 3.1-4.9 6.2-7.3 9.3 -1.9 2.5-4 4.8-5.6 7.6 -0.1 0.1-0.2 0.3-0.3 0.4 -1.5 1.3-2.3 3.2-3.5 4.6 -0.4 0.5-1 1-1.5 1.4 -0.2 0.2-0.6 0.1-0.9 0.2 -0.1-1.8 1-2.8 1.9-3.8 1.1-1.3 2.3-2.6 3.3-3.9 1.5-1.9 2.9-3.9 4.4-5.8 2.6-3.4 5.2-6.7 7.8-10 0.5-0.6 1-1.2 1.4-1.8 0.4-0.5 0.8-1.1 1.2-1.7 -2.1-2.1-4.1-4.1-6.1-6 -1.8 1.6-2.2 4.3-4.5 5.3 -0.5-0.7-0.2-1.2 0.2-1.7 0.9-1.3 1.8-2.5 2.8-3.8 0.5-0.6 0.5-1.1-0.1-1.7 -1.8-1.9-3.6-3.8-5.5-5.7 -0.7-0.7-0.9-0.7-1.6 0.1 -0.4 0.5-0.7 1-1.1 1.5 -1.8 2.3-3.6 4.6-5.4 6.8 0 0-0.1 0.1-0.1 0.1 -0.7 0.7-1.3 0.9-1.6 0.5 -0.4-0.6-0.2-1.1 0.3-1.6 1.4-1.6 2.7-3.2 4.1-4.7 1.2-1.4 2.4-2.9 3.7-4.4 -1.6-1.9-3.4-3.5-5.3-5.1 -1.2 1.6-2.3 3-3.4 4.4 -0.5 0.6-0.9 1.2-1.4 1.8 -0.4 0.6-0.9 0.4-1.5 0.1 1.3-2.8 3.6-4.9 5.1-7.6 -1.6-1.6-3-3-4.5-4.5 -0.5-0.5-1.1-1-1.6-1.6 -0.7-0.8-1.4-1.3-2.5-0.6 -0.2-0.4-0.6-0.8-0.5-1.1 0.3-1-0.4-1.5-0.9-2 -3.8-3.7-7.6-7.3-11.6-10.7 -3-2.7-5.9-5.5-8.9-8.2 -1.5-1.4-3-2.7-4.5-4.1 -1.5-1.3-2.9-2.7-4.3-4.1 -0.1-0.1-0.1-0.4-0.3-0.8 1.2 0.3 2.2 0.6 3 1.4 1.9 1.8 3.8 3.6 5.8 5.4 1.5 1.4 3.1 2.8 4.7 4.2 0.2 0.2 0.4 0.4 0.6 0.6 0.9 1 1.1 0.9 1.9-0.2 0.9-1.2 1.8-2.3 3.3-2.7 0.2-0.1 0.4-0.2 0.5-0.3 1.2-1.4 2.4-2.9 3.7-4.5 -1-0.8-2-1.7-3-2.5 -0.4 0.4-0.7 0.6-1 1 -1.6 1.8-3.1 3.7-4.7 5.5 -0.4 0.5-0.9 0.9-1.7 0.2 2-2.6 4-5.1 6.1-7.7 -1.2-1.1-2.1-2.1-3.2-3 -4.1-3.3-8.2-6.6-12.1-10.1 -0.9-0.8-2.1-1.3-2.4-2.8 0.3-0.4 0.5-0.8 1.2-0.2 3 2.7 6.1 5.5 9.1 8.2 0.7 0.6 1.5 1 2.2 1.6 1.5 1.3 3 2.6 4.5 3.9 0.4 0.4 1 0.7 1.4 0.9 1.1-0.7 9.9-11.1 11.6-13.6 -4-3.9-7.9-7.7-11.9-11.6 0.3-0.7 0.8-0.5 1.1-0.3 1.3 1 2.6 2.1 3.8 3.2 1.8 1.7 3.6 3.4 5.4 5.1 0.5 0.4 1 0.9 1.4 1.3 1 1 1.2 1 2.2-0.1 0.2-0.2 0.3-0.4 0.6-0.8 -1.3-1.1-2.6-2.3-3.9-3.3 -4.8-3.9-9.7-7.7-14.5-11.6 -1.2-0.9-2.2-2-3.3-3.1 -0.3-0.3-0.6-0.8-0.1-1.1 0.3-0.2 0.9 0 1.1 0.2 1.5 1.3 3 2.6 4.5 3.9 1.4 1.2 2.9 2.4 4.3 3.6 2.7 2.2 5.3 4.3 8 6.5 0.2 0.2 0.4 0.4 0.6 0.5 0.8 0.5 1.2 0.5 1.8-0.2 2.2-2.5 4.5-4.9 6.7-7.4 2.3-2.6 4.5-5.3 6.9-8 -0.6-0.6-1.1-1.3-1.8-1.9 -3.1-2.8-6.3-5.5-9.5-8.2 -2.6-2.2-5.2-4.4-7.8-6.7 -0.3-0.3-0.5-0.6-0.9-1 1.1-0.4 1.7 0.3 2.4 0.6 0.4 0.2 0.7 0.5 1 0.8 2.4 2.1 4.8 4.2 7.3 6.3 2.4 2 4.7 4 7.1 6.1 1.1 0.9 2.2 1.9 3.4 2.9 1.4-1.6 2.7-3.1 4-4.7 -0.9-0.9-1.7-1.8-2.5-2.6 -4.1-3.7-8.3-7.3-12.5-11 -2.6-2.3-5.2-4.4-7.8-6.7 -1.1-1-2-2.3-3-3.5 0.7-0.9 1.3-0.5 1.7 0 2 2.5 4.4 4.3 6.8 6.3 1.8 1.5 3.4 3.1 5.1 4.7 1.6 1.4 3.1 2.7 4.7 4.1 2.3 2.1 4.6 4.1 7 6.2 0.5 0.4 1 0.8 1.6 1.2 4.7-5 9.3-9.9 14.1-14.9 -1.1-1-2.1-2-3.2-3.1 -4.1 3.7-7.5 7.9-11.1 11.8 -0.8-0.4-1.3-0.8-0.6-1.6 0.6-0.8 1.2-1.7 1.9-2.4 2.6-2.8 5.2-5.5 7.9-8.3 0.2-0.2 0.3-0.4 0.6-0.8 -3.1-3.1-6.6-5.8-9.6-8.9 -3-3.1-6.6-5.4-9.4-9 0.8-0.2 1.2 0.1 1.6 0.4 0.8 0.6 1.6 1.2 2.4 1.9 0.9 0.8 1.8 1.7 2.7 2.5 2.8 2.6 5.7 5.2 8.5 7.8 1.6 1.4 3.1 2.9 4.8 4.5 2.2-1.7 3.8-3.9 6.3-5.6 -0.5-0.3-0.8-0.4-1-0.6 -3-2.5-6.1-4.9-9.1-7.3 -1.9-1.5-3.7-3.2-5.5-4.8 -0.4-0.4-1-0.5-1.5-0.9 -1.9-1.5-3.7-3-5.5-4.4 -1.4-1.1-2.9-2.2-4.4-3.3 -0.4-0.3-0.8-0.6-0.5-1.2 0.2 0 0.4 0 0.6 0.1 1.7 1.2 3.5 2.4 5.1 3.6 1.8 1.4 3.6 2.8 5.4 4.2 1.4 1.1 2.9 2.2 4.3 3.3 2.4 1.9 4.7 3.8 7.1 5.8 1.8 1.5 3.6 2.9 5.3 4.4 0.1 0.1 0.3 0.1 0.5 0.2 2.7-2.8 5.7-5.1 8.3-8.1 -5.4-5.5-11.7-9.8-17.2-15.2 0.4-0.7 0.9-0.6 1.4-0.2 3.2 2.7 6.4 5.3 9.6 8 1.5 1.3 3 2.6 4.4 4 0.8 0.7 1.6 1.5 2.6 2.4 1.5-1.2 2.6-2.8 4-4.1 1.4-1.3 2.6-2.6 3.8-4.2 -1-0.9-2-1.8-2.9-2.7 -2.6-2.4-5.2-4.8-7.9-7.1 -5-4.3-10.1-8.4-15.2-12.6 -1.2-1-2.2-2-3.3-3 -0.2-0.2-0.2-0.4-0.4-0.7 0.8-0.7 1.3-0.2 1.9 0.3 1.4 1.2 2.9 2.5 4.3 3.7 2.1 1.8 4.3 3.5 6.4 5.3 2.1 1.8 4.2 3.7 6.3 5.5 3.3 2.8 6.5 5.6 9.8 8.4 0.4 0.4 0.8 0.9 1.3 1.2 0.5 0.3 1.1 0.6 1.7 0.9 0.5 1.9 2.5 2.5 3.8 4 2.1-2 4.1-3.9 6.2-5.8 -1.1-1.1-2.2-2.2-3.2-3.2 -1.1-1.1-2.2-2.3-3.3-3.5 -1.1-1.1-2.2-2.1-3.4-3.1 -0.8-0.7-1.6-1.4-2.4-2.1 -2.2-2-4.5-3.9-6.5-6 -1.7-1.7-3.2-3.6-4.7-5.4 -0.2-0.2-0.2-0.5-0.1-0.9 8.2 7.7 16.4 15.4 24.7 23.2 3.7-3.5 7.4-7 11.1-10.5 -0.2-0.3-0.3-0.7-0.6-0.9 -2.3-2.1-4.5-4.1-6.8-6.2 -4.6-4.1-9.2-8.2-13.8-12.4 -1.1-1-2.2-2-3.3-3.1 -0.9-1-1.7-2.1-1.3-3.6 0.9-0.1 1.3 0.2 1.5 1 0.1 0.5 0.3 1 0.6 1.4 1.4 1.4 2.7 2.7 4.2 4 3.5 3.1 7 6.2 10.4 9.4 3.2 2.9 6.3 5.8 9.5 8.7 0.2 0.2 0.5 0.3 0.8 0.4 0.9-0.7 1.7-1.5 2.6-2.3 -1.2-1-2.2-1.9-3.3-2.7 -0.6-0.4-1.1-1.3-2.1-0.7 -0.1 0.1-0.4-0.1-0.6-0.3 -1.6-1.1-3.4-2-4.7-3.6 -0.9-1.1-2.1-1.9-3.2-2.9 -0.4-0.3-0.8-0.6-1-1 -0.1-0.3 0-0.7 0.1-1 0.1-0.2 0.6-0.2 0.9-0.1 0.6 0.3 1.1 0.6 1.6 1 3.3 2.4 6.6 4.8 9.8 7.3 1.1 0.8 2.1 1.8 3.3 2.8 2.9-2.6 5.7-5.1 8.7-7.8 -3.1-2.6-6.2-5.1-9.3-7.7 1.1-0.2 1.6-0.1 2.5 0.6 1.2 0.9 2.4 1.9 3.6 2.9 1.3 1.1 2.6 2.2 4 3.4 1.6-1.3 3.3-2.5 4.9-3.7 0.1 0.1 0.2 0.2 0.3 0.3 -0.6 0.7-1.2 1.5-1.9 2.2 -0.7 0.7-1.5 1.3-2.4 2.1 0.5 0.4 0.9 0.7 1.4 1.2 1.9-0.9 2.8-3 5-4.2 -0.9 2.2-3 3.3-3.8 5.3 1.8 1.6 3.5 3.2 5.4 4.8 2.8-2.4 5.4-4.8 9-6.5 -0.5 1.6-1.9 1.8-2.6 2.6 -0.8 0.9-1.9 1.5-2.7 2.5 -0.7 0.8-1.8 1.3-2.9 2.1 0.7 0.6 1.2 1.1 1.8 1.6 3.3 3 6.6 6 9.9 9 0.2 0.2 0.4 0.4 0.6 0.6 1.1 1.1 1.1 1.1 2.3 0.1 0.1-0.1 0.3-0.2 0.4-0.2 0.5-0.2 1.1-0.4 1.9-0.6 -0.8 1.2-1.6 1.8-2.8 2.4 0.4 0.5 0.6 0.9 0.9 1.2 1.5 1.3 3 2.6 4.5 4 2.6 2.4 5.1 4.9 7.7 7.3 1.4 1.3 2.8 2.6 4.3 3.9 0.4 0.4 1 0.4 1.7 0.7 -0.5 1.4 1 1.7 1.7 2.5 0.5 0.6 1.3 1 1.8 1.6 0.7 0.8 1.4 1 2.7 0.5 -0.8 1.5 0.2 2.2 1 2.9 2 1.9 4 3.7 6.1 5.5 2.9 2.6 5.8 5.3 8.8 8 0.4-0.2 0.8-0.5 1.2-0.7 2.2-1.7 4.5-3.3 6.7-5 0.7-0.5 1.3-1.1 2.1-1.5 1.5-0.9 3.1-1.6 4.9-2.5 0.2 0.6 0.6 1.1 0.5 1.4 -0.2 0.5-0.7 0.5-1.3 0.4 -0.8-0.1-1.8 0.5-2.5 1 -1.8 1.2-3.5 2.6-5.3 3.9 -0.7 0.5-1.3 1.1-2 1.6 -1 0.8-2.1 1.7-3.2 2.6 1.2 1.1 2.2 2.2 3.3 3.2 1.2 1.1 2.4 2.1 3.5 3.3 0.8 0.8 1.6 1.5 3.2 0.8 -0.9 1.4-0.4 2.1 0.4 2.7 1.1 0.9 2.1 1.9 3.2 2.9 -0.1 0.4-0.2 0.8-0.2 1.1 -0.5-0.4-1-0.7-1.5-1.1 -1.1-1-2.3-2.1-3.3-3.1 -1.1 0.8-2.1 1.6-3.1 2.3 -0.3 0.2-0.4 0.5-0.7 0.7 -1.3 1.3-2.7 2.6-4 3.9 -0.7 0.8-1.9 1.3-1.9 2.3 2.7 2.6 5.3 5 8 7.5 3.5-2.9 6.7-5.8 9.9-8.9 -0.4-0.4-0.6-0.6-0.8-0.8 -0.9-0.9-1.7-1.9-2.6-2.8 0.8-0.3 1.5 0.1 2 0.6 0.8 0.7 1.6 1.4 2.4 2.2 1.1-1 2.1-1.9 3.2-2.8 1.9-1.6 3.7-3.2 5.5-4.9 2-1.8 4-3.7 6-5.5 1.3-1.2 2.8-2.1 4-3.4 1.5-1.5 3.4-2.5 4.7-4.3 0.5-0.6 1.2-1.1 1.8-1.6 1.3-1.2 2.5-2.3 3.8-3.4C238.9 64 239.3 64 239.7 63.8L239.7 63.8zM124.6 156.1c4.8-4.7 9.2-9.5 13.8-14.2 -3.4-3.7-6.7-7.3-10-10.9 -4.9 4.5-9.3 9.3-13.9 14C117.8 148.7 121.1 152.3 124.6 156.1zM108 151.9c-1.3 1.3-2.5 2.4-3.5 3.5 -1.5 1.7-2.9 3.4-4.4 5.1 -1.2 1.4-2.6 2.7-3.8 4.1 -1.1 1.2-1.1 1.4 0.1 2.6 0.1 0.2 0.3 0.3 0.5 0.4 2.6 2.6 5.2 5.3 7.8 7.9 0.2 0.3 0.6 0.4 1 0.7 4.1-4.5 8.2-8.9 12.3-13.4C114.6 159.1 111.4 155.5 108 151.9zM189.4 73.2c-0.3-0.3-0.4-0.5-0.6-0.7 -1.4-1.3-2.9-2.6-4.3-3.9 -3.3-3-6.6-6.1-10-9.1 -0.4-0.3-0.9-0.5-1.4-0.8 -0.7-0.4-1.3-0.1-1.8 0.4 -0.9 1-1.7 2-3 2.5 -0.3 0.1-0.6 0.5-0.8 0.7 -0.7 0.7-1.3 1.5-2.2 2 -0.8 0.5-1.2 1-1.3 1.9 3 2.4 5.2 5.4 8.2 7.7 1.7-0.9 2.7-2.7 4.7-2.8 0.3 1.1-0.4 1.3-1.1 1.6 -1.2 0.5-1.9 1.5-2.7 2.5 2.3 2 4.1 4.3 6.5 6C183 78.6 186.1 75.9 189.4 73.2zM152.4 47.8c0.2 0.4 0.3 0.6 0.3 0.7 -0.9 0.7-1.2 2.1-2.4 2.7 -0.8 0.4-0.8 1-0.2 1.5 2 1.9 4 3.8 6.1 5.7 0.1 0.1 0.4 0.2 0.5 0.3 3.1-2.4 6.2-4.7 9.3-7 -1.2-1.8-15.9-15.2-17.6-16.1 -1.1 1.3-2.9 2-4.1 3.4 -1.2 1.4-2.8 2.4-4.2 3.6 0.2 0.6 0.4 1.1 0.5 1.3 0.8 0.5 1.4 0.8 1.9 1.2 1.4 1.3 2.7 2.7 4 4 0.5 0.5 1 0.9 1.6 1.4 0.5 0.4 0.9 0.5 1.4-0.1C150.3 49.6 151.3 48.8 152.4 47.8zM85.1 115c4.7-4.9 9.2-9.6 13.9-14.4 -1.9-2.4-4.3-4.1-6.2-6.3 -0.6-0.7-1.3-1.3-2.1-2 -4.6 5.1-9.1 10-13.7 14.9C79.7 109.9 82.3 112.3 85.1 115zM78.8 121.3c-2.5-2.4-4.9-5-7.5-7.3 -1.8 1.4-12.6 14.1-13.6 16 2.6 2.3 4.9 4.8 7.7 6.8C68.3 134 78.1 122.7 78.8 121.3zM89.1 194.9c-0.7-0.7-1.3-1.4-1.9-2.1 -2.4-2.5-4.9-5-7.4-7.4 -0.7-0.7-0.9-0.6-1.5 0.1 -0.8 1-1.7 2.1-2.5 3.1 -1.8 2.2-3.6 4.4-5.4 6.6 -0.7 0.8-0.6 1.3 0.1 2.1 2.5 2.7 5 5.5 7.5 8.2 0.4 0.4 0.8 0.7 1.4 1.2C82.6 202.8 85.8 198.9 89.1 194.9zM171.8 108.5c3.7-4.2 7.8-7.5 11.4-11.5 -3.3-2.9-5.5-6.5-9-9.1 -4 3.5-7.9 7-11.9 10.6C165.5 101.8 168.6 105.1 171.8 108.5zM113 114.8c-0.7 0.7-1.2 1.3-1.8 1.9 -2.2 2.1-3.8 4.6-6.3 6.5 -0.1 0.1-0.3 0.2-0.4 0.3 -1.2 1.9-2.8 3.4-4.4 4.9 -0.6 0.6-0.7 0.9 0 1.6 1 1.2 2.1 2.3 3.2 3.4 1.1 1.1 2.2 2.1 3.4 3.3 2.3-2.5 4.5-4.9 6.8-7.2 2.3-2.3 4.6-4.6 6.9-7.1C118 119.9 115.6 117.5 113 114.8zM62.6 105.8c-2.2-2-4.2-3.8-6.2-5.6 -0.6-0.5-1-0.3-1.5 0.2 -4.1 4.5-8.3 9-12.5 13.5 -0.5 0.5-0.9 1.1-1.5 1.8 2.6 2 4.7 4.3 7.5 6.1C53.2 116.5 57.8 111.2 62.6 105.8zM80.1 183.4c0.7 1.3 9 9.6 10.1 10.2 2.8-3.1 5.5-6.2 8.3-9.4 0.6-0.6 0.3-1.1-0.2-1.7 -1.7-1.8-3.2-3.7-4.9-5.5 -1.3-1.4-2.8-2.8-4.2-4.2C86.2 176.3 83.2 179.8 80.1 183.4zM87.3 158c0.3-0.5 0.4-0.7 0.6-1 1-1.2 1.9-2.5 3-3.6 2.6-2.8 5.4-5.6 8-8.4 0.5-0.5 0.8-1.1 1.2-1.7 -2.2-2.6-4.3-5.1-6.9-7.2 -4.3 5.1-8.8 9.8-13 15C82.6 153.4 84.8 155.6 87.3 158zM134.7 47.8c-3.8 3.7-7.5 7.3-11.3 11.1 2.9 2.8 5.6 5.5 8.5 8.3 3.8-3.6 7.6-7.2 11.5-10.9C140.5 53.1 137.5 50.6 134.7 47.8zM138.2 30.5c0.2 1.1-0.3 1.6-0.9 1.9 -1.7 1-2.9 2.4-4.3 3.8 2.1 1.9 4.1 3.8 6.1 5.7 2.9-2.5 5.7-4.9 8.6-7.3 -4.4-4-8.8-8-13-11.9 -1.7 0.4-2.3 2.2-3.9 2.5 -0.1 0-0.2 0.3-0.3 0.4 -0.4 0.5-0.7 1-1.2 1.4 -0.8 0.7-1.7 1.3-2.5 2 -0.8 0.6-0.8 1-0.1 1.7 1.6 1.5 3.3 2.9 5 4.3C134.1 33.6 135.5 31.2 138.2 30.5zM56.3 128.8c4.6-5.4 9.1-10.7 13.7-16.1 -2.2-2-4.2-3.8-6.3-5.8 -2.5 2.8-4.8 5.4-7.1 8.1 -2.3 2.6-4.7 5.2-7.1 8.1C51.8 125 54 126.8 56.3 128.8zM154.5 90.2c0.9-0.9 1.6-1.8 2.4-2.6 2.8-2.5 5.6-5 8.4-7.4 0.3-0.3 0.5-0.6 0.8-1 -2.7-2.8-5.3-5.6-8-8.4 -0.6 1.3-2.1 1.3-2.9 2.7 -0.6 1.1-1.9 1.8-2.9 2.7 -1 0.9-2 2-3.1 2.8 -1.1 0.8-2 1.8-2.9 2.9C149.1 84.7 151.7 87.4 154.5 90.2zM139.3 143.2c-4.6 4.7-9.1 9.2-13.6 13.9 1.7 2.7 4 4.8 6 7.2 0.8-0.8 1.4-1.5 2.1-2.2 3.6-3.6 7.3-7.3 10.9-10.9 1-1 1-1.1 0-2.1 -1.6-1.8-3.2-3.6-4.8-5.4C139.8 143.6 139.7 143.5 139.3 143.2zM61.9 93.2c2.2 2.1 4.4 4.1 6.6 6.2 4.6-5 9.3-9.9 14-15 -2.1-1.9-4.1-3.9-6.3-5.9C71.5 83.3 66.8 88.2 61.9 93.2zM172.7 109.5c2.4 2.7 4.8 5.2 7.2 7.9 3.9-3.9 8.2-7.2 11.8-11.1 -2.5-2.7-4.9-5.3-7.4-8C180.3 102 176.5 105.5 172.7 109.5zM155.7 124.5c3-3 5.8-5.8 8.7-8.8 -3.2-3.5-6.3-6.8-9.5-10.3 -3 2.9-5.9 5.6-8.8 8.5 2.9 3.3 5.6 6.5 8.5 9.7C154.8 123.9 155.2 124.1 155.7 124.5zM139.2 140.9c1.8-1.2 3-2.9 4.3-4.3 1.4-1.5 3.2-2.5 4-4.2 -0.9-1-1.5-1.7-2.2-2.4 -0.3-0.3-0.6-0.5-0.8-0.8 -1-1.2-2-2.3-3-3.5 -0.1-0.2-0.3-0.3-0.4-0.4 -0.5-0.5-1.1-0.9-1.6-1.4 -0.6-0.6-1.1-1.2-1.8-2 -2.9 2.7-5.9 5-8.3 8.1C132.5 133.8 136 137.2 139.2 140.9zM79.2 150c1.3-1.6 2.5-3.2 3.8-4.7 2.8-3.1 5.6-6.2 8.4-9.3 0.7-0.8 0.8-1.1 0-1.9 -1.5-1.6-3-3.1-4.5-4.6 -0.2-0.2-0.5-0.2-0.7-0.3 -2.1 1.6-12.7 13.5-13.4 15C74.9 146 76.9 147.9 79.2 150zM44.3 126.7c-2.2-2.1-4.3-4.1-6.4-6.1 -0.4-0.3-0.8-0.3-1.2 0 -0.2 0.2-0.5 0.5-0.7 0.7 -2.4 2.7-4.8 5.5-7.2 8.2 -1.1 1.2-2.2 2.4-3.4 3.8 2.5 2.2 5 4.3 7.5 6.5C36.7 135.4 40.4 131.1 44.3 126.7zM52.9 135.1c-0.5 0.6-0.8 1.1-1.2 1.5 -2.2 2.6-4.4 5.3-6.6 7.9 -0.7 0.8-1.4 1.6-2 2.4 -0.6 0.9-0.5 1.4 0.3 2.1 1.4 1.2 2.7 2.4 4.1 3.6 0.8 0.7 1.5 1.4 2.4 2.2 3.6-4.2 7.1-8.1 10.4-12.1C57.8 140.2 55.5 137.8 52.9 135.1zM76 106.2c4.5-5.2 9.1-9.9 13.5-15.1 -1.9-1.8-3.8-3.6-5.8-5.6 -4.7 5-9.3 9.9-14 14.9C71.8 102.3 73.7 104.2 76 106.2zM98.2 128.1c1.6-1.5 3-2.8 4.2-4.1 2.8-3 5.6-6.1 8.4-9.1 0.9-1 1-1.2 0.1-2.2 -1-1.1-2-2.1-3-3.1 -0.5-0.5-1.1-0.9-1.8-1.5 -1.3 1.3-2.5 2.4-3.6 3.6 -3.1 3.3-6.2 6.6-9.4 9.9 -0.6 0.6-0.4 1 0.1 1.5 0.6 0.6 1.1 1.2 1.7 1.7C96 125.9 97.1 127 98.2 128.1zM113.4 143.9c4.7-4.8 9.2-9.4 13.8-14.1 -2-2-3.6-4.2-5.7-6 -4.9 4.5-9.1 9.3-13.7 14.1C109.7 139.9 111.4 141.8 113.4 143.9zM118.8 164.2c-4 4.6-8.3 8.7-12.1 13.2 1.4 2.2 5.1 5.9 6.5 6.5 1-1.1 2-2.3 3-3.5 2.6-2.8 5.2-5.5 7.7-8.2 0.9-1 0.9-1.1 0-2.1 -1.2-1.4-2.5-2.9-3.7-4.3C119.8 165.2 119.4 164.8 118.8 164.2zM189.4 91.3c3.3-3.1 6.5-6.1 9.8-9.2 -1.4-1.4-2.8-2.6-4.2-3.9 -1.3-1.3-2.7-2.6-4.2-4 -0.4 0.2-0.9 0.3-1.4 0.7 -0.9 0.7-1.8 1.4-2.5 2.2 -0.8 0.9-1.9 1.3-2.7 2.2 -1 1.2-2.3 2.1-3.4 3C183.7 85.2 186.4 88.1 189.4 91.3zM94.2 164.8c2.3-2.5 4.4-4.7 6.4-7.1 2-2.4 4.5-4.4 6.3-7 -1.8-2-3.3-4.1-5.6-5.8 -4.3 4.7-8.9 9.1-13 14.1C90.2 160.9 92.1 162.7 94.2 164.8zM41.3 147c0.9-1.1 1.5-1.9 2.2-2.7 1.4-1.7 2.8-3.4 4.2-5.1 1.2-1.4 2.4-2.8 3.5-4.2 0.4-0.5 0.5-1 0-1.4 -1.4-1.4-2.7-2.7-4.1-4.1 -0.6-0.5-1.2-1-1.8-1.5 -0.7 0.7-1.4 1.2-1.9 1.8 -1.1 1.2-2.1 2.6-3.1 3.8 -1.8 2.1-3.8 4.1-5.6 6.2 -0.2 0.3-0.3 0.6-0.6 1C36.5 142.8 38.8 144.8 41.3 147zM85.3 127.8c-0.4-0.5-0.7-0.9-1.1-1.2 -0.9-0.9-1.8-1.8-2.7-2.7 -1.1-1.1-1.1-1.2-2.2 0 -4 4.4-8 8.8-12 13.2 -0.2 0.3-0.4 0.6-0.7 1 1.7 1.6 3.3 3.1 5.1 4.8C76.2 137.8 80.7 132.8 85.3 127.8zM107.6 75c2.5 2.5 5 4.9 7.5 7.4 0.8 0.8 0.9 0.7 1.7 0 1.2-1.3 2.5-2.5 3.8-3.7 1.3-1.3 2.5-2.6 3.8-3.9 -3-2.8-5.7-5.5-8.5-8.1C114.5 67.3 108.4 73.6 107.6 75zM91.3 121.1c4.7-4.9 9.2-9.7 13.8-14.5 -1.8-1.7-3.3-3.3-5.1-5 -4.2 5.3-9.5 9.3-13.6 14.6C88 117.9 89.6 119.4 91.3 121.1zM155.3 91.1c2.1 2.2 4 4.2 6 6.2 0.4-0.2 0.7-0.4 0.9-0.6 3.4-3 6.8-6 10.2-9.1 0.3-0.3 0.5-0.8 0.8-1.2 -2-2.1-3.7-4.3-6.1-6C163.2 83.9 159.4 87.4 155.3 91.1zM57.5 161.9c2.4 2.2 4.6 4.3 6.9 6.4 3.2-4 6.4-8 9.5-11.9 -1.8-2.3-5.2-5.6-6.4-6.3C64.2 153.9 61 157.8 57.5 161.9zM75 157.4c-3.5 3.9-6.5 7.9-9.6 12 2.2 2.1 4.3 4.2 6.4 6.2 0.4-0.3 0.6-0.5 0.8-0.7 2.8-3.3 5.5-6.5 8.3-9.8 0.5-0.6 0.4-1.1 0-1.6 -0.5-0.5-0.9-1-1.4-1.5C78.1 160.5 76.6 159.1 75 157.4zM90.2 195.9c-0.5 0.6-0.9 1-1.2 1.4 -1.3 1.5-2.5 3.1-3.8 4.6 -1.5 1.8-3 3.6-4.6 5.4 -0.6 0.6-0.4 1.1 0.1 1.7 0.9 1 1.6 2 2.5 3 0.8 0.9 1.7 1.8 2.6 2.7 0.3-0.2 0.5-0.4 0.7-0.6 1-1.2 1.9-2.3 2.9-3.5 2.1-2.4 4.2-4.8 6.3-7.1 0.5-0.6 0.5-1 0-1.5 -1.2-1.3-2.4-2.6-3.6-3.9C91.6 197.3 91 196.7 90.2 195.9zM138.8 74.3c4.1-3.7 8-7.1 11.9-10.5 -1.5-2.1-5.6-5.9-6.6-6.2 -3.9 3.4-7.4 7.2-11.1 10.8C135 70.4 136.9 72.3 138.8 74.3zM146.8 97c-1.8-1.9-3.4-3.5-5-5.2 -0.7-0.7-1.5-1.4-2.2-2.1 -0.5-0.5-1-0.6-1.6-0.1 -2.4 2.3-4.7 4.7-7.1 7 -0.8 0.8-0.7 0.9 0 1.7 1.5 1.6 3.1 3.2 4.6 4.7 0.8 0.8 1.7 1.6 2.5 2.4C141 102.6 143.9 99.8 146.8 97zM33.2 158.9c1.1 1 2 1.9 2.8 2.7 0.9 0.9 1.8 1.8 2.8 2.7 1.7 1.7 1.7 1.7 3.3-0.1 0.1-0.1 0.2-0.2 0.3-0.4 1.9-2.3 3.8-4.6 5.7-7 0.9-1.1 0.8-1.2-0.2-2.1 -2.1-1.8-4.2-3.7-6.4-5.7C38.2 151.9 36.1 155.6 33.2 158.9zM127.6 41c-2.2 2.1-4.2 4.1-6.2 5.9 -1.4 1.4-2.9 2.7-4.4 4 -0.3 0.3-0.5 0.8-0.8 1.2 2.4 1.7 4 4 6.2 5.5 3.8-3.7 7.6-7.2 11.4-10.8C131.7 44.9 129.7 43 127.6 41zM56.7 162.9c-1 1.3-1.9 2.3-2.8 3.4 -1.2 1.5-2.5 2.9-3.7 4.4 -0.5 0.6-1 1.2-1.5 1.9 -0.6 0.8-0.3 1.4 0.3 2 0.6 0.6 1.1 1.1 1.7 1.7 1.3 1.3 2.6 2.6 3.9 3.9 0.3-0.2 0.5-0.2 0.6-0.3 2.6-3.2 5.1-6.4 7.7-9.7 0.4-0.5 0.3-1-0.2-1.4 -0.8-0.8-1.6-1.6-2.4-2.3C59.2 165.3 58 164.2 56.7 162.9zM154.3 125.4c-2.4-3.7-5.9-6.4-8.5-9.9 -0.2-0.3-0.6-0.3-1-0.5 -2.1 1.9-4.1 3.8-6.2 5.7 0.2 0.3 0.2 0.6 0.4 0.8 1.3 1.4 2.7 2.8 4 4.2 0.8 0.8 1.7 1.6 2.3 2.5 0.8 1.3 1.9 2.4 3.4 3.3C150.3 129.4 152.8 127.9 154.3 125.4zM156.5 125.8c2.2 2.5 4 5.3 6.3 7.7 3.1-3 6.1-5.9 9.2-8.9 -0.5-0.6-0.8-1.1-1.2-1.5 -1.5-1.7-2.9-3.4-4.4-5.1 -0.9-1.1-1.2-1.2-2.1-0.2C161.8 120.4 159.2 123 156.5 125.8zM71 176.6c-2-1.9-3.9-3.8-5.9-5.6 -0.5-0.5-1.1-0.4-1.6 0.3 -0.4 0.5-0.7 1.1-1 1.6 -1.1 1.8-2.9 3.1-4 5 -0.5 0.9-1.3 1.6-1.9 2.4 -0.7 0.9-0.7 1.1 0 1.9 1.5 1.6 3 3.2 4.5 4.8 0.2 0.3 0.6 0.4 0.9 0.6C65 184 67.9 180.5 71 176.6zM16.5 143c0.2 0.3 0.4 0.6 0.6 0.8 2.2 2 4.3 4 6.5 6 0.7 0.6 1 0.5 1.6-0.3 1.5-2 3-4.1 4.5-6.1 0.7-0.9 1.5-1.8 2.3-2.7 -1.4-1.4-2.7-2.6-4-3.8 -0.9-0.8-1.9-1.4-2.8-2.1 -0.4-0.3-0.9-0.4-1.3 0 -0.5 0.5-1 1.1-1.5 1.6C20.6 138.8 18.8 141 16.5 143zM106.2 191.3c-2.1-2.3-4-4.4-6.1-6.7 -3 3.5-6.3 6.5-9 10.4 2 2.2 3.9 4.3 6 6.5C100.3 198 103.2 194.6 106.2 191.3zM109.4 45.5c1.6 1.6 3.2 3.2 4.7 4.7 0.5 0.5 1 0.6 1.5 0.1 0.3-0.3 0.6-0.5 0.9-0.7 1.9-1.8 3.8-3.6 5.7-5.4 1.4-1.3 2.7-2.7 4.1-4.2 -1.8-1.8-3.6-3.5-5.5-5.3C117 38 113.3 41.8 109.4 45.5zM114 113.7c2.6 2.7 5 5.2 7.5 7.8 2.8-2.7 5.5-5.2 7.9-8 -0.9-0.9-1.6-1.7-2.3-2.4 -1.6-1.6-3.2-3.1-4.9-4.7 -0.2-0.2-0.8-0.3-1-0.2 -0.6 0.4-1.3 0.8-1.7 1.4 -1.1 1.8-2.8 3.1-4.2 4.6C115 112.8 114.5 113.2 114 113.7zM68.6 195.1c0.5-0.5 0.8-0.8 1.1-1.2 2-2.4 4-4.8 5.9-7.2 0.6-0.7 1.2-1.4 1.7-2.1 0.7-1.1 0.7-1.3-0.2-2.2 -1.2-1.2-2.5-2.4-3.7-3.6 -1-1-1.3-1-2.2 0 -0.3 0.3-0.5 0.6-0.7 0.9 -1.2 1.5-2.5 2.9-3.7 4.4 -1.2 1.5-2.4 3.1-3.6 4.8C64.9 191 66.6 193 68.6 195.1zM152 64.8c-0.6 0.3-1.1 0.5-1.5 0.8 -1.1 1-2.1 2.1-3.1 3.1 -1.5 1.4-3.1 2.8-4.6 4.2 -0.9 0.8-1.7 1.6-2.7 2.5 1.8 1.9 3.1 4.1 5.4 5.3 2.8-2.2 11-9.9 11.5-11C155.3 68.1 153.6 66.4 152 64.8zM82.8 165.5c-0.3 0.2-0.6 0.3-0.8 0.5 -2.8 3.3-5.6 6.6-8.4 9.9 -0.5 0.6-0.5 1 0 1.5 1.4 1.4 2.8 2.8 4.2 4.2 0.9 0.9 1.2 0.9 2.1-0.1 1-1.2 1.9-2.3 2.9-3.5 1.6-1.9 3.2-3.8 4.8-5.6 0.4-0.4 0.7-0.8 0.2-1.4C86.2 169.1 84.5 167.3 82.8 165.5zM108 91.1c2.4-2.4 4.6-4.7 6.9-7.1 -2.9-2.8-5.7-5.5-8.5-8.3 -2.4 2.5-4.7 4.9-7.1 7.4C102.1 85.8 104.9 88.4 108 91.1zM98.1 84.1c-1.1 1.3-2.1 2.4-3.2 3.6 -1.1 1.2-2.1 2.3-3.3 3.6 2.7 2.8 5.4 5.4 8.2 8.2 2.4-2.3 4.7-4.7 7.1-7.3 -0.7-0.7-1.3-1.4-2-2.1C102.8 88.1 100.5 86.2 98.1 84.1zM56.4 160.9c3.4-4.2 6.9-8 10.2-12.2 -1.7-1.7-3.4-3.3-5-5 -0.4 0.3-0.6 0.5-0.8 0.8 -1.7 1.9-3.4 3.9-5.1 5.8 -1.3 1.5-2.6 3-3.8 4.5 -0.5 0.6-0.7 1.1 0 1.7C53.3 157.9 54.7 159.3 56.4 160.9zM140.4 142.1c2.2 2.5 4 5 6.4 7 2.9-2.6 5.5-5.2 8.2-8.1 -1.2-1.3-2.3-2.5-3.3-3.7 -1-1.2-1.8-2.6-3.3-3.4C145.7 136.7 143.1 139.3 140.4 142.1zM25.1 151.1c2.1 2 4.2 4 6.5 6.1 2.7-3.4 5.3-6.6 8-9.9 -2.4-1.8-4.1-4.1-6.6-5.6 -1.4 1.6-2.6 3.1-3.8 4.6C27.9 147.9 26.6 149.4 25.1 151.1zM71.2 73.8c-3.4 2.9-13.5 13.7-14.1 15.1 0.9 0.8 1.7 1.6 2.7 2.4 0.9 0.7 1.1 0.7 1.9-0.2 0.9-1 1.8-2 2.7-3 3-3.1 6-6.1 9-9.1 1.6-1.6 1.6-1.6 0-3.2 -0.3-0.3-0.5-0.6-0.8-0.8C72.2 74.6 71.8 74.2 71.2 73.8zM39.8 114.6c5-5.4 9.8-10.7 14.7-16 -1.3-1.2-2.3-2.5-3.8-3.2 -0.3 0.3-0.6 0.5-0.9 0.8 -1.8 2-3.5 4-5.3 6 -2.5 2.8-5.1 5.5-7.6 8.3 -0.5 0.6-0.5 1 0.1 1.6C37.9 113 38.8 113.7 39.8 114.6zM155.8 104.4c3.1 3.6 6.2 6.9 9.5 10.4 1.7-2.1 4-3.4 5.4-5.6 -3.1-3.3-5.9-6.8-9.4-9.7C159.4 101.2 157.7 102.7 155.8 104.4zM139.1 106.6c2.1 2.3 3.9 4.3 5.8 6.4 0.4-0.5 0.6-0.8 0.8-1 2.3-2.2 4.7-4.4 7-6.6 0.9-0.8 1-1.5 0.2-2.1 -1.6-1.1-2.7-2.7-4.2-4 -0.3-0.3-0.7-0.5-1.1-0.8C144.9 101.1 142.1 103.8 139.1 106.6zM130.5 112.5c0.5-0.4 0.9-0.7 1.3-1 1.4-1.4 2.8-2.8 4.3-4.1 0.9-0.9 0.9-1.1 0-2.1 -1.5-1.5-3-3.1-4.5-4.6 -0.7-0.7-1.5-1.4-2.4-2.2 -2.2 2.2-4.4 4.4-6.5 6.5C125.2 107.6 127.8 109.9 130.5 112.5zM118.9 161.9c1.6-1.7 3.2-3.3 4.7-5 -2-1.9-3.3-4-5.2-5.7 -1.2-1.1-2.3-2.3-3.2-3.6 -0.5-0.8-1.1-1.2-1.9-1.5 -1.4 1.5-2.8 3-4.2 4.4 0.2 0.4 0.2 0.8 0.4 1C112.6 155 115.7 158.4 118.9 161.9zM46.9 172.2c2-1.7 8-9.3 8.4-10.6 -1.7-1.5-3.4-3-5.2-4.6 -0.6 0.6-1 0.9-1.4 1.4 -1.1 1.3-2.1 2.7-3.2 4 -1 1.2-2 2.4-2.9 3.6 -0.7 1-0.8 1.2 0.1 2.1C44 169.5 45.5 170.8 46.9 172.2zM115.3 29.5c-1.3 0.2-1.7 1.3-2.4 2 -1.9 2-4 3.9-5.9 5.8 -1 1-1.9 2.1-2.9 3.1 1.5 1.4 2.8 2.6 4.2 4 3.8-3.6 7.5-7.1 11.4-10.7C118.2 32.2 116.7 30.9 115.3 29.5zM128.2 128.8c1.5-1.4 3-2.6 4.3-4.1 1.3-1.4 2.9-2.5 3.9-4.3 -1.9-1.9-3.7-3.8-5.7-5.7 -2.8 2.7-5.4 5.3-8.1 8C124.5 124.8 126.2 126.7 128.2 128.8zM94.3 167c-1.4 1.4-2.7 2.8-4.1 4.4 3.1 3.8 6.4 7.3 9.9 11.1 1.6-1.8 3-3.4 4.5-5C101.2 173.7 98 170.3 94.3 167zM106.2 73.7c2.6-2.5 5.1-5 7.6-7.4 0.3-0.2 0.4-0.6 0.6-1 -2-1.7-3.7-3.8-5.8-5.3 -2.7 2.8-5.6 5.3-8.1 8.4C102.4 70.1 104.2 71.9 106.2 73.7zM99.4 66.9c2.7-2.7 5.3-5.4 8-8.1 -1.6-1.5-3.1-2.9-4.6-4.3 -1.2-1.1-1.3-1.2-2.5-0.1 -1.8 1.6-3.4 3.4-5.2 5.1 -0.6 0.6-1.2 1.2-1.9 1.9 1.8 1.7 3.5 3.3 5.2 4.9C98.7 66.4 99 66.6 99.4 66.9zM128.9 96.2c1.4-0.8 8-7.5 8.7-8.7 -1.4-1.3-2.9-2.7-4.4-4.1 -0.8-0.8-1-0.8-1.9 0 -1.8 1.6-3.5 3.3-5.3 5 -0.8 0.8-1.6 1.6-2.4 2.4C125.5 92.6 127.2 94.4 128.9 96.2zM116.9 65.3c0.9 1.4 7.8 7.8 8.7 8.2 1.7-1.8 3.4-3.5 5.2-5.4 -2.9-2.8-5.6-5.5-8.4-8.2 -1.1 1-2 1.8-2.9 2.6C118.6 63.5 117.8 64.4 116.9 65.3zM122.5 89.6c1.5-1.4 3-2.8 4.3-4.2 1.3-1.4 3.1-2.5 4.2-4.3 -1.8-1.8-3.6-3.4-5.5-5.2 -2.8 2.8-5.6 5.6-8.5 8.4C118.9 86.1 120.6 87.7 122.5 89.6zM92.2 62.3c-2.8 2.5-5.2 5.2-7.8 7.8 2.2 1.9 4.3 3.7 6.5 5.5 2.5-2.6 4.9-5.1 7.4-7.8C96.2 66.1 94.3 64.3 92.2 62.3zM113.1 113c0.3-0.5 0.4-0.8 0.6-1 1.9-2 3.7-4 5.6-5.9 1.2-1.2 1.2-1.5-0.1-2.6 -1-0.9-2-1.9-3.1-2.9 -0.5-0.4-0.9-0.9-1.4-1.3 -2.5 2.6-5 5-7.4 7.6C109.2 108.9 111 110.7 113.1 113zM153.1 90.9c-0.1-0.1-0.1-0.5-0.3-0.7 -1.4-1.4-2.8-2.7-4.2-4 -0.7-0.7-1.5-1.3-1.9-2.1 -0.4-0.7-0.9-1-1.7-1 -1.7 1.6-3.4 3.2-5.2 5 0.4 0.5 0.7 0.9 1.1 1.3 1.3 1.3 2.7 2.6 4 4 1 1 2 1.9 2.8 2.7C149.6 94.2 151.3 92.6 153.1 90.9zM157.4 59.8c2 1.8 3.7 3.3 5.5 5 3-2.8 6.2-5 9.2-7.7 -1.5-1.4-2.9-2.6-4.3-3.8 -1.1-0.9-1.1-0.8-2.2 0.2 -0.2 0.2-0.5 0.3-0.8 0.5C162.3 55.9 159.9 57.7 157.4 59.8zM155.7 126.6c-2.1 2.1-4.1 4.1-6.2 6.2 2.1 2.4 4.1 4.9 6.2 7.4 2.2-1.8 4.2-3.8 6.2-6C159.8 131.6 157.8 129.2 155.7 126.6zM92 76.8c2.2 1.9 4.1 3.6 6.1 5.4 2.4-2.5 4.7-4.9 7.1-7.3 -1.8-2.1-3.8-3.8-5.7-5.7C96.9 71.7 94.4 74 92 76.8zM172.1 110.5c-2.9 2.1-4.8 4-5.5 5.8 2.2 2.5 4.3 5 6.5 7.5 2-1.9 3.9-3.7 5.9-5.6C176.7 115.6 174.4 113.1 172.1 110.5zM36.1 118.9c-1.2-1.1-2-2.3-3.5-3 -3.8 4.5-7.8 8.9-11.4 13.7 1.1 0.9 2.1 1.7 3.2 2.7C28.3 127.8 32.2 123.4 36.1 118.9zM133.5 21.6c-2.3-1.4-3.6-3.5-5.7-4.7 -2.8 2.6-5.4 5-7.9 7.8 1.8 1.5 3.4 2.9 5 4.3C127.8 26.6 130.5 24.2 133.5 21.6zM83.5 83.4c2.2-2.3 4.3-4.4 6.4-6.6 -2.1-1.9-4.2-3.7-6.5-5.6 -2.1 2.1-4.2 4.2-6.4 6.4C79.2 79.4 81.3 81.3 83.5 83.4zM84.6 84.5c2.1 2 4 3.8 5.9 5.7 2.2-2.4 4.3-4.6 6.5-7 -0.5-0.6-1-1.1-1.6-1.7 -0.7-0.6-1.3-1.2-2-1.8 -0.8-0.6-1.6-1.2-2.4-1.9C88.8 80.1 86.8 82.3 84.6 84.5zM108.2 93.2c-1.3 1.4-2.5 2.6-3.7 3.9 -1.2 1.2-2.4 2.4-3.5 3.6 1.7 1.8 3.3 3.4 5.1 5.2 2.5-2.5 4.9-5 7.5-7.7C111.8 96.5 110.1 94.9 108.2 93.2zM121.5 103.9c2.3-2.3 4.4-4.4 6.7-6.7 -1.7-2.1-3.6-3.7-5.6-5.4 -2.5 2-4.5 4.3-6.9 6.6C117.7 100.3 119.5 102.1 121.5 103.9zM143.9 113.7c-2-2.3-3.7-4.4-5.9-6.1 -2.2 2.1-4.3 4.1-6.4 6.2 2 2 3.9 3.9 5.9 6C139.7 117.7 141.8 115.8 143.9 113.7zM175.2 87c2.9 3.3 6 6 8.8 9.2 1.6-1 2.7-2.4 4-3.6 0.5-0.4 0.3-0.9-0.2-1.4 -1.8-1.7-3.6-3.5-5.4-5.2 -0.9-0.9-1.8-1.7-2.8-2.7C178.2 84.6 176.8 85.7 175.2 87zM197.8 101c-1.5-1.5-2.9-2.8-4.3-4.2 -0.9-0.9-1.8-1.8-2.8-2.7 -0.5-0.4-1-1-1.7-0.4 -1.3 1.2-2.5 2.4-3.8 3.7 0.2 0.3 0.4 0.6 0.5 0.8 1.9 2.2 3.8 4.5 5.8 6.7 0.3 0.3 0.8 0.5 1.2 0.7C194.5 104 196.1 102.5 197.8 101zM121.5 90.5c-0.6-0.5-1-0.8-1.4-1.2 -1.1-1.1-2.1-2.2-3.2-3.2 -0.8-0.7-1.1-0.7-1.9 0.1 -0.5 0.5-1 1-1.5 1.5 -1.4 1.4-2.9 2.9-4.4 4.5 1.9 1.7 3.7 3.4 5.6 5.1C117 95 119.1 92.8 121.5 90.5zM108.5 57.7c1.8-1.7 3.3-3.3 4.9-4.9 0.6-0.6 0.5-1.1 0-1.7 -0.6-0.6-1.2-1.2-1.9-1.8 -1-1-2-1.9-3-2.9 -0.8 0.6-1.5 1-2 1.5 -1.1 1.1-2.1 2.3-3.1 3.4 -0.3 0.3-0.5 0.6-0.8 1C104.5 54.2 106.5 55.9 108.5 57.7zM79.9 120.4c1.1-1.1 2.2-2.1 3.2-3.2 1-1.1 1-1.3-0.1-2.4 -1.5-1.5-3.1-2.9-4.7-4.4 -0.7-0.7-1.4-1.4-2.2-2.1 -1.3 1.4-2.4 2.6-3.6 3.9 -0.4 0.4-0.3 0.8 0.1 1.2C75 115.7 77.4 118 79.9 120.4zM101.4 142.5c0.8-0.9 1.5-1.6 2.2-2.4 0.7-0.8 1.4-1.6 2.3-2.5 -2.5-2.4-5-4.7-7.5-7.1 -1.1 1.2-2.2 2.4-3.4 3.7 -0.5 0.6-0.4 1 0.1 1.5C97.1 138 99.2 140.2 101.4 142.5zM109.5 58.9c2.2 1.9 4.1 3.6 6.1 5.3 1.9-1.8 3.7-3.6 5.7-5.5 -2-1.9-3.9-3.8-6-5.8C113.3 55 111.4 56.9 109.5 58.9zM124.7 158.2c-1.5 1.6-3 3.1-4.4 4.6 -0.2 0.2 0 0.8 0.2 1.1 0.4 0.7 1 1.2 1.5 1.8 1.2 1.4 2.5 2.8 3.8 4.4 1.3-1.3 2.5-2.5 3.7-3.7 1.2-1.2 1.2-1.6 0.1-2.8 -0.9-1-1.9-2.1-2.8-3.1C126.2 159.8 125.5 159.1 124.7 158.2zM149 97.2c0.2 0.4 0.3 0.5 0.4 0.6 1.5 1.6 3 3.2 4.5 4.7 0.6 0.6 1.1 0.7 1.8 0 1.3-1.1 2.5-2.3 3.7-3.5 0.3-0.3 0.5-0.7 0.7-1 -2-2-3.8-4-5.8-6C152.6 93.9 150.8 95.5 149 97.2zM105.7 178.5c-1.4 1.5-2.6 2.8-3.7 4 -0.9 1-0.9 1.1 0 2.2 1 1.2 2 2.4 3 3.6 0.6 0.7 1.4 1.3 2.1 2 1.6-1.9 3.4-3.3 4.8-5.3C109.8 182.7 107.8 180.7 105.7 178.5zM92 60.1c1.1-0.8 2.3-1.3 2.9-2.3 0.8-1.3 1.9-2.1 2.9-3.1 0.8-0.8 1.6-1.7 2.5-2.6 -1.4-1.3-2.7-2.5-4.1-3.7 -2.7 2.7-5.3 5.3-8.1 8.1C89.5 57.8 90.6 58.9 92 60.1zM69.9 72.9c-0.6-1-1.2-1.8-2.3-2 -4.8 4.9-9.5 9.7-13.9 14.9 0.7 0.6 1.3 1.1 2.1 1.8C60.6 82.6 65.3 77.7 69.9 72.9zM126.4 74.8c2.1 2 3.9 3.7 5.8 5.5 1.9-1.7 3.7-3.3 5.5-5 -1.9-2.1-3.7-4.1-5.8-5.9C130.1 71.2 128.3 73 126.4 74.8zM87.2 57.4c-2.8 2.8-5.4 5.5-8.1 8.2 1.4 1.2 2.7 2.4 4.1 3.6 2.7-2.7 5.2-5.3 7.8-8C89.7 59.9 88.6 58.8 87.2 57.4zM171 74.8c-1.1-1-2.1-2-3.1-2.9 -1.5-1.5-2.9-3-4.4-4.5 -0.5-0.5-1-0.7-1.6-0.2 -1 0.9-2 1.9-3 2.9 2.8 2.8 5.4 5.5 8.1 8.3C168.6 77.3 169.9 76.2 171 74.8zM144.2 81.8c-0.3-0.5-0.5-0.7-0.6-0.9 -1.1-1.3-2.5-2.2-3.5-3.7 -0.6-1-1.4-0.9-2.3-0.1 -0.9 0.9-1.8 1.8-2.8 2.6 -0.6 0.5-1.1 1.1-1.8 1.7 1.9 1.9 3.7 3.6 5.5 5.5C140.7 85.2 142.4 83.5 144.2 81.8zM56.7 98.6c2.4 2.2 4.6 4.2 6.8 6.2 1.4-1.5 2.8-2.8 3.9-4.4 -2.2-2.1-4.1-4.2-6.6-6C59.5 95.8 58.2 97.1 56.7 98.6zM47.7 92.4c-4.8 5.6-9.6 11-14.3 16.5 1.3 1.8 1.7 1.8 3 0.3 3-3.5 6-6.9 9.1-10.3 1.4-1.6 2.8-3.1 4.3-4.7C49 93.6 48.5 93.1 47.7 92.4zM135.8 46.9c0.4 0.5 0.7 0.9 1.1 1.2 2 1.9 4 3.9 6 5.8 1.2 1.1 1.3 1.7 3-0.1 0.2-0.2 0.4-0.5 0.7-0.7 1-1 1-1.1 0.1-2.1 -1.8-1.7-3.5-3.4-5.3-5.2 -0.8-0.7-1.6-1.4-2.3-2.1C137.9 44.9 136.9 45.8 135.8 46.9zM102.4 143.7c1.8 1.9 3.5 3.8 5.4 5.9 1.8-1.3 3-3.1 4.4-4.6 -0.8-1.5-4.1-5-5.6-5.8C105.3 140.6 103.9 142.1 102.4 143.7zM79.3 152.1c-1.2 1.3-2.2 2.4-3.1 3.8 -0.1 0.2 0.2 0.9 0.4 1.2 0.5 0.6 1.1 1.2 1.6 1.8 1.4 1.4 2.8 2.7 4.3 4.2 0.9-1.6 2.6-2.5 3.4-4.4C83.8 156.6 81.7 154.4 79.3 152.1zM87.3 127.9c2.1 2 4.1 3.8 6.1 5.7 1.6-1.2 2.5-2.9 4-4.5 -2-2-3.8-3.8-5.8-5.8C90.1 124.9 88.8 126.3 87.3 127.9zM64.7 105.8c2.2 2.1 4.2 3.9 6.1 5.8 1.9-1.2 2.8-2.9 4-4.4 -2-2.1-3.9-3.8-6-5.6C67.4 103 66.1 104.3 64.7 105.8zM172.2 75.8c-1.4 1.2-2.6 2.2-3.7 3.3 -0.4 0.4-0.2 1 0.4 1.4 0.6 0.4 1.2 0.9 1.7 1.5 0.9 0.9 1.7 1.9 2.5 2.9 0.8 0.9 1.3 1 2.3 0.2 0.8-0.7 1.7-1.4 2.5-2 0.6-0.5 0.5-0.9 0-1.4C176 79.7 174.2 77.8 172.2 75.8zM107.4 45.3c-1.6-1.4-2.9-2.6-4.2-3.8 -3.1 2.4-5.6 5.2-5.8 6.3 1.3 1.1 2.7 2.1 4.1 3.3C103.4 49.1 105.3 47.3 107.4 45.3zM83.7 164.4c1.8 2 3.6 3.9 5.6 6 1.4-1.7 2.7-3.1 4-4.7 -2-1.9-3.9-3.8-5.8-5.6C85.9 161.4 84.7 162.7 83.7 164.4zM91.7 44.5c-0.9-0.8-1.6-1.5-2.4-2.2 -0.8-0.7-1.2-0.6-1.9 0.2 -1.8 2-3.7 4-5.5 6.1 -0.4 0.5-0.7 1-1 1.5 0.8 0.7 1.3 1.2 2 1.7 0.8 0.7 1 0.7 1.7-0.1 2.2-2.1 4.3-4.2 6.5-6.3C91.3 45.2 91.4 44.8 91.7 44.5zM82.8 53.5c-1-0.9-2-1.7-3-2.7 -1.5 1.5-2.9 2.8-4.2 4.2 -1.3 1.4-3 2.5-4.1 4.2 1.1 0.8 2 1.6 3.1 2.4C77.2 58.9 79.8 56.3 82.8 53.5zM72.2 72.8c1.1 1 2 1.9 2.9 2.8 0.9 0.9 1.2 0.8 2.1-0.1 1.3-1.5 2.7-2.9 4.1-4.3 0.6-0.7 0.7-0.9 0.1-1.6 -0.8-0.8-1.7-1.6-2.6-2.4 -0.5-0.4-1-0.3-1.4 0.2 -0.5 0.6-1.1 1.1-1.7 1.7C74.6 70.2 73.5 71.5 72.2 72.8zM71.9 145c-1.1 1.2-2 2.1-2.8 3 -0.4 0.5-0.3 0.9 0.2 1.4 1.3 1.4 2.6 2.8 4 4.2 0.3 0.3 0.6 0.6 0.9 0.9 0.4 0.4 0.9 0.4 1.3-0.1 0.9-1.1 1.8-2.2 2.8-3.5C76.1 149 74.1 147.1 71.9 145zM54 133.8c0.1 0.2 0.1 0.4 0.2 0.4 2.1 2.2 4.3 4.4 6.4 6.6 0.5 0.5 1 0.5 1.5-0.1 0.7-0.9 1.3-1.8 2-2.8 -0.9-0.8-1.7-1.7-2.6-2.5 -0.8-0.8-1.6-1.6-2.5-2.2 -0.9-0.7-1.5-1.8-2.8-2.2C55.5 131.9 54.8 132.9 54 133.8zM155.5 59.7c-2.3-2.4-4.5-4.7-7-6.6 -1.1 1.1-2.2 2.1-3.3 3.1 2.4 2.2 4.3 4.6 6.7 6.5C153.1 61.7 154.2 60.7 155.5 59.7zM90.4 122.2c-1.8-1.8-3.1-3.6-5.1-5 -1.4 1.5-2.7 2.8-4.2 4.4 1.8 1.8 3.5 3.4 5.2 5.2C87.7 125.2 88.9 123.8 90.4 122.2zM128.6 40.1c1.9 2.2 4 4 6.3 5.7 1-1 2-1.9 2.9-2.7 -0.1-0.3-0.2-0.6-0.4-0.8 -1.6-1.5-3.3-3.1-4.9-4.6 -0.5-0.4-1-0.4-1.4 0.1C130.4 38.5 129.6 39.2 128.6 40.1zM161.8 65.8c-1.8-1.8-3.5-3.5-5.3-5.2 -1.3 1.2-2.5 2.2-3.3 2.9 1.7 1.9 3.2 3.8 4.8 5.7C159.4 68 160.5 67 161.8 65.8zM70.4 60.1c-2.4 1.7-4.1 3.6-6 5.4 0.9 0.8 1.7 1.6 2.5 2.3 0.5 0.4 1 0.6 1.5 0 1.4-1.5 2.9-3 4.4-4.5 0.5-0.5 0.5-1.1-0.1-1.5C72 61.3 71.2 60.7 70.4 60.1zM114 28.5c-0.3-0.4-0.4-0.7-0.7-0.9 -0.8-0.7-1.1-0.7-1.8 0.3 -0.2 0.3-0.4 0.5-0.7 0.7 -2.3 2.4-5 4.3-7.2 6.8 -0.7 0.8-1.5 1.6-2.3 2.5 0.6 0.5 1.1 1 1.7 1.4C106.7 35.7 110.3 32.1 114 28.5zM52.7 132.9c0.8-0.9 1.4-1.5 2.1-2.2 0.5-0.5 0.5-0.9-0.1-1.4 -1.3-1.1-2.5-2.3-3.8-3.4 -0.7-0.6-1.5-1.1-2.3-1.7 -0.8 0.9-1.5 1.6-2.3 2.5C48.4 128.7 50.5 130.7 52.7 132.9zM130.8 36.1c-1.8-1.6-3.3-3-4.9-4.4 -0.4-0.3-0.8-0.8-1.2-0.4 -0.9 0.8-2.1 1.4-2.7 2.7 2 1.6 3.6 3.6 5.6 5C128.6 38 129.6 37.1 130.8 36.1zM67.8 147.6c0.7-1.6 2.3-2.3 2.8-3.8 -1.7-1.6-3.3-3.1-5-4.6 -1.3 1.1-2.2 2.3-3.1 3.5C64.3 144.3 65.7 146.1 67.8 147.6zM83.9 54.7c-2.9 2.4-5.4 5.1-8 8 0.7 0.7 1.4 1.2 1.9 1.7 2.8-2.6 5.4-5 7.9-7.4C85.1 55.5 85.1 55.5 83.9 54.7zM59.6 93.2c-1.1-1.1-2-2-2.9-2.9 -0.4-0.4-1-0.5-1.4 0 -1.2 1.2-2.3 2.5-3.5 3.8 1.3 1.2 2.5 2.2 3.9 3.4C57.1 96.1 58.3 94.7 59.6 93.2zM45.2 125.6c0.8-1 1.4-1.8 2.2-2.7 -2.5-2.1-4.7-4.3-7.3-6.2 -0.7 0.8-1.3 1.4-1.9 2.2C40.5 121.2 42.7 123.3 45.2 125.6zM85 53.5c0.2 0.3 0.3 0.5 0.4 0.6 1.5 1.4 1.5 1.5 3 0 2-1.9 3.9-3.9 5.9-5.9 0.2-0.2 0.3-0.5 0.4-0.8 -1.3-1.7-1.8-1.7-3.2-0.3 -0.7 0.7-1.4 1.4-2.1 2C88 50.5 86.5 52 85 53.5zM118.9 25.5c-1 0.8-1.8 1.5-2.6 2.2 -0.5 0.4-0.4 0.9 0 1.2 1.3 1.1 2.6 2.1 3.8 3.2 0.4 0.4 0.9 0.5 1.3 0.1 0.7-0.7 1.4-1.5 2.2-2.4C122.1 28.3 120.5 27 118.9 25.5zM71 71.7c2.1-2.1 4.1-3.9 6-6.2 -0.6-0.5-1-0.8-1.5-1.2 -0.4-0.3-0.9-0.5-1.3-0.1 -1.8 1.8-3.5 3.6-5.4 5.5C69.6 70.4 70.3 71 71 71.7zM118.9 23.7c2.7-2.6 5.3-5.2 8.1-7.9 -0.6-0.5-1-0.9-1.4-1.2 -1.8 1.5-3.4 3-5.1 4.4 -1.2 1-2.3 2.1-3.2 3.4C117.8 22.9 118.2 23.2 118.9 23.7zM100.3 38.7c-2.1 2-4.1 3.9-6.2 6 0.7 0.6 1.3 1 2 1.6 2-2.1 3.9-4 5.8-6C101.3 39.7 100.9 39.3 100.3 38.7zM52.9 86.7c-1.5 1.7-2.8 3.1-4.2 4.7 0.8 0.7 1.4 1.2 2 1.7 1.4-1.5 2.7-2.9 4.1-4.5C54.2 87.9 53.6 87.4 52.9 86.7zM33.7 114.6c1.2 1.1 2.3 2.1 3.4 3.2 0.6-0.8 1.2-1.4 1.7-2.1 -1.1-1-2.2-1.9-3.3-3C34.9 113.4 34.3 114 33.7 114.6zM115.1 27.5c0.9-1 1.7-1.9 2.5-2.8 -1.1-1.3-1.4-1.3-2.4-0.4 -0.5 0.5-1 1-1.6 1.6C114.1 26.5 114.5 26.9 115.1 27.5z"/></svg>