<svg xmlns="http://www.w3.org/2000/svg" style="display: none;">
      <symbol id="burst" viewBox="0 0 814 402"><path d="M425 288.4c-1.3 21-3.6 39.8-3.3 58.5 0.2 18.1 3.1 36.1 1.7 55.1 -1.2-2.4-2.7-4.8-3.6-7.3 -10.8-31.4-5.5-64-6.9-96.1C412.6 292.7 413.3 292.7 425 288.4z"/><path d="M162.1 282.9c-29.1 30.9-58.1 61.7-87.2 92.6 -0.8-0.4-1.7-0.7-2.5-1.1 0.5-2.7 0-6.1 1.5-7.9 8.3-9.8 17-19.2 25.7-28.7 14.6-16.1 29.1-32.3 43.9-48.3C147.7 284.7 151.6 278.6 162.1 282.9z"/><path d="M775.3 296.3c-25.6-24.3-57.1-42.9-75.2-75.1 7-5.2 11.3-3.7 14.4 1.3 15.4 24.5 38.3 41.8 58.4 61.8 2.7 2.7 4.1 6.7 6.1 10.1C777.9 295 776.6 295.6 775.3 296.3z"/><path d="M729.4 70.9c-4-9.4 1.2-13.7 6.7-17.7 9.9-7.3 19.8-14.5 29.8-21.5 13.7-9.6 27.5-19 41.4-28.4 1.8-1.2 4-1.7 6.7-2.7C809.8 8.2 742.3 64.4 729.4 70.9z"/><path d="M0 240.7c1.8-3.1 2.8-7.6 5.4-9.1 20.3-11.4 39.5-25.2 63.1-29.5 5.6-1 11.7-2.8 16.2 3.9 -15.3 5.5-29.9 9.8-43.7 15.9 -13.3 5.9-23 18.7-37.7 22.1C2.2 243 1.1 241.9 0 240.7z"/><path d="M98.5 100.5C79.7 98.8 61 97.3 42.3 95c-2.7-0.3-5-4.6-7.4-7.1 2.7-2.1 5.9-6.4 8.2-6 19 3.8 39.1 3.5 56.3 14C99 97.5 98.8 99 98.5 100.5z"/><path d="M297.7 288.2c-4.3 21.2-8 40-12.3 61.5 -6.9-7.9-5.3-14.3-4.3-19.8 2.5-13.6 5.8-27 9.1-40.4C290.3 288.9 293.1 288.9 297.7 288.2z"/><path d="M786.2 128.9c-14.6 2.7-27 5-38.8 7.2 -5.3-4.8-4.2-8.7-0.1-11.8C755.5 118.2 774.3 119.7 786.2 128.9z"/><path d="M603.3 266.1c5.4 16.2 7.9 30.8 5.1 46.9 -1.7-2.3-4-4.4-4.9-6.9 -3.1-10-5.9-20.2-8.5-30.3C594 271.9 594.4 271.8 603.3 266.1z"/><path d="M160.9 48.4c-14.8-3.3-21.7-14.8-29.4-25.1 -1.3-1.8 1-6.6 3-9.3 0.6-0.8 7.2 0 8.6 1.8 7.8 9.5 14.9 19.4 22.3 29.2C163.9 46.1 162.4 47.2 160.9 48.4z"/> 
      </symbol>
      <symbol id="line" viewBox="0 0 135 7.1"><path d="M132.9 1.6c-0.1 0-0.3-0.1-0.4-0.1 -0.3-0.1-0.6-0.2-1-0.2 -3.2 0.1-6.9 0.2-10.6 0.3 -1.4 0.1-2.8 0.1-4.2 0.2 -2.5 0.1-5.1 0.3-7.6 0.3 -3.4 0-6.8-0.2-10.1-0.3 -2.3-0.1-4.7-0.2-7.1-0.3 -6-0.2-35.9-0.4-41.5-0.3 -2.1 0-4.3 0-6.3-0.1 -3.8-0.1-7.7-0.2-11.5 0.2l-2.9 0.4c-2.3 0.3-4.5 0.6-6.9 0.9 -1.8 0.2-3.5 0.5-5.1-0.2 -0.7-0.3-1.4-0.5-2.1-0.7 -0.2-0.1-0.5-0.1-0.7-0.2 -2.7-0.8-5.3-0.4-7.5 1.3C6 3.7 6 3.7 4.6 2.9L4.5 2.8C3.6 2.2 2.7 1.9 2 1.6 1.7 1.6 1.3 1.7 1.1 1.9 0.9 2 0.8 2.1 0.8 2.2c0 0.4 0.1 1 0.4 1.2 0.3 0.3 0.6 0.5 1 0.7 0.3 0.2 0.6 0.4 0.9 0.6 1.1 0.9 1.8 1.4 2.5 1.4 0.7 0 1.4-0.4 2.5-1.3 1.7-1.4 3.7-1.8 6-1.2 0.8 0.2 1.6 0.5 2.3 0.8 1.8 0.8 3.4 1 5 0.6 1.6-0.4 3.2-0.6 4.8-0.8L27.4 4c3.9-0.5 8-1 12.1-0.9 1.2 0 2.5 0 3.8 0C53 3 87.1 3 97.2 3.5c5 0.3 9.5 0.5 14.2 0.3 4.4-0.1 8.9-0.4 13.2-0.7 1.7-0.1 3.4-0.2 5-0.3 0.7 0 1.5-0.1 2.2-0.2 0.3 0 0.7-0.1 1-0.1l0.2-0.1 0.1-0.7L132.9 1.6z"/>
      </symbol>
      <symbol id="stars" viewBox="0 0 54.9 47.9"><path d="M10.4 47.9c-0.8-2.7-0.4-5.3-1.1-7.8C6.3 39.2 3 39.5 0 37.3c0.7-0.6 1.2-1.1 1.8-1.5 2.2-1.3 4.4-2.6 6.6-4 0.5-0.3 0.8-1.1 1.1-1.7 0.8-1.8 1.4-3.6 2.2-5.4 0.5-1.1 1.1-1.2 2-0.3 1 1.1 1.9 2.2 2.9 3.3 1.3 1.5 1.4 1.5 3.4 0.9 1.8-0.6 3.7-1 5.5-1.4 0.5 1-0.1 1.5-0.6 1.9 -1.7 1.4-2.2 3.3-2.8 5.2 -0.5 1.5 0.2 2.8 0.9 4.2 0.5 1 1 2 0.2 3.3 -2.2-0.5-4.5-1-6.7-1.5C14 42.5 13.6 46.1 10.4 47.9zM21.5 39.8c-0.3-0.9-0.3-1.4-0.5-1.7 -1.4-1.9-0.9-3.8 0.1-5.6 0.4-0.8 0.7-1.6 1-2.4 -0.1-0.1-0.2-0.2-0.4-0.3 -0.7 0.2-1.4 0.4-2 0.7 -2.1 1-2.5 0.9-4-1 -0.8-1.1-1.6-2.2-3-2.9 -1.2 1.6-2 3.4-2.3 5.3 -0.2 1.1-0.6 1.8-1.9 2 -2 0.4-3.6 1.5-5.3 2.8 2.5 1.5 4.9 1.2 7.4 1.2 0.2 1.2 0.3 2.3 0.4 3.4 0.1 1 0.2 2 0.2 3.1 0.2 0 0.3 0.1 0.5 0.1 0.9-1.4 1.7-2.8 2.6-4.2 1.2-2.1 1.2-2.1 3.6-1.4C19 39.2 20.1 39.4 21.5 39.8z"/><path d="M54.8 8.1c-1.5 0.9-3 1.9-4.6 2.7C49.3 11.4 49 12 49 13.1c0.1 1.1 0.1 2.2 0.1 3.3 0 0.7-0.2 1.3-0.3 2.1 -1.5-0.4-2.2-1.3-2.7-2.4 -0.8-1.6-1.5-1.8-2.9-0.8 -1.4 1-2.8 2-4.2 3 -0.4 0.3-1 0.4-1.7 0.8 0-0.7 0-1.1 0.1-1.4 0.7-1.6 1.5-3.1 2.3-4.7 0.7-1.4 0.7-1.7-0.5-2.6 -0.4-0.3-0.9-0.6-1.4-0.9 -0.8-0.6-1.6-1.3-2.4-2 -0.5-0.5-1.1-1-0.7-1.8 0.4-0.9 1.2-0.4 1.8-0.3 1.4 0.2 2.9 0.3 4.3 0.5 1.2 0.1 1.9-0.3 2.5-1.4 0.6-1.3 1.4-2.6 2.2-3.7C45.7 0.3 46.4 0 46.9 0c0.3 0 0.7 0.6 0.8 1C47.8 2 47.8 3 47.9 3.9c0.2 2.7 0.9 3.4 3.3 3.2 0.6 0 1.3-0.1 1.9 0 0.6 0.1 1.2 0.3 1.8 0.5C54.8 7.8 54.8 8 54.8 8.1zM48 10.1c1.7-0.7 1.7-0.7 2.4-1.5 -0.1-0.1-0.2-0.2-0.3-0.2 -2.9-0.1-2.9-0.1-3.2-3 -0.1-0.7-0.1-1.4-0.2-2.1 -0.1-0.4-0.2-0.9-0.4-1.4 -1.4 0.6-1.6 1.8-2.2 2.8 -0.6 1-1 2.1-1.4 3.1 -1.7-0.3-3-1.2-4.6-0.8 0.5 1.1 0.5 1.1 2.2 2.4 1.9 1.4 1.9 1.5 0.7 3.5 -0.5 0.9-1 1.8-1.5 2.8 0.1 0.1 0.2 0.2 0.3 0.3 0.9-0.5 1.9-1.1 2.8-1.6 2.7-1.4 2.7-1.4 5 0.5C47.7 13.3 47.8 11.7 48 10.1z"/></symbol>
      <symbol id="star" viewBox="0 0 24.7 23.9"><path d="M12.5 0c1.4 1.3 1.7 2.5 2 3.8 0.5 2.2 1 2.6 3.3 2.7 1.1 0 2.2-0.1 3.3-0.3 1.2-0.1 2.3-0.5 3.6 0.6 -0.2 0.4-0.5 0.9-0.8 1.2C23 9 22 9.9 21.1 10.8c-0.8 0.7-1.1 1.6-0.7 2.6 0.3 1 0.7 2.1 0.9 3.2 0.1 0.5 0.1 1.2-0.1 1.5 -0.2 0.2-1 0.1-1.4 0 -0.8-0.3-1.7-0.6-2.5-1.1 -1.4-0.8-2.1-0.7-3 0.8 -0.8 1.4-1.6 2.8-2.3 4.2 -0.5 0.9-1 1.6-2.3 2 -0.1-1.9-0.3-3.6-0.4-5.3C9 15.5 8.9 15.4 5.7 16c-1.3 0.2-2.6 0.5-3.9 0.7 -0.6 0.1-1.4-0.1-1.7-0.5 -0.5-0.6 0.2-1.1 0.7-1.5 2.1-1.6 4.1-3.3 6.7-4.1 0.6-0.2 1.2-0.8 1.4-1.3 0.9-2.3 1.7-4.7 2.5-7C11.7 1.6 12.1 0.9 12.5 0zM22.7 7.4c-1 0.1-1.4 0.2-1.9 0.2 -1 0.2-2.1 0.4-3.1 0.5 -2.9 0.2-3.4-0.2-4.3-3 -0.2-0.6-0.4-1.2-0.8-2.1 -1 2.7-2 4.7-2.5 6.9 -0.4 1.4-1 2.2-2.4 2.5 -0.6 0.1-1.3 0.2-1.8 0.4 -1 0.4-2.2 0.7-2.9 2.3 2.6-0.2 4.8-0.4 7.1-0.5 0.3 2.2 0.5 4.1 0.7 6.1 0.2 0 0.3 0.1 0.5 0.1 1-1.5 2-3.1 3.1-4.6 0.9-1.4 1.8-1.6 3.3-0.7 0.5 0.3 1 0.6 1.6 1 0.6-2.1-0.9-3.6-0.8-5.5C20 10.2 21.5 9.3 22.7 7.4z"/></symbol>
      <symbol id="hair" viewBox="0 0 23.1 15"><path d="M23.1 2.3c-0.6 0.4-0.9 0.7-1.3 0.8C16.2 4 11 5.9 6.4 9.2 6.2 9.3 6 9.5 5.9 9.5c-0.4 0-0.9 0-1.1-0.2C4.6 9.1 4.7 8.5 4.9 8.2 5.4 7.8 5.9 7.3 6.6 7c1.9-0.9 3.7-1.8 5.6-2.6 2.4-1 4.9-1.8 7.4-2.6 0.7-0.2 1.5-0.3 2.2-0.4C22.2 1.5 22.5 1.9 23.1 2.3z"/><path d="M17.4 12.2c-0.8 0.4-1.2 0.7-1.6 0.7 -1.5 0.3-3 0.5-4.5 0.8 -1.1 0.2-2.1 0.6-3.2 0.9C7.6 14.9 7.1 15 6.6 15c-0.3 0-0.7-0.3-0.7-0.5 -0.1-0.2 0-0.7 0.2-0.9 0.3-0.3 0.7-0.5 1.1-0.5 2.9-0.5 5.8-1 8.8-1.5C16.3 11.5 16.7 11.9 17.4 12.2z"/><path d="M6.9 0c0.6 0.9 0.5 1.4-0.2 1.8C4.7 2.7 3.4 4.3 2 5.8 1.8 6 1.7 6.3 1.5 6.4 1.1 6.6 0.6 6.8 0.4 6.6c-0.6-0.3-0.4-0.9 0-1.2 1.5-1.4 3-2.9 4.5-4.2C5.4 0.7 6.1 0.4 6.9 0z"/></symbol>
      <symbol id="hair2" viewBox="0 0 15.1 16.7"><path d="M9.7 15.4c-1 0.5-1.4-0.2-1.5-0.7 -0.3-1.1-0.6-2.1-0.8-3.2C7 8.1 6.7 4.7 6.4 1.3c0-0.3-0.1-0.6 0-0.8C6.5 0.3 6.7 0 6.9 0c0.2 0 0.6 0.2 0.6 0.4 0.1 0.4 0.1 0.8 0.2 1.2C8 4.9 8.2 8.1 8.6 11.3 8.7 12.7 9.3 14 9.7 15.4z"/><path d="M14.3 15.6c-0.2-0.3-0.6-0.6-0.6-0.9 0-2.3 0-4.7 0-7 0-0.7 0.4-1.1 1.4-1 -0.1 3-0.2 5.9-0.4 8.8C14.6 15.5 14.4 15.6 14.3 15.6z"/><path d="M4.3 16.6c-1.8-1-3.9-4.3-4.3-6.8 0.7-0.6 1.2-0.1 1.5 0.4 0.6 1.1 1.1 2.2 1.6 3.3C3.5 14.5 3.8 15.4 4.3 16.6z"/></symbol>
    </svg>