<svg xmlns="http://www.w3.org/2000/svg" viewBox="0 0 200 200"><defs><style>.a{fill:#ffb736;}.b{fill:#cb8d1f;}</style></defs><title>all-inclusive</title><path class="a" d="M143.84413,121.61449c1.6116.04336,1.74849,1.08225,1.71325,2.46951-.10763,4.23693-.11976,8.47757-.07331,12.71572a4.533,4.533,0,0,0,.82584,1.87571,13.42834,13.42834,0,0,1,.97153,1.41873,10.33358,10.33358,0,0,1,.37859,1.93544,13.47031,13.47031,0,0,1-1.70283.282q-8.21725.33179-16.43638.615c-1.67113.05549-3.34828-.04443-5.01727.03724a15.63091,15.63091,0,0,0-2.06289.53149,2.92265,2.92265,0,0,1-1.08361-.08323,8.01836,8.01836,0,0,0-1.92857-.427c-4.3148.28617-8.62115.70387-12.93705.96749-2.9694.18137-3.61137-1.5401-3.661-3.98567-.12731-6.27267.00122-12.55053-.12682-18.82317-.09067-4.442-.4621-8.87762-.6499-13.31855a55.10132,55.10132,0,0,1,.00119-6.10086c.078-1.13234,1.13432-1.18775,2.07671-1.14023,3.86757.195,7.73468.40274,11.60375.56263,1.571.06492,3.14732-.00777,4.72.031,2.1476.05292,2.80078.71943,2.82255,2.8119q.08658,8.319.15617,16.63817c.00724,1.078.26623,1.72357,1.55072,1.47589.957-.18453,1.94149.25463,1.86257-1.60474-.15295-3.604-1.17043-6.98985-1.90791-10.45294a4.143,4.143,0,0,1,1.99538-4.38091,1.44034,1.44034,0,0,1,1.16854-.06859c1.17546.71635,1.74482-.07846,2.694-.604a15.34478,15.34478,0,0,0,3.87146-2.48216c.19393-.19945.70068-.14081,1.05954-.12488a14.559,14.559,0,0,1,2.82563.23405,2.655,2.655,0,0,1,1.61208,1.07622c.51964.99351.895,1.77343,2.19643,2.13347A13.01045,13.01045,0,0,1,146.081,108.002c.84516.59554.69522,2.65383-.10511,3.38358a2.03116,2.03116,0,0,0-.70177.92329c-.30854,1.63006-.53166,3.27641-.77955,4.91782C144.279,118.654,144.0709,120.08256,143.84413,121.61449Zm2.03195,19.1523c-.36966-.70407-.452-1.12443-.70415-1.29771-1.47271-1.012-1.4191-2.56913-1.4737-4.05623-.04-1.09048.115-2.18671.14323-3.2814.05947-2.30448.13078-4.60979.12185-6.91446-.005-1.27987-.55316-1.98441-2.04263-1.925-2.24533.08956-4.503-.14051-6.74919-.06-3.22632.1157-6.45051.34635-9.66847.61389-1.40529.11684-2.569.56456-2.06528,2.46017a7.9672,7.9672,0,0,1-.03071,2.19112c-.11077,3.70347-.18709,7.40848-.35115,11.10959-.06132,1.38362.56625,1.70384,1.79634,1.64049,3.75229-.19322,7.50654-.37464,11.26233-.46508C139.23867,140.707,142.366,140.76679,145.87607,140.76679Zm-42.27145-30.01745.45574.001c0,2.72041.03184,5.44135-.01257,8.161-.0246,1.50641.59754,2.00741,2.12253,2.12407,4.51431.34535,9.01522.87437,13.51709,1.37034,2.26838.24991,2.2633.28785,2.285-2.061.00193-.20907.04068-.41817.03749-.62688q-.11282-7.37494-.23341-14.74977c-.02113-1.26961-.51313-2.09927-1.942-2.08991-1.14631.00751-2.29318-.02862-3.43943-.059-3.76231-.09968-7.52642-.16227-11.28551-.334-1.21567-.05554-1.55168.38439-1.52219,1.51868C103.64578,106.251,103.60462,108.5007,103.60462,110.74934Zm5.65786,11.82356-.08.48944c-1.09724-.0644-2.19889-.08764-3.29049-.20467-1.11041-.119-1.7186.25539-1.72044,1.4309-.003,1.93285-.07087,3.86719-.01587,5.79818.09961,3.49691.2066,6.99665.474,10.48267a2.23457,2.23457,0,0,0,1.44572,1.51338,16.46,16.46,0,0,0,4.51678.34072c3.38372-.25537,6.75673-.6758,10.12187-1.12146a1.48106,1.48106,0,0,0,.92294-1.07961c.11489-2.7574.0945-5.52006.1578-8.28012.042-1.83069.17746-3.65923.21959-5.48991.02154-.9359-.14329-1.62249-1.4014-1.81685C116.814,124.04868,113.04388,123.27423,109.26248,122.5729Zm29.36523-18.37283c-.94158,2.00957-1.70567,2.13752-2.59578.62505a1.2756,1.2756,0,0,0-1.136-.48055,1.51383,1.51383,0,0,0-.63492,1.10472c-.12847,1.0869-.46141,1.51564-1.63646,1.0467a1.5548,1.5548,0,0,0-1.42089.52987c-1.03406,1.98778-.98678,2.01239-2.80436.5607-.997-.79628-1.58359-.62011-1.92346.57772-.38248,1.348.0954,1.78629,1.88659,1.67808,4.85449-.29325,9.70559-.59236,14.54981.19326a4.67472,4.67472,0,0,0,1.57159-.31738l.06944-.57708c-1.37626-.136-2.62822-.45895-3.27194-1.75541-.03763-.07581-.30645-.09153-.44558-.05378-1.38792.37659-1.59914-.46186-1.66628-1.5373A8.4927,8.4927,0,0,0,138.62771,104.20007Zm2.28936,13.9489c1.61076.00052,2.26614-.70244,2.1809-2.45719-.08127-1.67325-1.28674-.84846-2.09392-.88178-.36232-.015-.73.03824-1.08826-.00172-.96721-.10785-1.39921.19949-1.39954,1.273C138.51572,117.79917,138.84319,118.1483,140.91707,118.149Zm-6.01266-.38738.06879.14677c.72827-.25181,1.83093-.29329,2.11318-.79568.78253-1.39285-.18218-2.58473-1.81443-2.45189a3.95239,3.95239,0,0,0-1.814.36,1.99728,1.99728,0,0,0-.84821,1.51256c.05271.45012.72914.89405,1.21918,1.19918C134.09161,117.8961,134.53988,117.76159,134.90442,117.76159Zm.40488-6.60227-.008-.06453c-.77763.06987-1.55472.18888-2.333.197-.95336.01-1.05494.65662-.87433,1.27307a1.40226,1.40226,0,0,0,.98844.83458,11.02434,11.02434,0,0,0,3.11448-.19791c.44138-.10384.74261-.80341,1.10747-1.2325a10.65963,10.65963,0,0,0-1.21684-.79185A1.95138,1.95138,0,0,0,135.30929,111.15932Zm1.841,10.8762c.21812-1.53078.53871-2.74916-1.05384-2.77892-.91653-.01713-2.63625-.51842-2.5155,1.17052C133.76149,122.95243,135.93822,121.01589,137.15027,122.03552Zm-9.23911-6.51143c-.00506,1.54773.17738,2.49188,1.42651,2.54205.607.02438,1.60079-.09869,1.75092-.44492.21463-.495-.01211-1.67923-.3548-1.81815A9.68513,9.68513,0,0,0,127.91116,115.52409Zm.68808-1.14665,1.86068-1.70135c-.48947-.4138-.9725-1.15422-1.46993-1.164-.727-.01432-1.9922-.13571-1.90139,1.14785C127.12364,113.15543,127.884,113.59962,128.59924,114.37744Zm10.27811-1.0605c1.18561-.117,2.39541-.20226,3.59169-.37914.28531-.04218.52541-.39012.7863-.59744-.27508-.2645-.51993-.70516-.83124-.75859-.75971-.13041-1.5579-.02082-2.32656-.11843C138.79708,111.29818,138.55428,111.91547,138.87735,113.31694Zm3.44817,8.30951c-.13743-1.65881-1.22925-1.94382-2.40069-1.9623-.37263-.00588-.7525.44588-1.12906.68822.2877.42469.50744,1.12567.87722,1.21662A11.98538,11.98538,0,0,0,142.32552,121.62645Zm-11.51916.35962,1.08479-1.09351c-.45007-.40021-.91544-1.14209-1.34672-1.12276a6.16244,6.16244,0,0,0-2.0486.88546Z"/><path class="a" d="M55.7517,145.12571a8.4564,8.4564,0,0,1-.34751-1.59832c-.08348-3.56235-.06441-7.12791-.19565-10.68811-.13679-3.71066-.45676-7.41453-.59636-11.12514-.08094-2.15123.00826-2.15025,2.23427-2.29863.35291-.02353.70191-.10606,1.23136-.18945-.1933-1.03469-.32427-2.002-.56315-2.94195-.25569-1.00616-.19328-1.50543,1.0998-1.58474,2.85721-.17521,5.70837-.51083,8.548-.88683,1.649-.21834,3.70756.91442,3.88653,2.599.18727,1.76269,1.24841,1.81051,2.52585,1.74865a5.95226,5.95226,0,0,1,1.24532-.11309c1.39245.24585,2.104-.14963,2.02518-1.70307a1.38248,1.38248,0,0,1,.81881-1.04851,33.026,33.026,0,0,1,12.29555-.87262c.51165.07921,1.0347.08465,1.55245.12476,1.08685.08419,1.72234.54694,1.75719,1.75759.0359,1.24686-.19353,2.71263,1.76987,2.88794.26386.02356.65831.79811.65844,1.225.00159,5.11375-.05127,10.22762-.10885,15.34125-.02633,2.3398-.11773,4.679-.13182,7.01873-.00543.901-.38142,1.19449-1.251,1.14773-4.90962-.264-9.81868-.60456-14.73229-.70446-3.19169-.06489-6.39446.17973-9.58567.387-4.071.26437-8.13665.61617-12.20116.96975A11.39247,11.39247,0,0,0,55.7517,145.12571Zm18.97291-25.656c.29952,1.64725.67233,3.01672.77929,4.40664.40954,5.32216.77485,10.64868,1.06011,15.97874.06941,1.29745.30421,2.00814,1.79348,1.71635a8.57957,8.57957,0,0,1,1.88159.01728c4.43977.14172,8.87917.29686,13.31965.41045a2.54212,2.54212,0,0,0,.95509-.33874c0-3.019.0479-5.8428-.01233-8.6643q-.10888-5.10142-.37908-10.19884c-.073-1.3924-.67873-2.17225-2.34242-2.24655C86.16466,120.29994,80.558,119.85511,74.72461,119.4697Zm-17.89083,15.694-.2033.01478c.09268,1.98811.24357,3.97587.25573,5.96447.00709,1.15627.38082,1.5639,1.57419,1.48932,4.89689-.306,9.79883-.53049,14.69868-.78936,2.14049-.11309,2.11906-.16144,1.96471-2.33431-.27745-3.90638-.37638-7.82761-.74048-11.72483a48.19121,48.19121,0,0,0-1.26252-6.74112,1.859,1.859,0,0,0-1.3666-1.14052c-4.73257.376-9.45057.93451-14.18283,1.31556-1.597.12859-1.77087,1.12326-1.69347,2.24524C56.14719,127.3666,56.50785,131.264,56.83377,135.16371Zm5.359-16.00787c1.79111-.223,3.80561-.51188,5.82914-.70774.86993-.08421,1.59917-.38066,1.199-1.2801-.31714-.71285-1.15165-1.72253-1.72526-1.70262-2.4213.084-4.82869.52435-7.24594.79136-.94441.10432-1.22763.56516-1.13282,1.47078C59.32685,119.73241,60.78854,119.13014,62.19281,119.15584Zm23.24106-3.27649-.05676-.26363c-1.77951.29375-3.57314.525-5.32929.92212-.4808.10871-.8492.71454-1.26918,1.09224a5.75414,5.75414,0,0,0,1.71983.70894c3.23826.18465,6.48169.28378,9.72433.37895.35771.0105.97307-.11586,1.03034-.30886a1.59638,1.59638,0,0,0-.14823-1.309,2.63541,2.63541,0,0,0-1.4614-.79608C88.25241,116.08538,86.83863,116.01111,85.43386,115.87936Z"/><path class="b" d="M49.063,96.49529a6.92632,6.92632,0,0,1,1.257-1.84308c3.478-2.58622,7.0225-5.0828,10.53941-7.6168,3.17653-2.28876,6.31675-4.62916,9.52547-6.8717,4.87632-3.408,9.69609-6.91361,14.73127-10.07271,4.36949-2.74146,9.00853-5.05253,13.51933-7.57014a21.13319,21.13319,0,0,0,2.643-1.65045,1.83446,1.83446,0,0,1,2.30267-.03212c4.955,2.78959,9.96473,5.48448,14.873,8.35329,2.11219,1.23455,4.03548,2.79575,6.026,4.23429,3.67794,2.6581,7.38305,5.28105,11.00277,8.01668,5.82842,4.40486,12.10365,8.25517,17.05614,13.75968.99532,1.10625,2.27569,1.95234,3.37939,2.96756a1.47433,1.47433,0,0,1,.43944,1.019c-.00629.16757-.61392.50857-.83929.43475a3.80216,3.80216,0,0,1-1.82969-.93861,49.25725,49.25725,0,0,0-11.05846-10.3242c-2.3392-1.6479-4.549-3.47845-6.86551-5.15994-1.68474-1.2229-3.44891-2.33641-5.17759-3.49878a45.489,45.489,0,0,1-4.39509-2.99225c-6.01019-5.16473-12.92158-8.80218-20.045-12.11033a15.451,15.451,0,0,1-2.24367-1.44207,2.636,2.636,0,0,0-3.07657-.25424c-5.95084,3.45142-11.99342,6.75417-17.83692,10.37819-4.73039,2.93368-9.29628,6.14956-13.804,9.421-5.41149,3.92742-10.66919,8.06618-16.02828,12.06682-1.13041.84387-2.41167,1.48566-3.62345,2.22057Z"/><path class="b" d="M111.40434,78.19838c0,4.022-.01234,8.0441.00688,12.066.00649,1.35783-.53036,1.722-1.86,1.38757a11.24425,11.24425,0,0,0-2.64275-.046c-2.65759-.00711-5.31521-.02416-7.97276-.01658q-1.79869.00513-3.59682.09345c-.88892.0439-1.13114-.37337-1.22323-1.2143-.49412-4.51222-1.02077-9.02167-1.6126-13.522-.26117-1.98607-.06125-2.41688,1.8628-2.48594,5.22733-.1876,10.45621-.34985,15.68587-.42208.41141-.00568,1.10152.71079,1.19444,1.18356a15.65218,15.65218,0,0,1,.05626,2.97587ZM97.414,75.76921c-3.3779.1186-3.47423.22646-3.05764,3.44817.06713.51908.15045,1.03608.21569,1.55538.28074,2.23478.2945,2.36554,2.60218,2.097,4.88623-.56856,3.69886.455,3.579-4.19133C100.69015,76.23344,99.88431,75.68248,97.414,75.76921Zm9.40575,7.51942c.13178,0-.12973-.00448-.391.00069-2.98166.059-3.46889.58127-3.22081,3.482.03089.36122.17132.71349.19818,1.07458.21978,2.95535.73772,2.51924,3.2515,2.24179,3.64118-.4019,3.62886-.51361,3.30187-4.41425C109.75713,83.2608,109.63712,83.1558,106.8197,83.28864Zm2.87081-4.61358a9.03569,9.03569,0,0,1,.00481-.94285c.14826-1.40595-.44184-2.07238-1.88155-1.96123-1.50845.11644-3.02184.17785-4.52614.33123-.29071.02964-.78453.3711-.78589.57142a21.34339,21.34339,0,0,0,.27414,4.94345c.06906.29654,2.06794.153,3.177.192a7.95531,7.95531,0,0,0,.93922-.07978C109.69457,81.49163,109.69459,81.49184,109.69051,78.67505Zm-14.14174,6.1231c0,1.15443.076,2.08913-.01714,3.00666a1.8956,1.8956,0,0,0,1.97979,2.3784,19.693,19.693,0,0,0,3.27011.12864,1.55208,1.55208,0,0,0,1.09155-1.02945,17.41646,17.41646,0,0,0-.16431-4.03217,1.76115,1.76115,0,0,0-1.32768-1.08714C98.73908,84.24567,97.10939,84.57326,95.54877,84.79816Z"/><path class="b" d="M66.79566,58.79523c3.22879-.27053,6.45351-.62186,9.68772-.78476,2.37475-.11961,3.85576.78077,3.57519,2.93883-.18086,1.39119.02387,2.8289-.07879,4.23594-.03354.45975-.49126.88855-.755,1.33149-.31124-.47584-.83452-.92863-.8893-1.43237a17.08355,17.08355,0,0,1,.07263-3.13c.1302-1.69358-.38388-2.3663-2.09123-2.34985-1.45584.014-2.90976.20455-4.36493.312-2.08244.15375-4.16338.37306-6.24853.42665-1.16768.03-1.57793.45648-1.532,1.59509.14754,3.65969.29281,7.32124.31572,10.98284a8.54213,8.54213,0,0,1-.7593,2.45422c-1.39845-.47436-.61314-1.57733-.64886-2.40209-.18931-4.37456-.28731-8.75333-.50766-13.12608-.04675-.92775.17958-1.25768,1.07289-1.23418,1.04688.02754,2.095.00645,3.14264.00645Z"/><path class="a" d="M125.61395,129.89772c.42221-.76087.8549-2.17289,1.26478-2.1663,1.51719.02439.68264,1.40013.839,2.20192a12.7226,12.7226,0,0,1,.24986,2.81275c-.01132.36045-.47294.70677-.72939,1.05952-.30122-.25381-.79035-.46017-.86867-.77027-.24145-.95605-.326-1.95173-.47153-2.932Z"/><path class="a" d="M107.10253,118.463c-1.13-1.40167-1.03894-3.09175-1.01-4.71513a1.92781,1.92781,0,0,1,1.51754-.4973C108.65768,113.93617,108.28889,117.722,107.10253,118.463Z"/><path class="a" d="M106.84662,128.70818a7.05614,7.05614,0,0,1,.14911-1.86437c.14033-.4039.663-.675,1.015-1.00534a3.75687,3.75687,0,0,1,.732,1.07879,18.64636,18.64636,0,0,1,.547,3.33041,1.92065,1.92065,0,0,1-.69,1.2251,2.86473,2.86473,0,0,1-1.64153-.91716c-.2788-.45787-.0601-1.21866-.0601-1.84628Z"/><path class="a" d="M79.43281,132.90681a4.96,4.96,0,0,1,6.10752-4.44789,22.06026,22.06026,0,0,1,4.217,1.43257c2.09556,1.1481,1.19357,3.13818.83779,4.79149-.35647,1.6564-3.87523,3.7739-5.5553,3.57879-3.18526-.36993-5.32538-2.17311-5.60278-4.72745A6.17955,6.17955,0,0,1,79.43281,132.90681Zm10.09012-.04811a2.4877,2.4877,0,0,0-2.62282-2.79929,7.11033,7.11033,0,0,1-1.238-.16695,3.52042,3.52042,0,0,0-4.2136,1.617,2.91565,2.91565,0,0,0,.73233,4.064,6.46411,6.46411,0,0,0,3.1212,1.13761C86.98674,136.96036,89.50462,134.54481,89.52293,132.85869Z"/><path class="a" d="M65.75466,137.15145c-1.1836-.24578-2.88207.10849-3.66858-1.66509-.95358-2.15045-1.29473-4.2912.14664-6.388,2.77153-4.03183,2.99034-3.21142,6.81964-1.48973,2.17484.97782,2.26821,2.73139,1.69276,4.36217-.33041.93635-.67317,1.87-1.055,2.7862C68.83154,136.81718,68.26051,137.17618,65.75466,137.15145ZM65.36982,135.76c2.25574-.11439,3.16044-.952,3.86387-3.57712.58295-2.17551.07419-3.2137-2.08315-3.95006-.64288-.21944-1.68351-.47568-2.01936-.15969a10.10946,10.10946,0,0,0-2.17326,3.01126C61.971,133.18751,63.42782,135.85849,65.36982,135.76Z"/></svg>