<svg xmlns="http://www.w3.org/2000/svg" viewBox="0 0 200 200"><defs><style>.a{fill:#811a9b;}</style></defs><title>arts-music</title><path class="a" d="M131.56266,91.52156c-.29,4.47308-.40549,8.88343-.92054,13.24662a59.06865,59.06865,0,0,1-1.91792,8.17683c-.63645,2.38508-1.39335,4.73856-2.12311,7.0979-.42771,1.38291-1.02279,2.72363-1.341,4.129-1.07911,4.76649-1.944,9.58507-3.15282,14.31684a15.616,15.616,0,0,1-2.57694,5.38116c-1.16687,1.55436-3.31546,1.48607-5.13379,1.682a1.92966,1.92966,0,0,1-1.453-1.09929,12.358,12.358,0,0,1-1.0745-4.59344c.36388-5.12986,1.03857-10.23757,1.58518-15.35469.13694-1.28227.29934-2.566.34633-3.85286A81.40341,81.40341,0,0,1,117.15,99.48377c.96753-3.1355,1.86183-6.29567,2.92463-9.39831a2.36675,2.36675,0,0,0-.29556-2.02031,9.31927,9.31927,0,0,1,4.4727-12.28967,33.22776,33.22776,0,0,0,5.283-2.81042,15.67808,15.67808,0,0,0,4.9942-5.75441,11.23286,11.23286,0,0,1,1.00051-1.636c.51447-.70678,1.27213-1.25425,2.03677-.62049.54018.44774,1.16421,1.41486,1.02432,1.96564-1.24642,4.908-.32085,9.74712.33474,14.57865A9.18516,9.18516,0,0,1,131.56266,91.52156ZM114.62208,141.45c2.76441.98177,3.31688.76585,4.303-1.52626a6.50362,6.50362,0,0,0,.31329-.91339c.87669-3.33328,1.73654-6.671,2.62074-10.00235,1.48146-5.58192,2.83273-11.20406,4.51407-16.7254a35.36362,35.36362,0,0,0,1.733-12.79052,4.17318,4.17318,0,0,0-5.04568-3.71985c-1.11758.25454-2.19516.58441-2.5601,1.87114-.93916,3.31144-2.13269,6.577-2.74662,9.94795-.80494,4.41918-1.18738,8.91789-1.68447,13.38985-.452,4.06683-.81765,8.14332-1.214,12.2163-.093.95648-.20342,1.91487-.223,2.8741C114.59637,137.8299,114.62208,139.58952,114.62208,141.45Zm20.12018-69.03942a12.88009,12.88009,0,0,0-2.31088,1.75643c-1.74269,2.189-4.22135,3.17179-6.66975,4.123-2.888,1.122-5.00271,4.46537-4.27489,7.467a3.2498,3.2498,0,0,0,1.49955,1.9837,46.27507,46.27507,0,0,0,5.64288,2.031,2.20812,2.20812,0,0,0,1.59813-.09509A24.77966,24.77966,0,0,0,134.14,86.99844a5.80225,5.80225,0,0,0,1.59612-2.56037C136.92388,80.506,135.19791,76.76744,134.74225,72.41054Zm-5.80192,21.335c-1.7577-2.04992-3.69872-2.3013-5.51127-2.73436-1.08413-.259-1.33779.26134-.925,1.94321C124.65817,91.4158,126.29867,94.1657,128.94033,93.74549Z"/><path class="a" d="M109.76055,100.20978c.57989,3.56469-1.27,6.30359-2.832,9.06617a47.91324,47.91324,0,0,1-3.79151,5.29239,8.46678,8.46678,0,0,1-4.03134,2.95894,7.69017,7.69017,0,0,0-4.124,3.18278c-.87687,1.38989-1.49955,2.77836-.82285,4.53416a15.40392,15.40392,0,0,1,.61978,3.54347c.36506,2.81985-.74194,4.79462-3.4927,6.15174-1.049.51748-1.83453,1.36988-3.173,1.5653-2.23806.32682-4.128-.533-6.00121-1.27727a30.99311,30.99311,0,0,1-12.81758-9.12811,33.66591,33.66591,0,0,1-7.22322-14.50206,18.85838,18.85838,0,0,1,.92244-10.21939,30.54857,30.54857,0,0,1,8.83358-12.7084,17.49622,17.49622,0,0,1,4.30545-2.60788c2.25934-1.03363,4.6175-1.85267,6.94149-2.74225a2.68637,2.68637,0,0,1,.94732-.13478c2.80879.005,5.62167-.05774,8.42455.079a10.04221,10.04221,0,0,1,3.48726.86765,26.58155,26.58155,0,0,1,9.01987,6.286c.74844.81679,1.65321,1.49594,2.36212,2.34229C109.13587,94.93361,110.22095,97.38556,109.76055,100.20978Zm-1.75545.40909c-.38711-1.53247-.40294-3.31989-1.242-4.54205a27.12817,27.12817,0,0,0-5.42723-6.09462c-3.136-2.446-6.51059-4.70449-10.87815-4.3951-1.90356.13484-3.88365-.32671-5.73183.01235a24.17909,24.17909,0,0,0-13.02993,6.32608c-.84679.83556-1.41687,1.94383-2.20136,2.85135a21.94737,21.94737,0,0,0-5.27889,11.9476,17.55943,17.55943,0,0,0,1.7,9.59627,34.42253,34.42253,0,0,0,8.12988,11.49141c.826.73683,2.04238,1.06011,2.80194,1.84274a16.285,16.285,0,0,0,7.08463,3.85794,6.96792,6.96792,0,0,0,6.87559-1.54381c1.74629-1.46979,1.4505-3.67848.90447-5.633-1.18809-4.25273.31181-7.91868,4.2129-9.85155.649-.32153,1.28377-.68335,1.95793-.94046a9.579,9.579,0,0,0,4.92015-4.00448c.5829-.94336,1.436-1.71716,2.04664-2.64662C106.4841,106.40581,107.97957,103.85023,108.0051,100.61887Z"/><path class="a" d="M111.92078,54.64181c-1.42508.56039-2.38085.913-3.31511,1.31527-.36488.15712-.66523.45915-1.02373.63713-.83467.41438-2.13535.59153-2.42512,1.235a6.28965,6.28965,0,0,0-.08694,3.30473c.37162,2.45721.88166,4.89417,1.36941,7.33259.10733.53675.40224,1.03437.52806,1.56946a5.202,5.202,0,0,1,.309,2.06144,8.46053,8.46053,0,0,1-2.54763,4.87375,3.85939,3.85939,0,0,1-6.2301-1.149,10.24389,10.24389,0,0,1-.77031-3.49108,3.42887,3.42887,0,0,1,2.905-3.82316c.69638-.18552,1.39671-.356,2.18505-.5561a4.512,4.512,0,0,0,.65784-4.0061c-.43533-1.95592-.68769-3.95628-.945-5.94707-.25886-2.00344.23138-2.50082,2.216-2.96893a19.752,19.752,0,0,0,3.32184-1.28345c.50808-.22319.93668-.62034,1.4278-.89055,3.12959-1.72191,4.79444-.63385,5.67421,2.54722.53409,1.93125.74112,3.95283,1.273,5.88487a6.192,6.192,0,0,0,1.45156,2.64653A3.57013,3.57013,0,0,1,119.0235,66.951a7.33746,7.33746,0,0,1-2.61944,4.9984c-1.44039,1.30124-4.66714.28114-5.73035-1.706-.22564-.42195-.3176-.91357-.52434-1.34778-.9482-1.99138-.923-1.93467,1.05913-3.1222a3.33718,3.33718,0,0,0,1.96679-3.3219C112.84759,60.00353,112.39861,57.57176,111.92078,54.64181Z"/><path class="a" d="M78.4682,93.29335a4.77189,4.77189,0,0,1,4.45911,5.99982,6.26464,6.26464,0,0,1-5.68922,5.35557c-3.76285.60971-7.079-3.12566-5.79956-6.619.2481-.67749,1.22716-1.10071,1.43844-1.776C73.8763,93.06073,76.79171,94.00356,78.4682,93.29335Zm2.07755,4.92434c-.03977-.238-.094-.63479-.17352-1.02645-.41654-2.052-1.16167-2.33378-2.9374-1.17592a2.45268,2.45268,0,0,1-1.2005.35513c-1.65.0594-2.31927,1.30245-2.829,2.5164a2.41151,2.41151,0,0,0,.41565,1.9462,3.56235,3.56235,0,0,0,4.5029,1.16229A3.71792,3.71792,0,0,0,80.54575,98.21769Z"/><path class="a" d="M69.79171,111.9669c-.21619-.55811-.44248-1.14232-.63621-1.64233.0825-.261.0844-.45909.18422-.553a7.3608,7.3608,0,0,1,3.64441-2.08263,5.17333,5.17333,0,0,1,6.162,6.71611,6.46174,6.46174,0,0,1-6.77666,4.99574,3.20805,3.20805,0,0,1-2.83746-1.48513A4.8287,4.8287,0,0,1,69.79171,111.9669Zm2.83373,5.08767c2.12956.01064,4.14162-1.43073,4.55875-2.90817.32458-1.14973-.58344-3.65-1.76113-4.21168a2.67193,2.67193,0,0,0-2.19882.00174,8.90335,8.90335,0,0,0-2.121,2.24761c-.96966,1.26256-.494,2.68188-.00579,3.907C71.31939,116.648,72.33845,116.88723,72.62544,117.05457Z"/><path class="a" d="M85.58977,93.72292c.41341-1.18632.98715-2.92475,1.6285-4.63786A1.796,1.796,0,0,1,89.386,87.95572a39.01569,39.01569,0,0,1,5.49454,1.503c1.2752.47242,2.0386,2.79461,1.716,4.4068a7.56783,7.56783,0,0,1-5.91628,5.328C88.49147,99.39568,85.58818,96.62019,85.58977,93.72292Zm2.74355-.21424c-.0591,1.91561.9261,3.257,2.39923,3.2667,1.37993.00913,3.44979-1.93187,3.43266-3.219a3.149,3.149,0,0,0-3.07634-2.74228C89.02733,90.77734,88.39857,91.39216,88.33332,93.50868Z"/></svg>