<svg xmlns="http://www.w3.org/2000/svg" viewBox="0 0 200 200"><defs><style>.a{fill:#1586c8;}</style></defs><title>bbq</title><path class="a" d="M77.94176,131.24135a34.06615,34.06615,0,0,0-.3224,10.31293,10.39827,10.39827,0,0,1,2.08781,2.2498,3.384,3.384,0,0,1-.932,3.95691c-1.01343.99428-2.128,1.81372-3.83084,1.32095-3.04432-.88092-4.4057-2.51228-3.94748-5.33279.29661-1.82537,1.73927-2.92879,3.12711-3.82429a3.049,3.049,0,0,0,1.53812-2.71047,129.0089,129.0089,0,0,1,2.0026-14.157c.77762-4.7018,1.47363-9.41707,2.21389-14.12511a20.41372,20.41372,0,0,1,.554-2.87627,1.26917,1.26917,0,0,1,1.02686-.65124c.25016.01436.699.641.66237.94736-.36463,3.05421-.73144,6.11252-1.25816,9.14177-.536,3.08248-1.25674,6.13271-1.88311,9.19983a9.19182,9.19182,0,0,0-.052,1.218c2.13895-1.03044,4.05621-2.056,6.05415-2.88784a43.65857,43.65857,0,0,1,6.09395-2.13339,41.77722,41.77722,0,0,1,6.58769-1.05537c2.10188-.18,4.22925-.06229,6.57587-.07693-1.2604-4.86321-1.41038-9.6368-3.3128-14.0585-2.68619.02231-5.23131.06574-7.776.04887a14.97634,14.97634,0,0,1-1.90969-.30867c-2.64842-.36892-5.32654-.58877-7.94115-1.1212C79.52472,103.54982,75.74444,102.652,72.997,99.6a6.36342,6.36342,0,0,0-4.73673-1.9725,10.54044,10.54044,0,0,1-1.56854-.00792c-.90344-.18268-2.1972.36153-2.60539-.82775a6.2627,6.2627,0,0,1,.00385-4.61033c.157-.35638.84407-.54183,1.32362-.67792a17.19831,17.19831,0,0,1,1.97152-.32791,7.05369,7.05369,0,0,0-.3316-1.485c-.76018-1.55169-.58893-3.23978-.73643-4.87233a1.89389,1.89389,0,0,1,.6096-1.351A22.5572,22.5572,0,0,1,78.87358,78.109c1.67251-.25649,3.35736-.43851,5.02375-.72834,1.729-.30074,3.45664-.63342,5.15971-1.05407,3.6328-.89731,7.29746-.4892,10.95376-.34273,2.088.08364,4.17175.27742,6.25643.43533,3.18265.24107,6.39987.25135,9.43658,1.46194a4.99217,4.99217,0,0,0,1.52218.34657,11.94218,11.94218,0,0,1,5.24957,1.88764,16.02077,16.02077,0,0,0,3.46185,1.81846c2.01623.561,2.63246,1.9267,2.77224,3.85439a1.52919,1.52919,0,0,1,1.66184,1.26531c.16315.75059.811.92346,1.56774.75533a11.90093,11.90093,0,0,1,2.32827-.34539c.39778-.00759,1.13018.28268,1.14926.49008.11645,1.26429.87853,2.54443.17186,3.79734a2.06318,2.06318,0,0,1-1.2643,1.03287c-1.90985.16083-3.83443.14609-5.81621.19729-1.62247,2.03081-3.3301,4.24011-5.1265,6.37471a13.321,13.321,0,0,1-2.087,1.7341c-.41169.3218-.86146.59453-1.28845.89733a2.119,2.119,0,0,0-.795,2.59408c.80787,2.757,1.76123,5.49094,2.2949,8.30273a47.33733,47.33733,0,0,0,2.29412,6.98724,1.14765,1.14765,0,0,1,.12231.37154c-.07095,2.40413,1.08342,4.53106,1.55174,6.81426a31.217,31.217,0,0,0,1.154,3.74c.5066,1.48711,1.08933,2.94854,1.58324,4.43961a3.11668,3.11668,0,0,0,2.262,2.198,23.99878,23.99878,0,0,1,4.33843,1.72733,2.1347,2.1347,0,0,1,.2435,3.68691c-2.1567,1.596-6.557,2.889-9.486.5443-1.765-1.41288-2.38749-3.17882-1.26967-4.69889a4.52338,4.52338,0,0,1,1.54926-1.09246,1.41834,1.41834,0,0,0,.86683-1.7698c-.79316-2.47056-1.65628-4.91865-2.58592-7.65054a10.443,10.443,0,0,0-1.6738,1.07539,13.15079,13.15079,0,0,1-4.99857,2.99793,11.59461,11.59461,0,0,0-1.55482.803,7.99529,7.99529,0,0,1-3.25892,1.21122,14.74072,14.74072,0,0,0-3.35736,1.01287,1.12952,1.12952,0,0,0-.81515,1.3718c.21944,1.88331.43568,3.76726.6238,5.65389.13513,1.35439.22625,2.71324.33012,4.07062.03.39173.01492.78759.05713,1.17761.2913,2.69231.29642,2.66428,2.97245,2.85894a7.90617,7.90617,0,0,1,2.06936.5205c.95669.34634,1.75143.84944,1.79469,2.06412a3.48592,3.48592,0,0,1-1.49136,3.22661,7.857,7.857,0,0,1-4.49526,1.19473c-1.78116-.0324-2.85654-1.21594-3.64363-2.63036-.50534-.908.15567-1.75542.44919-2.60689a7.10728,7.10728,0,0,0,.703-2.367c-.16287-3.9801-.18611-7.98072-1.11277-11.89233-.36563-1.5435-.4-1.6103-1.91607-1.48076-2.2651.19355-4.52162.50845-6.78941.64485a28.73209,28.73209,0,0,1-11.79822-1.5286,58.32,58.32,0,0,1-7.08025-3.75132C78.86362,131.65712,78.56752,131.53506,77.94176,131.24135Zm-9.602-43.3745c.4383,3.02269.78628,3.36122,3.1648,3.4456a4.0968,4.0968,0,0,0,.58744-.0367c.81-.08866,1.148.3297,1.35968,1.07445a17.4973,17.4973,0,0,1,.28794,4.44838,2.27261,2.27261,0,0,0,.5296,1.54611,13.83733,13.83733,0,0,0,3.52442,2.42684A32.03558,32.03558,0,0,0,90.008,103.30932a2.4921,2.4921,0,0,1,1.15358.15844c1.85707.9862,3.84312.58652,5.78534.58578,1.01416-.00037,2.02831-.14693,3.26018-.24476-.18771-.81529-.32274-1.36487-.439-1.91839a7.17359,7.17359,0,0,1-.23-1.339c-.00981-.66217.33849-1.24745,1.01858-1.16562a1.63425,1.63425,0,0,1,1.04986.94482,12.56566,12.56566,0,0,1,.2586,1.93568c.28932,1.44164.65064,1.712,2.13967,1.70419,1.76852-.00928,3.54523.07309,5.30372-.06756a18.34374,18.34374,0,0,0,8.5527-2.46489c.93673-.59183,1.809-1.286,2.70876-1.93607a19.45237,19.45237,0,0,0,6.24556-7.40736c.68974-1.43683,1.36552-3.00915.56013-4.98a5.76711,5.76711,0,0,0-2.11421.08857,56.31992,56.31992,0,0,1-11.92909,3.67592c-1.70794.33949-3.47341.38949-5.21282.57033-.19491.02026-.39014.03876-.58561.05217-2.4658.16912-4.92969.424-7.39812.48145-2.548.05929-5.10035-.08384-7.65107-.11868-1.43365-.01957-2.88355.13838-4.29882-.023q-6.13464-.6994-12.24319-1.61971a30.52107,30.52107,0,0,1-4.28447-1.129C70.62457,88.77751,69.626,88.34735,68.33981,87.86685Zm37.64661,46.2851a2.43507,2.43507,0,0,0,.08709-.62181c-.48551-3.48264-.96222-6.9668-1.49206-10.44279a1.5067,1.5067,0,0,0-1.77081-1.41819c-2.07689.1244-4.16365.09777-6.238.2479a33.37379,33.37379,0,0,0-9.68335,2.33629,71.42928,71.42928,0,0,0-6.53881,3.07609c-1.6208.82839-1.75293,2.21353-.14649,3.13441a43.94989,43.94989,0,0,0,7.89268,3.85638c5.80633,1.91476,11.73415,1.02031,17.61137.06318C105.76257,134.37451,105.807,134.30405,105.98642,134.152Zm16.51245-10.31151a7.754,7.754,0,0,0-.46339-4.35523c-.84477-2.467-1.55171-4.98128-2.30924-7.478-.66277-2.18459-1.252-4.39423-1.99691-6.55028-.51693-1.49622-.94083-1.67341-2.35706-1.11028a21.36234,21.36234,0,0,1-9.43591,1.26906,23.51036,23.51036,0,0,0-2.85153.176c.40329,1.806.76925,3.31216,1.07216,4.83092.52159,2.615.98825,5.241,1.50984,7.856.24234,1.21525.60591,1.47545,1.89863,1.50508.91641.021,1.83316.0275,2.74979.03091C114.63632,120.03077,119.00508,119.871,122.49887,123.84045ZM83.79131,87.10734a4.35361,4.35361,0,0,0-.30737.68574c-.33631,1.56337-.10227,1.79454,1.5048,1.90657a2.5364,2.5364,0,0,0,2.24251-.93761c.37025-.4201.79509-.79208,1.4931-1.4783-.15648,1.16683-.25456,1.8983-.38621,2.88033,1.59173.059,3.01558.076,4.43374.17479a2.27682,2.27682,0,0,0,2.70789-1.69473c.18264-.62.417-1.23165,1.36539-1.33365l-.104,2.80389c2.57914.07607,5.02943.48342,7.57488-.39067l.4506-2.03337a8.71364,8.71364,0,0,0-1.778-.22028,11.00314,11.00314,0,0,1-5.16148-.91247c-1.9621-.78007-2.36565-2.63245-.7704-3.99026a5.72179,5.72179,0,0,0,2.07183-4.67621c-1.80723-.807-3.6262-.26574-5.42-.21869q-.76388,1.4327-1.52692,2.86587a2.19361,2.19361,0,0,1-.16857.35215,1.09371,1.09371,0,0,1-1.67666.29058c.10383-.48989.19226-1.04927.34577-1.5902.14661-.517.36086-1.01471.66718-1.8549-1.93126.26006-3.486.3804-5.00027.69528-2.01561.4191-2.55872,1.32-2.3716,3.55367.82388.71554,1.72169.315,2.60366.1461a9.06067,9.06067,0,0,1,1.52384-.28656,2.72837,2.72837,0,0,1,2.32982,1.52468,2.10066,2.10066,0,0,1-1.26648,2.38773,12.731,12.731,0,0,1-2.586.8594C85.69764,86.83525,84.784,86.938,83.79131,87.10734Zm24.16935,46.507a29.11926,29.11926,0,0,0,11.47305-4.40845,3.26557,3.26557,0,0,0,.411-5.27081,6.83088,6.83088,0,0,0-2.52264-1.44c-3.55289-1.03445-7.19368-.711-11.05746-.64826C106.43371,125.86981,107.574,129.55583,107.96066,133.6143ZM82.06235,86.75639A4.211,4.211,0,0,0,81.494,86.301c-1.72774-.97236-2.03558-2.68347-.60665-4.02053.8399-.78588.77476-1.66693.80032-2.80066-1.165.163-2.178.29973-3.18926.44771a2.061,2.061,0,0,0-1.71606,1.38012c-.54054,1.25178-1.25558,2.42823-1.89666,3.63658-.50165.94571-1.00353,1.8913-1.63349,3.07847,2.11934.33164,3.95037.68095,5.79725.89058C81.15423,89.15216,81.16037,89.098,82.06235,86.75639Zm24.05625,3.06715c1.64-.10569,3.248-.21329,4.85664-.31189,1.65282-.10132,1.82863-.30526,1.93162-1.9882a12.87054,12.87054,0,0,1,.33111-2.07635c.34773-1.516.82588-3.00782,1.08-4.53787a1.63672,1.63672,0,0,0-1.50684-2.11074,24.52994,24.52994,0,0,0-3.70581-.26826c-1.07034-.02071-1.15547.91-1.33627,1.6489-.15166.61956-.02315,1.17885.727,1.36852a5.09544,5.09544,0,0,1,2.80352,2.29026c1.03105,1.42215.93108,2.05954-.71412,2.81724a15.4798,15.4798,0,0,1-3.30507,1.15164C106.1689,88.0356,105.90465,88.584,106.1186,89.82354ZM114.77992,88.48a28.36973,28.36973,0,0,0,3.12873-.49015c1.37274-.38072,2.54575-.98712,2.2544-2.80838a3.89,3.89,0,0,1,.35737-1.48327c.52638-1.85749.16141-2.6477-1.64986-3.30936a8.08557,8.08557,0,0,0-1.90226-.369.99427.99427,0,0,0-1.20819.94957c-.25335,1.403-.66351,2.77989-.87363,4.18776A29.18814,29.18814,0,0,0,114.77992,88.48Zm-4.98019-3.38831c-.30188-1.48025-1.37974-1.73357-2.49854-1.9564a25.71318,25.71318,0,0,1-3.61224-.7963,4.673,4.673,0,0,0-5.73325,1.9111C99.83236,86.27878,107.38688,86.87392,109.79973,85.09174ZM68.095,85.36866c.884.44808,1.77578.93294,2.69624,1.35534a1.11288,1.11288,0,0,0,1.5022-.51585c.65545-1.02419,1.35918-2.02409,1.92569-3.096a10.04919,10.04919,0,0,0,.57124-2.03151C72.07508,81.40071,68.85843,83.45906,68.095,85.36866Zm38.08725-6.97222a2.80713,2.80713,0,0,0-.65339-.28348c-.77733-.0809-1.55716-.14627-2.33769-.1862-2.29035-.11718-2.63332.25053-2.53642,2.6759C103.69477,81.36926,105.59732,80.64975,106.18226,78.39644Zm15.9005,3.96036c-.235,1.15828-.541,2.30594-.67042,3.47319-.05546.50008.40657.76748.97478.58962a5.03849,5.03849,0,0,0,3.02439-1.901C123.88253,82.79485,123.85551,82.7768,122.08276,82.3568ZM82.89459,84.13707c.18167.391.24436.86785.4834.98511,1.55218.76124,3.00363.06751,4.424-.49277.18836-.0743.16575-.68325.24286-1.054Zm29.63275,70.66434c1.36836-.41434,2.04482-1.04058,1.79091-1.681-.38623-.97384-1.24943-.83528-2.20541-.8534Z"/><path class="a" d="M104.357,67.60882c-1.2761-.18226-1.79014-.61961-1.66665-1.50609.21519-1.54446.47627-3.083.74452-4.61944.24352-1.39454.84555-2.74877.41675-4.21173-.1602-.5463-.24748-1.11681-.44-1.6503a83.541,83.541,0,0,1-2.979-8.34052c-.76148-3.11852-1.027-6.37374,1.30681-9.14331.24051-.28548.52535-.5336.83342-.843,1.04121.87734.407,1.57924-.035,2.26536a7.07845,7.07845,0,0,0-.87647,6.35612c.67406,2.03956,1.28087,4.10143,1.96136,6.13875a27.35023,27.35023,0,0,0,1.21652,3.1042,7.65935,7.65935,0,0,1,.28735,6.05847,18.79385,18.79385,0,0,0-.52762,3.84429C104.50528,65.868,104.44417,66.67821,104.357,67.60882Z"/><path class="a" d="M112.74251,56.92453a52.60339,52.60339,0,0,1,3.323-4.58514c1.26724-1.41937,3.97226-.9061,4.87128.76723a1.43176,1.43176,0,0,1-.73218,2.1688c-.4466-.30661-.906-.66252-1.40407-.952-.44449-.25831-.93161-.44324-1.35971-.64192-1.46775.60686-1.78121,1.965-2.19242,3.16567-.14469.42242.22077,1.11636.52115,1.57686a7.50579,7.50579,0,0,1,1.316,5.18963,9.38527,9.38527,0,0,0,.18291,1.52811,7.24509,7.24509,0,0,1-.04822,1.73558.9446.9446,0,0,1-1.08378.89133c-.70789-.075-.82187-.55959-.82-1.1113a13.56446,13.56446,0,0,1,.09275-2.15337C115.88616,61.61437,114.66956,59.31578,112.74251,56.92453Z"/><path class="a" d="M82.05347,47.51984c.06524.20454.21845.42219.16371.55262-.86218,2.0552.1222,3.5137,1.54953,4.81062a8.769,8.769,0,0,1,2.89059,4.95979,15.02507,15.02507,0,0,1,.32886,2.69039c.00319,1.6936-.06267,3.39164-.21069,5.0781-.03548.40448-.50574.7708-.77609,1.15466-.32364-.26349-.782-.46384-.94153-.80424a2.67006,2.67006,0,0,1-.29266-2.03092c.87735-3.05015.85645-6.08846-.94289-8.85017a31.68,31.68,0,0,0-2.57757-3.11512,3.35406,3.35406,0,0,1,.22745-4.39984C81.58007,47.46789,81.83524,47.53249,82.05347,47.51984Z"/></svg>