<svg xmlns="http://www.w3.org/2000/svg" viewBox="0 0 200 200"><defs><style>.a{fill:#1586c8;}</style></defs><title>books</title><path class="a" d="M63.555,105.61842a2.53174,2.53174,0,0,1,2.59351-2.676c3.44671-.40178,3.53064-.40442,3.42084-3.8629a15.64406,15.64406,0,0,0-1.1041-6.03585c-.92488-2.066-.33631-3.41386,1.81532-4.1569a15.74337,15.74337,0,0,1,3.74-.66133c1.83859-.16182,2.04641-.31422,1.88956-2.19791-.14757-1.77227-.344-3.54055-.52214-5.31025-.14585-1.44928.23677-2.1434,1.62258-2.15859,2.32333-.02541,4.24727-1.0337,6.18391-2.01828-.04975-2.30754-.07249-4.56276-.16828-6.81488a4.52159,4.52159,0,0,0-.48132-1.37145c-.56323-1.40016-.1956-2.12793,1.27032-2.11422,1.84284.01721,3.68251.25344,5.526.34638q4.46093.2249,8.92519.38262,4.6989.16859,9.39985.27992c2.41328.06038,4.83309.00045,7.23941.15694,2.14538.13949,2.23533.42993,2.25478,2.68877a20.988,20.988,0,0,0,.41513,4.011c.31908,1.5567,2.44787,2.82738,3.98862,2.95077,4.46066.35728,8.97112-.26615,13.39933.71462.67865.15029,1.41259.03017,2.11138.11452,1.4929.18028,1.98951.70471,2.09527,2.19517a11.25349,11.25349,0,0,1-.04349,1.70772,12.93811,12.93811,0,0,0,.27064,5.65082c.52524,1.44785-.36969,2.54149-1.00911,3.68869-.86924-.17137-1.61524-.31841-2.526-.49794-.78822,3.1829-.31219,6.27924-.3771,9.52287.68813-.01579,1.2304-.04182,1.77246-.03813,1.71174.01167,2.52836.80673,2.341,2.52812-.23,2.11236-.63125,4.20584-.94485,6.3095a6.071,6.071,0,0,0-.12136,1.48047c.32394,3.17652,1.00458,3.68636,4.18985,3.94546a100.13939,100.13939,0,0,0,15.12914-.37415c1.05407-.07348,2.09034-.37925,3.14032-.54245.76559-.119,1.54157-.16952,2.31055-.26884,1.14215-.14749,1.67149.3355,1.8623,1.48607.25361,1.52941.75527,3.01811.99988,4.54839a2.76515,2.76515,0,0,1-.41639,1.779c-1.604,2.46061-1.68379,5.19084-1.525,7.96192.08456,1.47535-.325,2.11011-1.77943,2.382-2.51114.4694-5.00907,1.04472-7.53905,1.368-2.45551.31384-4.94214.44365-7.41912.51552-3.4824.101-6.97363-.03482-10.45181.12846-4.68879.22011-9.36458.72305-14.05364.93071-5.25877.2329-10.52655.25711-15.78958.402-2.20614.06074-4.41108.18244-6.61491.306-1.91246.10721-3.82282.25293-5.73372.38718-6.59494.46342-13.18447,1.039-19.78642,1.3557a79.0187,79.0187,0,0,1-13.21522-.18582,71.27322,71.27322,0,0,0-11.50052-.51236c-2.20476.09593-4.31838-.22293-6.47128-.27726-2.44951-.06183-4.92395-.35247-7.37931.56129a18.75936,18.75936,0,0,1-4.9981.71446c-.282.02264-.84308-.57144-.87974-.92192a17.11659,17.11659,0,0,1,.11124-2.55218c.04947-1.04275.07995-2.08639.11575-3.05172a2.36062,2.36062,0,0,0-.53523-.27091c-1.99277-.24572-1.98491-.24323-2.05325-2.06849-.02928-.782-.16464-1.565-.13319-2.34282a13.79454,13.79454,0,0,1,.35673-1.96455c1.18234.28816,1.20955,1.006,1.3228,1.71424.23161,1.44833.60239,1.79758,2.05942,1.8488.92232.03246,1.849-.0927,2.774-.09764,2.62688-.014,5.25419.02331,7.88078-.00722,3.83516-.04458,7.6706-.10236,11.50445-.2078,3.19462-.08784,6.39411-.16356,9.5781-.41422A38.27288,38.27288,0,0,0,69.9051,125.705a25.36913,25.36913,0,0,1,6.96086-.706,49.843,49.843,0,0,0,6.361-.55111,33.688,33.688,0,0,1,3.56543-.42888c3.7982.01927,7.43854-1.0378,11.163-1.50413,1.68841-.21142,3.37611-.45951,5.072-.57368,4.18132-.28141,8.36628-.51333,12.55161-.72922,2.69729-.13912,5.39834-.20342,8.09685-.321,5.18942-.22612,10.37635-.53285,15.56791-.678,3.69774-.10338,7.4024.06333,11.10206-.00087,3.98145-.06909,7.96066-.26689,11.92845-.40812a11.46134,11.46134,0,0,0,.74433-1.48307c.54208-1.70052.1916-2.09025-1.604-2.28908a40.27843,40.27843,0,0,0-6.13251.15174c-4.76164.19341-9.53457.09906-14.30249.157-.973.01181-1.94343.18828-2.91643.27269a7.77129,7.77129,0,0,1-1.00943.008,14.32517,14.32517,0,0,0-2.0751-.10206,60.36429,60.36429,0,0,1-13.62044.11188,13.20989,13.20989,0,0,0-3.18352.2111c-3.03248.38167-6.05021.91191-9.09162,1.1831-3.46664.3091-6.95939.32058-10.42834.61045-3.6729.30691-7.344.6988-10.99237,1.21883-4.07785.58125-8.11824,1.42393-12.19492,2.0149-4.98441.72252-9.98809,1.31385-14.98624,1.93961a98.5115,98.5115,0,0,1-15.04263.98587c-3.61811-.10284-7.23506-.26146-10.85025-.441a7.98075,7.98075,0,0,1-2.49994-.45392,2.70437,2.70437,0,0,1-1.28339-1.25689c-.30971-.62991.073-1.09422.8124-1.11153a3.11135,3.11135,0,0,1,.8461.10929c3.69414.96358,7.48585.88184,11.25347,1.07231a81.274,81.274,0,0,0,16.1734-.95538c.48528-.07267.961-.20893,1.69965-.37314-.079-1.772-.26165-3.52858-.21195-5.27856.08467-2.98194.29355-5.96134.51927-8.93662.02195-.28938.52673-.54216.80741-.81193.26405.28286.73878.554.75528.85061.067,1.204.0075,2.41638-.03151,3.62482-.08893,2.75441-.68126,5.53005.54866,8.21412a7.82265,7.82265,0,0,1,.25864,2.12614c1.73653-.22581,3.39754-.45519,5.06208-.65536,3.38106-.40665,6.77373-.73017,10.143-1.21666,2.59586-.3748,5.1653-.9361,7.743-1.43238A74.8211,74.8211,0,0,1,99.915,116.56154,110.91255,110.91255,0,0,0,117.74,114.898a8.37507,8.37507,0,0,1,1.70361-.07329c3.198.08039,6.39752.28749,9.59265.23128,2.267-.03984,4.52782-.42749,6.86852-.66784a8.38694,8.38694,0,0,0,.36274-1.22376c.354-2.61078.71263-5.2216,1.00961-7.83923.26783-2.3607-.13223-2.67632-2.42943-2.8754-6.31738-.5475-12.62024-.13047-18.922.19068-3.54143.18044-7.06767.65133-10.6087.84841-4.40357.24512-8.81522.34578-13.22362.50228-1.98932.07061-3.97883.14893-5.96893.18244-4.05615.06828-8.11355.0762-12.16891.17257-2.41057.05729-4.82542.16161-7.224.39319A18.38388,18.38388,0,0,0,63.555,105.61842ZM32.54928,134.40594a15.11183,15.11183,0,0,0,3.90914-.28944c2.85056-1.01468,5.72674-.78817,8.62658-.64614,2.338.11453,4.67566.2389,7.01447.334a57.77,57.77,0,0,1,6.15428.23484,84.81277,84.81277,0,0,0,16.83.65459c7.88941-.39568,15.7702-.962,23.65925-1.36652,6.25-.32045,12.50632-.52256,18.76085-.749,5.54491-.2008,11.09124-.36263,16.63694-.54222a1.504,1.504,0,0,0,.42539-.02841c2.208-.75389,4.50443-.46723,6.76614-.58194,4.40881-.22357,8.824-.364,13.22332-.70773,1.4515-.11338,2.84342-.84954,4.29642-1.11753,2.08835-.38518,3.3245-1.67409,3.137-3.7864a33.75287,33.75287,0,0,0-.82788-3.98388c-1.63551.12564-3.03838.31826-4.44237.32671-6.40645.03842-12.81465-.05548-19.21934.059-4.19279.075-8.37957.44788-12.57113.64258-2.40948.112-4.82613.07957-7.23419.21052-3.613.19651-7.22188.47212-10.83145.729-1.4837.10565-2.96421.25518-4.4469.3759a32.56794,32.56794,0,0,0-5.93792.53132c-4.5582,1.25409-9.26639,1.01932-13.87224,1.73476a40.73133,40.73133,0,0,1-9.13006.67821,3.46723,3.46723,0,0,0-1.04665.1765c-5.41548,1.36051-10.96073,1.6623-16.49861,1.99863-1.90338.11558-3.83771-.0759-5.71792.17384a28.237,28.237,0,0,1-9.74972-.01491,9.79534,9.79534,0,0,0-2.74372.01628c-1.13451.088-2.26383.25209-3.39213.407-.53916.074-1.0708.20274-1.621.3096ZM70.29344,90.62418c.38279,2.74242.68109,5.20634,1.07852,7.65419.68666,4.22912,1.09628,4.44454,5.36973,4.2621,5.97186-.255,11.95137-.326,17.92469-.553,4.26341-.162,8.525-.40745,12.78163-.69943,2.55219-.175,5.08808-.6483,7.64055-.74652,5.47231-.21061,10.95074-.26054,16.42642-.38648,1.30088-.02992,1.64226-.40366,1.64763-1.66486.00846-1.98449.07382-3.97023.015-5.95246a1.88946,1.88946,0,0,0-.65728-1.42478,7.16235,7.16235,0,0,0-2.78253-.87814c-3.41285-.20158-6.83485-.24282-10.25221-.37493-2.84132-.10985-5.68573-.4355-8.52038-.3583-5.253.14305-10.49746.726-15.75229-.01476a12.4007,12.4007,0,0,0-2.33124.078c-2.123.11023-4.247.34-6.36806.31359-2.90509-.03616-5.81066-.34384-8.66031.51963a1.24459,1.24459,0,0,1-.8258-.05384C74.82329,89.28266,72.73863,90.12834,70.29344,90.62418Zm32.54019-2.896c.71243.02642,1.27927.08755,1.84209.06144,2.62253-.12163,5.24344-.35907,7.86591-.37318,1.83832-.00994,3.67594.35555,5.51794.40661,3.058.08479,6.11926.0578,9.17919.06583,1.964.00513,3.92863-.04292,5.89159-.00139.70037.01479,1.39286.25817,2.09579.334.81521.088,1.51572-.25277,1.51842-1.1078.00692-2.18052-.12094-4.3615-.19319-6.49246a18.69821,18.69821,0,0,0-8.25582-1.47438c-.70505.03427-1.41412.00515-2.12074-.01528a49.635,49.635,0,0,0-6.17794-.15112,64.72108,64.72108,0,0,1-14.035.29321,7.18811,7.18811,0,0,0-3.9481.55186C101.05508,82.68572,102.77133,84.99671,102.83363,87.72821Zm-24.0598.2676c7.21459-.09219,14.1452-.1772,21.07551-.28354.24819-.00384.49317-.21846.769-.34868a20.71922,20.71922,0,0,1-.61-3.3186c-.04446-1.95924.11236-3.92307.18912-5.99282a14.765,14.765,0,0,0-1.89968-.14928q-8.56744.53263-17.131,1.12488a14.22089,14.22089,0,0,0-2.05232.52338A1.60555,1.60555,0,0,0,77.796,81.61851C78.0957,83.642,78.41483,85.66256,78.77383,87.99581ZM84.65413,76.633c.88307.03275,1.37154.073,1.85923.06519,2.20223-.03521,4.40453-.07311,6.60615-.13425A15.8867,15.8867,0,0,0,95.2488,76.382a21.67832,21.67832,0,0,1,7.64547.13605,15.00143,15.00143,0,0,0,3.80108.3021c2.03822-.14229,4.05613-.55337,6.09093-.77424,1.363-.148,1.75957-.43068,1.90124-1.789.09509-.91173.1454-1.82954.17915-2.746.06825-1.85321-.465-2.4427-2.32483-2.46143-1.48606-.015-2.97436.12294-4.45942.09045-2.97717-.06506-5.95559-.15084-8.92838-.31861-3.97125-.22412-7.94126-.49138-11.90477-.82366-2.38662-.20007-2.68667.0293-2.35826,2.3411a3.33846,3.33846,0,0,1,.12368.62753C84.90213,72.77375,86.04243,74.604,84.65413,76.633Z"/><path class="a" d="M72.08327,113.77052c-.151-1.35486.50929-1.82409,1.42681-1.96687,1.82459-.28388,3.65924-.50538,5.49243-.7309,1.32794-.16335,2.68282-.18277,3.98668-.454a89.07013,89.07013,0,0,1,19.06321-1.7289,8.94926,8.94926,0,0,1,2.31173.31894,4.83393,4.83393,0,0,0,3.89294-.13279,5.38321,5.38321,0,0,1,2.87282-.1426c.96827.10582,1.3394,1.11949,1.01643,2.72156-2.86885-.34347-5.79357.55092-8.72082-.5397a10.10511,10.10511,0,0,0-3.58134-.29559c-1.987.02942-3.97955.10678-5.95633.30086-3.09529.30386-6.18048.71288-9.26785,1.09448-2.31662.28629-4.6326.58067-6.94353.90892-1.05021.14915-2.08125.43888-3.13277.57136C73.74095,113.79645,72.91968,113.75049,72.08327,113.77052Z"/><path class="a" d="M102.41532,95.84944a2.44693,2.44693,0,0,1-.89155,3.113c-2.323-1.83233-5.04368-1.45455-7.72973-1.38415-1.48487.03891-2.97336-.04395-4.45976-.0876a6.84805,6.84805,0,0,0-1.69686-.09281c-2.22664.53548-4.337-.326-6.50508-.43391-.82725-.04116-1.40528-.34678-1.28727-1.287.09752-.7769.81635-1.18738,1.77713-.97823,6.10015,1.32811,12.26454,1.2616,18.44523.89251a4.60243,4.60243,0,0,1,.83973.00814C101.392,95.65986,101.87228,95.75717,102.41532,95.84944Z"/><path class="a" d="M119.85262,83.64724c1.83395-.13245,3.66884-.25323,5.5013-.404.60235-.04955,1.2843-.08392,1.33249.64246a1.60559,1.60559,0,0,1-.6846,1.32053c-.97007.36457-2.18273.90478-3.03681.61147-3.304-1.13471-6.59588-.65589-9.90874-.3807-.85066.07062-1.69577.26314-2.54472.27166-.33262.00332-.66874-.34506-1.00327-.53328.27723-.35758.49791-.94633.842-1.03048a21.62933,21.62933,0,0,1,3.52231-.53662c1.98284-.14756,3.97275-.20044,5.95968-.29316Z"/><path class="a" d="M102.76046,71.38463l-.0638,1.72022a4.63345,4.63345,0,0,1-3.06389-.15431,34.97915,34.97915,0,0,0-6.30806-.82072c-.93813-.09105-1.855-.09868-2.14026-1.58317a42.552,42.552,0,0,1,5.89968.12872C98.976,70.74906,100.926,70.54133,102.76046,71.38463Z"/></svg>