<svg xmlns="http://www.w3.org/2000/svg" viewBox="0 0 200 200"><defs><style>.a{fill:#ffb736;}.b{fill:#cb8d1f;}</style></defs><title>building</title><path class="a" d="M75.51867,61.9257c-.21431-.11446-.39613-.29122-.58446-.29846a13.95464,13.95464,0,0,0-2.54635-.28266,1.10437,1.10437,0,0,1-1.12144-.64674,1.183,1.183,0,0,1,.179-1.28952.67022.67022,0,0,1,.56333-.18832,15.13,15.13,0,0,0,4.00606.30832c.78026.03173,1.55736.13478,2.33735.18094.66939.03962.78606-.11945.75631-.79908-.027-.61736-.00482-1.23681-.00664-1.85533-.00118-.40172.02207-.80627-.01742-1.20441a2.03631,2.03631,0,0,1,.27923-1.28836c.49066-.86791.78767-.83513,1.59729-.57421a5.44878,5.44878,0,0,0,2.21411.121c1.38755-.10939,2.73819-.47237,4.12424-.53279a9.576,9.576,0,0,1,1.67241.17158c.3637.04914.72054.14816,1.084.20025.31774.04556.64.06667.961.08116.74967.03385,1.50147.09983,2.24922.07078a2.05334,2.05334,0,0,1,1.42551.45893c.22052.18085.47754.58445.41438.79778-.277.93559.19608,1.80868.125,2.71826a12.16243,12.16243,0,0,0,.03,1.53342c.02229.45675.14659.55745.5928.57818,1.019.04734,2.03757.10616,3.05663.15309a5.28018,5.28018,0,0,0,.56374-.02688c.79975-.04925,1.59893-.111,2.39929-.14613.80145-.03523,1.02846-.224.96995-1.01577-.0551-.74569-.20916-1.48351-.29348-2.22777a8.62374,8.62374,0,0,1-.0857-1.52834.93078.93078,0,0,1,.58765-.88888,1.30666,1.30666,0,0,0,.52414-.55428c.40529-.67174.97095-.92314,1.6163-.47547a8.68366,8.68366,0,0,0,3.83628,1.332,9.28545,9.28545,0,0,1,2.36922.76768,46.22159,46.22159,0,0,0,6.38739,2.22972,8.55656,8.55656,0,0,1,2.28747.72035c.68979.43051,1.54919.538,2.12888,1.20249.19269.22088.69968.2245,1.06389.22782.98964.009,1.98319.008,2.96879-.07,1.095-.08661,2.18379-.25684,3.27383-.40156A2.59129,2.59129,0,0,1,132,60.19207a1.34471,1.34471,0,0,1-1.60649,1.0264,5.87465,5.87465,0,0,0-1.73351.17981.84768.84768,0,0,0-.75213.71405,4.11656,4.11656,0,0,0-.07043.8003,2.333,2.333,0,0,1-.00138.56166,10.92032,10.92032,0,0,0-.15233,3.84449c.04563,1.13089.11415,2.26088.16056,3.39176.08036,1.9581.191,3.91608.21543,5.875a34.953,34.953,0,0,1-.25759,6.04362,40.281,40.281,0,0,0-.25645,4.19045c-.02956.53756-.06823,1.0747-.09144,1.61252-.02321.53747-.04124,1.07547-.04595,1.61337q-.02482,2.83021-.03856,5.66051c-.01065,1.72314-.00968,3.44644-.03573,5.16934-.00853.56358-.11558,1.12572-.12326,1.68925a9.72561,9.72561,0,0,0,.09345,1.68593,32.05961,32.05961,0,0,1,.03532,3.54748c.03908.74776.19122,1.48891.26022,2.236a19.60692,19.60692,0,0,1,.11581,2.08987,11.20988,11.20988,0,0,0,.08976,3.0518,10.5389,10.5389,0,0,1,.09188,2.17454c.05123,1.37177.12776,2.74284.16042,4.115a34.3095,34.3095,0,0,1-.0347,5.39386,9.50129,9.50129,0,0,0,.09688,1.99983.64546.64546,0,0,0,.203.42439,1.62694,1.62694,0,0,1,.48572,1.619,1.53383,1.53383,0,0,0,.18612,1.07923c.1252.18243.067.507.05311.76533-.0328.61214-.10726,1.22236-.12932,1.83464a13.03169,13.03169,0,0,0,.02962,1.53593c.05726.69532.14817,1.38847.24462,2.07977.08908.63842.16777,1.2819.31652,1.90758.24868,1.04592.55061,2.07916.827,3.11856a2.25875,2.25875,0,0,1,.0725.3971.9794.9794,0,0,1-1.19112,1.11931,2.87926,2.87926,0,0,1-.3932-.096c-.72587.255-1.32139.47554-1.92643.66583-.1055.03318-.25043-.08734-.37844-.0909a1.29685,1.29685,0,0,0-.61371.05542c-.39265.21142-.719.32916-1.06936-.0848-.09181-.10847-.3545-.1117-.53433-.09936q-1.08263.07428-2.16212.19258c-.58545.06386-1.17341.12737-1.75042.241-.943.18567-1.87341.43684-2.818.61279-.68565.12772-1.38581.17709-2.07914.2642-.50644.06363-1.0116.138-1.51873.19531a3.79636,3.79636,0,0,1-.72334.03232,27.34407,27.34407,0,0,0-5.62042.09435,4.08045,4.08045,0,0,1-1.91787-.07249,1.98038,1.98038,0,0,0-.8-.02687,15.50239,15.50239,0,0,0-2.119-.06c-.44523.09938-.91153.31986-1.3451-.05216a2.38037,2.38037,0,0,1-1.40248.19512c-.45261-.02506-.90684-.01958-1.3602-.03286-.24241-.00711-.48439-.03459-.72672-.03712-.9354-.00978-1.871-.02469-2.80627-.01637a26.84366,26.84366,0,0,0-4.3897-.04488,11.74644,11.74644,0,0,1-2.40362-.0721c-1.57846-.06538-3.16153-.07941-4.73309-.2212a15.57232,15.57232,0,0,0-1.80155-.28892c-.90936.01834-1.82055-.07322-2.73085-.07111a2.04061,2.04061,0,0,0-.92231.231,1.31343,1.31343,0,0,1-1.88087-1.38125,17.61634,17.61634,0,0,0-.3659-2.79237,20.95717,20.95717,0,0,1-.24208-3.20979,41.937,41.937,0,0,0-.16388-5.23352c-.06392-.805-.07686-1.61511-.16808-2.41661-.07568-.66492-.2995-1.31658-.33967-1.98124a29.38591,29.38591,0,0,1-.1476-4.978,6.34864,6.34864,0,0,0-.14568-1.18877c-.0736-.82537-.14431-1.65159-.18662-2.479-.03161-.6182-.02912-1.239-.02029-1.85827.02106-1.47772-.02781-2.96316.11249-4.43009a25.06348,25.06348,0,0,1,.20674-2.93815,16.36129,16.36129,0,0,0,.08905-4.63881,15.7269,15.7269,0,0,1,.042-2.70606,27.98189,27.98189,0,0,0,.25777-4.18165c-.02668-.69657-.1255-1.39106-.13649-2.08737a14.70887,14.70887,0,0,1,.0688-2.58211,33.73192,33.73192,0,0,0-.05723-5.96458c-.02106-1.62025-.28553-3.21222-.42293-4.81838-.01592-.186.02837-.37642.02843-.5648.00023-.72545-.01742-1.45108-.00692-2.17632.01051-.72651.08071-1.45343.06442-2.17881-.0332-1.47878-.11028-2.95653-.16261-4.435q-.03984-1.12545-.05584-2.2517a48.97122,48.97122,0,0,1,.24527-4.90865c.08087-.93539.02916-1.88308.02112-2.8251a3.87754,3.87754,0,0,1,.64763-2.68019C75.49648,62.212,75.48473,62.11191,75.51867,61.9257ZM78.385,143.62557a5.06148,5.06148,0,0,0,.55162.0908c.69035.048,1.38378.06078,2.07187.129.45109.04473.932.31414,1.33468.21612a9.1629,9.1629,0,0,1,2.71444.17712c1.55711.06628,3.11268.16812,4.66919.24949.1603.00838.32313-.03607.48383-.03012,1.04786.03874,2.09572.07946,3.143.13069.4276.02092.85326.0817,1.28086.10242.42952.0208.8611.00026,1.29046.02292.72345.03818.9276-.13045.907-.86207a1.401,1.401,0,0,0-.20365-.67753c-.3534-.5601-.20808-1.20388-.35325-1.79567.45715-1.08058.07794-2.19211.06254-3.27879-.02318-1.63455-.2882-3.26467-.42013-4.89912a10.67149,10.67149,0,0,1-.0415-2.21663c.10646-.81512.51289-1.35528,1.353-1.24948a13.77747,13.77747,0,0,0,2.17144.01627c.831-.02794,1.662-.08049,2.49047-.15144a20.59827,20.59827,0,0,0,2.48086-.28854,3.95571,3.95571,0,0,1,1.8252.029,4.001,4.001,0,0,0,.86843.06667c.296.0067.59355-.02893.88876-.01376.42611.02189,1.24035.539,1.28433.83278a16.47258,16.47258,0,0,1,.21025,1.83052c.05969,1.64006.06729,3.282.12229,4.92228.04689,1.39865.135,2.79588.19594,4.19413.01867.42857-.004.8589.01328,1.28757.0193.47952.09.95819.088,1.437-.00227.57194.03823.70084.58174.73983a20.415,20.415,0,0,0,2.32974.0469c.72014-.03086,1.436-.15721,2.1544-.23581.15995-.0175.323-.00433.48378-.01689a12.24844,12.24844,0,0,0,3.26227-.27475,10.50453,10.50453,0,0,1,1.31106-.39009c.84252-.17917,1.70322-.27992,2.53761-.48834.85089-.21253,1.78193.06949,2.582-.445.09086-.05842.2648-.00377.39632.02.52892.09552,1.05784.19216,1.58391.302.84118.17568,1.16137-.09779,1.07209-.93154a2.3429,2.3429,0,0,0-.05737-.39812,14.15888,14.15888,0,0,1-.49778-3.58314,36.44186,36.44186,0,0,0-.38488-3.67924,6.53017,6.53017,0,0,0-.53978-2.07855,2.87585,2.87585,0,0,1-.32943-2.18233,2.07611,2.07611,0,0,0,.01931-.64409c-.00189-.967-.02319-1.93434-.00456-2.90091.02179-1.13048.11733-2.26064.10775-3.39031-.00958-1.1283-.124-2.25531-.16521-3.38388a14.36222,14.36222,0,0,0-.064-2.57274c-.22672-1.00833.09333-2.05292-.31947-3.02872-.054-.12754.04524-.31335.04848-.47269a11.867,11.867,0,0,0,.004-2.47867,19.32762,19.32762,0,0,1-.293-3.12681c-.02693-.83282.03275-1.66806.03293-2.50223.00051-2.42238-.03036-4.84494-.01005-7.26711q.03519-4.19885.143-8.397c.03979-1.50567.14669-3.01.24568-4.51354.11123-1.6895.24983-3.37719.37216-5.066a8.32616,8.32616,0,0,0,.111-2.16622c-.42219-2.08789.11264-4.19558-.24709-6.282a13.57983,13.57983,0,0,1-.022-2.42212,8.71415,8.71415,0,0,1-.11392-2.37428.24116.24116,0,0,0-.02012-.1586,3.741,3.741,0,0,1-.17414-1.74812,2.13473,2.13473,0,0,0-.10477-.79086,3.14712,3.14712,0,0,1-.20385-1.89776,3.68838,3.68838,0,0,0,.04326-.64518.43006.43006,0,0,0-.497-.49614,20.02411,20.02411,0,0,0-2.07249.20945,3.95157,3.95157,0,0,1-2.14921.00034,1.95312,1.95312,0,0,0-.63421-.08548c-1.13045-.02115-2.26116-.02793-3.39168-.04667a8.70576,8.70576,0,0,0-2.32485-.01716c-1.2181.33034-2.498-.15185-3.66993.40223-.06151.02907-.16024-.03351-.238-.02388-.87829.10885-1.74869-.246-2.64393.00856a2.944,2.944,0,0,1-1.27518-.05614,3.13616,3.13616,0,0,0-2.81174.47722,1.29363,1.29363,0,0,1-.25325.13888c-.9583-.31809-1.83111-.86777-2.88024-.58244a1.98691,1.98691,0,0,1-.48326-.01135c-1.31571.007-2.63141.02069-3.94712.02307a7.90945,7.90945,0,0,1-1.59172-.05333c-.5196-.10706-1.10014.49121-1.56382-.14725-.02524-.03476-.19743.04313-.30266.05916a2.45537,2.45537,0,0,1-.4781.05583,27.74977,27.74977,0,0,0-4.80159-.01864,4.42677,4.42677,0,0,1-.86263-.06838,6.33661,6.33661,0,0,0-.88273-.05255c-1.05716.06749-2.11179.17788-3.1694.23409-.778.04134-1.56007.0015-2.33849.03767a7.7294,7.7294,0,0,1-2.50932-.46c-.77649-.22455-1.311-.04358-1.39427.77328-.11437,1.12155-.11736,2.25531-.14716,3.3844-.0312,1.18253.05915,2.37766-.08476,3.545a14.20427,14.20427,0,0,0,.01637,2.89117,13.52835,13.52835,0,0,1,.01585,4.26275,1.95658,1.95658,0,0,0-.013,1.03585,4.9955,4.9955,0,0,1,.039,2.98671,2.58189,2.58189,0,0,0,.11743,1.81318,2.44769,2.44769,0,0,1,.15756.94083,21.90915,21.90915,0,0,0,.06027,2.66393,23.08747,23.08747,0,0,1,.21329,5.37792,2.17389,2.17389,0,0,0,.02322.56437,4.7424,4.7424,0,0,1,.029,1.92347,1.87381,1.87381,0,0,0-.006.48381c.05933,1.20909.146,2.41754.17075,3.62727a7.96632,7.96632,0,0,1-.19451,1.344,3.00262,3.00262,0,0,0-.07111.47582c.01295,1.3152.03481,2.63031.05444,3.94544a2.92915,2.92915,0,0,1-.16445,1.50791,1.06607,1.06607,0,0,0-.03249.47c.00174.319.03045.6387.01586.95664-.02469.53793-.08385,1.07423-.11136,1.6121-.04523.88448-.0874,1.76939-.10962,2.65466a5.5979,5.5979,0,0,0,.05263,1.35992,3.78658,3.78658,0,0,1-.13577,2.062,3.10769,3.10769,0,0,0-.13514.94766c.00326,1.42352.0245,2.84708.0515,4.2704.01063.5606.07521,1.12061.07469,1.68086-.00047.50152-.08332,1.00308-.08155,1.50446.00227.64157.04706,1.28332.08478,1.92433a5.10844,5.10844,0,0,0,.12112,1.2813,8.49964,8.49964,0,0,1,.41558,3.72935,2.47372,2.47372,0,0,0,.04351.71363c.05991.3379.18643.66579.22733,1.00485.06671.55291.021,1.12625.14178,1.66425a11.44417,11.44417,0,0,1,.19,2.89318,5.49081,5.49081,0,0,0,.05064.63452,5.95091,5.95091,0,0,1,.105,1.423c-.23375,1.41845.34953,2.77566.243,4.177-.00368.04842.04241.0987.05514.1506C78.15512,142.66726,78.2522,143.07383,78.385,143.62557Zm29.21539,1.03523c-.041-.26457-.18669-.56613-.0921-.71374a2.29043,2.29043,0,0,0,.17585-1.33065c.022-1.04964.02-2.10026.0026-3.15007-.00887-.53539-.07668-1.06959-.10872-1.60488-.02562-.428-.053-.85694-.05179-1.28538.00186-.64452.03572-1.2889.04155-1.93347.00485-.53679-.02626-1.0741-.01446-1.61059.02184-.99294-.29455-1.43849-1.28848-1.46909-1.13087-.03482-2.24377-.5068-3.38988-.14951a.23385.23385,0,0,1-.15953.004c-.63891-.34378-1.19232.07988-1.78025.19137q-.81838.15519-1.63879.29949a6.83892,6.83892,0,0,1-.94116.14219c-.58421.01976-.81224.28031-.73634.86684.0548.42347.0809.85088.11263,1.27707.07176.96391.1348,1.92847.20932,2.89216.08712,1.12672.16406,2.25471.28094,3.37846a4.07489,4.07489,0,0,0,.53492,2.30371,1.39218,1.39218,0,0,1,.13216,1.31776,3.28137,3.28137,0,0,0-.08642.71854c.84707.04734,1.59335.09451,2.34024.12787a5.61489,5.61489,0,0,0,.8056-.01845,13.20079,13.20079,0,0,1,4.31543-.00739A2.07677,2.07677,0,0,0,107.60043,144.6608Zm-13.69711-84.325.15519-.23551a3.06533,3.06533,0,0,0-.51486-.74937.9761.9761,0,0,1-.39629-.82516c-.01229-.69585-.05549-1.3912-.06514-2.087-.00545-.39264-.166-.597-.56672-.62943-.37349-.0302-.7447-.13486-1.11643-.13244-1.59881.01036-3.13047-.70427-4.75405-.42957a1.4162,1.4162,0,0,1-.55679-.0775.96615.96615,0,0,0-.91443.1495.73545.73545,0,0,1-.36414.15931c-1.01024.09988-2.02178.1869-3.0333.2735-.16048.01374-.324-.00626-.48406.01a.54888.54888,0,0,0-.56654.56354,17.378,17.378,0,0,0,.00431,2.24336c.15346,1.35744.27821,1.44973,1.67024,1.47317.6917.01164,1.385-.10015,2.07747-.09895.93606.00161,1.87187.0637,2.80807.08937.71153.0195,1.42351.02363,2.13532.03118a.48831.48831,0,0,0,.15532-.04145,6.18842,6.18842,0,0,1,2.71556.02744C92.83328,60.10211,93.36649,60.23765,93.90331,60.33579Zm22.56293-.59893.03056-.18972a4.26834,4.26834,0,0,0-.6503-.36938c-.85555-.309-1.74322-.54037-2.57329-.90466a4.16756,4.16756,0,0,0-1.60355-.47415.58379.58379,0,0,1-.36525-.14774c-.832-.81822-1.97746-.81534-2.99442-1.06383a10.55124,10.55124,0,0,1-3.292-.95191c-.558-.34624-.87776-.11367-.862.52441q.03392,1.37157.09623,2.74237c.03843.81615.28943,1.13967,1.12284,1.18723,1.98589.11333,3.97648.23752,5.96328.2117,1.52183-.01976,3.04113-.25841,4.56053-.41007A3.44909,3.44909,0,0,0,116.46625,59.73686Z"/><path class="b" d="M102.98621,76.28563a8.93929,8.93929,0,0,0,.31248,3.25778,11.8735,11.8735,0,0,1,.57369,3.47726,4.46579,4.46579,0,0,0,.09187.87907,1.416,1.416,0,0,1-.995,1.706c-.27545.10343-.53841.24233-.81745.33318a2.20593,2.20593,0,0,1-.521.06068c-.44733.0319-.89465.07235-1.34265.08437a6.3778,6.3778,0,0,1-1.5965-.0174,19.28024,19.28024,0,0,0-3.85532-.15573,17.391,17.391,0,0,0-2.21655.24689,12.20488,12.20488,0,0,1-2.40559.01149,12.889,12.889,0,0,0-3.644.44086,16.001,16.001,0,0,1-2.73186.19387,1.53306,1.53306,0,0,1-1.57874-1.55729c-.04155-.364-.2604-.70552-.321-1.07015a14.70328,14.70328,0,0,1-.36318-2.21528,17.59085,17.59085,0,0,0-.44239-2.295c-.10113-.65741-.11019-1.32868-.16852-1.99307-.03963-.4514-.09315-.90161-.142-1.35217a7.395,7.395,0,0,1-.11991-1.1814c.03845-.6946.33186-.89158,1.03734-.91227a4.33862,4.33862,0,0,0,.99431-.22259c.43918-.12128.86531-.30674,1.311-.38416a16.79778,16.79778,0,0,1,3.43875-.37065c.95415.03052,1.91406-.26817,2.87676-.31829a13.43764,13.43764,0,0,1,3.69177.021,52.66961,52.66961,0,0,0,5.75617.58181,5.31313,5.31313,0,0,0,1.20279-.07491c1.12222-.122,1.41907.1005,1.77848.91727A3.23917,3.23917,0,0,1,102.98621,76.28563Zm-.92557,7.56827a3.08389,3.08389,0,0,0-.0061-.463c-.30743-1.66235-.60438-3.327-.94152-4.98334a3.16625,3.16625,0,0,1,.00325-1.66859,2.01293,2.01293,0,0,0-.0185-.71661.43939.43939,0,0,0-.53721-.454c-1.07553.08392-2.10772-.453-3.19464-.22418a.71117.71117,0,0,1-.24-.02626c-1.30208-.20307-2.6012-.42827-3.90717-.602a6.90634,6.90634,0,0,0-2.23985-.07865c-1.00146.1905-2.01442.335-3.02863.43882-.66224.06776-1.34979-.0541-1.99984.05916a13.96066,13.96066,0,0,0-1.98821.63694c-.2796.09389-.55384.20441-.83535.29182a.58275.58275,0,0,0-.42606.67993c.02862.74554.05329,1.49265.03693,2.23818a18.51716,18.51716,0,0,0,.68146,4.04087c.08855.4426.26035.868.382,1.30469.07224.25921.20567.44966.49.45646.40287.00963.80775.01452,1.20914-.01469a.77111.77111,0,0,0,.76792-.69772c.10853-.66435.19687-1.33258.32642-1.99275a1.30539,1.30539,0,0,0-.38323-1.32383,2.16911,2.16911,0,0,1-.27807-.45975,2.37954,2.37954,0,0,0-.3372-.49408,1.24352,1.24352,0,0,1-.22051-1.58427,6.159,6.159,0,0,1,2.01935-1.91794,2.12373,2.12373,0,0,1,1.20961-.38857,1.51139,1.51139,0,0,1,1.44145.83994,6.43822,6.43822,0,0,1,.44794,4.25042c-.45817.57341-.20977.94509.31018,1.31593a.90483.90483,0,0,1,.28362.69134c-.06762,1.08748-.06322,1.1186,1.00611,1.22862a2.54531,2.54531,0,0,0,.48434.00346c1.01431-.09073,2.027-.20191,3.04246-.27613a11.60677,11.60677,0,0,1,1.28429.02218,4.57782,4.57782,0,0,0,2.384-.16251c.15433-.07749.40862.01777.60964.06434A6.09194,6.09194,0,0,0,102.06063,83.85391Z"/><path class="b" d="M99.32653,109.2031a1.567,1.567,0,0,0-1.23312-.89749c-1.73166-.40271-3.42516.0326-5.13347.03012-.40281-.00058-.80564.00054-1.20842-.00347-.13436-.00134-.29094-.066-.3994-.01722-1.03663.46588-2.12678.08732-3.189.19957a13.59774,13.59774,0,0,1-2.488-.179c-.21024-.01732-.45549-.10093-.62568-.02387a2.41312,2.41312,0,0,1-1.65673-.10414,1.19553,1.19553,0,0,1-.79746-1.187,9.637,9.637,0,0,0-.37822-2.61945,1.64665,1.64665,0,0,1-.04465-.39709c-.001-1.15094-.01546-2.30238.01512-3.45258.01113-.41832.24988-.85768.17057-1.24339-.07343-.35709-.4891-.62949-.6532-.98566-.23628-.51281.02036-.93775.53787-1.23417a1.83046,1.83046,0,0,1,1.37693-.10809,10.35844,10.35844,0,0,0,2.22419.133,32.03442,32.03442,0,0,1,3.51383-.19317c1.54055.1252,3.08523.01286,4.62778.2349a21.44626,21.44626,0,0,0,3.12419-.07625,17.25115,17.25115,0,0,1,1.8456.13643.835.835,0,0,1,.69832.58974,5.50676,5.50676,0,0,1,.4775,2.10326c.02114,1.55652.09567,3.11261.16711,4.668a13.98867,13.98867,0,0,0,.16853,1.52224,1.622,1.622,0,0,0,.236.49762c.126.22392.37944.44332.37448.66a6.14769,6.14769,0,0,1-.25189,1.41639c-.03.11307-.23915.21051-.38431.2547C100.08469,109.03559,99.71765,109.10884,99.32653,109.2031Zm-5.23892-3.04266a.9043.9043,0,0,0-.49839-.861,1.33968,1.33968,0,0,1-.56605-1.41344c.03406-.23848.17712-.50291.11357-.70653-.25333-.81162.27025-1.35515.65447-1.90311a1.818,1.818,0,0,1,2.69669-.06829c.50444.52014.41,1.12018.446,1.72786a3.9002,3.9002,0,0,0,.21069,1.55216,1.08964,1.08964,0,0,1,.08607,1.1099,4.401,4.401,0,0,0-.17477.58282c.22626.01264.38185.02612.53764.02923.80969.01618.914-.10533.76485-.87436-.03547-.183-.14164-.40881-.07422-.5452.26351-.53307.04574-1.05431.03312-1.57925a4.98212,4.98212,0,0,1-.00775-.80275,6.66525,6.66525,0,0,0-.24853-2.86257c-.10264-.34488-.28647-.5851-.69169-.52466-1.182.17628-2.36306-.313-3.54571-.00448-.04678.0122-.1044-.02523-.15767-.02865-.96577-.062-1.931-.13711-2.8977-.17906-.99349-.0431-1.98831-.06088-2.98276-.07288a7.13533,7.13533,0,0,0-.71344.09282,5.13385,5.13385,0,0,1-2.531.01527,1.27864,1.27864,0,0,0-1.38637.26838,3.61789,3.61789,0,0,1,.68283,2.83588A13.55542,13.55542,0,0,0,84.126,105.549c.09859.5473.33959.71272.8924.72768a8.9492,8.9492,0,0,1,1.03868.06879c1.10462.15994,1.54055-.18828,1.218-1.43817-.02658-.103-.0956-.19475-.125-.29742-.17741-.61934-.37056-1.23533-.51628-1.86225a1.227,1.227,0,0,1,.50571-1.48006c.67736-.42831,1.30558-.93622,1.99293-1.34621a1.12881,1.12881,0,0,1,1.47713.01668,12.47936,12.47936,0,0,0,1.1353,1.00267.87567.87567,0,0,1,.32245,1.13437,10.56147,10.56147,0,0,1-.66363,1.46143c-.212.37174-.298.73-.00454,1.04092a1.65449,1.65449,0,0,1,.4065,1.63551c-.01336.05736.06715.13659.11172.22Z"/><path class="b" d="M109.10268,96.76438c.96779-.01159,1.94138.038,2.90167-.05281a19.94833,19.94833,0,0,0,2.60984-.4922,10.97858,10.97858,0,0,1,3.92668-.17027,11.64026,11.64026,0,0,0,1.73616.28725c.42393-.00665.68945.3876.763.82154.13438.79341.27633,1.58708.3654,2.38618a15.75016,15.75016,0,0,0,.21728,2.48069c.26131.93062-.02587,1.94812.53012,2.82653.09408.14864-.043.54-.18992.72816a6.14323,6.14323,0,0,1-2.51966,1.779.4857.4857,0,0,1-.31232-.01993,6.66784,6.66784,0,0,0-3.65981-.16155,6.85021,6.85021,0,0,1-1.7453.07078c-.85523-.04113-1.7078-.14169-2.56064-.22566a2.90669,2.90669,0,0,1-.62185-.1185,1.88607,1.88607,0,0,0-1.26288-.05628,1.56336,1.56336,0,0,1-.55846.05064q-1.53013-.05348-3.05962-.12473c-.81853-.03784-1.11381-.29618-1.2481-1.08167-.10346-.60511-.23571-1.20825-.28948-1.81807-.05421-.61484-.0261-1.23684-.0365-1.85567-.00814-.48417-.02235-.96824-.02964-1.45242-.01049-.69678-.02522-1.39366-.02235-2.09044.00169-.41149.306-.60173.62123-.77642.39816-.22068.78009-.4759,1.19332-.66239a2.86334,2.86334,0,0,1,.99136-.27555c.75146-.04059,1.50661-.013,2.26026-.01313Zm8.55794,8.11615c.1342.05791.27572.17427.41146.16787.55844-.02629,1.11769-.07252,1.67033-.15416a.44658.44658,0,0,0,.281-.33308,6.20589,6.20589,0,0,0-.2116-1.59011,2.84912,2.84912,0,0,1-.19464-1.41064,1.15473,1.15473,0,0,0-.04241-.55923,5.41163,5.41163,0,0,1-.25317-1.57844,1.44631,1.44631,0,0,0-.44625-1.05358,3.1292,3.1292,0,0,0-2.145-.52106c-.78691.15667-1.58565.26256-2.38342.35377-.95263.10892-1.90891.18974-2.86517.26211a20.96174,20.96174,0,0,1-2.9767.15233,4.99279,4.99279,0,0,0-1.72781.18042c-.6514.18175-.8249.39192-.74044,1.02961a1.35443,1.35443,0,0,1-.12913,1.00857.65.65,0,0,0-.06651.38513c.05557.6972.11641,1.39425.19243,2.08949.15346,1.4035.63879,1.80215,2.06131,1.713.05385-.00338.10766-.0084.16155-.00957a8.64209,8.64209,0,0,1,3.7515.26619.47076.47076,0,0,0,.43337-.09133c.22208-.28435.53382-.52114.48663-.97166a3.59191,3.59191,0,0,1,.03137-1.2858,1.08334,1.08334,0,0,0-.31913-1.09137,1.18376,1.18376,0,0,1-.09212-1.56128,4.4947,4.4947,0,0,1,.96268-1.07442.9056.9056,0,0,1,1.12307-.14456,1.14533,1.14533,0,0,0,1.06076.15506,2.83523,2.83523,0,0,1,.62126-.01913,2.62421,2.62421,0,0,1,.48721,2.37583,1.05443,1.05443,0,0,0,.22534.8871C118.06649,103.60956,118.08305,103.59463,117.66062,104.88053Z"/><path class="b" d="M123.28449,79.553a10.4896,10.4896,0,0,0,.30665,3.49726,2.04183,2.04183,0,0,1-1.1973,2.30756,3.01952,3.01952,0,0,1-1.9524.38131,24.2463,24.2463,0,0,0-4.34756-.138,18.22431,18.22431,0,0,1-1.90985-.19181,8.38668,8.38668,0,0,0-1.1243-.07394c-.71368.02718-1.42093-.075-2.14205-.018a5.25789,5.25789,0,0,1-1.6523-.3008,1.55083,1.55083,0,0,0-1.01-.037c-.56928.20972-.77228.03951-1.15016-.42311a3.64047,3.64047,0,0,1-.623-2.25445c-.10565-1.501-.35974-2.991-.53039-4.48807-.10035-.88029-.17375-1.76435-.2321-2.64851a1.06857,1.06857,0,0,1,1.26727-1.17737,4.55115,4.55115,0,0,0,1.674-.09663,13.45649,13.45649,0,0,1,1.76257-.11182c.69757-.029,1.39715-.02406,2.0932-.07225.96533-.06682,1.92678-.19832,2.89266-.24522a12.7344,12.7344,0,0,1,1.59279.10567,1.61923,1.61923,0,0,0,.47628.0491,20.30262,20.30262,0,0,1,3.61392-.08327,1.81044,1.81044,0,0,1,1.79605,1.86071,6.3128,6.3128,0,0,0,.067.88175c.11485.90495.24531,1.80792.3557,2.71338A3.24792,3.24792,0,0,1,123.28449,79.553Zm-8.97961,3.66151a3.341,3.341,0,0,1,.55767-.12929c.1949-.01329.49153-.04389.57441.06359.42113.54609.91278.30151,1.40107.19664a3.44762,3.44762,0,0,1,.93209-.1816,5.42959,5.42959,0,0,1,2.66178.46583,1.05238,1.05238,0,0,0,.38584.11421.57.57,0,0,0,.72236-.68566,2.64015,2.64015,0,0,1-.07552-.78835,9.02886,9.02886,0,0,0,.04024-2.96177,14.82867,14.82867,0,0,1-.22047-2.31018,1.38122,1.38122,0,0,0-1.05129-1.43569,5.87019,5.87019,0,0,0-2.45185-.40066c-1.78579.07518-3.57182.18177-5.352.34007-1.25553.11166-2.5064.301-3.75034.50943-.91269.1529-1.06837.3466-.98934,1.23719.13071,1.47293.30392,2.94275.49123,4.40978.14239,1.11512.47717,1.36251,1.59623,1.35443a.65791.65791,0,0,0,.74318-.56555,4.21417,4.21417,0,0,0-.026-2.07793,2.21684,2.21684,0,0,1,.07545-1.57682,1.74183,1.74183,0,0,0,.11247-.54926,1.336,1.336,0,0,1,1.70852-1.305,4.08371,4.08371,0,0,0,.60984.18252.81363.81363,0,0,1,.8979.52194,1.37113,1.37113,0,0,1,.12689,1.16087,2.13118,2.13118,0,0,0,.13641,2.08627,1.80475,1.80475,0,0,1,.08937,2.15678C114.24207,83.05827,114.26523,83.09426,114.30488,83.21451Z"/><path class="b" d="M97.95137,122.68442c-1.31887.02752-2.64115.00753-3.95522.10189a4.379,4.379,0,0,1-2.06225-.02352c-1.42361.36838-2.8265-.27049-4.24375-.08949a7.67122,7.67122,0,0,1-2.16353-.00355,1.66445,1.66445,0,0,1-1.03116-.55,6.68569,6.68569,0,0,1-1.44115-2.82079,7.48235,7.48235,0,0,1-.38936-2.68238c.03445-.4742-.12669-.96-.11935-1.43933a2.01057,2.01057,0,0,1,1.86964-1.96856c.614-.04089,1.23466.01765,1.8523.03247.241.00578.48263.03034.72267.0189,1.44832-.069,2.89554-.16993,4.34454-.21264,1.15193-.03394,2.306-.00789,3.45885.00682.69115.00881,1.38432.01954,2.07222.07948a1.4626,1.4626,0,0,1,1.43593,1.17569,27.4423,27.4423,0,0,1,.98143,3.90021c.03037.23943.01128.48708.05924.72191a12.53115,12.53115,0,0,0,.316,1.245.55882.55882,0,0,0,.60955.42341,1.55872,1.55872,0,0,1,.63032.10015.63193.63193,0,0,1,.26746,1.09671,2.415,2.415,0,0,1-2.165,1.00559,10.0462,10.0462,0,0,0-1.04839-.06447Zm-.83358-2.233c.022-.394.0458-.679.05106-.96437a1.23474,1.23474,0,0,0-.042-.54569,3.55641,3.55641,0,0,1-.33982-1.7163,2.97188,2.97188,0,0,0-.2203-.9352c-.26163-.79412-.49633-.9438-1.34781-.99264-.34356-.0197-.68107-.13254-1.02487-.16277-.95965-.08436-1.9211-.14857-2.88211-.21682a.21542.21542,0,0,0-.15091.04759c-.36684.36449-.79746.20681-1.21955.16711a1.95925,1.95925,0,0,0-.71929.01152,7.817,7.817,0,0,1-3.43819.16032c-.6835-.10125-.94564.14333-.90966.86386.0477.95554.17719,1.907.2681,2.82552a5.36631,5.36631,0,0,1,.73361.371,1.89115,1.89115,0,0,1,.49086.50881,1.4464,1.4464,0,0,0,1.652.74638,2.84585,2.84585,0,0,1,.715-.01943c1.15118.09664,2.29994.226,3.45226.30385a3.81454,3.81454,0,0,0,2.20705-.26409,1.0347,1.0347,0,0,1,1.00242.02394,1.51638,1.51638,0,0,0,.845.04816A5.74466,5.74466,0,0,0,97.11779,120.45143Z"/><path class="b" d="M121.25524,116.10949c.11227.74037.22249,1.48106.33734,2.221.13145.84694.27736,1.69178.39775,2.54026a2.84928,2.84928,0,0,1-1.49343,2.38884.42253.42253,0,0,1-.31068.00684,2.5156,2.5156,0,0,0-1.47731-.23406,4.61135,4.61135,0,0,1-1.4046-.26545,4.53956,4.53956,0,0,0-2.21641-.10165,15.13717,15.13717,0,0,1-2.73142-.12539c-.77507-.015-1.55134.03778-2.32666.02792a11.6763,11.6763,0,0,1-1.75074-.11606,1.77246,1.77246,0,0,0-1.36969.29644,2.301,2.301,0,0,1-.89212.32558.56036.56036,0,0,1-.68919-.51952,1.60734,1.60734,0,0,1,.127-1.25326,2.876,2.876,0,0,0,.37075-2.17869,14.48968,14.48968,0,0,1-.01012-4.476.95888.95888,0,0,0-.14259-.74942,1.02709,1.02709,0,0,1,.9472-1.5556c.48256.00393.96769.06474,1.4469.03146,1.04079-.07229,2.07692-.21793,3.11816-.27458.53255-.029,1.07382.11938,1.608.10007a16.77343,16.77343,0,0,1,3.84384.37633,8.02885,8.02885,0,0,0,2.04663.18651,5.79266,5.79266,0,0,1,1.93474.47879.67212.67212,0,0,1,.33458.40872A4.70407,4.70407,0,0,1,121.25524,116.10949Zm-1.40831,4.7213c-.05146-.4706.03056-.90914-.14187-1.06356-.43138-.38632-.31953-.7957-.27847-1.24558a9.85572,9.85572,0,0,0,.06263-1.60692c-.03672-.49992-.22374-.98719-.28513-1.48732-.08176-.66616-.08555-.70487-.74761-.77071a10.87736,10.87736,0,0,1-2.163-.22375,31.51094,31.51094,0,0,0-4.30092-.53014.81554.81554,0,0,0-.24081.01564c-1.11319.1514-2.22664.30112-3.33911.45771-.57415.08082-.744.32685-.86045.88708a8.51188,8.51188,0,0,0,.09927,3.26546,7.96433,7.96433,0,0,1,.09249.88055c.054.844.21787.99583,1.09352,1.00423.831.008,1.66594-.02512,2.49189.04506.82366.07,1.63431.29122,2.45792.36408a8.71289,8.71289,0,0,0,3.36-.14575,2.19309,2.19309,0,0,1,.7898-.05792C118.51419,120.66354,119.08854,120.744,119.84693,120.8308Z"/><path class="a" d="M83.6879,66.3703a17.48808,17.48808,0,0,0,2.23757-.17978,26.65437,26.65437,0,0,1,5.65731-.22793,11.27215,11.27215,0,0,0,3.04526-.12165,4.80466,4.80466,0,0,1,1.44109.0842,3.60267,3.60267,0,0,0,.96312.02873,7.32178,7.32178,0,0,1,3.44183.1206,19.20523,19.20523,0,0,0,3.44068.37212c2.12214.16583,4.24932.26676,6.37406.40017.80575.05058,1.6102.12209,2.416.17094.21008.01273.423-.032.63487-.03556a2.22652,2.22652,0,0,1,.79274.02286,8.64128,8.64128,0,0,0,3.41392.41972,16.79035,16.79035,0,0,1,1.76241.11724c.42813.03346.85493.09028,1.28354.10965.43055.01946.86622-.029,1.293.01566.44094.04619,1.04769.01181,1.13913.55636a1.51781,1.51781,0,0,1-.50545,1.53572.89471.89471,0,0,1-.575.1629c-.87958-.09213-1.75641-.21375-2.63166-.34235-.39275-.05771-.77746-.169-1.1697-.23167a2.64492,2.64492,0,0,0-.71766-.03418,6.68171,6.68171,0,0,1-2.32-.20561,17.72881,17.72881,0,0,0-2.62616-.38386,22.73062,22.73062,0,0,1-2.97155-.11574c-1.28631-.27595-2.58794.0398-3.85183-.28089-.31051-.07878-.62286-.15069-.9356-.22017a3.09793,3.09793,0,0,0-.55212-.1005c-.85735-.03015-1.71515-.04914-2.57293-.06465-.24114-.00436-.48281.01544-.72412.02643-.18738.00852-.4102.092-.556.01924-.81721-.40765-1.70786-.151-2.542-.31883a19.95676,19.95676,0,0,0-4.42094-.02174c-.6957.01429-1.38819.15733-2.08439.18465A11.89818,11.89818,0,0,1,89.846,67.732c-.13329-.01089-.26592-.04573-.39868-.04479-1.09407.00781-2.19046-.01779-3.28126.04791-.66421.04-1.3163.25022-1.98.33637q-1.54994.20118-3.10871.332c-.55944.04752-.75258-.19323-.70114-.76969.1008-1.12954.30975-1.30889,1.45265-1.273.32305.01016.64714-.00194.97043-.01307.295-.01015.58953-.0328.88428-.04993Z"/><path class="a" d="M119.80081,94.27455a4.00225,4.00225,0,0,0-1.92046-.4383,15.62472,15.62472,0,0,0-4.0211-.01932.82272.82272,0,0,1-.32193-.00136,14.73136,14.73136,0,0,0-3.995-.097,4.77326,4.77326,0,0,1-.63186-.06592,1.39293,1.39293,0,0,0-.47008-.06717,7.49127,7.49127,0,0,1-2.23948-.11671,11.883,11.883,0,0,0-3.92669.038,3.26715,3.26715,0,0,1-.63753.05794,6.89258,6.89258,0,0,0-1.97493.14541,1.44936,1.44936,0,0,1-.797-.03846,14.53262,14.53262,0,0,0-4.56109-.30933c-1.29767.09315-2.608-.00245-3.91239.015-.52877.00707-1.05636.09382-1.58476.14135a6.59748,6.59748,0,0,1-.79442.0562,9.37878,9.37878,0,0,1-1.76522-.11563,4.20227,4.20227,0,0,0-2.57456.16953c-.6322.24555-1.11616-.25254-1.1998-.94668a1.2311,1.2311,0,0,1,1.08617-1.26137,21.92324,21.92324,0,0,1,4.34261.24985,1.41178,1.41178,0,0,0,1.00384-.11185,1.84566,1.84566,0,0,1,.94626-.093,35.11131,35.11131,0,0,0,4.83959-.03543,21.20808,21.20808,0,0,1,3.12927.159,35.64474,35.64474,0,0,0,5.463-.0108c1.149-.53382,2.26667.152,3.40882.09444a8.62738,8.62738,0,0,1,2.08017.14748c1.37577.27069,2.72079-.31107,4.08573-.07753.31679.0542.633.11378.95141.156a1.6849,1.6849,0,0,0,.63838.03351,11.01307,11.01307,0,0,1,2.96568-.06731,5.127,5.127,0,0,0,1.332-.19113,1.74853,1.74853,0,0,1,1.22878.13422c.33924.14043.66626-.3584,1.13392-.119.61412.31433.825.6133.60842,1.26349-.068.20412-.16271.39921-.24005.60041a.66758.66758,0,0,1-.60548.45059A9.64081,9.64081,0,0,0,119.80081,94.27455Z"/></svg>