<svg xmlns="http://www.w3.org/2000/svg" viewBox="0 0 400 400"><defs><style>.a{fill:#45b658;}.b{fill:#10c956;}.c{fill:#388a57;}</style></defs><title>city-people</title><path class="a" d="M156.731,281.72261a13.25057,13.25057,0,0,1-.25275-3.2727c.82321-4.8153,1.87026-9.59354,2.627-14.41805a3.47058,3.47058,0,0,0-1.207-2.69445c-3.36639-2.62419-4.81485-9.12308-2.70832-12.86327.52163-.92613.94807-1.90579,1.41832-2.86072q.595.58085,1.19,1.16185a52.89729,52.89729,0,0,0-.9437,5.93068c-.32257,6.55319,4.66077,8.48639,9.88913,8.00614a1.946,1.946,0,0,0,1.04488-.46779c2.60636-2.33417,2.56873-5.54986,2.01115-8.44818-.272-1.41369-2.2087-3.04175-3.72707-3.52964-1.49867-.48162-3.42022.35274-5.19363.61524-.49066-2.03278,1.74063-3.78229,4.48883-3.12521a12.13637,12.13637,0,0,1,4.12945,1.39668c1.24379.87179,2.78945,2.2453,2.94966,3.55363.46029,3.756.44633,7.544-2.17433,10.88613-.61239.781-.2827,2.84141.31154,3.93346,2.46379,4.52856,4.33226,9.19391,4.2588,14.41887-.01316.937-.74939,1.86384-1.15176,2.79535-.53576-.90153-1.447-1.764-1.54548-2.711-.59031-5.67576-2.28933-10.86207-6.166-15.164-.58789-.65236-1.68225-1.6155-2.15731-1.433a3.59966,3.59966,0,0,0-1.96454,2.202c-.99409,4.36878-1.726,8.79646-2.63723,13.18539a21.88857,21.88857,0,0,1-1.18,3.1865Q157.38579,281.86468,156.731,281.72261Z"/><path class="a" d="M220.64,252.30951c3.38213-2.37943,5.88724-1.97728,8.15767.61956,2.10776,2.411,2.24725,5.55163.306,7.72869a18.51177,18.51177,0,0,1-1.71269,1.60239c-2.65014,2.3024-2.92552,4.58789-1.26832,7.73764,2.76649,5.2581,3.85337,10.79438,2.16007,16.65551a13.67926,13.67926,0,0,1-.96613,1.74654,14.08438,14.08438,0,0,1-.65887-3.223,26.97751,26.97751,0,0,0-3.84349-15.95491c-.42775-.75495-1.58442-1.8178-2.07358-1.667a4.29255,4.29255,0,0,0-2.626,2.10939,32.7896,32.7896,0,0,0-1.32768,17.55918,19.14013,19.14013,0,0,1,.18395,2.49782l-1.05863.47493c-.63809-1.15278-1.83137-2.31154-1.81926-3.45741a154.62162,154.62162,0,0,1,.81933-15.70738c.2721-2.40693.69753-4.2362-1.28935-6.34133-3.14039-3.32737-2.40915-9.40218.91493-11.7865,1.99507-1.43108,3.47855-.76676,4.005,2.03971-2.62423-1.10728-3.1701.8173-3.76258,2.5368a6.24575,6.24575,0,0,0,1.98223,7.15955c1.59247,1.40175,3.31426.90428,4.80575-.275,1.52225-1.2036,2.86641-2.6358,4.41084-3.80672,1.79483-1.36067,2.80381-3.41112,1.674-5.05634-1.05981-1.54322-3.34944-2.25459-5.12995-3.27613C222.266,252.07794,221.82968,252.24231,220.64,252.30951Z"/><path class="a" d="M198.884,278.48769c-3.17976-2.92277-1.11671-7.02591-2.30432-10.39668-1.2215-3.46663-2.5774-6.88585-3.89335-10.37616a17.90773,17.90773,0,0,1-3.01623-.16193c-2.35125-.53477-3.54869.52342-3.98212,2.69035-.851,4.25458-1.65921,8.51783-2.47464,12.77946-.09158.47815-.07164.98031-.18949,1.44975-.0635.25269-.31.45951-.5662.81513-2.12219-.78274-2.31294-2.68934-2.02746-4.27421a106.76992,106.76992,0,0,1,2.62629-10.75834c.85861-2.962,1.64619-5.67949.57651-8.938-1.23835-3.77212,1.14255-7.64214,4.63343-8.97243,2.18871-.83409,6.29536.0534,7.747,1.85006a6.03709,6.03709,0,0,1,.47673,7.37787c-1.352,2.23119-1.87817,4.0628-.41594,6.71344A28.76748,28.76748,0,0,1,198.884,278.48769ZM185.9806,250.26757c.16028.51345.47857,1.6205.85136,2.70886.7078,2.067,2.68822,3.11558,4.03308,1.83064a15.57714,15.57714,0,0,0,3.7122-6.59507,3.08967,3.08967,0,0,0-2.40118-3.77925C189.25032,243.64631,186.19136,246.10086,185.9806,250.26757Z"/><path class="a" d="M265.45716,149.21444c.42167,2.26029.64665,4.17452,1.1484,6.01321,1.15065,4.21646,8.50091,6.53135,11.81693,3.65209.55725-.48377.52219-1.92534.39487-2.87543-.635-4.74124.391-6.349,4.42572-7.39617,1.8242-.47351,2.54143.40162,3.17356,1.693,1.19143,2.43385.61932,5.099-2.22183,9.127,1.83516.23685,3.45648.92347,4.75191.53174,6.02655-1.822,10.76234-5.61924,14.82155-10.35874a7.10175,7.10175,0,0,1,2.27349-1.18219c.02335,1.05619.50841,2.63918-.00188,3.08652-4.73634,4.1515-8.92408,9.28379-15.40984,10.73909-2.22342.49877-4.74526-.4164-7.13837-.55861a9.92608,9.92608,0,0,0-4.10279.21726c-4.13421,1.6576-11.525.13074-14.36585-3.2131C262.93231,156.22911,262.95769,151.25265,265.45716,149.21444Zm15.64594,6.77912,1.26282.42059c1.27874-.93148,2.65251-1.87834,1.691-3.835-.19191-.39054-1.077-.44048-1.64239-.64747Q281.75876,153.96254,281.1031,155.99357Z"/><path class="a" d="M209.04059,248.39859c-.48521-2.41309-.89382-4.84554-1.49881-7.22825a3.47047,3.47047,0,0,0-1.43855-2.07574c-.34863-.18576-1.47759.59172-1.92159,1.1835-1.19022,1.58637-2.14629,3.34752-3.31941,4.94823-.32088.43782-1.0793.55492-1.63683.81923-.25188-.69616-.89109-1.553-.68168-2.058a11.23577,11.23577,0,0,1,2.38-3.964c1.811-1.68072,1.91222-3.49182,1.82827-5.78111a13.62139,13.62139,0,0,1,1.30485-6.6675,5.54122,5.54122,0,0,1,7.18539-2.07694c2.41821,1.38157,4.04941,5.52294,3.17244,8.16311a3.86555,3.86555,0,0,1-.91613,1.80819c-3.5016,2.74323-2.88787,6.47286-2.64855,10.16942a11.75389,11.75389,0,0,1-.47854,2.76313Q209.70606,248.40018,209.04059,248.39859Zm-4.52341-16.09666c.47033,3.40491,2.23917,5.11855,4.5376,4.30078,1.98409-.70589,3.75021-3.87324,3.32669-5.96633-.42058-2.07852-2.9674-4.07775-4.0776-3.06022A36.86006,36.86006,0,0,0,204.51719,232.30193Z"/><path class="a" d="M182.59674,242.10956c-.37908-1.28445-.69832-2.59087-1.15738-3.84612a26.3023,26.3023,0,0,0-1.2868-2.62687c-1.07558.54891-2.59374.8271-3.13084,1.70533-.99306,1.62369-1.34681,3.62631-2.10586,5.412-.25044.589-.92971.99553-1.41287,1.48555-.3012-.63592-.84561-1.27053-.8489-1.9079a8.66705,8.66705,0,0,1,.56453-3.15925,7.18552,7.18552,0,0,0-1.077-7.56615,5.33993,5.33993,0,0,1,.5656-7.04191,7.376,7.376,0,0,1,8.19761-1.93274c4.33405,2.01047,5.6959,4.50948,3.66076,8.46978-1.41482,2.75323-.45011,5.284-.62389,7.90662-.06435.97151-.09015,1.9456-.13351,2.91848Q183.20248,242.01792,182.59674,242.10956Zm-3.84906-18.11812A4.54429,4.54429,0,0,0,173.641,228.353a5.43869,5.43869,0,0,0,5.36362,5.42557c2.07119.04222,4.08949-2.40051,4.25619-5.15116C183.414,226.09971,181.51505,224.149,178.74769,223.99144Z"/><path class="a" d="M273.53692,139.26629a16.91616,16.91616,0,0,1,2.242-1.894c4.80805-2.52607,9.6252-5.03707,14.49668-7.43679.50018-.24638,1.37536.26874,2.07659.43048-.28022.62043-.38967,1.54121-.868,1.81321-3.39987,1.9327-6.85422,3.77365-10.33575,5.55691a38.29655,38.29655,0,0,1-5.07538,2.16062C275.55891,140.07223,274.82774,139.61174,273.53692,139.26629Z"/><path class="a" d="M260.42244,133.38666c.89842-2.33634,1.665-4.73826,2.77687-6.96823.327-.65556,1.63254-.823,2.48969-1.21409a17.18311,17.18311,0,0,1-.309,2.45753c-.65023,2.40891-1.31747,4.81756-2.11291,7.181a20.50665,20.50665,0,0,1-1.55912,2.97761c-.30035-1.0275-.63207-2.04734-.88419-3.08649a4.35406,4.35406,0,0,1,.03544-1.1694Z"/><path class="a" d="M249.35419,141.75538c-.0736-3.46951-.20394-6.93982-.1579-10.40773.00665-.50076.86078-.99027,1.32266-1.485.50227.47594,1.43929.95459,1.4362,1.42713-.02,3.10627-.18632,6.216-.45255,9.31187-.047.54711-.78745,1.03457-1.20769,1.54952Q249.82461,141.95336,249.35419,141.75538Z"/><path class="b" d="M103.84671,165.65046c.4788-.15514,1.38214-.74766,1.73164-.5135,2.63556,1.76563,5.17835,3.67335,7.66622,5.64272.10376.0823-.48359,1.60586-.98772,1.78438C110.54537,173.17036,103.84407,167.98022,103.84671,165.65046Z"/><path class="b" d="M97.73655,189.03026c3.46347-.72022,6.22226-1.29394,9.38415-1.95143C105.93224,190.99452,101.50338,191.88535,97.73655,189.03026Z"/><path class="b" d="M124.35547,168.96966c-1.29358-2.35872-2.36911-4.09593-3.17185-5.95126-.185-.42738.56494-1.25941.8846-1.90517.54425.3045,1.38381.48074,1.58118.93576C124.46477,163.92738,126.47035,165.66264,124.35547,168.96966Z"/><path class="c" d="M136.52772,193.78381c-.19668,4.41337-.55144,8.68662-.54222,12.95906.01745,8.08194.08865,16.17015.43014,24.24331.301,7.116,1.04248,14.21266,1.48,21.32457a12.18433,12.18433,0,0,1-.71834,3.273c-.726-.95636-2.01227-1.87222-2.08489-2.87585-.39535-5.46321-.53857-10.94688-.68144-16.42571-.32842-12.60552-.583-25.21293-.929-37.81788-.056-2.03971-.54857-4.06639-.62168-6.10693-.08122-2.26819,1.11028-3.20937,3.3888-2.67741,1.42319.33231,2.85674.63045,4.29693.878,1.9005.32671,2.51642-.60779,2.19494-2.372-.14023-.76994-.25445-1.54627-.43425-2.30706-.88355-3.73921-.35642-4.68564,3.63481-4.74728a96.23274,96.23274,0,0,0,18.31125-1.71859c3.49084-.72475,7.60449,1.09252,11.33328,2.13756,2.34061.656,1.63,2.98485,1.74232,4.78886.09124,1.46456-.01371,3.95654.62,4.185a20.58213,20.58213,0,0,0,6.6146.75537c.304.00413.8796-1.38508.90123-2.14148.17374-6.05453.30132-12.11183.32865-18.16871.0216-4.7949-.17657-9.59062-.16264-14.38572.00722-2.50338-.81022-3.81592-3.57114-3.79093-1.59429.01453-4.29023.35852-4.09691-2.03008.20467-2.52879,2.75936-1.04147,4.11983-.9447a83.01874,83.01874,0,0,1,9.83333,1.48954c3.37075.65256,4.07966-.07566,3.80361-3.5493-.58765-7.393-.9961-14.8004-1.47724-22.20182-.13023-2.00371.791-3.26247,2.79291-3.38093,1.94252-.11485,2.23261-1.23388,2.05389-2.77031-.33758-2.90088-.72211-5.79624-1.04995-8.69813a5.37825,5.37825,0,0,1,.30233-1.38407c3.327.68223,2.1555,3.65519,2.80226,5.39543.71784,1.93188.52476,4.20229.72357,6.27631,4.29473.46775,4.03683.4712,4.09259,4.6393.09261,6.93378.42851,13.87143.912,20.78993.24217,3.46646,1.67166,4.28782,5.2546,4.1939,4.67248-.12246,9.35091-.15735,14.02232-.04446.77594.0187,1.52894.98273,2.29257,1.50984-.73623.47213-1.44368,1.29814-2.21318,1.36071-6.533.53055-6.43964.47686-5.62282,7.07616.40393,3.26312.37584,6.57972.51824,9.38115,8.10552.36121,15.79313.77529,23.4862,1.01048,2.96257.09049,5.36676,1.86744,5.5188,4.7538q1.38772,26.35668,2.68874,52.71776c.39594,8.14278.68765,16.29119.9289,24.43986.02323.78485-.648,1.59035-.99672,2.38621-.60853-.731-1.70684-1.43459-1.74945-2.19716-.40852-7.3057-.68581-14.61986-.91007-21.93431-.43738-14.26582-.74788-28.53575-1.26271-42.79855-.15087-4.18167-.842-8.34237-1.22816-12.51793-.14648-1.58414-.85755-2.07018-2.4664-2.08353-6.43751-.0532-12.8751-.23028-19.31-.442-3.92811-.12921-4.56055.42925-4.58007,4.326-.05139,10.26992-.19138,20.54007-.152,30.80951.00967,2.51779.72428,5.02848.80575,7.55241.0337,1.04644-.744,2.119-1.15273,3.17974-.57012-.85291-1.5997-1.68605-1.63748-2.562-.29847-6.92607-.58265-13.86149-.53788-20.79187.08592-13.29909.33031-26.59385-1.70655-39.79819-.25243-1.63672-.74727-2.45028-2.82184-2.37623-7.60174.27116-15.21534.273-22.8241.24856-2.18061-.007-2.95982.83774-2.90662,2.94307.15592,6.16148.36274,12.327.28509,18.48766-.10935,8.66989-.553,17.3356-.65877,26.00543-.04761,3.90308.47281,7.811.51315,11.71892.00933.90315-.892,1.81566-1.37428,2.72385-.54142-.86-1.47132-1.68213-1.55923-2.5862-.46322-4.7642-.68268-9.55137-1.04836-14.32581-.30771-4.01937-.84731-4.6251-4.80126-4.59227a110.34525,110.34525,0,0,0-13.77515.58679c-7.558,1.01783-14.97751.01217-22.44472-.67628C141.14257,193.89677,138.82136,193.886,136.52772,193.78381Zm30.39422-11.3779a22.65221,22.65221,0,0,0-2.27324-.09232c-5.70445.544-11.41609,1.03323-17.10036,1.74209-.87758.10942-2.42063,1.60426-2.30794,1.8569.8147,1.82554-1.54347,5.02414,1.99882,5.57146a76.38368,76.38368,0,0,0,24.437-.10613c.78705-.13235,1.7145-1.71391,1.88186-2.73644.28282-1.72834.86639-3.938-1.47126-4.836A43.20226,43.20226,0,0,0,166.92194,182.40591Zm29.81774-54.15234c.69333,6.68893,1.29677,13.38895,2.121,20.06158.368,2.97862,1.30185,3.32276,4.7985,2.45634,2.67138-.66189.82355-2.20581.66724-3.41637-.08757-.67778-.254-1.35015-.28709-2.02967-.294-6.04821-.65035-12.09553-.796-18.14769-.04684-1.94323-.69019-2.59432-2.58043-2.57551C198.1562,124.627,196.26182,125.037,196.73968,128.25356Z"/><path class="c" d="M175.682,218.64c-3.63733-.20772-6.13328-2.17314-6.207-4.84778-.03891-1.41178.39326-2.19423,2.01028-2.095a29.96857,29.96857,0,0,0,4.35994-.12647c3.39027-.28854,4.61268.39066,4.706,2.72564C180.66316,217.10008,178.74118,218.81466,175.682,218.64Z"/><path class="c" d="M169.11573,203.51941c.02928-2.2744.87469-2.7906,2.6712-2.77485,1.12878.01,2.27217-.7205,3.39064-.6741,1.42674.05913,4.01709.47226,4.051.8973.1682,2.1014.39695,5.27092-.79692,6.14086-1.54218,1.12374-4.5399.89638-6.65962.3227C170.61815,207.11906,169.98422,204.8861,169.11573,203.51941Zm3.68652.402.57809,1.5446c1.0874-.448,2.18768-.87078,3.2318-1.4037a9.10008,9.10008,0,0,0-.47412-1.41874Q174.47013,203.28243,172.80224,203.92139Z"/><path class="c" d="M158.177,199.848a19.40354,19.40354,0,0,1,3.21411.19619c.51549.11157,1.30675.81675,1.26791,1.17725a2.059,2.059,0,0,1-1.2,1.38905,10.82088,10.82088,0,0,1-2.61458.25966c-4.166.34659-8.32776.777-12.50073.97448-.81672.03869-1.676-.82149-2.51558-1.26706a8.832,8.832,0,0,1,2.478-1.36508c3.91512-.687,7.8597-1.20623,11.79362-1.78614Z"/><path class="c" d="M160.24491,209.88589c.37548.32823,1.68439.91607,1.79645,1.67959.28254,1.9252-1.36446,1.60225-2.62342,1.68181-4.27581.27027-8.54489.67328-12.82374.84727-.82217.03349-1.67712-.74042-2.517-1.1418.6921-.49292,1.33783-1.32068,2.08384-1.42375C150.59916,210.91581,155.06042,210.47014,160.24491,209.88589Z"/><path class="c" d="M193.46627,211.07037c.6338-.50845,1.61365-1.77617,2.86937-2.17478,1.43509-.4555,4.65006,2.89776,4.595,4.39043a4.03624,4.03624,0,0,1-4.41273,3.68621C193.78047,216.8922,193.34818,216.19065,193.46627,211.07037Z"/><path class="c" d="M237.86836,198.113a33.0097,33.0097,0,0,1,4.08567.02176c.61381.07234,1.16141.70659,1.739,1.086-.54821.57112-1.02848,1.52359-1.65842,1.63586a26.67357,26.67357,0,0,1-4.36913.09574c-2.42636.02366-4.85548.1317-7.27744.04187a6.59522,6.59522,0,0,1-2.13355-.91647c.60729-.61009,1.15508-1.66044,1.83246-1.75205,2.56465-.34682,5.17135-.38292,7.76232-.53519Z"/><path class="c" d="M146.6259,221.48587a7.15407,7.15407,0,0,1,1.83745-.658c4.08125-.2821,8.16648-.59076,12.25346-.64044.86052-.01044,1.73355,1.019,2.60084,1.56928a7.87309,7.87309,0,0,1-2.48844,1.07309c-3.97989.18782-7.96766.2476-11.95271.24958a9.04866,9.04866,0,0,1-2.40992-.68886Z"/><path class="c" d="M201.64273,177.72917c-.06972,2.782-1.19839,3.82068-3.89513,3.85184-2.23589.02575-2.88658-1.288-2.887-3.15117-.00048-2.0386,2.28792-3.89084,4.66133-3.89041C201.39805,174.53982,201.71086,175.01027,201.64273,177.72917Z"/><path class="c" d="M161.06212,232.25281c-.93824.54181-1.83513,1.44755-2.82219,1.55956-3.46443.39345-6.95843.60213-10.44494.66226-.69014.01193-1.39709-.94531-2.09629-1.45568.65187-.46734,1.2719-1.28108,1.96088-1.34436,3.75862-.34513,7.53282-.53694,11.30509-.69988a7.01606,7.01606,0,0,1,1.98682.51638Q161.00684,231.872,161.06212,232.25281Z"/><path class="c" d="M211.52726,183.73748c.97379,2.94145,1.77194,5.03514,2.29313,7.19568.10347.42893-.882,1.61549-1.31829,1.59166a14.21787,14.21787,0,0,1-4.84391-.965c-.51565-.22411-.91923-2.10979-.54052-2.71512A44.665,44.665,0,0,1,211.52726,183.73748Z"/><path class="c" d="M209.40838,217.0681c-2.5632.40135-4.04036-.06788-4.12246-2.4597-.08275-2.4129,1.1318-3.281,4.583-3.2939,2.29261-.00849,2.823,1.42713,2.98129,3.39372C213.13719,218.27217,210.43867,216.75983,209.40838,217.0681Z"/><path class="c" d="M242.18654,192.19006c-.85491.4215-1.74686,1.26293-2.55816,1.19135-3.38271-.29877-6.75254-.80916-10.0973-1.408-.54549-.09775-.94143-1.03128-1.40653-1.5785.6774-.4404,1.40951-1.32474,2.02324-1.249,3.89327.48047,7.76042,1.17312,11.63615,1.79573Q241.98528,191.56586,242.18654,192.19006Z"/><path class="c" d="M229.49662,217.527c1.61054-.22758,3.21539-.51621,4.83294-.66918,2.87467-.27185,5.75528-.49788,8.63838-.64755a1.836,1.836,0,0,1,1.31787.751c.14135.19823-.15964.93938-.46322,1.189C242.3613,219.35174,231.236,219.46846,229.49662,217.527Z"/><path class="c" d="M196.55867,170.47257c-2.87455-.49205-3.69565-1.83694-3.58662-4.07387.16154-3.31373,3.01679-2.38055,4.62679-2.50253,2.72077-.20613,2.36312,2.64358,2.31192,4.11185C199.88071,168.86759,197.74639,169.65351,196.55867,170.47257Z"/><path class="c" d="M208.67537,206.287c-1.93083.26519-3.01126-.53465-2.70613-2.92984.2477-1.94483,2.56237-4.18177,4.448-3.40425,1.141.47035,1.92476,2.55089,2.25559,4.04395C213.04162,205.66114,211.58824,206.43034,208.67537,206.287Z"/><path class="c" d="M211.40048,172.89432c.28043,2,1.30724,4.33388.56705,5.2688-.99283,1.25414-3.32227,1.5602-5.14612,1.96776-.4452.09944-1.63351-.9838-1.64229-1.53662a4.2556,4.2556,0,0,1,.98614-3.04855C207.38155,174.537,209.02595,174.04456,211.40048,172.89432Z"/><path class="c" d="M228.12063,210.35968c4.13742-3.97584,9.41365-1.29112,13.86618-3.25027.94025,1.63015,1.10848,3.089-.8928,3.189C236.77932,210.514,232.44618,210.36152,228.12063,210.35968Z"/><path class="c" d="M196.22025,190.7502c.277-3.33834,2.694-5.94351,4.29392-5.13841,1.1481.5778,2.55759,3.27517,2.21544,3.69523a12.60689,12.60689,0,0,1-4.73834,3.21591C197.64007,192.67708,196.50658,191.049,196.22025,190.7502Z"/><path class="c" d="M195.38522,204.78161c-.306-6.00929-.00641-6.6673,3.29583-6.912a2.48338,2.48338,0,0,1,2.0309,1.23813c.30623,1.40652.70655,3.71716.01615,4.22022C199.36668,204.31987,197.29244,204.33343,195.38522,204.78161Z"/><path class="c" d="M238.49375,185.50644c-3.196-.14242-6.19848-.16672-9.17071-.47917-.83208-.08745-1.57479-1.02451-2.3585-1.57184a7.64417,7.64417,0,0,1,2.43284-1.14139c2.32436-.16631,4.672.01325,7.00147-.11029C238.45241,182.09477,239.01364,182.97294,238.49375,185.50644Z"/><path class="c" d="M205.54161,163.29112c3.26907.44468,3.94166,1.99406,3.87232,4.30289-.06955,2.31543-1.73462,1.88978-3.14356,1.95037-2.5037.10781-3.38713-1.57989-3.13815-3.55168C203.25672,165.00656,204.69663,164.18639,205.54161,163.29112Z"/><path class="c" d="M155.11337,188.35548a2.89312,2.89312,0,0,1-1.15948-.00647c-1.076-.50956-2.10375-1.12066-3.15-1.693,1.03185-.33026,2.05492-.69238,3.098-.98233a15.49428,15.49428,0,0,1,3.36878-.77216,5.84651,5.84651,0,0,1,3.424.54334c1.10117.794,1.14493,2.14371-.64006,2.47418-1.621.30005-3.28484.36869-4.92977.53934Z"/><path class="c" d="M170.69085,189.24045q-3.32939.17434-6.65863.34876c1.01466-2.9308,3.37162-2.19846,5.18579-2.61925.51856-.12032,1.27354.77834,1.92007,1.20969Z"/></svg>