<svg xmlns="http://www.w3.org/2000/svg" viewBox="0 0 400 400"><defs><style>.a{fill:#ffb736;}.b{fill:#cb8d1f;}</style></defs><title>city</title><path class="a" d="M201.44353,202.496c-1.47689,4.03628-4.26028,7.56734-4.39842,12.11058a3.43071,3.43071,0,0,1-1.58643,3.2059c-1.35025,1.00125-1.95916,3.10808-2.68985,4.81743-1.68542,3.94282-3.201,7.958-4.87183,11.90729-2.18355,5.1614-1.71467,10.59685-1.726,15.97194-.0159,7.55741.00572,15.11723.18239,22.672.1587,6.78626.61412,13.56516.81126,20.351.11583,3.98652-.03971,7.98035-.03044,11.97079.00695,2.98514.18422,5.97426.06353,8.95262-.03544.875-.82924,1.71926-1.27542,2.57763-.42522-.82731-1.21159-1.65041-1.22132-2.48261-.144-12.29837-.10364-24.5991-.27793-36.89687-.12371-8.72971-.60233-17.45423-.74345-26.18395-.15583-9.63566-.1-19.2747-.15827-28.91215-.006-.98567-.16222-1.97046-.28142-3.32671-2.27434.12162-4.39976.26007-6.52736.344-4.48665.17689-8.97436.32478-13.46172.48561-.98144.03517-3.94-2.28752-3.94134-3.22417a1.33718,1.33718,0,0,1,.76933-1.01617,1.36549,1.36549,0,0,1,1.19259.47878c.22873.35238.11084.92975.15732,1.60973l12.11165-.8474a2.24269,2.24269,0,0,0,.1806-.75274c-.89289-5.86855-.89181-5.94434-6.91152-6.28354-5.86539-.33052-11.74084-.48268-17.93187-.72568a12.48551,12.48551,0,0,1,.23995,1.92612,18.66468,18.66468,0,0,1-.31772,2.03949c-.67-.39511-1.86935-.72848-1.92383-1.19545-.34265-2.93553-2.29288-2.17754-4.07206-2.01954a2.148,2.148,0,0,0-2.22535,2.64244c.53973,7.03381.93006,14.08278,1.65987,21.09659.32359,3.1099,1.37569,6.13925,1.97961,9.22814a12.12725,12.12725,0,0,1-.34367,3.032c-3.272-3.49937-3.21707-7.24583-3.61185-10.66461-.95234-8.24759-1.44463-16.54757-2.18406-24.82095-.186-2.08168.59325-2.84678,2.67423-2.81189a32.12667,32.12667,0,0,0,4.751-.60817c-.80633-5.93719-1.63524-11.74584-2.36538-17.56683-.27895-2.2242-.3133-4.47838-.49246-6.71613-.296-3.6975-.52549-7.40436-.978-11.08326-.17288-1.4063.15019-2.13937,1.51414-2.23237q9.82135-.66954,19.648-1.25861a27.22524,27.22524,0,0,1,2.74612.07041c2.81847.11472,4.8257.8987,5.08463,4.33008.23019,3.05074,2.76426,1.65137,4.802,1.91473-.89963-7.02433-3.13664-13.67853-2.72789-20.60343l.859-.32172a11.492,11.492,0,0,1,1.1106,2.51925c.87661,4.88739,1.54826,9.81309,2.497,14.68541.72657,3.73169,1.55386,3.97477,4.51915,2.17275-.20571-5.349-.3156-10.47814-.65244-15.59234-.102-1.54865.45144-2.06915,1.76923-2.37293,5.89413-1.35886,11.73425-3.00974,17.68033-4.07031,6.36221-1.13482,12.82117-1.728,19.23833-2.55412,1.89672-.24416,2.23765,1.07608,2.37927,2.476.23136,2.28641.38227,4.581.57161,6.92814,5.58184-.71815,10.71952-1.74846,15.891-1.96315,9.10643-.378,18.23346-.1978,27.03612,2.68446a2.60481,2.60481,0,0,1,1.4863,1.81164c.77561,10.85322,1.39636,21.71747,2.15083,32.57231q.72559,10.4383,1.72817,20.85656c.39626,4.10949,1.1683,8.18276,1.56382,12.29232.33689,3.501.377,7.03045.55317,10.647,2.09249.26449,3.95576.61589,5.83117.7012,1.55439.07075,1.89987.63412,1.841,2.16668-.43342,11.288-.91792,22.5782-1.06411,33.87187-.13115,10.12774.11173,20.26137.26281,30.3913.073,4.896.32089,9.78925.46977,14.68439a3.48093,3.48093,0,0,1-.18674,1.70893,2.03777,2.03777,0,0,1-1.36989,1.04421c-.37714-.00414-1.036-.78309-1.07168-1.25589-.28037-3.71619-.63477-7.44319-.6007-11.16353.09074-9.89358.502-19.78527.518-29.67815.0107-6.642-.619-13.28465-.62156-19.92713-.00216-5.81028.41607-11.62406.76579-17.42924.11384-1.8903-.43048-2.43-2.36722-2.32553-5.5713.3003-11.15407.432-16.7341.51124-4.2062.05974-4.762.56776-4.59908,4.77489.18675,4.82051.25087,9.64815.56024,14.46032.11007,1.71175.97761,3.36787,1.14925,5.08439a44.255,44.255,0,0,1,.04966,6.42856c-.33524,7.21958-.86939,14.43218-1.082,21.65465-.23455,7.96745-.17562,15.94331-.32252,23.914-.01178.6394-.62851,1.26765-.96416,1.90109-.46319-.59907-1.21524-1.14813-1.32942-1.80759a21.64736,21.64736,0,0,1-.17224-4.23166c.32849-12.62507.72484-25.24854.99065-37.87484a35.20107,35.20107,0,0,0-.701-7.01122,2.50124,2.50124,0,0,0-1.91551-1.37019c-3.31026-.11906-6.62851-.0156-9.944.01036-1.34049.01048-2.21945.4271-2.20937,2.02379.00316.49993-.57722,1.00358-.89042,1.50557-.363-.45829-1.00813-.89866-1.03855-1.378-.10986-1.73263-1.06474-2.26384-2.616-2.31575-4.46468-.14938-8.928-.34127-13.01518-.5017-.23239,5.92061-.44152,11.70617-.69377,17.48985-.13387,3.06968-.46034,6.13513-.48472,9.2042-.02433,3.06161.24734,6.12455.34051,9.18836.139,4.56884.27942,9.13878.30454,13.70886a6.4622,6.4622,0,0,1-.90434,2.20872c-.54932-.686-1.52227-1.34187-1.57355-2.06324-.20541-2.89172-.12189-5.80377-.15118-8.70828-.03684-3.65694-.11539-7.31386-.11222-10.97073.00707-8.32046.08621-16.64089.07526-24.96126-.01476-11.22525.17032-22.461-.294-33.66891a19.79529,19.79529,0,0,0-3.49368-9.59488,90.077,90.077,0,0,1-7.71725-15.22855c-1.31613-3.097-2.60027-6.20765-3.89875-9.31215Zm13.15379-30.30814.05943.05914c-.69187-1.62317.13206-2.36077,1.60434-2.6087,1.94046-.32673,3.89463-.57205,5.85834-.85457-.69993-5.25556-1.47561-10.24636-1.98041-15.26453-.21313-2.11906-.84816-3.03994-3.07971-2.63276-6.93908,1.2658-13.90142,2.40523-20.83561,3.6959-3.8168.71022-7.61826,1.53845-11.37222,2.52124a2.9078,2.9078,0,0,0-1.80442,2.03541,36.35326,36.35326,0,0,0,.58788,7.192,10.53941,10.53941,0,0,0,1.89163,4.79523c.591.69907,2.46386.31917,3.7598.41677,2.48493.18708,3.15786.981,3.09548,3.49941-.26225,10.58581,1.74595,20.96248,2.958,31.4113.06165.53173.59548,1.00875,1.16882,1.92626,1.57781-3.65544,2.91236-6.83216,4.33524-9.96883a7.02469,7.02469,0,0,1,1.34647-1.53364c.48845.46443,1.19956.83959,1.42755,1.40842,1.10092,2.74576,2.0717,5.54365,3.06064,8.24638l22.31659-2.102a15.40147,15.40147,0,0,0,.07157-2.20146c-.43124-4.04459-.97647-8.07784-1.356-12.12691-.54685-5.83313-.676-6.1411,5.011-6.34038.81455-.02844,1.62817-.2682,2.43692-.24238,1.48848.04743,1.961-.62877,1.66831-2.00532-.43056-2.02479-.95342-4.03549-1.26967-6.078-.96368-6.22362-1.08634-6.34632-7.41509-5.46783-.89318.12394-1.77457.33013-2.66531.47438Q220.03824,171.32268,214.59732,172.18783Zm55.203,64.74842.83847-.22861a10.9291,10.9291,0,0,0,.04843-1.44853c-.58788-6.17744-1.23651-12.34938-1.78007-18.53064-.45776-5.20516-.78025-10.42207-1.19443-15.63123-1.02-12.83049-2.09763-25.65661-3.04378-38.49247-.13092-1.7767-.83-2.62631-2.46313-2.81679-11.15166-1.30056-22.27317-2.45127-33.47906-.1324-5.75617,1.19117-5.76463.87449-4.46166,6.62711.38618,1.70518,1.111,2.04729,2.78139,1.77824a54.802,54.802,0,0,1,7.17731-.52683c1.63225-.04539,2.54688.80467,2.79183,2.5409.49838,3.53234,1.22684,7.03229,1.72092,10.56513.25938,1.85437.98789,2.57063,2.95715,2.37373a71.51031,71.51031,0,0,1,8.47527-.30809c4.55953.08747,5.36907.86035,6.09742,5.26884.13519.81825.19794,1.64874.286,2.47443.71341,6.68623,1.35887,13.38061,2.16035,20.05625.52794,4.39753,1.25883,8.69012,7.382,8.42367.65317-.02842,1.894,1.77453,1.99529,2.81254.38516,3.947.3429,7.93386.62241,11.89434A13.91956,13.91956,0,0,0,269.80031,236.93625ZM235.369,262.95609c-.15447-1.15651-.39829-2.51854-.509-3.89131-.508-6.29412-.97357-12.59164-1.46452-18.88713-.43856-5.62431-.9927-11.24213-1.29085-16.87367-.13556-2.55947,1.7884-4.17932,4.22784-4.24928,3.97952-.11415,7.9569-.31686,11.93282-.52748a21.97652,21.97652,0,0,0,2.6589-.49464,35.93322,35.93322,0,0,1-.97528-5.54511c-.05331-2.80772-1.57431-3.947-4.04386-3.99212-9.45746-.173-18.87942-2.069-28.36653-.65259-3.17533.474-6.329,1.09233-9.84371,1.706,1.6573,3.644,3.00019,7.00395,4.67738,10.18787,2.42586,4.60519,5.11776,9.06958,7.63258,13.62915a4.80174,4.80174,0,0,1,.586,2.36367c-.29382,8.69008-.65236,17.37792-1.0146,26.60678Zm-71.80088-85.43225c-.09768,10.0812-.19283,19.89886-.29026,29.95344,3.43262-.051,6.24486-.053,9.05386-.1498,1.64974-.05683,2.8565.55261,3.12557,2.19273.41048,2.50222.60443,5.03994.92533,7.87121,1.94128-.07229,4.15681-.166,6.37309-.234,1.93986-.05949,2.90893.82282,2.89341,2.843-.019,2.49278.051,4.98829.165,7.47887a19.03606,19.03606,0,0,0,.59156,2.79226c.60127-.5922.91376-.76959,1.02923-1.03324,1.5883-3.62864,2.9444-7.37628,4.773-10.87781,1.98271-3.79674,1.67171-7.52293,1.06179-11.5577-1.51351-10.01064-2.7122-20.07092-3.89661-30.12791-.33175-2.81639-1.61171-3.62142-4.2471-2.26121-1.24659.64337-2.65681.98762-3.85684,1.69745a14.84913,14.84913,0,0,0-2.48782,2.224c-.43325.41539-.81293.88671-1.21678,1.33276-.42162-.424-.81569-.88081-1.27212-1.26315-.50964-.42706-1.07461-1.11912-1.61779-1.12132C171.20087,177.26947,167.7266,177.41353,163.56807,177.52383Zm103.00075,59.75634c-.298-4.561-.69044-8.59708-.778-12.63976-.053-2.44744-.78874-4.07292-3.38675-4.22678a64.02863,64.02863,0,0,0-6.42828-.03126c-6.61534.2745-13.22943.5901-19.83835.98406a2.02608,2.02608,0,0,0-1.4046,1.23605,8.48156,8.48156,0,0,0-.05031,2.7258c.49336,7.62852.95871,15.25936,1.53194,22.882.323,4.29622.80995,8.58088,1.2706,12.86564.2161,2.01069,1.25869,2.70382,3.39285,2.50444a82.06333,82.06333,0,0,1,9.18724-.11809c1.48422.02845,2.02626-.40412,2.017-1.98593-.04218-7.21057.088-14.4222.0509-21.63287-.00785-1.52434.37969-1.98725,1.95655-2.00977C258.21437,237.775,262.33583,237.48393,266.56882,237.28017ZM161.573,207.34307a34.149,34.149,0,0,1-.65247-4.79014c.10051-7.63685.22758-15.27532.507-22.9072.16846-4.60155.30337-4.54488,4.8973-4.7831.70064-.03639,1.94675-.8466,1.92165-1.23259a2.99887,2.99887,0,0,0-1.27862-2.2569,8.914,8.914,0,0,0-4.03127-.76954c-5.11942.31593-10.22253.8918-15.34095,1.2305-1.96137.12972-2.97.92072-2.84732,2.88291.2672,4.2725.47376,8.55409.92375,12.80878.68542,6.47953,1.5562,12.93946,2.33326,19.28473Zm92.14512,10.33914c4.002.46225,4.40476.02648,3.86047-3.69017-1.26107-8.61129-2.576-17.21688-3.64669-25.85234-.28993-2.338-1.213-3.31019-3.42758-3.1851q-7.362.41617-14.7199.89993a22.21282,22.21282,0,0,0-4.66475.55771,2.60151,2.60151,0,0,0-1.52672,1.96153c.38687,4.44816.89828,8.892,1.57689,13.30545.35507,2.30934,1.32913,3.88621,4.3433,3.85948,4.38038-.03886,8.76368.66509,13.15213.95441,2.11767.13962,3.08681,1.22715,3.43735,3.22415C252.57309,212.39786,253.17863,215.05475,253.71809,217.68221Z"/><path class="a" d="M159.89876,246.53721c-.38989-7.70472-.7637-15.089-1.137-22.47335a8.07836,8.07836,0,0,1-.06155-1.98615,11.36053,11.36053,0,0,1,.85469-2.07058c.39674.62517,1.06762,1.21929,1.1425,1.88088.31743,2.80153.43058,5.6254.668,8.4369.54193,6.41746,1.22564,12.82552,1.622,19.25156.18214,2.95223-.25558,5.93726-.27392,8.90828-.04733,7.64676-.01252,15.29405-.02021,22.94108-.00482,4.79919-.09813,9.59948-.02356,14.3973.093,5.97675.39693,11.95112.42305,17.92736.00557,1.27894-.88712,3.68716-1.199,3.66-2.0646-.17987-1.40721-2.1272-1.42217-3.33966-.11186-9.0644.01641-18.13205-.1174-27.19591-.17675-11.97684-.54695-23.95074-.76935-35.92711-.02993-1.61209-.42914-2.05155-2.16377-2.01858-9.06353.17224-18.13107.17265-27.19681.138-.70631-.00268-1.40989-.73308-2.11472-1.12525.7552-.43531,1.50783-1.24376,2.26594-1.249,9.055-.063,18.11094-.00369,27.16661.01217C158.183,246.70625,158.824,246.61669,159.89876,246.53721Z"/><path class="a" d="M198.00537,116.74625c3.70125.14528,7.41592.14027,11.101.46767,7.2961.64835,13.64359,3.62512,19.4705,8.017a47.2374,47.2374,0,0,1,12.89754,14.86984c.29545.52756.07016,1.34668.08669,2.03041-.63711-.22982-1.52257-.26836-1.87088-.7206-2.22688-2.8912-3.99133-6.219-6.5453-8.76346-9.20207-9.168-19.871-14.81273-33.45962-13.00879-9.48221,1.25883-18.23915,4.30333-25.94972,9.99071-4.31913,3.18577-8.27049,6.82931-10.37477,11.96143-1.39528,3.40279-2.56529,6.89755-3.94189,10.30853-.25381.629-1.01336,1.05378-1.53944,1.57285-.37357-.62115-1.16224-1.33146-1.05112-1.84837.5729-2.66433.97849-5.47664,2.1696-7.87647,4.74933-9.56914,11.60744-16.96692,21.78878-21.14338,4.92768-2.02142,9.75073-4.16441,15.024-5.08678q1.06584-.18649,2.1317-.37322Z"/><path class="b" d="M241.86161,278.24279c-4.53082.29066-9.05946.63012-13.59407.83857-1.168.05366-3.2811-.10252-3.37017-.5098a16.16288,16.16288,0,0,1,.03134-5.07161c.03165-.29586.93228-.68906,1.44727-.71414,6.09727-.29685,12.19588-.59369,18.29769-.75726a3.94293,3.94293,0,0,1,4.04728,5.13147,2.10162,2.10162,0,0,1-1.39763,1.32929c-1.7999.19588-3.62812.13136-5.44558.16606Z"/><path class="b" d="M235.2451,291.09776c-2.31645-.09092-4.64269-.35115-6.946-.217-1.7144.09986-2.52872-.4659-2.65535-2.09031a14.70449,14.70449,0,0,1-.067-3.67535,2.19082,2.19082,0,0,1,1.63883-1.2946c5.56571-.19055,11.1358-.26221,16.70519-.3302,1.5625-.01908,2.32721.53419,1.70135,2.32111a17.47463,17.47463,0,0,0-.53426,3.60041c-.17834,1.4342-.93412,1.9372-2.39114,1.82119-2.47373-.197-4.96111-.22219-7.44278-.31959Z"/><path class="a" d="M128.94307,251.71282c.26718,4.11283.61787,8.22227.78575,12.3392.46693,11.45471.80739,22.91478,1.30534,34.368.18395,4.23047.72269,8.44475.96367,12.67417.04218.74-.59212,1.51853-.914,2.27926-.5797-.66839-1.59632-1.29643-1.66247-2.01228-.267-2.89145-.20545-5.81148-.32933-8.71826-.574-13.47-1.18594-26.93837-1.74373-40.409-.11708-2.82806-.11448-5.66427-.05373-8.4943a8.469,8.469,0,0,1,.69586-2.2458Z"/><path class="b" d="M77.75509,240.478c-.35866,1.47657-.60863,2.50558-.907,3.734,2.43123.67754,5.61042-2.34105,7.14,1.49478,3.397-2.01483,3.58535-2.72515,2.19389-7.84782l-4.88253-.19165q-1.17612.54966-2.34757,1.09709a16.14166,16.14166,0,0,1-.69079-2.67472,8.68212,8.68212,0,0,1,.19768-2.97424,2.46745,2.46745,0,0,1,1.28339-1.50007,1.7634,1.7634,0,0,1,1.53243.76876c1.27741,2.683,2.75225,3.03753,5.47558,1.547,1.26513-.69246,3.47786.34639,5.854.6849-.74013,1.16715-.99188,2.07827-1.5623,2.37326-2.26846,1.17316-1.76342,2.91107-1.1678,4.70046.26166.78629.92411,1.5516.87841,2.29406-.04027.65414-.91186,1.851-1.24592,1.79486-1.88884-.31767-2.51806.85921-3.15591,2.1843a8.3712,8.3712,0,0,1-1.07768,1.95787c-1.078,1.22028-2.1516,1.60542-3.013-.30838-.5306-1.17864-.96869-2.89019-1.894-3.26631-.99142-.40306-2.49076.60266-3.79657.75967a12.5478,12.5478,0,0,1-2.81767-.27995,9.853,9.853,0,0,1,.48606-2.54051C74.93591,242.83548,75.185,240.89723,77.75509,240.478Z"/><path class="b" d="M99.18388,207.1706a8.97745,8.97745,0,0,0-7.2018,5.23744c-.26228.54922-.895.92154-1.35675,1.37546a5.38487,5.38487,0,0,1-.62-1.96849,6.3242,6.3242,0,0,1,5.17286-5.41386c3.35138-.80411,3.77358-2.6715,4.291-5.62763,1.20552-6.88771,5.00544-12.15376,11.68536-14.9279.53718-.22312,1.28708.06634,1.93817.11755-.374.69314-.59629,1.813-1.14705,2.0088a14.89828,14.89828,0,0,0-7.20736,5.83488,17.50484,17.50484,0,0,0-3.21494,9.49287,4.131,4.131,0,0,0,1.77486,2.90864c3.316,2.23871,4.59584,5.62663,3.02892,9.28622-.34343.80215-1.3284,1.97609-1.87338,1.90287a3.87936,3.87936,0,0,1-2.62-1.73963,35.36811,35.36811,0,0,1-1.95247-5.58267C99.61215,209.22123,99.45791,208.33114,99.18388,207.1706Zm2.82289,1.40257c.33246,1.74.53462,3.11321.89135,4.445.09025.33687.67416.54154,1.03122.80694.24722-.37563.70982-.75436.70451-1.12643C104.61012,211.02674,104.418,209.377,102.00678,208.57317Z"/><path class="b" d="M298.46709,197.711a40.6395,40.6395,0,0,1,1.8535-3.76034,11.67934,11.67934,0,0,1,1.76632-1.75556c1.206-1.21719,3.324-1.84144,2.50511-4.32011-.94048-2.84639-2.09081-5.45528-5.20424-6.5286-.38878-.134-.88278-.05713-1.20556-.26667a9.48258,9.48258,0,0,1-1.30115-1.21444c.56868-.32689,1.14253-.94267,1.70519-.93256,3.08846.0555,4.93112,2.08007,6.49089,4.4353a5.09125,5.09125,0,0,1,.55661,1.37494c.8309,2.82144,2.35335,3.10048,5.32509,2.695,7.1574-.97656,13.94627.40631,19.19695,6.043a4.01551,4.01551,0,0,1,1.014,1.40511,9.79176,9.79176,0,0,1,.17222,2.164c-.65955-.30852-1.52823-.44456-1.94677-.9519-5.19515-6.298-12.14774-8.17543-19.63783-6.01367-1.43347.41376-2.79088,2.00219-3.62513,3.38539C304.54293,196.105,302.90685,198.30366,298.46709,197.711Z"/><path class="b" d="M304.62738,156.84461a6.21577,6.21577,0,0,1-.93222,1.35181c-1.65058,1.29667-2.72581,2.68031-2.20936,5.04717.3365,1.54216-.59978,2.319-2.38084,2.326-1.27058.005-2.53415.71836-3.80885,1.08814-.83738.2428-1.8365.79834-2.48579.53353-.48643-.19837-.73677-1.48157-.735-2.28095.0068-3.00388-.42172-3.34712-3.55716-2.80018-.75938.13243-2.03563.14342-2.2791-.26452a3.59757,3.59757,0,0,1-.03159-2.53627c.66317-2.29393,2.565-2.94634,4.6806-3.453a7.79517,7.79517,0,0,0,2.6995-1.74214c.9562-.76625,1.72793-1.78431,2.73631-2.459,1.65167-1.10514,3.00139-.86348,3.56521,1.2925a3.38852,3.38852,0,0,0,2.96375,2.91194A6.05021,6.05021,0,0,1,304.62738,156.84461Zm-6.57992,5.54857c1.27584-3.1003,1.27358-5.67426-1.42705-8.11733-1.20553,2.8481-3.95391,3.60893-6.89331,4.44919,1.92706.917,4.32025,1.38584,4.46861,2.24333C294.81605,164.551,296.61729,162.85037,298.04746,162.39318Z"/><path class="b" d="M230.62951,296.64188c4.31135-.08381,8.62479-.11329,12.933-.27828,1.706-.06531,2.454.61763,2.53233,2.25526.06647,1.38792.24357,2.26639-1.67682,3.123-3.18563,1.42107-6.2205.38792-9.29382.60968-2.63852.19036-5.30777-.06754-7.9637-.0904-1.61025-.01388-2.61858-.68966-2.437-2.38263.1574-1.46722-.09686-3.36494,2.42314-3.15929a28.69743,28.69743,0,0,0,3.4808-.119Z"/><path class="b" d="M241.696,306.66163c3.53062.03389,5.36543,1.96308,3.948,4.59655a2.55869,2.55869,0,0,1-1.859,1.05073c-4.25891.19664-8.52429.24981-12.78636.38687a7.47052,7.47052,0,0,0-1.428.39788c-.84933.208-2.37113.70772-2.45242.53612a21.04679,21.04679,0,0,1-1.51018-4.55373c-.04182-.1935,1.11161-.79139,1.7722-.95454a19.55975,19.55975,0,0,1,2.68765-.25611C233.83563,307.481,237.6023,307.08639,241.696,306.66163Z"/><path class="a" d="M238.13051,119.06892a6.21677,6.21677,0,0,1,1.15881-1.22527q8.561-4.99892,17.16562-9.92252a32.20335,32.20335,0,0,1,4.45259-2.19125,5.7567,5.7567,0,0,1,2.25565.13062c-.37732.68366-.58211,1.68843-1.15991,1.99871-3.69575,1.98493-7.551,3.67988-11.202,5.73938-3.43821,1.93958-6.67774,4.22963-10.036,6.315a2.96649,2.96649,0,0,1-1.76013.44327C238.70595,120.32365,238.48138,119.6163,238.13051,119.06892Z"/><path class="b" d="M191.31916,232.89464c.05112-.07456.2618-.7626.66166-.9a49.87142,49.87142,0,0,1,5.54922-1.56157c.32038-.07,1.06035.5348,1.166.94212.46871,1.806.77821,3.65336,1.14165,5.4865.04793.24172.18518.64313.09446.70737-.85085.60326-1.87407,1.75087-2.59627,1.59291-1.79446-.39255-4.1502,2.71331-5.31785-.62937C191.46038,236.93612,191.56789,235.10727,191.31916,232.89464Z"/><path class="b" d="M202.2858,247.96273c.91325-2.31117,1.93-3.57122,3.82866-4.07948a11.28451,11.28451,0,0,1,2.55128-.71421c.67925-.00984,1.83754.375,1.96674.82115a41.70489,41.70489,0,0,1,1.02109,5.5467.99439.99439,0,0,1-.4089.8453c-1.9888.69154-4.08867,1.96429-5.976,1.71319C204.11156,251.94148,203.26942,249.42067,202.2858,247.96273Z"/><path class="b" d="M199.67934,250.41137a2.1439,2.1439,0,0,1-2.34038,2.42811,5.27356,5.27356,0,0,0-1.6746.34163c-3.24271,1.30821-3.4551,1.19316-3.76521-2.13873-.08423-.90567-.24174-1.8043-.34368-2.70859-.17269-1.53264.12126-2.68948,2.061-2.479a2.4018,2.4018,0,0,0,.73995-.01243c1.36563-.28672,3.79679-1.07805,3.91561-.81547A27.90636,27.90636,0,0,1,199.67934,250.41137Z"/><path class="b" d="M193.55278,279.47032c.09035-2.641,3.96191-6.06745,6.62289-5.6816a2.1064,2.1064,0,0,1,1.27961,1.59661,33.659,33.659,0,0,1-.66762,5.65187c-.09052.46217-.8304.97065-1.36924,1.1318a13.73424,13.73424,0,0,1-2.70086.33436C194.0606,282.74031,193.46076,282.16034,193.55278,279.47032Z"/><path class="b" d="M203.71911,234.44852a4.67666,4.67666,0,0,1,5.623-4.5546c.56759.11314,1.47166,1.5343,1.29385,1.89379-.99657,2.0156,2.105,4.60967-.91089,6.2007-.40343.21283-.986.05366-1.4612.16795C204.29978,239.11013,203.48119,238.44944,203.71911,234.44852Z"/><path class="b" d="M200.09966,262.75308c-.07447,2.484-2.72393,5.20775-4.73473,5.23529-1.32088.01812-3.07723-3.26878-2.94549-5.51231.0894-1.52281,3.06177-3.5191,5.09712-3.43447C200.36206,259.1599,200.22373,261.14517,200.09966,262.75308Z"/><path class="b" d="M204.78485,262.35136c.10822-1.93532,2.8706-4.42533,4.74615-4.27332.16239.01315.44513.03039.46433.10154a28.33272,28.33272,0,0,1,1.27743,5.30143c.068,1.01566-.79383,2.09468-1.24851,3.14015-.01793.04126-.15993.01754-.23576.04615C205.0166,268.467,204.46932,267.99521,204.78485,262.35136Z"/><path class="a" d="M202.48947,99.4852c.6515-5.4979,1.26023-11.00176,2.01641-16.48523.08183-.594,1.01762-1.07035,1.55729-1.60123.34571.629,1.05306,1.30256.98176,1.8801-.79017,6.40087-1.68612,12.789-2.61059,19.17231-.06637.45838-.57982.85206-.88544,1.27582-.41438-.42649-1.10541-.8074-1.18473-1.2891a15.00108,15.00108,0,0,1,.05853-2.96953Z"/><path class="a" d="M163.94714,113.24583a13.283,13.283,0,0,1-1.72295-1.02851c-3.36263-2.77165-6.678-5.60082-10.05828-8.35051-1.0696-.87007-2.3775-1.455-3.40961-2.36052a7.96764,7.96764,0,0,1-1.27173-2.15682c.795-.04051,1.82507-.42172,2.34492-.06323,2.441,1.68346,4.76787,3.53768,7.08555,5.39332,2.44488,1.95744,4.86541,3.94875,7.21891,6.01377a3.75907,3.75907,0,0,1,.80464,1.85794C164.97082,112.67611,164.35593,112.96807,163.94714,113.24583Z"/><path class="b" d="M211.55522,297.14862c-1.82344.23234-3.46278.4334-5.09963.65223-1.247.16673-2.562.15812-2.61825-1.445-.06045-1.72321-.69436-3.7649,1.392-4.8976,1.04191-.56568,2.21435-.90423,3.21887-1.52248,1.25852-.7746,2.054-.66171,2.28772.87889C211.05169,292.89638,211.28043,294.99128,211.55522,297.14862Z"/><path class="b" d="M204.08335,226.27063a9.51431,9.51431,0,0,0-1.51773-.3061c-4.1561-.13213-4.247-.19217-4.55708-4.64416-.112-1.60866-.58492-3.52785,2.189-3.32805.30157.0217.665-.70417.95616-.67325.73542.078,1.97.24234,2.08012.63273a63.8929,63.8929,0,0,1,1.43243,6.919C204.73283,225.27324,204.3101,225.75661,204.08335,226.27063Z"/><path class="b" d="M199.35213,292.9416c-.25538,4.16109-.29475,4.17595-3.72278,4.71684-1.55212.24492-2.71468-.23477-3.04122-1.76948-.32969-1.54916-.922-3.349.9852-4.3995a21.63481,21.63481,0,0,1,4.26813-1.89879c.44467-.13046,1.46076.60891,1.70543,1.17149C199.80231,291.34942,199.44314,292.204,199.35213,292.9416Z"/><path class="b" d="M192.79891,310.73706c-.01789-.842.00411-1.40876-.047-1.96881-.42638-4.67248-.42738-4.66421,3.86974-6.36166,1.31075-.51781,1.83521-.05441,1.916,1.29538.103,1.72182.43573,3.43838.41651,5.15437a2.15179,2.15179,0,0,1-1.21529,1.66052A36.877,36.877,0,0,1,192.79891,310.73706Z"/><path class="b" d="M203.23658,307.20124a10.37284,10.37284,0,0,1,1.3738-1.54078,13.2993,13.2993,0,0,1,2.85341-1.90686,3.082,3.082,0,0,1,2.01515-.062,47.792,47.792,0,0,1,1.33248,6.06358c.02837.1828-1.02072.64366-1.61482.78557-.8728.20848-1.79277.20887-2.68146.36285C203.82513,311.36968,203.07326,310.70837,203.23658,307.20124Z"/><path class="b" d="M203.72619,277.70122c.0131-.55323,4.6827-4.08386,5.20767-3.48395,1.291,1.47517,2.0215,3.441,2.97741,5.20947-1.87718.80786-3.6987,2.06786-5.64588,2.3078C203.892,282.027,203.71207,279.90665,203.72619,277.70122Z"/><path class="b" d="M170.19669,242.53547a26.94085,26.94085,0,0,1-3.9742-.2208c-.51424-.09822-.89132-.91475-1.33089-1.40432.45912-.35559.90846-1.00485,1.37886-1.02059,3.97812-.13277,7.96-.15325,11.9408-.1968a2.43989,2.43989,0,0,1,1.222.12334,8.14291,8.14291,0,0,1,1.2893,1.23936c-.45123.282-.87946.758-1.3574.81467-3.04189.36089-6.0948.62933-9.144.92827Z"/><path class="b" d="M171.353,225.997c2.14395.1861,4.30512.26946,6.4204.6258.57671.09716,1.015,1.01578,1.51674,1.55739-.60968.29-1.23252.85439-1.82688.82574q-5.96284-.287-11.91171-.82894c-.50223-.04488-.95188-.67766-1.4259-1.038.49667-.41578.98006-1.16708,1.49236-1.18741,1.90176-.07543,3.81307.08987,5.72078.16475Z"/><path class="b" d="M171.16289,231.43371a43.75324,43.75324,0,0,1,5.43281.28526c.75937.12613,1.38828,1.03776,2.07647,1.5924-.64847.34138-1.3106.99969-1.9432.97236q-5.79973-.25037-11.5825-.81907c-.48144-.047-.88395-.90035-1.32305-1.38.54736-.35634,1.08542-.99879,1.64375-1.01691,1.89707-.06172,3.80136.09714,5.70285.17177Z"/><path class="b" d="M180.60155,254.62394c-2.29732,2.58541-5.18652,1.38587-7.64566,1.88481a40.77,40.77,0,0,1-6.67315.5304c-.53067.01835-1.07845-.45937-1.6184-.70892.3049-.42889.57644-1.20161.91968-1.23481,4.65669-.45058,9.32272-.80752,13.98939-1.14663C179.82021,253.93089,180.09358,254.27855,180.60155,254.62394Z"/><path class="b" d="M167.11887,270.90047c.72019-.41482,1.409-1.11139,2.16593-1.19563,3.2742-.36442,6.56563-.62337,9.85731-.7468a6.85184,6.85184,0,0,1,2.42074.93383,7.04429,7.04429,0,0,1-2.09826,1.04968c-3.58878.42543-7.19223.73126-10.79461,1.02984a4.21134,4.21134,0,0,1-1.3373-.354Z"/><path class="a" d="M132.22954,149.5537c.84927-.95363,1.39524-2.14279,2.04977-2.20591,3.60382-.34787,7.2334-.45108,10.8565-.54159.37089-.0092.75774.62352,1.13718.95836a4.31736,4.31736,0,0,1-.94666.92452,3.68941,3.68941,0,0,1-1.44667.322C140.27181,149.19551,136.66252,149.35125,132.22954,149.5537Z"/><path class="b" d="M223.08839,107.9086c1.678-2.55548,3.318-5.14341,5.10092-7.6288.17931-.24993,1.22446.12112,1.86777.20391-.11.71059.02511,1.82527-.37053,2.0653-2.34121,1.42068-2.90438,3.78738-3.68817,6.09954a11.60871,11.60871,0,0,1-1.34,2.20928C224.23394,110.06059,223.80956,109.26336,223.08839,107.9086Z"/><path class="a" d="M244.26161,136.43017c.70184-.7813,1.34035-2.15893,2.11646-2.24147,3.49577-.37136,6.90756-2.92322,10.56982-.53177q-5.972,1.73128-11.94394,3.46249Q244.63275,136.77482,244.26161,136.43017Z"/><path class="b" d="M179.35524,262.06983c-.6.52213-.88522.98856-1.18822,1.0004-3.36609.13172-6.735.22962-10.10286.22078-.36536-.00093-.8065-.68853-1.0442-1.14526-.0685-.13154.44677-.82363.70284-.82863,3.427-.06718,6.85579-.07455,10.28357-.04116C178.33921,261.27916,178.66841,261.652,179.35524,262.06983Z"/><path class="b" d="M176.83714,247.31714l1.616,1.12259c-.74066.49116-1.44841,1.33585-2.22816,1.4086a63.434,63.434,0,0,1-7.73228.20895c-.71262-.02089-1.40532-.72053-2.10718-1.10877a6.75173,6.75173,0,0,1,2.111-1.08338C171.05707,247.5922,173.638,247.50968,176.83714,247.31714Z"/><path class="b" d="M179.44058,287.78113c-1.79983,2.99678-10.48827,4.0858-13.16119,1.43016C170.53211,288.74916,174.78489,288.28706,179.44058,287.78113Z"/><path class="b" d="M144.56906,128.12176c2.96445.11636,5.93653.1475,8.8878.41141.70266.06289,1.33581.9041,2.0009,1.38735-.72708.33191-1.45749.95107-2.18062.94273a50.05547,50.05547,0,0,1-6.95953-.51787c-.81192-.124-1.51253-.97694-2.26395-1.49705Z"/><path class="b" d="M97.34229,178.76933c-2.27424-1.69854-1.573-8.30026.99884-11.58027.33642.32564.97587.69042.93427.9427C98.7051,171.58428,98.04074,175.02125,97.34229,178.76933Z"/><path class="b" d="M179.997,280.21327c-1.56365.42973-3.10833.95961-4.69636,1.26053a23.05358,23.05358,0,0,1-4.66447.43409c-.49308-.00863-1.06171-.76626-1.39495-1.30529-.08386-.13563.579-1.0624.946-1.09515,3.01212-.26857,6.03507-.41941,9.05639-.57368.17707-.00905.36833.26123.553.40152Q179.89678,279.77429,179.997,280.21327Z"/><path class="b" d="M179.692,96.949c.55841.02221,1.61044-.17037,1.7545.10761a52.7287,52.7287,0,0,1,2.57633,5.878c.12539.337-.393.99284-.74868,1.37665-.096.10369-.87911-.14788-1.01793-.41028-.99053-1.87282-1.90688-3.78546-2.81047-5.70265C179.36156,98.01954,179.5297,97.72167,179.692,96.949Z"/><path class="b" d="M176.61893,295.81608l1.4153,1.00785c-.30466.42273-.5271,1.093-.92789,1.226a52.73482,52.73482,0,0,1-5.7397,1.581c-.46027.09689-1.05614-.45061-1.58973-.70175.28006-.44969.46618-1.16718.85593-1.30374C172.56982,296.94681,174.56048,296.42111,176.61893,295.81608Z"/><path class="b" d="M266.106,295.74542c1.159-.77524,1.86581-1.61822,2.64677-1.69364a1.81994,1.81994,0,0,1,1.92936,2.47855c-.2714,1.043-1.35031,1.87591-2.072,2.80178C267.88756,298.29711,267.165,297.26215,266.106,295.74542Z"/><path class="b" d="M268.65491,279.68288c-.67633-1.32521-1.83846-2.622-.22553-3.95229a10.9416,10.9416,0,0,1,2.73472-1.21258,5.43739,5.43739,0,0,1,.66461,1.93182A3.13109,3.13109,0,0,1,268.65491,279.68288Z"/><path class="b" d="M78.99884,191.0273c-1.81579,1.52832-7.06114,1.40162-8.23776-.0114a1.22993,1.22993,0,0,1-.22792-1.08879c.24525-.36594.82788-.83646,1.15648-.76294C74.0815,189.69929,76.44543,190.35938,78.99884,191.0273Z"/><path class="b" d="M166.2633,306.92741c2.47252-2.68387,5.60855-.96754,8.00868-2.32367C174.53164,307.4983,170.988,308.53,166.2633,306.92741Z"/><path class="b" d="M264.42029,249.36774c-1.47072.91006-2.53344,1.96856-2.96994,1.75385a3.70833,3.70833,0,0,1-1.999-2.41538c-.05227-.73327,1.21461-1.56056,1.89707-2.34619C262.1966,247.19056,263.04487,248.021,264.42029,249.36774Z"/><path class="b" d="M269.83617,246.5052c.38787.73767,1.28679,1.77309,1.06418,2.15518a13.11652,13.11652,0,0,1-2.53377,2.548c-.5632-.70433-1.7021-1.55645-1.56733-2.08157.26319-1.02526,1.23857-1.86771,1.91909-2.78582Z"/><path class="b" d="M258.21439,307.97873c1.54248-1.24426,2.68954-2.21366,3.92676-3.04938a6.46225,6.46225,0,0,1,1.282,1.50276,27.29278,27.29278,0,0,1-3.2351,3.25734A19.90044,19.90044,0,0,1,258.21439,307.97873Z"/><path class="b" d="M272.05878,258.38789c-.93228,1.134-1.59695,1.94255-2.26168,2.75109-.72672-.87091-2.00754-1.73794-2.01366-2.61386-.00534-.77125,1.41433-1.55247,2.20469-2.32929C270.58948,256.83239,271.19077,257.469,272.05878,258.38789Z"/><path class="b" d="M263.38442,283.997c.44347.75913,1.43941,1.82208,1.22188,2.21775a11.87879,11.87879,0,0,1-2.5222,2.51938c-.523-.59754-1.585-1.35279-1.46515-1.76219a13.62182,13.62182,0,0,1,1.77567-3.06446Z"/><path class="b" d="M258.699,258.35133c1.57471-.78931,2.69611-1.75083,3.16869-1.4983.78529.41973,1.15407,1.6189,1.69833,2.48976-.75788.47085-1.56206,1.36954-2.2608,1.29395C260.58668,260.55906,259.971,259.53052,258.699,258.35133Z"/><path class="b" d="M259.13247,268.028c1.20673-.83087,1.96814-1.67642,2.83958-1.81132.399-.06173,1.5069,1.35223,1.41159,1.95818-.12964.8237-1.10407,1.5145-1.71615,2.26234C260.958,269.76289,260.24847,269.08858,259.13247,268.028Z"/><path class="b" d="M259.64653,296.875c1.10948-.90051,1.81677-1.911,2.509-1.9008.5717.00845,1.12559,1.22386,1.68741,1.90444a11.59,11.59,0,0,1-2.28154,1.74444C261.32688,298.73053,260.60637,297.77624,259.64653,296.875Z"/><path class="b" d="M267.21832,287.431a15.78,15.78,0,0,1,2.98033-1.9891c.27955-.10377,1.46144,1.17822,1.37976,1.31395a23.24478,23.24478,0,0,1-2.14058,2.72695C268.85742,288.94624,268.277,288.4097,267.21832,287.431Z"/><path class="b" d="M267.26406,265.31332c1.7025.65007,2.83072.82516,3.52692,1.468.29332.27081-.09593,1.7594-.60316,2.26367-.38939.38716-1.95609.36558-2.116.06137C267.61145,268.23077,267.59861,267.11976,267.26406,265.31332Z"/><path class="b" d="M263.55942,280.684c-2.73755-1.29248-2.82756-2.83375-2.25068-4.34372.15637-.40931,1.43569-.38955,2.19964-.56672C263.52337,277.21709,263.53836,278.66059,263.55942,280.684Z"/><path class="b" d="M268.62636,309.39111c-.36954-.57441-1.15488-1.28692-1.0198-1.69374a7.58259,7.58259,0,0,1,1.6058-2.06849c.49088.50356,1.394,1.02076,1.378,1.5076a6.42439,6.42439,0,0,1-1.04891,2.27381Z"/><path class="b" d="M80.80713,181.09048c1.23491.81524,2.46975,1.63041,4.05826,2.67911C82.02143,184.90514,81.15423,184.37035,80.80713,181.09048Z"/><path class="b" d="M141.86192,293.76615q-1.3024,1.29033-2.60487,2.58073c-.36709-.55434-1.13081-1.50953-1.03911-1.60031a25.56777,25.56777,0,0,1,2.67019-2.12219Q141.37506,293.19525,141.86192,293.76615Z"/><path class="b" d="M137.98732,285.67036c1.27713-.58112,1.99648-1.18594,2.63341-1.10893.49359.05963.8842.97158,1.32054,1.50464-.51913.39987-1.07376,1.15919-1.54885,1.11235C139.73807,287.11395,139.14374,286.44016,137.98732,285.67036Z"/><path class="b" d="M140.29108,300.83412q1.25978.77588,2.51963,1.55174c-.60407.45053-1.33678,1.36625-1.78224,1.24313-.67545-.18676-1.15121-1.09565-1.71189-1.69772Z"/><path class="b" d="M137.8644,266.38184l3.26985-.21332c-.34112.7385-.51608,1.88123-1.0675,2.10786-.61692.25343-1.57507-.32344-2.38469-.539Q137.77327,267.05962,137.8644,266.38184Z"/><path class="b" d="M138.567,273.716a12.82418,12.82418,0,0,1,1.84451,2.24995c.09631.19491-.726.84354-1.12666,1.28392a12.06476,12.06476,0,0,1-1.60915-1.8923C137.55192,275.14128,138.10046,274.54,138.567,273.716Z"/><path class="b" d="M145.655,257.01786c.65084.81051,1.30489,1.30108,1.42641,1.89972.071.34992-.92493,1.31251-1.06827,1.242a4.2564,4.2564,0,0,1-1.686-1.45668C144.22232,258.53728,145.02283,257.79879,145.655,257.01786Z"/><path class="b" d="M138.188,256.35569c.4597,1.00528.96961,1.59535.87961,2.07226-.08862.46966-.78514.82464-1.21489,1.23-.38842-.523-1.03021-1.02255-1.08145-1.57668C136.73342,257.6716,137.46493,257.19092,138.188,256.35569Z"/><path class="b" d="M148.52694,300.16731a8.48422,8.48422,0,0,1,.927,2.18764c.02045.23682-.83223.8416-1.1218.75074a5.86638,5.86638,0,0,1-1.56432-1.12353C147.22955,301.50579,147.69127,301.02942,148.52694,300.16731Z"/><path class="b" d="M150.7978,240.57771a16.34982,16.34982,0,0,1-2.273,1.64726c-.20449.10559-.79188-.53043-1.20329-.8256q1.30846-.96855,2.617-1.93712Q150.36811,240.02,150.7978,240.57771Z"/><path class="b" d="M146.54549,269.03133c-.6501-1.02391-1.00647-1.58516-1.36279-2.14644.52254-.3247,1.05659-.91007,1.56379-.88771.37373.01647.95778.80894.993,1.289C147.77027,267.70653,147.1669,268.17333,146.54549,269.03133Z"/><path class="b" d="M144.48688,275.023c.87093-.45658,1.45828-.98516,1.71507-.85609a9.10758,9.10758,0,0,1,1.7466,1.46245c-.46.34593-1.02842,1.05777-1.357.96036C145.93787,276.396,145.41627,275.757,144.48688,275.023Z"/><path class="a" d="M214.59732,172.18783c.77147,5.65827,1.48567,11.3251,2.33647,16.97146.49061,3.25551,1.18033,6.48216,1.82751,9.71236.19384.96739.65375,1.88784.78994,2.85816a8.07467,8.07467,0,0,1-.24948,2.10289c-.58089-.45126-1.43969-.78788-1.68326-1.37833a17.40811,17.40811,0,0,1-.84041-3.62483q-2.07089-11.75954-4.10641-23.52532c-.27946-1.61193-.3004-3.0921,1.98453-3.05721Z"/><path class="b" d="M199.51038,160.72535q-.57829,1.1663-1.15658,2.33253c-.45144-.36937-1.34335-.91105-1.278-1.07817A10.09544,10.09544,0,0,1,198.382,159.993Z"/><path class="b" d="M197.01733,187.87258a16.01243,16.01243,0,0,1,2.28037-1.36755c.14917-.05932.88532.82808.83921.88846a7.23875,7.23875,0,0,1-1.61985,1.63285C198.3903,189.1122,197.7636,188.46,197.01733,187.87258Z"/><path class="b" d="M244.20587,178.53374c.93085-.50789,1.49912-1.0655,2.03317-1.03452.4661.027.89369.71737,1.33829,1.11469a6.899,6.899,0,0,1-1.73467,1.38029C245.59886,180.088,245.0051,179.27208,244.20587,178.53374Z"/><path class="b" d="M257.4056,181.42348c.711-.60979,1.32222-1.29875,1.45231-1.21747a10.48767,10.48767,0,0,1,1.63361,1.501c-.3887.35722-.86154,1.06682-1.14862.99838A7.30176,7.30176,0,0,1,257.4056,181.42348Z"/><path class="b" d="M225.0219,232.19q.37271,1.27486.74554,2.54976l-2.06629.16967.10242-2.60941Z"/><path class="b" d="M226.10751,255.206a16.557,16.557,0,0,1-1.41317-2.366c-.0438-.11051.91027-.89238,1.16073-.78714a2.64168,2.64168,0,0,1,1.40179,1.31918C227.3733,253.6938,226.70511,254.29947,226.10751,255.206Z"/><path class="b" d="M182.64441,182.18131q-.84135,1.04987-1.68277,2.0998c-.33717-.49487-1.0661-1.2379-.939-1.43857a7.98983,7.98983,0,0,1,1.71645-1.55882Q182.19178,181.73249,182.64441,182.18131Z"/><path class="b" d="M177.37577,203.9071l-2.67507.24518q-.06225-.79045-.12455-1.58087l2.749.1079Z"/><path class="b" d="M244.00237,232.27582c.69261.71583,1.491,1.2262,1.41955,1.53592-.12882.55867-.77806.99729-1.21,1.48607-.47439-.44293-1.15329-.814-1.34382-1.35661C242.76,233.6332,243.45154,233.04433,244.00237,232.27582Z"/><path class="b" d="M242.15529,241.18081c1.0225-.51162,1.62819-1.04992,2.20392-1.01966.38019.02,1.11027,1.04792.99305,1.28909a2.18614,2.18614,0,0,1-1.47335,1.12951C243.46658,242.61781,242.98363,241.89033,242.15529,241.18081Z"/><path class="b" d="M153.64787,193.31365q-1.26733.43879-2.5346.87752l-.53922-1.66855,2.72073-.51533Q153.47136,192.66049,153.64787,193.31365Z"/><path class="b" d="M242.50544,194.70471c-.52646-.82334-1.20253-1.5778-1.08008-1.744a8.228,8.228,0,0,1,1.73567-1.42442c.34032.48161,1.03681,1.05973.93858,1.42249C243.94732,193.521,243.25282,193.93637,242.50544,194.70471Z"/><path class="b" d="M234.63654,191.22788a8.60183,8.60183,0,0,1,2.01946-.70405c.2-.02214.801,1.04834.68942,1.18451a3.53359,3.53359,0,0,1-1.68675,1.27827c-.558.12946-1.2478-.30931-1.87936-.49694Q234.208,191.85881,234.63654,191.22788Z"/></svg>