<svg xmlns="http://www.w3.org/2000/svg" viewBox="0 0 200 200"><defs><style>.a{fill:#1586c8;}.b{fill:#1b4e68;}</style></defs><title>cleaning-supplies</title><path class="a" d="M114.26852,140.61106c-3.79631.00793-7.59062.86709-11.347-.628-.67579,2.22909,1.72574,4.45364.0864,6.67654-3.17947-.0213-6.29851-.05439-9.41746-.04991a4.59684,4.59684,0,0,0-1.40471.27924c-6.08761,2.01993-12.19776,3.60307-18.7461,3.48205-3.15427-.05827-6.27591-.23474-9.41353-.45118-1.6862-.11632-3.3955.13274-5.09543.177-2.95219.07681-4.37017-1.29582-4.2739-4.27862.08092-2.50767.25736-5.01624.507-7.51287.133-1.32963.64052-2.56791,2.14258-2.942A45.47093,45.47093,0,0,1,62.4866,134.22c3.12859-.39907,6.28055-.61379,9.42156-.91793a6.79479,6.79479,0,0,0,1.03488-.33459c-.04385-1.16572-.07052-2.4216-.14561-3.67461-.04832-.80665-.2305-1.60807-.243-2.41353-.03116-2.01531.02553-4.0319-.00188-6.04734-.02088-1.53627-.10816-3.07194-.18282-4.60706a9.98038,9.98038,0,0,1-.1417-2.18165c.852-4.657.26018-9.37752.68669-14.04945.15663-1.71592.60841-2.1343,2.25693-2.08888.48539.01338,1.03759.21991,1.444.05466,2.57109-1.04536,3.87961.78476,5.3065,2.28494a2.60606,2.60606,0,0,1,.73613,1.49414c.12879,2.5729.29148,5.15772.17567,7.72632-.21875,4.85219-.833,9.68053.319,14.525a33.6223,33.6223,0,0,1,.30021,5.32948c.14211,2.0068.50366,2.30135,2.52853,2.33823,1.02955.01876,2.05859.06279,3.38375.10478.35045-4.13783.66427-8.14955,1.04859-12.15451a14.6896,14.6896,0,0,1,.64865-2.80091c.44473-1.472.95136-2.92559,1.44533-4.38236,1.11281-3.28183,3.90564-5.04923,6.39573-7.09419a64.81286,64.81286,0,0,0,5.8631-5.0107c.73734-.77038.78989-2.23539,1.059-3.40634a13.26226,13.26226,0,0,0,.1098-6.94533c-.44-1.45465-.59012-1.64939-2.507-2.59055a22.796,22.796,0,0,0-2.256,3.59123,4.08378,4.08378,0,0,1-2.02252,1.96389c-.39976.23886-1.25036.33218-1.49012.08943-.375-.37978-.73216-1.29049-.52635-1.64534,1.135-1.957.95465-4.46837,2.66722-6.173a5.3786,5.3786,0,0,0,.684-1.51489c-1.52246-1.81337-3.01561-3.705-4.62956-5.48718a6.503,6.503,0,0,1,.10037-9.02328c.12294,1.09312.23441,1.919.3052,2.7484a5.49967,5.49967,0,0,0,2.00669,3.99578,16.36137,16.36137,0,0,1,2.154,2.88994c.54934.73566,1.13643,1.443,1.98059,2.50872,1.02319-1.12335,1.73585-2.008,2.55961-2.773a4.10232,4.10232,0,0,1,1.82284-1.10135,2.13246,2.13246,0,0,1,1.65564.60894c.53006.55743.04892,3.69628-.51611,4.35908-.57279.67188-1.16437,1.32774-1.94442,2.21414,1.74088,1.70038,3.47437,3.418,3.32,5.99591,2.481.94516,4.72537.43544,6.91642-.00224a2.8777,2.8777,0,0,0,1.68674-1.51715,29.35784,29.35784,0,0,0,2.13827-5.67627c.67724-3.01915,1.85814-5.50285,4.89264-6.74292.19863-.08119.32338-.34306.72272-.7893-.5239-.61179-.9357-1.46208-1.60885-1.81784a24.73745,24.73745,0,0,0-12.5613-3.18049c-2.08852.07062-4.18849-.31019-6.28667-.37438-1.60549-.04911-3.21716.13336-4.82452.10941A4.30108,4.30108,0,0,1,96.827,68.90477c.2902-1.30889,1.16858-1.3017,2.08541-1.026a10.01676,10.01676,0,0,0,5.75537-.06008,4.43236,4.43236,0,0,1,1.44061-.10958c1.92983.11177,3.85651.35416,5.78627.37508,4.889.053,9.40262,1.54634,13.80373,3.47159,2.1679.94831,3.50981,4.61335,2.369,6.61a2.793,2.793,0,0,1-1.90516,1.19474,3.18959,3.18959,0,0,0-3.14748,2.78809c-.33083,1.47647-.35206,3.14472-1.09356,4.37723-1.0392,1.72732-1.29068,3.6083-1.82088,5.43468a7.75,7.75,0,0,0,.71962,6.48,20.82325,20.82325,0,0,1,3.10065,7.85325,12.25673,12.25673,0,0,0,.87926,2.777c.58554,1.51379,1.27551,2.9939,1.02067,4.68845a1.005,1.005,0,0,0,.02269.484c1.36386,3.59065,1.0909,7.297.79627,11.00667-.10041,1.264.76174,1.51453,1.72489,1.49563,2.27026-.04455,4.53861-.19544,6.80884-.22883q3.28259-.04828,6.56685.06522c1.09386.037,2.14178.30464,2.28021,1.69273.30545,3.062.461,6.14775.95273,9.17921.31647,1.95091-1.32754,2.64674-2.09274,3.81819-.47562.72811-1.90375.736-3.1469.493a15.11748,15.11748,0,0,0-5.52873-.11941c-2.95137.5462-5.84905.13166-8.72965-.11518a25.27451,25.27451,0,0,0-7.47452.17847C115.81584,142.16729,115.79778,142.0812,114.26852,140.61106Zm2.47277-45.51869a23.64034,23.64034,0,0,0-2.94311-1.29637,15.85445,15.85445,0,0,0-3.77956-.67856c-.39862-.01722-1.061.70727-1.20455,1.20673a16.0817,16.0817,0,0,0-.67209,3.82178c-.10829,3.022-2.14866,4.82551-4.13884,6.54687-2.12272,1.836-4.5447,3.32162-6.75653,5.0613a6.63589,6.63589,0,0,0-1.80021,2.24048,26.00972,26.00972,0,0,0-1.59808,4.26265,35.18385,35.18385,0,0,0-1.285,5.65964c-.27761,2.48828-.264,5.01139-.31933,7.52075a21.31127,21.31127,0,0,0,.21166,2.4451,49.36868,49.36868,0,0,0,5.492,1.203c1.73127.18068,2.76438.74114,3.34877,2.52339.36214,1.10449.27941,2.66025,1.87786,3.32524.62359-1.21308,1.6903-1.25737,2.88482-1.23585a32.76312,32.76312,0,0,0,5.083-.254c1.67376-.23263,1.78537-.54009,1.90284-2.24836.11121-1.61716.25822-3.23353.45184-4.84275.1348-1.12.77117-1.59394,1.96995-1.6871,2.465-.19159,4.91423-.58772,7.58208-.92662.32578-1.99948.676-3.80157.90532-5.61891.81181-6.43252-1.77734-12.26975-3.4276-18.23225C119.676,100.81545,118.00791,97.96866,116.74129,95.09237ZM75.26149,100.962c-.05155,1.62679-.08686,3.14917-.15144,4.67028-.07183,1.69172-.16471,3.38265-.25884,5.07337-.08066,1.449-.2238,2.89619-.25294,4.34592-.037,1.84464.0269,3.6911.02217,5.53669-.007,2.73951-.32571,5.45931.28857,8.21548a19.37378,19.37378,0,0,1,.0871,5.321c-.02885.467-.76617,1.30361-1.10243,1.2674-1.53422-.16518-3.04762.44574-4.41593.34484a35.57075,35.57075,0,0,0-5.98305.44947,25.23239,25.23239,0,0,0-4.26674.85586c-.46632.12609-1.12869.60835-1.17941.99609-.18328,1.40042-.14431,2.82991-.19615,4.46614,2.8885-.32966,5.67938-.79118,8.48646-.93441,4.0349-.20588,8.082-.25363,12.12326-.23425a81.74569,81.74569,0,0,0,14.75346-.88551c2.09792-.37281,4.14738-1.01814,6.30237-1.56067-.6305-2.809-2.722-3.33292-4.65283-3.61-3.92045-.56269-7.8831-.84-11.83245-1.18894-2.08141-.1839-2.39867-.332-2.28073-2.48089a63.84991,63.84991,0,0,0-.38478-9.69464c-.17166-1.77059-.15679-3.55857-.25495-5.33711-.23116-4.18852.92948-8.3464.05-12.57515C79.58572,101.23141,78.59258,100.33238,75.26149,100.962Zm45.46241,32.767a10.9685,10.9685,0,0,0,.34866-2.3447c-.03414-.366-.54571-1.00971-.77787-.98221a21.78215,21.78215,0,0,0-4.23587.83555c-.38435.12639-.73675,1.08934-.69612,1.63844.15893,2.148.48113,4.28384.76225,6.58462,1.01369-.12539,1.88389-.22568,2.7519-.34247a16.37839,16.37839,0,0,1,2.637-.35573c2.34139.07495,4.67921.3999,7.01775.39269,3.87949-.012,7.76094-.15467,11.63634-.34781,1.66142-.0828,2.09875-.42083,2.07454-2.07294a37.46278,37.46278,0,0,0-.76115-6.72265c-.2231-1.12165-1.32012-1.46219-2.5146-1.38992-3.30881.20018-6.63429.19971-9.92986.51932-2.42166.23489-4.80651.84941-7.13017,1.28034-.14211,1.506,2.255,1.43123,1.16948,3.24668C122.48324,133.68362,121.73438,133.703,120.7239,133.72907Zm-52.54,10.9309c-.03914,1.5502-.30361,2.79405,1.03306,3.34369a2.10683,2.10683,0,0,0,1.81149-.13967c1.05-.90208.30755-2.04621.19036-3.368Zm8.99578-.2-2.90349.142-.09208,2.90618,3.15947.10011C77.28518,146.48614,77.23787,145.57713,77.1797,144.46ZM57.6314,146.49681c.996.98532,1.99085,1.45942,2.97022.87283.51437-.30811.66348-1.226,1.04377-2.00408C59.88449,144.92763,58.86646,145.63246,57.6314,146.49681Zm30.44793-1.66655c-1.00787-1.00943-2.00871-.62886-2.89942-.44975-.28575.05745-.661.74318-.6105,1.08459a1.28978,1.28978,0,0,0,.94639.78911A2.57874,2.57874,0,0,0,88.07933,144.83026Zm-7.82342,2.9054c.79735-.53688,1.53635-.7696,1.64993-1.17679a2.15034,2.15034,0,0,0-.38895-1.76114c-.26106-.28834-1.06171-.08813-1.77083-.1106C79.91917,145.72223,80.03528,146.41651,80.25591,147.73565Zm-15.30246-2.64988c-.38726.73332-1.05347,1.46458.01008,2.39311A1.53924,1.53924,0,0,0,64.95345,145.08577Zm26.22319-1.26313-.01742.63544a9.17681,9.17681,0,0,0,.99849-.18693c.05256-.015.03628-.27112.0518-.41579Z"/><path class="b" d="M96.99565,58.78306c-.34657.99489-.6447,1.81623-.9186,2.64557A2.357,2.357,0,0,1,93.8274,63.2918c-1.52538.0549-3.05215.07016-4.5304.10152-2.529-3.7949-2.35174-5.3182.77454-7.14977C93.06711,54.48855,95.11589,55.22572,96.99565,58.78306Zm-5.78126.43836c.50108.62074.7955,1.16418.93527,1.127a8.0816,8.0816,0,0,0,1.52861-.73188c-.181-.3047-.36754-.86938-.54185-.86561A9.34627,9.34627,0,0,0,91.21439,59.22142Z"/><path class="b" d="M74.12293,55.0234c.38-1.033.822-2.50963,1.46808-3.8908a1.94334,1.94334,0,0,1,2.27691-.99989,4.96718,4.96718,0,0,1,3.67065,5.9435,2.5339,2.5339,0,0,1-1.96437,1.94793c-.555.11156-1.09435.29913-1.6429.44445C75.727,59.05243,74.04057,57.73,74.12293,55.0234Z"/><path class="b" d="M84.1411,77.55863c-2.17961-.169-2.63984-.65218-2.89273-2.54512a3.48965,3.48965,0,0,0-.48683-1.56271,2.00638,2.00638,0,0,1,.2877-2.82835c.86436-.88573,1.69061-1.89851,3.301-1.45534a4.61282,4.61282,0,0,1,3.40474,3.9766c.38883,1.88623-1.01307,2.98168-2.13475,4.0925C85.24988,77.603,84.42078,77.50653,84.1411,77.55863Zm-.6253-2.50529c1.03059-.15982,1.444-.64925,1.071-1.49765a1.0296,1.0296,0,0,0-.93181-.39319C82.77817,73.58976,83.00535,74.25965,83.5158,75.05334Z"/><path class="b" d="M120.8624,134.7071c-.81491.99805-1.32428,1.62189-1.92714,2.36021-1.07524-.66294-1.79552-1.40172-1.11487-2.52869C118.569,133.29925,119.4386,134.31456,120.8624,134.7071Z"/><path class="b" d="M134.45005,135.45674l-1.59573,2.00174c-1.6353-1.20874-1.67937-1.7293-.18181-3.60158Z"/><path class="b" d="M133.86411,131.05354l2.5827-.54809c.186.78443.35747,1.50753.56533,2.384l-2.3946.30663C134.38663,132.5395,134.16606,131.91221,133.86411,131.05354Z"/><path class="b" d="M125.73947,131.585a7.03536,7.03536,0,0,1,1.8741-.97957c.722-.08358,1.20208.39446,1.21436,1.19221.01282.83217-.69879,1.71517-1.25259,1.44007A10.3364,10.3364,0,0,1,125.73947,131.585Z"/><path class="b" d="M124.16313,136.3918c.02188-1.23926.47115-1.53794,1.23543-1.482a1.27357,1.27357,0,0,1,1.27315,1.41343,1.1108,1.1108,0,0,1-1.39173,1.19169C124.75147,137.36237,124.38884,136.63509,124.16313,136.3918Z"/><path d="M138.84083,136.88865c-.52578-.74983-1.006-1.12978-1.023-1.5293-.0263-.62179.19049-1.3214,1.08116-1.31793.69149.0027,1.48215.14408,1.3468.97061C140.15379,135.57426,139.50251,136.0449,138.84083,136.88865Z"/></svg>