<svg xmlns="http://www.w3.org/2000/svg" viewBox="0 0 200 200"><defs><style>.a{fill:#1586c8;}</style></defs><title>cocktails</title><path class="a" d="M124.45226,54.50972c-2.59782,3.6928-6.37837,5.898-9.461,8.71652.66775,3.38186.91989,3.609,4.081,3.67025,2.65765.05151,5.32206-.01366,7.97178.15565,3.03365.19385,3.20953.95738,1.84147,3.61613a13.46881,13.46881,0,0,1-5.57637,5.41586,24.52464,24.52464,0,0,0-3.4251,2.87155c-3.85815,3.39271-7.69623,6.80834-11.56788,10.18556A3.60021,3.60021,0,0,0,107.14,91.98008a126.76858,126.76858,0,0,0,.34,17.02973,8.00657,8.00657,0,0,0,.673,1.64438,9.28121,9.28121,0,0,1,.90371,2.92882c-.04026,2.98-.35781,5.95488-.48555,8.93526-.171,3.99018-.32628,7.98294-.37225,11.97593-.03461,3.00631.48389,3.672,3.40814,3.98948,3.47778.37761,6.22416,2.46231,9.3304,3.69345a2.02353,2.02353,0,0,1,.93342,1.4663,22.76992,22.76992,0,0,1-.13008,3.32457,6.62923,6.62923,0,0,1-2.15747.03675c-3.85465-1.36162-7.803-1.21044-11.79529-1.07242-1.2989.04491-2.61052-.53344-4.01918-.51972-2.18191.02125-4.36554-.47316-6.55195-.50475-3.81384-.05507-7.63152.037-11.44519.14873-1.40536.04115-2.8.379-4.20658.46315-2.29574.13727-4.5969.19107-6.89655.25334a1.97232,1.97232,0,0,1-2.27986-2.00724c-.14612-1.21654-.6738-2.38287-.88688-3.597a12.56742,12.56742,0,0,1-.30476-3.61731,148.24024,148.24024,0,0,0,.93969-22.57791c-.08414-2.7991,1.08192-3.89163,3.79028-3.52876a38.79292,38.79292,0,0,0,5.56779.32985c6.04135-.06767,12.08179-.219,18.1223-.35125a9.40633,9.40633,0,0,0,1.35463-.28342c-1.83787-1.746-.93152-3.57133-.75282-5.41512.18637-1.92294-.07476-3.88466-.0193-5.826.076-2.65722.266-5.31117.42285-8.26043-3.13512-.67138-4.51738-3.74223-6.91055-5.62795-3.40141-2.68019-6.76954-5.4031-10.19311-8.05449-1.604-1.24228-3.35406-2.29714-4.94677-3.55257-1.4682-1.1573-1.47351-1.78494-.39426-3.58333-.07921-.1418-.12327-.33869-.244-.41618-.84767-.5441-1.831-1.145-1.26372-2.29153.57683-1.16569,1.61995-.54965,2.58294-.36884a23.31151,23.31151,0,0,0,4.9913.559c5.6746-.18386,11.34266-.56221,17.01666-.77463a4.90423,4.90423,0,0,0,3.19274-1.02139c2.01819-1.66726,4.22356-2.94449,6.97486-2.90994a1.57465,1.57465,0,0,0,.96543-.36907q3.00461-2.626,5.95777-5.31065c.98212-.8934,1.94484-1.81251,2.86106-2.77271C122.16993,53.14133,123.05867,53.359,124.45226,54.50972ZM105.21,141.56224l.95148-17.8968c-2.47359-.52233-4.46323-1.92343-6.86687-1.38468a4.54218,4.54218,0,0,1-3.76367-.81388,4.64321,4.64321,0,0,0-4.06752-.43434c-2.5944.69358-5.18811.99621-7.76432-.303a3.7808,3.7808,0,0,0-2.56365-.27276c-2.34912.72448-4.62637,1.68215-6.904,2.53879.03431,2.30671.22765,4.35257.059,6.36817a56.137,56.137,0,0,0-.17621,10.87152c.24805,2.25679.57348,2.73209,2.94025,2.67371,3.099-.07642,6.19362-.32226,9.29254-.41389,4.96656-.14686,9.93629-.19308,14.90209-.35818A35.19236,35.19236,0,0,0,105.21,141.56224Zm-2.84349-72.56135a183.24494,183.24494,0,0,0-22.64034,1.28179,22.35265,22.35265,0,0,0,3.36463,2.60338,22.51619,22.51619,0,0,1,1.98033,1.28356c1.36276,1.13569,2.63128,2.38538,4.00414,3.508,2.26679,1.85355,4.83375,3.41066,6.81538,5.52313a18.087,18.087,0,0,0,7.55,4.67863,14.05047,14.05047,0,0,1,.10705,1.56831c-.20294,5.0399-.46836,10.07775-.61622,15.11912a45.38131,45.38131,0,0,0,.30634,5.27016c.01667.18972.47721.34051,1.001.68786.14144-2.66048.31381-5.02238.38214-7.38728.11283-3.90482.04047-7.81865.274-11.715a8.56656,8.56656,0,0,1,3.45587-6.48022c4.18591-3.27005,8.24109-6.70776,12.34135-10.08695a6.04748,6.04748,0,0,0,1.31591-1.293,7.47886,7.47886,0,0,1,3.71132-3.19808c-.19874-.34642-.27883-.61716-.36645-.61962-2.63666-.07425-5.27419-.14953-7.91126-.14a1.29839,1.29839,0,0,0-.98357.72119c-.62832,2.34521-2.59956,3.29273-4.44879,4.30442a5.73411,5.73411,0,0,1-5.80584.03257A7.10748,7.10748,0,0,1,102.36654,69.00089Zm3.77072,50.45728c.064-1.20429.12831-2.17226.16462-3.14127.11855-3.16115-.22806-3.58066-3.41069-3.49635-3.53828.09374-7.07123.41812-10.60935.482-5.83432.10532-11.6709.082-17.85354.11473.08933,1.84324.1761,3.634.28176,5.8136,1.735-.31816,3.39207-.23061,4.59151-.92893,2.0641-1.20177,3.88944-.7494,5.82009-.0224,1.32488.49889,2.50541,1.00344,4.03115.20679a11.72243,11.72243,0,0,1,4.10844-.82818,3.90683,3.90683,0,0,1,2.27544.31327,9.707,9.707,0,0,0,8.56145.94442C104.54653,118.76279,105.19261,119.18885,106.13726,119.45817Zm-.57226-50.48c.28628,2.22276,1.803,3.84288,3.43815,3.924a4.87174,4.87174,0,0,0,4.60752-3.82364A34.46605,34.46605,0,0,0,105.565,68.97813Zm9.28369,73.97045c-1.62956-1.40876-6.01954-2.6071-6.807-1.81864l.21251,1.468Z"/><path class="a" d="M94.42137,126.59047c1.25624-.42772,2.09023-.72959,2.93558-.99527a1.7632,1.7632,0,0,1,2.49459,1.26961c.65089,2.10607,1.30893,4.21206,1.87419,6.3419.71543,2.69564.10211,3.39717-2.78123,3.77264a7.20831,7.20831,0,0,0-2.38727,1.08615c-1.61712.91076-2.75.97189-3.64905-.49108-1.05583-1.71813-2.2606-1.547-3.83518-1.17113a18.23365,18.23365,0,0,1-3.944.40692,2.153,2.153,0,0,1-1.91883-2.43664c.05371-1.50743.27214-3.00954.43346-4.51239.09428-.87832.27487-1.751.31362-2.63081.05939-1.34845.5465-2.22378,2.04129-2.23811a2.72645,2.72645,0,0,0,1.05186-.13585C89.9243,123.57991,92.42081,124.07422,94.42137,126.59047Zm.962,9.28288c1.20606-.61584,1.94472-.92319,2.59958-1.357.32481-.21517.77947-.79075.69181-.98527-.7788-1.72774-.08345-3.92441-1.82035-5.59781-1.60373,1.10394-3.17778,2.18748-5.06555,3.48694C92.95094,132.85983,94.13149,134.32238,95.3834,135.87335Zm-8.68077-7.99082a32.61628,32.61628,0,0,0-.8012,3.99058c-.148,1.94244.587,2.60552,2.49454,2.39265a12.36494,12.36494,0,0,0,2.20533-.6834c-.60222-1.16948-1.324-2.00528-1.40317-2.89807-.06726-.75818.607-1.58211,1.05594-2.61295Z"/></svg>