<svg xmlns="http://www.w3.org/2000/svg" viewBox="0 0 200 200"><defs><style>.a{fill:#45b658;}</style></defs><title>coffee</title><path class="a" d="M113.52279,109.87488a20.045,20.045,0,0,1,4.49393.59478c2.46461.94735,3.92116,4.867,3.20973,7.46194a9.12087,9.12087,0,0,1-1.97791,3.45856,4.92951,4.92951,0,0,1-4.26823,1.73539c-3.28726-.116-3.79973.2287-5.38853,3.69807a27.47083,27.47083,0,0,0,4.27709-.05419,1.575,1.575,0,0,1,1.92986.92724,1.64554,1.64554,0,0,1-.01432,1.31413c-.44316.802-1.187.86945-2.07689.65966a14.20438,14.20438,0,0,0-6.63573.02582,36.52683,36.52683,0,0,1-7.0372,1.02038c-4.61969.16074-9.24854.06459-13.87353.05448a5.33058,5.33058,0,0,1-1.11078-.23353c-.23783-2.16087.22858-2.667,2.00655-2.28014a14.12724,14.12724,0,0,0,6.37526-.18957c-1.119-1.30264-1.90768-2.39848-2.87127-3.30934-2.92538-2.76535-3.59042-6.29389-3.5251-10.0705.02341-1.354.27321-2.70287.34167-4.058A5.04128,5.04128,0,0,0,87.144,108.86c-.43284-1.33649-.27309-1.81709,1.131-1.87187,3.34345-.13044,6.69424-.06131,10.03963-.15734,3.02616-.08695,6.06379-.16,9.06481-.50982a7.85562,7.85562,0,0,1,2.70517-.04616,3.32117,3.32117,0,0,1,2.8573,2.47256A6.14753,6.14753,0,0,0,113.52279,109.87488ZM90.25193,109.007c-1.3972,5.662-1.47324,10.69089,2.92046,14.83968a4.85793,4.85793,0,0,1,.51756.49578,9.17506,9.17506,0,0,0,7.4947,3.66859c1.59631.02385,2.99932.01052,3.8839-1.625a2.81785,2.81785,0,0,1,1.302-1.01308,5.345,5.345,0,0,0,3.176-4.18416c.51082-3.053.99023-6.1219,1.24488-9.20374.22426-2.71418-.58906-3.38424-3.35013-3.261-1.51034.06743-3.0177.25572-4.52753.26975C98.781,109.0321,94.64767,109.007,90.25193,109.007Zm22.408,8.79588c-.06343,1.51657.208,2.03949,1.30836,2.58383a3.0865,3.0865,0,0,0,3.29967-.613,4.78431,4.78431,0,0,0,.61139-5.92295,2.15385,2.15385,0,0,0-2.55761-1.18944,2.53787,2.53787,0,0,0-2.25947,2.12726C112.90727,115.8097,112.78764,116.83623,112.65992,117.80283Z"/><path class="a" d="M103.34588,101.25343a2.05469,2.05469,0,0,1-2.82515-.80739,21.293,21.293,0,0,1-1.82559-3.87889c-.57651-1.65448-.87493-3.40414-1.41465-5.07351a21.44527,21.44527,0,0,1,.0418-12.99158c1.35377-4.48415,6.79214-8.88025,11.85455-7.31392a2.71486,2.71486,0,0,1,1.832,1.31668,9.52719,9.52719,0,0,1,.489,7.89307c-.72591,2.14426-4.73421,3.753-6.85742,2.84386-.35988-.15412-.85171-.66866-.80618-.93536a1.55153,1.55153,0,0,1,.93124-.89688c.87906-.33006,1.81342-.51126,2.72227-.76384a2.688,2.688,0,0,0,2.03379-2.65124c.01991-.239.05592-.47659.07543-.71557.30554-3.74227-1.48-4.99866-4.96262-3.67973-4.30772,1.63145-5.53136,5.18276-6.00025,9.22775a20.86037,20.86037,0,0,0,1.21479,9.658,15.55944,15.55944,0,0,1,.5776,2.32287,10.57667,10.57667,0,0,0,2.36818,5.15917A4.6973,4.6973,0,0,1,103.34588,101.25343Z"/><path class="a" d="M94.28147,95.5668c-.2093,1.25868-.55536,3.61344-1.01491,5.94586-.14824.75238-.46869,1.65454-1.56343,1.40934-1.10866-.24833-.97626-1.10911-.74478-1.91263.82276-2.856,1.50379-5.749,1.02448-8.72859a30.40747,30.40747,0,0,0-1.4897-6.22535c-.90781-2.3246-2.9317-2.55848-4.78627-.83725a4.24394,4.24394,0,0,0-.75543,5.44023c.78185,1.10243,1.40506,1.0891,2.37821.04355a2.78666,2.78666,0,0,1,1.298-.897,1.90809,1.90809,0,0,1,1.45751.382c.22962.202.19665.88768.06466,1.28488-.749,2.25339-4.27935,2.94566-6.20672,1.249a5.716,5.716,0,0,1-1.05145-7.32467,11.67957,11.67957,0,0,1,3.69845-3.29334c1.63477-.94673,4.31744.24124,5.28417,1.97836C93.669,87.306,94.203,90.81764,94.28147,95.5668Z"/></svg>