<svg xmlns="http://www.w3.org/2000/svg" viewBox="0 0 200 200"><defs><style>.a{fill:#b121d5;}.b{fill:#811a9b;}</style></defs><title>dining</title><path class="a" d="M139.84649,114.17789c.17947,1.8736-1.03286,2.20013-2.27189,2.27267-1.59778.09358-3.20793.02518-4.81083-.02934-2.32594-.07911-2.57052.06513-2.52343,2.43629.06316,3.1813.18965,6.36443.40472,9.53895.37648,5.55732.82269,11.11018,1.27925,16.66166.15194,1.8471.50776,3.68.60245,5.528a7.785,7.785,0,0,1-.58341,2.263l-.69835-.03579a8.84975,8.84975,0,0,1-.73381-2.04079c-.51548-5.09-1.01063-10.183-1.4172-15.28265-.3547-4.44888-.57574-8.90831-.87646-13.36169-.09047-1.34012-.30893-2.67345-.35787-4.01393-.03492-.95663-.32752-1.36056-1.35934-1.36717-4.229-.027-8.45716-.15476-12.68609-.20594-8.74841-.10589-17.49763-.155-26.24543-.2949-3.00856-.04812-6.01483-.28163-9.02028-.46159-1.36473-.08174-2.24858.2814-2.1717,1.87077.08918,1.8434.03381,3.69759.19965,5.53279.674,7.45919,1.39749,14.914,2.12914,22.36786.18624,1.89748.46966,3.78542.7069,5.6657-1.83362.56134-2.37435.22256-2.45336-1.63858-.152-3.58033-.05332-7.18222-.4074-10.74046-.51192-5.14453-1.38372-10.25227-1.99793-15.38814a48.94079,48.94079,0,0,1-.21151-5.75426c-.00141-1.58192-.60783-2.14669-2.24168-1.96438-3.05341.34074-6.12552.54917-9.19547.67339a1.99658,1.99658,0,0,1-1.60919-.98766c-.2774-1.10209.55946-1.30014,1.5382-1.30708,7.10421-.0504,14.208-.18459,21.31214-.19935,2.20766-.00459,4.41593.27761,6.55055.42347.19163-.46992.3442-.65464.31985-.812-.63551-4.1066-1.44845-8.19411-1.8695-12.32179a21.70321,21.70321,0,0,1,.64416-5.8581c.06181-.346.90161-.63965,1.43-.79542.793-.2338,1.6282-.32439,2.92394-.56456-.48672-2.31253-.95782-4.55092-1.5369-7.30222a25.82509,25.82509,0,0,1-2.13276,1.97266c-.366.2645-1.00168.52447-1.32588.37477a1.622,1.622,0,0,1-.57336-1.25056,19.94672,19.94672,0,0,1,.22643-2.539l-.466-.20728a7.05647,7.05647,0,0,1-1.58535,1.47565,4.59773,4.59773,0,0,1-2.47913.46618c-.281-.03991-.504-1.23325-.5567-1.9152a5.89642,5.89642,0,0,1,.28194-1.8887c.53727-2.0504.249-3.6651-1.7474-4.93249-.79659-.50569-1.73715-2.3698-1.51587-2.61134.83052-.90672,2.31771-2.148,3.18958-1.91019,2.94978.80462,4.53282-.08885,5.635-2.8109.27549-.68028,1.49535-1.13378,2.369-1.37982,1.30777-.36834,2.38729-1.77,1.90621-3.05663-.11518-.308-.93947-.50192-1.43212-.49134-2.07673.04464-4.194.47517-6.20969.17718-1.08988-.16111-2.70095-1.42836-2.80154-2.33769-.09909-.89556,1.22007-2.317,2.258-2.89171a64.10149,64.10149,0,0,1,6.78164-2.86274,10.74719,10.74719,0,0,0-1.18969-2.31187c-1.93125-2.22735-1.92979-4.989-2.0457-7.62863a3.90274,3.90274,0,0,1,1.6166-2.89966c1.08691-.689,2.17053.17565,2.81523,1.29042.69941,1.20946,1.3785,2.43181,2.11892,3.61573a4.64942,4.64942,0,0,0,.91747.84405c.27665-.31387.72257-.58986.80262-.94771a10.91831,10.91831,0,0,1,3.68268-5.92629,4.9612,4.9612,0,0,1,1.55963-1.08644c1.18889-.38736,2.245-.24191,2.22949,1.381-.014,1.47191-.13311,2.94265-.157,4.4147-.01353.83387.0713,1.66938.12586,2.79333,2.07156-1.36245,3.72007-2.54694,5.47385-3.54686a2.69378,2.69378,0,0,1,2.228-.30392,2.50158,2.50158,0,0,1,.606,2.1541c-.5128,2.47614-1.23633,4.90863-1.98259,7.74635.4018.29528,1.22136.86271,2.00233,1.479,1.45822,1.15065,1.41095,1.79677-.22095,2.72441-1.9789,1.12491-4.01156,2.1597-5.94511,3.35608a1.6949,1.6949,0,0,0-.56129,1.53949c.8598,1.82169,1.8976,3.55935,2.96853,5.4998.52178-.7417,1.15072-1.55535,1.6914-2.42392.72953-1.172,1.751-1.90238,3.04192-1.27548,1.24.60216,1.48629,1.81985.962,3.13524-.06043.15161.01967.35924.03934.59852,1.73672.01009,3.88784-.64,4.61527,1.52761.78151,2.32879-1.5605,2.67572-2.89662,3.59481-.013,3.8941-1.21816,5.04341-5.26137,4.75841-1.35445-.09546-2.13695.18224-2.11836,1.648.0289,2.27825.10172,4.55619.10443,6.83432a7.069,7.069,0,0,1-.32926,1.51257c-.52715-.33611-1.45281-.61478-1.511-1.01848a22.85492,22.85492,0,0,1-.19822-4.7718c.13544-2.00567.35194-3.77931-1.61387-5.29761-1.60467-1.23936-1.33151-2.69132.14589-4.23931.32827-.344.58969-.75177,1.00187-1.28553-1.84677-.68652-2.74935-1.63585-2.59647-3.63449.05788-.75711-1.31967-1.624-2.37324-2.18031.247,3.00383.63692,6.00434.70636,9.01226.0961,4.16415.02817,8.33659-.12092,12.50008-.0836,2.33493-.068,2.415,2.20356,2.28187a25.18721,25.18721,0,0,1,5.15162.13857c.64339.09582,1.64954,1.03046,1.6567,1.5934a93.45891,93.45891,0,0,1-.31662,11.01384,38.05964,38.05964,0,0,1-1.865,6.95254c-.43987,1.43457.4067,1.53937,1.3969,1.52149,3.078-.05553,6.15528-.14885,9.23309-.2153q8.55836-.18491,17.117-.35382C138.16,114.16379,138.979,114.17789,139.84649,114.17789Zm-39.51791.21443.00167.039a34.1607,34.1607,0,0,0,4.98442-.06918,3.48914,3.48914,0,0,0,2.42263-1.51942,31.98384,31.98384,0,0,0,2.19966-15.3808,1.83817,1.83817,0,0,0-2.15448-1.9q-7.739.44928-15.48014.86088c-1.27609.06572-1.60959.65544-1.44149,1.86988.49889,3.60441.89589,7.22276,1.36944,10.83084.59322,4.51988,1.96911,5.65621,6.37315,5.34791C99.17752,114.43119,99.7535,114.418,100.32858,114.39232Zm-2.859-38.04426.56207.04607c.30723,1.06206,1.02543,2.2101.82535,3.166A4.91217,4.91217,0,0,1,96.188,83.0715a3.53363,3.53363,0,0,0-1.79435,2.57711,30.65151,30.65151,0,0,0,1.33172,6.355,3.10346,3.10346,0,0,0,1.4233,1.47669c1.161.69278,3.49375.235,3.72752-.69372a13.88628,13.88628,0,0,0,.53781-3.40787c-.02468-4.34839-.033-8.70411-.304-13.04109a73.28781,73.28781,0,0,0-1.22849-7.55444l-.62-.07984c-.506,1.26831-2.83464,2.07215-1.56556,3.637C99.087,74.05574,98.43244,75.05745,97.46962,76.34806Zm-3.43535-3.78649.704.32893a16.75848,16.75848,0,0,0,1.05491-1.65375A62.67906,62.67906,0,0,1,98.544,65.57665c.74574-1.19727.81085-2.20815-.01489-3.13976a2.68822,2.68822,0,0,1-.34757-3.17023,3.3364,3.3364,0,0,0-.29639-1.92631,8.591,8.591,0,0,0-.77149-1.29715c-1.46342-2.70313-2.89331-5.42486-4.39729-8.1051a1.58753,1.58753,0,0,0-1.16155-.78551c-.31759.03384-.72558.67167-.82128,1.10308-.71541,3.22466,2.9635,9.45458,5.36354,10.10484,1.17433.31818,1.27226,1.185.80469,1.88028-.28888.42962-1.25534.55433-1.91694.55258-1.59919-.00421-3.25351-.45868-4.78053-.172A11.842,11.842,0,0,0,86.277,62.59417c-.49679.32062-1.1171,1.34459-.958,1.60288a2.55954,2.55954,0,0,0,1.77729,1.16607c2.41905.02732,4.86342.00212,6.93324-1.652a5.80184,5.80184,0,0,1,1.88932-.61906,7.92227,7.92227,0,0,1,.07659,2.14067C95.40666,67.69125,94.69788,70.121,94.03428,72.56157Zm9.02078-27.44583-.553-.3699A32.23625,32.23625,0,0,0,99.60655,49c-1.30228,2.731-.93639,5.56587.175,8.32489,2.85945-.26222,2.853-.26267,3.04653-3.07063.0441-.63965.20935-1.27438.21636-1.91252C103.07086,49.93328,103.05505,47.52444,103.05505,45.11574Zm-20.8277,31.543a26.91106,26.91106,0,0,0,3.14016,2.36813c1.22673.6741,1.20847,1.36817.66125,2.48955a34.91066,34.91066,0,0,0-1.34475,3.791c1.89317-.27034,4.00311-2.20509,4.18479-3.43165.39425-2.66229-1.07105-5.82927-3.26372-6.68606C84.26058,74.6643,83.143,75.23465,82.22735,76.65871Zm22.64139-13.22253.42359.5776c1.94619-.86069,3.9129-1.68048,5.81315-2.6328a1.57074,1.57074,0,0,0,.16438-1.377,56.50354,56.50354,0,0,0-5.06762-3.06788c-.33952-.181-.97065.1849-2.17481.46044C107.96728,59.40405,105.80539,61.43853,104.86874,63.43618ZM111.06662,49.825a13.13331,13.13331,0,0,0-5.73061,5.07644C110.345,57.35261,110.96049,54.34262,111.06662,49.825ZM100.733,61.91332c.22476.30693.54816,1.21644,1.13223,1.43765.89846.34025,2.99994-2.12655,2.65243-3.23532a2.48184,2.48184,0,0,0-1.80383-1.46991C101.07552,58.68459,100.86278,60.08982,100.733,61.91332Zm-5.681,14.71216c-1.77032-.62713-4.00735.96634-4.48419,2.86966-.30415,1.21419.00167,1.974,1.39633,1.98723C93.01219,79.834,94.01258,78.26048,95.05208,76.62548Zm16.12341-2.139c-1.91219.0345-2.58186.961-2.54216,2.19342.01492.46373,1.25162,1.36167,1.37793,1.273a26.24262,26.24262,0,0,0,2.67829-2.36924Zm-19.956-3.04875c-1.13138,1.71769-2.11667,3.06312-1.21743,4.907C92.07442,75.43473,92.14359,75.186,91.21954,71.43769Zm12.12762-5.60355-.51647.4587c.37034,1.79122,1.34979,2.81521,3.25073,2.65866Z"/><path class="b" d="M39.01624,137.87606c.17681,3.36.41872,6.54242.46719,9.72783a11.09357,11.09357,0,0,1-.77546,2.93152c-.53534-.75209-1.108-1.48144-1.58723-2.26771a2.25682,2.25682,0,0,1-.22088-1.11195c-.04868-6.32294-.00054-12.64794-.15259-18.9682-.0752-3.126-.54306-6.241-.78029-9.365-.48439-6.37857-.98319-12.75721-1.32071-19.14405a2.58468,2.58468,0,0,1,1.52486-1.97734,48.84177,48.84177,0,0,1,6.48447-.72153c1.26412-.09229,1.83044.65165,1.91974,1.88494.55546,7.67042,1.14872,15.33811,1.68456,23.00988.08629,1.23532-.31187,1.98046-1.90433,1.88733a41.44776,41.44776,0,0,0-5.559.38008,32.66065,32.66065,0,0,0,.06979,4.15655c.04817.37359.955.92115,1.45205.90508,2.81022-.0909,5.61435-.352,8.423-.51145,3.991-.22655,7.9857-.60389,11.976-.57086,4.67845.03872,5.25476.76809,5.6875,5.52694q.58919,6.47888,1.18254,12.95736a3.83113,3.83113,0,0,1,.0348,1.524c-.16269.45715-.646.80018-.98886,1.19318-.30545-.37174-.8273-.71432-.882-1.11985-.42609-3.16164-.80695-6.3312-1.10479-9.50742-.12262-1.30758-.6332-1.73709-1.96273-1.66672-6.26959.3318-12.54342.58614-18.81695.83834C42.34775,137.928,40.82393,137.87606,39.01624,137.87606Zm4.06109-28.03153.1901-.01727c-.34069-3.16515-.67073-6.33153-1.04161-9.49312-.03071-.26177-.351-.711-.51407-.701a15.435,15.435,0,0,0-4.1.50322c-.46251.16121-.76323,1.52069-.71141,2.30531.35775,5.41777.8,10.83056,1.27372,16.23982.2601,2.9694.75579,3.28526,3.81922,3.2464,1.55709-.01977,2.195-.5117,1.99753-2.17711C43.60043,116.45884,43.37245,113.14771,43.07733,109.84453Zm-4.03916,25.396a41.22409,41.22409,0,0,0,5.77167.56188c5.73807-.22767,11.47131-.61221,17.198-1.04639.70156-.05318,1.9812-.97065,1.923-1.16178-.34693-1.13942.49534-3.15482-1.88249-3.05376-3.11277.13231-6.22849.20153-9.33992.35807-3.71145.18677-7.42738.35257-11.12688.68746C38.715,131.84552,38.67689,132.01779,39.03817,135.24055Z"/><path class="b" d="M138.76054,136.70433c.74518,2.46848,1.3984,4.55588,2.00257,6.6574a46.57685,46.57685,0,0,1,1.3181,5.15686c.08972.53829-.56183,1.20014-.874,1.8054-.47341-.44578-1.33235-.86847-1.36066-1.34091-.28606-4.77467-1.93153-9.18875-3.28744-13.70026a17.29565,17.29565,0,0,1-.25582-5.53618,1.89115,1.89115,0,0,1,1.29221-1.27561c1.57594-.21318,3.1876-.15521,4.7846-.22162,3.39-.141,6.7782-.35918,10.16948-.42527,3.83094-.07467,7.66447-.01721,12.02032-.01721,0-2.392.07031-4.79523-.07445-7.18546-.02217-.366-1.0134-.90209-1.59747-.96247-1.77091-.18308-3.572-.08618-5.33808-.29525-.43973-.05207-1.2076-.9594-1.12009-1.28327.997-3.69015-.1316-7.2063-.631-10.7929-.41394-2.97289-.51249-5.99067-.72111-8.99059-.06878-.98886.16869-1.68691,1.4188-1.82105,2.01626-.21643,4.00252-.7361,6.02-.90128a2.059,2.059,0,0,1,1.61,1.18174,51.92688,51.92688,0,0,1,1.31981,7.90605c.42037,6.90093.75379,13.81287.87537,20.72476.13723,7.80134.02257,15.60756-.04812,23.41107-.00475.52312-.56228,1.04124-.86269,1.56169-.33862-.48336-.93563-.94765-.973-1.45324-.20667-2.79974-.23923-5.61173-.403-8.41537-.25742-4.4066-.45564-4.63629-4.88728-4.37355-3.12284.18515-6.225.78816-9.34707.897-2.978.10374-5.9697-.19357-8.95562-.30776C140.36223,136.68813,139.86818,136.70433,138.76054,136.70433Zm23.76913-39.0394c-1.38527.28342-2.33039.44995-3.262.67268-2.38813.571-2.542.76356-2.20752,3.29544q.80364,6.08309,1.7018,12.15355c.49571,3.32991.5352,3.25854,3.66477,3.59213,1.62952.17372,2.235-.35667,2.0929-1.98061-.31215-3.56714-.48232-7.148-.85387-10.70825C163.42389,102.37275,162.92971,100.082,162.52967,97.66493ZM149,130.0796l.00111.30987c-2.88547,0-5.774-.07167-8.65434.04991-.729.03077-1.89856.54366-2.04982,1.06962-.31356,1.09056-.10113,2.39188,1.44455,2.64008,1.95042.31322,3.91179.56343,5.87325.80094a15.93108,15.93108,0,0,0,3.42622.261c4.30907-.4292,8.60222-1.01627,12.90951-1.466,1.3296-.13882,1.84063-.92432,1.33094-1.90989a3.28908,3.28908,0,0,0-2.20112-1.67788C157.05942,129.99,153.02784,130.0796,149,130.0796Z"/><path class="b" d="M116.21473,109.10594c3.71312,0,7.3445-.08758,10.96861.037a29.49473,29.49473,0,0,1,5.39434.8386c.42865.09624.71217.83881,1.06244,1.28414a5.4665,5.4665,0,0,1-1.687.48063c-4.64671-.25319-9.28662-.66661-13.93561-.82187C116.52218,110.87447,116.07873,110.42709,116.21473,109.10594Z"/><path class="b" d="M66.97712,108.93562c4.49183.258,8.37932.41486,12.24835.77184.61329.05654,1.14336,1.015,1.7119,1.55657-.59983.28133-1.22153.84318-1.796.7985q-5.64035-.43883-11.25763-1.14432c-.57014-.072-1.06077-.7737-1.58818-1.18414C66.64318,109.32686,66.99077,108.91965,66.97712,108.93562Z"/></svg>