<svg xmlns="http://www.w3.org/2000/svg" viewBox="0 0 200 200"><defs><style>.a{fill:#1586c8;}</style></defs><title>door</title><path class="a" d="M78.888,134.529c-.21377-2.179-.39357-4.01174-.58043-5.9162,1.24026-.38625,2.2823-.71072,3.59689-1.12009-.24592-1.07049-.57471-2.12689-.71363-3.20764a20.115,20.115,0,0,1-.17345-3.62758c.37781-6.99643.99722-13.98525,1.172-20.98573.203-8.13029.032-16.27.02224-24.40554-.00291-2.45073-.0403-4.90188-.00551-7.352.03409-2.39617,1.55513-3.71832,3.87438-3.38665,2.41982.34607,4.83191.74618,7.24763,1.121a4.00044,4.00044,0,0,0,.52264.05695c3.65608.0797,7.314.26541,10.96807.20739,5.32485-.0846,10.6463-.37044,15.9708-.50977a26.08331,26.08331,0,0,1,3.31756.32177c-.41948,7.03648-.862,13.8189-1.21773,20.60589-.36164,6.8991-.633,13.8029-.95288,20.70426-.31448,6.7852-.64045,13.56987-.96459,20.42219.67261.1157.99921.18117,1.32857.2267.74926.10346,1.7958-.07437,2.18715.35225a7.23771,7.23771,0,0,1,1.676,3.05245c.6004,2.48175.49436,2.5074,3.58177,2.27888.59219,2.49046,1.88138,4.90136-.40916,7.41489-.6168.67684-.679,1.8591-1.05647,2.99155-4.53743-1.79083-8.98991-.53245-13.402-.62046-2.351-.04691-4.71066.251-7.05869.16965a57.15833,57.15833,0,0,0-11.67052,1.19965,14.34063,14.34063,0,0,1-2.09414.07565c-5.42357.11925-10.85071.15487-16.269.3934-2.25841.09947-2.659-.70258-2.897-2.48977-.28777-2.16046-.45569-4.3404-.58156-6.51732a1.40123,1.40123,0,0,1,1.59745-1.62955C76.68535,134.3809,77.46518,134.44416,78.888,134.529Zm39.86512-7.028c.98266-19.76173,1.96264-39.46885,2.9535-59.39423a26.4387,26.4387,0,0,0-3.08853-.33219c-2.97107.04562-5.94124.26325-8.911.24877-4.54788-.02218-9.0967-.13884-13.64191-.30526a51.66253,51.66253,0,0,1-5.44625-.58145c-2.05073-.295-4.08484-.81269-6.17645-.21357-.0432.72472-.12293,1.32867-.1076,1.93019.0671,2.62807.25222,5.25621.22751,7.8828-.05087,5.43-.237,10.85864-.31069,16.28861-.04513,3.32352-.14491,6.6586.06481,9.97046a104.96,104.96,0,0,1-.1274,16.2806c-.2052,2.23346-.17063,4.48894-.24972,6.87525a77.01867,77.01867,0,0,0,8.01315,1.32821c4.33238.26378,8.68457.22757,13.0288.26449,4.11034.035,8.22123.00774,12.33181-.01091A10.19833,10.19833,0,0,0,118.75317,127.501Zm9.1138,8.37875a6.545,6.545,0,0,0-1.52686-.34634c-2.44014.05911-4.8803.29089-7.3176.257a87.8113,87.8113,0,0,0-16.17526,1.0134,60.0988,60.0988,0,0,1-17.22747.04047c-2.32873-.27421-4.68087-.36646-7.02532-.483-1.02988-.05119-1.55068.41411-1.57443,1.58044-.08988,4.4339.0011,4.61112,4.48333,4.48485,6.37232-.17944,12.73431-.22121,19.10628-.89814,7.038-.74769,14.157-.72708,21.23944-1.06663.95724-.0459,1.90407-.29577,2.86156-.3518.986-.05768,1.97908.00623,2.90318.01621Zm-4.00342-5.43412c-.84114-.05014-1.50573-.08445-2.16948-.13069-.82429-.05738-1.64768-.12675-2.47173-.18705-.95927-.07019-1.91922-.19912-2.87811-.19263-3.57264.02424-7.1449.13174-10.71741.13648-4.70818.00623-9.41717-.016-14.12406-.11246a31.79668,31.79668,0,0,1-3.88021-.55316c-.67776-.099-1.68292-.51425-1.97964-.2205-1.26075,1.24845-2.98148,1.06824-4.58612,1.6216.09652,1.02948.18226,1.94392.27482,2.93177,1.8503.26334,3.48524.50537,5.123.72738a60.60482,60.60482,0,0,0,18.00724-.284,59.84085,59.84085,0,0,1,10.16219-.809c2.93622.01937,5.93344.18639,8.85645-.84731C123.59221,131.91938,123.69873,131.34075,123.86356,130.44566Z"/><path class="a" d="M100.7095,91.30469C97.42,93.73725,97.42,93.73725,91.2028,93.60195a28.64033,28.64033,0,0,1-.6761-3.94676c-.10971-2.86711-.10842-5.74312-.02475-8.61175.0838-2.87221.32316-5.73988.50923-8.85956a7.29534,7.29534,0,0,1,1.43245-.57293c1.28014-.2562,2.57875-.42178,3.87195-.60981,2.19361-.319,3.44271.67528,3.53858,2.90879.20183,4.69786.34439,9.3982.54075,14.09631C100.44156,89.12316,100.60446,90.23526,100.7095,91.30469ZM93.33685,73.7428c-.2721,3.32615-.60465,6.10031-.69682,8.88248a26.44072,26.44072,0,0,0,.67825,8.26107q2.3146-.3877,4.00677-.67111c.44159-5.54.94088-10.87394.20857-16.39265C96.04271,73.79423,94.72745,73.76925,93.33685,73.7428Z"/><path class="a" d="M103.36865,118.73613c.32068-4.69126.58764-8.059.91378-12.74991.155-2.23019,1.43-3.191,3.61435-2.81409,1.28777.2222,2.58154.4221,3.85445.71211a7.29534,7.29534,0,0,1,1.41678.61065c.1034,3.12352.26676,5.99652.27448,8.86994.00769,2.86984-.06717,4.41774-.25275,7.28094a28.64034,28.64034,0,0,1-.78036,3.92747c-6.21861-.02935-6.21861-.02935-9.44255-2.54816C103.10016,120.95882,103.29244,119.85142,103.36865,118.73613Zm3.23581-12.77579c-.87816,5.49738-.52027,9.51549-.22551,15.06528q1.6813.32756,3.9876.777a26.44072,26.44072,0,0,0,.89673-8.24021c-.01847-2.78364-.27746-4.23848-.4614-7.57068C109.41106,105.98133,108.09561,105.97147,106.60446,105.96034Z"/><path class="a" d="M105.49935,91.56676c-.02164-1.35109-.06458-2.37985-.04977-3.40776.0601-4.17189.22123-8.3443.17913-12.51486-.02622-2.5897.4886-2.9837,2.94138-3.438a8.45836,8.45836,0,0,1,5.4701.83991c1.04278.50147,1.69555,1.2144.842,2.49006a3.32244,3.32244,0,0,0-.369,1.70782c-.08259,4.33974-.5149,8.68358.36335,13.01209.139.68535-.45176,1.55525-.815,2.28505-.11721.23524-.578.32516-.89951.42122-.143.04277-.32945-.07139-.49834-.102C110.31964,92.43581,107.97527,92.01343,105.49935,91.56676Zm2.57343-2.34872c3.22243.258,3.85728-.07807,3.93464-2.418.10658-3.22559.06847-6.45773.01769-9.6859a2.29,2.29,0,0,0-2.23086-2.38333,11.12365,11.12365,0,0,0-1.72994.041C108.06717,79.66,108.06995,84.34544,108.07278,89.218Z"/><path class="a" d="M92.25948,122.30871c-.17061.01873-.36455.11961-.50424.067-.31407-.11825-.76743-.24009-.86795-.48292-.3115-.75336-.8402-1.66234-.65372-2.33633,1.178-4.25673,1.04961-8.62014,1.26985-12.95507a3.32244,3.32244,0,0,0-.249-1.72939c-.76249-1.33208-.0616-1.99775,1.01361-2.42529a8.45836,8.45836,0,0,1,5.51535-.45641c2.41513.62422,2.90122,1.05315,2.69447,3.63472-.33282,4.15747-.463,8.331-.694,12.49688-.0569,1.02644-.17148,2.0497-.28728,3.396C96.99556,121.79079,94.62745,122.04866,92.25948,122.30871Zm5.84958-17.72385a11.12365,11.12365,0,0,0-1.72287-.16149,2.29,2.29,0,0,0-2.39163,2.222c-.27577,3.21676-.53917,6.43838-.65778,9.66355-.086,2.33966.52387,2.71917,3.75645,2.68652C97.43584,114.13486,97.76535,109.461,98.10906,104.58485Z"/><path class="a" d="M117.3357,98.28819a2.576,2.576,0,0,1-2.87168,2.46308,2.7602,2.7602,0,0,1-2.64188-3.025,3.369,3.369,0,0,1,3.26463-2.79209A2.92243,2.92243,0,0,1,117.3357,98.28819Z"/></svg>