<svg xmlns="http://www.w3.org/2000/svg" viewBox="0 0 200 200"><defs><style>.a{fill:#45b658;}.b{fill:#388a57;}</style></defs><title>empower</title><path class="a" d="M77.04865,152.32572c1.18534-.36129,2.0537-.66994,2.94594-.87416a2.7972,2.7972,0,0,1,1.03155.18c-.21014.31919-.35614.82865-.64145.92484a29.88606,29.88606,0,0,1-3.9255,1.05646c-.24158.04614-.86142-.54214-.87725-.859-.29291-5.85569-.31647-11.7338-.8635-17.56339A4.53431,4.53431,0,0,1,76.967,130.654c2.17046-1.56042,3.24039-3.40572,2.83933-6.15536a19.50344,19.50344,0,0,1-.01709-4.87249c.45666-4.19878,1.02762-8.386,1.61608-12.56895a1.60161,1.60161,0,0,0-1.12437-2.02435c-4.48148-2.09933-5.45765-7.92243-2.054-10.9865a4.7713,4.7713,0,0,1,4.88452-1.1c1.871.653,1.812.62106,2.92979-1.02831a18.73652,18.73652,0,0,1,2.811-3.48791,3.70758,3.70758,0,0,0,1.36457-3.82489c-.17964-.87327.313-1.3695,1.1521-1.19288a3.52161,3.52161,0,0,1,1.94081.89519c1.01594,1.25171,2.52666,1.15446,3.7997,1.66474.68291.27372,1.826,1.34613,1.72611,2.0598-.03348.23929-.42418.63887-.59952.613-.94507-.13956-1.13313.45012-1.3723,1.14884a28.2621,28.2621,0,0,1-6.4908,10.59621c-1.30162,1.3482-2.48737,2.8156-3.85665,4.088a16.75907,16.75907,0,0,1-2.43588,1.35149c-.48248.311-1.14265.75627-1.219,1.22364-.72337,4.42626-1.42607,8.86-1.94276,13.31395a34.01953,34.01953,0,0,0,.098,5.63589,2.03885,2.03885,0,0,0,.58554,1.218c1.062,1.04882,2.25408,1.971,3.26762,3.06138a2.59342,2.59342,0,0,1,.64616,1.77936c-.38049,4.21576-.95525,8.4154-1.27159,12.63491a59.61653,59.61653,0,0,0,.19453,6.15993c.023.77944.38686,1.05627,1.13593.99308a8.06012,8.06012,0,0,1,1.7923-.01681,3.11934,3.11934,0,0,1,.97435.5499c-.28085.21721-.5366.56883-.84723.62689a28.50313,28.50313,0,0,1-3.046.37934c-.95415.07349-1.40264-.38881-1.38448-1.38386.11314-6.2012.0844-12.40825,1.09384-18.55841a4.49439,4.49439,0,0,0-2.74158-4.40928.99937.99937,0,0,0-.818.11624c-1.35816,1.09728-2.70922,2.20727-3.99646,3.38543a1.82008,1.82008,0,0,0-.47685,1.2459c.08114,4.49257.17292,8.98574.34895,13.47534C76.5373,148.888,76.83471,150.50634,77.04865,152.32572Zm10.45978-51.90083-.2648-.16433a3.61726,3.61726,0,0,0-.11245-1.14188,18.42971,18.42971,0,0,0-1.8119-3.58584,2.74464,2.74464,0,0,0-3.71492-.98386c-.03151.01665-.08368-.00622-.12627-.01018-2.41591-.22324-2.41587-.22321-3.47111,1.76756-1.77094,3.341,1.21895,8.461,4.92652,8.15773,1.15418-.09439,2.323-1.08135,3.29938-1.88523A7.38317,7.38317,0,0,0,87.50842,100.42488Zm1.21147-.68023c.20823-.08594.35721-.10358.43806-.18712A24.57144,24.57144,0,0,0,95.878,88.284c.2452-1.00994-.52564-1.60782-1.541-1.30385-.373.11164-.92651.27271-1.15565.09653-.87524-.67292-1.45434-.16205-1.94166.41768-1.17755,1.40085-2.23906,2.9003-3.435,4.28428-1.1456,1.32581-1.76,2.48705-.461,4.19518C88.098,96.96542,88.25878,98.40833,88.71989,99.74466Z"/><path class="b" d="M116.19209,61.39231c-1.25981,1.22608-2.39451,2.30135-3.49316,3.41234-.5225.52837-.37932,1.04832.11,1.57292a50.80974,50.80974,0,0,0,4.45491,4.77442c1.719,1.419,3.802,2.39024,5.66591,3.64626.38806.2615.81949,1.02781.69447,1.35882a5.56983,5.56983,0,0,1-1.34579,1.60842c-.01228.01288-.50874-.29489-.49432-.42041.17795-1.55087-1.03909-2.16195-2.03021-2.66563-3.24576-1.6495-5.34-4.468-7.62255-7.11221-.2719-.315-.55372-.62132-.97187-1.08941-3.42543,4.36429-6.53889,8.71362-8.56523,14.19235.95264-.28732,1.56362-.41472,2.12849-.652q3.35807-1.41073,6.6897-2.88431c.89283-.39512,1.42526-.158,1.55957.798.32084,2.284.69573,4.5661.87367,6.86249.10008,1.2911.75563,1.63848,1.8494,1.83549a4.46356,4.46356,0,0,1,1.348.82c-.45424.26932-.88922.729-1.36589.77724-3.2876.33305-3.234.30365-3.34037-3.04715-.05695-1.79333-.35253-3.57869-.53063-5.36863-.10419-1.04688-.56364-1.32006-1.55247-.86431-2.356,1.08583-4.76305,2.06457-7.08755,3.212a2.08361,2.08361,0,0,0-.97582,1.54911c.02177,2.47967.2119,4.95805.35011,7.43644q.42222,7.57009.85568,15.13952c.01668.292.07291.58166.12018.9452a14.48029,14.48029,0,0,1,2.12918-.25313c.27394.00492.54087.40188.811.62033-.22745.26354-.40587.62992-.69359.767a4.28078,4.28078,0,0,1-1.476.39088c-1.63939.12932-2.22615-.15046-2.27832-1.70394-.19246-5.73212-.57062-11.45785-.86014-17.18693-.13532-2.677-.25211-5.35566-.31436-8.035-.00989-.42405.33682-.84842.48018-1.28526,1.70554-5.19678,4.78928-9.59383,8.12522-13.82179a38.36378,38.36378,0,0,1,4.285-4.59676,10.27017,10.27017,0,0,0,3.32-5.11747c.69774-2.65325,4.07043-4.44087,6.98848-3.99228a6.41086,6.41086,0,0,1,4.94618,5.78138,5.54085,5.54085,0,0,1-2.83506,5.4607c-.75164.47909-1.41188,1.10062-2.12,1.64916-1.98278,1.53595-5.13795.51939-6.21115-1.6899C117.386,63.33726,116.842,62.5152,116.19209,61.39231Zm1.68091-1.76811a7.969,7.969,0,0,0,1.76,4.84639,2.56459,2.56459,0,0,0,3.25958.58576,25.42361,25.42361,0,0,0,3.48153-2.57466c1.63675-1.50947,1.76934-3.50085.76813-5.75009a4.912,4.912,0,0,0-4.76-2.58612A5.30314,5.30314,0,0,0,117.873,59.62419Z"/></svg>