<svg xmlns="http://www.w3.org/2000/svg" viewBox="0 0 200 200"><defs><style>.a{fill:#45b658;}</style></defs><title>exercise</title><path class="a" d="M110.63353,82.57028c-1.90174-1.80749-3.92793-3.62381-5.82364-5.56731-1.76137-1.80587-1.69638-2.33714-.023-4.11914.92133-.98107,1.82558-1.97812,2.7646-2.99735,1.239.56368,2.29227,1.04289,3.368,1.53226a43.83206,43.83206,0,0,1,3.95389-3.01423c1.762-1.06533,2.75584.985,4.36317,1.38506.84661-.65579,1.75592-1.36013,2.99258-2.31809q3.54694,3.25447,7.07386,6.49265c.64675.59485,1.25119,1.23966,1.9285,1.79652,1.80285,1.48237,1.86858,1.742.84966,3.88519a10.77821,10.77821,0,0,0-.40338,1.24586,24.48415,24.48415,0,0,1,2.14973,1.90709c1.5405,1.71185,1.34972,3.11309-.56736,4.367-.70758.46282-1.50262.7918-2.69262,1.40635.98536.64832,1.70222,1.05457,2.34421,1.55649,1.19066.93063,1.4319,2.09456.50224,3.02313-1.15342,1.152-2.45738,2.15341-3.9847,3.46811q-5.29472-3.87036-10.98069-8.02662c-9.0695,9.44815-18.284,18.70773-28.12693,27.92332a31.82965,31.82965,0,0,0,2.54473,2.40725c1.50851,1.17871,3.185,2.1655,3.80044,4.14846,3.03535,1.05172,1.499,3.4162,1.15426,5.09028-.22786,1.10631-1.564,2.156-2.65105,2.83582-.488.30523-1.66984-.20667-2.37277-.624a10.352,10.352,0,0,1-1.84481-2.06791,10.34186,10.34186,0,0,0-1.5853,2.39533c-.43647,1.4831-1.33719,1.53017-2.48548,1.12916a10.43145,10.43145,0,0,1-2.1352-.97133,2.75945,2.75945,0,0,0-2.95915-.34165c-1.37555.63339-2.39332-.38863-3.32088-1.30188q-4.38409-4.31658-8.77166-8.62959c-.90482-.88617-1.54473-1.76179-.67573-3.07448a10.51873,10.51873,0,0,0,.79-2.07745c-.37885-.37379-.78161-.76367-1.17616-1.16166a1.94634,1.94634,0,0,1-.11461-3.07242,26.31374,26.31374,0,0,0,1.93405-2.76668,25.80494,25.80494,0,0,1-2.25123-1.65153c-.90105-.828-1.23754-2.0598-.38571-2.89107a57.92107,57.92107,0,0,1,4.81306-3.89634c4.30957,2.55531,7.20951,6.02481,10.40222,9.73,1.74479-1.44921,3.3475-2.67224,4.82771-4.029,5.71469-5.23811,11.42333-10.484,17.06437-15.8011C107.16888,87.77773,109.82413,85.9352,110.63353,82.57028ZM85.99619,112.16187c1.62938,2.63244,2.1452,2.75481,3.9838.95791q6.509-6.36132,12.96932-12.77218c3.45472-3.43013,6.875-6.895,10.30658-10.34824a5.91641,5.91641,0,0,0,1.662-4.32188c-.6206.2095-1.03522.23139-1.27489.44738-8.06965,7.27324-16.147,14.5383-24.15415,21.88A39.73119,39.73119,0,0,0,85.99619,112.16187Zm8.75359,13.152c-1.11136-1.2911-1.959-2.40335-2.93942-3.3827-1.23574-1.23463-2.57794-2.36294-3.87818-3.53268-.652-.58657-1.357-1.12089-1.96172-1.752-2.848-2.972-5.573-6.06978-8.53928-8.91706-1.5889-1.52527-3.53794-2.662-3.28691-5.42362-2.68144,2.12973-2.68641,2.79529-.60094,4.69614,2.6024,2.372,5.20391,4.75554,7.65431,7.28108,2.58787,2.66727,4.93836,5.56423,7.51,8.2483a47.67307,47.67307,0,0,0,4.25266,3.61114,4.2832,4.2832,0,0,0,.882.41212Zm14.3657-51.17831c-.421,2.25992.05021,3.26479,1.30459,4.23315,4.39989,3.39625,8.64013,6.99926,13.03718,10.39938a40.7336,40.7336,0,0,0,4.8255,2.80617l.42111-.58582c-2.478-3.87576-6.69868-5.97766-9.91642-9.09624C115.94735,79.13959,112.61013,76.89985,109.11548,74.13554Zm-21.9195,52.841.6186-.43706a7.2771,7.2771,0,0,0-.86171-1.61083Q81.0123,118.45254,75.00471,112.038a4.42809,4.42809,0,0,0-1.32116-1.1297,1.43906,1.43906,0,0,0-1.27551.24029,1.5377,1.5377,0,0,0-.36947,1.26958c.10125.425.54555.78067.87192,1.13765,2.55472,2.79431,5.087,5.61012,7.68721,8.36157A18.96133,18.96133,0,0,0,87.196,126.97651Zm42.42331-40.01485c.12591-1.23491.45185-2.00932.19515-2.37706a15.56684,15.56684,0,0,0-2.54228-2.78118c-3.367-2.93378-6.81956-5.76978-10.17192-8.71985-1.433-1.26092-1.63043-1.28238-3.02975.95376C119.00859,78.142,123.97974,82.274,129.61929,86.96166Zm-2.29767-9.09886q.31282-.3024.62554-.60481c-.94183-.90533-1.89961-1.79475-2.822-2.71945-2.01041-2.015-2.0031-2.02224-3.58742-1.625C123.57616,74.6578,125.4489,76.26031,127.32162,77.8628Z"/></svg>