<svg xmlns="http://www.w3.org/2000/svg" viewBox="0 0 200 200"><defs><style>.a{fill:#ffb736;}.b{fill:#cb8d1f;}</style></defs><title>fast-wifi</title><path class="a" d="M127.47551,129.13985a2.20318,2.20318,0,0,1-.54416-2.46925,1.1076,1.1076,0,0,0,.03705-.50671c-.323-2.38948.05979-4.77008.08075-7.15489.00748-.85067.04009-1.70342-.00514-2.55169a19.9438,19.9438,0,0,1,.2137-3.56722c.16915-1.34478.22351-2.70529.29175-4.06078a8.63012,8.63012,0,0,0-.10243-1.39217c-.05822-.51357-.51129-.65234-.88585-.729a5.39968,5.39968,0,0,0-1.72991-.11927,10.864,10.864,0,0,1-3.45979.00759,13.61407,13.61407,0,0,0-1.4279-.05c-.365-.02989-.72371-.13059-1.08719-.18706a14.3804,14.3804,0,0,0-1.694-.23262c-.64134-.022-1.28663.09111-1.92927.08169-1.26172-.01848-2.52368-.13044-3.78383-.10817-.84456.01494-1.684.21991-2.52982.29266a16.83942,16.83942,0,0,1-2.33728.08643c-.84918-.04568-1.69057-.22352-2.538-.32063a4.02688,4.02688,0,0,0-1.024-.01288c-2.03864.29592-4.08864.03914-6.13027.148-.06814.00363-.13819-.01194-.205-.00231a60.24074,60.24074,0,0,1-6.221.23012,1.5767,1.5767,0,0,1-1.61153-1.23844,1.18673,1.18673,0,0,1,1.15124-1.27933c.33972.00047.67839.09131,1.01918.10843,1.56095.07843,3.12213.18832,4.68392.20142,1.083.00908,2.16638-.14379,3.25107-.18021.6459-.02169,1.29572.07841,1.94192.05967,1.35737-.03936,2.7132-.15753,4.07032-.16979a13.11837,13.11837,0,0,1,2.02524.23648,7.0927,7.0927,0,0,0,3.50125-.14923,6.92888,6.92888,0,0,1,2.424-.15993c.88184.02765,1.75971.17532,2.63993.26461a4.38736,4.38736,0,0,0,.71512.03458,24.02354,24.02354,0,0,1,4.68589.31044c1.04568.13842,2.11625.07985,3.17425.13623,1.5281.08141,3.05465.19155,4.5824.28017.602.03493.603.44922.57446.87748-.07039,1.05558-.15047,2.11054-.22866,3.16559a2.24611,2.24611,0,0,0-.04445.40681c.27514,2.35872-.32628,4.67929-.30175,7.02665a3.46542,3.46542,0,0,0-.01087.7134c.44086,1.9152-.03942,3.79925-.19466,5.69042a5.12246,5.12246,0,0,0,.0535,2.32507,1.34687,1.34687,0,0,1,.0809.70113c-.10587.52575-.216,1.0084.39694,1.32485.10045.05188.1152.29993.14019.46185.06183.4005.09353.80585.16152,1.20514a4.85493,4.85493,0,0,1-.7745,2.44141c-.1343.16724-.31121.42024-.27136.58688.18785.7857.44026,1.55623.67713,2.32989a12.16832,12.16832,0,0,1,.91537,2.78264,8.45245,8.45245,0,0,0,.76445,2.41483c.31506.79052.70053,1.55453,1.08368,2.31578.24248.48182.54238.93442.80629,1.40586a6.90805,6.90805,0,0,1,.361.73343c.34838.84357.67538,1.69613,1.03589,2.53435.07517.17478.28256.28838.38569.45671.099.16155.25113.45584.19136.52233-.37077.41252-.32085.92162-.45121,1.39551a1.62891,1.62891,0,0,1-1.30215,1.18908,2.9173,2.9173,0,0,1-2.10122-.14709,2.02956,2.02956,0,0,0-.88488-.19707c-1.76958-.12421-3.539-.28178-5.31117-.331a88.501,88.501,0,0,0-9.4179.04713,10.52087,10.52087,0,0,1-1.81851-.22019c-.77285-.07847-1.54813-.13448-2.32309-.18987-.44267-.03165-.88663-.04945-1.33033-.06186-.74908-.02093-1.49915-.01757-2.24743-.05323-.54418-.02594-1.088-.15662-1.62874-.13937a48.777,48.777,0,0,1-5.51215-.10361,4.44455,4.44455,0,0,0-1.09188.164c-.23381.04163-.46247.12623-.69727.146-1.59358.13424-3.18663.28388-4.783.37278-1.08165.06024-2.171-.01337-3.25187.05454-.74111.04658-1.46945.26994-2.21047.34988-1.42417.15365-2.85224.27625-4.28118.37637a2.19717,2.19717,0,0,1-.893-.1856.75762.75762,0,0,1-.52608-.88828,26.85758,26.85758,0,0,1,1.21006-5.99365c.79015-1.98907,1.32062-4.08029,1.99373-6.11723a16.065,16.065,0,0,1,1.49907-3.89849,9.72434,9.72434,0,0,0,.982-2.4522c.25858-.84506,1.07092-1.47611,1.82439-1.08426a7.38916,7.38916,0,0,0,2.88416.49838c1.69071.17111,3.38745.28323,5.082.41552a2.54356,2.54356,0,0,0,.605-.00082,31.23932,31.23932,0,0,1,6.51887-.19866,12.39545,12.39545,0,0,0,3.564-.08457,3.51508,3.51508,0,0,1,.91838-.00074c2.04186.06355,4.08342.13814,6.12553.19127a14.51662,14.51662,0,0,0,2.85317-.01936,22.34251,22.34251,0,0,1,3.8719.01944,16.39946,16.39946,0,0,0,2.8911-.49125c.36171-.06854.7199-.16012,1.07487-.25861C126.66342,129.41645,126.96494,129.30629,127.47551,129.13985Zm-43.0762,18.37931a4.7566,4.7566,0,0,0,2.59414.18179c1.17638-.17681,2.3607-.31649,3.54649-.41068,1.18883-.09442,2.38355-.11559,3.57585-.16505.9818-.04074,1.9645-.0637,2.94565-.11615,1.9288-.10309,3.82626-.77474,5.787-.31634a1.48937,1.48937,0,0,0,.30634-.007c2.14365.02721,4.28964.00337,6.43024.0993,1.85414.08311,3.69955.37231,5.55366.44248,2.03591.07706,4.07232-.065,6.11651.09554,2.10306.16514,4.225.07472,6.33662.15229a24.54578,24.54578,0,0,1,2.92146.32476c.76868.12157,1.298-.26844,1.19691-1.05432a5.0811,5.0811,0,0,0-.43048-1.35251c-.40843-.9327-.89179-1.83338-1.28162-2.77324q-.929-2.24-1.77123-4.51576c-.59042-1.59121-1.57891-3.00944-1.95748-4.69712a1.85934,1.85934,0,0,0-1.96646-1.28144,18.06723,18.06723,0,0,1-2.74173.15128,41.68378,41.68378,0,0,0-5.07279-.15282c-1.78892.13271-3.59788-.00054-5.398-.02519-.57638-.00789-1.15466-.08318-1.72825-.05359a57.25871,57.25871,0,0,1-6.33188.01144,12.79063,12.79063,0,0,0-3.96272.15989,4.17352,4.17352,0,0,1-1.70213.03629c-1.44143-.22583-2.91413-.25168-4.37409-.35988-.67363-.04992-1.35257-.06712-2.01846-.16881a.86628.86628,0,0,0-.96754.38666,4.99024,4.99024,0,0,0-.42428.70039c-.68243,1.558-1.43936,3.091-2.00246,4.69175-.7902,2.24631-1.42844,4.5459-2.14059,6.81992C85.11479,145.35507,84.77018,146.38039,84.39931,147.51916Z"/><path class="b" d="M140.10485,90.94652a2.03033,2.03033,0,0,0,.99791,1.52425,3.18227,3.18227,0,0,1,1.31511,2.08747,1.278,1.278,0,0,1-.57052,1.51481,2.66252,2.66252,0,0,0-.69979.73755,2.26481,2.26481,0,0,1-.75538.60807,15.44336,15.44336,0,0,0-1.90481,1.49929c-.44215.371-.86122.76937-1.29316,1.15262-.0763.0677-.16.16356-.24918.17472-1.11217.139-1.96731.9493-3.04928,1.15955a4.72626,4.72626,0,0,1-.99937.15543,1.15711,1.15711,0,0,1-1.1298-1.687,2.1056,2.1056,0,0,0,.17449-1.17428,1.16982,1.16982,0,0,1,.41283-.82833c1.0711-.98976,2.18481-1.93323,3.2684-2.90977a4.44216,4.44216,0,0,0,.6574-.78262c.36354-.52636.32341-.81323-.20092-1.2119-.40362-.30686-.84495-.56513-1.27579-.835a1.75841,1.75841,0,0,1-.85865-1.99295c.0199-.10008.093-.21042.06884-.29532-.41262-1.44878.27665-2.32276,1.459-3.0324a7.017,7.017,0,0,0,1.12694-1.17674c1.12826-1.12981,2.27113-2.24508,3.398-3.37629a6.29929,6.29929,0,0,0,.4937-.65171c.12283-.16095.219-.37576.38256-.46624a18.86148,18.86148,0,0,1,2.11508-1.058.97942.97942,0,0,1,.80422.24718c.92825.849,1.82707,1.73131,2.71371,2.62426a1.748,1.748,0,0,1-.29376,2.83093C144.14954,87.44131,141.857,88.835,140.10485,90.94652Z"/><path class="a" d="M76.72982,109.18095c.86406.23839,1.63883.45083,2.41227.668.06354.01784.11454.07669.17726.10174.366.14613.96372.202,1.05556.448a4.778,4.778,0,0,1,.3,1.98193,31.4339,31.4339,0,0,0-.0379,5.17676c.07952.912.01545,1.83562.05437,2.75239.043,1.01419.12979,2.02653.19722,3.03969a1.20394,1.20394,0,0,1,.0187.40707c-.46626,1.50063-.14813,3.01436-.09145,4.52352.00256.06774-.03946.16-.0083.20048.65859.85662.09956,1.659-.11049,2.4717-.13813.53438-.41713.70683-.9912.63431-1.24679-.15746-2.49368-.31572-3.73729-.496a1.23211,1.23211,0,0,0-.93492.21348,3.73111,3.73111,0,0,1-2.50848.66118c-.78839-.10274-1.06226-.393-1.108-1.18413-.03738-.64663-.04713-1.29483-.07155-1.94226a1.60135,1.60135,0,0,0-.045-.60928c-.60532-1.22573-.31427-2.51788-.28065-3.78016.058-2.17973.00127-4.35243-.08655-6.53075a25.98574,25.98574,0,0,0-.41121-4.06328,5.88033,5.88033,0,0,1-.0409-1.32624,2.86083,2.86083,0,0,0-.19724-1.58489.956.956,0,0,1,.83436-1.33093C73.00652,109.45426,74.89675,109.3204,76.72982,109.18095Zm1.82644,2.6388a4.56065,4.56065,0,0,0-1.42835-.48616,33.17235,33.17235,0,0,0-3.95122.298c-.7569.10291-.82772.27262-.7788,1.05718.06139.98487.19754,1.96492.26647,2.9495.04241.60552.00131,1.21644.02946,1.82348.07364,1.58732.27768,3.178.21976,4.75961a8.57235,8.57235,0,0,0,.96619,4.84718.93423.93423,0,0,1,.03806.494c-.02974.23605-.12857.46423-.151.70022-.05311.55722.12337.7171.70383.71572.40658-.001.81389.043,1.21969.03q1.16673-.03739,2.33184-.12084c.4018-.02865.584-.2584.594-.68109.02553-1.08753.09593-2.174.12774-3.26143.01793-.61239.0098-1.2265-.01222-1.83893q-.121-3.36542-.264-6.73c-.01141-.26814-.13252-.53568-.12134-.8C78.39648,114.3874,78.4761,113.1999,78.55626,111.81975Z"/><path class="b" d="M123.67732,93.65377c-.89086-.19591-1.76369-.32842-2.59686-.58815-.79869-.249-1.55623-.63-2.4873-1.01779a1.38165,1.38165,0,0,1-1.6801-.197,1.29177,1.29177,0,0,1-.34827-1.564,31.25262,31.25262,0,0,0,1.70283-4.23367,14.27823,14.27823,0,0,1,.62992-1.49392,2.65327,2.65327,0,0,0,.17132-.86991,1.14756,1.14756,0,0,1,1.33728-1.2507,4.91926,4.91926,0,0,0,1.91124-.08324,3.00668,3.00668,0,0,1,1.50118.14994c1.08367.33871,1.28252.91425.86868,1.96427q-.687,1.743-1.26715,3.52756c-.27037.8295-.18273.76635.57275,1.19894,1.19421.68383,2.53314.64016,3.804.92674.71078.16027.7814.19963.72956.93249a3.29342,3.29342,0,0,1-.647,1.89559,12.93606,12.93606,0,0,0-1.089,1.85292,3.61692,3.61692,0,0,0-.25355.76411,11.05884,11.05884,0,0,1-.6733,2.34593,3.73418,3.73418,0,0,1-1.468,1.30892c-.49974.28052-1.32879-.16625-1.61434-.77246a6.392,6.392,0,0,1-.433-1.36362,1.0225,1.0225,0,0,1,.42265-.97436C123.52507,95.38385,123.63673,95.022,123.67732,93.65377Z"/><path class="b" d="M73.38346,79.91639c1.08326-.03425,2.16649-.09206,3.24981-.09355a4.2592,4.2592,0,0,1,1.8115.17767c.93452.46349,1.97341.35837,2.91525.77467a12.87148,12.87148,0,0,1,3.34736,1.89821c.63845.54985,1.47794.8629,2.13234,1.3982,1.94166,1.58831,4.04862,2.99079,5.5915,5.03737a1.66612,1.66612,0,0,1,.202,1.63045c-.1397.46109-.66164.50857-1.11523.57357a.7522.7522,0,0,1-.91657-.61239,2.051,2.051,0,0,0-1.30568-1.46124c-.20175-.07785-.34966-.30926-.50793-.48329-.66262-.72871-1.31282-1.46886-1.985-2.18853a1.87425,1.87425,0,0,0-.51047-.3034c-.32906-.17393-.67917-.314-.99031-.5149C83.8176,84.79059,82.3762,83.7595,80.85,82.87393a11.6074,11.6074,0,0,0-2.22963-.7006,9.37324,9.37324,0,0,0-1.79316-.62446,14.46159,14.46159,0,0,0-1.77323.26069,15.88428,15.88428,0,0,0-3.24087.19275,2.01931,2.01931,0,0,0-.76843.26652,2.72724,2.72724,0,0,1-1.6338.498,1.156,1.156,0,0,0-.67378.18573,2.42772,2.42772,0,0,1-1.40862.5339c-1.6842.21259-2.98167,1.2274-4.36414,2.06783-.08643.05254-.15108.18236-.23493.19131-.94188.10047-1.34958.83227-1.91713,1.45523a27.3464,27.3464,0,0,1-3.0144,2.74991,2.57215,2.57215,0,0,1-1.3314.40234.789.789,0,0,1-.858-.72235.97158.97158,0,0,1,.36483-1.07665c1.65587-1.25429,3.23985-2.6057,4.92164-3.8228,1.099-.79531,2.19459-1.58245,3.22255-2.47038a2.538,2.538,0,0,1,1.12582-.44728c.89546-.18471,1.80645-.29313,2.70434-.46754a8.4092,8.4092,0,0,0,.94812-.34141,17.42429,17.42429,0,0,0,3.28812-1.07373,3.01,3.01,0,0,1,1.19645-.09083Z"/><path class="b" d="M87.718,95.63169c-.27369.5.114,1.36577-.56971,1.92718l-2.0221-.79413a7.31041,7.31041,0,0,0-.9648-1.18721,16.52957,16.52957,0,0,1-1.79476-1.90529,17.19207,17.19207,0,0,0-1.512-1.36153,2.5752,2.5752,0,0,1-.5895-.55769A6.76822,6.76822,0,0,0,77.448,89.38865a5.28243,5.28243,0,0,0-3.88455-.44306A22.1532,22.1532,0,0,0,69.357,90.34742a6.97177,6.97177,0,0,0-1.6256,1.21911c-1.13583.9122-2.27288,1.82333-3.3896,2.75857a7.58865,7.58865,0,0,0-.81237.90087c-.51782.60028-1.05024.69011-1.58979.26117a1.2298,1.2298,0,0,1-.19448-1.8113A5.61592,5.61592,0,0,1,62.444,93.077c.813-.67549,1.60484-1.37913,2.44655-2.01685.91594-.694,1.887-1.31469,2.81843-1.98885a5.633,5.633,0,0,1,3.2001-1.435c.39343-.0088.77979-.3822,1.16738-.59231a3.28913,3.28913,0,0,1,2.07532-.3902,11.69423,11.69423,0,0,1,1.52736.05164c1.16812.3293,2.40524.3042,3.50242,1.0492a33.75944,33.75944,0,0,1,3.99579,3.632c.41884.39366.88211.74,1.32486,1.10829.104.0865.24753.15316.30464.26409C85.45663,94.02106,86.93464,94.3854,87.718,95.63169Z"/><path class="b" d="M82.71291,97.94393c-.605.51852-1.28287.14592-1.90383.246-.08782.01415-.26661-.13236-.29792-.23625-.21656-.71869-.87069-.91044-1.42009-1.239-.49258-.29454-.97185-.61286-1.44493-.93823a4.33082,4.33082,0,0,0-3.52436-1.00667,5.83891,5.83891,0,0,0-3.6549,2.18809c-.34572.50215-.74025.97156-1.12514,1.44566a1.47563,1.47563,0,0,1-2.05163.38537.96282.96282,0,0,1-.28906-1.34942,6.211,6.211,0,0,1,1.01624-1.38433A9.31225,9.31225,0,0,1,71.375,93.61675a1.18335,1.18335,0,0,0,.36044-.18741c1.50355-1.21939,3.21788-1.11489,4.92509-.68709a5.75114,5.75114,0,0,1,2.527,1.25789c.28338.25671.78927.25421,1.11044.48553.76821.55329,1.50335,1.15668,2.21336,1.78344a1.16082,1.16082,0,0,1,.24639.70614A6.398,6.398,0,0,1,82.71291,97.94393Z"/><path class="a" d="M90.82048,107.02934a3.08567,3.08567,0,0,1,.01737.69946,25.72335,25.72335,0,0,0-.34031,5.15037c-.024,2.31287-.18147,4.62408-.24669,6.937a14.31605,14.31605,0,0,0,.1586,1.71859,1.19976,1.19976,0,0,1,.01766.50775c-.54714,1.3757.27539,2.74726-.001,4.11867a.42634.42634,0,0,0,.02673.20115c.09892.31069.36449.68175.27389.91693a13.46144,13.46144,0,0,1-1.02785,1.80322c-.64228-.76061-1.191-1.39151-1.71119-2.045a.5353.5353,0,0,1-.058-.47214,6.72514,6.72514,0,0,0,.45379-2.90642c.03981-.8134.17719-1.62483.17358-2.43669a6.95923,6.95923,0,0,0-.0742-2.016,4.75743,4.75743,0,0,1,.046-1.934c.33461-2.23382.16859-4.49127.36233-6.73039.02652-.30634.02072-.61575.05416-.9211.02557-.23361.00914-.57168.15-.67576.66-.48781.50526-1.55153,1.36238-1.871A1.88329,1.88329,0,0,1,90.82048,107.02934Z"/><path class="a" d="M69.975,70.61065a3.20259,3.20259,0,0,1-.79073-.09826,2.64421,2.64421,0,0,1-1.39863-1.6923c-.42022-1.32921-.73631-2.69147-1.09153-4.04107-.13675-.51954-.26448-1.04154-.3914-1.5636a7.99489,7.99489,0,0,1-.21992-.99322,11.62214,11.62214,0,0,0-.23551-2.281c-.231-.71-.33789-1.44869-.57494-2.12893a2.2381,2.2381,0,0,1,.12321-1.627,4.70344,4.70344,0,0,1-.69563-2.55148,10.81207,10.81207,0,0,0-.0695-1.71218c-.097-.58237.21572-.79223.68436-1.0287a7.64524,7.64524,0,0,1,1.34,5.99123,6.56236,6.56236,0,0,0,.192,2.71388,25.14062,25.14062,0,0,1,.47007,2.59458c.119.63162.26745,1.25789.41114,1.88463.17479.76223.32124,1.53394.55143,2.27949.14877.4819.4512.91413.63839,1.387.21.53041.35927,1.08448.55109,1.62254C69.5924,69.71272,69.745,70.04886,69.975,70.61065Z"/><path class="b" d="M74.8896,97.8302c.43462.23365.873.46068,1.3013.70538.11443.06538.1869.20107.29767.27654.3883.26455.81293.45137.96151.991a3.12817,3.12817,0,0,1,.02381,2.18777,3.67687,3.67687,0,0,1-2.13424,2.1871,2.06862,2.06862,0,0,1-2.59668-1.46543,6.42431,6.42431,0,0,1-.23993-3.00481A2.63745,2.63745,0,0,1,74.8896,97.8302Z"/><path class="a" d="M86.083,68.30835c-.39543-.66956-.12424-1.16753.29073-1.69121.68994-.87067,1.27111-1.82987,1.98593-2.67775.63155-.74912,1.38063-1.39956,2.08267-2.08864.2603-.2555.53934-.49187.80125-.74585.73144-.70922,1.43708-1.44723,2.2-2.12044a1.53685,1.53685,0,0,1,.93081-.31658.8064.8064,0,0,1,.62438.39445,1.00166,1.00166,0,0,1-.13266.74829,1.8054,1.8054,0,0,1-.54269.45213c-1.19946.886-2.06686,2.18928-3.50319,2.78269-.13758.05683-.23083.23682-.32875.37121-.47638.65379-.94488,1.31332-1.42123,1.96711a10.06481,10.06481,0,0,0-.72689.97809c-.54344.97851-1.04552,1.9799-1.571,2.96851a10.61529,10.61529,0,0,1-.59009,1.02.49084.49084,0,0,1-.88144-.13427C85.03009,69.61489,85.28738,68.92865,86.083,68.30835Z"/><path class="a" d="M98.02956,71.09708a.74555.74555,0,0,1,.27884,1.06706,5.91575,5.91575,0,0,1-2.32616,2.6519c-.73959.52914-1.54334.96774-2.301,1.473-.24963.16648-.4324.43-.66787.62194-.19189.15643-.45336.41834-.61964.37669a.80522.80522,0,0,1-.59175-.85c-.00712-1.093.78917-1.63819,1.55064-2.10884,1.20541-.745,2.34654-1.57239,3.48893-2.40329C97.22459,71.647,97.61836,71.38317,98.02956,71.09708Z"/><path class="a" d="M54.29932,65.65851c.60906.99623,1.161,1.92126,1.73709,2.831.24964.3942.56941.74382.82152,1.13668a22.29471,22.29471,0,0,1,1.235,2.05242c.27486.551-.10794.98478-.70786.79072a1.80649,1.80649,0,0,1-.92879-.71771c-.57535-.96217-1.6046-1.57574-1.99176-2.68332-.09071-.25952-.413-.43645-.62407-.65583C52.94525,67.48213,53.03337,66.665,54.29932,65.65851Z"/><path class="a" d="M78.09158,64.92062a7.7382,7.7382,0,0,0-.26805,1.06606,2.09334,2.09334,0,0,0,.117.76056,5.63076,5.63076,0,0,1,.34254,1.16193,1.05107,1.05107,0,0,1-.45038.69042c-.08513.06528-.47271-.093-.57127-.2466a16.05346,16.05346,0,0,1-.96058-1.75192,1.0876,1.0876,0,0,1,.01556-.59974c.09986-.54638.57817-.99268.3944-1.63014-.03627-.12579.17108-.38727.3288-.4873.207-.13127.52035-.279.706-.20734.18275.07056.31015.39378.37312.6298a1.67577,1.67577,0,0,1-.06836.60218Z"/></svg>