<svg xmlns="http://www.w3.org/2000/svg" viewBox="0 0 200 200"><defs><style>.a{fill:#1586c8;}</style></defs><title>food</title><path class="a" d="M116.105,125.35179c-.28073,1.40216.7469,2.70074-.4873,3.45438-.47674.29116-1.36215-.08689-2.41366-.19694-1.58117,1.46024-3.98228.55866-6.15244.93591a22.80826,22.80826,0,0,1-2.87544.16122c-3.78612.16959-7.57776.54329-11.357.44517-3.6381-.09453-7.26214-.692-10.89518-1.03878-1.25628-.11992-2.5278-.09306-3.77974-.24038a11.40124,11.40124,0,0,1-2.85137-.63173,2.22372,2.22372,0,0,1-1.654-2.55655c.13947-1.28931-.23194-2.57328.29392-3.92554.27006-.69447-.32988-1.71654-.50468-2.59691-.37616-1.89444-.25523-2.15755,1.46518-3.29306a9.643,9.643,0,0,1,.00811-1.21271c.14836-1.2014.71559-1.72909,1.90565-1.47912a1.21889,1.21889,0,0,0,1.59613-.93973,5.14224,5.14224,0,0,1,2.59289-2.864,6.66558,6.66558,0,0,0,1.8636-2.186,5.50858,5.50858,0,0,1,6.55854-2.35137,9.07855,9.07855,0,0,0,6.1075.11158c3.36677-1.1237,6.04254.04251,8.37451,2.44866.78311.808,1.58936,1.59641,2.42523,2.34909a5.24114,5.24114,0,0,0,1.11717.57679c-.174-2.38825-.44649-4.59234-.469-6.799A14.1108,14.1108,0,0,1,109.697,94.6165a11.29225,11.29225,0,0,0,2.62282-6.91259c.00473-1.95519-.09461-3.91113-.17023-5.86585-.0975-2.521-.22458-5.04072-.31769-7.5618-.00976-.26438.0344-.66675.20412-.78063,1.63017-1.094,2.81994-2.97194,5.13-2.8764,1.07654.04455,1.94031.53619,2.04954,1.42522.22778,1.85356.39892,3.715.55109,5.5767.2277,2.78675.53815,5.57474.57842,8.3656a4.68548,4.68548,0,0,0,1.69985,3.43868,20.18008,20.18008,0,0,1,3.32072,3.44387,13.38021,13.38021,0,0,1,2.38559,6.63029c.14769,4.4888.18576,8.98168.23067,13.47327.03218,3.22211.0179,6.445-.0149,9.66721a16.729,16.729,0,0,1-.29183,2.1208c-2.03314.63349-3.83406-.91731-5.86508-.21693A28.95278,28.95278,0,0,1,116.105,125.35179ZM93.25792,109.96528c-1.00673.27755-2.25273.53389-3.43444.966-2.15727.78866-4.45277,1.22826-6.42733,2.491-4.04282,2.58534-6.05876,6.74685-8.27476,10.73158-.7,1.25876-.32983,1.99564,1.13427,2.27342,1.71912.32613,3.48659.3938,5.23138.58909,1.73333.194,3.46154.43962,5.19744.60435a60.19656,60.19656,0,0,0,7.33374.56016c3.84426-.10941,7.6788-.55213,11.51839-.84151a2.60171,2.60171,0,0,1,1.24249.05452,4.02817,4.02817,0,0,0,2.86168-.11065c2.89776-.66066,3.41419-1.91,1.90121-4.534a22.56162,22.56162,0,0,1-1.21477-2.20329,16.09843,16.09843,0,0,0-6.27107-7.40394C100.81182,111.09138,97.18818,110.39932,93.25792,109.96528Zm22.00171,6.76219c1.01835-.28362,1.76236-.48226,2.50117-.69855,1.20858-.35377,2.41723-.70805,3.61942-1.08274,1.116-.34783,2.23346-.69547,3.332-1.09359a2.10057,2.10057,0,0,0,1.3684-2.17956c-.039-2.99542-.15042-5.98993-.22987-8.84458-3.227-.17659-6.1357-.32022-9.04217-.5-2.031-.12565-4.05827-.31-6.08851-.44941-.85778-.05894-1.7693.15657-1.4894,1.19873a3.94892,3.94892,0,0,1-.69392,3.00621c1.34014,1.1524,1.56707,2.28783.40966,3.79766-.85517,1.11557.20763,2.72536,1.66325,2.76221.77255.01955,1.48765-.14456,2.04078.68465C113.41617,114.47639,114.32721,115.52736,115.25963,116.72747Zm10.1589-16.27048a4.402,4.402,0,0,0,.17041-.69883,3.416,3.416,0,0,0-.06506-.62742,11.95137,11.95137,0,0,0-4.668-7.51033,6.9785,6.9785,0,0,1-2.79372-4.76883,51.68125,51.68125,0,0,1-.33739-5.47071c-.05364-1.94013-.01206-3.88295-.01206-5.87933-1.33333-.01-2.44926-.54939-3.57058.33817,0,.37384-.012.79093.00186,1.20718.13118,3.9281.28,7.85567.38869,11.78436a4.56162,4.56162,0,0,1-.22879,2.0538c-.7687,1.56046-1.67694,3.05624-2.59167,4.5395a8.66289,8.66289,0,0,0-1.75962,4.36265A60.82346,60.82346,0,0,0,125.41853,100.457Zm.45429,15.91712a4.32276,4.32276,0,0,0-1.11714-.14459c-2.86514.628-5.73382,1.24476-8.58049,1.94958-1.0884.26949-1.25109.78016-.86788,1.89852.292.85222.591,1.70207.9473,2.7267.858.05163,1.92391.44,2.616.08968,1.42458-.721,2.86287-.58253,4.3213-.67956.75346-.05011,1.49966-.20913,2.35906-.335C125.66095,119.99782,125.76235,118.26362,125.87282,116.37411ZM83.472,110.5593a35.57785,35.57785,0,0,0,8.48477-2.353C87.846,104.70264,83.89215,106.87187,83.472,110.5593Zm11.48941-3.08352c1.26279,1.449,2.98261.96277,4.34452,1.49361,1.3543.52782,2.752.94441,4.4266,1.50971C101.10156,106.51431,97.629,105.44562,94.96144,107.47578Zm14.32345,7.21323,3.07375,5.32429c.33313-1.06652.73752-2.43743.24278-2.96471C111.76038,116.1522,111.2329,114.49194,109.28489,114.689Z"/><path class="a" d="M82.76708,123.3913c.80449-.50422,1.273-1.55348,2.19208-.53795.24521.271.34925,1.09163.16024,1.26137C84.27492,124.87293,83.6129,124.29059,82.76708,123.3913Z"/><path class="a" d="M95.73765,115.39949c-.28132-1.12314-.06279-1.85345.94324-1.84769.38895.00222,1.13354.66014,1.09888.944C97.633,115.6978,96.66351,115.41349,95.73765,115.39949Z"/><path class="a" d="M94.53153,121.0316c.39437.72469.78993,1.15426.80987,1.60062.01175.264-.57031.5545-.88534.83306-.32249-.37407-.81328-.71128-.90618-1.13564C93.49133,122.06224,94.02829,121.66446,94.53153,121.0316Z"/><path class="a" d="M85.74423,118.89964c.594-.4664.89215-.87769,1.25685-.94926a.91105.91105,0,0,1,1.1758,1.02189,1.47681,1.47681,0,0,1-1.05234.95807C86.77178,119.96084,86.36741,119.39453,85.74423,118.89964Z"/><path class="a" d="M103.28517,118.14587c.88782.027,1.75773-.018,1.74063,1.04552-.00426.26525-.66009.75852-.98824.736C102.97815,119.85469,102.96978,119.11843,103.28517,118.14587Z"/><path class="a" d="M104.40836,121.98517c.35689.31947.70684.49215.76914.73778.04179.16468-.32438.43288-.508.65477-.21381-.20211-.50246-.37115-.6121-.61928C103.99617,122.61977,104.232,122.34981,104.40836,121.98517Z"/></svg>