<svg xmlns="http://www.w3.org/2000/svg" viewBox="0 0 200 200"><defs><style>.a{fill:#45b658;}.b{fill:#388a57;}</style></defs><title>friends</title><path class="a" d="M133.14059,116.70533c-1.53994-.01875-1.8588.77955-1.992,1.97745-.14723,1.324-.30919,2.64655-.46474,3.9697l-.911.12577c-.24017-.58986-.72132-1.20063-.67222-1.76534A25.39673,25.39673,0,0,1,129.865,117.06a1.6641,1.6641,0,0,0-1.1367-2.27172c-3.17022-1.15551-6.34628-2.29644-9.49509-3.50792-.47729-.18363-.82159-.7129-1.22744-1.08228.63075-.28031,1.3828-.9347,1.87123-.77626,2.12745.68992,4.17232,1.6312,6.25926,2.45037,1.06562.41826,2.14364.81781,3.24357,1.12834.36942.10434,1.13976-.01217,1.17905-.1668a1.676,1.676,0,0,0-.16215-1.37754,12.155,12.155,0,0,1-3.64361-6.19663.99877.99877,0,0,0-.64971-.59291c-5.55853-1.13835-11.109-2.32619-16.69354-3.323-2.6117-.46615-3.13225.04066-3.09032,2.66506.07175,4.487.27455,8.97228.46843,13.45631a2.30759,2.30759,0,0,0,.53893,1.568c1.12467.8782.74249,1.66992-.002,2.40454-.40409.39875-1.13755.9009-1.51811.76864a1.92644,1.92644,0,0,1-.84768-1.49537c-.17674-4.33734-.2723-8.67811-.36914-13.01836-.04-1.79433-.03534-3.59-.02667-5.38493.00522-1.08143-.49019-1.54049-1.55846-1.35314-4.34171.76136-8.70377,1.42674-13.01448,2.33545-1.9014.40077-3.22851,1.76783-4.50828,3.33365-1.28342,1.57024-3.19835,2.63334-4.87244,3.87006a14.61542,14.61542,0,0,1-1.84383,1.00341l.28964.69161c1.34807-.48,2.681-1.00924,4.04716-1.43041,3.58637-1.10559,7.1866-2.1663,10.7838-3.2365a1.46273,1.46273,0,0,1,.7561-.094c.59221.17249,1.16107.42526,1.73923.64607-.50911.45257-.95166,1.16063-1.53884,1.31357-2.58051.67234-5.2625.99791-7.79253,1.80867-2.3594.756-4.54912,2.02666-6.86128,2.95134a1.59482,1.59482,0,0,0-1.01239,2.28243c.624,2.06548,1.35042,4.10441,1.86413,6.19616a5.94362,5.94362,0,0,1-.34606,2.19379c-.57049-.43353-1.45941-.758-1.65221-1.32085L77.5261,110.47151l4.28769-2.4512c1.10982-.87115,2.53309-1.81266,2.94122-3.0171A11.93385,11.93385,0,0,0,83.7502,95.55a16.21344,16.21344,0,0,0-2.22578-3.12036l-2.01359-3.33073C83.1666,91.83177,86.267,94.976,86.74117,99.853c.24475,2.51753.68186,2.70332,3.166,2.05857,3.13326-.81315,6.328-1.39079,9.49932-2.05509,1.36774-.28647,2.74332-.53552,4.11531-.80164l.02315-.74825c-.58259-.28905-1.15558-.59968-1.74936-.86354-3.3641-1.49494-5.02977-4.34481-4.15274-7.89941a32.69894,32.69894,0,0,1,2.88785-7.83628c.5892-1.07683,2.4686-1.46778,3.79961-2.09053.15082-.07055.79269.40449.773.57693a1.42148,1.42148,0,0,1-.58774,1.04031c-3.283,1.33824-4.19246,4.32079-4.94813,7.2924a6.038,6.038,0,0,0,2.24594,6.84744,4.19712,4.19712,0,0,0,2.04934.909c5.2217.27392,10.49867-1.641,12.85666-7.26955a8.2571,8.2571,0,0,0,.32122-4.46979,18.48194,18.48194,0,0,0-1.92824-5.19843,4.27109,4.27109,0,0,0-4.36187-2.21969c-1.31878.10848-2.63082.29845-4.03886.46281-.21188-1.30393.3259-2.06022,1.49341-1.889a46.25639,46.25639,0,0,1,7.07631,1.47995c.66231.20685.91092,1.57762,1.45934,2.335,4.66427,6.44094,1.36064,12.79149-3.53981,16.0983a27.2824,27.2824,0,0,1-4.00812,1.79495c-.5241.23961-1.00541.57289-1.5062.86354l.07854.53016c6.16728,1.28109,12.33455,2.56213,18.6213,3.868.28344-.97112.591-2.11591.95181-3.24369,1.01363-3.16849,3.38741-4.81336,6.273-6.25716l.71687,1.59313c-.11527.308-.89851.33408-1.33643.56137a4.93849,4.93849,0,0,0-1.70814,1.05948,11.18,11.18,0,0,0-2.46912,7.10515c.22339,4.78121,1.84305,6.72252,5.946,6.86906l-2.80527,1.973Z"/><path class="b" d="M67.37317,126.13818c.41144-1.16266.50323-2.40747,1.16748-3.11462a64.653,64.653,0,0,1,6.40289-6.02c1.56659-1.26752,2.23523-.87463,2.73248,1.12042.44751,1.79547.76953,3.63171,1.36652,5.37482.19275.56287,1.08173.88733,1.65216,1.32086a5.94257,5.94257,0,0,0,.34607-2.19379c-.51367-2.09174-1.24011-4.13068-1.86414-6.19617a1.59482,1.59482,0,0,1,1.01239-2.28241c2.31219-.92468,4.50189-2.19531,6.86133-2.95135,2.53-.81079,5.212-1.13635,7.79248-1.80865.58722-.153,1.02979-.861,1.53888-1.3136-.57819-.22083-1.147-.47357-1.73926-.64606a1.46279,1.46279,0,0,0-.7561.094c-3.59717,1.07019-7.19739,2.13092-10.78375,3.23651-1.36621.42114-2.6991.95044-4.04718,1.43042q-.14484-.34589-.28961-.69165a14.61777,14.61777,0,0,0,1.84381-1.00342c1.67407-1.23669,3.589-2.2998,4.87244-3.87006.098-.11993.1972-.23584.296-.35309l1.38013-4.57178a4.86907,4.86907,0,0,1-.41705-1.84564c-.47412-4.877-3.57452-8.02124-7.23029-10.75409a3.4483,3.4483,0,0,0-1.66656-.32239c-1.425-.12292-1.42053.6344-1.0567,1.64307,2.4519-.103,3.10742.13,4.73682,2.01007A16.21183,16.21183,0,0,1,83.75018,95.55a11.93359,11.93359,0,0,1,1.00482,9.45319c-.40814,1.20447-1.83142,2.146-2.94122,3.01715-4.07739,3.2005-11.17053.25934-11.7215-4.92151-.40216-3.782,1.64294-6.6554,4.15607-9.18414a6.27061,6.27061,0,0,1,2.07886-.89478q-.111-.40915-.2218-.8183c-1.0141.2323-2.2901.16223-2.98437.76367a14.75305,14.75305,0,0,0-3.059,3.83582c-2.35992,4.15247-2.67017,7.48346.266,10.93427l1.97614,1.97119c.64142.48328,3.17712.63556,3.7821,1.79059a2.47428,2.47428,0,0,1-.3927,2.251,24.56873,24.56873,0,0,1-3.691,3.01593,1.64034,1.64034,0,0,1-1.392.14825L66.609,123.00952a2.7922,2.7922,0,0,0-.57422,1.20251C65.4834,125.68561,66.14685,126.16681,67.37317,126.13818Z"/><path class="b" d="M126.7312,105.21411c.00549.015.01831.03076.022.04541a12.15385,12.15385,0,0,0,3.64355,6.19666,1.67561,1.67561,0,0,1,.16211,1.3775c-.03931.15466-.80957.27118-1.179.16681-1.1-.31049-2.178-.71008-3.24365-1.1283-2.08691-.81921-4.13184-1.7605-6.25928-2.45038-.4884-.15845-1.24048.49591-1.87109.77625.40576.36938.75.89862,1.22729,1.08228,3.14893,1.21149,6.325,2.35242,9.49512,3.50793A1.66406,1.66406,0,0,1,129.865,117.06a25.3964,25.3964,0,0,0-.7644,3.95288c-.04907.56476.432,1.17548.67212,1.76538l.91113-.12579c.15552-1.32318.3175-2.64563.46472-3.96973.13318-1.19788.452-1.99615,1.99207-1.97742,2.02612.02466,2.94263,2.795,3.45581,2.88574a4.84947,4.84947,0,0,1,2.05518.60333c1.36,1.03931,2.53931,2.31506,3.89868,3.35516.41748.3194,1.18384.1825,1.79053.25458-.1145-.62555-.02454-1.43372-.386-1.83856-.75354-.84375-1.79089-1.426-2.62646-2.20685-.72131-.67413-6.57422-4.44788-6.57422-4.44788a3.44939,3.44939,0,0,1-1.14966-.67151,11.411,11.411,0,0,1-1.04431-1.52844c.54211-.31891,1.06921-.66888,1.634-.94061a2.41655,2.41655,0,0,1,.86829-.01611s3.8147-.65533,4.6001-.96527c.15869-.06262.35266-.359.57507-.47034,2.96228-1.4826,4.34656-3.98663,5.34875-7.09192,1.86926-5.79169-1.79028-8.89691-6.08545-10.87665-1.95508-.90131-3.81348-.62054-5.88989.41833-2.8855,1.44385-5.25928,3.08868-6.27295,6.2572-.36084,1.12775-.66846,2.27252-.9519,3.24365A5.66975,5.66975,0,0,0,126.7312,105.21411Zm4.55225-8.83179a4.93688,4.93688,0,0,1,1.70813-1.05945c.43787-.22729,1.22107-.25336,1.33643-.5614.65808-1.759,1.96082-1.34515,3.20056-1.05945,3.26294.752,5.7771,2.44025,6.54932,5.8985a8.16269,8.16269,0,0,1-2.41577,8.09509,11.03378,11.03378,0,0,1-6.90186,2.66095c-4.10291-.14655-5.72253-2.08789-5.94592-6.86908A11.17994,11.17994,0,0,1,131.28345,96.38232Z"/></svg>