<svg xmlns="http://www.w3.org/2000/svg" viewBox="0 0 200 200"><defs><style>.a{fill:#fdb635;}</style></defs><title>groceries</title><path class="a" d="M75.87923,91.81711c-.561-.41133-1.32212-.95514-2.06626-1.52122-.35192-.26773-.68021-.56869-1.00413-.87074-2.38238-2.22134-2.36817-2.86259-.21255-5.22131,1.376-1.50562,2.45014-3.10772,1.2698-5.34062-.62656-1.18534-.186-1.91443.94629-2.822a10.7134,10.7134,0,0,0,1.33376-1.6009c.35523-.42624.65475-1.076,1.10359-1.21035.94623-.28321,1.20389-.88074,1.44966-1.72647A3.07209,3.07209,0,0,1,81.733,69.08026c.07366-.00371.147-.02483.22026-.02367,1.35058.02142,4.58139,3.07766,4.463,4.39046a2.34257,2.34257,0,0,0,1.12154,2.40015,7.87866,7.87866,0,0,1,1.43562,2.26326c1.67774-.67327,3.50524-1.381,5.304-2.15535a1.38517,1.38517,0,0,0,.6134-.83548,7.9604,7.9604,0,0,0,.19336-1.53481c.2461-2.92669,1.13013-3.656,4.17677-3.44517,2.64362.183,5.29788.2691,7.92866.565a28.90634,28.90634,0,0,0,7.85035-.26088,5.23007,5.23007,0,0,1,1.09874.07436c2.58773.15649,2.58559.15585,2.80653,2.80194.01052.126.12054.24377.30319.59252.63739-.53532,1.28284-.99032,1.8245-1.54643a45.60128,45.60128,0,0,1,11.90248-8.64289,4.63,4.63,0,0,1,4.61048.04019,3.86239,3.86239,0,0,1,2.22712,3.5286,21.29572,21.29572,0,0,1-.44248,4.79749,19.46941,19.46941,0,0,1-7.24447,11.01829c-2.127,1.6875-4.38824,3.205-6.5328,4.87142-1.04526.8122-1.92342,1.83678-2.94817,2.67892a2.59478,2.59478,0,0,0-.96909,2.56166c.60654,3.59753.21259,7.20528.16441,10.80378-.0523,3.90744-.30355,7.81233-.47443,11.718-.09669,2.21009-.14049,4.4251-.32422,6.6282a65.55891,65.55891,0,0,0,.26018,12.14733c.1589,1.55531-.42515,2.424-1.90645,2.63819a26.21632,26.21632,0,0,1-3.4333.01825c-2.27839.02443-4.56091-.0098-6.83392.11853-4.83026.2727-9.655.642-14.48322.95334-1.25193.08071-2.50841.08933-3.76252.13831-3.8253.14941-7.64934.3586-11.476.43844-4.02331.084-4.17753-.03584-4.18879-3.97615-.01457-5.08759.11677-10.17566.19148-15.26343.06388-4.351.23629-8.70336.17572-13.05251-.05429-3.89682-.40922-7.78875-.51781-11.686A12.54847,12.54847,0,0,1,75.87923,91.81711ZM120.06267,96.173a9.53265,9.53265,0,0,0-5.36858-1.14788c-1.53416.12207-3.0753.25556-4.61124.23414-2.53982-.03543-2.66272-.1989-2.95783-2.68082a.67028.67028,0,0,1-.00718-.22091c.5592-2.44762-.50739-4.794-.44849-7.21841a41.86853,41.86853,0,0,0-.26164-4.19981,1.67687,1.67687,0,0,0-1.61414-1.78285c-2.54751-.1577-4.99616-1.33337-7.62284-.71108a8.55469,8.55469,0,0,1-1.76387.13823c-3.47811.07957-6.16209,2.03594-6.77426,5.14244-.413,2.09574-.93964,4.169-1.35919,6.26354-.40473,2.02063-.233,2.27565,2.00807,3.38361a8.459,8.459,0,0,0,.41008-1.41657c.22542-2.05195.45646-4.10574.58453-6.16515a4.29861,4.29861,0,0,1,2.60743-4.0048,13.15688,13.15688,0,0,1,9.60184-.73338c1.51937.45067,1.9746,1.5955,2.3133,2.86331a10.38066,10.38066,0,0,1,.226,2.19344c.10993,2.41416.31885,4.833.24955,7.24315-.0522,1.8161-.84246,2.33816-2.63465,1.92763A36.03992,36.03992,0,0,0,91.212,95.00952c-1.08282.09818-2.08027.23758-2.553-1.29533-1.11988.72506-2.02334,1.31-2.641,1.7099-2.51884-.23981-4.77468-.50461-7.03816-.65216-1.4687-.09574-1.76693.24687-1.87925,1.739-.03309.4397-.00038.88394-.0189,1.32521-.22562,5.37482.662,10.7288.21363,16.11778-.24423,2.93534-.10458,5.90164-.16816,8.85331-.05865,2.72116-.23191,5.442-.21141,8.16192.0127,1.68125.2933,3.36047.4653,5.16313a21.098,21.098,0,0,0,2.29706.28141c1.251.01516,2.50281-.075,3.75474-.10144,3.83289-.08089,7.67416-.02123,11.497-.25966,5.21148-.325,10.403-.90159,15.64253-.73352a39.398,39.398,0,0,0,8.38482-.67556c0-2.3315-.0795-4.47065.01405-6.60218.36573-8.33367.81716-16.66363,1.16641-24.99793C120.23561,100.70564,120.09282,98.35782,120.06267,96.173Zm-10.29583-3.37053c2.04373.11349,3.946.149,5.83153.34564a3.4813,3.4813,0,0,0,3.56136-1.618c2.11889-3.16758,5.12579-5.4566,8.01617-7.81341,2.14165-1.74629,4.62871-3.04325,6.40508-5.2694a17.50827,17.50827,0,0,0,3.8266-9.72518c.18583-2.30916-1.7581-3.73781-3.7495-2.73669a40.87439,40.87439,0,0,0-10.12544,6.962c-2.81048,2.708-5.51393,5.52972-8.20545,8.35757-1.90718,2.00381-3.72816,4.09053-5.55245,6.1711a1.58291,1.58291,0,0,0-.25812,1.01622C109.56192,89.8138,109.6643,91.13334,109.76685,92.80251Zm-36.15456-6.695-.357.33572a7.0879,7.0879,0,0,0,.77076,1.17015,25.66191,25.66191,0,0,1,3.23841,3.24449c1.31191,1.95362,3.01853,2,5.078,1.71461-.08389-.453-.13155-.80844-.21685-1.15463-.49152-1.99478-.99741-3.986-1.48684-5.98132a1.64847,1.64847,0,0,1,.81411-2.03267c.98544-.64541,1.54552-1.9442,3.13383-1.42822.36933.12.97905-.49992,1.48495-.78319-.45163-2.3289-2.81776-3.5823-2.93247-5.97112a8.24005,8.24005,0,0,0-.56953-2.09935c-.21574-.65195-.101-1.54831-1.25079-1.69568-.16524.24332-.47852.50692-.53008.81442-.24252,1.4462-.38417,2.90932-.62624,4.35561-.07747.4628-.30995,1.25219-.54443,1.28013-1.79038.21334-1.76354,1.94665-2.7167,2.80708.54657,1.36977,1.18147,2.62331-.47521,3.56391-.22462.12756-.03114.86263-.23925,1.18a2.39311,2.39311,0,0,1-1.16652,1.00946C74.61335,86.5504,74.08636,86.23411,73.61228,86.10746Zm42.08621-12.958c-1.129,0-2.20845.0329-3.28536-.00582-4.16881-.14992-8.33656-.32853-12.50528-.48085a7.3077,7.3077,0,0,0-1.952.079A1.87123,1.87123,0,0,0,96.839,74.88a1.22129,1.22129,0,0,0,1.60718,1.08491c2.86364-.70112,5.47909.38455,8.172.99959a2.40883,2.40883,0,0,1,2.02694,2.278c.09763.8003.07815,1.61474.11543,2.42265.03542.76737.07651,1.53449.11521,2.3038.39384-.04993.58291-.015.66392-.09276,2.06254-1.97852,4.15745-3.927,6.13279-5.98984a3.05472,3.05472,0,0,0,.59229-1.99482A14.83583,14.83583,0,0,0,115.69849,73.14947ZM98.40458,92.35508a15.82835,15.82835,0,0,0,2.76741-.04457c.4763-.08906,1.20679-.59695,1.24141-.97009a42.24982,42.24982,0,0,0,.17489-5.64355c-.06676-1.60758-.68256-2.25856-2.34558-2.334a34.35538,34.35538,0,0,0-5.25038.3c-.45987.05016-.87228.53583-1.23027.77137C95.65886,87.01883,97.94307,89.03493,98.40458,92.35508Zm-13.72336.4514c.41634-2.59622.766-4.77633,1.20116-7.49L82.573,87.1981C83.31656,89.00625,83.09776,90.96051,84.68122,92.80648Zm7.14425-.545a17.72719,17.72719,0,0,0,2.43661.31533,1.32937,1.32937,0,0,0,1.03846-.55017,1.20069,1.20069,0,0,0-.2816-1.13488c-.96382-.58264-.9749-1.53565-1.23421-2.43585a5.11831,5.11831,0,0,0-.84934-1.28625l-.51028.13828C92.23207,88.90273,92.039,90.49751,91.82547,92.2615Z"/><path class="a" d="M121.37718,80.64355c.043-.58919.0585-1.182.13449-1.76687a2.519,2.519,0,0,1,2.3845-2.43828,1.18467,1.18467,0,0,1,1.432.70692,5.28864,5.28864,0,0,1-1.63486,7.03638c-.78982.572-1.6403.4298-1.95491-.508a19.60955,19.60955,0,0,1-.53794-3.001Z"/><path class="a" d="M114.41165,88.65086c.457-1.452.8464-2.93,1.393-4.34739a1.93387,1.93387,0,0,1,2.21578-1.36569c.88708.21733,1.2615.93416,1.085,2.27185-.19121,1.44943-.43751,2.892-.68213,4.33385a1.98517,1.98517,0,0,1-1.69768,1.76814c-1.36079.26692-2.10945-.30828-2.15267-1.709a6.83817,6.83817,0,0,1,.08148-.8751Z"/></svg>