<svg xmlns="http://www.w3.org/2000/svg" viewBox="0 0 200 200"><defs><style>.a{fill:#45b658;}.b{fill:#388a57;}</style></defs><title>happy</title><path class="a" d="M73.58985,84.49527a14.52465,14.52465,0,0,1,3.08742-1.23387c3.3466-.52306,6.71753-.9043,10.08927-1.23663.46173-.04551.98152.49819,1.47441.7691-.49142.36707-1.00627,1.07645-1.47038,1.04467-2.64273-.181-3.73013.93864-4.321,3.5602-1.84188,8.172-1.68611,16.16188,1.29733,24.0234a59.51645,59.51645,0,0,0,3.62154,8.60975,20.4093,20.4093,0,0,0,5.329,6.53649c3.03117,2.15934,6.81423,2.17519,10.406,1.0287,4.87835-1.55716,7.40648-5.53162,9.66565-9.72834a44.40093,44.40093,0,0,0,3.34771-6.47694c2.27147-6.69391,4.34214-13.45867,6.35312-20.2367.65625-2.21183.24414-2.43877-2.23915-2.70833-.64958-.07052-1.23074-.77133-1.84331-1.18268.67767-.33312,1.383-.99578,2.02812-.94163a76.78679,76.78679,0,0,1,7.80276,1.07036c.65649.12388,1.19105.89387,1.78163,1.367l-.33854.68757c-.66886,0-1.3378.00606-2.00658-.00112-2.21675-.02383-3.26125.88763-3.71926,3.02519-2.1386,9.98085-5.09418,19.65565-11.07351,28.11456a34.09152,34.09152,0,0,1-4.83963,5.8942c-3.1804,2.83841-6.98128,3.3843-11.28412,2.83614-6.0175-.76661-8.85894-4.71969-11.40986-9.46259a39.8413,39.8413,0,0,1-4.6436-12.608c-.33035-2.07557-.72111-4.2353-.8929-6.22206-.3951-4.5694.352-9.23732.63118-13.8655.05223-.8659.0843-1.73305.12568-2.59959a22.53221,22.53221,0,0,0-2.81037.05262c-1.31544.18089-2.60964.51636-3.91291.78585Z"/><path class="b" d="M108.46964,73.35191c-.10506-1.785.5815-2.66113,2.41924-2.60023,2.56545.085,4.19953,1.10731,4.20123,2.7857a3.86155,3.86155,0,0,1-3.40332,3.5795A3.48544,3.48544,0,0,1,108.46964,73.35191Z"/><path class="b" d="M92.51612,71.99986c.03872-1.516.61972-2.5525,2.32408-2.51335,1.6779.03856,3.46893,1.59281,3.49307,2.9886a2.9678,2.9678,0,0,1-3.1476,2.83824C93.5401,75.22517,92.47369,73.90087,92.51612,71.99986Z"/></svg>