<svg xmlns="http://www.w3.org/2000/svg" viewBox="0 0 200 200"><defs><style>.a{fill:#b121d5;}.b{fill:#811a9b;}</style></defs><title>house-cleaning</title><path class="a" d="M105.12392,114.41831a.64268.64268,0,0,0,.46907-.85619,11.71482,11.71482,0,0,1-.27065-3.81825,16.2235,16.2235,0,0,0-.28381-2.55863c-.07526-.58714-.16955-1.17182-.25056-1.75826a1.33583,1.33583,0,0,1-.01962-.39515c.331-1.96068-.13636-3.88681-.23264-5.82909-.04886-.9864.02909-1.9785.02555-2.96793-.00245-.68847-.04145-1.377-.07225-2.06512q-.08353-1.8675-.17708-3.73454c-.05848-1.18784-.12329-2.37536-.17973-3.56329a3.78426,3.78426,0,0,1-.001-.89132c.32463-1.65483-.09568-3.29738-.05566-4.94637.02251-.926-.03021-1.85759.058-2.7764a2.64284,2.64284,0,0,1,.53347-1.23557,1.047,1.047,0,0,0,.16972-1.25022,1.63225,1.63225,0,0,1,1.54144-2.44042c.45754-.01047.92124.12013,1.37438.0853a3.99181,3.99181,0,0,0,1.24422-.31612c1.22183-.52418,2.20043-.17519,2.49094,1.13232a21.75489,21.75489,0,0,1,.38214,3.729c.05454,1.21172-.00627,2.42889-.02635,3.6435-.00491.29654-.05318.59211-.07368.88867a25.6245,25.6245,0,0,0,.453,5.19121c.011.08227.11241.15242.20418.26971l1.48238-.2796a4.95658,4.95658,0,0,0,.16683-.635c.18439-1.40435.34862-2.81137.54081-4.2146a2.29654,2.29654,0,0,1,.261-.73924,7.77025,7.77025,0,0,0,.80937-2.41082,16.72157,16.72157,0,0,1,.56055-1.99716,2.73945,2.73945,0,0,0,.15-.36522,8.45309,8.45309,0,0,1,1.92612-3.70731,4.78821,4.78821,0,0,0,.63777-.87975c.654-1.6352,2.0167-2.66744,3.21864-3.8308a1.40577,1.40577,0,0,1,.90791-.32374c1.3865.00778,2.77475.04178,4.15807.13212a7.407,7.407,0,0,1,1.92328.37671c.61024.21148,1.14837.62266,1.7487.87287,1.49894.62474,2.15089,2.20484,3.47368,3.032a1.98507,1.98507,0,0,1,.60416.87512c.38954.86495,1.177,1.4779,1.44612,2.43369a2.81384,2.81384,0,0,0,.8075,1.10621,5.42945,5.42945,0,0,1,1.35692,3.81724c.05644.823.12586,1.6453.16751,2.469.03507.69369.03849,1.389.05583,2.08358a9.059,9.059,0,0,0,.03407,1.09055,1.56718,1.56718,0,0,0,1.50834,1.5569,6.47534,6.47534,0,0,1,1.07824.15677,5.27335,5.27335,0,0,1,1.29029.67646.65.65,0,0,1,.14347.89717c-.149.25734-.25083.54538-.42087.78644a2.68465,2.68465,0,0,0-.41455,1.39885c-.057.65174-.27145,1.28816-.38687,1.93673-.15627.87791-.28444,1.76085-.42087,2.64223a2.86963,2.86963,0,0,1-.05224.48813,28.952,28.952,0,0,0-.68357,3.54277c-.247,1.16258.00787,2.361-.45749,3.49769a5.56793,5.56793,0,0,0-.1628,1.76342c-.0714,1.37333-.095,2.7502-.208,4.11985a17.22415,17.22415,0,0,1-.40734,2.02976c-.05945.288-.13434.57455-.16921.86571-.19184,1.60207-.3858,3.20407-.55446,4.80867-.11741,1.11724-.17776,2.24052-.29811,3.35739-.05984.55507-.207,1.10021-.29646,1.65278a1.20013,1.20013,0,0,0,.27308,1.08015c.66633.80037-.15911,2.44009-1.20126,2.60546-.82933.1316-1.63556.40325-2.46195.56068a3.60328,3.60328,0,0,1-1.62517.12724,11.34831,11.34831,0,0,0-3.316-.10231c-.2622-.0061-.5443.12668-.78579.06738-1.36477-.33514-2.68211.114-4.01992.2a2.51823,2.51823,0,0,0-.41179.12321c.06246.849.17152,1.72376.18233,2.59976.02557,2.07215.88341,3.97338,1.18788,5.98777.06083.40259.23577.84366.80662.87036.11375.00532.25081.15912.32264.27751.15144.24951.25814.52563.39867.78235.3646.666.27638,1.02328-.38507,1.3758-.23133.1233-.50186.1714-.73926.28548a1.83483,1.83483,0,0,0-.56587.36814c-.50229.54867-.49178.5583-1.38922.6336-.56927-1.58682-1.8921-.997-3.02238-.94382-.72187.034-1.438.18719-2.15718.28348-.09789.01311-.225.04691-.29381.00221-1.06986-.69524-2.1966-.13523-3.28989-.13087-1.08434.00432-2.16709.1849-3.25228.26447-.69246.05077-1.389.0951-2.082.07737-1.22028-.03123-2.43927-.11253-3.65887-.17132a.55429.55429,0,0,0-.19716.01435c-1.71113.57041-3.31537-.11167-4.96666-.37431a5.87138,5.87138,0,0,0-3.8705.41769c-.3955.21713-.77589.58443-1.26957.2334a1.49166,1.49166,0,0,1-.72512-1.52425c.03044-.19148.048-.385.0673-.54332a9.421,9.421,0,0,1-.93155-.64164c-.61836-.54587-.59287-.55307-.31669-1.384a1.89318,1.89318,0,0,0,.06327-.78151c-.1476-1.34126-.31809-2.68-.49049-4.10118-.5571.17308-1.10883.21609-1.37459.78509-.82388-.2586-1.58506-.72487-2.47694-.42578-.03079.01033-.07586.0253-.0966.01152-.90966-.6046-1.83921-.04615-2.75831-.06213-.92278-.016-1.84289-.15329-2.76608-.19639a4.896,4.896,0,0,0-1.18.11415c-.64132.12908-1.273.30555-1.91.45659a.73593.73593,0,0,1-.2879.0162c-.96857-.16933-1.93407-.3569-2.90436-.51542a3.48135,3.48135,0,0,0-2.09934.46268,1.27676,1.27676,0,0,1-1.81814-.6824,7.05337,7.05337,0,0,1-.44926-2.0129c-.073-1.97672-.056-3.95684-.06854-5.93567a9.03432,9.03432,0,0,1,.70341-3.5739c.41606-1.00166.67952-2.06588,1.03-3.09579a24.64853,24.64853,0,0,1,2.49069-5.27081,1.38587,1.38587,0,0,0,.23185-.43613,3.51307,3.51307,0,0,1,1.09128-1.72987,20.46069,20.46069,0,0,0,2.97291-3.9098c.29236-.51293.72019-.94779,1.0218-1.45647a5.66764,5.66764,0,0,0,.84526-2.91683,2.72017,2.72017,0,0,1,.15711-.86526,1.39071,1.39071,0,0,0-.43652-1.61113c-.049-.04431-.1103-.07531-.15754-.1211-1.08525-1.052-1.14152-1.15987-.64558-2.58343a1.34207,1.34207,0,0,0-.13517-1.39049,1.13865,1.13865,0,0,1-.221-.54159,13.843,13.843,0,0,1-.3939-3.50517,2.07366,2.07366,0,0,0-1.58407-2.30277c-.36007-.09872-.59564-.24-.67786-.61556-.04916-.22451-.139-.4401-.2209-.6915-1.03376-.44267-1.94034.64746-3.08792.07825-.05187.693-.131,1.20654-.11958,1.71811.01972.88586.09841,1.77033.14517,2.65576.00866.16394-.081.36272-.016.48935.5015.9772-.101,1.76035-.37949,2.625a3.51613,3.51613,0,0,1-1.82065,1.85383A3.03763,3.03763,0,0,1,72.347,97.157c-.19095-.02767-.40761.19962-.62577.26532a4.67867,4.67867,0,0,1-1.23962.29724c-.51187.00607-1.086-.00707-1.32237-.64506-.2418-.65281-.38719-1.2983.23941-1.82183a6.8978,6.8978,0,0,1,2.71257-1.55085c1.42384-.35884,1.47623-.4389,1.4195-1.87488-.03519-.89058-.06367-1.783-.14665-2.66969-.07691-.822-.18982-.9048-.98516-.84381-.74664.05725-1.49689.116-2.233.24553a2.14784,2.14784,0,0,1-1.30662-.24717c-1.82713-.78253-1.64611-2.39381-1.644-3.8846a29.8885,29.8885,0,0,1,.32224-3.45347A2.271,2.271,0,0,1,69.744,78.71794a9.33257,9.33257,0,0,0,3.51933-.92334c.287-.15831.71325-.0604,1.07495-.088a7.90255,7.90255,0,0,0,3.3597-.6222,4.47357,4.47357,0,0,1,1.24793-.3094,16.85817,16.85817,0,0,1,6.59158-.12674,2.46745,2.46745,0,0,1,.623.25513,3.77824,3.77824,0,0,0,.50045.3074,13.39992,13.39992,0,0,1,3.94756,2.535,32.41468,32.41468,0,0,1,3.66495,3.60352,4.031,4.031,0,0,0,1.21128.81473A2.66109,2.66109,0,0,1,96.798,85.28043a4.71912,4.71912,0,0,0,1.00928,1.53877.67115.67115,0,0,1,.20544.53086A3.773,3.773,0,0,1,97.011,89.86251a14.60224,14.60224,0,0,0-1.91484,2.11292,2.27461,2.27461,0,0,0-.36186,2.23252c.16048.48652-.15318,1.14429-.3001,1.71274-.12293.47568-.33788.92711-.46978,1.401a1.43547,1.43547,0,0,0,.98176,1.73781,15.20415,15.20415,0,0,1,2.04251,1.36383,10.1848,10.1848,0,0,1,3.72959,4.72169c.47461.9784,1.03318,1.91579,1.52387,2.88685a1.66523,1.66523,0,0,1,.18968.8392,1.41714,1.41714,0,0,0,.36525,1.09016.85264.85264,0,0,1,.2462.51612,2.28824,2.28824,0,0,0,.63572,1.6287c.48758.62812.46723,1.52583,1.13885,2.0403C104.91862,114.2236,105.00847,114.31506,105.12392,114.41831Zm34.18084-23.09757a25.38208,25.38208,0,0,0-2.50945-.65369,7.36814,7.36814,0,0,0-1.76138.06c-.469.04018-.60929.38475-.53163.78607a2.56744,2.56744,0,0,0,.33949.81465,1.71711,1.71711,0,0,1,.292,1.39728,2.58616,2.58616,0,0,0,.139,1.06534c.25229,1.18845.56546,2.36619.7633,3.56323a13.04638,13.04638,0,0,1,.14279,2.47064,4.40491,4.40491,0,0,1-.34549,1.52809,4.70607,4.70607,0,0,0-.33648,1.9267.97094.97094,0,0,0,.77624,1.0845c.66337.19431.68326.53114.5036,1.19416-.29692,1.09581-1.42827,1.0272-2.05721,1.63628a2.37265,2.37265,0,0,0-1.84572.13227c-.11613.06877-.408-.16359-.6207-.25234a2.37753,2.37753,0,0,0-.72639-.27965,16.05385,16.05385,0,0,0-2.36348.00832,9.77786,9.77786,0,0,1-2.61506.1419,15.22588,15.22588,0,0,0-3.15873.1264,1.25313,1.25313,0,0,1-1.40646-.68605,3.38843,3.38843,0,0,1-.33141-1.20447,46.86961,46.86961,0,0,1,.31652-6.6064,30.93342,30.93342,0,0,0-.04111-4.86379,2.78341,2.78341,0,0,0-.36106-1.526,17.92268,17.92268,0,0,1-1.32251-2.31073.881.881,0,0,0-.91379-.464c-1.18555.099-2.37047.2062-3.55534.313-1.15945.10454-2.31853.21257-3.55267.32594a3.56234,3.56234,0,0,0-.03966.37438q-.0475,1.77294-.08652,3.54611a5.84136,5.84136,0,0,0,.251,2.63193,2.0609,2.0609,0,0,1,.08767.68588c.08827,1.31659.17132,2.63353.25663,3.95032.047.72589.15216,1.45339.131,2.17724a26.443,26.443,0,0,0,.05063,5.23571c.05979.35317.00119.72525.04721,1.08218a3.7373,3.7373,0,0,0,.26868,1.2323,1.93047,1.93047,0,0,1,.22779,1.23266,4.13644,4.13644,0,0,0-.04745.98993c.05571.55749.31516.76224.90684.79819.59091.0359,1.18572.038,1.77216.10948a19.83687,19.83687,0,0,0,2.43322.35272,4.38088,4.38088,0,0,1,2.96966,1.37656c.79251.70328,1.69287,1.39731,1.7699,2.61435.00374.05959.07344.11217.09194.17414a8.63054,8.63054,0,0,1,.31521,1.11964c.18123,1.17.32859,2.34528.50227,3.61471.5191.051.99839.10225,1.47849.14439.98054.08607,1.96211.24189,2.94214.23379,1.675-.01386,3.34876-.14039,5.02368-.20216a1.33,1.33,0,0,0,1.444-1.09577c.08631-.28178.173-.56373.24828-.84855.19228-.727.40545-1.44986.56019-2.18492.20945-.995.363-2.00153.5579-2.99972.15093-.77321.37653-1.53462.48359-2.313.1797-1.30684.26817-2.6261.441-3.93407a15.64256,15.64256,0,0,0,.41237-2.22057c-.05345-2.84688.59365-5.64591.51883-8.49005a3.17494,3.17494,0,0,1,.10666-.48072c.12244-.87822.244-1.75667.35176-2.63676a4.69747,4.69747,0,0,1,.03519-.78858A19.19088,19.19088,0,0,0,139.30476,91.32074ZM100.91957,115.172a3.94672,3.94672,0,0,0-.0458-.49089c-.23224-.9448-.451-1.89364-.71443-2.82985-.232-.82465-.48956-1.64458-.78937-2.44658a9.36057,9.36057,0,0,0-.6038-1.01445,8.17646,8.17646,0,0,0-1.401-2.47663c-.15644-.14424-.19-.41508-.30337-.61439-.13825-.243-.30763-.46811-.45109-.7084a2.04513,2.04513,0,0,1-.30744-.59995c-.10806-.55487-.49058-.732-.97375-.84384-.23874-.05526-.60029-.13343-.66367-.29587-.25666-.6578-.82056-.805-1.35187-1.13577a5.70916,5.70916,0,0,0-3.34357-.97847c-.4545.01707-.91466-.16434-1.3719-.16259-1.00432.00386-1.25978.22293-1.55344,1.18667-.21971.72109-.38212,1.465-.666,2.15959a16.19219,16.19219,0,0,1-.97952,1.8164,15.27378,15.27378,0,0,1-1.00454,1.6869c-1.50818,2.00108-3.05315,3.97439-4.5778,5.96313a2.70457,2.70457,0,0,0-.27594.52465c-.71437,1.55392-1.48206,3.08666-2.1169,4.67253a9.46376,9.46376,0,0,0-.87385,2.932c-.10714,1.71377-.35777,3.41817-.49207,5.13089a5.02349,5.02349,0,0,0,.1976,1.45875.94664.94664,0,0,0,.901.77163,24.00665,24.00665,0,0,0,4.71567.41275,1.36525,1.36525,0,0,0,.57949-.08125,4.49828,4.49828,0,0,1,3.45817-.14822,5.55239,5.55239,0,0,0,3.47051-.21711,1.5142,1.5142,0,0,1,1.47813.09815,1.27588,1.27588,0,0,0,1.56311-.04482,4.68481,4.68481,0,0,1,1.19841-.46344,4.40182,4.40182,0,0,0,.36289-2.20816,8.39851,8.39851,0,0,1,.11716-2.06767c.23065-1.058.58713-2.089.90151-3.12811.54881-1.81394,1.31672-3.47024,3.17855-4.31964A3.95428,3.95428,0,0,1,100.91957,115.172Zm12.19961,22.49115c1.5112.17685,2.13858-.4628,1.8749-1.854-.12322-.65023-.31815-1.28991-.39962-1.94444q-.36754-2.95277-.66339-5.91427c-.09743-.98547-.12863-1.97841-.15782-2.96891a.93346.93346,0,0,1,.21161-.60554c.48209-.52282,1.00412-1.00883,1.5401-1.53744a2.07722,2.07722,0,0,1,.343,1.66171,10.579,10.579,0,0,0-.0592,1.67295c.29493,2.35673.21572,4.75138.7243,7.08588a1.34707,1.34707,0,0,1,.01413.592,4.65625,4.65625,0,0,0,.43031,2.4016,1.58622,1.58622,0,0,0,1.97581,1.32448c.25765-.04322.53566.031.79181-.01638a2.31028,2.31028,0,0,0,.56686-.27617,2.26715,2.26715,0,0,0-.13359-.35555,4.39493,4.39493,0,0,1-.854-3.89479.7328.7328,0,0,0,.00741-.29661c-.21921-2.07093-.467-4.13933-.64739-6.2136a5.49647,5.49647,0,0,1,.132-2.04461,2.65244,2.65244,0,0,1,1.019-1.13919.5474.5474,0,0,1,.79487.55451,4.51137,4.51137,0,0,0,.31861,2.96038,1.2306,1.2306,0,0,1,.00527.29636c.19529,2.339.37745,4.67927.5961,7.01611.08992.96109.52536,1.92267-.09332,2.85991-.01646.02495.05627.10876.08757.165,1.15437-.03149,1.10544-.05866,1.29539-1.049a5.42224,5.42224,0,0,0-.14682-1.94975q-.39118-2.48876-.70261-4.98978c-.07327-.58187-.02783-1.17766-.07166-1.76448-.08614-1.15438-.17936-2.30885-.30579-3.45932a13.65275,13.65275,0,0,1-.28417-1.426,5.39739,5.39739,0,0,0-1.3527-3.22711c-.83712-1.13817-2.20806-1.30764-3.42618-1.57673a5.40637,5.40637,0,0,0-3.72341.61578.84114.84114,0,0,1-1.19075-.33382c-.4776-1.019-.48469-1.04245-1.59743-.95409-1.44364.11463-2.88323.28084-4.32714.3914a4.44692,4.44692,0,0,1-1.37509-.07415,6.065,6.065,0,0,0-4.2759.82106c-1.07049.53972-1.52995,1.70958-2.33111,2.536a1.064,1.064,0,0,0-.17583.46006c-.13416.50524-.04123.7193.47336.7297a1.15622,1.15622,0,0,1,1.20271,1.08369,29.37032,29.37032,0,0,1,.37094,3.047c.14365,2.048.23325,4.09965.35446,6.14925a2.817,2.817,0,0,0,.622,1.83947,1.11456,1.11456,0,0,1,.12909.91351,1.05923,1.05923,0,0,0,.32079,1.23488l-.97931,1.04592c.84372.12486,1.48029.2586,2.12306.30338.67993.04737.80123-.14407.58719-.81979a11.99677,11.99677,0,0,1-.70174-2.15929c-.33437-2.98387-.5817-5.97758-.84532-8.96906a1.47487,1.47487,0,0,1,.14235-.666q.51146-1.21151,1.06768-2.4038c.045-.097.1964-.14472.28908-.20878.62027.54229.75785.71238.76626,1.44467.01254,1.08988-.065,2.18046-.07877,3.27106-.02936,2.33425-.14455,4.68063.84452,6.89251a2.20293,2.20293,0,0,1,.08718.487c.22252,1.18335.44625,2.36647.67364,3.57115.62439.02561,1.17882.15574,1.62344-.37409-.174-.46454-.70341-.79079-.45737-1.36557a4.2903,4.2903,0,0,0,.00029-2.24958c-.0491-.45906-.06707-.92168-.09162-1.38309-.09291-1.747-.19639-3.49354-.26868-5.24138-.04225-1.02159-.0754-2.04712-.0321-3.06745a.93327.93327,0,0,1,1.11129-.97483c.73763.069.93831.30114.94407,1.095.0103,1.42124.01391,2.84257.03186,4.26371.01161.9171.04308,1.834.06678,2.75089.0332,1.28523.06008,2.57071.10933,3.85534a1.33263,1.33263,0,0,0,.19279.5557c.28612.52.62767,1.01228.87921,1.54752a.84634.84634,0,0,0,.87306.49439c.68943.0295,1.37628.117,2.06561.15367.11557.00615.2382-.12112.46477-.24567a4.16234,4.16234,0,0,0-.45273-.22167c-1.362-.42829-1.61334-.812-1.5027-2.232a9.02158,9.02158,0,0,0,.036-1.58626c-.19051-1.90462-.42558-3.80475-.63571-5.70747-.06872-.62238-.08548-1.25142-.17463-1.8704-.11341-.78721.37111-1.52829.12885-2.342-.05216-.17524.29843-.56738.54877-.71076a.60121.60121,0,0,1,.85432.27829,4.49856,4.49856,0,0,1,.55769,1.852,7.99082,7.99082,0,0,0,.11078,2.0598c.34583,1.79205.11324,3.6169.38017,5.42384a8.25055,8.25055,0,0,0,.68846,2.75058,1.12775,1.12775,0,0,1,.09017,1.022A3.479,3.479,0,0,0,113.11918,137.66318ZM136.001,82.66888l.14884-.02913a26.15259,26.15259,0,0,0-.824-3.31919,18.318,18.318,0,0,0-1.569-2.85122,13.23722,13.23722,0,0,0-1.19619-1.655,19.73,19.73,0,0,0-1.93676-2.10261c-1.02528-.90771-2.0717-1.82937-3.62594-1.67313a6.43436,6.43436,0,0,1-1.47242-.15468,3.69252,3.69252,0,0,0-3.43654,1.48618,7.62734,7.62734,0,0,1-.76155,1.03621c-.41176.41427-.98688.70546-.79052,1.449.01833.06948-.07671.17251-.12623.25573a25.69945,25.69945,0,0,0-1.4917,2.54754,24.20461,24.20461,0,0,0-1.08909,3.17551c-.134.46312-.00546,1.00431-.14884,1.46225a10.7457,10.7457,0,0,0-.47332,4.67065c.09267.70714.27664.90943.99842.93787.55849.022,1.1161.06541,1.67456.08728a17.68057,17.68057,0,0,0,3.64646.1686,5.67547,5.67547,0,0,1,1.07455.02473c1.91383.05766,3.83245.21814,5.73948.12936.977-.04548,1.93637.03865,2.902.01643a11.861,11.861,0,0,0,1.941-.27546.6594.6594,0,0,0,.45091-.33356,8.39015,8.39015,0,0,0,.48095-1.99378C136.16458,84.71279,136.04762,83.68915,136.001,82.66888Zm-60.51291.886a11.84682,11.84682,0,0,1,2.18673.27008,4.1141,4.1141,0,0,0,1.72926.28191,1.67532,1.67532,0,0,1,1.56583.68044c.22384.28513.47737.54787.72719.81153.94619.99858,2.134,1.78138,2.74055,3.08479.05142.11051.19783.17322.28624.27071a2.42717,2.42717,0,0,1,.89239,2.194c-.04063.19815.1078.43081.15085.65113.14413.73779.80905,1.30533.68577,2.13924-.01829.12361.1434.29153.25122.41281a2.00761,2.00761,0,0,1,.43021,1.37541c.021.602-.13195,1.26986.33023,1.7831.359.0276.76137-.06117.99576.09775.9027.61208,1.531.18672,2.19034-.44074a2.592,2.592,0,0,1,.23942-2.089,3.67778,3.67778,0,0,0,.55656-2.35753,2.3476,2.3476,0,0,1,.44717-1.48088,15.88209,15.88209,0,0,1,1.55573-1.49523,4.13773,4.13773,0,0,0,.75986-.99909,2.80117,2.80117,0,0,0-.00855-1.94415l-.90775-.27178a6.26274,6.26274,0,0,0-1.9285-2.6596c-.29179-.26007-.55064-.5568-.82876-.83254a9.19395,9.19395,0,0,0-1.71172-1.62335,8.51,8.51,0,0,1-1.592-1.13146,2.32553,2.32553,0,0,0-1.17909-.66693c-.97266-.09348-1.8277-.80241-2.85717-.52067a6.64659,6.64659,0,0,0-3.71644.06789,8.304,8.304,0,0,0-2.01717.37877,6.55335,6.55335,0,0,1-2.15105.65466,1.94887,1.94887,0,0,0-.51479.19633C74.83516,82.39854,74.90671,82.70369,75.48809,83.55486Zm53.83975,21.8293a5.22614,5.22614,0,0,0,2.48805-.454,1.53883,1.53883,0,0,0,1.073-1.041,15.99662,15.99662,0,0,0,.73154-3.98368,20.524,20.524,0,0,0-1.14366-6.11768,3.71672,3.71672,0,0,0-1.74955-2.502,3.32789,3.32789,0,0,0-1.15068-.47071c-1.65086-.0576-3.30463-.02626-4.95722-.04181a.69909.69909,0,0,0-.803.77537,2.6531,2.6531,0,0,0-.03383.39514c.155,1.27663.35241,2.54911.46932,3.829a7.70115,7.70115,0,0,1,.12737,3.04145,2.57038,2.57038,0,0,0-.06846,1.93321c.048.10009-.0195.25682-.03728.38685-.12936.94522-.28366,1.88781-.38223,2.83622-.08133.78239.19371,1.11043.98093,1.18289.59013.05431,1.1881.01687,1.78107.04857C127.54548,105.24978,128.43639,105.32223,129.32784,105.38417ZM109.66661,82.98124c-.06-1.68085-.09893-3.36288-.19381-5.04177a3.98043,3.98043,0,0,0-.35807-1.33239.82912.82912,0,0,0-.5886-.43169,6.79,6.79,0,0,0-1.66847.1405c-.179.03842-.38415.36071-.42121.57964a13.92964,13.92964,0,0,0-.21744,2.06793c-.042,2.34562-.10668,4.69337-.04935,7.03754.06707,2.74248.26666,5.48149.38133,8.22315.05369,1.28312.00117,2.57119.06987,3.85309.15216,2.83919.32482,5.67787.54129,8.51277.10534,1.37992.32954,2.7507.49566,4.12613.0236.19548.09862.43232.02108.58433a2.43766,2.43766,0,0,0,.14177,2.00132c.505,1.56822.49552,1.57129,2.07559,1.14714.72685-.19512.82639-.399.57762-1.13956-.10415-.3101-.33787-.67925-.25156-.93262a11.861,11.861,0,0,0,.13976-2.95723,29.62955,29.62955,0,0,0,.17521-3.35747,38.38962,38.38962,0,0,0-.51087-7.2986,5.28971,5.28971,0,0,1-.0364-.78983c-.03261-.52618-.07013-1.05207-.10884-1.57784-.06282-.85347-.16307-1.706-.18055-2.56034-.01214-.59042.11732-1.18242.1322-1.775.02472-.98352.0078-1.96808.00935-2.9522a3.904,3.904,0,0,0-.00352-.891A19.33187,19.33187,0,0,1,109.66661,82.98124Zm-10.624,53.99033a1.95979,1.95979,0,0,1-.73985-2.20506,4.37772,4.37772,0,0,0-.05791-.9846c-.1464-1.80846-.29945-3.6164-.439-5.42539-.04554-.59047-.02173-1.18787-.09287-1.77443-.107-.88251-.2828-1.75647-.404-2.63755-.07717-.561-.1086-1.12825-.174-1.83871-.15011.2193-.23565.28876-.24617.36815-.12061.911-.25077,1.82164-.33523,2.73635a15.11438,15.11438,0,0,1-.11547,2.06951,18.60814,18.60814,0,0,0-.276,4.32327,7.57384,7.57384,0,0,0,.85293,3.72679c.235.4279.42707.87924.64338,1.31759C97.91173,137.161,98.31156,137.22863,99.0426,136.97157ZM71.587,85.81561c1.07492.13521,1.35977-.14425,1.29733-1.2338a1.6874,1.6874,0,0,0-.02167-.293c-.22828-.956-.45762-1.91181-.69472-2.86567-.12669-.50969-.32349-.63272-.85484-.56367-.61589.08-.89528.389-1.06486,1.11371a11.37492,11.37492,0,0,0-.0427,3.12648.72318.72318,0,0,0,.6961.71069A5.378,5.378,0,0,0,71.587,85.81561Z"/><path class="b" d="M126.90379,137.447c-.07186-.11839-.20885-.27219-.32262-.27753-.57087-.02668-.74581-.46774-.80659-.87036-.30451-2.01436-1.16235-3.91562-1.188-5.98778-.01079-.876-.11984-1.75079-.18226-2.59972a2.517,2.517,0,0,1,.41172-.12321c.05616-.00361.112-.011.168-.0158l-.853-3.21471c-.17369-1.26942-.32108-2.44467-.50228-3.61473a8.6318,8.6318,0,0,0-.3152-1.11962c-.0185-.062-.08814-.11454-.092-.17412-.077-1.21706-.97739-1.91109-1.76982-2.61436a4.38119,4.38119,0,0,0-2.96973-1.37659,19.82377,19.82377,0,0,1-2.43316-.35272c-.58647-.07143-1.18123-.07355-1.77213-.10948-.59167-.03593-.85119-.24069-.90687-.79816a4.13534,4.13534,0,0,1,.0474-.98991,1.93044,1.93044,0,0,0-.22773-1.23267,3.73738,3.73738,0,0,1-.26867-1.23233c-.046-.35691.01262-.729-.0473-1.08215a26.45236,26.45236,0,0,1-.05057-5.23571c.02119-.72384-.08391-1.45134-.13092-2.17726-.08535-1.31677-.16839-2.63373-.25663-3.9503a2.0632,2.0632,0,0,0-.08766-.68589,5.83925,5.83925,0,0,1-.251-2.63194q.04075-1.77307.08651-3.54609l.24517-3.46772c-.0918-.11728-.19315-.18741-.20413-.26968a25.62174,25.62174,0,0,1-.45305-5.19121c.02052-.29656.06869-.59216.07369-.88867.02-1.21461.08092-2.43181.0263-3.64353a21.75292,21.75292,0,0,0-.38215-3.729c-.29054-1.30752-1.26908-1.65653-2.491-1.13234a3.98989,3.98989,0,0,1-1.24423.31611c-.45315.03482-.9168-.09575-1.37428-.0853a1.63231,1.63231,0,0,0-1.54151,2.44044,1.04683,1.04683,0,0,1-.16974,1.2502,2.64418,2.64418,0,0,0-.53349,1.23556c-.08814.91882-.03545,1.85045-.058,2.77644-.04,1.649.38032,3.29153.05568,4.94633a3.78992,3.78992,0,0,0,.001.89136c.05645,1.18792.12128,2.37541.17976,3.56329q.0919,1.86707.17706,3.73452c.03083.68815.06984,1.37664.07225,2.06513.00356.98943-.07437,1.98151-.02553,2.9679.09624,1.9423.56364,3.86842.23264,5.82912a1.33236,1.33236,0,0,0,.01965.39516c.08092.58642.17532,1.17111.25056,1.75826a16.22677,16.22677,0,0,1,.2838,2.55864,11.71665,11.71665,0,0,0,.2706,3.81823.64264.64264,0,0,1-.469.8562l-4.20433.7537A3.954,3.954,0,0,0,98.1821,116.721c-1.86191.84936-2.62978,2.5057-3.17858,4.31964-.31443,1.039-.67086,2.07013-.90148,3.1281a8.39848,8.39848,0,0,0-.11724,2.06768,7.07975,7.07975,0,0,1-.0288.993l-.12658,4.35976c.17243,1.42119.34294,2.75992.49052,4.10116a1.8939,1.8939,0,0,1-.06319.78154c-.27628.83091-.30171.83809.31664,1.384a9.42605,9.42605,0,0,0,.93153.64167c-.01936.15827-.0369.35181-.06734.54331a1.49173,1.49173,0,0,0,.72519,1.52422c.49361.351.874-.01623,1.26947-.23337a5.87162,5.87162,0,0,1,3.87063-.4177c1.65123.26265,3.25546.94473,4.96661.3743a.55408.55408,0,0,1,.19719-.01435c1.21957.05876,2.43856.14007,3.6589.17133.693.01773,1.3895-.02659,2.08194-.0774,1.08518-.07957,2.168-.26015,3.25228-.26443,1.09328-.00438,2.22-.56436,3.28985.13087.06878.0447.19594.01089.29381-.00222.71922-.09628,1.43535-.24955,2.15727-.28351,1.13017-.05313,2.453-.643,3.02233.94386.89743-.07533.88693-.085,1.38921-.63363a1.83543,1.83543,0,0,1,.566-.36813c.23736-.11406.50786-.16218.73925-.28548.66142-.35253.74966-.70978.38494-1.37582C127.162,137.97262,127.05522,137.69653,126.90379,137.447ZM106.22036,78.97449a13.9286,13.9286,0,0,1,.21742-2.068c.03709-.21892.24218-.5412.42117-.57963a6.79148,6.79148,0,0,1,1.66848-.1405.82875.82875,0,0,1,.58859.43171,3.98109,3.98109,0,0,1,.35816,1.33237c.09479,1.67888.13381,3.36094.19382,5.04175a19.32943,19.32943,0,0,0,.172,5.236,3.90464,3.90464,0,0,1,.00347.891c-.00154.98408.01541,1.96865-.00934,2.9522-.01493.59254-.1444,1.18455-.13226,1.775.01753.85432.11781,1.70686.18062,2.56037.03873.52573.0762,1.05166.10886,1.57783a5.29446,5.29446,0,0,0,.03632.78983,38.38913,38.38913,0,0,1,.51095,7.29857,29.63339,29.63339,0,0,1-.17523,3.35747,11.85672,11.85672,0,0,1-.13978,2.95726c-.08631.25335.14739.6225.25162.93259.24873.7406.14912.94449-.57761,1.13956-1.58014.42415-1.5706.42112-2.07558-1.14713a2.437,2.437,0,0,1-.1418-2.0013c.07745-.152.0025-.38885-.0211-.58435-.16617-1.37543-.39034-2.74619-.49563-4.12611-.21656-2.83492-.38918-5.67359-.54139-8.51279-.06859-1.28189-.01618-2.57-.06974-3.85305-.11473-2.74167-.31433-5.48069-.38148-8.22317C106.11372,83.66785,106.17846,81.32008,106.22036,78.97449Zm-8.56058,57.684c-.21636-.43836-.40845-.88968-.6435-1.31759a7.57489,7.57489,0,0,1-.85293-3.72681,18.61728,18.61728,0,0,1,.27609-4.32325,15.12042,15.12042,0,0,0,.1155-2.06951c.08448-.91472.21463-1.82531.33524-2.73637.0105-.07938.096-.14883.24613-.36813.06541.71045.09681,1.27775.174,1.8387.12119.8811.297,1.755.404,2.63758.07109.58652.0474,1.18392.09286,1.77439.13959,1.809.29266,3.61694.43908,5.42539a4.37262,4.37262,0,0,1,.0578.98461,1.96007,1.96007,0,0,0,.73983,2.205C98.31292,137.23962,97.91314,137.172,97.65978,136.6585Zm25.18147-.50391c-.19.9903-.141,1.01751-1.29538,1.049-.03131-.05626-.104-.14007-.08757-.165.61865-.93727.18322-1.89881.09325-2.85992-.21867-2.33683-.40074-4.67708-.5961-7.01613a1.22932,1.22932,0,0,0-.0052-.29632,4.51194,4.51194,0,0,1-.31867-2.96039.54737.54737,0,0,0-.79484-.55454,2.65225,2.65225,0,0,0-1.01891,1.13918,5.49424,5.49424,0,0,0-.13207,2.04461c.18043,2.07428.4282,4.14268.64745,6.21363a.73269.73269,0,0,1-.00751.29661,4.39513,4.39513,0,0,0,.854,3.89477,2.26685,2.26685,0,0,1,.13361.35556,2.31179,2.31179,0,0,1-.56682.27618c-.25624.0473-.53426-.02688-.79185.01638a1.58619,1.58619,0,0,1-1.97578-1.32452,4.657,4.657,0,0,1-.43041-2.40157,1.34623,1.34623,0,0,0-.01406-.592c-.50863-2.33447-.42945-4.72915-.72432-7.08587a10.57807,10.57807,0,0,1,.05924-1.673,2.07758,2.07758,0,0,0-.34294-1.66169c-.536.52862-1.05811,1.01462-1.54016,1.53742a.93317.93317,0,0,0-.21155.60555c.02909.99054.0603,1.98348.15779,2.96892q.29275,2.96114.66334,5.91428c.0815.65453.27647,1.29423.39959,1.94442.26376,1.39128-.36365,2.03093-1.87482,1.85406a3.48047,3.48047,0,0,1,.02543-1.13354,1.1277,1.1277,0,0,0-.09017-1.02194,8.252,8.252,0,0,1-.68839-2.75063c-.26694-1.80691-.03429-3.63178-.38013-5.4238a7.98749,7.98749,0,0,1-.11078-2.05983,4.50141,4.50141,0,0,0-.55776-1.852.60118.60118,0,0,0-.85428-.27826c-.25037.14334-.60092.53551-.54881.71074.24228.81372-.24228,1.5548-.1288,2.342.08911.619.10587,1.248.17455,1.87039.2102,1.90271.44525,3.80282.63579,5.70745a9.02869,9.02869,0,0,1-.036,1.58626c-.11059,1.42.14065,1.80373,1.50269,2.232a4.16972,4.16972,0,0,1,.45267.22166c-.22657.12456-.34911.25181-.46471.2457-.68935-.03675-1.3762-.12417-2.06556-.1537a.84653.84653,0,0,1-.87316-.49438c-.25152-.53522-.593-1.02753-.87913-1.54753a1.33182,1.33182,0,0,1-.19286-.55569c-.04923-1.28459-.0761-2.5701-.10924-3.85532-.0237-.91694-.05529-1.83378-.06685-2.75092-.01792-1.42114-.02158-2.84248-.03179-4.26372-.00578-.79387-.20654-1.026-.94415-1.095a.93325.93325,0,0,0-1.11129.97484c-.04325,1.02035-.01011,2.04586.03208,3.06746.07235,1.74781.17581,3.49441.26877,5.24135.02447.46143.04248.92407.09152,1.38309a4.28954,4.28954,0,0,1-.00019,2.2496c-.246.57477.28322.901.45739,1.36556-.44467.52983-.99916.39968-1.62349.37411-.22744-1.20468-.45112-2.38779-.67365-3.57119a2.20425,2.20425,0,0,0-.08718-.487c-.989-2.21189-.87383-4.55825-.84455-6.89253.01378-1.09058.09132-2.18116.0788-3.27106-.00848-.73227-.146-.90235-.76623-1.44465-.09267.06406-.24411.11175-.28909.20875q-.55357,1.19291-1.06765,2.40383a1.47439,1.47439,0,0,0-.14238.666c.26357,2.99146.51095,5.98518.84532,8.96907a11.99756,11.99756,0,0,0,.70178,2.15929c.21405.67572.09267.86714-.58724.81979-.64273-.04479-1.27929-.17855-2.12307-.3034.42011-.44872.67548-.72143.97931-1.04593a1.05916,1.05916,0,0,1-.32079-1.23488,1.11489,1.11489,0,0,0-.12918-.91352,2.81728,2.81728,0,0,1-.62192-1.83947c-.12119-2.04957-.21078-4.1013-.3545-6.14923a29.37,29.37,0,0,0-.37088-3.047,1.15629,1.15629,0,0,0-1.20281-1.08369c-.51461-.0104-.60747-.22445-.47338-.72972a1.06408,1.06408,0,0,1,.1759-.46c.8011-.82644,1.26061-1.9963,2.33105-2.536a6.06531,6.06531,0,0,1,4.276-.821,4.44554,4.44554,0,0,0,1.375.07413c1.44383-.11054,2.88342-.27676,4.32706-.39135,1.11283-.08838,1.12-.06493,1.59748.95408a.84116.84116,0,0,0,1.19076.33384,5.4064,5.4064,0,0,1,3.72344-.6158c1.218.2691,2.589.43855,3.42616,1.57672a5.39777,5.39777,0,0,1,1.3527,3.22713,13.67011,13.67011,0,0,0,.28418,1.426c.12639,1.15045.21964,2.3049.30576,3.4593.04383.58681-.00154,1.18262.07167,1.76447q.31472,2.49968.70265,4.98978A5.42432,5.42432,0,0,1,122.84126,136.15459Z"/></svg>