<svg xmlns="http://www.w3.org/2000/svg" viewBox="0 0 200 200"><defs><style>.a{fill:#1586c8;}</style></defs><title>key</title><path class="a" d="M97.62749,115.01509a4.25945,4.25945,0,0,0-2.89365,2.41608,2.489,2.489,0,0,1-2.32747,1.3751c-1.59925.10953-2.11469.63747-2.39757,2.15919-.60836,3.27312-1.11081,3.56973-4.34432,2.59127a4.12541,4.12541,0,0,0-.79412-.06876,3.43486,3.43486,0,0,0-1.34783,2.92139c.07976,1.46041-.57353,2.51478-1.95422,2.61087-1.96866.137-2.69423,1.69682-3.63355,2.87641-1.69341,2.12653-4.05982,3.22625-6.60209,2.40638-1.52922-.49316-2.91392-1.32657-4.65278-.78826-.36912.11427-1.27551-.48782-1.4546-.947-1.052-2.69741-1.97055-5.44727-2.9153-8.18594a2.27506,2.27506,0,0,1,1.00235-2.546,12.33076,12.33076,0,0,1,2.40842-1.63034c3.80309-1.94777,6.71042-5.03646,9.938-7.71509,2.7981-2.32211,5.52832-4.72742,8.36294-7.0033.91238-.73254.97292-1.21626.33268-2.18508-1.41048-2.13447-1.19794-2.60928,1.24327-3.75984a2.96313,2.96313,0,0,0,.85215-.45847c1.59555-1.59378,3.22561-1.72688,5.05125.04894.9422-.6282,1.89208-1.20463,2.77788-1.86676,1.06262-.79427,1.95-1.6224,1.23261-3.22406a2.55616,2.55616,0,0,1,.28735-2.08947,5.03416,5.03416,0,0,0,.51261-3.50391c-.27689-3.59-.18617-7.2172,1.848-10.30814,2.03692-3.095,4.29413-6.25055,8.08217-7.34181a17.45924,17.45924,0,0,1,9.61444.05737c.90406.25307,1.84481.375,2.80925.56512.87937-2.16605,1.60016-4.14248,2.47335-6.04907a12.96621,12.96621,0,0,1,8.05556-7.52833c2.14635-.67692,4.09282-.02754,5.92822.672,4.24144,1.61671,8.30277,3.5826,11.64912,6.84119A12.44612,12.44612,0,0,1,150.535,73.293a4.10565,4.10565,0,0,1-.209,1.41679,12.94651,12.94651,0,0,1-7.18768,8.948c-2.69682,1.26578-5.44646,2.419-8.3926,3.71959-.03387,1.132-.11095,2.56314-.11226,3.99433a14.31724,14.31724,0,0,1-2.21173,7.57657c-1.467,2.405-2.56824,5.08336-5.09452,6.67756a14.16391,14.16391,0,0,1-1.8535,1.136q-3.68243,1.58885-7.41183,3.06779a5.81569,5.81569,0,0,1-4.03258.30145c-2.07772-.66038-4.19942-1.18137-6.29632-1.78288-.46448-.13323-.91177-.51514-1.35238-.49291a2.19587,2.19587,0,0,0-1.43431.625c-.19173.22022.00481.89062.17875,1.29316.33815.78247,1.26723,1.681,1.08013,2.23949a10.62049,10.62049,0,0,1-2.0501,2.87516,4.81752,4.81752,0,0,1-.9208.79323c-2.14426,1.59407-3.0326,1.54165-4.99987-.26109A4.74041,4.74041,0,0,0,97.62749,115.01509ZM86.6491,119.66292c.06462-2.43581,1.63744-3.33223,3.885-3.72331a9.93029,9.93029,0,0,0,2.77228-1.403c1.09915-.60572,1.97976-1.39915,3.47651-1.42834,1.64369-.03209,3.27313-.87892,4.90077-1.39592.08177-.026.08761-.291.12837-.44484-1.66909-2.19741-1.59569-2.62445.614-4.17449.7256-.509,1.37008-1.13435,2.09939-1.63723.77218-.53244,1.60123-.98241,2.14822-1.313a31.41859,31.41859,0,0,0,3.97642,2.07928c2.27764.79186,4.56837,1.589,7.05209.42463a42.26294,42.26294,0,0,1,5.49357-1.95514,7.37,7.37,0,0,0,4.29516-3.36556,25.80369,25.80369,0,0,1,2.00033-3.30448c2.24917-2.70225,2.6721-5.87654,2.35524-9.1465-.62849-6.48635-5.211-9.90014-10.36517-12.7841-.10193-.057-.30163.06075-.593.12924-.743,1.13283-.664,2.48948-.81015,3.85316a1.98075,1.98075,0,0,0,.93854,2.208c1.64695,1.11266,3.22771,2.32327,5.07085,3.66422a17.96238,17.96238,0,0,1-2.04289,3.399c-1.0371,1.08389-2.372,2.34146-4.00983,1.76649-2.1862-.76753-4.368-1.65607-5.883-3.6752a3.06027,3.06027,0,0,1-.64142-2.91422,4.29951,4.29951,0,0,1,2.27191-2.99853c.48531-.22284,1.1857-.58047,1.26579-.981.40532-2.02881.63893-4.092.91654-6.03-2.47-1.51624-4.9667-1.469-7.48646-1.622A7.71131,7.71131,0,0,0,105.182,74.2079c-4.907,3.76707-7.79905,7.973-6.38133,14.85751.09658.46913.43927,1.15287.24863,1.37139-1.00052,1.14688-.125,2.01772.16789,3.06544.61442,2.19778.851,2.97616-1.37792,4.28151A7.948,7.948,0,0,0,96.05,99.93282c-.28165.36284-.44325.86063-.79067,1.12376-1.96355,1.487-2.0463,1.473-4.368.52933-.91268-.371-1.79521-1.31739-2.96868-.05122l.97246,3.4976c-1.50226,1.33536-2.96873,2.7148-4.51473,3.9985-4.10278,3.40672-8.23644,6.77633-12.36542,10.15141-1.311,1.07163-2.65028,2.10874-3.96912,3.17091-2.4999,2.01343-2.73546,3.3515-1.0871,6.15581a7.11824,7.11824,0,0,0,.79864,1.21719,2.58605,2.58605,0,0,0,.98155.65372c2.65886.98442,4.80254-.24669,6.86066-1.69475a1.41917,1.41917,0,0,0,.52035-1.03811c-.04933-1.44028.95-1.93131,2.00186-2.41619a5.98084,5.98084,0,0,0,2.94277-2.73057c.963-1.8015,2.47781-3.00952,4.77437-2.57352C86.04308,119.96547,86.28852,119.78676,86.6491,119.66292Zm46.87341-35.58627a43.82508,43.82508,0,0,0,5.62007-1.50216,13.713,13.713,0,0,0,7.51842-6.48717,6.75685,6.75685,0,0,0-.26482-6.92118,25.69079,25.69079,0,0,0-2.57636-2.86968c-2.9122-3.50918-6.98226-4.91075-11.17938-5.74924a7.0151,7.0151,0,0,0-7.72939,3.36491,36.015,36.015,0,0,0-2.56741,4.95073,9.6746,9.6746,0,0,0-.59085,3.30925A2.14907,2.14907,0,0,0,122.51,73.738c1.49377,1.10648,3.17109,1.97193,4.62645,3.1216a35.55644,35.55644,0,0,1,4.18632,3.92835A25.67108,25.67108,0,0,1,133.52251,84.07666Zm-13.047,1.51186c-.45994.67531-.87514,1.28489-1.27011,1.86478,1.18035.80329,1.75858.4626,2.15911-.22646C121.7502,86.56334,121.5727,86.01213,120.47554,85.58852Z"/></svg>