<svg xmlns="http://www.w3.org/2000/svg" viewBox="0 0 200 200"><defs><style>.a{fill:#0f6698;}.b{fill:#1286c9;}</style></defs><title>kitchen</title><path class="a" d="M142.90448,67.43372a67.37283,67.37283,0,0,1,7.21131-.41553,80.71918,80.71918,0,0,1,8.54777,1.02027c1.13255.17122,1.53189,1.1116,1.57363,2.204.19624,5.136.56407,10.27145.569,15.40742.01041,10.77607-.214,21.55224-.23656,32.32861-.00546,2.611.3746,5.2251.62141,7.8336.26132,2.76194-.332,3.96235-3.07626,4.07726-6.69277.28024-13.362,1.8787-20.10327.48067a37.79807,37.79807,0,0,0-4.0832-.37778c-2.05258-.19553-2.7715-.85794-2.78178-2.85464-.03659-7.10489-.02709-14.21009-.01347-21.31513.0137-7.14676.16879-14.29563.03536-21.43933-.07315-3.91565-.64411-7.82036-.93613-11.73406-.30588-4.09957.10471-4.03567,4.34139-4.88232,2.67678-.53493,5.54741-.09986,8.3311-.09986ZM132.78667,92.2645l-.4099.01384c0,2.9525-.03949,5.90588.02535,8.857.01819.82784-.44479,2.06979.90675,2.2972a41.35719,41.35719,0,0,0,6.33846.74946c5.94.06751,11.88214-.07414,17.82309-.05025,1.36918.00551,1.89247-.58253,1.93323-1.81729.0449-1.36026.04712-2.722.0992-4.082.09388-2.45125.39692-4.91041.28153-7.35061-.27875-5.89451-.75265-11.77974-1.13908-17.66927-.17734-2.70271-.16847-2.7013-2.78395-3.33968-.20691-.05052-.39447-.17951-.60121-.23163a15.959,15.959,0,0,0-4.123-.95657c-3.01815.09163-6.02123.596-9.03911.80972-1.90414.13489-3.82541.0056-5.7364.07084-3.98361.136-5.04512,1.45695-4.73552,5.38208C132.081,80.71437,132.4062,86.49162,132.78667,92.2645Zm-.17979,13.25085a12.21576,12.21576,0,0,0-.17127,1.36639c.02848,6.37031.12236,12.741.06809,19.11053a2.05,2.05,0,0,0,2.05507,2.3824,54.92254,54.92254,0,0,0,7.47288.69045c4.447-.08323,8.8895-.46327,13.33065-.76648a23.541,23.541,0,0,0,2.88625-.50743c1.06232-.20822,1.31472-.89412,1.29182-1.92259-.13474-6.05145-.22048-12.10407-.30052-18.15659-.01623-1.22771-.49736-1.71645-1.79111-1.703-5.29182.055-10.58546.06929-15.87674-.01185C138.6361,105.95216,135.70355,105.68921,132.60688,105.51536Z"/><path class="b" d="M88.0145,86.39042c2.62851,0,4.78982.05891,6.94624-.01838,1.76334-.06322,3.52042-.29417,5.28121-.43941a11.41294,11.41294,0,0,1,1.634-.0684c2.44782.15188,4.90267.26066,7.33435.5553.64072.07765,1.20774.76362,1.8086,1.17024a5.17359,5.17359,0,0,1-1.70736.76586c-2.12981.085-4.26633.05016-6.39882-.00165-.97632-.02369-1.51993.26123-1.68472,1.31213-.23369,1.49037-.60826,2.95866-.97259,4.6713,2.33923.11841,4.50045.17535,6.65239.3479,4.24367.3403,8.48625.70521,12.721,1.14031,1.91335.1966,3.2759,1.59218,3.69112,3.82837a51.8677,51.8677,0,0,1,.84813,13.86049c-.35565,4.27036-1.38448,8.55486-.25292,12.97931a5.7348,5.7348,0,0,0,.69643.10659c.26911.01235.54052-.02553.8717-.045.5435,1.36189-.397,1.69243-1.323,1.82418-2.056.29247-4.12379.5759-6.1954.667-3.10386.13656-6.21581.0776-9.323.15564-1.63463.041-3.2683.30762-4.89908.27954-5.12518-.08825-10.24956-.24634-15.37241-.429-1.12189-.04-1.5786-.42017-1.99553-1.85861-1.2674-4.37282-.68547-8.79974-.99473-13.17647-.31864-4.50923.06448-9.06733.12028-13.6043.01207-.98243-.03807-1.9675-.10219-2.94855-.10889-1.66607.6966-2.43,2.31678-2.462.54643-.01079,1.094-.05493,1.63727-.11653,1.49868-.16986,1.49818-.48136.91618-1.86155C89.39561,90.9547,88.80438,88.766,88.0145,86.39042Zm-1.13169,14.93845.16629-.00051c0,2.29479-.01763,4.58975.00345,6.88435.05407,5.88878.09235,11.77828.24847,17.66454a1.98967,1.98967,0,0,0,1.31564,1.41815c5.07027.29717,10.14771.57437,15.22512.61573,4.302.035,8.60762-.222,12.90936-.40353,1.35554-.0572,2.708-.25871,4.05378-.45053.849-.121,1.11941-.62912,1.03235-1.52315a23.65508,23.65508,0,0,1-.06923-3.9224c.29211-4.18567.8447-8.36214.93349-12.54988a53.54867,53.54867,0,0,0-.79452-8.58513,3.036,3.036,0,0,0-3.05189-2.98928c-4.11728-.40741-8.23208-.86048-12.35787-1.15523-3.63982-.26-7.29314-.44216-10.94057-.44352a54.30138,54.30138,0,0,0-6.67073.64275c-1.41546.176-2.32928.82439-2.0257,2.50516A13.08671,13.08671,0,0,1,86.88281,101.32887Zm6.565-12.97464-.26432-.54553c-.519.46718-1.34424.85416-1.49211,1.41857-.29089,1.11033,1.182,3.834,1.90553,3.91081a17.45039,17.45039,0,0,0,2.45068.11793c1.37566-.04871,3.26487-3.10057,2.68284-4.35333a1.184,1.184,0,0,0-.88081-.52414C96.38406,88.32414,94.91537,88.35423,93.44781,88.35423Z"/><path class="a" d="M77.79145,128.3581a6.4571,6.4571,0,0,1-.69307-2.14716c.13692-2.56041.49427-5.10817.67862-7.66718.13693-1.90107.19415-3.81384.141-5.71731-.00987-.35356-.68283-.94234-1.10159-.99287q-10.30794-1.24383-20.63317-2.34148a21.06476,21.06476,0,0,0-2.77255.19728c-2.9932.08931-5.9871.166-8.98129.20546-1.32388.01744-1.79357.58124-1.73643,1.92234.20661,4.8493.32,9.70257.46969,14.55431a3.24562,3.24562,0,0,1,.02332.97709,4.87476,4.87476,0,0,1-.57277,1.00252c-.25606-.29407-.66536-.55433-.7391-.88862a14.23607,14.23607,0,0,1-.39737-2.92065c-.03771-4.63781-.12935-9.2798.01942-13.91321.14859-4.62768.53971-9.24834.86878-13.86894.088-1.23615-.04734-2.79111.63481-3.58663.55-.64135,2.19175-.282,3.32361-.49944,6.41884-1.23346,12.80724-.58028,19.21863.11978,3.304.36076,6.64648.38357,9.97328.51651,1.92937.07708,2.544.76486,2.70449,2.68872.24037,2.88143.75929,5.74183.94454,8.625.18533,2.88449.21542,5.78964.118,8.67915-.15407,4.56853-.46883,9.1317-.72375,13.69668-.0226.4047-.10514.80606-.15984,1.209ZM54.9993,93.28635c-3.42889.3348-6.56626.71554-9.71513.90819-1.10014.06729-1.54031.32429-1.60746,1.45611-.21619,3.64461-.50107,7.28566-.80386,10.92439-.131,1.574.70951,1.82462,2.01656,1.75821,4.02994-.20473,8.0857-.70136,12.08907-.43882,5.76507.37811,11.51129,1.20332,17.22943,2.0748,3.257.49639,4.0585.11773,3.82684-3.11791-.229-3.19832-.64124-6.38714-1.08109-9.5652-.21356-1.54294-.95205-2.37471-2.8458-2.35176a91.33515,91.33515,0,0,1-9.31063-.6324C61.45093,93.99857,58.11215,93.6124,54.9993,93.28635Z"/><path class="a" d="M74.0301,128.81209c-4.72019,0-9.4426-.0903-14.15992.026-4.50955.11119-9.01375.43868-13.52058.66559a1.54467,1.54467,0,0,1-.80691-.05191c-.56068-.34643-1.06772-.77968-1.596-1.17858a5.57382,5.57382,0,0,1,1.7878-.75664c7.94734-.262,15.896-.51092,23.84632-.63461a26.85689,26.85689,0,0,1,5.31242.72257c.39119.07386.688.64772,1.02822.99137a12.82266,12.82266,0,0,1-1.24287.42965,1.87358,1.87358,0,0,1-.64655-.07813Z"/><path class="a" d="M67.61243,119.26668c-.2134-.27521-.85994-.74494-.95835-1.3101-.219-1.258,1.62327-3.20915,2.86169-3.22928a2.1066,2.1066,0,0,1,2.16555,2.01645C71.90009,117.96972,70.02391,119.21986,67.61243,119.26668Z"/><path class="a" d="M135.9534,94.429c.33-.60842.72335-2.0304,1.18438-2.05269,1.36828-.06615,1.08365,1.30138,1.183,2.21061.14091,1.28958.25757,2.58626.27891,3.88164.00608.36933-.35417.7447-.54643,1.11729-.37661-.2324-.99437-.39344-1.0879-.70958C136.5685,97.535,136.32723,96.1477,135.9534,94.429Z"/><path class="a" d="M137.72867,117.52718c-.38749-.60754-.745-.93111-.80523-1.30284-.2858-1.7631-.52616-3.53606-.6902-5.314-.02839-.30773.39981-.93547.59784-.92765.397.01569,1.0731.3158,1.12249.59048a52.84621,52.84621,0,0,1,.70639,5.48517C138.68875,116.4515,138.15361,116.886,137.72867,117.52718Z"/><path class="b" d="M115.76972,110.45357c.30747,2.564.66949,5.59352,1.03666,8.62239a3.3393,3.3393,0,0,0,.13963.6367c.2316.7049.857,1.84606.64745,2.02679a4.4352,4.4352,0,0,1-2.56963,1.18747c-6.72256.03773-13.44655-.03293-20.16782-.17624a2.19759,2.19759,0,0,1-1.60418-1.25036,30.51036,30.51036,0,0,1-1.13407-12.94409c.14952-1.12923.88314-1.3263,1.71684-1.33738,4.04371-.05376,8.08872-.10474,12.1321-.05708,2.94914.03475,5.89871.18823,8.84294.37152a8.71267,8.71267,0,0,1,2.03868.6436Zm-15.25213-1.33311.00013-.26662c-1.96159,0-3.9267-.06211-5.88207.0483-.43154.02438-1.16892.64224-1.18832,1.01674-.1755,3.38765-.21,6.7911,1.19353,9.98083a1.94338,1.94338,0,0,0,1.38177.977c2.77343.14411,5.554.19151,8.33214.1936,3.27421.00249,6.54839-.08384,9.82276-.11214a1.298,1.298,0,0,0,1.46323-1.54356,58.20914,58.20914,0,0,0-.76551-7.3335c-.22571-1.08916-.316-2.88916-2.0742-2.93021C108.70856,109.05536,104.61232,109.12046,100.51759,109.12046Z"/><path class="b" d="M111.58145,103.025c-.20732-1.82069.42-2.5738,1.57148-2.51476.99522.051,1.92414.58281,1.85911,1.84223a1.55746,1.55746,0,0,1-1.85782,1.602A4.06212,4.06212,0,0,1,111.58145,103.025Z"/><path class="b" d="M102.01583,101.82512c.06507-.90661.16318-1.67953,1.3716-1.61118,1.23248.06974,2.12369.56115,1.87643,1.85651a2.23763,2.23763,0,0,1-1.426,1.506A1.564,1.564,0,0,1,102.01583,101.82512Z"/><path class="b" d="M93.34331,101.21826c.27562-.16975.98477-.93881,1.44334-.81072.68176.19042,1.18633,1.0152,1.76631,1.57-.52734.446-1.02873,1.21472-1.5883,1.25971C94.1922,103.29938,93.11981,103.10358,93.34331,101.21826Z"/><path class="a" d="M59.69532,97.2282c1.01738-.084,1.66079.30478,1.628,1.565-.04358,1.673-.917,2.66308-2.50385,2.52644-.98-.08438-2.0285-.33524-2.05146-1.64824C56.74822,98.54164,58.322,97.22335,59.69532,97.2282Z"/></svg>