<svg xmlns="http://www.w3.org/2000/svg" viewBox="0 0 200 200"><defs><style>.a{fill:#1586c8;}.b{fill:#1b4e68;}</style></defs><title>laundry</title><path class="a" d="M51.79557,96.92978c.9977.00453,1.3458-.55081,1.119-1.84927-.26454-1.51452.181-1.91565,1.80975-2.21019,2.04941-.37068,4.10862-.68736,6.10944-1.01837.36751-1.62925-1.19935-1.35644-1.75923-2.055q-.86253-6.224-1.72407-12.47666a6.68684,6.68684,0,0,1-.08386-1.45637,1.6922,1.6922,0,0,1,1.826-1.79041c1.85255-.11147,3.68179-.62723,5.53395-.72484,3.14041-.16546,6.292-.21835,9.43683-.174,4.37748.0617,8.7526.28467,13.13.37622,1.20762.02525,2.419-.18524,3.63016-.26339,2.44515-.15774,3.91688,1.42841,3.88162,3.93376a32.10109,32.10109,0,0,0,.42437,4.03782c.02726.2391.16237.50977.09058.70937a10.486,10.486,0,0,0-.53568,5.42264c.06328.37263-.47591.94905-.86625,1.27886-1.33706,1.12959-1.35893,1.10369-1.20834,3.20188,1.88915.35788,3.81253.72223,6.03266,1.14283-.11457-5.84668-.20541-11.32359-.33358-16.79959-.1457-6.22478-.3835-12.448-.46-18.67343-.02966-2.41336.68647-4.804.19892-7.26226a7.66372,7.66372,0,0,1,.47151-2.52508,15.03608,15.03608,0,0,1,3.75973.41619c3.68546,1.44661,7.48988,1.12951,11.28928,1.07752,2.98473-.04084,5.96949-.12309,8.95415-.11753,2.42863.00451,4.85881.07409,7.28523.18283,3.44387.15433,6.88464.37671,10.32736.55765q1.4548.07648,2.91327.07965c.72536.00064,1.45492-.12521,2.17539-.07973,2.258.14252,3.27744.962,3.48733,3.24756.41287,4.496.7593,9.0041.92719,13.51486.18067,4.85271.2068,9.71533.14134,14.57145-.03813,2.82941-.48566,5.65171-.56823,8.48251-.07312,2.50331.19688,5.01578.145,7.52071s-.25593,5.0111-.50083,7.5062c-.3072,3.13079-.72037,6.25129-1.09437,9.37542-.28914,2.415-.6081,4.82653-.87589,7.24383a40.0348,40.0348,0,0,0-.40786,4.8508q.103,8.62139.40983,17.23944a7.70674,7.70674,0,0,0,.92178,2.66235,22.67888,22.67888,0,0,0,1.20925,2.10079c-.91439,1.18635-1.76434,2.28918-2.64908,3.437-1.55652-2.44908-1.57092-2.38169-4.684-3.04576a12.48635,12.48635,0,0,0-5.26857-.33145,5.5165,5.5165,0,0,1-1.9408-.02537c-2.23816-.353-4.5321-1.277-6.682-1.00683-2.18868.275-4.40266.49012-6.59944.77385a2.61137,2.61137,0,0,1-1.20819.02031c-2.6677-1.063-5.15938.19666-7.72321.50935q-3.61717.44119-7.24807.76594a2.83755,2.83755,0,0,1-1.64568-.20737c-4.62249-2.9045-9.80571-2.58328-14.92393-2.72486-2.73442-.07562-5.37695.92383-8.18276.40069-1.4241-.26553-2.99618.378-4.5091.4521-5.70857.27968-11.41881.56382-17.13188.6881a18.34563,18.34563,0,0,1-4.725-.78878c-.52659-.13138-1.32983-.78811-1.31367-1.176.06633-1.59522-1.19782-2.96532-.31546-4.80269.58813-1.22464.04947-2.99477.00021-4.52028q-.18445-5.71657-.38787-11.43256c-.02661-.72487-.10428-1.44968-.1932-2.17021-.52991-4.29-.13912-8.57319.00976-12.86457C51.84472,105.85746,51.77035,101.56976,51.79557,96.92978Zm48.37264,47.0489c.26163-2.03941.49652-3.76387.69577-5.49242a10.04565,10.04565,0,0,0,.00044-1.45072c-.12648-4.096-.49814-8.20126-.3374-12.28571a203.87248,203.87248,0,0,0-.81874-26.65191,1.74142,1.74142,0,0,0-1.14018-1.65607,23.58181,23.58181,0,0,0-8.45238-1.80329c-4.92049-.25714-9.87738.03367-14.77943-.37758a45.03705,45.03705,0,0,0-10.105-.13823c-3.20331.45014-6.408.9-9.59636,1.44318-1.6349.27859-2,.88223-1.83651,2.4837.10686,1.04709.21034,2.09543.35685,3.13742a20.114,20.114,0,0,1,.01565,7.97253,3.50648,3.50648,0,0,0-.074.96338c.12092,4.44481.26343,8.889.37409,13.334.13687,5.49921.21314,11.00017.39422,16.49781.05253,1.59511.37494,3.18133.60348,5.01,1.69746.132,3.28928.35954,4.88093.35834,3.564-.00265,7.12941-.07678,10.69147-.20125a82.01091,82.01091,0,0,0,10.67192-.60866,87.38832,87.38832,0,0,1,12.313-.76376C96.07649,143.69632,98.13336,143.89483,100.16821,143.97868Zm46.68566-45.28416c-1.27-.25867-2.34516-.44714-3.4039-.70363-.75485-.18287-1.47972-.48729-2.23244-.68137-.62468-.16109-1.2736-.22549-1.90634-.3587a38.42553,38.42553,0,0,0-4.70166-.98188c-5.23733-.42581-10.48561-.71749-15.73082-1.04318a6.5486,6.5486,0,0,0-1.94.062,29.79979,29.79979,0,0,1-9.423.38575,7.8013,7.8013,0,0,0-4.65359.85593q.1086,23.84427.2154,47.27237c.91463.91577,1.7875,1.78969,2.99181,2.99545,1.65233-.1969,3.64067-.4709,5.637-.66195,2.23926-.21424,4.48331-.40172,6.72963-.51115,2.08741-.10171,4.18044-.101,6.27121-.11665,2.345-.01752,4.70474-.16862,7.03226.03413a81.02131,81.02131,0,0,0,12.81878-.19548c.04118-.99937.11889-1.88181.10718-2.76308-.07842-5.91-.22042-11.81957-.23658-17.72958a40.07413,40.07413,0,0,1,.56289-4.57657c.57993-5.07534,1.25049-10.14385,1.66073-15.23322C146.81627,102.70946,147.57446,100.62233,146.85386,98.69452Zm-46.3028-37.1356c-.04607,1.118-.17572,2.29951-.13,3.47416.30586,7.85644.648,15.71148.98244,23.5668.02755.647.09771,1.29228.12735,1.93926.05478,1.195.63754,1.6258,1.85987,1.7075,4.43857.29671,8.84079.81468,13.32756.32335a52.49438,52.49438,0,0,1,8.71817.14563c3.72255.21824,7.43558.59664,11.154.88971,1.99952.15761,4.01534.184,5.997.46119a12.3062,12.3062,0,0,1,2.8629,1.08818c.41266.17252.79545.41629,1.57169.8303.13987-11.219.90083-22.08444-.11054-32.93455-3.52081-.14508-6.81-.36014-10.10116-.39844-5.58939-.06505-11.18243.07832-16.76925-.05774-3.068-.07471-6.13282-.48761-9.18754-.846C107.49783,61.35465,104.15407,60.90476,100.55106,61.55892Zm44.9804-8.4427a5.1009,5.1009,0,0,0-.907-.26075c-1.60582-.086-3.21564-.11228-4.81873-.23136-1.93212-.14351-3.856-.47339-5.7885-.52171-4.36646-.10921-8.736-.08786-13.10421-.13408-1.85549-.01962-3.71232-.147-5.56538-.09984-3.92958.10006-7.85982.49943-11.77588-.20154a2.86939,2.86939,0,0,0-1.4259-.09033c-.52062.20946-1.26306.66235-1.321,1.09018a16.83071,16.83071,0,0,0-.13119,5.92931,16.308,16.308,0,0,1,3.17994-.19964c5.02763.676,10.17094.29087,15.12308,1.65244a4.32,4.32,0,0,0,1.20259.05182c4.9296-.09412,9.87-.43661,14.7851-.21529a32.55766,32.55766,0,0,0,11.40787-1.21492C146.11352,56.872,145.83228,55.05735,145.53146,53.11622ZM67.85916,80.07147a19.33714,19.33714,0,0,0,.07818-2.43236A1.38212,1.38212,0,0,0,66.513,76.28139c-2.18109-.12761-4.22827.46969-6.4971.839.24918,1.22226.437,2.14308.66825,3.27762,1.19109.04908,2.30862.1715,3.418.12C65.292,80.46267,66.47433,80.24377,67.85916,80.07147Zm1.19,6.35383c.31277-2.53156-.19016-3.43957-1.87236-3.36206-1.91265.08809-3.82124.26392-5.88754.41284a8.1406,8.1406,0,0,0,.18363,2.20446c.18908.51058.75524,1.17812,1.22305,1.23817A11.93466,11.93466,0,0,0,69.04913,86.4253Zm7.27223-9.978-6.06469-.2499c.25221,1.30633.47043,2.43709.71414,3.69955,1.24961.05149,2.29317.08076,3.33489.14037,1.999.11436,2.24751-.11528,2.18839-2.13871C76.48259,77.50661,76.4034,77.11659,76.32136,76.44731Zm9.56994.17394c-.21432.69311-.37873,1.1439-.49254,1.60712-.40136,1.63375-.07736,1.999,1.55838,1.98617,1.25613-.00984,2.51317.09125,3.73833.14174.62247-2.755.36942-3.22411-2.01045-3.60373A25.5157,25.5157,0,0,0,85.89131,76.62125ZM71.76888,82.72484c.11441,2.02788.11441,2.02788,1.52894,3.46122,1.179-.20515,2.42535-.422,3.67088-.63873l.10729-2.60381Zm17.38,5.06287-3.32022.11671c-.48655,1.33314-.906,2.48225-1.36032,3.72693a3.48435,3.48435,0,0,0,3.12257.26745c1.19618-.42451.84475-1.6072,1.05833-2.50945C88.75473,88.94355,88.92014,88.51195,89.14885,87.78771ZM74.4755,91.63807c.69756-.00432,1.17318.02543,1.64177-.01891.52249-.04951,1.03857-.16628,1.832-.30007-.36188-1.21243-.66676-2.23378-1.02493-3.43366-1.17542.24015-2.15252.43979-3.39547.69375C73.89,89.74624,74.17945,90.68137,74.4755,91.63807Zm4.91684-15.07215c.10871,1.17713.194,2.10042.29485,3.192l3.07505.59643.15013-3.64341ZM70.57,90.91741c-.78042-1.93055-.78046-1.93085-4.32727-1.4391-1.11674.15487-1.786.65528-1.41346,2.132A16.03563,16.03563,0,0,0,70.57,90.91741Zm9.508-3.42471c.18126,1.62708.31966,2.869.48022,4.31026.896-.08872,1.73045-.17134,2.606-.258-.21229-1.46554-.39263-2.71025-.5979-4.12754C81.7569,87.44186,81.07809,87.46241,80.07795,87.49269Zm10.7409-3.04175.05071-.66533c-1.44212-.29394-2.87991-.61329-4.33021-.85893a1.07993,1.07993,0,0,0-.86317.33791,1.66418,1.66418,0,0,0-.34865,1.0646.89193.89193,0,0,0,.638.59529C87.60423,84.97452,89.28468,85.2401,90.81885,84.45094ZM79.896,82.95883c-.12056,1.14179-.12254,1.97326,1.12552,2.08709,1.0202.09309,1.70091-.26714,1.58287-1.63133Z"/><path class="b" d="M64.75,120.75379c.66432-3.16335,1.33674-6.39752,4.21277-8.6266.821-.63636,1.3925-1.59169,2.20484-2.24306a10.56444,10.56444,0,0,1,3.02884-1.91093,30.03152,30.03152,0,0,1,5.10208-1.17873c1.4978-.22326,3.37894.80626,4.81459,1.71839,5.52477,3.50988,7.20208,9.09723,7.47523,15.18392.13321,2.96956-2.48888,7.02828-6.66986,8.47695a12.418,12.418,0,0,1-8.10128.161c-1.89191-.61768-3.83619-1.11258-5.65818-1.89309a14.92188,14.92188,0,0,1-2.94224-2.09487c-.24914-.1909-.35233-.59847-.61317-.744C64.88923,126.08951,65.05353,123.39624,64.75,120.75379Zm13.26348,9.50945c4.52238.54859,7.1015-.47065,9.24342-2.52844a5.80808,5.80808,0,0,0,1.78651-4.79945c-.16988-3.0209-1.49137-5.6162-2.64213-8.26038a9.705,9.705,0,0,0-4.38558-4.40491c-1.38759-.7758-2.81973-.15074-4.2191.18068a3.08084,3.08084,0,0,1-.96277.0992,5.73917,5.73917,0,0,0-4.52215,1.95446c-1.28222,1.21257-2.87533,2.3538-3.55964,3.874-.79763,1.772-.77846,3.918-1.072,5.90785a3.37131,3.37131,0,0,0,.94141,2.63418C71.39582,128.49305,75.37735,129.6076,78.01345,130.26325Z"/><path class="b" d="M59.714,100.46514c.49144-1.326,1.34926-1.94618,2.601-1.65377.78934.18441,1.58362.74471,1.29779,1.69-.20651.683-.73935,1.62566-1.30148,1.76964C61.06177,102.591,60.307,101.61688,59.714,100.46514Z"/><path class="b" d="M65.78184,99.263c1.82686-1.35152,3.02632-.57316,4.28569.5731-.425,1.04-.87734,2.15085-2.04331,2.13262C66.46727,101.94441,66.60092,100.24938,65.78184,99.263Z"/><path class="b" d="M110.64053,122.48872c.03871-3.71541,1.85477-6.60772,4.32129-9.174a9.36334,9.36334,0,0,1,2.05593-1.7c1.477-.83577,2.748-2.24582,4.849-1.39058.73223.29805,1.84732-.23024,2.75354-.49677a5.42015,5.42015,0,0,1,5.38725,1.46755c3.00158,2.77707,4.65811,6.1882,3.86352,10.42529-.45934,2.44968-.35,5.002-1.54612,7.32506a6.39831,6.39831,0,0,1-2.09827,2.5643,15.48186,15.48186,0,0,1-7.855,2.92844,12.97617,12.97617,0,0,1-7.87439-2.004c-2.92342-1.80706-3.48547-4.89029-3.83594-7.99918A18.36744,18.36744,0,0,1,110.64053,122.48872Zm2.744-.00379a25.83288,25.83288,0,0,0,.26615,3.38965c.53263,2.57277,1.69341,4.70052,4.4552,5.526a12.837,12.837,0,0,0,9.64477-.9409,4.2778,4.2778,0,0,0,2.38948-2.91872c.16932-.70563.51452-1.36854.69088-2.07307.67411-2.69257,1.12416-5.42711.31628-8.15128-.66681-2.24844-1.92547-4.24632-4.33233-4.79919a12.60431,12.60431,0,0,0-4.96557-.00891C117.43555,113.31933,113.622,117.98852,113.38454,122.48493Z"/><path class="b" d="M110.79566,101.003c-2.22588.689-3.57145.455-3.90322-.7061-.48053-1.68159,1.33287-1.47762,1.846-2.30166C110.903,98.88118,110.903,98.88118,110.79566,101.003Z"/><path class="b" d="M112.66467,99.55235c.857-.588,1.56815-1.07595,2.32524-1.5954,1.07173.87094,1.7188,1.80136,1.33282,2.99266a1.89741,1.89741,0,0,1-1.46313.93747C113.51428,101.92029,112.89967,101.00586,112.66467,99.55235Z"/><path class="b" d="M113.52847,75.71493c-.10529-3.46368,1.60224-5.61464,4.82011-6.75508.96527-.3421,1.79294-1.05906,2.74616-1.45277a3.53083,3.53083,0,0,1,2.0734-.33141c2.152.59021,4.43823.41918,6.53241,1.4689a5.04619,5.04619,0,0,1,3.14393,3.69613,36.30352,36.30352,0,0,1,.67387,4.029c.29549,4.27248-2.60388,6.95652-5.95225,8.1656-.53266.19231-1.08066.3506-1.59537.58283a8.36431,8.36431,0,0,1-10.9-3.40189C114.0296,79.898,113.051,77.97091,113.52847,75.71493Zm12.01534-6.24168c-.93377.36991-1.85606.77342-2.80494,1.09942a8.10924,8.10924,0,0,1-2.47866.65879c-2.03381.00383-3.143,1.23693-3.896,2.81288-.91369,1.91251.47882,6.46236,2.1825,7.80955,1.46863,1.16137,3.16936,1.96268,4.95359,1.48531a22.0284,22.0284,0,0,0,5.01192-2.33037,4.99774,4.99774,0,0,0,2.50085-5.16023C130.70453,72.62591,129.30658,69.9386,125.54381,69.47326Z"/></svg>