<svg xmlns="http://www.w3.org/2000/svg" viewBox="0 0 200 200"><defs><style>.a{fill:#b121d5;}.b{fill:#811a9b;}</style></defs><title>local-community</title><path class="a" d="M74.158,106.54047a3.16728,3.16728,0,0,1-3.49129,1.24449c-.60733-.17818-.7787-.17528-1.04626.41292-.48518,1.06658-.90841,2.16556-1.28594,3.27536a11.50907,11.50907,0,0,0-.49686,2.16757,4.93587,4.93587,0,0,0,.21093,2.29549,1.47183,1.47183,0,0,1-.06981,1.05561,1.17769,1.17769,0,0,1-.8135.49267c-.18163.02276-.52853-.27324-.59279-.48835-.26766-.89586-.77757-1.73666-.43891-2.77209a6.4741,6.4741,0,0,0,.15671-1.93844,10.887,10.887,0,0,1,.55888-2.78727c.29469-1.09325.91984-2.01562,1.2467-3.07391a.77667.77667,0,0,0-.14884-.84177,7.53992,7.53992,0,0,1-1.05806-1.51655,2.77786,2.77786,0,0,1,.2-3.14914,8.23024,8.23024,0,0,0,.79662-1.36064,1.73834,1.73834,0,0,0,.11459-.621c.043-.47775.07038-.9569.11354-1.56919a3.68494,3.68494,0,0,1-1.01162-2.30907,6.077,6.077,0,0,0-.96207-2.17633,16.56029,16.56029,0,0,0-1.70014-1.87629c-.74847.24321-1.43014.51316-2.13628.67879a2.44371,2.44371,0,0,1-1.72773-.03853c-.39335-.19766-.65732-.01266-.792.372-.0919.26253-.16161.53309-.23551.80164a14.83224,14.83224,0,0,0-.4357,4.87265,2.05754,2.05754,0,0,0,.29844.937c.5897.933.44179,1.57941-.5347,2.09048-.08164.04272-.16379.08446-.25878.13339-1.03167-.439-1.0336-1.444-1.20528-2.30843a8.02924,8.02924,0,0,1-.04-1.84988c.03815-.98975.07026-1.98332.18747-2.96542.12019-1.00706.321-2.00609.52477-3.00079a1.39925,1.39925,0,0,0-.148-1.05788,8.99172,8.99172,0,0,1-.98429-1.98864,4.34681,4.34681,0,0,1,1.45737-4.67927c.41733-.36683.86684-.69695,1.2996-1.04637a3.34605,3.34605,0,0,0,1.246-1.43091,1.43956,1.43956,0,0,1,2.30393-.448,1.589,1.589,0,0,0,.37465.25956,3.41139,3.41139,0,0,1,2.126,3.00191c.11672,1.04707.34,2.08652.389,3.13529a5.33424,5.33424,0,0,1-.31072,1.90673,1.33,1.33,0,0,0,.20051,1.38394c.63033.79353,1.27865,1.57346,1.88649,2.3838a2.43194,2.43194,0,0,1,.47869.97149c.23732,1.3337.41544,2.67793.62029,4.04965a1.59292,1.59292,0,0,0,1.37688-.32912,4.27063,4.27063,0,0,1,3.46074-.44118.979.979,0,0,1,.34355.12721c1.57311,1.29883,2.95929,2.70186,2.5603,5.00519a8.66917,8.66917,0,0,1-.61967,2.883,1.68725,1.68725,0,0,0,.25045,1.5892c.61127,1.07154,1.203,2.15418,1.8094,3.22852a3.91184,3.91184,0,0,1,.72636,2.98019c.507,1.41841-.15719,2.87077.11967,4.301a1.91866,1.91866,0,0,1-.13359.82033.92836.92836,0,0,1-1.103.61249c-.36474-.08488-.37154-.35409-.36984-.6482.00588-1.02141.01178-2.04295.00171-3.06428a8.81965,8.81965,0,0,0-1.396-4.83231c-.41923-.64584-.74285-1.35316-1.14844-2.0087A7.02766,7.02766,0,0,0,74.158,106.54047ZM62.1531,81.56828c-.59967.51857-1.17211.94591-1.66269,1.4525-.90209.93155-1.87291,1.84046-2.02542,3.24167a1.35832,1.35832,0,0,0,.0776.69744,7.84672,7.84672,0,0,0,.82341,1.44665,6.63981,6.63981,0,0,0,1.291,1.30562,1.73541,1.73541,0,0,0,2.14608.0334,8.46568,8.46568,0,0,0,1.12011-1.23211,2.48385,2.48385,0,0,0,.64252-1.704,11.06907,11.06907,0,0,0-.77-3.60662C63.46368,82.50424,63.12061,81.69885,62.1531,81.56828ZM75.00748,101.072c.05389-1.04712-.821-1.87626-1.67913-2.74718-.64036-.64987-1.28806-.13855-1.92127-.11919-.65418.02-.73935.16335-.82482.86068-.04738.38666-.12385.7612-.51958.91467a2.68491,2.68491,0,0,0-1.47355,1.67156,1.873,1.873,0,0,0,.41782,2.27361c.44662.4271.94986.799,1.36826,1.25077.78589.84848,1.60815.79243,2.49695-.042a7.79421,7.79421,0,0,0,.84163-.85772A4.62226,4.62226,0,0,0,75.00748,101.072Z"/><path class="a" d="M97.68379,121.99914c-.66726-.06581-1.10216-.47077-1.449-1.2637A22.221,22.221,0,0,0,93.4324,115.848a19.01461,19.01461,0,0,1-1.71794-3.06718c-.47921-.92618-.94885-1.85175-1.47359-2.75733a22.86175,22.86175,0,0,1-1.34417-3.34494,12.08612,12.08612,0,0,1-.51567-1.4748c-.309-1.2891-.57757-2.588-.85513-3.88446-.07668-.35814-.1203-.72325-.19249-1.08246-.26156-1.3016.43268-2.33861.983-3.39307a9.79511,9.79511,0,0,1,2.89668-3.46251c.395-.28827.68939-.71039,1.06261-1.03336a8.31889,8.31889,0,0,1,3.00041-1.58532,1.86326,1.86326,0,0,0,.65933-.31565,3.32228,3.32228,0,0,1,2.87841-.63616c1.066.166,2.13974.31145,3.18619.56468a5.113,5.113,0,0,1,2.49244.87633,9.11919,9.11919,0,0,0,1.67982,1.40416,3.11772,3.11772,0,0,1,.86043,1.059c.47706.7192.95767,1.44031,1.36912,2.19741a6.16882,6.16882,0,0,1,.76386,1.865,6.10069,6.10069,0,0,0,.40953,1.297,7.86354,7.86354,0,0,1,.49705,3.71721c-.06626.67713-.11214,1.35627-.16553,2.03464a12.31179,12.31179,0,0,1-.93761,4.234c-.58928,1.2909-1.09452,2.62009-1.64191,3.93027a1.94615,1.94615,0,0,1-.23232.40063,16.58308,16.58308,0,0,0-1.81739,3.70453c-.41989,1.02362-.96178,1.99719-1.44938,2.993q-.733,1.49694-1.46436,2.99465a2.54192,2.54192,0,0,1-.18.424c-.58625.781-1.17351,1.56183-1.78608,2.32208a.58009.58009,0,0,1-.83642.11684c-.2699-.19548-.61587-.39886-.7281-.679C98.41476,124.22274,98.07866,123.14519,97.68379,121.99914Zm2.22779.55691a5.41592,5.41592,0,0,0,.4229-.48948c.64-.97963,1.30667-1.94423,1.89573-2.95395.57213-.98062,1.08712-1.99715,1.58014-3.02058.45528-.94511.8113-1.93854,1.27711-2.87793.70048-1.41268,1.4626-2.7947,2.18921-4.19459a4.35767,4.35767,0,0,0,.44091-1.01487c.19476-.87338.34805-1.75725.48514-2.642a11.97531,11.97531,0,0,0-.39763-6.30294c-.13317-.34356-.19172-.72094-.35659-1.04629a20.03944,20.03944,0,0,0-1.12393-2.004,10.0279,10.0279,0,0,0-1.6102-2.12062,6.6615,6.6615,0,0,0-3.35725-1.847,13.14122,13.14122,0,0,0-3.54434-.4274,2.65175,2.65175,0,0,0-.81862.12688c-.97383.46867-1.92317.98791-2.88889,1.47388a11.10206,11.10206,0,0,0-2.73746,2.481c-1.50592,1.53546-2.56755,3.32812-2.16894,5.64069a12.51057,12.51057,0,0,0,.19935,1.46214c.30019,1.00125.66411,1.98406,1.02135,2.96736.34568.95148.65918,1.92071,1.089,2.834.56184,1.19373,1.22018,2.34231,1.84538,3.50581.23257.4328.48838.85313.7344,1.27869q.87422,1.51216,1.75,3.02345a.32511.32511,0,0,0,.0627.06825,8.77558,8.77558,0,0,1,1.41852,2.37577c.49627.88926.98155,1.78779,1.53769,2.63911A7.43973,7.43973,0,0,0,99.91157,122.55605Z"/><path class="a" d="M122.6406,111.12857c-.34165.57968-.73087,1.20324-1.08167,1.8477-.251.46109-.4053.97834-.68136,1.42158a4.27941,4.27941,0,0,0-.25222,4.167c.03624.08574.07524.17037.10957.25685.24811.62515.21471.97684-.10989,1.16949a1.519,1.519,0,0,1-1.43807-.29791,3.30533,3.30533,0,0,1-.61268-2.99466,44.17118,44.17118,0,0,1,1.29286-4.74149,5.14891,5.14891,0,0,1,.92042-1.38452,1.45706,1.45706,0,0,0,.17215-1.796,6.95029,6.95029,0,0,1-.62408-1.55089,3.9123,3.9123,0,0,1,.02835-3.1466,1.92012,1.92012,0,0,0,.27528-.786,1.7629,1.7629,0,0,1,1.1277-1.56866c1.10674-.54446,2.2487-1.02091,3.33494-1.60238a2.02453,2.02453,0,0,1,2.3253.3411,10.1029,10.1029,0,0,1,1.25864,1.10254,5.09827,5.09827,0,0,1,1.31086,3.5704,10.91687,10.91687,0,0,1-.06346,2.4047,6.41584,6.41584,0,0,1-.79805,2.04662c-.45479.77193-.50344.725-.03029,1.54167a23.78915,23.78915,0,0,1,1.72993,3.16047,18.526,18.526,0,0,1,.85458,3.49437,31.6975,31.6975,0,0,1,.36592,3.31379,9.26529,9.26529,0,0,1-.08394,1.75783.78186.78186,0,0,1-.98521.71426.64057.64057,0,0,1-.505-.85469,12.31952,12.31952,0,0,0-.781-6.38536,9.43652,9.43652,0,0,0-2.68818-4.16026.908.908,0,0,0-.55068-.27222C125.18934,111.9773,124.06227,111.42256,122.6406,111.12857Zm3.25252-9.46251c-.84658.31714-1.48906.59972-2.15656.798a2.47568,2.47568,0,0,0-1.793,1.9965c-.32327,1.39413.31507,2.53112.8461,3.6987a2.7504,2.7504,0,0,0,.96057,1.361,3.33413,3.33413,0,0,0,2.02126.774,2.84018,2.84018,0,0,0,2.39995-2.14925,6.86291,6.86291,0,0,0,.21675-2.99917C128.29145,103.26024,127.02162,102.45647,125.89311,101.66607Z"/><path class="a" d="M117.25822,95.52641c-1.178-.31354-1.44539-1.07431-1.41505-2.13625a12.2762,12.2762,0,0,1,1.08811-4.08228,1.89719,1.89719,0,0,0-.1739-1.97835,3.95215,3.95215,0,0,1-.58113-3.94859c-.16154-1.01878.57354-1.66806,1.05343-2.39462A2.09365,2.09365,0,0,1,118.291,80.337c.35392-.11968.61533.17047.51036.54092a5.13806,5.13806,0,0,1-.54321,1.37541,3.77314,3.77314,0,0,0-.0404,4.03132.59479.59479,0,0,0,.33154.30495,4.71176,4.71176,0,0,1,1.506.80427,1.96458,1.96458,0,0,0,2.98829-.94274,8.81956,8.81956,0,0,0,.03066-4.93827,5.021,5.021,0,0,0-1.2943-1.77363,2.06,2.06,0,0,0-1.93883-.27047,1.07168,1.07168,0,0,1-1.30169-.71844.8058.8058,0,0,1,.9349-1.0342c.9195.08292,1.83568.2083,2.75632.27059a1.27066,1.27066,0,0,1,1.12258.68308,3.14766,3.14766,0,0,0,.73649.82779,2.117,2.117,0,0,1,.846,1.69269c-.00959,1.6037-.02241,3.21216-.159,4.808a5.83026,5.83026,0,0,1-.68,1.91424,1.25786,1.25786,0,0,0,.18449,1.43914,14.51637,14.51637,0,0,1,2.19312,3.31316,8.71468,8.71468,0,0,1,.52415,2.72269,2.60993,2.60993,0,0,0,.15407,1.09272,2.44521,2.44521,0,0,1,.00065,1.79326,1.007,1.007,0,0,1-.24668.48129c-.57421.55992-1.2113.41618-1.38976-.38921a12.11312,12.11312,0,0,1-.30769-2.67094,4.99523,4.99523,0,0,0-1.15253-3.15334c-.50079-.65683-.96756-1.33982-1.44321-2.01558a2.15,2.15,0,0,0-2.01406-1.09043,3.01224,3.01224,0,0,1-.9868-.19777c-.64958-.18333-.84017-.09588-1.02126.52306-.34456,1.17767-.70783,2.35066-1.01259,3.53861a1.88625,1.88625,0,0,0,.11883.88681A1.02528,1.02528,0,0,1,117.25822,95.52641Z"/><path class="b" d="M143.77974,89.88819a7.93031,7.93031,0,0,1-.352,1.40462,8.78966,8.78966,0,0,1-1.33391,2.53043.87016.87016,0,0,0-.08767,1.17033,12.08025,12.08025,0,0,1,1.20723,2.28389c.59371,1.74893,1.10333,3.52991,1.55469,5.32113a2.48436,2.48436,0,0,1-.24914,1.42935.79118.79118,0,0,1-1.32018-.03584,7.3741,7.3741,0,0,1-.443-1.49362c-.0441-.17516.02169-.3816-.03488-.54944-.557-1.65317-.84947-3.406-1.92654-4.8615-.66877-.90372-.90969-1.00007-2.01-.66849a2.60152,2.60152,0,0,1-1.99591-.06123c-.584-.30424-.881-.14809-1.11807.388-.35748.80829-.6217,1.65844-.9124,2.49537a9.78415,9.78415,0,0,0-.33273,1.14249,1.60582,1.60582,0,0,0-.00672.68587,1.2078,1.2078,0,0,1-1.04413,1.60856.6194.6194,0,0,1-.51368-.263,1.9246,1.9246,0,0,1-.19736-.97176,16.26176,16.26176,0,0,1,.82592-3.98467c.32446-.79475.55153-1.62889.86422-2.429a1.22532,1.22532,0,0,0-.04617-1.06582,8.22741,8.22741,0,0,0-.43429-1.0157c-.804-1.1837-.19949-2.18848.39318-3.16861a5.35335,5.35335,0,0,1,1.62584-1.60561,7.36073,7.36073,0,0,0,2.13057-1.7518,2.36327,2.36327,0,0,1,1.177-.66456,1.00433,1.00433,0,0,1,1.2467.34.3525.3525,0,0,0,.23022.14283c1.00616.05134,1.54081.88072,2.23351,1.40967A3.1174,3.1174,0,0,1,143.77974,89.88819Zm-1.90975.12056c-.05418-.20336-.04865-.4593-.17319-.6007a11.31407,11.31407,0,0,0-1.47607-1.50645c-.63139-.4905-1.09-.36214-1.59255.24217a6.4506,6.4506,0,0,1-.93492,1.0101,9.08942,9.08942,0,0,0-1.73113,1.5981c-.2651.34844-.61.869-.52073,1.2068.199.75293.344,1.62165,1.24772,1.99759.29652.12335.50966.43533.784.62827a.90773.90773,0,0,0,.55365.22634,2.79357,2.79357,0,0,0,1.74363-.7829,11.59861,11.59861,0,0,0,.9487-1.13667A4.31632,4.31632,0,0,0,141.87,90.00875Z"/><path class="b" d="M78.05334,84.37409c-.25522,1.4921-.68336,2.96319.26383,4.46914a5.365,5.365,0,0,1-.86483.53657.79872.79872,0,0,1-1.11527-.37335,2.80809,2.80809,0,0,1-.48633-1.84814c.09966-.95241.16634-1.909.22033-2.86523a2.152,2.152,0,0,0-.48215-1.63874,3.41614,3.41614,0,0,1-.61546-2.90875,13.64663,13.64663,0,0,1,.54071-1.75877,12.97576,12.97576,0,0,1,.51818-1.65773,2.82784,2.82784,0,0,1,.85846-1.14926A4.31813,4.31813,0,0,1,79.892,74.16994a2.57462,2.57462,0,0,0,.92241-.08688c1.39073-.34535,2.2883.44009,3.10675,1.36058a1.335,1.335,0,0,1,.32778.84c-.0283.92317-.12637,1.84492-.21934,2.765a8.10772,8.10772,0,0,1-.20934,1.18967,7.49254,7.49254,0,0,1-.40331,1.20889,1.36039,1.36039,0,0,0,.07688,1.63048,8.31514,8.31514,0,0,1,.83931,1.21814,4.2197,4.2197,0,0,1,.63768,1.615,12.40018,12.40018,0,0,0,.663,1.89315,3.89832,3.89832,0,0,1,.21653,1.25892c-.01524.45226-.45839.5285-.81887.62321-.34859.09158-.50344-.11784-.62448-.40209q-.61574-1.44614-1.24876-2.88491c-.18716-.42521-.37527-.85189-.596-1.26a1.69632,1.69632,0,0,0-1.7755-.85961c-.76517.06846-1.54.02729-2.3105.03917A4.10187,4.10187,0,0,0,78.05334,84.37409ZM82.406,78.58144a16.033,16.033,0,0,0-.18734-1.62371,1.32061,1.32061,0,0,0-1.55244-1.11765c-.58244.062-1.16165.16123-1.7389.26312a.82247.82247,0,0,0-.76238.80585,2.6678,2.6678,0,0,1-.73693,1.65557,3.81269,3.81269,0,0,0-.5212.87083,2.04183,2.04183,0,0,0,.604,2.30826,11.74666,11.74666,0,0,0,1.98792.74833,1.47639,1.47639,0,0,0,1.5057-.45491A4.85924,4.85924,0,0,0,82.406,78.58144Z"/><path class="b" d="M93.99634,101.31746c-.22291-1.20047.56045-2.09438.96427-3.06822a2.06616,2.06616,0,0,1,1.42572-1.101,6.90486,6.90486,0,0,0,1.6622-.76467,1.2736,1.2736,0,0,1,.8438-.22841,5.42,5.42,0,0,1,2.50592.54174.65463.65463,0,0,0,.441.08509,1.22756,1.22756,0,0,1,1.24446.47663,6.53221,6.53221,0,0,1,1.76079,4.999,6.40511,6.40511,0,0,1-1.44134,2.95061,9.77543,9.77543,0,0,1-1.11339,1.23476,3.66252,3.66252,0,0,1-2.94093,1.11845,2.25031,2.25031,0,0,0-.95671.19281,1.56186,1.56186,0,0,1-1.91946-.46594,8.72856,8.72856,0,0,1-.76736-1.36731,10.09967,10.09967,0,0,1-1.36312-2.90647C94.25632,102.44441,94.11345,101.88287,93.99634,101.31746Zm5.20477-2.7496a6.088,6.088,0,0,0-.93031.277c-.50591.22279-.97262.53371-1.47585.76365a1.40487,1.40487,0,0,0-.93751,1.51612,8.65527,8.65527,0,0,0,1.27151,3.64186,3.79815,3.79815,0,0,0,.7281.83614.87728.87728,0,0,0,.57119.246,3.949,3.949,0,0,0,2.89725-1.45134c.15539-.19119.2972-.39431.46212-.5767a3.54833,3.54833,0,0,0,.14871-4.74454.80231.80231,0,0,0-.44528-.29639C100.804,98.69143,100.11129,98.64724,99.20111,98.56786Z"/></svg>