<svg xmlns="http://www.w3.org/2000/svg" viewBox="0 0 200 200"><defs><style>.a{fill:#1586c8;}.b{fill:#1b4e68;}</style></defs><title>mail</title><path class="a" d="M79.75772,117.64271a10.68868,10.68868,0,0,1-2.19051.3916c-2.34009-.10474-4.67584-.30644-7.0131-.473-1.62724-.116-2.54087-.79166-2.69844-2.46661-.37894-4.02755-.81929-8.06888-.836-12.1063-.02347-5.66472.32895-11.33054.49252-16.9967.0887-3.07213.1096-6.14619.18471-9.21879a17.38674,17.38674,0,0,1,.23826-1.79417,20.90584,20.90584,0,0,1,2.39043-.43c7.50229-.47734,14.96343-1.3682,22.53291-1.06478,4.20428.16859,8.40961.34564,12.613.58688,1.03708.05955,2.0903-.20036,3.13138-.16669,4.53094.1465,9.05893.41942,13.59048.49493a39.009,39.009,0,0,0,6.02722-.47987c2.43127-.34058,3.34058.39008,3.3043,2.75085-.02219,1.44419.15486,2.89074.22312,4.33712.29364,6.22325.80954,12.43993.1394,18.6771-.355,3.304-.55337,6.62726-.72546,9.94686a6.94742,6.94742,0,0,0,.45177,2.5892c1.03083,2.92284-1.20177,5.967-4.19353,5.23257-3.69161-.90626-7.20917-.26191-10.82673.2224a6.51005,6.51005,0,0,0-.05234,4.30643,6.25924,6.25924,0,0,1,.28733,1.66391,2.64167,2.64167,0,0,1-3.09723,2.564c-2.559-.30128-4.98044-1.48093-7.63858-1.17147-3.13239.36462-6.26781.70346-9.40239,1.04937a12.10033,12.10033,0,0,1-2.17481.19647c-3.78592-.27966-7.56647-.6315-11.35142-.92541a1.76989,1.76989,0,0,1-1.79382-1.604C80.90756,121.71287,80.30929,119.70178,79.75772,117.64271Zm26.0337-41.28143c.53852,4.64567-.63539,8.81037.89357,12.90558.772,2.06782-.224,3.47892-2.1277,3.12219a22.50389,22.50389,0,0,0-9.93509-.08851,3.81011,3.81011,0,0,1-.92664-3.28082c.1368-3.64467.2085-7.29174.3342-10.93688.04171-1.20915-.44833-1.81259-1.68991-1.83091-1.78233-.02635-3.57619-.265-5.34347-.12978-4.76043.364-9.51131.85949-14.261,1.35133a13.475,13.475,0,0,0-2.234.616c-.14393,2.1389-.68479,4.04941.15338,5.96854a2.8213,2.8213,0,0,1-.11022,1.39764,21.78262,21.78262,0,0,0-.46905,2.60488c-.14367,3.47838-.23864,6.95935-.3036,10.44023-.07524,4.03368-.17149,8.06911-.12494,12.10224.04056,3.51156,1.2046,4.43688,4.62388,4.2067,1.72719-.11621,3.46962-.00624,5.36579.00219a30.36554,30.36554,0,0,0,.03468-7.63663c-.38466-2.8779.35645-3.91859,3.194-4.33485,2.39289-.351,4.81471-.52719,7.2296-.698,1.61264-.11412,3.23588-.07253,4.85382-.11968,3.22884-.09412,6.45681-.25255,9.68608-.28276,1.77414-.01658,3.55176.15139,5.325.27718,1.74594.12385,3.4882.29944,5.39428.46655.27756,3.87911.55285,7.72644.8356,11.67849a28.68958,28.68958,0,0,0,10.057-.34928c2.29192-.40535,2.63232-.91636,2.68307-3.25434.04577-2.10777.01367-4.2181.09943-6.32392.09557-2.34654.34455-4.68728.42271-7.034a126.63666,126.63666,0,0,0-1.049-18.157c-.21154-1.91134-.41464-2.095-2.43014-2.15221-4.78006-.13548-9.55905-.30743-14.339-.44672C109.87751,76.39361,108.11986,76.39279,105.79142,76.36128Zm3.99929,28.78267a13.968,13.968,0,0,0-1.96674-.53942q-2.77906-.2764-5.5684-.44605c-1.93215-.11507-3.87018-.26461-5.80156-.22046-1.76194.04027-3.51534.3649-5.278.4826-2.33607.15608-4.67938.20226-7.01585.35337-1.82955.11832-2.20181.58107-2.13226,2.34713.02221.56521-.027,1.13294-.0142,1.6989.08578,3.79735-.03748,7.60717.8273,11.352.47205,2.0443.892,2.576,2.88968,2.45705a20.66141,20.66141,0,0,1,7.17463.75062,9.44069,9.44069,0,0,0,3.10606.07889c2.33161-.13182,4.65752-.36461,6.98923-.49475,3.28831-.18355,6.57976-.31132,9.78885-.45922,1.65053-4.57306,1.0178-8.92485.138-13.28886a.94921.94921,0,0,0-.285.5939c-.22976,2.10076-.45553,2.24893-2.36869,1.54068-.30329-.11233-.62064-.191-.91536-.32162-1.53869-.682-1.90014-1.586-1.16615-3.08187C108.61023,107.095,109.13006,106.29307,109.79072,105.144ZM102.682,88.263a18.20137,18.20137,0,0,0,.03918-11.69833c-1.18182-.10361-2.21778-.2056-3.25556-.28308-2.27974-.17017-2.95955.297-3.07518,2.63152-.14734,2.97526-.06426,5.962-.08,8.85329C98.42266,89.315,100.50076,88.36779,102.682,88.263Z"/><path class="b" d="M114.82777,88.22731c-.87668-.34336-1.61257-.63159-2.53714-.99372a6.37867,6.37867,0,0,1,.52265-2.08317c1.28038-1.85242,2.64381-3.65472,4.07953-5.3901,1.0796-1.30506,1.23694-1.25978,3.16146-.72107,1.32329,1.69845,2.38857,3.07683,3.466,4.44557a2.53058,2.53058,0,0,1-.59606,3.93129,2.41307,2.41307,0,0,0-1.15289,3.06864,10.61965,10.61965,0,0,1,.41671,1.38641c.13576.93717-.2637,1.67443-1.22948,1.73807a24.89087,24.89087,0,0,1-4.3324-.04242c-1.04025-.11405-1.31605-1.09568-1.43916-2.00806C115.03722,90.44906,114.94427,89.33169,114.82777,88.22731Z"/><path class="b" d="M96.07263,112.69742a10.45112,10.45112,0,0,1-2.2092-.63669,1.85435,1.85435,0,0,1-.8484-1.203c-.03151-.26792.59061-.87831.92373-.8817,2.6594-.027,5.32345-.00316,7.97674.15846a1.75434,1.75434,0,0,1,1.2137,1.21285c-.03253,1.66912-.31282,3.3334-.50454,5.02574-2.26355-.19844-4.17555-.35179-6.08429-.53833-1.32351-.12933-1.74853-.9302-1.17206-2.1898A6.82878,6.82878,0,0,1,96.07263,112.69742Z"/></svg>