<svg xmlns="http://www.w3.org/2000/svg" viewBox="0 0 400 400"><defs><style>.a{fill:#811a9b;}.b{fill:#b121d5;}</style></defs><title>middle-class</title><path class="a" d="M258.68861,233.05406c3.56823-4.372,7.61729-4.81694,12.40465-1.84972.52161-2.66578,1.14914-4.90493,1.36144-7.18283.32306-3.46457-.09044-7.05517.65057-10.40615.65263-2.95178,1.70429-6.2347,5.64286-6.87521,3.68-.59854,6.27232,1.28016,8.519,3.71614,1.64526,1.78381,1.24537,6.22474-1.35659,8.45759-3.35433,2.87841-2.88525,5.7433-1.39564,9.09471a5.09531,5.09531,0,0,1,.03334,1.9055l-.7968.302c-.87987-1.25954-2.40607-2.46629-2.51411-3.78889-.28362-3.472-2.33667-4.01935-5.46994-3.90268-.40248,2.21266-.93784,4.55933-1.22359,6.936-.19005,1.581.72415,3.41509-1.35035,4.43727-.16117.07939-.22578.76356-.0755,1.00475,1.97875,3.17457.33634,5.59631-1.8223,7.64422-1.65177,1.567-1.54519,2.77827-.5667,4.67268a69.01138,69.01138,0,0,1,4.16893,9.87826c.42128,1.26788-.21761,2.888-.37313,4.34753q-.568-.00647-1.136-.013a16.605,16.605,0,0,1-.635-2.65983,20.83122,20.83122,0,0,0-5.01062-11.73784c-1.69752-2.0923-2.85955-2.141-4.06.18085a67.7035,67.7035,0,0,0-4.15352,9.36286c-.50183,1.48884.04914,3.33053.11163,5.01267.02025.54452.00511,1.09034.00631,1.63556-.66033-.11176-1.7452-.02753-1.90371-.371-.5416-1.173-1.31688-2.66219-.99953-3.73341a118.13326,118.13326,0,0,1,4.60242-12.93832c.574-1.34076.59566-1.91908-.29258-2.9891-2.03393-2.45009-1.41331-7.44952,1.11939-9.37126.52726-.4,1.46-.26559,3.02171-.4998-1.09522,1.625-1.70708,2.47307-2.25632,3.35985-1.18447,1.91208-1.27585,3.75429.4997,5.39251,1.73139,1.59755,3.3882,1.13908,5.1083-.11807,2.986-2.18241,3.41416-5.081,1.163-8.55128-1.612-2.485-4.19941-2.72667-7.30559-.724a28.72,28.72,0,0,0-2.76831,1.62882m15.33173-17.80716a3.93036,3.93036,0,0,0,5.936,3.51381,12.55948,12.55948,0,0,0,4.02443-4.23377c1.51975-2.60322-.17936-5.80536-3.13081-6.5478C279.1884,208.5802,274.9117,213.13126,274.96788,216.50428Z"/><path class="a" d="M315.27412,257.712c0-1.31194.08666-2.63068-.01541-3.93465q-.57932-7.398-1.2706-14.787c-.19656-2.08709-1.29411-2.648-3.48024-2.59087-2.91752.07623-5.18593.7026-6.278,3.58a6.207,6.207,0,0,0-.36609,2.82156c.42433,3.59479-.05644,6.886-2.80549,9.50307-1.41815,1.35015-1.22352,2.75234-.616,4.434a80.46234,80.46234,0,0,1,2.46224,8.26279c.16037.65728-.46444,1.50611-.72794,2.26681-.579-.5586-1.45215-1.0176-1.68145-1.69463-.66346-1.95889-.85643-4.09127-1.62846-5.99561-.93831-2.31459-1.98233-4.69323-5.35838-4.3109-1.5754.17843-3.6013-.91656-4.72886-.25367-1.1188.65768-1.37346,2.79553-1.99282,4.29015-1.584,3.82266-3.30513,7.62314-1.62839,12.116-2.91121-.0081-3.42645-1.7197-2.99721-3.42383,1.20957-4.8019,2.76519-9.51562,4.07038-14.29525a11.62319,11.62319,0,0,0,.16814-3.46354c-.08613-2.14489-.39325-4.2868-.37406-6.42784.01122-1.23846.86619-2.53834.66957-3.69652-.55913-3.29288,1.553-4.26787,3.89527-4.15063,2.6926.13474,5.34556,1.1254,8.00742,1.7784,1.04814.25709,2.73743,1.14294,2.99654.8224,1.23394-1.52653,3.22617-3.694,2.8464-5.04053-1.23414-4.37535.54147-7.79337,2.50567-11.14551,1.27937-2.18328,3.76392-1.44926,5.67812-.79022a26.0198,26.0198,0,0,1,5.00066,2.71282c3.07928,1.90384,3.62507,5.0064.93552,7.41645-2.06434,1.84989-2.15233,3.57556-1.806,6.15136a161.65069,161.65069,0,0,1,1.09874,16.49592c.03778,1.21319-.93831,2.458-1.4475,3.68819Zm-27.19319-12.56442c.05724,4.31512,1.91168,7.16358,4.2852,7.72952,4.003.95451,6.40818-.24673,8.60049-4.2955a5.94877,5.94877,0,0,0-1.21721-7.62579,17.48749,17.48749,0,0,0-5.277-3.1761c-1.108-.39163-3.39285-.08327-3.79965.65413A41.89872,41.89872,0,0,0,288.08092,245.14756Zm21.97439-10.67041c3.20877-.54343,5.614-2.538,7.63648-5.061a1.5554,1.5554,0,0,0,.061-1.47755c-1.82728-1.54439-3.57613-3.533-5.71856-4.20333-1.05465-.33-2.95922,1.76532-4.34523,2.92353a4.8741,4.8741,0,0,0-1.18593,2.10568C305.6474,231.1794,307.65463,234.4643,310.05532,234.47715Z"/><path class="a" d="M78.35719,273.58736c-1.91506.90308-3.23387.268-3.8871-1.36055a11.29036,11.29036,0,0,1-.97755-4.44664c.17983-4.7773.70529-9.54122.90325-14.31839a7.03255,7.03255,0,0,0-.98771-3.73706,10.50679,10.50679,0,0,1-.4995-10.58063c.19171-.40975.42114-.80168.61916-1.20864,2.41178-4.95606,2.43987-5.2023,8.07064-4.54468A46.10657,46.10657,0,0,1,92.499,236.12946a5.80975,5.80975,0,0,1,2.88671,4.06059c.44751,3.337-.05366,6.78815-2.43608,9.43577-1.21236,1.34746-.97669,2.30164-.13454,3.5312,2.75489,4.022,5.39557,8.11958,6.22809,13.03955a25.34023,25.34023,0,0,1,.03486,4.17195l-1.10213.09938a19.152,19.152,0,0,1-1.0492-3.42532c-.625-5.41585-3.87608-9.44211-7.009-13.53268a1.86773,1.86773,0,0,0-1.33747-.65867c-3.813.15277-7.6226.38721-12.24123.64177-.18653,4.691-.594,10.02844-.487,15.35551C75.88266,270.37318,77.40294,271.86793,78.35719,273.58736ZM74.227,243.437c-.49472,3.96619,1.49067,5.8691,4.46935,7.16288,3.82262,1.66033,7.53927,1.69958,11.01127-.78411,3.11747-2.22989,3.85051-5.62553,3.55069-9.11294a5.09364,5.09364,0,0,0-2.48974-3.47363,28.963,28.963,0,0,0-7.19927-2.20034c-1.4303-.27933-3.64306-.49767-4.36841.29514C76.98147,237.75,73.73391,239.78485,74.227,243.437Z"/><path class="a" d="M93.4903,232.60955c-.72236-1.161-1.76187-2.24072-2.08566-3.50385a14.18219,14.18219,0,0,1-.18135-4.8106c.23182-2.36772.66565-4.51762-.365-7.01177-1.5596-3.77425,2.1939-9.73881,6.22265-10.57147,1.9389-.40069,4.04668-.63995,5.46011,1.30337,1.75071,2.407,3.70024,4.80854,2.22969,8.1062a5.49238,5.49238,0,0,1-1.203,2.09784c-2.32306,1.84786-1.32824,3.47356.01541,5.30708a11.32447,11.32447,0,0,1,1.092,2.91705l-.85962.50491c-.87476-.91646-2.09927-1.68553-2.55906-2.77687-1.40255-3.3286-4.25745-1.97911-6.56981-2.19865-.34723-.033-1.19822,1.31881-1.17617,2.00949.08573,2.67836.43,5.34845.67807,8.02163Zm9.34277-18.96225c.021-2.2528-2.18082-5.25333-3.82063-5.20658-3.64273.10392-6.17776,3.23125-6.13725,7.57107a3.959,3.959,0,0,0,3.87243,3.73693C99.62264,219.79424,102.80551,216.603,102.83307,213.6473Z"/><path class="a" d="M114.26628,222.678a8.92564,8.92564,0,0,1-.656-2.70107c.30493-3.76654.52547-7.50583,2.42134-11.0214.796-1.476.2542-3.63868.47374-5.47084.18374-1.5336.33548-4.20807.94621-4.34155a9.75091,9.75091,0,0,1,5.933.44784c3.728,1.789,4.297,5.82468,1.86526,9.07459a3.09567,3.09567,0,0,0-.20161,2.47639c.92735,2.67949,2.11136,5.2697,3.05657,7.94377.2115.59838-.153,1.40042-.25227,2.1087l-.8976.1513c-.63032-1.60293-1.32771-3.18321-1.87708-4.81336-1.20094-3.56324-2.7203-6.73971-7.83816-6.82883-.67893,4.21747-1.37957,8.56968-2.08015,12.92192Zm4.38939-21.83677c0,1.617-.30613,3.14413.09649,4.45321a4.61592,4.61592,0,0,0,2.36171,2.62109c.60515.24958,2.0583-.62122,2.58045-1.37137.515-.73992.80855-2.30161.3724-2.90756C122.88762,201.99864,121.49012,200.261,118.65567,200.84126Z"/><path class="b" d="M235.72778,150.97767c1.33853-2.648,2.37406-4.98024,3.66511-7.16125,1.04011-1.75728,3.20233-3.60471,1.61192-5.47379-1.62932-1.91467-4.12576-.68789-6.16766.30254a2.34335,2.34335,0,0,1-.47367.26054c-1.11754.22893-2.23959.43575-3.36018.64974.64646-1.14456,1.023-2.6518,1.98718-3.36944,3.72149-2.76987,7.53641-2.48794,10.8507.34089,1.9146,1.63414,1.8877,3.36964.56816,5.25376a54.57843,54.57843,0,0,0-3.48562,4.80678,19.44282,19.44282,0,0,0-1.21323,4.27325c-.32725,1.2107.86745,3.37356-1.52573,3.23849C237.40591,154.05523,236.72333,152.30588,235.72778,150.97767Z"/><path class="a" d="M78.84049,215.07448a9.55605,9.55605,0,0,1-4.92993,7.18622c-1.66266,1.04366-4.54246-.571-5.16667-2.63573-.78425-2.59373.59891-7.35257,2.92237-8.72948a4.11223,4.11223,0,0,1,3.67613-.09888C76.77886,211.85582,77.7025,213.61051,78.84049,215.07448Zm-8.4285,2.104c-.05326,1.77787,1.08141,3.32382,2.42167,3.29942,1.47121-.02673,3.56431-2.85938,3.277-5.03781-.1362-1.03267-1.16362-2.5749-2.02443-2.75552C72.24205,212.29758,70.48576,214.7148,70.412,217.17847Z"/><path class="b" d="M138.20442,148.71584c.28455-1.29221.2461-2.5674.65682-2.73378a16.24852,16.24852,0,0,1,5.76452-1.53237c.58809-.00332,1.3289,2.36167,1.75337,3.719.68331,2.1849,1.19762,4.42575,1.69991,6.66172a3.38977,3.38977,0,0,1-.17836,1.58075c-1.00206-.00083-2.57473.20725-2.89142-.3144a14.16629,14.16629,0,0,1-1.22863-4.233c-.116-.51537.04369-1.08832-.03978-1.61644-.17551-1.11176-.42865-2.21123-.65-3.31579q-1.67391.58485-3.34723,1.17122C139.49382,148.19087,139.25071,148.29788,138.20442,148.71584Z"/><path class="b" d="M216.90694,128.19371c-1.81685,0-3.27491.03679-4.72713-.03858-.22452-.01165-.4224-.53732-.68915-.90281,1.73411-2.66521,4.15578-1.70466,6.28347-1.06312,2.20187.66385,2.17072,2.50607,1.71113,4.46-.43821,1.86337-1.14689,3.70064.85032,5.42435,1.03685.89488.26217,2.00219-1.23189,2.03752-1.818.043-3.41822-2.02091-3.15837-4.21661C216.16194,132.06442,216.552,130.25494,216.90694,128.19371Z"/><path class="a" d="M78.30752,204.74331c-.00578-2.5913,1.50328-3.958,4.3621-3.95052,2.59127.00674,4.39683,1.66624,4.39743,4.0417a5.128,5.128,0,0,1-4.513,4.89424C80.274,209.79506,78.31363,207.49358,78.30752,204.74331Zm1.59838.64629c1.23215.89411,2.21747,1.92526,2.50308,1.75838a5.32328,5.32328,0,0,0,2.26084-2.394c.15041-.38535-1.434-2.0423-1.78312-1.91344C81.935,203.19181,81.22065,204.18646,79.90589,205.3896Z"/><path class="a" d="M88.82958,189.34175c.51624-1.5411-.34484-4.21515,2.96487-4.18639,2.53941.02208,5.22311,2.478,5.14615,4.82339a4.2676,4.2676,0,0,1-4.1601,3.75562C89.87818,193.77185,88.81968,192.662,88.82958,189.34175Zm1.28508-.03463c1.14543,1.0237,1.89853,2.13012,2.37339,2.02145.7464-.17093,1.80556-1.15874,1.80782-1.804.00246-.6935-.95019-1.67926-1.70509-1.97094C92.18125,187.3954,91.31613,188.41635,90.11465,189.30711Z"/><path class="a" d="M271.19586,198.58955c1.22784,1.69818,2.22206,3.07324,3.21628,4.4483,1.07776-1.28733,2.15558-2.57467,3.34517-3.99551-1.20194-.86433-1.89853-1.36523-2.59512-1.86609l-.05837-.74308c.75191-.12212,1.59207-.511,2.23334-.29879a3.42,3.42,0,0,1,2.07484,1.59492c.85875,2.5492-1.70629,6.86359-4.34072,7.56261a3.16577,3.16577,0,0,1-4.06-1.77389C270.22408,201.83009,269.44946,200.07367,271.19586,198.58955Z"/><path class="a" d="M128.24886,189.51427a22.43,22.43,0,0,0,.72442,3.01155c.20958.51892.68637,1.20821,1.12922,1.27824a2.03233,2.03233,0,0,0,1.52507-.81483,2.91441,2.91441,0,0,0-2.005-4.70684c-1.49718-.27515-3.03061-.35324-5.23646-.59529,2.24683-2.09383,4.44683-1.22461,6.25691-.90215a4.6088,4.6088,0,0,1,3.42652,6.08735,6.19521,6.19521,0,0,1-3.13818,2.94641c-.69241.30706-2.30247-.42363-2.90211-1.16747C126.99048,193.36262,126.15218,191.70949,128.24886,189.51427Z"/><path class="a" d="M264.89093,207.056c2.28415-.0422,3.6266.71628,3.56225,2.94232-.08633,2.98685-2.70575,6.31346-4.89587,6.31233-1.812-.00093-3.11415-1.58679-3.02669-3.686C260.6313,210.21,263.27947,207.02817,264.89093,207.056Zm1.34537,2.282c-.7023-.1179-1.16535-.346-1.36742-.20363-.89488.63045-2.02636,1.22023-2.45042,2.1183-.27532.583.52068,1.672.83664,2.53429a25.81784,25.81784,0,0,0,2.59871-2.43522C266.18969,210.94718,266.09453,210.18478,266.23631,209.338Z"/><path class="a" d="M313.65982,198.42383q-.59705-1.29615-1.19218-2.58838c2.62-1.029,5.84148.33482,6.58695,2.8555.67687,2.28866-1.51218,6.22185-3.75569,6.74781-2.43356.57052-4.19277-1.49505-3.40447-4.239a11.75686,11.75686,0,0,1,1.833-2.85576,16.345,16.345,0,0,0-.276,3.4471,2.77858,2.77858,0,0,0,1.339,1.46733c.79726-.48649,1.91-1.1443,2.02729-1.88628a4.84255,4.84255,0,0,0-.91779-3.07414C315.69435,197.98479,314.437,198.36188,313.65982,198.42383Z"/><path class="a" d="M294.78915,204.06128a36.76908,36.76908,0,0,1,4.98784-.9999c.52686-.03974,1.38362.84866,1.65416,1.49459.85178,2.0332-2.09363,6.93889-4.3123,7.02462a4.44828,4.44828,0,0,1-3.26475-1.17587c-.66611-.82223-.49525-2.32263-.69015-3.52662l.74839-.17677c.195.24809.39976.48921.583.7456.60515.84667,1.20273,1.69881,1.80317,2.54884a15.35928,15.35928,0,0,0,2.80762-2.22644c.38435-.4733.10087-1.489.11893-2.25977a18.39772,18.39772,0,0,1-1.98486.0931c-.80244-.04393-1.599-.19643-2.398-.302Q294.81571,204.681,294.78915,204.06128Z"/><path class="a" d="M84.259,230.86269a10.24631,10.24631,0,0,1-1.74-.99933c-1.86984-1.90258-3.73191-3.81482-5.51961-5.79337-.24723-.27356-.06919-.9313-.08805-1.41121.49.04154,1.14848-.10651,1.44279.15516,2.01109,1.788,4.00139,3.6091,5.85529,5.55574C84.55639,228.734,84.259,229.71192,84.259,230.86269Z"/><path class="a" d="M72.74952,235.42424c-2.52672-1.54794-3.09177-4.5988-1.64619-7.79526a9.452,9.452,0,0,1,1.79759-2.06069,15.784,15.784,0,0,1,.3809,2.81569c-.04277,1.15751-.41351,2.29952-.51212,3.45929C72.67568,232.94944,72.74952,234.0699,72.74952,235.42424Z"/><path class="b" d="M166.56949,226.25919a9.888,9.888,0,0,1-2.88714-.40758,28.16911,28.16911,0,0,1-3.57788-2.31947c-.54285-.36195-1.092-1.03865-1.62954-1.02992-2.72237.044-5.44425.236-8.15922.46253a1.44477,1.44477,0,0,0-.99124.85691,70.01142,70.01142,0,0,0-2.28906,8.52326c-.51981,3.22867.67754,4.4499,4.18127,4.4366,7.8564-.02974,10.04688,6.26485,7.60254,11.50494-1.68162,3.60483-2.083,6.49375,1.14184,9.366a6.98849,6.98849,0,0,1,1.55022,3.31455,6.14888,6.14888,0,0,1-.273,2.26627c-.69443-.46015-1.60929-.771-2.04148-1.4088-1.222-1.80346-2.14914-3.80933-3.40228-5.58759a2.77349,2.77349,0,0,0-2.22664-1.05324c-4.36538.88721-9.8421-1.21505-12.0952-4.83849-2.45328-3.94541-2.346-7.78417.8331-11.58307a9.32145,9.32145,0,0,0,2.07506-6.05368c.18384-3.16918,1.29817-6.27536,1.85276-9.43668a6.48709,6.48709,0,0,0-.157-3.591c-1.29894-2.83035-1.62221-5.52231.43086-8.02938,1.63757-1.99966,3.23359-4.24187,5.35034-5.58462,2.328-1.47688,4.93882-.71922,7.03371,1.28724,3.344,3.203,4.1502,6.78913,2.70352,10.90927a3.70974,3.70974,0,0,0,.71957,3.07035,39.80488,39.80488,0,0,0,4.44554,3.87144Zm-15.8352,12.41571c-4.39275-.2237-7.69735,2.2368-7.955,5.92311-.26162,3.74234,3.931,8.76435,7.52064,9.00848,3.31982.22576,6.85085-3.89574,7.06625-8.24792C157.57089,241.223,155.27185,238.906,150.73429,238.6749Zm-2.78-21.822a6.87723,6.87723,0,0,0,1.1408,2.19865c1.77909,1.79833,4.05733,2.70659,6.47431,1.65632,2.49105-1.0825,4.63377-3.32586,4.00692-5.9406-.58419-2.437-2.7276-4.52639-4.32538-6.66352-.21547-.28829-1.30767-.11273-1.89828.10609C151.43647,208.9197,147.917,214.25412,147.95425,216.85288Z"/><path class="b" d="M173.35115,245.8508a55.88219,55.88219,0,0,0-3.86177-5.03377,10.02611,10.02611,0,0,1,.45718-14.258c.35532-.31171.7394-.79445,1.1371-.82315,4.7274-.3409,9.28661-3.6308,14.08034-1.42633,2.81293,1.29356,5.76228,3.17962,6.40449,6.62334.66141,3.54765.24619,7.03912-2.6448,9.72675-.61854.57508-1.29377,1.08909-2.2404,1.87964,5.04557,7.6793,9.62293,15.55578,7.08307,25.16793q-.54921.1473-1.09842.29457a14.1219,14.1219,0,0,1-.694-3.22232,26.43516,26.43516,0,0,0-5.18214-17.07253c-1.34593-1.77728-2.48679-2.8087-5.16964-2.07052-2.59851.71486-5.55128.14222-8.34843.1351Zm7.07246-20.057a19.99677,19.99677,0,0,0-9.75608,5.258,3.0343,3.0343,0,0,0-.71524,1.51873c-1.01282,4.64543,4.00462,10.84374,8.75988,11.057,3.31563.14872,5.01073-2.36786,7.22236-4.02368,3.18074-2.38147,4.01663-5.09979,2.85733-8.66461C187.77905,227.82495,184.94951,225.85954,180.42361,225.7938Z"/><path class="b" d="M203.05862,240.70287c-3.00556-3.66376-4.11333-7.839-1.59044-12.45013,1.24622-2.27782,2.91046-3.94684,5.847-3.67591a42.82973,42.82973,0,0,0,4.56325.02192c4.14992-.06242,6.83472,1.57592,8.35674,5.12524,1.97431,4.60406,1.49527,7.86133-1.60587,10.97584-.45279.45474-.88218.93266-1.30823,1.38478,4.43457,5.44746,8.33823,10.96488,8.33412,18.15317q-.5203.23884-1.04046.47768c-.75581-1.80884-1.58932-3.58971-2.25192-5.43206-1.59072-4.42243-3.41506-8.65215-7.94906-10.90742a6.305,6.305,0,0,0-1.77267-.539c-2.18929-.358-4.52422-.3114-6.54183-1.094-1.9644-.76192-2.87039-.10756-3.67151,1.36656-1.805,3.32132-3.533,6.68468-5.36053,9.99329-.21086.38178-.85279.5254-1.29489.77941-.24626-.44535-.76083-.94-.68976-1.3269a9.82407,9.82407,0,0,1,1.10246-3.75044C198.26957,246.77617,200.60171,243.91786,203.05862,240.70287Zm7.62027-14.00134c-6.03891-.2288-7.181,1.31217-7.66887,6.32161-.47373,4.86341,3.80905,8.61231,8.99,8.59284,3.21272-.01208,6.62351-3.45922,6.55349-6.62338C218.43308,229.54557,215.69891,226.66684,210.67889,226.70154Z"/><path class="b" d="M189.96213,212.95407c-2.864-.09342-4.298-2.61415-6.0933-4.28132-2.42486-2.25192-5.54674-1.168-8.19887-2.1732-.23676-.08975-1.26473,1.4693-1.67946,2.37519-.98286,2.14694-1.81812,4.36147-2.73682,6.60676-2.32034-.27624-2.13371-1.79529-1.60084-3.11148a40.34769,40.34769,0,0,1,2.6485-5.04076c.8539-1.46913.4102-2.37135-.58887-3.73916a23.11246,23.11246,0,0,1-3.55735-7.19245c-.89621-3.17285,1.97438-4.93369,3.783-6.81479,2.5407-2.64249,10.46322-1.93577,12.85778.84874,5.01688,5.834,5.11888,7.56536,1.23226,14.37243a3.16286,3.16286,0,0,0,.56045,2.61743c1.21152,1.712,2.6691,3.25,4.02787,4.85793Zm-12.108-22.28462c-4.071.217-6.70988,2.349-6.57185,5.30963a9.60594,9.60594,0,0,0,9.31244,8.69875c3.5371-.06794,5.00619-2.26892,4.78752-7.17248C185.1804,192.98165,182.36908,190.42878,177.85408,190.66945Z"/><path class="b" d="M208.16082,195.187c.32271-.54331.49712-.99766.597-.98181,3.73944.59257,7.60107.82814,11.16708,1.97787,3.19868,1.03128,3.29943,9.04332.454,11.17347-4.09225,3.06355-3.48578,6.55635-2.21038,10.4695a12.04821,12.04821,0,0,1,.65952,2.751,4.58016,4.58016,0,0,1-.56659,1.66036c-.57574-.3439-1.43886-.55462-1.67192-1.0574a16.33412,16.33412,0,0,1-1.42685-4.30307c-.38115-2.48767-1.08676-3.47814-3.92845-2.48121-5.65329,1.98321-9.89977-1.7607-11.87757-6.9782-1.59777-4.215-.09754-9.6525,4.64578-11.49045a13.6986,13.6986,0,0,1,3.0307-.38928c-1.8522,2.07862-3.63024,3.55571-4.73243,5.43021-1.7291,2.94087-.46221,6.7944,2.699,9.60293,2.62483,2.332,4.47256,2.39756,7.92169.1571,2.915-1.89346,5.5089-4.08292,6.3198-7.71634.76328-3.42-.73842-5.53463-4.10991-5.98717-1.86337-.2501-3.70251-.69639-5.54053-1.10819A7.17673,7.17673,0,0,1,208.16082,195.187Z"/><path class="b" d="M229.65518,207.1102a8.06129,8.06129,0,0,1,10.12927.74488c1.955,1.87667,3.06561,6.68534,1.65132,9.35405-1.28316,2.4212-.80524,4.26453.1726,6.63175a134.30107,134.30107,0,0,1,4.55222,13.78011c.34219,1.17515-.09286,2.57665-.17071,3.87413l-1.055.09066c-.33465-1.18265-.62084-2.38164-1.01254-3.54506-1.57515-4.67776-3.13982-9.36-4.80867-14.00458a1.99412,1.99412,0,0,0-2.83122-1.45485c-1.71856.50969-3.6685.18321-5.48.46284a3.7204,3.7204,0,0,0-2.06305,1.33814c-1.089,1.3512-1.993,2.85147-3.261,4.71476-1.6072-3.01425.14963-4.52611,1.1947-5.75551,1.29873-1.52767,1.09374-2.49011.1675-3.95341-1.49423-2.3607-.60716-6.81088,1.62807-8.24813.57658-.37075,1.542-.13674,2.63991-.19784a38.17436,38.17436,0,0,0-2.13965,4.22836,4.41293,4.41293,0,0,0,6.97394,4.82079c3.16747-2.35064,4.235-5.68855,2.74443-9.29118-1.03055-2.49084-3.28959-2.90062-5.58647-3.20231C231.95506,207.34728,230.80393,207.23811,229.65518,207.1102Z"/><path class="b" d="M150.53809,192.76912a4.77826,4.77826,0,0,1,5.022-4.6027c4.39827.23477,7.49285,2.38514,7.35216,5.10887-.18747,3.62955-3.27353,5.98892-7.71076,5.895C152.70441,199.1174,150.4594,196.03574,150.53809,192.76912Zm2.45014-1.69915c-.20464,3.75075.91032,5.626,3.13256,5.70307,2.03541.07059,4.55327-1.72366,4.21555-3.33459C159.31452,188.56373,155.57179,191.97233,152.98823,191.07Z"/><path class="b" d="M173.27372,245.77152a60.8019,60.8019,0,0,0-3.121,7.22383c-1.29189,4.41331-2.32642,8.91181-3.23248,13.4221-.26092,1.299.28752,2.76066-.12784,4.70928-.64353-.63673-1.77861-1.22866-1.84151-1.91835a23.61667,23.61667,0,0,1,.03763-7.22387,71.65775,71.65775,0,0,1,3.88174-12.42172c.68138-1.58632,2.93944-2.49549,4.48031-3.71242Z"/><path class="b" d="M223.6502,175.85229c3.00451.11908,4.67678,1.93968,4.53938,4.9422-.1624,3.55016-2.12757,5.56148-5.34531,5.47071a4.85473,4.85473,0,0,1-4.98532-4.73005A5.79263,5.79263,0,0,1,223.6502,175.85229Zm3.38671,5.24694c-1.63128-1.5365-2.54174-3.107-3.44592-3.10338-2.15759.00855-2.84295,2.07353-2.87493,3.83255-.01306.7174,1.64148,2.1933,2.1955,2.04521C224.16548,183.53848,225.20692,182.40836,227.03691,181.09923Z"/><path class="b" d="M183.91868,177.928c-.26043,2.73867.29129,4.87284,3.6146,4.55069,2.50055-.24242,4.05992-2.18486,4.33473-4.84955.36355-3.52384-2.335-2.18569-4.75735-2.63045,1.07579-1.00287,1.733-2.10959,2.34778-2.08644,1.30152.049,3.00724.29984,3.7879,1.15836,2.1807,2.39854,1.05226,7.0821-1.92984,9.29373-2.48868,1.84549-6.993,1.46106-8.8931-.75919C180.87018,180.79024,181.2729,179.34206,183.91868,177.928Z"/><path class="b" d="M195.248,188.32261a4.176,4.176,0,0,1,4.024-4.258c2.43457-.07551,5.15882,2.54838,5.24938,5.05591a3.92658,3.92658,0,0,1-3.85625,4.35962A4.915,4.915,0,0,1,195.248,188.32261Zm3.93724-2.25286q-.52742.37855-1.055.7571c.022,1.53507-.82577,3.48016,1.6435,3.97641.60011.12054,1.40325-.76932,2.113-1.19459Q200.536,187.83919,199.18519,186.06975Z"/><path class="b" d="M171.9097,184.55248c-2.6647.00063-4.44086-1.59051-4.50062-4.03189-.04427-1.80748,3.69539-5.66827,5.23011-4.9022a6.95448,6.95448,0,0,1,3.26962,4.3208C176.45711,182.692,174.48349,184.55185,171.9097,184.55248Zm-1.66752-3.62117c.78792.60541,1.47789,1.40985,1.74761,1.28756.62224-.28221,1.42036-1.00339,1.43628-1.56656.01641-.57864-.81194-1.18119-1.27066-1.77323C171.62386,179.44927,171.09232,180.01946,170.24218,180.93131Z"/><path class="b" d="M227.20441,192.73714c2.05768.14886,4.44987-.1093,6.52765.58017,2.662.88333,2.54174,3.30907,2.01418,5.72636-.41927,1.92083-1.68239,2.38095-3.30132,2.35881-2.4153-.033-3.42225-1.65677-3.95582-3.73871C228.11752,196.21371,227.73421,194.76661,227.20441,192.73714Zm2.67964,2.73542q1.01536,1.79346,2.03073,3.58688c.599-.451,1.63624-.83257,1.72079-1.36527C233.99312,195.44052,232.37161,195.12608,229.88405,195.47257Z"/><path class="b" d="M245.72735,192.88792c.8657,1.16007,1.717,3.37613,2.76021,3.47049,2.05118.18551,3.01561-1.94541,2.95885-3.81069-.09049-2.97344-2.51081-2.73616-4.828-2.36587q.01288-.61126.02569-1.22252c1.34153-.25837,2.85328-1.019,3.97788-.63764a5.276,5.276,0,0,1,2.89,2.94286c.87262,2.56531-1.09388,6.447-3.6884,7.24143a5.08331,5.08331,0,0,1-4.0403-.7445C244.37,196.64615,244.82395,193.85291,245.72735,192.88792Z"/><path class="b" d="M139.65462,271.44229c-2.08679-.39065-2.084-2.46965-1.72889-4.06386a113.66673,113.66673,0,0,1,3.24281-11.1365c.22433-.67384,1.28728-1.06846,1.963-1.592.21749.70051.75832,1.48529.60122,2.08815C142.48158,261.54032,141.09781,266.30794,139.65462,271.44229Z"/><path class="b" d="M199.80611,210.96415c.12812.70222.62028,1.644.34449,2.21408a29.14865,29.14865,0,0,1-3.12293,5.0579,2.22264,2.22264,0,0,1-2.13364-.03C194.06093,217.03165,197.57381,211.182,199.80611,210.96415Z"/><path class="b" d="M149.94024,165.28414c-.83472-.93409-1.72043-1.50773-1.66379-1.96444a2.25333,2.25333,0,0,1,1.3981-1.585c.417-.09366,1.397.75735,1.50528,1.30862C151.28083,163.55743,150.56273,164.23238,149.94024,165.28414Z"/><path class="b" d="M236.14488,160.35c1.19457-.64626,1.90152-1.31765,2.26973-1.16608a7.119,7.119,0,0,1,1.81977,1.61335c-.50156.38273-1.05578,1.12882-1.49266,1.06557C238.03391,161.76024,237.403,161.1265,236.14488,160.35Z"/></svg>