<svg xmlns="http://www.w3.org/2000/svg" viewBox="0 0 400 400"><defs><style>.a{fill:#1286c9;}.b{fill:#0f6698;}</style></defs><title>neighborhood</title><path class="a" d="M271.78556,146.65433a8.063,8.063,0,0,0,1.30638,3.82794,18.47791,18.47791,0,0,0,1.88807,2.40646c.84581,1.07954,1.5226,2.28974,2.33263,3.39955.815,1.11662,1.741,2.15267,2.54765,3.27481a21.80277,21.80277,0,0,1,1.26249,2.20066c.06639.11978.04121.321.13137.39247,2.87381,2.27783,4.09429,5.8047,6.4251,8.49038.49716,1.70706,1.85652,2.84664,2.82156,4.24283.94919,1.37328,1.98589,2.69005,3.04377,3.98289a9.09169,9.09169,0,0,1,1.26644,3.2231c-1.42158.39194-1.64241,1.45746-1.85164,2.665-.20405,1.17773-.19932,2.39011-.41161,3.51562-.57854,3.06747-.18717,6.18867-.7734,9.23433a17.94832,17.94832,0,0,0-.40712,2.37912c-.12721,2.32954-.17843,4.66317-.27187,6.99469-.01716.4287-.106.85414-.13685,1.28286a1.99374,1.99374,0,0,0,.01115.97555,6.1523,6.1523,0,0,1,.37131,2.96093c.06688,2.76.15547,5.51955.22913,8.27944.01021.38291-.04861.76938-.019,1.1498.16355,2.09762.4276,4.191.501,6.29124a104.38588,104.38588,0,0,1,.18254,10.44785,18.97477,18.97477,0,0,0,.39754,4.26048,3.45337,3.45337,0,0,1,.10171,2.08625c-.06485.15114.13572.41614.2565.74429l11.36251-3.40664c.68549,1.17826.6171,1.87636-.47163,2.366a23.6421,23.6421,0,0,1-3.28786.94786c-2.21262.6261-4.4182,1.27785-6.638,1.87708a1.90512,1.90512,0,0,0-1.26328,1.05864c-.30468.573-.70889,1.093-1.04347,1.59678-1.17245-.02936-.83784-1.04066-1.102-1.59863a1.44847,1.44847,0,0,0-.48424-.06468c-1.78881.51672-3.56106,1.0961-5.36338,1.55877-1.381.35453-2.8019.55129-4.1988.84775-.60468.12833-1.18744.35855-1.791.494-1.20574.27058-2.44715.41581-3.62384.776-3.4267,1.049-6.82875,2.17865-10.24053,3.27646-.68551.22057-1.36949.44607-2.05724.6595-2.28608.70941-4.54937,1.50966-6.86644,2.09753-3.10636.78816-5.9574,2.37965-9.16819,2.83-.49366.06926-.929.48939-1.42484.61919-2.12045.5551-4.25514,1.05558-6.38024,1.59333-.356.09008-.81905.1689-1.00886.42124a1.50069,1.50069,0,0,1-1.65143.55962c-1.42032-.28115-2.626.48952-3.901.81619-2.82166.72293-5.57538,1.70633-8.38,2.50194-2.94308.83489-5.94271,1.47945-8.86234,2.38539-2.40685.74687-4.73327,1.75313-7.09423,2.64738a2.50893,2.50893,0,0,1-.66184.27518c-1.81078.08655-3.26587,1.24839-4.99271,1.612-1.85228.39-3.52772,1.41934-5.48871,1.50176-.57388.02411-1.11507.50475-1.698.69373-2.0417.66191-4.08866,1.30947-6.1474,1.91571-.7248.21343-1.51835.20648-2.23023.44823-2.26621.76966-4.4906,1.6645-6.7649,2.40776-3.04445.995-6.10689,1.94129-9.1884,2.81384-1.65545.46876-3.3743.70859-5.05132,1.10734-2.2642.53835-4.491,1.29374-6.78155,1.63989-1.4537.21968-2.715.8935-4.11106,1.175-.83969.16932-1.69955.23631-2.54369.38664-.7017.125-1.3978.28831-2.089.46387-.87751.22289-1.75627.44765-2.619.72053-2.03349.6432-4.23741.43251-6.23632,1.33032a6.12256,6.12256,0,0,1-2.40381.30558c-1.7767.0106-3.32888.8716-5.01136,1.23436-1.25216.27-2.47.69941-3.70267,1.05945a1.3891,1.3891,0,0,0-.40534.14125c-1.28008.89078-2.79084.89074-4.24338,1.14934-1.21548.21637-2.39671.62537-3.61232.84072-2.54141.45023-5.0958.827-7.64424,1.23781-1.55615.25087-3.11064.51215-4.66761.75773a1.0945,1.0945,0,0,1-.37185-.07288c-.0143-.089-.0424-.1451-.02661-.18271a3.50916,3.50916,0,0,1,3.15982-2.18517c1.934-.2577,3.82749-.75757,5.802-.88336a21.89675,21.89675,0,0,0,4.19729-.90254,11.73473,11.73473,0,0,1,3.33118-.7784c.1627.00392.32959-.16584.59983-.31223-.27165-2.595.48278-5.204-.15579-7.84089a13.93682,13.93682,0,0,1-.062-3.0062c-.0424-2.92033-.12229-5.84056-.12586-8.7609-.00415-3.39674.06318-6.7935.08694-10.19033a26.7985,26.7985,0,0,1,.03609-4.44468c.31921-1.79175.08646-3.60917.604-5.40854a14.04934,14.04934,0,0,0,.0389-4.13965c-.076-2.6339-.18375-5.26688-.2777-7.90027a.94773.94773,0,0,0-.00432-.28679c-.73168-1.89241-.43135-3.87382-.47231-5.819a16.66375,16.66375,0,0,0-.44684-3.67072c-.23958-.97033.436-1.99889-.189-2.944.23029-1.71193-.57444-3.28458-.66978-4.94826a45.84369,45.84369,0,0,1-.16823-5.6091,53.12135,53.12135,0,0,0-.28877-5.72535c-.03889-.95721-.07161-1.91482-.127-2.87109-.02743-.47371-.10734-.94412-.15006-1.41724a13.54835,13.54835,0,0,1-.13263-1.83651,21.24409,21.24409,0,0,0-.48752-5.41421,18.89359,18.89359,0,0,1-.0189-3.84273,4.92612,4.92612,0,0,0-.07084-1.1128,2.04271,2.04271,0,0,1,.93565-2.4676c.44788-.2692.89973-.53183,1.35043-.79634.20656-.12125.51638-.18869.60635-.36757.85684-1.70355,2.77962-2.318,3.84694-3.85713.68291-.9848,1.88829-1.59278,2.79019-2.44313,2.08381-1.96465,4.0371-4.07717,6.2085-5.93683,2.2718-1.94567,3.81539-4.4932,5.87421-6.60493,1.0906-1.11867,2.059-2.35788,3.058-3.563a1.65954,1.65954,0,0,0,.32155-.78433,2.86642,2.86642,0,0,1,2.83873-2.53529c.27825-.036.55836-.05774.88987-.09137a2.81392,2.81392,0,0,1,.32586.81438c.07558,1.77709,1.37266,2.58813,2.643,3.43472a14.87758,14.87758,0,0,1,1.624,1.1543,28.7605,28.7605,0,0,0,5.12859,3.32909,3.49559,3.49559,0,0,1,1.03393.745,6.27974,6.27974,0,0,0,2.71179,1.78929,6.30429,6.30429,0,0,1,3.21983,2.23837.90017.90017,0,0,0,.29651.31124c2.15832,1.12446,3.36469,3.335,5.3521,4.67489a16.745,16.745,0,0,1,1.94774,2.08612c.785.764,1.63336,1.46374,2.465,2.17884.44355.38138.90987.73629,1.53836,1.24187a20.67357,20.67357,0,0,0,.10788-2.119,3.5469,3.5469,0,0,1,1.08106-2.5c.74617-.91975,1.40349-1.91124,2.13981-2.8395.50226-.63316,1.09335-1.19511,1.61065-1.81724.95059-1.14319,1.81538-2.364,2.82881-3.4469a45.33469,45.33469,0,0,1,3.34287-3.13572,39.59643,39.59643,0,0,0,4.66678-4.987c1.50539-1.855,3.23018-3.53231,4.86871-5.27824a2.16823,2.16823,0,0,1,.491-.28713,14.4006,14.4006,0,0,0,3.00926-2.17325c.82284-.83408,1.90624-1.40423,2.80344-2.17391.79488-.68188,1.48982-1.48,2.23221-2.22348.50542-.50619.99408-1.03228,1.53053-1.5036.81076-.71237,1.80543-.4578,1.856.58065.08889,1.82626,1.414,2.91447,2.34322,4.16961a53.09084,53.09084,0,0,0,4.29171,4.62517,1.47562,1.47562,0,0,1,.36411.43724c.61451,1.73813,2.2282,2.70063,3.20458,4.15626.71488,1.06579,1.73049,1.90436,2.2097,3.163a6.44927,6.44927,0,0,0,1.15848,1.45077c.53491.67161,1.07846,1.33806,1.57832,2.03538a6.54606,6.54606,0,0,0,1.96547,2.15863,6.25347,6.25347,0,0,1,1.7978,2.17441c1.00837,1.61591,2.79833,2.30008,4.08646,3.57514a12.26109,12.26109,0,0,0,1.25039.895,1.02627,1.02627,0,0,0,1.63938-.33082,5.77165,5.77165,0,0,1,.90829-1.23566c.99956-.96255,2.07728-1.84488,3.0617-2.8218.49963-.49585.829-1.15895,1.29946-1.68958.63019-.71074,1.36064-1.33368,1.97838-2.05406.73649-.8588,1.41429-1.76967,2.09046-2.6781,1.07882-1.44939,2.06579-2.97354,3.22242-4.35668.9926-1.18691,2.34656-2.09586,3.22424-3.34935,1.58634-2.26559,3.59975-4.16495,5.19888-6.4096.54-.75806,1.21639-1.41918,1.83174-2.12348.189-.21634.39415-.41969.57141-.6451a21.47619,21.47619,0,0,1,2.63858-3.14865,22.26892,22.26892,0,0,0,2.96851-3.646,2.61429,2.61429,0,0,0,.32965-1.22491,1.54009,1.54009,0,0,1,1.20948-1.43537C270.12631,147.06177,270.89633,146.88,271.78556,146.65433ZM129.1732,291.33a14.397,14.397,0,0,0,1.6202-.30079c2.14517-.66912,4.27264-1.396,6.42449-2.04211a12.3704,12.3704,0,0,1,1.9862-.26515c1.04347-.133,2.099-.2074,3.12739-.41528,2.05589-.41556,4.0951-.91286,6.14451-1.36139a49.26647,49.26647,0,0,0,6.96859-1.58176c1.96354-.74464,4.04509-.72692,5.97407-1.4625a23.697,23.697,0,0,1,3.03456-.86614c2.824-.66293,5.68436-1.1893,8.47744-1.96105,2.754-.76095,5.44317-1.75629,8.12119-2.63579-.0227-1.86658-.2558-3.62922.61282-5.30051a2.51153,2.51153,0,0,0,.31933-1.78767c-.38441-.96166-.00411-1.78577.07621-2.67.11258-1.2393.23467-2.48094.26567-3.72376.05736-2.29809.05905-4.59769.06922-6.89674q.00889-2.0028-.029-4.00577c-.05438-3.05135-.70244-6.09423-.10943-9.15654a4.98133,4.98133,0,0,0,.02543-1.29016c-.13087-1.80639-.34264-3.609-.41207-5.41731-.09193-2.3952-.078-4.79447-.11072-7.192-.01043-.76387-.02037-1.52783-.03808-2.29155-.05226-2.25276-.12376-4.50521-.1586-6.7582-.03626-2.346-.02158-4.69272-.06027-7.03861-.04407-2.67034-.09678-5.341-.19371-8.00986a53.55087,53.55087,0,0,0-.43946-7.15407,30.84282,30.84282,0,0,1-.44093-4.10641,4.25056,4.25056,0,0,0-1.66249-3.51282,4.12923,4.12923,0,0,1-.57242-.64009c-.63173-.71236-1.2277-1.46134-1.90637-2.12581-.77766-.76139-1.72291-1.36623-2.42975-2.18246a52.37475,52.37475,0,0,0-5.76282-5.3341c-.47373-.4053-.95313-.80685-1.45556-1.17515-.91755-.67255-1.82408-1.36788-2.79039-1.96426-1.29248-.79769-2.71659-1.4017-3.93708-2.29078-1.1536-.84035-2.26585-1.71732-3.48005-2.49-1.7595-1.11969-3.347-2.50668-5.05712-3.70964-.32411-.228-1.11006-.33665-1.28156-.14367-.51646.58115-1.45336.86888-1.6857,1.42616a10.68,10.68,0,0,1-2.10056,2.6905c-1.46277,1.74077-2.62234,3.71338-4.33382,5.27216-2.05981,1.876-3.62165,4.29875-6.20406,5.60334a1.7012,1.7012,0,0,0-.39744.39894c-.98342,1.05772-1.953,2.12868-2.95249,3.17091a12.12736,12.12736,0,0,0-2.25738,2.35808c-.19113.34682-.664.52972-.981.81741q-1.64154,1.48948-3.25742,3.007a.82938.82938,0,0,0-.24475.50611,24.30259,24.30259,0,0,0-.1025,3.28721,44.90916,44.90916,0,0,0,.67723,4.80212,34.21186,34.21186,0,0,0,.97741,3.55945,7.31605,7.31605,0,0,1,.46643,2.932,12.95229,12.95229,0,0,0,.41855,5.36708,1.57814,1.57814,0,0,1-.03134,1.0855,8.97242,8.97242,0,0,0-.63124,5.011c.27735,2.7395.66238,5.46812.93874,8.20768.22049,2.18582.3496,4.38091.51276,6.57237.03546.47623-.00022.96115.07138,1.4307.26355,1.72813.80573,3.43974.2211,5.20562a.64391.64391,0,0,0,.02778.42335c.61446,1.39333.20572,2.88381.1647,4.26659-.07676,2.58818.15526,5.271-.927,7.76689a1.54185,1.54185,0,0,0,.0088.98909,5.03543,5.03543,0,0,1-.06831,2.66874,3.11525,3.11525,0,0,0-.05053.83543c.10379,1.76586.22229,3.5308.33324,5.29624.15342,2.44112-.46237,4.86257-.10893,7.32273a23.78839,23.78839,0,0,1-.0202,3.67135c-.01337.95335-.07792,1.90974-.0231,2.85919a13.49033,13.49033,0,0,1,.2929,2.6643,4.49968,4.49968,0,0,0-.01811,2.12488c.192.6242.40775,1.28171-.21029,1.87208-.13519.12914-.01983.53272-.00106.80864.05527.81249.09526,1.62719.188,2.43566C128.87583,289.58358,129.02439,290.37406,129.1732,291.33Zm104.648-66.32419.34848-.0603c-.0252-.8944-.12273-1.79392-.05954-2.682.10835-1.52272.35685-3.03532.47128-4.55781.09341-1.2426.05907-2.4942.113-3.74046a48.99539,48.99539,0,0,0-.12038-8.32775,3.02618,3.02618,0,0,1-.03508-.42895c.0309-1.85519.05246-3.7107.10725-5.56519a16.04631,16.04631,0,0,1,.1975-1.71332c.0457-.3302.24412-.68867.1659-.97829a12.04848,12.04848,0,0,1-.04705-4.56784c.16795-1.49857.073-3.05385,1.03229-4.38319a.93576.93576,0,0,0-.079-.8981,19.47938,19.47938,0,0,0-2.93243-2.67334,9.96388,9.96388,0,0,1-3.95156-3.84236,2.516,2.516,0,0,0-.36383-.60109c-1.84-2.04728-3.76466-4.02422-5.51061-6.14823-1.26275-1.53618-2.29332-3.2635-3.42292-4.90866a6.00552,6.00552,0,0,0-.6981-1.0566,77.02666,77.02666,0,0,1-6.826-7.70977,8.71391,8.71391,0,0,0-1.13117-1.07673.84506.84506,0,0,0-1.175.05108c-1.07923.85023-2.1828,1.67014-3.24954,2.53556-1.56239,1.26748-3.15933,2.5012-4.63381,3.86575-1.53329,1.419-2.95856,2.95748-4.394,4.47875-1.36984,1.45185-2.65,2.99-4.049,4.412-.99731,1.01377-2.22908,1.80583-3.17451,2.85978-1.88228,2.09835-3.72212,4.247-5.41021,6.50162-.74561.99581-.97669,2.35858-1.9382,3.27109a.45574.45574,0,0,0-.07084.27422c-.07254,1.0453-.15382,2.0903-.205,3.13674a2.6255,2.6255,0,0,0,.57212,2.1378,1.72857,1.72857,0,0,1,.11346,1.598,4.3982,4.3982,0,0,0-.2845,3.33833,7.948,7.948,0,0,1,.14675,1.57282c.04061,1.66855.02762,3.33891.09389,5.00621.05118,1.28748.31058,2.57562.26588,3.85609-.098,2.81.096,5.60467.20167,8.40643a60.8514,60.8514,0,0,1-.0507,7.99,8.13439,8.13439,0,0,0,.01694,1.28142,23.16744,23.16744,0,0,1,.18846,5.14371,19.771,19.771,0,0,0,.001,4.12064c.11727,1.99412.51043,3.98852.449,5.97237-.07377,2.38222.22349,4.7881-.29455,7.15394a1.27971,1.27971,0,0,0-.00656.711,6.99483,6.99483,0,0,1,.196,3.68772,1.60479,1.60479,0,0,0,.00587.847,4.07985,4.07985,0,0,1,.1653,2.10871c-.03344,1.81651.00926,3.63444.02109,5.4518.013,2.00437.05568,4.00918.02828,6.013-.01931,1.41091-.50725,2.79644-.21665,4.23484a2.55667,2.55667,0,0,1-.1771.985c-.35184,1.504-.723,3.00373-1.05412,4.51226a5.28076,5.28076,0,0,0,.03958,1.13694c1.16476-.40482,2.17468-.78984,3.20543-1.1072,2.41021-.74208,4.83252-1.44484,7.24521-2.179a8.875,8.875,0,0,1,1.89835-.64308c2.58835-.14384,4.82928-1.46571,7.28689-2.04472a28.23685,28.23685,0,0,0,3.35734-1.215c1.47159-.55221,2.93237-1.13424,4.412-1.66385,1.73137-.61968,3.47442-1.20743,5.21918-1.78869,1.266-.42175,2.53429-.84161,3.81918-1.199.54269-.15095,1.15121-.06471,1.69429-.21477,2.02151-.55864,4.0245-1.18387,6.04158-1.75911,2.34275-.6681,4.6943-1.30516,7.03925-1.96563.83826-.23613,1.07955-.56066,1.07428-1.449-.00819-1.38867-.01369-2.77806-.06354-4.16561-.084-2.33956-.2098-4.6776-.30353-7.01687-.12629-3.15223-.26671-6.30428-.34991-9.45775-.091-3.44661-.11669-6.89488-.18742-10.34209a4.289,4.289,0,0,0-.44466-2.31925m3.90377,33.37436a2.79684,2.79684,0,0,0,.65115.07246,86.37959,86.37959,0,0,0,11.32432-3.02938c.63559-.19666,1.21832-.56244,1.85256-.76538,1.68342-.53865,3.384-1.02322,5.07333-1.54393,1.685-.51939,3.36228-1.06373,5.04714-1.58357,1.363-.42056,2.73584-.80937,4.0976-1.23388,1.13735-.35458,2.264-.74363,3.39712-1.1118,1.21876-.396,2.43427-.80344,3.66127-1.17233q1.57387-.47315,3.17174-.86522c.649-.16029,1.3222-.22164,1.972-.3792,1.15571-.28027,2.29444-.633,3.45387-.89527,1.81424-.41046,3.64279-.75735,5.45919-1.15871.79323-.17527,1.56635-.44043,2.358-.62436a.87863.87863,0,0,0,.73552-1.17845c-.285-1.20459-.03548-2.42313-.274-3.66588a30.36163,30.36163,0,0,1-.17151-5.58156c-.00457-1.66315.07534-3.32675.05851-4.98956a30.75355,30.75355,0,0,0-.20784-3.25794c-.22113-1.88922-.63257-3.76431-.73267-5.65757-.13615-2.57562-.04064-5.16293-.07155-7.7449-.02128-1.77472-.10271-3.54867-.13225-5.32336-.059-3.54636-.29151-7.09568.379-10.62206a33.98162,33.98162,0,0,0,.47328-3.997c.15184-2.19371.22219-4.393.34024-6.58919a13.63226,13.63226,0,0,0,.15273-1.70832,5.26952,5.26952,0,0,1,1.63085-4.7848c-1.35565-1.95252-2.656-3.8318-3.96308-5.70639-1.58-2.26606-3.086-4.58953-4.76977-6.776-1.95356-2.53684-3.44334-5.40457-5.62345-7.77325a5.03647,5.03647,0,0,1-.34514-.46159q-1.43138-1.96913-2.86512-3.93649c-.11186-.1526-.2794-.26327-.40075-.41021-.81888-.9915-1.64742-1.97565-2.44222-2.98625-.54847-.69742-1.04775-1.43351-1.64321-2.25463-.88229,1.012-1.62135,1.85227-2.352,2.69972q-1.67445,1.942-3.33654,3.89461a.34825.34825,0,0,0-.092.26065c.22691.76719-.38614.97131-.83208,1.31627a2.16239,2.16239,0,0,0-.75807.82468,6.22593,6.22593,0,0,1-1.77294,2.19076,5.14131,5.14131,0,0,0-1.02047,1.18573,11.73282,11.73282,0,0,1-2.21211,2.79228c-.52991.54531-1.05227,1.10284-1.52677,1.69591-.70881.886-1.3112,1.86378-2.0717,2.6999-.84406.928-2.1866,1.4625-2.21256,2.99306a.2012.2012,0,0,1-.07529.12051,22.99358,22.99358,0,0,0-2.19248,2.75759c-2.2412,2.65817-4.56608,5.24606-6.87746,7.84434a9.17639,9.17639,0,0,1-.9212.65158c-.876.75784-2.12123,1.18867-2.23047,2.62533-.09057,1.19123-.30024,2.37371-.381,3.56523a9.60744,9.60744,0,0,0,.01949,2.95913,13.37238,13.37238,0,0,1,.075,3.85018c-.03026,1.095-.066,2.19007-.08215,3.28534-.00631.42851.061.8585.04887,1.28649-.05947,2.09762-.14291,4.19457-.19734,6.2923-.01234.47429.09721.952.08171,1.4259-.05417,1.6552-.70349,3.30692-.00929,4.96827.04569.10936-.05905.2739-.06591.41415-.03935.80469-.0766,1.6096-.10159,2.41485-.01473.4748.01592.95158-.011,1.42533-.08382,1.47538-.17264,2.95073-.28617,4.424-.04691.60856-.23645,1.21278-.22962,1.81745.0134,1.185.18186,2.36938.17525,3.5534-.02358,4.21423-.09366,8.4282-.1465,12.64226-.00181.14388-.013.28785-.0102.43157.05152,2.62277.1366,5.24541.14617,7.86832.00657,1.80014.478,3.58939.10459,5.4008-.05349.25953.1467.56128.14926.84421.00908,1.00942.5051,2.05395-.34039,3.011C237.93558,259.562,238.0744,260.1164,238.04786,260.58239Z"/><path class="a" d="M113.23118,301.85442c2.37776.071,4.44711.0679,6.42489-.88328a16.56311,16.56311,0,0,1,2.89952-.8329c1.33561-.35907,2.65912-.78652,4.01464-1.04271,2.05556-.38851,4.13769-.63457,6.20054-.98777.5059-.08662.96775-.41138,1.47268-.52676,1.25316-.28633,2.53108-.46825,3.778-.77725,2.13569-.52927,4.25167-1.13754,6.3828-1.68594,1.612-.4148,3.23433-.78945,4.85269-1.17936q3.21577-.77476,6.43292-1.54375c1.16127-.27537,2.34679-.46746,3.48507-.81572,1.18875-.36371,2.31747-.92107,3.50193-1.302,1.90373-.6123,3.82637-1.16813,5.75133-1.71124a23.906,23.906,0,0,1,3.89328-.95447c1.84168-.19492,3.4031-1.167,5.16169-1.57457,1.7696-.41009,3.49473-1.01071,5.24186-1.51925,2.10238-.61193,4.21253-1.19777,6.30889-1.82945.9113-.27459,1.77787-.70877,2.69711-.94406a89.17251,89.17251,0,0,0,10.8527-3.26007,68.77385,68.77385,0,0,1,6.88821-1.97218c1.80008-.50289,3.58353-1.07912,5.40405-1.49188,2.80407-.63577,5.4716-1.67575,8.19516-2.55481a56.92427,56.92427,0,0,1,8.99052-2.40613,13.00176,13.00176,0,0,0,3.011-.8865,33.364,33.364,0,0,1,5.72594-1.3286,58.502,58.502,0,0,0,9.11153-2.517,23.309,23.309,0,0,1,3.0307-.82378c2.39458-.59732,4.79624-1.16659,7.18839-1.77334,3.43354-.87089,6.85076-1.809,10.2967-2.62676,1.29664-.30768,2.65537-.34977,3.98321-.53185a13.32421,13.32421,0,0,0,1.69505-.3161c1.52053-.41466,3.03154-.86415,4.54581-1.30162,1.96321-.56718,3.938-1.09791,5.88586-1.71374,2.49443-.78864,4.96188-1.6622,7.4505-2.46977a69.9723,69.9723,0,0,1,7.18129-1.97726c2.01626-.42485,4.14711-.53375,6.04393-1.53769a1.5067,1.5067,0,0,1,1.95322.98615,1.018,1.018,0,0,1-.1763.77957,3.6898,3.6898,0,0,1-2.42277,1.36764c-1.13276.186-2.28711.24914-3.41327.46411-1.33476.2548-2.64912.61607-3.97307.92793a3.60058,3.60058,0,0,1-.96978.19343c-.77894-.04279-1.49368-.09088-2.0459.66847-.18264.25112-.69208.26454-1.05209.38668-1.30149.44156-2.59031.92623-3.90776,1.31344-1.53448.451-3.10564.77769-4.63867,1.23313-1.04.309-2.03214.77618-3.06419,1.11647-.67533.22267-1.38229.35144-2.07818.50853-.22883.05166-.51078-.01145-.69459.09985-1.35662.82147-2.93285.69552-4.39208,1.06318-.87552.2206-1.72677.53823-2.603.75538a5.41726,5.41726,0,0,1-1.84111.27011c-1.75431-.20119-3.25044.64015-4.85407,1.04405-.54823.13807-1.10648.238-1.6514.38733-.86967.23825-1.722.54675-2.59936.74845-2.45821.56511-4.82095,1.56984-7.39144,1.62158-2.0558,1.02975-4.43958.88769-6.53275,1.96886a8.02427,8.02427,0,0,1-4.68633,1.16821,3.99519,3.99519,0,0,0-2.45493.52678c-1.14255.72769-2.376.627-3.583.838-.70027.12241-1.38386.33717-2.08094.48164-1.9974.41391-3.75915,1.63741-5.85768,1.69956-1.59745,1.04566-3.62685.12955-5.21828,1.12839-1.11613.70051-2.48875.77409-3.56668,1.58541a5.02883,5.02883,0,0,1-1.61574.58c-.82524.24106-1.65833.45627-2.4914.66943-1.56993.40169-3.14237.79359-4.71348,1.19063-.55137.13934-1.11282.24924-1.651.42865-2.34124.78054-4.82135,1.08849-7.07866,2.17918a22.48629,22.48629,0,0,1-2.6287.67621c-1.85074.62193-3.66384,1.35705-5.51945,1.96284-1.03526.338-2.13259.48067-3.1878.76412-1.09667.2946-2.18414.62925-3.26144.98888a13.06822,13.06822,0,0,1-4.59249,1.03327,2.30378,2.30378,0,0,0-1.30755.51484,8.35313,8.35313,0,0,1-3.10362,1.38571c-2.5322.62-5.023,1.41885-7.56806,1.97284a24.11034,24.11034,0,0,1-4.89726.99481c-1.15234.01523-2.28427.84407-3.44313,1.259q-2.8296,1.01324-5.68415,1.95644c-.853.284-1.7273.50415-2.592.75289-.22885.06584-.45455.14975-.68771.19235-2.56143.46812-5.12488.92509-7.68508,1.39978a3.49134,3.49134,0,0,0-.78817.29873c-.21426.09808-.41463.33365-.61852.33062-1.97055-.02917-3.57576,1.24888-5.51244,1.481a19.48053,19.48053,0,0,0-3.41283.75943,18.12056,18.12056,0,0,1-3.57391.74626c-.63589.06807-1.21969.58354-1.8583.67258-1.92812.2688-3.87377.40926-5.80763.64109a8.7897,8.7897,0,0,0-1.66855.42183c-2.12752.698-4.11564,1.8672-6.44144,1.89-2.06687,1.21593-4.30392.46653-6.46547.53033a1.19275,1.19275,0,0,1-1.20016-1.547.94384.94384,0,0,1,.99386-.8567C112.07139,301.851,112.79,301.85476,113.23118,301.85442Z"/><path class="a" d="M109.1487,157.10021a6.90635,6.90635,0,0,0,1.91814,4.11053,1.31039,1.31039,0,0,1-.23771,2.31332,1.662,1.662,0,0,1-1.63673-.19515c-.79877-.41628-1.57326-.87942-2.3748-1.29a5.16881,5.16881,0,0,0-.89077-.2827c-.50031.52586-.92734,1.01354-1.396,1.45726a3.10286,3.10286,0,0,0-.87431,1.9061,22.60616,22.60616,0,0,1-.718,3.19454,1.48787,1.48787,0,0,1-1.485.94176c-.71384.02549-.85079-.57794-.94931-1.07362-.23278-1.17119-.37471-2.36014-.57735-3.5378-.08554-.49708-.23151-.98373-.30028-1.2689-1.91066.02823-3.616.08256-5.3209.06983-1.49629-.01119-2.09961-.93891-1.16536-2.11656,1.01063-1.274,1.58278-2.98482,3.29471-3.675a5.04044,5.04044,0,0,0,1.204-1.01221c.21721-.18955.40436-.49025.65231-.55243.57405-.144,1.33337-.42442,1.72513-.18028a2.32656,2.32656,0,0,1,.67267,1.62739,1.31681,1.31681,0,0,1-1.119,1.31975,4.82529,4.82529,0,0,1-.85583.09341,2.52676,2.52676,0,0,0-2.227,1.72669c.38587.69464,1.08222.49293,1.66588.51259a2.97959,2.97959,0,0,0,1.405-.22459,1.85923,1.85923,0,0,1,2.69608.64685,2.14139,2.14139,0,0,0,1.77221-1.148,3.6272,3.6272,0,0,1,2.89055-1.61835l-.20785-3.02563-2.40627-.137-1.75248-2.56122-.33495.10946.13423,2.2047c-1.20053-1.43325-2.40584-2.56215-2.01283-4.47811a7.05321,7.05321,0,0,0-.12025-1.56868,1.42165,1.42165,0,0,1,2.55315-1.02961c.502.75091.97233,1.52292,1.46191,2.28223.336.5212.68624,1.03321,1.02145,1.55489a1.61855,1.61855,0,0,0,1.83227.79145c.76282-.13947,1.53245.0854,2.27611-.512.58987-.47389,1.25547-.03133,1.55961.72134.23567.58324.54759,1.13564.94052,1.93569C111.62331,156.28947,110.09691,156.23611,109.1487,157.10021Z"/><path class="a" d="M254.88909,124.4936c.04136.65195.09525,1.39971.13378,2.14825a3.71185,3.71185,0,0,1-.00513,1.26874c-.09739.30285-.48247.71983-.73451.71623a1.47781,1.47781,0,0,1-1.01159-.581,1.63532,1.63532,0,0,1-.19769-1.10092,34.00348,34.00348,0,0,0,.11283-7.14069c-.04055-.62005-.04479-1.20124.68474-1.3748a1.11535,1.11535,0,0,1,1.48869.72971,7.239,7.239,0,0,0,1.09947,1.80342c.23091.28846.731.63595,1.00923.5647a28.27939,28.27939,0,0,0,3.64779-1.20155c.8735-.35576,1.66606-.90548,2.51574-1.32626a11.16608,11.16608,0,0,1,1.72071-.69347c1.04709-.31554,1.544.14969,1.33951,1.23286-.09739.5159-.26378,1.01873-.42226,1.61542a2.57176,2.57176,0,0,1-.45315.14143c-2.01969.29772-2.78369,1.95209-1.586,3.63254a6.12325,6.12325,0,0,1,1.1415,3.02881,1.39749,1.39749,0,0,1-1.57484,1.69818c-1.42313-.03166-1.58829-.01475-1.45109,1.32357.12331,1.203-.75438,2.03767-.77558,3.161-.00948.502-.97513.71018-1.61733.33647a36.24319,36.24319,0,0,1-3.63473-2.31432,1.09351,1.09351,0,0,0-1.50128-.11061c-1.19543.75139-2.48127,1.35962-3.67191,2.11784a7.32365,7.32365,0,0,0-2.65679,2.70694,4.26067,4.26067,0,0,1-1.18936,1.17118.94594.94594,0,0,1-1.30468-.12957c-.39331-.33954-.36556-.67323-.19374-1.14592a12.35718,12.35718,0,0,1,4.26848-6.12934c.46153-.332.95629-.5127,1.433-.05656a1.34932,1.34932,0,0,0,1.94831.025c2.34516-1.87862,3.21493-1.418,5.56119.66251.16974.15051.32709.315.54823.5291.68653-.66623.6351-1.5154.852-2.24721a10.13083,10.13083,0,0,0,.14-1.21636c.22728-1.37556.23358-1.37453,1.6628-1.40887.2303-1.044-.05656-1.7907-1.54806-4.04191C258.84,123.39591,257.01654,123.90251,254.88909,124.4936Z"/><path class="a" d="M125.73021,167.38164a3.05462,3.05462,0,0,0-.81134,2.25582c-.017,1.18816-.227,1.49069-.86783,1.54906a1.82179,1.82179,0,0,1-1.95689-1.52126c-.09791-.51457-.23985-1.02413-.29338-1.543a2.73643,2.73643,0,0,0-1.26773-1.81852c-.551-.45062-1.14694-.85249-1.659-1.34278a1.43085,1.43085,0,0,1,.06891-2.22122,4.05271,4.05271,0,0,1,2.0457-1.25045,2.06963,2.06963,0,0,0,1.58765-1.6825,12.72194,12.72194,0,0,0,.46823-1.7987,3.63829,3.63829,0,0,1,1.603-2.44695,1.57146,1.57146,0,0,1,2.63342.43681,6.62628,6.62628,0,0,1,.79818,2.14383,1.42377,1.42377,0,0,0,1.3388,1.26945,4.50338,4.50338,0,0,0,4.14089-.88915,30.13,30.13,0,0,1,2.81777-2.08479c.98171.64418.97168.63907.527,1.51278a5.18842,5.18842,0,0,1-1.17755,1.54264,14.27746,14.27746,0,0,0-2.3206,2.67157c-.65684.995-1.08378,2.03623-.0648,3.25329a4.94306,4.94306,0,0,1,.56221,2.47993c.09462.858-.6947.827-1.20874.88572a3.92812,3.92812,0,0,1-1.21907-.29789,3.40393,3.40393,0,0,0-1.362-.2691,4.99435,4.99435,0,0,1-3.83584-.71152A1.80872,1.80872,0,0,0,125.73021,167.38164Zm.08381-9.52981-.429-.09253a5.05072,5.05072,0,0,0-.64281,1.28655,21.85379,21.85379,0,0,0-.18388,2.42321c-.07023,1.03836-.43777,1.45867-1.434,1.60349a7.91848,7.91848,0,0,0-.85669.039c-.39111.10355-.96289.19959-1.08376.46751a1.36,1.36,0,0,0,.29091,1.16016,20.13335,20.13335,0,0,0,1.84542,1.68532c.42256-.39946.80175-.74674,1.16846-1.10676a1.86085,1.86085,0,0,1,2.758-.19393,2.18019,2.18019,0,0,0,1.87459.50044c.54005-.13189,1.069-.30907,1.7-.49466a3.42614,3.42614,0,0,1-.27316-.82674c-.08629-1.87751-1.21345-2.74321-2.92013-3.05715-.571-.105-.72929-.54236-.89729-1.00621C126.44035,159.43816,126.1211,158.64719,125.814,157.85184Z"/><path class="a" d="M225.31436,110.7399c.79633-1.73148,1.54436-3.43321,2.36211-5.10083a12.7693,12.7693,0,0,1,1.289-2.03305,1.1003,1.1003,0,0,1,1.94113.28275c.35279,1.1372.55235,2.322.81469,3.48706a12.1829,12.1829,0,0,0,.30836,1.38493c.422,1.19567.64011,1.25984,1.9049.97119a4.23191,4.23191,0,0,1,3.21067.886.9224.9224,0,0,1,.13522.89966,2.58256,2.58256,0,0,1-1.1106.78917,3.5583,3.5583,0,0,1-1.13977.01245,1.90325,1.90325,0,0,0-1.85462,1.29668c-.72245,1.62965-1.50668,3.232-2.27324,4.84187a2.57232,2.57232,0,0,1-.32638.47323,1.77015,1.77015,0,0,1-2.93124.21946c-.33983-.31671-.65395-.66094-.96382-.9763-.71874.26433-.97559,1.09051-1.83329.87846-.92563-.22883-1.26686-.52579-1.167-1.462.07087-.66471.22153-1.32075.29944-1.985.09752-.83141-.09025-1.209-.91826-1.32689-2.2375-.31856-3.593-1.81836-4.90667-3.39338.58529-1.18314.94679-1.49769,1.80514-1.0838A9.95853,9.95853,0,0,0,225.31436,110.7399Zm.0269,1.45218a2.31916,2.31916,0,0,0,.20825.55313c.80687,1.09921,1.6116,2.20084,2.45289,3.27358a.77088.77088,0,0,0,1.40172-.08388,5.37875,5.37875,0,0,0,.66882-1.56932c.17378-.71769.21753-1.46683.34257-2.38963a3.3785,3.3785,0,0,1-.85034-3.12052,2.25511,2.25511,0,0,0-.10424-.99278c-.06886-.21849-.29336-.388-.51808-.66545a15.0028,15.0028,0,0,0-.72986,1.55219,8.57008,8.57008,0,0,0-.20759,1.269c-.26345,1.51833-.73891,1.90914-2.40584,1.996C225.5597,112.01648,225.52227,112.06528,225.34125,112.19208Z"/><path class="a" d="M213.30069,121.07981c-.29275.3858-.45759.83888-.73845.92849-.80814.25789-1.665.36021-2.49913.54043-.72352.15633-1.44207.33559-2.2797.53215.15835.55057.27029.90047.35817,1.25634a3.258,3.258,0,0,1,.20541,1.094,1.31721,1.31721,0,0,1-.4838.93456,1.10557,1.10557,0,0,1-1.00348-.21753c-.59518-.59375-1.08756-1.29061-1.73134-2.08314-.67259.00642-1.26209.60382-1.93048,1.03606a2.37187,2.37187,0,0,1-.85338.45211.89146.89146,0,0,1-.72738-.32527.82179.82179,0,0,1,.03719-.7733c.57622-.675.93922-1.57632,1.91945-1.8544a3.47759,3.47759,0,0,0,.87449-.49232c.96609-.626,1.09992-1.03489.444-1.97651-.38539-.55323-.41316-.959.11711-1.33735a.92143.92143,0,0,1,1.3876.23172,8.07366,8.07366,0,0,1,.58658.97369c.46816.83971.63627.91154,1.61323.65952A11.78606,11.78606,0,0,1,213.30069,121.07981Z"/><path class="a" d="M287.3,131.6832c-.093.807-.89506.44169-1.45807.57524-.1504.61221-.29107,1.20861-.44413,1.80187-.20819.807-.866,1.40941-1.43263,1.32409a1.78779,1.78779,0,0,1-1.07906-1.82148c.09168-.743.2183-1.48178.3081-2.07942-1.14382-1.184-2.51287.12445-3.53308-.70039-.05877-1.51534.32046-1.96947,1.72773-1.92457.74809.02387,1.49172.18784,2.40965.31186a4.84854,4.84854,0,0,0,1.14814-2.65892,5.19138,5.19138,0,0,1,.346-1.23381,1.08666,1.08666,0,0,1,1.59119-.4588,1.04535,1.04535,0,0,1,.45008,1.46535c-.75329,1.04084-.60969,2.28849-.87175,3.42609C286.34767,130.20707,286.92838,130.864,287.3,131.6832Z"/><path class="a" d="M267.621,96.3345c-1.53336,1.21388-3.73576,1.121-4.7869,3.07519.41724.88711,1.06243,1.87225.09349,2.88331-1.40907-.39636-1.53-.55365-1.68795-2.20487-.67638-.34875-1.10734.0344-1.60161.4725a3.323,3.323,0,0,1-1.33755.68164.939.939,0,0,1-.84034-.32634,1.27957,1.27957,0,0,1,.00364-1.05372,2.96236,2.96236,0,0,1,.95535-.81374c.22725-.15429.54178-.18453.75965-.34732.82817-.6188,1.72552-1.14343,1.63323-2.46039a5.18183,5.18183,0,0,1,.5874-1.80362l.32761-.01217.80934,2.07667a26.27669,26.27669,0,0,0,2.5083-.822C266.08061,95.22854,266.66738,96.242,267.621,96.3345Z"/><path class="b" d="M172.10453,273.04449a31.26638,31.26638,0,0,1-4.48748.98962c-1.44619.11133-2.74212,1.22323-4.27087.60093-2.63966.66464-5.43093.263-8.04265,1.14933-.4862.165-1.07441.36435-1.409-.26481a1.17162,1.17162,0,0,1,.3217-1.65432c.48816-.3628.32663-.745.148-1.257a4.58027,4.58027,0,0,1-.321-2.23306,12.97914,12.97914,0,0,0-.22979-5.28917,37.02881,37.02881,0,0,1-.55243-6.1208c-.06181-1.10126-.07174-2.20576-.08947-3.30908a3.28809,3.28809,0,0,1,.36767-1.90479,2.73243,2.73243,0,0,0-.31983-2.58435c-.72322-1.45272-1.40506-2.92929-2.02559-4.4284-.27221-.65764.02746-1.09736.71041-1.325a3.55144,3.55144,0,0,1,.70663-.13773,31.135,31.135,0,0,1,5.56583-.31375c3.24335.19662,6.50148.16592,9.7537.1922,1.459.0118,2.9216-.02881,4.37665-.13043a4.37545,4.37545,0,0,0,1.46844-.50969c1.339-.62973,2.11416-.21747,2.30068,1.2646a5.38247,5.38247,0,0,1,.04043.71772c-.01745,1.97664-.48968,2.63747-2.43516,3.32277a12.253,12.253,0,0,0,.09025,3.93724c.20545,1.853.394,3.70861.64737,5.55517a2.51963,2.51963,0,0,0,.54869,1.259c1.11068,1.26549,1.05321,1.74366-.4493,2.57907-.00911,1.60816-.00428,3.227-.03428,4.84522-.01218.65675.30165.929.90693,1.07531a2.41848,2.41848,0,0,1,1.25309.58309,1.17271,1.17271,0,0,1-.61716,1.94364,2.08285,2.08285,0,0,0-1.52293,2.29615,3.293,3.293,0,0,1-.0224.57523,1.208,1.208,0,0,1-1.23556.98936,1.2856,1.2856,0,0,1-1.15956-1.09658,4.94733,4.94733,0,0,1,.03618-.71794C172.12752,273.46314,172.1126,273.28252,172.10453,273.04449Zm-8.49863-12.11936c.27128.1761.31522.2291.3498.22357q3.60285-.57475,7.20363-1.16233a.80292.80292,0,0,0,.73076-.91242c-.02746-.51939-.07763-1.03823-.13678-1.55514-.06472-.56541-.1507-1.1284-.22811-1.69235-.10984-.80024-.16492-1.613-.3433-2.39764-.275-1.20984-.78541-1.51693-2.019-1.409-.56927.0498-1.14376.052-1.716.05371-1.3677.00423-2.73544-.00461-4.26175-.00858C163.33307,255.1787,163.47092,258.082,163.6059,260.92513Zm1.92055,10.87171c1.27523-.08849,2.601-.09716,3.89543-.30289a7.157,7.157,0,0,0,2.09181-.87044,1.17711,1.17711,0,0,0,.57321-.74545,14.95327,14.95327,0,0,0,.03041-1.98582,10.93771,10.93771,0,0,1-.00759-1.65181,6.9494,6.9494,0,0,0-.37639-3.86134c-2.2353.32957-4.44527.65388-6.65428.98466-.1395.02091-.26848.10471-.40747.13762a.79422.79422,0,0,0-.61209.99024c.14778,1.13182.31019,2.26435.53571,3.38269C164.83851,269.08073,165.16021,270.27133,165.52645,271.79684ZM160.82868,252.116a5.8333,5.8333,0,0,0-1.12015-.1324,11.83349,11.83349,0,0,1-3.26186.31435c-.526-.07742-.78974.38822-.76978.97849.05981,1.76792.04015,3.53913.1277,5.30527.05371,1.08368.2471,2.1604.38051,3.26306,1.85977.36526,3.45235-.10379,5.21412-.40089-.144-1.66914-.30414-3.17975-.39672-4.69451C160.91056,255.24489,160.88655,253.73628,160.82868,252.116Zm.84993,11.829-5.2.66726a2.1508,2.1508,0,0,0-.12033.3199,49.91424,49.91424,0,0,0,.51254,7.02624.93314.93314,0,0,0,1.03156.95737,27.51983,27.51983,0,0,0,3.941-.48189c1.04306-.22478,1.24-.76388.98733-1.80455-.22509-.9271-.4739-1.85175-.63252-2.79092C161.99415,266.63066,161.86979,265.40949,161.67861,263.945Zm-7.69682-16.34172a16.20132,16.20132,0,0,0,.8234,1.57936c.1722.25564.47407.57317.73666.59156a20.80442,20.80442,0,0,0,2.71143-.01256c1.80147-.10965,3.59879-.344,5.40057-.37685,2.00007-.03649,4.00535.17337,6.004.11821a12.36173,12.36173,0,0,0,2.87707-.659.63925.63925,0,0,0,.3145-.538.68146.68146,0,0,0-.44479-.45515,4.50021,4.50021,0,0,0-.96972.043c-1.04626.03786-2.095.12745-3.13862.08744-1.38633-.05311-2.76711-.27379-4.15312-.30815-2.90839-.0721-5.8025-.60555-8.72228-.278C154.98311,247.44419,154.54836,247.52049,153.98179,247.60327Z"/><path class="b" d="M173.05808,222.43841c-.96025-1.27879-2.13987-.44459-3.21736-.50918-.08468-.00509-.17454.10891-.26172.1085-2.28-.01095-4.42928,1.02209-6.73421.838a4.49341,4.49341,0,0,0-1.12875.15232c-1.02579.18783-2.05709.35525-3.07052.59661a3.27136,3.27136,0,0,0-1.2234.57444,1.47923,1.47923,0,0,1-2.50379-.79923c-.05153-.22625-.05255-.55049-.20026-.65486-1.33676-.94436-1.14532-2.461-1.38278-3.77319-.45049-2.48939-.759-5.00465-1.11637-7.51062-.262-1.8376-.53868-3.674-.74623-5.518a2.991,2.991,0,0,0-1.02071-1.83176,14.93088,14.93088,0,0,1-1.95973-2.054c-.90454-1.341-.16911-2.62554,1.46082-2.6239a19.97083,19.97083,0,0,0,6.21351-.89565,15.26311,15.26311,0,0,1,4.3075-.97174,1.22448,1.22448,0,0,1,.1429-.01537c2.59009.24494,5.15311-.19785,7.727-.26673,1.17395-.03142,2.366-.01041,3.54927-.00587a20.55277,20.55277,0,0,1,3.50247.57319,3.38323,3.38323,0,0,1-.31859,3.43131,14.87983,14.87983,0,0,0-.99532,2.20291c-.24069.71058-.4803,1.34968-1.27952,1.5881-.57336.17105-.65616.66471-.66384,1.15354-.012.7661-.00021,1.53425.042,2.29929.1541,2.79205-.05089,5.60357.48855,8.376a3.41344,3.41344,0,0,0,1.09844,2.26244,1.288,1.288,0,0,1,.304,1.129A15.64159,15.64159,0,0,1,173.05808,222.43841Zm-10.0547-2.00662a9.61718,9.61718,0,0,0-.41266-2.03087,20.46065,20.46065,0,0,1-.88318-3.56012c-.3375-1.27846-.48136-1.45574-1.75316-1.22814-1.40252.251-2.79128.58568-4.17643.92336-.55544.13541-.71664.54323-.60384,1.11517.38414,1.94773.73879,3.90129,1.14169,6.05Zm-2.0513-9.55176a6.79381,6.79381,0,0,0-.01169-.75241c-.19859-1.51476-.42618-3.02591-.60889-4.5425-.18317-1.52027-.58648-1.90957-2.14305-1.78973a5.26,5.26,0,0,0-1.45541.46816,14.91944,14.91944,0,0,1-1.82649.769c-.6801.16753-.98431.43326-.91355,1.17194.15007,1.5669.22171,3.14116.35093,4.71032.0769.934.49466,1.18473,1.43957,1.03053,1.45187-.2369,2.81658-.93421,4.34312-.798A2.40493,2.40493,0,0,0,160.95208,210.88Zm9.81293,8.49659a10.1728,10.1728,0,0,1-.94762-4.06184c.02908-.90125-.14307-1.80725-.17963-2.71294-.02857-.70773-.44224-.9733-1.03656-.85933-1.35793.26036-2.70811.57215-4.04518.92468a1.0074,1.0074,0,0,0-.73424,1.10127,11.56845,11.56845,0,0,0,1.38723,4.685,3.94037,3.94037,0,0,1,.49085,1.86695Zm-7.8343-15.32219c.04491,1.52206.03562,3.05035.15033,4.56926.11148,1.47608.69734,1.91978,2.03241,1.65431,1.21521-.24164,2.41938-.53873,3.62849-.811.52155-.11748.89585-.39413.87431-.97137-.04994-1.33861-.11-2.67755-.2073-4.01332-.0383-.52581-.3473-.80914-.92084-.92288C166.63891,203.19261,164.81682,202.95463,162.93071,204.05442Zm9.36778-3.952c-.55333-.03151-.92758-.063-1.30238-.07208-.80762-.01955-1.61564-.02211-2.42325-.04175-.89881-.02187-1.8-.11115-2.69531-.0688-1.08683.05142-2.1664.24411-3.25306.31369-1.55728.09973-3.11866.1339-4.67707.21866a4.498,4.498,0,0,0-.95545.20746q-2.12246.59863-4.23994,1.2149c-.26217.07618-.515.18445-.77217.27791,1.17118.37119,2.27629.94044,3.48506.15218a9.7626,9.7626,0,0,1,4.12477-1.02241c1.40259-.2032,2.8614-.00728,4.26886-.19094,1.48847-.19425,2.9398-.89971,4.43471-.051a.5345.5345,0,0,0,.28381.01794,3.05086,3.05086,0,0,1,3.16647,1.1384Z"/><path class="b" d="M147.45,269.72605c.11413,2.51249.2191,5.02549.35366,7.53691a4.60356,4.60356,0,0,0,.28649.96106c.34774,1.206-.91256,2.754-2.12405,2.40712a5.13856,5.13856,0,0,0-3.03348.338,4.46934,4.46934,0,0,1-1.37562.11135c-1.47845-.05759-2.9582-.24358-4.43224-.20085a4.09017,4.09017,0,0,1-2.86353-1.08708c-2.0369-1.68375-2.468-3.9428-2.4168-6.413.03155-1.52369-.0233-3.049-.0305-4.57367-.00971-2.0554-.00959-4.11086-.01688-6.16628-.00136-.38315-.04837-.76843-.02122-1.14893.07087-.99386.13608-1.99041.27036-2.97677a19.95581,19.95581,0,0,1,.50583-2.53768,6.08972,6.08972,0,0,1,.74228-1.84041c.667-.97454,1.47362-1.85261,2.20506-2.78422a5.37319,5.37319,0,0,1,3.09271-1.703,6.43337,6.43337,0,0,1,6.09856,1.14059c.32875.2916.44354.81136.71,1.18839,1.23383,1.74552,1.18174,3.79066,1.37645,5.77877.2043,2.086.4274,4.17058.59389,6.25965.151,1.89507.237,3.79534.35159,5.69332Zm-2.68149,8.29905c-.15571-.87229-.74827-1.66621-.24011-2.52161-.80491-1.70961.53656-3.58553-.40471-5.29352-.07525-.13654.04325-.372.04878-.56216a39.97271,39.97271,0,0,0,.08406-4.06341c-.18058-2.46134-.44234-4.92132-.79983-7.36291a2.69572,2.69572,0,0,0-1.75334-2.42466,3.00756,3.00756,0,0,0-3.30665,1.114,8.11334,8.11334,0,0,0-1.737,5.47358,45.62432,45.62432,0,0,1-.16541,4.70188,12.89864,12.89864,0,0,0-.01826,3.152,8.754,8.754,0,0,1-.06857,3.52391,1.29975,1.29975,0,0,0-.04354.41724c.1249,1.12244.27671,2.24212.38709,3.3659.08289.84387.3093,1.05991,1.17916,1.04071.85906-.019,1.71925-.00386,2.57746-.03943C141.88109,278.48969,143.29122,278.74775,144.76846,278.0251ZM137.35688,253.235l.16844.22287c1.64852-.1984,3.297-.39678,4.96225-.59717-.84158-1.41138-1.03033-1.50918-2.20528-1.1595a14.8969,14.8969,0,0,0-2.02327.63487C137.89714,252.50344,137.65368,252.92686,137.35688,253.235Z"/><path class="b" d="M143.36883,199.64991l-.42916,3.13332c1.1127.60444,1.05541,1.73319,1.00433,2.84271-.06823,1.48206-.27419,2.96631-.22113,4.44241a17.36174,17.36174,0,0,0,.64168,2.93626,2.37284,2.37284,0,0,1,.12289,1.10329c-.63978,2.0269-.04547,3.98256.26573,5.95513.08875.56248.20085,1.12338.343,1.67449.079.30617.282.58049.35981.88677a21.55417,21.55417,0,0,1,.65164,2.91171,1.5795,1.5795,0,0,1-1.08177,1.51878l-1.433-.67109c-.07026-.12125-.15282-.2002-.16-.28546-.13817-1.65233-.14811-1.7251-1.798-1.4583-1.096.1772-2.292-.02149-3.25811.86092-.39737.36294-1.12979-.05441-1.346-.62651a10.47248,10.47248,0,0,1-1.04229-4.79917,3.43115,3.43115,0,0,0-.25191-1.40755,23.03936,23.03936,0,0,1-.96048-5.91113,43.838,43.838,0,0,1-.159-4.42764,3.4292,3.4292,0,0,0-1.35888-3.01616c-1.23682-.90851-1.41611-2.20895-1.60679-3.52563a1.89852,1.89852,0,0,1,1.65575-2.03029c2.11184-.30487,4.22414-.691,6.34825-.79254A16.93565,16.93565,0,0,1,143.36883,199.64991Zm-3.0661,16.224c-.58.02764-1.00583.01623-1.422.074-1.0115.14046-1.21687.37358-1.04047,1.43343.28205,1.69474.64251,3.37643.975,5.09021.57631-.05117,1.08738-.086,1.59573-.14442a.84646.84646,0,0,0,.80653-.99389,6.93946,6.93946,0,0,0-.33791-1.37889c-.06695-.22425-.3392-.50667-.27256-.63282C141.23423,218.13429,140.44493,217.12109,140.30273,215.87388Zm-.70034-2.496a10.42076,10.42076,0,0,0-.10731-1.88491c-.35435-1.4573-.79994-2.89248-1.21221-4.33559-.08575-.30016-.18545-.59631-.38494-1.23367a6.68134,6.68134,0,0,0-.77971,1.23084c-.6058,1.9501-.0827,3.95523-.22661,5.93288-.04173.57344.36169.85494.96135.71542C138.35992,213.68488,138.86469,213.55758,139.6024,213.37788Zm-3.39951-9.808.0027.02433c.85136-.06011,1.70737-.08413,2.55245-.193a1.06064,1.06064,0,0,0-.01386-2.10486,4.35183,4.35183,0,0,0-1.26854.08716c-.64557.11683-1.27748.30843-1.92257.42877-.49875.093-.99458.205-.96181.82533a.931.931,0,0,0,1.0393.94345C135.82133,203.58033,136.0121,203.57377,136.20288,203.56987Z"/><path class="b" d="M139.26833,193.35973a5.57873,5.57873,0,0,1-1.08949-.69695.82385.82385,0,0,1,.04488-1.26018c1.9916-2.06094,3.93884-4.16476,5.93153-6.22461.52813-.54594,1.18143-.96844,1.74148-1.48629,1.04907-.97,2.06878-1.97178,3.1076-2.953.3456-.32646.7156-.62694,1.068-.94637.16962-.15373.44285-.30944.46473-.48914a1.22278,1.22278,0,0,1,1.06925-1.17648,2.1833,2.1833,0,0,1,1.88248.38145,48.89315,48.89315,0,0,1,4.44026,3.62633,14.39848,14.39848,0,0,0,6.42623,3.86814,9.6564,9.6564,0,0,1,4.73868,2.762c.15315.1792.38679.36712.40655.56835.0612.62315.433.85491.94738,1.11622.36493.18542.81738.70265.78883,1.03365a1.68775,1.68775,0,0,1-.80958,1.21155,6.52026,6.52026,0,0,1-4.40071.613,18.67621,18.67621,0,0,0-4.43879-.05994,3.10405,3.10405,0,0,1-.431.01967,20.23046,20.23046,0,0,0-6.63161.54637c-1.16919.22135-2.37094.26768-3.5438.47373-.79059.13889-1.54447.52681-2.33566.61412-1.89283.20893-3.79855.2994-5.69758.45568a3.51427,3.51427,0,0,0-.8126.22216,9.92428,9.92428,0,0,1-4.96033.36546c-.63155-.10962-1.09445-.43014-1.13036-1.10731-.03583-.67548.54959-.88383,1.03006-1.03959A19.75476,19.75476,0,0,1,139.26833,193.35973Zm.59007.0229c.32668.1116.50366.23687.66113.21583,1.65145-.22036,3.29806-.47725,4.94966-.69646.9458-.12554,1.91043-.13636,2.845-.31308,1.403-.26533,2.7793-.67137,4.18224-.93681.694-.13131,1.44678.02406,2.13046-.134a26.57913,26.57913,0,0,1,6.94754-.75977,11.94685,11.94685,0,0,0,5.30273-.62092,30.454,30.454,0,0,0-3.79518-1.909,17.88512,17.88512,0,0,1-5.19734-2.92112c-1.23919-.96-2.26232-2.20156-3.51305-3.14325-1.74029-1.31025-2.51844-1.54349-3.74116.024a31.35766,31.35766,0,0,1-3.94483,3.63353c-1.74832,1.5897-3.06191,3.53889-4.77638,5.13149a19.2148,19.2148,0,0,0-1.37235,1.45885A11.34732,11.34732,0,0,0,139.8584,193.38263Z"/><path class="b" d="M148.778,239.94784c-.28718,1.09811-.51793,1.98045-.79782,3.05074l-2.17916-.79274-1.08132,1.47636a4.268,4.268,0,0,1-2.07821-3.951c.00481-1.76129-.32323-3.52133-.43509-5.2864a4.05043,4.05043,0,0,1,.28852-1.63759.89748.89748,0,0,1,.79951-.371c.30137.081.71854.40908.75742.67837.24437,1.6925.34713,3.40573.60008,5.0966.148.98972.01132,2.07807.71807,3.04724a1.04248,1.04248,0,0,0,.3847-1.326,26.45113,26.45113,0,0,1-.76062-5.92368,1.76386,1.76386,0,0,1,.22308-1.09726,1.21805,1.21805,0,0,1,.9473-.42468c.30618.03132.81775.37255.82807.59679.06028,1.31008.91631,2.53377.42019,3.90558a.83953.83953,0,0,0,.14239.671c.2934.38621.58827.72357.44868,1.27647-.03047.12072.25382.32089.39315.48449.15013-.2051.43477-.41508.42752-.61447-.03471-.95517-.16024-1.90662-.23064-2.86107-.06677-.90489-.10776-1.81173-.15511-2.718a.98286.98286,0,0,1,.8745-1.12561c.52314-.0898,1.04964.56385,1.13849,1.209.20795,1.50979.46256,3.01311.691,4.52017a8.02719,8.02719,0,0,1,.11886,1.12361c.00485.54594.29415.63869.81928.54334a8.60932,8.60932,0,0,0-.098-2.94226c-.06646-.95557-.21127-1.90582-.27283-2.86155a2.65956,2.65956,0,0,1,.14966-1.12315c.27979-.702.87785-.77036,1.27585-.1356a4.98381,4.98381,0,0,1,.97932,3.08649,10.33647,10.33647,0,0,0,.16132,1.85079c.1538,1.45694.295,2.91556.47837,4.36884a.89031.89031,0,0,1-.50785,1.06372c-.52258.24051-.82356-.08245-1.05624-.46957-.21486-.35744-.38337-.7434-.56221-1.12157-.13217-.27948-.24815-.56664-.37135-.85035l-.30573.00342-.3485,1.95973c-1.6311.32627-1.77471.2107-2.15814-1.33669A4.16443,4.16443,0,0,0,148.778,239.94784Z"/><path class="b" d="M130.75364,236.22877a23.79014,23.79014,0,0,1,.20414-2.97326,3.483,3.483,0,0,1,.87588-1.55545,1.10182,1.10182,0,0,1,1.02646-.16828c.26932.127.43033.573.54223.91112a1.709,1.709,0,0,1-.08481.70459,9.41909,9.41909,0,0,0,.37806,5.1977c.06934.16626.16656.43638.09132.52987-.904,1.123.04228,2.09235.27477,3.09482.12367.53327.40487,1.08577-.07433,1.44873a2.75933,2.75933,0,0,1-1.43669.41342c-.46408.02946-.72375-.26793-.8087-.80522-.24477-1.54787-.60178-3.07779-.85585-4.62443A20.60241,20.60241,0,0,1,130.75364,236.22877Z"/><path class="b" d="M174.91763,240.08055c-.51428.18634-1.06424.38564-1.76036.63787-.31005-2.68511-1.193-5.05442-1.12589-7.60513a17.41906,17.41906,0,0,1,.18559-4.39964,5.07247,5.07247,0,0,1,.53741-1.45109.58258.58258,0,0,1,1.0723.25126,22.34925,22.34925,0,0,1,.21029,2.38062,24.57038,24.57038,0,0,0,.23158,4.80459c.40533,1.61908.224,3.29586.75974,4.8703C175.06681,239.68263,174.9735,239.84081,174.91763,240.08055Z"/><path class="b" d="M140.58389,244.28535c-1.52439-1.512-1.789-3.40627-2.00474-5.30351-.16223-1.42668-.24412-2.86233-.37047-4.29325-.1496-1.69429.31142-2.174,2.25825-2.16431a8.22624,8.22624,0,0,1,.31135,3.45727,5.41446,5.41446,0,0,0,.03072,2.37339c.2453,1.25557.44459,2.52226.746,3.76421C141.87772,243.44924,141.91945,243.43912,140.58389,244.28535Z"/><path class="b" d="M161.46281,236.92558a4.786,4.786,0,0,0,.118-2.53481,7.35531,7.35531,0,0,1,.0498-2.429c.12166-.90845.39033-1.02819,1.61887-.9291.04178,1.48218.69243,2.83966.76974,4.39822a27.16836,27.16836,0,0,0,.60873,4.21468c.13262.62295.25511,1.29132-.57386,1.54531a1.68685,1.68685,0,0,1-1.8091-1.26949c-.2631-1.0113-.53714-2.01976-.80647-3.02943Z"/><path class="b" d="M137.25377,241.6872c-2.02848-.51654-2.2908-.76449-2.47652-2.74591a25.60035,25.60035,0,0,1,.20905-6.27081c.08578-.56127.32-1.04848,1.00327-.98033a.99686.99686,0,0,1,.95342,1.06657c.0282.81164-.00713,1.6288.07387,2.43463.15249,1.517.33875,3.03234.57144,4.539C137.69882,240.446,137.93229,241.13732,137.25377,241.6872Z"/><path class="b" d="M167.075,240.47181a15.37362,15.37362,0,0,1-2.21509-7.53451,12.08864,12.08864,0,0,1,.1838-1.98683.84979.84979,0,0,1,1.08149-.68917,1.05425,1.05425,0,0,1,.66268.77287,11.987,11.987,0,0,0,.63345,3.64221c.26464,1.00144.49508,2.01727.84363,2.98986C168.75194,239.025,168.38925,240.0209,167.075,240.47181Z"/><path class="b" d="M169.735,240.00852c-.29874-2.04086-.5577-3.96994-.8711-5.89015-.18387-1.12659-.458-2.23828-.68243-3.35849a1.74314,1.74314,0,0,1-.033-.56631c.06615-.48486.17561-1.0891.7519-1.04917a1.45067,1.45067,0,0,1,1.07855.74761,22.0927,22.0927,0,0,1,.55331,2.809c.08656.46029.20167.91515.29336,1.37455a42.7178,42.7178,0,0,1,.82343,4.34682C171.76285,239.645,171.86483,240.465,169.735,240.00852Z"/><path class="b" d="M155.17573,233.56c.03791-.97225.3181-1.315,1.02771-1.31507.70753-.00008.94664.35772,1.04456,1.235.18855,1.68908.46185,3.36854.66853,5.05584.13887,1.13362.24166,2.27256.32408,3.41175a.62114.62114,0,0,1-.86474.64488,2.01867,2.01867,0,0,1-1.42575-1.299,4.95668,4.95668,0,0,1-.22852-1.26735,30.45946,30.45946,0,0,0-.5395-6.09631A1.83774,1.83774,0,0,1,155.17573,233.56Z"/><path class="b" d="M161.4385,236.89194c-.092.198-.31626.468-.25416.58225.36742.67595.0733,1.31592-.01657,1.97008-.121.88071-.63675,1.105-1.49346.8788a14.207,14.207,0,0,1-1.13216-4.81547c-.18771-1.37161-.19678-2.76819-.27018-4.15447-.01247-.23538-.03684-.55949.09544-.69458a1.86594,1.86594,0,0,1,.98971-.63438c.23765-.01954.68475.399.74279.68214.21091,1.02873.30792,2.08175.42734,3.12795.09141.80081.10082,1.61514.2548,2.4023.05093.26029.439.45459.67686.684C161.46281,236.92558,161.4385,236.89194,161.4385,236.89194Z"/><path class="b" d="M177.03951,228.39487a1.70091,1.70091,0,0,1,1.09659,2.17909c-.10647.54062-.23084,1.00237.22626,1.45a1.11452,1.11452,0,0,1,.21854.65491c.13227,1.42194.30627,2.84442.33834,4.26962a8.77286,8.77286,0,0,1-.34925,2.51066,1.2457,1.2457,0,0,1-.94142.64709c-.46137.03064-.48395-.447-.509-.85768-.09246-1.51616-.22681-3.02974-.34-4.54468-.09606-1.28545-.15012-2.57523-.28879-3.85593A4.0446,4.0446,0,0,1,177.03951,228.39487Z"/><path class="b" d="M140.9823,284.52126a2.9149,2.9149,0,0,1-2.7818.34871,4.32907,4.32907,0,0,0-1.25729-.08606.9244.9244,0,0,1-.99355-.8385.98779.98779,0,0,1,.77974-1.19336,3.82569,3.82569,0,0,1,1.26225-.029c.73908.08621,1.43182.49413,2.23641.17079.16369-.06578.64147.336.78158.61806C141.13731,283.76893,141.00309,284.156,140.9823,284.52126Z"/><path class="b" d="M186.57555,252.969c.33536-2.59619.57707-5.20923,1.04-7.78246a41.99212,41.99212,0,0,1,1.39542-4.79928c.28013-.91242.61131-1.80908.89945-2.71918a6.42648,6.42648,0,0,1,3.543-3.84379,1.6621,1.6621,0,0,0,.48138-.30077,2.10383,2.10383,0,0,1,2.4615-.56249c.74164.2413,1.62212.12412,2.25127.704,1.32991,1.22575,3.16584,1.66679,4.43875,3.01393a9.79753,9.79753,0,0,1,2.59452,6.37734c.138,2.28468.0326,4.58478.015,6.87794-.01368,1.784-.10784,3.56894-.07115,5.35146.03119,1.51407.20035,3.02522.30426,4.53792.05122.74535.1093,1.49077.1341,2.23718a1.24273,1.24273,0,0,1-1.29222,1.21675c-1.3071-.24292-2.59114-.60773-3.89055-.89589a4.55812,4.55812,0,0,0-1.08345-.081,27.05222,27.05222,0,0,1-3.56637.08555,13.53787,13.53787,0,0,0-4.12.37993,6.782,6.782,0,0,1-2.26185.08984,1.45583,1.45583,0,0,1-1.43238-1.37107.90265.90265,0,0,0-.09848-.41531c-.39062-.63926-1.00022-1.10262-1.131-1.94989A31.64447,31.64447,0,0,1,186.57555,252.969Zm14.59727,5.94329c-.02321-.92386-.07171-1.74713-.05907-2.5695.03075-2.004.11648-4.0074.13009-6.01137.01384-2.03965-.11773-4.08369-.02286-6.11821a5.46963,5.46963,0,0,0-1.22855-3.71735,21.10757,21.10757,0,0,1-1.47223-1.94139.92955.92955,0,0,0-1.44012-.41063,6.20536,6.20536,0,0,0-2.48364,2.50724c-1.11048,2.478-1.35791,5.15642-1.91982,7.76238a2.14447,2.14447,0,0,0-.029.43011c-.01171,1.32394-.03683,2.648-.02676,3.97181.013,1.72124.01572,3.44407.09628,5.16276.064,1.36633.59168,1.72126,1.934,1.56609a18.24287,18.24287,0,0,1,2.28187-.08c.37478.004.76708.22185,1.119.1596C199.07023,259.44369,200.072,259.1706,201.17282,258.91228Zm-11.079-9.9911-.34724-.08214c-.2087,1.15589-.73781,2.36553-.555,3.45575.31524,1.87933-.35149,3.83056.51257,5.64843a2.36874,2.36874,0,0,1,.01457.996c-.00584.19076-.12541.43815-.044.55958a3.209,3.209,0,0,0,.74557.77239c.0908.06745.48278-.06586.48481-.11724a3.41172,3.41172,0,0,0-.09322-.9134,12.42134,12.42134,0,0,1-.59958-2.47354,41.14028,41.14028,0,0,1-.01281-7.158A2.33583,2.33583,0,0,0,190.09385,248.92118Zm-.08709-1.07956.23957.03024.15635-1.11967-.33142-.04326Z"/><path class="b" d="M229.49987,189.757c.17181.21633.33353.45236.529.656a5.85543,5.85543,0,0,0,.57329.46527c-.03554.62411-.1078,1.24578-.09763,1.8661a2.76342,2.76342,0,0,1-.96723,2.31964c-.96756.69111-.58656,1.525-.59718,2.32869-.00992.75.07954,1.50144.12977,2.252.02836.4237.04015.85066.10369,1.26943a37.84971,37.84971,0,0,1,.69058,4.66969c.03379,1.37672.10227,2.74028.22291,4.11015a1.857,1.857,0,0,0,.519,1.41348c.48372.43353.88148,1.04184.40226,1.63578-.55985.6939-.903,1.65619-2.188,1.548a41.52467,41.52467,0,0,0-6.12611-.12925c-2.13415.13725-4.24276.63454-6.37484.85593a16.36814,16.36814,0,0,1-3.58122-.04073,1.58811,1.58811,0,0,1-1.4664-1.54848c-.04429-2.06185-.7019-4.02935-.71928-6.1176a62.35328,62.35328,0,0,0-.78961-7.25452c-.18033-1.42251-.424-2.83718-.65133-4.2534a1.75133,1.75133,0,0,0-.23324-.80462,3.11039,3.11039,0,0,1-.48634-2.3338c.09248-1.60318.84931-2.32052,2.4808-2.51985,1.15726-.14138,2.30089-.3923,3.4526-.58234a8.44487,8.44487,0,0,1,.99755-.09577q1.7018-.07581,3.4045-.13119a4.84164,4.84164,0,0,1,1.266.02365c1.11147.26959,2.19983.63407,3.3104.908a2.22555,2.22555,0,0,0,.9713-.07518,5.9721,5.9721,0,0,1,3.23673-.20935A5.533,5.533,0,0,0,229.49987,189.757Zm-3.30548,8.25916.18283-.02585c-.10637-.69368-.18132-1.394-.32556-2.07967-.30823-1.46526-.40088-1.51131-1.89878-1.46218-1.23361.04049-2.47051.01677-3.7007.09963-.31422.02117-.82012.29114-.87314.52834a9.40792,9.40792,0,0,0-.2339,2.407c.04194,1.03911.24209,2.07121.35817,3.10812.11207,1.00111.38485,1.35994,1.35215,1.55134a3.843,3.843,0,0,0,1.2796.03185,5.2188,5.2188,0,0,1,1.95965-.01553c1.45273.314,2.25318-.53843,2.09825-2.00591C226.31784,199.44186,226.26,198.7286,226.19439,198.01615Zm.82572,13.01128a2.51825,2.51825,0,0,0,.19351-.65752c-.07592-1.70321-.13763-3.40842-.28024-5.10659a.77957.77957,0,0,0-1.11045-.75022,5.569,5.569,0,0,1-1.42167.15655c-.90966.00959-1.82-.04623-2.72969-.0389-.6209.005-1.101.17468-1.17676.95408-.08652.88943-.30781,1.765-.43753,2.65141a2.191,2.191,0,0,0,.05544.83914c.19707.769.43129,1.52842.68268,2.40208Zm-14.27919-6.73c.179.731.3441,1.40286.50788,2.07506a5.01713,5.01713,0,0,1,.282,1.24609c-.02619.98241-.1425,1.96284-.23442,2.94293-.06.63944.06957,1.21539.78418,1.31806a20.51294,20.51294,0,0,0,3.28645.27068,1.08316,1.08316,0,0,0,1.08336-1.13055c-.02191-1.71931-.023-3.44129-.12848-5.15632-.08626-1.40332-.64683-1.81011-2.054-1.7133-.28473.01959-.63112.12411-.84616.00449C214.544,203.66625,213.76319,204.109,212.74092,204.29739Zm4.41792-2.71647c.08416-.18293.12331-.2273.12146-.26993-.07577-1.75821-.137-3.51739-.24405-5.27375-.03744-.614-.49147-.73876-1.03954-.69738-.80838.06106-1.62111.06777-2.42839.13847-.50768.04446-1.00884.16357-1.66227.27458.17609,1.9786.341,3.83217.5077,5.70489C213.942,202.10988,215.534,201.58482,217.15884,201.58092Zm2.176-9.65976c-3.44113-.38175-6.38711.05859-7.621,1.15528a37.83369,37.83369,0,0,1,3.91523-.25166A10.08738,10.08738,0,0,0,219.33481,191.92115Z"/><path class="b" d="M224.03135,256.28238c-2.32363.27216-4.6485-.33-6.9929.25118a21.17985,21.17985,0,0,1-4.57869.376,6.78282,6.78282,0,0,1-2.07162-.40356,1.22817,1.22817,0,0,1-.6829-1.8646,3.82314,3.82314,0,0,0,.50656-2.58161c.06487-2.38442.22213-4.767.25413-7.15145.025-1.86469-.05049-3.73293-.15228-5.59572a8.84962,8.84962,0,0,0-.4733-1.48378,18.55227,18.55227,0,0,1-.58476-2.79023,1.612,1.612,0,0,1,1.42874-1.83245,18.6809,18.6809,0,0,0,2.59446-.78239,13.222,13.222,0,0,1,5.05653-.82743c.95333-.02072,1.90322-.1783,2.85687-.21205a7.79673,7.79673,0,0,1,1.69841.13869c.84346.15812,1.66891.41021,2.50994.58392a3.41843,3.41843,0,0,1,2.77619,3.31375,18.708,18.708,0,0,1-.177,2.14789,2.04045,2.04045,0,0,1-1.05718,1.767,1.06556,1.06556,0,0,0-.48281.88924,10.41875,10.41875,0,0,1,.15934,3.10519,24.75741,24.75741,0,0,0,.42017,3.4038,14.70118,14.70118,0,0,1,.01275,5.00494,3.89756,3.89756,0,0,0,.02985.69071,22.52117,22.52117,0,0,1,.0308,2.54729,1.41054,1.41054,0,0,1-1.50882,1.38605C225.08152,256.38337,224.55563,256.31224,224.03135,256.28238Zm-6.25411-2.34029c-.1769-2.70268-.34249-5.23264-.5037-7.69584-1.10534-.115-2.08885-.24193-3.07637-.31295-.92893-.06683-1.367.28812-1.33447,1.23591.07585,2.21135.23813,4.41973.35865,6.51176C214.8,254.7278,216.24561,253.76934,217.77724,253.94209Zm1.902-7.04637.53817,5.92616a5.84861,5.84861,0,0,0,3.842.51546c.58463-2.1845,1.07476-4.26777.13177-6.52191C222.79617,246.84025,221.3485,246.866,219.67921,246.89571Zm4.13386-2.93379c.61-1.29255.01079-2.56524-.01258-3.83867a7.25956,7.25956,0,0,0-.21739-1.85448,1.19114,1.19114,0,0,0-1.33856-.84623c-.75307.06731-1.5.20312-2.28209.31383a8.6612,8.6612,0,0,0-.11018,1.08089c.03457,1.19507.15061,2.39048.12562,3.58345-.01218.58174-.25334,1.19769.44938,1.48136a5.53546,5.53546,0,0,0,1.77425.437A6.49589,6.49589,0,0,0,223.81307,243.96192Zm-6.43287-.24152c-.151-1.96645-.28745-3.74231-.42251-5.5006-1.11334-.719-2.16783.01422-3.23541.03956-.77041.01828-1.09127.48775-1.18188,1.1882a6.23838,6.23838,0,0,0,.4251,3.76495C214.34022,243.37065,215.70461,243.52763,217.38019,243.7204Zm5.00493-9.161a14.31472,14.31472,0,0,0-7.942.74688c1.5707-.003,2.92809.281,4.077-.08656C219.72812,234.8332,221.07409,235.87267,222.38512,234.55941Z"/><path class="b" d="M203.521,216.31669l-1.72252-.32125-.60455-1.41009-3.999,1.33911a1.70616,1.70616,0,0,0-2.21577-.43188c-1.041.49384-1.85092-.1381-2.15615-1.34134-.19874-.78342-.30606-1.59083-.52222-2.36866a5.64047,5.64047,0,0,1-.38549-1.14061,24.63536,24.63536,0,0,0-.03136-2.50665c-.26456-2.40558-.60372-4.80286-.88988-7.20621-.1686-1.41607-.26764-2.8406-.44746-4.255a1.65764,1.65764,0,0,0-.93442-1.469,4.42945,4.42945,0,0,1-2.46192-3.10113c.44242-.592.89445-1.25569,1.40867-1.86708a1.74442,1.74442,0,0,1,1.76442-.66848c1.22376.19911,2.47826.20485,3.71822.31026.902.07666,1.80025.1991,2.70271.26767.52343.03977,1.05283-.00507,1.57786.02151.65453.03313,1.30653.12539,1.96108.14577a9.08348,9.08348,0,0,0,1.70384-.05824,2.364,2.364,0,0,1,2.78869,3.3,2.69171,2.69171,0,0,0-.25718.65943c-.0381,1.11107-.4479,1.85049-1.79259,1.72314-.10695,1.878-.34735,3.643-.27274,5.3945.099,2.32511.40275,4.645.69724,6.95707a30.14107,30.14107,0,0,0,.86307,4.77537C204.37329,214.27591,203.8235,215.16718,203.521,216.31669Zm-6.09934-12.753c2.12094.272,2.63115-.22036,2.4772-2.14507-.11042-1.38043-.10258-2.77152-.11358-4.15812-.00433-.54707.02733-1.22932-.53071-1.36176a2.782,2.782,0,0,0-2.04109.12068,1.972,1.972,0,0,0-.8609,1.97469C196.7483,199.81024,197.05865,201.645,197.42162,203.5637Zm3.32737,8.516a13.933,13.933,0,0,0-.39732-5.9844c-.63645.046-1.11774.05226-1.58987.12128-.82549.12061-.90427.33822-.721,1.15762a20.40776,20.40776,0,0,1,.343,2.39764c.084.8294.115,1.66418.17925,2.65121Zm-7.8304-15.9491c.23748,2.22837.44845,4.21063.66084,6.19272a2.431,2.431,0,0,0,.05.28223c.093.40618.27658.74171.76023.6835.61716-.07426.54919-.55562.52279-.98772a1.755,1.755,0,0,0-.09253-.41709,10.90024,10.90024,0,0,1-.07346-5.8949C194.136,196.03651,193.59917,196.078,192.91859,196.13059Zm1.55189,9.95449c-.14554.34034-.22064.42929-.21262.51.17227,1.73194.32946,3.466.54547,5.19268.08845.707.37962.80876,1.41782.61926a21.51675,21.51675,0,0,0-.21084-3.3331C195.78822,208.02466,195.89567,206.68195,194.47048,206.08507Zm-1.60332-13.17221a2.45205,2.45205,0,0,0-2.99979-.29316A3.02824,3.02824,0,0,0,192.86715,192.91286Zm3.93047.28467a3.00052,3.00052,0,0,0-3.386-.00256A8.64725,8.64725,0,0,0,196.79762,193.19754Z"/><path class="b" d="M207.5868,168.63336a9.5,9.5,0,0,1,1.2371-.43006c.55637-.11368,1.06966-.05106,1.20272.667a.97671.97671,0,0,0,.20983.52639c1.61089,1.45507,2.43814,3.52053,3.93766,5.05266,1.19757,1.22358,2.45969,2.384,3.69314,3.57246,1.54071.15716,1.84009,1.63916,2.70443,2.5209.67087.68438,1.40208,1.30919,2.08444,1.98281.91842.9066.76679,1.57511-.4531,1.99591a2.92084,2.92084,0,0,1-.97784.16276c-2.47777-.03918-4.95681-.18206-7.4323-.13295-2.96663.05887-5.92879.32377-8.89549.40683-1.849.05178-3.70281-.09652-5.55458-.10065-1.33093-.00293-2.66492.04551-3.99212.14413a1.6336,1.6336,0,0,1-1.81377-1.1026,1.9946,1.9946,0,0,1,.54186-2.24419c1.16056-.977,2.48618-1.75526,3.68175-2.69432.85267-.66973,1.60947-1.46244,2.40027-2.20957.27838-.263.51383-.57236.798-.82824q1.51449-1.36389,3.05078-2.70351c.50342-.44068,1.04616-.83873,1.52906-1.30008A5.499,5.499,0,0,0,207.5868,168.63336Zm-10.12052,13.497c.67453.76471,1.37921.43223,2.02127.43639,1.91619.01244,3.83414.048,5.74831-.0171,1.51316-.05148,3.01306-.54275,4.54158-.09.158.04677.36055-.08222.54488-.09537a28.73466,28.73466,0,0,1,3.36-.19788,21.81818,21.81818,0,0,0,4.35975-.48278c-.97864-.89845-1.7119-1.57428-2.44815-2.24686-.94686-.865-1.93351-1.69041-2.83306-2.6019a12.284,12.284,0,0,1-2.18929-2.59345,4.62481,4.62481,0,0,0-1.89827-1.82508c-.48624.54219-.83439,1.276-1.37309,1.46408a6.3877,6.3877,0,0,0-3.27531,2.58154c-.15885.23415-.35716.551-.59051.60672-1.18609.28318-1.68475,1.34268-2.48751,2.06072-.959.85782-1.99944,1.62425-2.99525,2.44167A4.6132,4.6132,0,0,0,197.46628,182.13031Z"/><path class="b" d="M214.72442,227.37956c-.16478-2.28783-.33089-4.46586-.47469-6.64537-.07028-1.0652.11977-1.31468.95833-1.39467.92868-.0886,1.25029.12619,1.31729,1.0641.12852,1.7991.79034,3.55536.39505,5.40447-.06907.32309.18109.72878.32373,1.08011a4.29533,4.29533,0,0,1,.19513,3.11783c-1.31817.42772-1.9002-.72451-2.82835-1.39285a1.85508,1.85508,0,0,1-1.90578,1.2044,7.93,7.93,0,0,1-1.96234-5.419c-.03562-1.38758-.16186-2.77264-.22388-4.15989-.017-.38033-.08324-.86749.11211-1.12256a2.56035,2.56035,0,0,1,1.21918-.8292c.17662-.05488.689.38661.758.67211.279,1.1552.47555,2.33332.6444,3.5113.18978,1.32377.30658,2.65786.47649,3.98471A.91116.91116,0,0,0,214.72442,227.37956Z"/><path class="b" d="M192.57527,265.18581a7.894,7.894,0,0,0,3.16116-.158c1.74765-.17609,3.45018-.81308,5.254-.50421a2.92854,2.92854,0,0,1,2.06006,1.13082c.26186.357.68451.66194.38721,1.099a2.2319,2.2319,0,0,1-1.06624.87337,2.37112,2.37112,0,0,1-1.667.04237c-.93456-.55918-1.76058-.0892-2.63406-.03147-1.429.09444-2.86026.15609-4.28971.24545a3.93579,3.93579,0,0,0-.82552.15361,1.61955,1.61955,0,0,1-1.78779-.57558c-.40283-.4774-.19039-1.01139.03877-1.49A1.43174,1.43174,0,0,1,192.57527,265.18581Z"/><path class="b" d="M227.45025,229.56861c-.13888.22744-.35818.80309-.50247.78486a3.94711,3.94711,0,0,1-1.66482-.553,1.72518,1.72518,0,0,1-.57377-1.12156q-.52465-3.973-.94219-7.95968a1.20815,1.20815,0,0,1,1.02861-1.346,1.05774,1.05774,0,0,1,1.419.99169c.07665.66084.02766,1.33653.10906,1.99644.12237.99219.3135,1.97579.469,2.96406C227.00726,226.68932,227.21587,228.05419,227.45025,229.56861Z"/><path class="b" d="M204.70663,222.21129c.16353.907.38609,2.21486.6382,3.517.2141,1.10588.48605,2.201.67995,3.31008a1.35729,1.35729,0,0,1-.15437.94611c-.25789.34919-.74106.86847-1.00133.80379a1.68539,1.68539,0,0,1-1.10616-.9714c-.589-2.62781-1.09963-5.27514-1.55656-7.92973-.20829-1.21029.30776-1.72909,1.46164-1.71646C204.65418,220.18146,204.83193,220.45194,204.70663,222.21129Z"/><path class="b" d="M188.68918,228.66463a3.26358,3.26358,0,0,0-.04124,1.119.85384.85384,0,0,1-.57852,1.2349,1.02938,1.02938,0,0,1-1.38588-.68469,11.16947,11.16947,0,0,1-.6225-2.34739c-.28271-2.11634-.48706-4.24322-.71745-6.36644a4.08685,4.08685,0,0,1-.00322-.57272c.03024-.921.28068-1.25765.97156-1.31361.713-.05772,1.20432.37878,1.32282,1.20764.087.609.12094,1.226.21687,1.83335.26632,1.68624.55314,3.3692.83062,5.05368.04565.2771.08515.55522.12751.83287Z"/><path class="b" d="M222.43722,230.296c-1.503.01109-1.84655-.19836-2.17638-1.28928a6.29091,6.29091,0,0,1-.23219-1.119,28.4601,28.4601,0,0,0-1.4817-6.08684,1.55507,1.55507,0,0,1,.01722-1.22089,2.14289,2.14289,0,0,1,1.341-.87111c.313-.01662.84333.61573.96134,1.04427.29753,1.08052.92444,2.06675.7086,3.3227-.10521.61237.43348,1.32879.6577,2.00574A11.00442,11.00442,0,0,1,222.43722,230.296Z"/><path class="b" d="M230.12537,230.95183a2.6295,2.6295,0,0,1-1.9091-2.15249,8.421,8.421,0,0,1-.233-4.62918,13.8481,13.8481,0,0,0,.11451-1.71228,5.79764,5.79764,0,0,1,.326-1.53182.90169.90169,0,0,1,1.6775-.07758,2.02026,2.02026,0,0,1,.27126.938c.05124,1.462.04091,2.92624.09491,4.38812.028.75814.15351,1.51222.21744,2.26961C230.75924,229.32553,230.96112,230.24329,230.12537,230.95183Z"/><path class="b" d="M209.50457,230.15254c-2.0259-.27135-2.249-1.583-2.33626-3.12186-.07543-1.32964-.4428-2.64024-.6142-3.9679a11.893,11.893,0,0,1-.06559-2.2837,1.24627,1.24627,0,0,1,1.33074-1.05519,1.03025,1.03025,0,0,1,1.1229,1.05222c.08141,1.23793.0637,2.48971.24727,3.71168.20187,1.34381.06689,2.74386.66309,4.0304A1.3362,1.3362,0,0,1,209.50457,230.15254Z"/><path class="b" d="M197.02753,229.4857c.00884.25673.06429.42461.0091.53925-.15451.321-.31528.83517-.54609.87747-.34983.06415-.99212-.101-1.10605-.35205-.50088-1.10373-1.38427-2.04742-1.34435-3.39853.02941-.9946-.17593-1.99406-.232-2.99385-.05267-.93884-.0827-1.88208-.053-2.8212a.99827.99827,0,0,1,.91875-1.09024c.57888-.0515.95857.34291,1.04858,1.10215.13288,1.121.20146,2.25009.35211,3.36839a24.87348,24.87348,0,0,0,.5528,3.07074C196.78719,228.38907,197.472,228.85928,197.02753,229.4857Z"/><path class="b" d="M199.28934,221.07087a1.50242,1.50242,0,0,1,1.4417,1.19974c.1835.86664.15283,1.78345.37822,2.63528.3673,1.38818.30666,2.87859,1.10109,4.17392.40663.663-.48934,1.61866-1.383,1.48856a1.33671,1.33671,0,0,1-1.26228-.97361,14.59249,14.59249,0,0,1-.91539-4.45179c.0074-.74284-.32974-1.484-.37648-2.23437a2.75443,2.75443,0,0,1,.34831-1.344C198.74851,221.31609,199.11679,221.1908,199.28934,221.07087Z"/><path class="b" d="M191.75806,220.49439c-.00083.53366-.00265,1.04909-.002,1.56454.00034.28369-.106.6409.02552.83905.80483,1.21276.24359,2.61119.58217,3.88116.11844.44428.13711.91412.22783,1.367.20216,1.00915-.10347,1.61564-.92178,1.788-.77519.16328-1.36342-.33078-1.49358-1.30572-.21989-1.64712-.45939-3.294-.597-4.94868a13.87852,13.87852,0,0,1,.18906-2.12976C189.85734,220.36063,190.32434,219.87,191.75806,220.49439Z"/><path class="b" d="M288.45992,186.28888a3.17976,3.17976,0,0,1-.06388,3.0243,21.10291,21.10291,0,0,0-.84121,2.57548,10.547,10.547,0,0,1-1.05441,2.18152,2.72034,2.72034,0,0,0-.46078,1.90513c.11771,1.12388.2976,2.24111.42543,3.3641a22.18292,22.18292,0,0,1,.2119,2.55259,18.09888,18.09888,0,0,0,.23659,3.40652,2.91627,2.91627,0,0,1-1.39355,3.19256.98774.98774,0,0,0-.41329.6686c-.06514.77255-.634.91178-1.19858,1.00645-1.68413.28245-3.36981.57034-5.06545.7632-.88744.10093-1.81134-.09669-2.69337.0248a14.72532,14.72532,0,0,1-4.23531-.24512,31.10044,31.10044,0,0,1-3.6437-.63335c-1.0073-.27346-1.4079-.59642-1.55234-1.57686-.19467-1.32163-.418-2.639-.613-3.9606-.20807-1.41045-.45049-2.81874-.58268-4.23681-.199-2.13454-.23846-4.286-.4947-6.41235a4.7045,4.7045,0,0,0-1.65157-3.53248,2.42415,2.42415,0,0,1-.58116-3.48509c1.892.35372,3.50817-.85922,5.34171-1.10824a8.26281,8.26281,0,0,1,1.80975-.15858c2.85614.21016,5.68608.86315,8.57868.54147,1.46355-.16276,2.9376-.22924,4.40356-.37322a3.58584,3.58584,0,0,0,1.75547-.40088,1.71175,1.71175,0,0,1,2.12072.09858A6.92347,6.92347,0,0,0,288.45992,186.28888Zm-3.88248,21.50155c-.05843-.95352-.1018-1.70922-.1522-2.46445-.0251-.37589-.06676-.75066-.09453-1.12639-.08361-1.13109-.14856-2.26387-.254-3.39289a.71578.71578,0,0,0-.74292-.72677c-1.42762-.00361-2.85962-.06325-4.28156.0284-1.1792.076-1.67018.76658-1.56721,1.9607.049.56843.18456,1.129.24336,1.697.16944,1.63674.31977,3.27547.47943,4.9325Zm-9.53517-7.46121c-2.12835.14148-4.131.22722-6.12172.42989-.80963.08245-1.01743.49654-.85347,1.33106.37567,1.912.78886,3.8167,1.19071,5.74311,2.10643.35632,4.16312.5432,6.25339.7465a4.9829,4.9829,0,0,0,.16319-.87915c-.05864-1.815-.10954-3.631-.22157-5.443A13.76076,13.76076,0,0,0,275.04226,200.32922Zm-7.55032-2.26654c.15673.09027.23834.179.31711.17651,2.18836-.06854,4.37715-.13054,6.56407-.23233.64717-.03013.73519-.50746.62283-1.04416a12.63462,12.63462,0,0,1-.49868-2.5179,6.46374,6.46374,0,0,0-.66583-2.44866.92227.92227,0,0,0-1.101-.65295c-.80927.07182-1.6197.13136-2.42855.20743a17.96164,17.96164,0,0,0-2.13041.24018c-.87852.19082-1.23268.621-.9912,1.42593a8.18931,8.18931,0,0,1,.24164,3.49944A6.94306,6.94306,0,0,0,267.49194,198.06268Zm9.35026-6.4874c-.139.80307-.49464,1.50333-.281,1.88432a6.14044,6.14044,0,0,1,.58481,3.17852c.00451.92943.31578,1.19151,1.252,1.19382,1.73836.00429,3.47689-.05948,5.16857-.094.08665-1.52166.17685-2.99028.25049-4.45972a10.76155,10.76155,0,0,0,.00479-1.576.73345.73345,0,0,0-.906-.69507C280.9358,191.19525,278.95519,191.37809,276.8422,191.57527Zm-11.70652-1.533c3.8792-1.16142,7.6764-1.04806,11.46234-.9942a11.52065,11.52065,0,0,0-2.72845-1.01919c-.9137-.1481-1.84841.09474-2.82292-.10913a8.76443,8.76443,0,0,0-2.99573.1694c-.98106.14812-1.94054.43937-2.97177.68251Zm14.52533-1.02881,6.25468-.42944c-.29223-.81682-1.21225-.53-1.77732-1.07363C282.91169,189.05975,280.948,187.85351,279.661,189.01347Z"/><path class="b" d="M266.93205,225.00384a7.13554,7.13554,0,0,1-1.2456-.44054c-.26451-.16607-.60013-.42022-.65361-.68614-.22894-1.13912-.34128-2.30118-.548-3.44551a5.632,5.632,0,0,0-.45107-1.20486,7.35153,7.35153,0,0,1-.125-3.95475c.07786-.667.52463-.872,1.14794-.72733a.865.865,0,0,1,.75251.90022,11.71391,11.71391,0,0,0,.2613,1.49751,18.52249,18.52249,0,0,1,.50009,2.95678,8.34013,8.34013,0,0,0,.37267,2.38715,23.242,23.242,0,0,1,.47414,2.40807l2.16256-.32255c-.36-1.84558-.75263-3.5494-1.00725-5.27362a21.43835,21.43835,0,0,1-.16188-3.436c.00467-.31682.36076-.62847.54179-.9202,1.45109.47452,1.465.59069,1.62519,1.89.23767,1.92725.60247,3.83854.88922,5.76019.11148.74728.15792,1.50425.2362,2.2787.13909.0479.27683.14673.398.12944,1.97251-.2816,1.90233-.26948,1.46477-2.24367-.48441-2.18582-.85231-4.39908-1.21375-6.60973-.14989-.91682.233-1.53324.82431-1.60595a1.40718,1.40718,0,0,1,1.45923,1.25581c.306,1.92859.55009,3.867.85246,5.79621.15371.9808.37939,1.95033.61009,3.11435a2.40244,2.40244,0,0,0,2.0189.32222,3.30949,3.30949,0,0,1,3.7933,1.86245c.30733.59191.71191,1.13315,1.06974,1.699a3.43343,3.43343,0,0,1,.36112,2.75628,8.34449,8.34449,0,0,0-.11846,2.27925c.10505,1.95192.33788,3.8989.38558,5.85114a12.593,12.593,0,0,1-.4215,2.91241c-.03008.13927-.69325.33334-.81486.22441a2.59,2.59,0,0,1-.7489-1.13079,10.72336,10.72336,0,0,1-.30483-1.97473c-.06895-.70165-.45463-1.097-1.12285-1.03758-.989.088-1.96785.29113-2.98734.451a3.39224,3.39224,0,0,0-.04212.96293,9.25959,9.25959,0,0,1,.62764,3.77918.75886.75886,0,0,0,1.15241.80012,8.626,8.626,0,0,1,2.66286-.47707,9.51684,9.51684,0,0,0,1.62918-.54087l1.07533,1.39605a4.019,4.019,0,0,1-3.72529,1.51364,1.451,1.451,0,0,0-.71531.01653c-1.69593.70617-3.45593.40305-5.20677.4218-1.9421.0208-3.88245.21773-5.82329.3418-.70355.045-1.41736.0159-1.67773-.76914a2.71814,2.71814,0,0,1-.01657-1.36156c.10641-.49747.57085-.38536.95681-.37013.10643.00423.21855-.13591.44652-.28974-.31042-.18031-.534-.31439-.76148-.44141a1.30211,1.30211,0,0,1-.73044-1.13592c-.19379-2.28654-.50835-4.56372-.668-6.85206-.206-2.95365-.27907-5.91645-.47148-8.87127A1.74134,1.74134,0,0,1,266.93205,225.00384Zm7.77856,14.14643c-1.37977-.07857-2.5518-.20442-3.72268-.19443-1.05247.009-1.86182.77558-1.60814,1.5304a7.52548,7.52548,0,0,1-.08786,3.839c2.138-.02636,4.18641-.05165,6.47325-.07985Zm-5.888-2.74583c.82168-.06763,1.6678-.18554,2.515-.19378.88792-.00864,1.77688.088,2.732.14235.46428-1.93746-.07134-3.73074-.33438-5.6123-1.30271.03391-2.4729-.41306-3.73892-.02352-1.13687.34981-1.32353.40043-1.29614,1.60037C268.73015,233.63429,268.77819,234.95062,268.82258,236.40444Zm12.16838-.58181c-.30253-1.60666-.60376-2.95632-.79658-4.32134a1.3718,1.3718,0,0,0-1.37491-1.22064,4.92333,4.92333,0,0,0-1.94657.23613,1.0895,1.0895,0,0,0-.57358.86137,38.16818,38.16818,0,0,0,.44885,3.99344,1.03871,1.03871,0,0,0,.76272.64774C278.59689,236.02744,279.68385,235.909,280.991,235.82262Zm-13.04944-7.92321c1.25985.61926,2.54816.33984,3.8091.3376,1.278-.00225,2.55681-.0162,3.83366.02516a6.85925,6.85925,0,0,0,3.86163-.57782c-1.96907-.32633-3.6359-.61091-5.30674-.86954a1.351,1.351,0,0,0-.69973.10581,4.0761,4.0761,0,0,1-2.7953.113,4.23656,4.23656,0,0,0-1.42-.11318C268.65567,226.96332,268.09617,227.11807,267.94151,227.89942Z"/><path class="b" d="M261.05127,243.98486c-.2591.82694-1.17552,1.29175-2.49663.948-.56623.5238-.337,1.06846-.177,1.62486.49015,1.70415-.03674,2.57776-1.76445,2.83666a11.58183,11.58183,0,0,1-4.39753.32644,3.59683,3.59683,0,0,0-1.84969.38424c.837.20013,1.68354.36924,2.50484.6207a.84509.84509,0,0,1,.52106.58683,1.02023,1.02023,0,0,1-.419.79872,5.44064,5.44064,0,0,1-1.39606.26408c-1.17374.17434-2.345.37826-3.52477.49136-.38006.03643-.96481-.049-1.13625-.29839-.293-.42623-.6435-.99186-.2123-1.58189.11069-.15146.21056-.31083.30159-.44607a14.10829,14.10829,0,0,1-1.18348-5.14131c-.11371-.99344-.18307-1.99415-.2193-2.99353-.02765-.76253.02686-1.52813.04756-2.29228a2.58809,2.58809,0,0,0,.02126-.85459c-.61485-1.76186-.2523-3.50641.03325-5.25579.02291-.14034.09173-.30382.04612-.42-.526-1.34011.118-2.42148.73672-3.52079.44545-.79137.815-1.62742,1.28855-2.40055a6.51792,6.51792,0,0,1,2.75013-2.22513c.42017-.21946.99447-.38951,1.17645-.74634.16369-.321-.15612-.86369-.18879-1.31394-.14867-2.04674-.30047-4.09411-.3891-6.14393a25.09316,25.09316,0,0,1,.12931-2.5178c1.36234-.23986,1.51355-.22277,1.68085.88977.25466,1.69316.42541,3.40553.50959,5.11575.0739,1.502.15247,2.9236,1.40779,4.02535.41153.36116.7046.75762,1.31447.67276.60783-.08457.91849.59075,1.33646.66762,1.87209.34419,2.19782,1.80784,2.54694,3.25234a28.25946,28.25946,0,0,1,.81082,5.45989c.05856,1.35108-.18763,2.63049-.18291,3.93939C260.68339,240.27423,260.88573,241.8105,261.05127,243.98486Zm-6.62461-3.55219c.86552-.34189.97366-1.00388.932-1.77932-.10882-2.02754.186-4.05951-.24711-6.09156a2.56618,2.56618,0,0,0-2.79883-2.23492c-.18268.02111-.43976.04631-.52425.16662a9.80516,9.80516,0,0,0-1.83828,2.855c-.43408,1.76981-1.20218,3.52688-.90939,5.43481a2.11188,2.11188,0,0,1-.08942.56619,28.41411,28.41411,0,0,0-.37186,2.82187c-.0411,1.05612.383,1.33137,1.44288,1.15393,1.59485-.267,3.1926-.5168,4.8143-.778C255.11025,241.54663,255.11025,241.54663,254.42667,240.43267Zm-2.085,6.40717.0064-.04835c.94862.054,1.89718.138,2.84584.13922a.7907.7907,0,0,0,.60721-.45142.76522.76522,0,0,0-.37909-.63531,3.59046,3.59046,0,0,0-1.49737-.3946c-1.55562.07556-3.10806.24168-4.656.42214-.209.02436-.38509.33123-.57642.5073.22327.19624.44277.55532.67046.5606C250.35447,246.96239,251.34853,246.88242,252.34171,246.83985Zm2.04265-18.97726c-1.12775-1.16718-1.33512-1.15141-1.84573-.02075Zm1.49158.61526-.11216.30822.85086.3606a.79615.79615,0,0,0-.35889-.6916C256.16847,228.40016,256.00493,228.46646,255.87594,228.47784Z"/><path class="b" d="M258.81047,187.52707a6.95419,6.95419,0,0,1-.76216,3.97432,2.46336,2.46336,0,0,0-.17529,1.773c.32658,1.91576.46654,3.86291.69676,5.79571a21.27037,21.27037,0,0,1,.37084,2.91777,21.73968,21.73968,0,0,0,.36508,2.79968,14.06314,14.06314,0,0,0,.47881,3.30935c.58243,1.69352-.53447,2.78411-2.296,2.72216a32.23,32.23,0,0,0-3.66131.31423,5.22775,5.22775,0,0,1-1.70275.0109,1.25935,1.25935,0,0,0-1.4836.48446c-1.131,1.317-2.06886,1.15882-2.75225-.46089a12.42671,12.42671,0,0,1-.82982-3.41484c-.25258-2.16357-.55916-4.3209-.80547-6.48512-.12826-1.12714-.18472-2.26286-.25786-3.39574-.07973-1.23526-.07283-2.48094-.23753-3.704a8.741,8.741,0,0,0-.701-1.98586c-.47918-1.19538-1.04232-2.36223-1.43176-3.58513a1.38614,1.38614,0,0,1,.46039-1.21505,3.79944,3.79944,0,0,1,2.50772-.92407,4.20277,4.20277,0,0,0,1.56239-.16254c2.60786-.78442,5.20593-.12618,7.79115.08405A10.72666,10.72666,0,0,1,258.81047,187.52707Zm-7.78852,5.59579c1.47332-.08093,1.53025-.07531,1.83212.97585.18344.63884.24225,1.3127.372,1.96788.23006,1.1619.44049,2.32928.72671,3.47754a1.57092,1.57092,0,0,0,.622.93452,1.73248,1.73248,0,0,0,1.1951.10428.9411.9411,0,0,0,.41105-.78624c-.18369-1.98383-.4151-3.96358-.65808-5.94137a2.07857,2.07857,0,0,0-2.01116-1.65477c-1.27325.06118-2.54508.15547-3.8187.204-1.335.05085-1.34771.08248-1.37137,1.34876-.0488,2.61267.64264,5.20432.06614,8.11727.73527-.34308,1.2319-.62239,1.76118-.80926.60767-.21457,1.24427-.3472,1.90272-.52471C251.48677,198.04785,250.28384,195.74453,251.022,193.12286Zm-.5468,17.32042a10.85154,10.85154,0,0,1,.83127-1.32677c.44859-.53916,1.08248-.46631,1.72782-.42127,1.09895.07669,1.45611-.47671,1.07144-1.49764-.25116-.66663-.47984-1.3426-.69346-2.02228-.23617-.75131-.44367-1.51167-.67027-2.2908l-3.56518.21985A20.35474,20.35474,0,0,0,250.47516,210.44328Zm-3.52458-21.71558c-.01714.301-.22662.90478-.01721,1.14824.219.25459.84041.20645,1.2867.21084.525.00517,1.10741-.2432,1.56613-.08854,1.59679.53825,3.234.10568,4.834.33406.463.06608.90692-.00946,1.06238-.508.18577-.59561-.29367-.86133-.70492-1.10323a1.909,1.909,0,0,0-.68725-.1972q-1.621-.2335-3.24632-.43684a2.43375,2.43375,0,0,0-.71427.00373C249.30914,188.27092,248.29224,188.47243,246.95057,188.7277Zm9.91081,19.769a13.09759,13.09759,0,0,0-.65585-6.16226l-.998.45593C255.65688,204.70844,255.56995,206.72162,256.86138,208.49671Z"/><path class="b" d="M252.69047,182.26992c-.036-1.01115-.08017-1.959,1.09527-2.408a1.27591,1.27591,0,0,0,.54863-.64428c1.12441-2.38112,3.08258-4.10749,4.69754-6.10764,1.03991-1.288,2.37465-2.38376,2.95466-4.02567a1.97577,1.97577,0,0,1,.55857-.64015,14.03066,14.03066,0,0,0,2.12614-2.4873c.83138-1.27518,1.90158-2.39356,2.85367-3.59167a1.25444,1.25444,0,0,1,1.52113-.4974,2.26811,2.26811,0,0,1,1.0049,1.10188c.29945.69134.35452,1.48611.63232,2.19a11.7869,11.7869,0,0,0,.981,1.71759c.17379.28612.4698.52755.55526.8327a9.762,9.762,0,0,0,2.11013,3.4921,17.58067,17.58067,0,0,1,2.13809,2.93974c.70861,1.34256,1.57848,2.59969,2.37189,3.89791a19.9124,19.9124,0,0,1,1.291,2.20195c.34527.77428.10306.94414-.6909,1.11995a16.929,16.929,0,0,1-6.0461.10291c-1.95438-.27548-3.90673-.288-5.85588-.45853a15.62345,15.62345,0,0,0-5.22415.48421,6.29638,6.29638,0,0,1-1.11494.10351,4.31754,4.31754,0,0,0-1.27681.08547,6.30615,6.30615,0,0,1-3.22629.23756,6.13588,6.13588,0,0,0-2.09083.33485C254.007,182.40073,253.441,182.75273,252.69047,182.26992Zm4.26946-2.78249c1.32978.07573,2.64912.476,3.73994.13823a21.81108,21.81108,0,0,1,5.19379-.90462,35.23341,35.23341,0,0,1,7.01041.21564c.95422.13176,1.97009.493,3.001-.18325a6.4835,6.4835,0,0,0-.28574-1.08848c-.41444-.91191-.864-1.80857-1.32494-2.69816a4.3242,4.3242,0,0,0-.52469-.68164q-1.67053-2.06121-3.34032-4.123a2.82708,2.82708,0,0,1-.28244-.49721c-.58376-1.14271-1.15174-2.29379-1.75777-3.42451a2.61272,2.61272,0,0,0-.56721-.55853,1.53638,1.53638,0,0,0-1.211,1.19121,1.34963,1.34963,0,0,1-.31085.63216c-.87032.94194-1.775,1.85222-2.64051,2.79845a10.04213,10.04213,0,0,0-.72087,1.04225c-.7316,1.04045-1.42439,2.11186-2.21121,3.109-1.17647,1.49092-2.423,2.92644-3.62872,4.3946C257.02022,178.94523,257.03585,179.11833,256.95993,179.48742Z"/><path class="b" d="M246.54285,213.99427l1.53749-.016c.20282,2.09368.43193,4.16535.59318,6.24229a12.51221,12.51221,0,0,0,.87484,3.0765c.58805,1.72484.3,1.98481-1.50437,1.77246-1.1485-1.25778-1.31967-2.89028-1.54707-4.399A19.68074,19.68074,0,0,1,246.54285,213.99427Z"/><path class="b" d="M255.343,219.36607c.10122-1.77748.164-2.96729.23809-4.15639.0751-1.20456.89664-1.7497,1.80018-1.22121a.983.983,0,0,1,.50545,1.08589,15.84248,15.84248,0,0,0-.18135,2.08907q.0322,2.22429.18777,4.446a7.53148,7.53148,0,0,0,.35533,1.64445c.22872.75373.06621,1.44128-.44556,1.62948a1.22276,1.22276,0,0,1-1.57841-.8699C255.83335,222.29606,255.56182,220.55134,255.343,219.36607Z"/><path class="b" d="M261.019,225.59838a5.984,5.984,0,0,1-1.1227-3.30388c-.047-.71043-.27806-1.40664-.36945-2.11661-.18187-1.41346-.32806-2.83159-.48149-4.2486a.96964.96964,0,0,1,.779-1.18809,1.12742,1.12742,0,0,1,1.1836.98918c.31379,1.78122.58583,3.56974.88871,5.353a17.07888,17.07888,0,0,0,.38277,1.81C262.70762,224.40034,262.46566,224.97059,261.019,225.59838Z"/><path class="b" d="M244.02527,215.7312c.1126,1.39387.14653,2.67541.33557,3.93364.231,1.53714.56747,3.06027.90892,4.57805.13868.61631.36791,1.22628-.04766,1.7843-.21016.28218-.56268.62773-.85451.63116-.28088.00332-.64963-.34537-.82985-.63325a4.27576,4.27576,0,0,1-.50887-1.32453c-.4296-1.925-1.20922-3.81463-.52051-5.85614a3.98884,3.98884,0,0,0,.00812-1.41051C242.45406,216.22754,242.45078,216.22314,244.02527,215.7312Z"/><path class="b" d="M280.614,224.1248a2.38624,2.38624,0,0,1-1.521-2.42617c-.03724-1.81226-.17449-3.62235-.25588-5.434a1.85576,1.85576,0,0,1,.08234-.98221,1.78125,1.78125,0,0,1,.91512-.725.72617.72617,0,0,1,.95374.624,23.87,23.87,0,0,1,.3946,2.39222c.14322,1.74472.17294,3.49976.3512,5.24012C281.61137,223.56828,281.24859,223.84457,280.614,224.1248Z"/><path class="b" d="M284.51687,215.04812a1.42806,1.42806,0,0,1,1.74421.836c.87861,1.64666.90337,3.48823,1.33428,5.23321a3.332,3.332,0,0,1-.21413,1.40177c-.13653.59312-.31372,1.1769-.51246,1.90858l-1.121-.11673c-.1598-1.64707-.26006-3.19317-.47239-4.72371C285.06583,218.07691,284.38994,216.62964,284.51687,215.04812Z"/><path class="b" d="M141.17807,265.57215a12.45464,12.45464,0,0,1,.74,1.20535c.26245.556.45947,1.143.68019,1.71845.0503.13112.16156.33052.11156.39462-.69527.89136.00115,1.827.0415,2.69109.04154.88991.68433,1.75128-.23853,2.52114a4.00937,4.00937,0,0,1-3.96481,1.11866c-.8124-.9969-.37983-2.2759-.64123-3.41052a12.27957,12.27957,0,0,1-.1193-2.40178,1.76351,1.76351,0,0,1,1.19966-1.73329C138.92635,266.36422,138.92635,266.36422,141.17807,265.57215Z"/><path class="b" d="M140.41208,263.11742c1.17884-1.18449,1.17884-1.18449,2.61364-.224-.16881,1.36143-.73048,1.55824-2.65354.87185a7.58618,7.58618,0,0,0-.3049.75369,1.07009,1.07009,0,0,1-1.15193.87078,1.57648,1.57648,0,0,1-1.47316-.9671,1.00309,1.00309,0,0,1,.14427-.90288,2.95014,2.95014,0,0,1,1.36185-.70024A4.46144,4.46144,0,0,1,140.41208,263.11742Z"/><path class="b" d="M193.56462,251.04742a9.95717,9.95717,0,0,1,1.61763-.62806,13.24747,13.24747,0,0,1,3.31277-.39122c.43609.03217,1.01546.8568,1.16932,1.4193a32.33,32.33,0,0,1,.6349,3.77532,2.16662,2.16662,0,0,1-1.60266,2.52378,3.49227,3.49227,0,0,0-1.17586.46928,4.559,4.559,0,0,1-2.50972.89911c-.41453.05722-1.10061-.05313-1.257-.32312-.27426-.47343-.70695-1.11871-.13269-1.71226a.93118.93118,0,0,0,.14552-1.39155.47423.47423,0,0,1-.11642-.25621C193.6165,253.965,193.59137,252.49806,193.56462,251.04742Zm3.661,5.041c.44108-1.60682.39611-1.81063-.56037-2.53889C196.18117,255.46945,196.18117,255.46945,197.22557,256.0884Z"/><path class="b" d="M197.35607,245.8127l2.43986-.19293c.69256,1.06293.068,1.76038-.44908,2.41531a1.05882,1.05882,0,0,1-1.61476-.16945c-.24343-.31048-.45057-.64941-.81917-1.18735-.18731.48507-.2705.68983-.34543.89754-.08009.22207-.15238.44691-.259.76176-.54057-.27114-1.05468-.48059-1.51681-.7723a1.73719,1.73719,0,0,1-.70029-2.00275,1.64688,1.64688,0,0,1,1.90934-.53571A9.72327,9.72327,0,0,1,197.35607,245.8127Z"/><path class="b" d="M250.04821,234.77055l4.15-1.46046c-.10244.69223-.03181,1.17921-.2414,1.44646a14.30409,14.30409,0,0,1-1.9453,2.03091,1.10179,1.10179,0,0,1-1.00755-.1244A2.01552,2.01552,0,0,1,250.04821,234.77055Z"/><path class="b" d="M251.96251,241.1645c-.64094-.44377-1.77661-.33637-1.64259-1.59223.06758-.63329.7873-1.10681,1.74741-1.17888a1.1458,1.1458,0,0,1,1.28909.89175C253.68864,240.45276,252.67217,240.67833,251.96251,241.1645Z"/><path class="b" d="M234.14409,227.208l-.24867,4.36677-1.772-.37137c-.27653-2.14922-.568-4.27026-.81541-6.39643-.13071-1.12321-.20661-2.25414-.26676-3.38376-.054-1.01418.11025-1.15159,1.2458-1.30572a4.79361,4.79361,0,0,1,1.1918,3.86452,3.01962,3.01962,0,0,0,.3424,1.02382"/></svg>