<svg xmlns="http://www.w3.org/2000/svg" viewBox="0 0 200 200"><defs><style>.a{fill:#811a9b;}</style></defs><title>nightlife</title><path class="a" d="M102.25287,123.891l-2.30038-1.12935a5.44847,5.44847,0,0,1,.4451-5.00843,116.95435,116.95435,0,0,1,9.53474-14.32936c1.89588-2.53028,3.38228-5.36739,5.05313-8.06627.07985-.129.23371-.26373.22585-.38772-.15618-2.46278,1.703-4.1342,2.421-6.2481a2.34573,2.34573,0,0,0,.08694-1.48318c-1.26527-3.1396-.104-6.13436.63429-9.08659a6.47541,6.47541,0,0,1,2.98225-3.57988,16.80131,16.80131,0,0,1,6.82755-2.7914,7.55713,7.55713,0,0,1,4.21032.44516c1.421.5916,3.10709.55734,4.51253,1.17288,2.99723,1.31274,5.83444,3.04464,7.41374,6.02747,1.90781,3.60321,2.02348,8.86719-1.09495,12.30967a20.76339,20.76339,0,0,1-9.92,6.34965c-2.11591.59114-4.2866,1.18973-5.20755,3.58051-.0982.255-.36465.58532-.59778.62635-2.14391.37711-2.943,2.32172-4.11994,3.6955-2.90244,3.3881-5.61578,6.943-8.30769,10.50446a29.86472,29.86472,0,0,0-3.09211,4.94,10.4615,10.4615,0,0,1-3.54754,3.70067c-.68537.51167-1.78.47513-3.20365.80593-.54709,1.50788-1.2219,3.482-1.97775,5.42468-1.20413,3.09486-2.34613,6.22278-3.7457,9.229a19.00371,19.00371,0,0,1-2.96092,4.258,5.14608,5.14608,0,0,1-6.07.897c-4.20306-2.243-5.92853-5.83366-5.68416-10.4455.19566-3.69369.58957-7.37692.78262-11.07068a18.96782,18.96782,0,0,0-.30319-4.26,5.36864,5.36864,0,0,0-1.10306-2.42979c-1.50391-1.78478-3.83566-1.649-5.61645.49577-2.0725,2.49616-3.91055,5.18742-5.83971,7.80185-.46057.62414-.54523,1.72683-1.70882,1.44016-.72288-.1781-.98271-1.51533-.273-2.61427,1.35227-2.09379,2.8259-4.118,4.37047-6.0753a19.80793,19.80793,0,0,1,2.9055-2.8585c3.54636-2.95647,8.10621-1.66487,9.29728,2.78034a24.816,24.816,0,0,1,.63962,6.49108c-.01065,2.03168-.526,4.0555-.65646,6.0932-.13478,2.10456-.12754,4.2228-.08406,6.333.05279,2.56177,1.57565,4.38081,3.40938,5.89232,1.64425,1.35534,2.94981,1.0966,4.64521-.30969,1.674-1.38856,2.29461-3.31349,3.02274-5.21318.97452-2.54252,1.98395-5.07186,2.938-7.62194A14.43479,14.43479,0,0,0,102.25287,123.891Zm29.03046-28.36915c.912-.26782,1.83816-.53559,2.76166-.81214a14.64273,14.64273,0,0,0,2.50813-.799,20.23112,20.23112,0,0,0,2.84674-1.8608,8.71651,8.71651,0,0,0,1.56965-12.95215c-2.83562-3.19866-10.381-6.05946-15.14711-4.18969-2.62895,1.03137-4.85653,2.335-5.49173,5.47573a17.89025,17.89025,0,0,0-.40721,6.48358,2.65089,2.65089,0,0,0,1.42147,2.231C124.67159,91.14446,127.91366,93.32811,131.28333,95.52185Zm-24.94141,27.29678a14.48015,14.48015,0,0,0,2.13932-1.66184c1.67015-1.87775,3.20042-3.87126,4.86759-5.76218,3.54333-4.01888,6.69459-8.38453,9.98326-12.62612a1.97927,1.97927,0,0,0-.19915-3.02052c-1.654-1.52249-3.27158-3.15071-5.89484-3.5813a24.83371,24.83371,0,0,1-1.62617,3.07779c-2.2293,3.13366-4.63362,6.14487-6.81133,9.31268-2.57975,3.75269-5.62332,7.26885-6.76213,12.069ZM118.992,90.864c-.75218,1.88045-.6885,2.15059.588,2.93192.57617.35269,1.17836.66571,1.73673,1.044,1.85306,1.25533,3.6916,2.53214,5.6722,3.89461.51757-.37046,1.07368-.76852,1.61694-1.15742C125.97576,94.28548,122.66452,92.46992,118.992,90.864Z"/><path class="a" d="M80.67246,87.79176c-.7771-2.26839-1.43312-4.49861-2.3072-6.63983a4.44389,4.44389,0,0,1,.67636-5.00768c1.9941-2.45389,3.76336-5.09229,5.59105-7.67851A2.3777,2.3777,0,0,1,87.035,67.282c.86846,1.73478,1.70871,3.567,2.68355,5.32478,1.49681,2.69906,3.06668,5.35837,4.64482,8.01126.72479,1.21841,1.92213,2.29593,2.2145,3.593a9.92411,9.92411,0,0,1-.41637,4.38431A6.40059,6.40059,0,0,1,94.649,90.827a2.86712,2.86712,0,0,1-3.69565.51922c-1.401-.89472-2.423-3.813-1.676-5.27543a14.66484,14.66484,0,0,1,2.08443-2.87112c.55106-.6313.92154-1.15487.41652-1.98448-1.12663-1.85075-2.21625-3.724-3.3956-5.71406-3.12406,2.04913-4.99452,4.833-6.95066,7.81038,1.60368.7058,1.74518,1.95418,1.90781,3.4654.27409,2.54637.71929,5.04915.28925,7.61874a3.83722,3.83722,0,0,1-5.99758,2.71566,4.061,4.061,0,0,1-1.49414-3.15961,6.55662,6.55662,0,0,1,3.47112-5.608C79.938,88.19194,80.25369,88.01011,80.67246,87.79176Zm-.2487-7.6818c2.25206-2.2941,4.62428-4.23487,6.04016-7.04637.53432-1.06108-.04366-1.46079-1.10066-1.91438-1.68139,2.38119-3.34317,4.7124-4.9705,7.06743a2.41769,2.41769,0,0,0-.3,1.06678C80.07164,79.46149,80.23509,79.66143,80.42376,80.11Z"/></svg>