<svg xmlns="http://www.w3.org/2000/svg" viewBox="0 0 200 200"><defs><style>.a{fill:#fdb635;}</style></defs><title>outdoors</title><path class="a" d="M105.375,79.5525c3.1304-.9845,4.81269.77909,5.93626,3.44536,1.26572-.16886,2.40086-.30784,3.53207-.47409a5.51766,5.51766,0,0,1,4.753,1.12985,2.22437,2.22437,0,0,0,2.64687.44365c.74012-.288,1.54413-.40713,2.30875-.63779,2.21632-.66849,4.37018-.99453,6.06371,1.058a9.22134,9.22134,0,0,1,5.47952-1.987,2.30277,2.30277,0,0,1,2.4537,1.26565c.79317,1.94421,1.66237,3.921.977,6.14184-.62561,2.02743-1.2358,4.06835-.63136,6.234a2.2215,2.2215,0,0,1-.78324,2.389,10.83622,10.83622,0,0,0-1.01422,1.23825c-2.10768,2.57122-5.07562,2.982-7.62515.89037a2.49471,2.49471,0,0,0-2.59787-.7656,9.79445,9.79445,0,0,1-1.7955.05092,7.27875,7.27875,0,0,0-2.5283.44443,8.04335,8.04335,0,0,1-8.53583-.28468c-2.93,3.418-7.0145,4.59447-11.245,5.30837-.77742,4.13485.16841,7.83223,2.34644,9.51227,1.97462-.78007,3.924-1.53116,5.85265-2.332a1.91823,1.91823,0,0,0,.738-.72647c1.6819-2.51677,4.42231-3.1513,7.05017-3.96792a1.85315,1.85315,0,0,1,2.44691,1.08644c.72242,2.41036,2.37126,4.11584,3.92833,5.92643a7.03918,7.03918,0,0,1,.674,1.20634c1.471-.68532,2.83768-1.39967,4.26305-1.96652,1.78648-.71046,3.31069-.44564,4.28441,1.44356a2.50584,2.50584,0,0,0,2.4279,1.284c2.88778.12385,3.33878.64089,4.36633,3.3913a4.99761,4.99761,0,0,0,1.80693,2.43773,5.04852,5.04852,0,0,1,2.42731,3.01725c.55761,1.95169,1.052,3.92142,1.61814,6.05224l-1.66583.50228c-.15247.75278-.049,1.85444-.52605,2.24259-.8464.6886-1.96586.39206-2.98093-.15376a4.06987,4.06987,0,0,0-2.007-.49532q-4.40271.1984-8.795.59745a2.36042,2.36042,0,0,0-1.58463.76971c-1.01827,1.47569-2.37185,1.36019-3.768.96041a18.01842,18.01842,0,0,0-7.34282-.66484c-4.83777.59974-9.71069.99376-14.58073,1.216a22.48,22.48,0,0,1-5.74852-.84907,1.60942,1.60942,0,0,1-1.231-2.07257c.21975-.8444.42591-1.949,1.0346-2.38666,1.7241-1.23944,1.83731-2.37574.92094-4.27816-.51436-1.06779.07852-2.669.20989-4.56942-2.31162-4.40516-2.19515-5.28689,1.52982-8.24016-.21831-4.05258-.44-8.16809-.67232-12.48076-1.88114-.52419-3.87509-1.03793-4.763-3.11518-1.516.60885-2.873,1.15382-4.39455,1.76493.22681,2.30424.26306,4.61208.71046,6.83721,1.13318,5.63531,1.08255,11.32035.95582,17.00977a5.02284,5.02284,0,0,1-.98182,2.66395c-.88534,1.21081-2.05242,2.21147-3.04534,3.3491a2.70965,2.70965,0,0,1-2.825.7873c-3.23119-.44848-6.38661-.26543-8.50644,2.84537-.47935.70351-1.13971,1.17178-2.04151.61916a1.41155,1.41155,0,0,1-.2741-2.3056,10.38548,10.38548,0,0,1,3.78494-2.72143c2.33409-.72758,4.85547-.8338,7.272-1.32861a4.53975,4.53975,0,0,0,2.24852-1.12326c2.03543-2.08645,2.18339-4.79957,2.00434-7.48434-.28331-4.24812-.87332-8.479-1.06086-12.72918a25.74292,25.74292,0,0,0-1.3899-8.20562A10.13712,10.13712,0,0,1,80.2154,96.838a1.967,1.967,0,0,0-1.24488-.2532c-1.32.09286-2.63158.32649-3.95191.387a11.11663,11.11663,0,0,0-5.29687,1.1142c-1.47005.81067-3.62353.54676-5.46266.47318a30.17747,30.17747,0,0,1-4.724-.824c-3.651-.74247-5.22932-3.607-3.96164-7.17892.48973-1.37974,1.02265-2.74417,1.70313-4.56233.51325-.06735,1.51976-.19943,2.59559-.34063-.27893-2.88461,1.32536-4.73048,3.46531-6.4045,2.08567-1.63153,4.14684-2.61819,6.85975-1.62448.56865.20829,1.51428-.28854,2.156-.67588,1.11685-.67414,2.1325-1.51594,3.40828-2.44619,0-1.07977.02829-2.39909-.00634-3.71674a5.0386,5.0386,0,0,1,3.625-4.94918c2.739-.94433,5.19052-.92107,7.4267.93195,2.09148-1.30514,4.0009-2.60134,6.4371-3.0068,3.28587-.5468,5.52792.9633,7.31257,3.34005a15.846,15.846,0,0,1,1.96632,4.04186C103.50467,73.79751,104.34977,76.50216,105.375,79.5525ZM62.37284,86.493c-.655.25222-1.37729.30565-1.68405.69048A32.28952,32.28952,0,0,0,58.148,90.92366c-1.3253,2.24872-.44028,4.69677,2.09769,5.23713,2.8431.60533,5.78876,1.17753,8.62075-.46717.04788-.34694.06826-.69969.14809-1.03842.42761-1.8133,1.263-2.08345,2.68978-.88161A5.10977,5.10977,0,0,0,80.12,91.72149a11.536,11.536,0,0,1,1.79223-2.92466,3.1435,3.1435,0,0,1,3.949-1.03248c.2447.8695.27593,1.72018-.70929,1.71626a2.23866,2.23866,0,0,0-2.34161,1.77479,12.08117,12.08117,0,0,0-.58485,3.36827c-.00588.44646.61392,1.055,1.09686,1.32667,1.8181,1.02275,3.40456.1964,4.94627-.7897,1.52532-.97568,1.834-.93,2.83755.36085.2982.38355.57074.78716.94988,1.31324.429-.49231.732-.79852.98528-1.14138.29722-.40223.55127-.83628.77945-1.18782,1.81294-.08345,2.48343,1.12971,3.18808,2.25489.7362,1.17541,1.43981,2.197,3.16129,1.76048.42147-.10684,1.20934.566,1.57509,1.06586a16.36061,16.36061,0,0,1,1.26585,2.62c1.56784-.37669,3.06755-.867,4.60548-1.076a6.37355,6.37355,0,0,0,5.04772-3.42112,8.20933,8.20933,0,0,1,1.60972-1.63653,4.2931,4.2931,0,0,1,.56133.33606c.23935.25757.47961.51573.699.79013,1.38389,1.73,2.91783,2.26678,4.89878,1.44886a8.65718,8.65718,0,0,0,2.57749-1.77241c1.18126-1.13056,1.41564-1.22349,2.55874-.17533a10.24918,10.24918,0,0,1,.80969.92662,4.44748,4.44748,0,0,0,.92421-.0941c1.57666-.5565,2.99576-1.02043,4.16735.9228.32381.53713,1.863.7283,2.66228.48346a4.09874,4.09874,0,0,0,2.00617-1.92383c.48248-.87106-.42781-1.34071-1.013-1.90116a7.9927,7.9927,0,0,1-1.087-1.845c2.44521-1.76594,2.10389-4.46405,2.68946-6.78979.29128-1.15669-.58132-1.62977-1.83182-1.46839-1.55622.20077-2.14139,1.46375-3.01771,2.42947-.55264.609-.71425,1.94516-1.86494,1.467-.56022-.23282-.95341-1.15549-1.178-1.84541a1.738,1.738,0,0,0-2.441-1.32712,15.25551,15.25551,0,0,0-2.26779.73023c-1.26474.59974-2.47768,1.30874-3.7773,2.007-.3875-.36235-.83765-.60052-.99665-.96552-.51541-1.183-1.01683-2.33854-2.56743-2.31512a22.08983,22.08983,0,0,0-3.91448.216c-1.05832.20874-1.81255,1.57147-3.1417.95017-1.27356-.59523-1.10228-1.90949-1.4402-2.98175-.47353-1.50281-1.20536-1.73916-2.6129-.891-.45544.27446-.82681.69773-1.29512.93962a1.2769,1.2769,0,0,1-1.84645-.90186,4.34608,4.34608,0,0,1,.08655-1.32592,6.89327,6.89327,0,0,0-1.20438-5.2971,6.96752,6.96752,0,0,1-.94067-2.94837c-.58021-3.80555-2.76791-6.60195-5.67666-6.77411a6.56265,6.56265,0,0,0-6.01759,2.741c-.494.663-1.06171,1.27111-1.7275,2.06065a15.14121,15.14121,0,0,1-1.67582-1.81307,3.25069,3.25069,0,0,0-3.94682-1.41028c-2.09155.549-3.22485,1.75444-3.17972,3.7301a32.80662,32.80662,0,0,0,.79382,4.38073,3.38077,3.38077,0,0,1,.01711,1.98144c-.469.79836-1.35182.65549-2.13192.20806-1.18348-.67865-2.04719-.14051-2.732.81351-.60216.839-1.13677,1.72648-1.83247,2.79391a11.19037,11.19037,0,0,1-2.11369-1.06945c-1.67791-1.36455-2.93194-1.50706-4.67825-.27423C63.425,81.83737,61.91074,83.71776,62.37284,86.493Zm56.75775,24.1c-2.91143.96082-5.03805,1.9364-5.50878,4.88931a3.49253,3.49253,0,0,1-1.3042,1.81082c-.14541.1216-.96471-.46981-1.40911-.81733a1.63393,1.63393,0,0,0-2.543.34883,5.89362,5.89362,0,0,0-.65527,1.13427c-.94661,1.85455-1.5683,1.96661-3.16012.54987-.39724-.35357-.76671-.73988-1.17694-1.077-1.01318-.83262-1.88591-.61679-2.8186.24856a1.73345,1.73345,0,0,0-.09714,2.60447c.74156.98964,1.68432,1.82571,2.4912,2.7699,1.22607,1.43468.78951,2.54209-1.12266,2.92823-.311.06281-.62718.09944-1.415.22176.89337.982,1.51193,1.69219,2.16275,2.3714,1.58378,1.65276,1.47789,2.30065-.588,3.20694-.76847.33707-1.69542.447-2.07548,1.67328a48.88168,48.88168,0,0,0,10.46394-.23144c4.66394-.49976,9.34252-1.06287,14.04272-.4452a4.16262,4.16262,0,0,0,3.47309-.93647,2.90719,2.90719,0,0,0,.8189-2.09656,2.10646,2.10646,0,0,0-1.27774-1.46288,3.17376,3.17376,0,0,0-1.94738.47884c-.802.38486-1.64427.64045-2.09723-.23141a3.31117,3.31117,0,0,1-.16076-2.19642,12.52536,12.52536,0,0,1,1.40577-2.51824,10.7407,10.7407,0,0,1-1.65022.07875c-.54317-.07511-1.37657-.10514-1.5374-.42773a2.74892,2.74892,0,0,1-.06258-1.9308,10.9051,10.9051,0,0,1,1.19412-1.74564c.59994-1.01151,1.15029-2.06058.23242-3.19711-2.75237-.30078-2.89934-.50218-3.07258-3.45228A16.4259,16.4259,0,0,0,119.13059,110.593Zm8.42857,14.53146c3.96491.48248,3.77854,3.761,3.84988,7.04233l10.99385-.67674a22.85133,22.85133,0,0,1,.4231-2.51686c.75541-2.57318.50574-3.22984-2.162-4.07408a2.08185,2.08185,0,0,1-1.65525-2.30981,20.72992,20.72992,0,0,0-.63449-3.28868l-3.99457,1.37942c-.39168-.813-.81812-1.54694-1.10881-2.33117-.74365-2.007-1.68118-2.49881-3.64391-1.6982-1.76885.7215-3.26117,1.77951-3.66932,3.06182C126.56826,121.77611,127.00665,123.25751,127.55916,125.12449Z"/></svg>