<svg xmlns="http://www.w3.org/2000/svg" viewBox="0 0 200 200"><defs><style>.a{fill:#1586c8;}</style></defs><title>oven</title><path class="a" d="M141.54772,136.06058c-.31527,2.00529-.58668,3.88791-.91351,5.76084-.2589,1.48366-.6935,1.812-2.22824,1.69561-3.271-.248-6.53958-.52791-9.88772-.80115-1.20722-1.28025-1.17182-3.04767-1.47114-4.67239-.41353-2.2446-.57892-2.50776-2.916-2.39386-4.02962.19639-8.05243.56324-12.0834.69595-4.21179.13865-8.43007.12348-12.64516.10593-4.71588-.01964-9.432-.09438-14.14692-.19212-1.996-.04137-2.97756.72243-3.38776,2.83159-.52059,2.67705-1.19216,3.22323-3.90364,3.143-2.77666-.08218-5.55331-.24639-8.32945-.23571a2.46,2.46,0,0,1-2.68725-1.79177,10.10614,10.10614,0,0,1-.77744-2.39491c-.12178-1.86129-1.17448-2.32325-2.82474-2.5a18.23933,18.23933,0,0,1-7.63-2.46871,6.77808,6.77808,0,0,1-2.94464-3.60743,21.48547,21.48547,0,0,1-1.02781-8.186q.15379-10.98248-.0914-21.96943c-.09192-4.37744-.49567-8.74873-.78069-13.12138-.06574-1.00846-.20562-2.01294-.33483-3.01624-.25038-1.9444.16625-2.7132,2.04-3.49553,2.10031-.87691,4.20045-1.76271,6.34181-2.52954a11.08515,11.08515,0,0,1,3.20364-.6551c4.45943-.19373,8.92332-.40054,13.38492-.38742,3.19528.0094,6.38757.40494,9.58486.54543,2.60545.11448,5.21653.09555,7.82478.15465,6.13672.139,12.28182.134,18.40749.47594,7.06774.39459,14.1207,1.06929,21.175,1.68224a27.09539,27.09539,0,0,1,9.85133,3.04759,5.11976,5.11976,0,0,1,2.17952,2.90346,37.35856,37.35856,0,0,1,1.67948,7.8707c.37406,5.02148.26041,10.07755.55566,15.10714.27585,4.70161-.09359,9.43279.78449,14.11233a62.14966,62.14966,0,0,1,.68984,6.77006,6.44949,6.44949,0,0,1-3.87774,6.22747C143.36791,135.21288,142.3849,135.67639,141.54772,136.06058Zm-1.26147-4.65005c.9435,1.67189,2.32231,1.59581,3.73639.97413a3.06634,3.06634,0,0,0,1.81692-3.29855c-.10909-2.42889.21114-4.92165-.22129-7.28277-1.13374-6.18948-.84772-12.4423-1.07121-18.65916-.19962-5.55157-.16813-11.03472-1.89289-16.44095a5.27587,5.27587,0,0,0-3.527-3.83755,33.36118,33.36118,0,0,0-6.35-1.63452c-4.3388-.54989-8.713-.81916-13.07152-1.21535-2.68337-.24391-5.3625-.53678-8.04779-.75545-2.51758-.205-5.0389-.438-7.562-.48911-6.65551-.13488-13.31289-.17424-19.96942-.25819q-10.5-.13243-20.99976-.273a2.29812,2.29812,0,0,0-.75272.08187c-3.02585,1.02439-6.051,2.05118-9.06664,3.10491-.89251.31187-.95225,1.09965-.904,1.88987.29806,4.88066.6298,9.75944.89666,14.64178.20249,3.70305.40648,7.40922.46352,11.11625.075,4.87973-.00376,9.76168.01067,14.6426a13.618,13.618,0,0,0,.23749,2.2636,5.96447,5.96447,0,0,0,2.92362,4.51977c2.5798,1.37375,5.20748,2.62337,8.27594,2.70518,5.98156.15945,11.96984.34279,17.93408.79559,5.30865.403,10.59743.87927,15.909.24062,4.61174-.55447,9.19853.61722,13.85835-.07005,3.61685-.53345,7.33631-.09263,11.02852-.7167,3.547-.59955,7.22561-.37645,10.82811-.71173C136.59795,132.57342,138.666,133.26358,140.28625,131.41053Zm-5.876,9.41107.01238-.08507a9.6767,9.6767,0,0,0,1.26019.03884c2.15512-.2046,2.59167-.619,2.88012-2.73926a9.23741,9.23741,0,0,0,.05534-1.51062,1.59056,1.59056,0,0,0-1.72807-1.74973q-3.02623.024-6.05077.18442a1.41273,1.41273,0,0,0-1.5279,1.60885c.0256.58852.01859,1.17986-.004,1.76877a1.65589,1.65589,0,0,0,1.62352,1.86255C132.09376,140.3892,133.25075,140.613,134.41024,140.8216Zm-55.31979-4.60445c-3.1454-.15747-6.1394-.35555-9.13616-.41258-.53386-.01016-1.52995.56555-1.52966.86995a3.5912,3.5912,0,0,0,.78247,2.20763,2.72083,2.72083,0,0,0,1.853.5503c2.00216.01677,4.00872-.032,6.00709-.15834C78.63546,139.175,78.89161,138.77892,79.09044,136.21715Z"/><path class="a" d="M105.41034,83.81614c4.46886.17472,7.81483.10579,11.11327,1.16494,1.8019.57861,3.83817.44,5.7712.59476,3.10006.24824,4.74685,1.88384,4.31371,4.96913-.66392,4.7286.59708,9.171,1.44485,13.69793a9.91054,9.91054,0,0,1-.00674,2.412c-.04219.66685-.40223,1.39188-.234,1.98036.79068,2.76587-.07925,5.49218-.06688,8.23356a3.64028,3.64028,0,0,1-4.35535,3.891c-5.01668-.56482-10.02685-1.19468-15.05085-1.68229a30.75051,30.75051,0,0,0-4.27012.21087c-8.4981.37865-16.99891.70523-25.49371,1.1484-2.68.13983-5.34184.60714-8.01622.884-2.87271.2974-3.407-.02278-4.25054-2.69418-.35076-1.11092-.48175-2.28979-.741-3.43132-.44588-1.96341-.91554-3.9214-1.37235-5.8823a31.899,31.899,0,0,1-.879-8.26957c.0968-3.18914-.08748-6.39192-.26714-9.58215a3.09206,3.09206,0,0,1,1.86419-3.42307,20.256,20.256,0,0,1,9.1362-2.22605c3.95045-.07492,7.89555-.44974,11.84222-.70644C92.76641,84.65854,99.56566,82.97082,105.41034,83.81614Zm19.49408,24.44618c.23388-1.00432.54767-1.54748.42635-1.9639-.692-2.37606-.18434-4.79527-.37176-7.18359-.00651-.08311-.04123-.1638-.05015-.247-.25676-2.41021-.63016-4.81548-.73449-7.23233-.1072-2.48313-.82651-3.52766-3.31759-3.8397-4.32616-.54192-8.65022-1.18367-12.99583-1.465a62.5252,62.5252,0,0,0-14.35722.33517c-3.06548.509-6.17736.78308-9.2795,1.015-4.02731.30111-8.07415.3592-12.09508.71857a23.5431,23.5431,0,0,0-5.09667,1.26,2.21242,2.21242,0,0,0-1.65955,2.27876c.11777,4.278.20691,8.55684.31557,12.83514a.71329.71329,0,0,0,.15866.47136c.458.41268.93307,1.11016,1.42706,1.13191,4.45488.1962,8.91718.40936,13.37308.341,3.85049-.05911,7.692-.60354,11.54367-.71124a112.86179,112.86179,0,0,1,20.845,1.24748c2.57546.40724,5.32033,1.1112,7.68684-.12727Zm-58.36748.60294c.51788,2.92836.878,5.497,1.4491,8.01787.42221,1.8638,1.19559,2.21988,3.12563,2.06111,4.94523-.40681,9.88977-.83823,14.84185-1.14082,6.1441-.37546,12.295-.641,18.44412-.93232a42.53869,42.53869,0,0,1,5.29712-.10431c4.01769.31382,8.02274.78991,12.03349,1.19414.33511.03377.67485.02136,1.01236.03214a2.35968,2.35968,0,0,0,2.33115-1.60574c1.29045-2.76-.05055-5.32085-3.04128-5.69093-2.91855-.36114-5.86718-.52739-8.76247-1.01672-5.99047-1.01244-12.04608-1.07175-18.08076-1.34447-2.49092-.11258-5.00833.56406-7.51635.58681-6.23944.05659-12.48048-.05774-18.72088-.09891C68.29807,108.81883,67.64592,108.84489,66.53694,108.86526Z"/><path class="a" d="M91.8979,125.26018a14.74793,14.74793,0,0,1,6.40633-1.45794c2.18241.00753,4.3688-.12219,6.54679-.28233a1.97468,1.97468,0,0,1,2.29521,1.49c.20592.63606.414,1.27468.56225,1.92555.52265,2.294-.36429,3.64074-2.59512,3.32129a34.93365,34.93365,0,0,0-9.51236.40756c-2.03254.25985-2.47842-.03908-3.034-2.075C92.28267,127.54727,92.13561,126.4678,91.8979,125.26018Z"/><path class="a" d="M140.99019,97.89547a4.71147,4.71147,0,0,1-1.26739,3.76923c-1.43134,1.82309-2.36518,2.0207-4.515.94134-.66907-.3359-1.39864-.54944-2.077-.86888a5.094,5.094,0,0,1-2.82552-5.60569,10.31765,10.31765,0,0,1,.65214-2.65332c.90113-1.80974,2.52686-2.13507,4.44-2.04127,4.289.21031,5.65473,1.54308,5.61719,5.78383C141.01314,97.3885,141.00277,97.55621,140.99019,97.89547Zm-2.38471.14676a17.60865,17.60865,0,0,0-1.34691-2.96416c-.73233-1.03381-2.69295-.9971-3.91848-.09769-.99106.72732-1.12859,1.843-.24215,3.1321a4.79977,4.79977,0,0,0,1.62087,1.55174,2.6583,2.6583,0,0,0,2.04634.271C137.49945,99.564,137.99034,98.71121,138.60548,98.04223Z"/><path class="a" d="M141.63107,114.79631c-.38094.863-.53209,2.02872-1.18934,2.52778-1.49472,1.135-2.69121,2.92409-4.80919,2.98021-2.53151.06708-5.15237-3.32456-5.11736-6.47209.0255-2.29174,2.88064-4.97323,5.22751-4.90952C139.62931,109.02821,141.3524,110.7985,141.63107,114.79631Zm-8.48978-.45505c-.0796,1.84755.89326,3.18848,2.34006,3.22544,1.14651.02929,3.35144-1.834,3.37911-2.8555a2.34072,2.34072,0,0,0-2.07006-2.6464C134.339,111.92293,133.21527,112.6239,133.1413,114.34126Z"/></svg>