<svg xmlns="http://www.w3.org/2000/svg" viewBox="0 0 200 200"><defs><style>.a{fill:#b121d5;}.b{fill:#811a9b;}</style></defs><title>party1</title><path class="a" d="M107.86378,124.6108c-2.3864-1.80226-3.75058.00459-5.3945.979C97.05184,128.8008,91.55392,131.877,86.156,135.12c-2.89843,1.74137-5.64321,3.73662-8.47942,5.58361-3.81159,2.48224-7.644,4.9322-11.4684,7.39477a2.05754,2.05754,0,0,0-.455.27335c-3.4367,3.91655-8.64792,6.00019-11.20057,10.83415a.98045.98045,0,0,1-.53471.42582c-2.08529.63187-5.56952-1.72194-5.64078-3.82752a2.336,2.336,0,0,1,.29138-1.32432c3.22622-4.70216,6.24483-9.5378,10.2118-13.72129,1.62176-1.7102,2.5563-4.08219,3.7551-6.18077,1.896-3.31925,3.74746-6.664,5.62488-9.99394,2.34625-4.16147,4.61491-8.36987,7.07561-12.46271,2.15768-3.58879,4.52548-7.05168,6.81838-10.55847.96574-1.477,1.93043-2.95973,2.99923-4.36076a1.77812,1.77812,0,0,1,1.4397-.65108c5.71977,1.5505,10.74451,4.25348,14.349,9.12826,1.60446,2.16983,3.53515,4.23342,4.55729,6.66494a61.97865,61.97865,0,0,1,2.65927,9.8081A8.02127,8.02127,0,0,1,107.86378,124.6108Zm-13.329,3.199a.739.739,0,0,0,.41513-.10148c3.42166-2.2031,6.84732-4.40075,10.22605-6.66822a1.55368,1.55368,0,0,0,.48074-1.34253,26.233,26.233,0,0,0-1.85935-6.05455,36.51916,36.51916,0,0,0-5.21766-7.55469c-2.98133-3.17846-6.28429-6.09485-10.91032-6.83643a2.30117,2.30117,0,0,0-2.59253.97132c-2.17176,3.16876-4.352,6.332-6.48372,9.52743a1.76528,1.76528,0,0,0-.20787,1.32612c.49812,1.608,1.1763,3.16148,1.649,4.77582.39392,1.34519,1.04395,2.00649,2.54039,1.76928a2.87093,2.87093,0,0,1,3.19945,1.64518c.37046.63541,1.64426.771,2.52962,1.071.73232.24819,1.85613.1614,2.183.64466C91.91048,123.0883,93.10642,125.34793,94.53482,127.80975Zm-15.09741,5.90067c-.50585.41618-.92142.74061-1.3176,1.08721-1.16057,1.01546-2.20938.70067-2.67917-.5782-.5898-1.60544-1.38373-1.52865-2.7148-.97065-1.99465.83614-3.17443.1791-3.93143-1.88429-.171-.46607-.45215-.89171-.94227-1.8364-1.92443,3.1254-3.56427,5.89486-5.30968,8.59613-2.10684,3.26059-2.14,3.35132.34048,6.25036a4.54007,4.54007,0,0,1,.58467.66653,1.7427,1.7427,0,0,0,2.584.70345c1.1345-.5922,2.1509-1.40715,3.23526-2.09935,3.3312-2.12658,6.68438-4.21925,10.00159-6.36743C81.32822,135.95684,81.32535,135.66088,79.43742,133.71042Zm8.03813-1.70642c1.32542-.65855,2.54474-1.22,3.71191-1.87423.30624-.17166.70608-.71822.62873-.94364-.488-1.423.28069-3.32237-1.61176-4.24814a1.88856,1.88856,0,0,1-.71059-1.18381c-.26835-1.11462-.92168-1.35125-2.01811-1.50685a10.28245,10.28245,0,0,1-2.99645-1.4386c-.86206-.45383-1.69858-1.319-2.56134-1.33843-2.34791-.053-3.47424-1.13022-3.70661-3.36617a7.86546,7.86546,0,0,0-.27122-1.56488,6.95048,6.95048,0,0,0-.63247-1.18083c-.41808.25159-.98781.40417-1.228.77192-1.03248,1.58069-2.0222,3.19526-2.922,4.85468a3.54011,3.54011,0,0,0,1.59516,4.39735,24.32411,24.32411,0,0,0,5.38729,1.43849,8.64649,8.64649,0,0,1,6.72314,4.67151A9.4736,9.4736,0,0,1,87.47555,132.004Zm-10.2549.6952c1.8696-1.62144,2.82873-1.59894,4.28312-.07493.36672.38439.634.94271,1.07515,1.15583a1.99966,1.99966,0,0,0,1.62749.15171c.62925-.44614,1.53207-1.31446,1.43388-1.84119-.47153-2.52944-3.08848-3.39973-4.47473-5.2665a.19751.19751,0,0,0-.16494-.04973c-1.6089.32347-2.86315-.63324-4.28277-1.038-2.06078-.58747-4.17666-.72812-5.24755-3.28521-1.34167,2.443-3.9223,4.268-1.18525,7.00186a1.25764,1.25764,0,0,1,.2793.64439c.25514,1.41856,1.26138,1.49355,2.28482,1.12247C74.674,130.55831,76.20433,130.60421,77.22064,132.6992Zm-23.1331,23.249c1.97432-1.668,3.8679-3.25777,5.75019-4.86067,2.77955-2.36689,4.08229-2.85911.59927-6.29052-1.00667-.99181-1.91748-1.08707-2.77042.05845-1.60385,2.154-3.085,4.40181-4.73831,6.516C50.986,153.85511,51.07658,154.43008,54.08754,155.94824Z"/><path class="b" d="M100.24434,63.78038c-.75309,6.57785-1.38408,13.17688-2.32288,19.73186a44.324,44.324,0,0,1-2.18714,7.25288,1.08167,1.08167,0,0,1-.80062.55849,12.34805,12.34805,0,0,1-3.05746-.05791c-.26827-.05115-.59641-1.04194-.50368-1.52615.53253-2.78253,1.35792-5.518,1.74855-8.31633a66.54392,66.54392,0,0,0,.76864-9.86061c-.04806-4.54333-.50872-9.08183-.75231-13.62455-.01877-.34887.1917-.93268.44624-1.03586a22.72047,22.72047,0,0,1,3.837-1.24686c.3244-.068,1.0655.56437,1.17838.99048C99.21577,58.97323,99.69625,61.33671,100.24434,63.78038Zm-6.2789,23.939.90569.14976c.73119-3.23459,1.61567-6.44418,2.14864-9.71111a63.66516,63.66516,0,0,0,.84208-9.16025c.05466-3.29332-.2435-6.59561-.48465-9.88693-.03137-.42766-.63986-.81305-.981-1.218a5.94256,5.94256,0,0,0-1.37609,1.23482,2.94373,2.94373,0,0,0-.12853,1.5573c.1672,2.65818.55912,5.31792.51037,7.97047-.08334,4.54289-.3914,9.0838-.69643,13.61939C94.58279,84.098,94.21937,85.905,93.96544,87.7194Z"/><path class="b" d="M123.17392,95.156a18.64939,18.64939,0,0,1-.06848,4.32712c-.40383,1.64872-2.09085,1.93531-3.48354,1.7569-3.855-.49389-7.1586.83072-10.39681,2.64012a5.36249,5.36249,0,0,1-1.79391.28183c.09707-.75567-.08786-1.87525.33866-2.20582a40.99969,40.99969,0,0,1,6.83081-4.64859,59.04018,59.04018,0,0,1,7.86181-2.63814Zm-2.10276,2.32524c-2.71289.2197-5.28014.145-7.44937,2.14565C116.01262,100.14131,120.74676,98.87767,121.07116,97.48128Z"/><path class="b" d="M117.32006,63.03191a8.78438,8.78438,0,0,1-1.08218,1.82065c-1.51365,1.39691-3.21431,2.60885-4.61334,4.10638a40.61311,40.61311,0,0,0-2.69047,3.93067,8.07941,8.07941,0,0,1-1.45082,1.23963c-.29442-.48718-.93828-1.08006-.828-1.44487a76.58314,76.58314,0,0,1,2.95622-8.65527,21.12069,21.12069,0,0,1,3.19693-4.41133c.22325-.27693,1.06845-.47624,1.22192-.3182C115.18193,60.48591,116.23214,61.77083,117.32006,63.03191Zm-7.17,4.98494c1.37061-1.21021,2.45662-2.12686,3.494-3.09559,1.34211-1.25322,1.28892-1.823-.28521-3.11562C111.60672,63.31826,110.18457,64.99355,110.15007,68.01685Z"/><path class="b" d="M120.18546,85.28208a5.96911,5.96911,0,0,1-1.29431,1.26063q-2.87974,1.46164-5.85812,2.72384a2.39646,2.39646,0,0,1-1.63644-.00362c-.20726-.07784-.28764-.85118-.211-1.26916a20.28425,20.28425,0,0,1,2.868-6.63576c.5367-.9036.88335-1.91825,1.36687-2.85639.19631-.38112.5334-.97811.79593-.97255a1.65072,1.65072,0,0,1,1.29205.673C118.42936,80.42547,119.22659,82.70006,120.18546,85.28208Zm-6.63711,1.03556.50125.6237c1.15379-.69205,2.79919-1.13589,3.31208-2.1516.44146-.87425-.4087-2.4007-.68783-3.63877l-.78038-.01826Q114.721,83.72518,113.54836,86.31764Z"/><path class="b" d="M62.99251,55.20889c1.71465.444,3.19233.80315,4.65592,1.21292,1.18134.33076,2.34877.71289,3.5163,1.091.64742.20964,1.87612.03377,1.357,1.20865-.19987.4525-1.37687.77352-2.02463.66282a27.48818,27.48818,0,0,1-3.49327-1.17838c-1.2778-.404-2.59775-.68028-3.86095-1.12183a5.521,5.521,0,0,1-1.322-.97851C62.22318,55.7976,62.62553,55.4897,62.99251,55.20889Z"/><path class="b" d="M139.78289,102.62006a4.1558,4.1558,0,0,1,.65576-.88408c2.07373-1.56669,4.12861-3.165,6.28707-4.60754.50047-.33452,1.37583-.10806,2.07869-.13972-.34013.66641-.51185,1.56171-1.05064,1.958-1.92556,1.41657-3.96219,2.68549-5.99,3.95712a3.27151,3.27151,0,0,1-1.45273.3756C140.16326,103.29087,139.98311,102.882,139.78289,102.62006Z"/><path class="b" d="M131.3172,88.423c-.18336-.16456-.82452-.498-.802-.77847a1.50694,1.50694,0,0,1,.887-1.06886c2.44063-.70939,4.90177-1.35861,7.38281-1.90756.39775-.088.929.42751,1.39851.664-.20509.38136-.34031,1.02726-.62621,1.10282C136.93183,87.12884,134.28029,87.72384,131.3172,88.423Z"/><path class="b" d="M71.94155,47.53468a13.508,13.508,0,0,1-1.83692-1.58027c-1.19351-1.45778-2.33452-2.9652-3.38916-4.52521-.24836-.3673-.07178-1.02182-.09064-1.54421.48943.17466,1.15431.20419,1.43866.54823,1.5027,1.81872,2.92476,3.70532,4.333,5.59945a1.94888,1.94888,0,0,1,.23672,1.08154C72.63476,47.223,72.28081,47.33673,71.94155,47.53468Z"/><path class="b" d="M85.35028,54.10456c-.75578-.71954-1.35332-1.02862-1.52208-1.49344q-1.20784-3.32539-2.18957-6.73043c-.11853-.40779.21273-.94633.33631-1.42451.37307.29126.9434.50775,1.08688.8861.85242,2.24839,1.62958,4.52663,2.37093,6.81461A7.48869,7.48869,0,0,1,85.35028,54.10456Z"/><path class="b" d="M154.0463,73.08378c-.1556.28271-.24133.71177-.478.82473-1.68741.80557-3.39012,1.58575-5.12841,2.27169-.3092.12205-.80662-.23269-1.21714-.36729.1659-.34439.24689-.8893.51124-1.00117,1.96154-.83019,3.95958-1.57435,5.94615-2.34553Z"/><path class="b" d="M131.10473,76.17591c.25705-.41623.39505-.91029.68244-1.02294a1.09046,1.09046,0,0,1,.984.39546,46.68856,46.68856,0,0,1,2.19983,4.26974,1.25163,1.25163,0,0,1-.48943,1.13714,1.28288,1.28288,0,0,1-1.22027-.30747C132.47812,79.21367,131.8261,77.70791,131.10473,76.17591Z"/><path class="b" d="M142.8732,69.68178c-2.3015-.60329-3.57991-2.6077-3.08422-4.16712.06735-.21205.93489-.40278.95479-.3632C141.42924,66.513,142.05719,67.90354,142.8732,69.68178Z"/><path class="b" d="M142.58121,93.22835v4.00892C140.9737,96.60054,140.93355,94.84461,142.58121,93.22835Z"/></svg>