<svg xmlns="http://www.w3.org/2000/svg" viewBox="0 0 200 200"><defs><style>.a{fill:#b121d5;}</style></defs><title>party2</title><path class="a" d="M60.26076,123.81107a20.66124,20.66124,0,0,1-2.038-1.80959c-2.25266-2.66436-4.5174-5.32283-6.64962-8.08243a3.25557,3.25557,0,0,0-3.00423-1.44539,30.54732,30.54732,0,0,1-3.9087-.08762c-.36016-.02911-.68956-.43846-1.03309-.67336.37246-.26629.73162-.74027,1.1196-.76517,2.54-.163,5.11555-.02133,7.62352-.37544,3.72747-.52628,7.43112-1.28258,11.10306-2.12348A65.85334,65.85334,0,0,0,74.173,105.52381a115.83357,115.83357,0,0,0,12.75059-6.58775A44.889,44.889,0,0,0,92.857,94.48484c1.5558-1.27428,1.31321-2.13391.00691-3.62219-1.3269-1.51178-2.38979-1.67587-4.0062-.50974-1.857,1.33963-3.88493,2.44222-5.83774,3.6491-1.32929.82155-1.83614.63106-1.8467-.91818-.0262-3.84446-.069-7.69774.1632-11.53123a4.1784,4.1784,0,0,0-2.05418-3.96921A5.4661,5.4661,0,0,1,77.76177,76.403a5.43995,5.43995,0,0,1-.39258-1.86169c.644.08892,1.516-.06029,1.89645.30392,3.49309,3.344,6.89251,6.78556,10.33716,10.18049,1.79725,1.77129,3.63848,3.49792,5.444,5.26093.85.83,1.6221.88809,2.37758-.106,2.38258-3.13523,4.89712-6.17966,7.12041-9.4238,2.43311-3.55036,4.59179-7.28845,6.894-10.92959a3.713,3.713,0,0,1,.84807-.71583l.56108.235a15.02889,15.02889,0,0,1-.73258,2.62936,13.05411,13.05411,0,0,1-2.01946,3.32494c-2.01577,2.16087-1.059,4.51751-.54283,6.74773a66.97531,66.97531,0,0,0,2.265,6.69672c.34465.99415.23655,1.82026-.98142,1.98572a49.62657,49.62657,0,0,1-5.6287.58026,13.37549,13.37549,0,0,1-3.03156-.6936,4.88211,4.88211,0,0,0-2.19757-.358,3.8817,3.8817,0,0,0-1.76471,1.56216c-.12084.17511.43529.99711.84021,1.326,2.553,2.07386,5.34149,3.89593,7.68944,6.17492a44.146,44.146,0,0,0,12.24021,7.97341c6.30319,2.98357,12.54176,6.03334,19.44018,7.60089,8.648,1.96508,17.30483,3.18742,26.18413,2.41456.54635-.04758,1.13713.41582,1.70725.64151-.5367.44155-1.17982,1.347-1.59347,1.2521-3.67174-.84223-5.68853,1.34261-7.64953,3.83888-1.81711,2.31312-3.76371,4.52407-5.60784,6.81656-1.03,1.28039-2.10593,1.19981-2.81539-.30935q-2.03337-4.32512-4.04123-8.66217a6.08843,6.08843,0,0,1-.2405-.83993c-.22777-.7694-.30081-2.088-.71759-2.208-1.53029-.44053-3.55853-1.17489-4.70285-.54111-3.0436,1.68554-6.3389,3.22535-8.51444,6.13827a2.35217,2.35217,0,0,1-3.09817.8834,3.366,3.366,0,0,1-1.35614-2.37478c-.299-2.92936-.35873-5.88313-.51181-8.82746a1.22254,1.22254,0,0,0-.05427-.34828c-.42391-1.17441-4.76572-2.66082-5.81337-1.915q-3.878,2.76067-7.66963,5.64213c-.939.7124-1.82154.50123-2.05435-.6804a16.89778,16.89778,0,0,1-.13826-2.1033c-.21734-3.18218-.32458-6.37959-.75348-9.53319a2.76636,2.76636,0,0,0-2.12692-1.60077c-3.05368.00465-5.66285,1.48906-8.058,3.22187a5.24245,5.24245,0,0,1-4.90655.81564c-2.971-1.14241-5.95484-2.26974-8.99088-3.21929-2.265-.70836-3.23482.08534-3.92943,2.38912-.96648,3.20558-2.00995,6.394-3.18251,9.52925-.7749,2.072-1.62628,2.211-3.28114.8018q-3.16724-2.69709-6.2915-5.44445a2.43976,2.43976,0,0,0-4.22116,1.17187c-.99181,3.28036-1.9406,6.57369-2.92389,9.85663C60.90452,122.25979,60.65594,122.792,60.26076,123.81107Zm97.12742-4.52976-11.60279-.80084c.4813,1.11462.88053,1.949,1.20554,2.81131.603,1.59979,1.08536,3.25044,1.781,4.80709a2.5265,2.5265,0,0,0,1.4981,1.293c.34617.08277.91729-.66638,1.34945-1.08095.46462-.44574.90039-.92435,1.32212-1.41165C154.45868,123.14629,156.65078,121.93056,157.38818,119.2813ZM69.52889,109.276c2.05361,1.71522,3.81276,3.21909,5.628,4.6518a1.12277,1.12277,0,0,0,1.05811-.16494,23.97271,23.97271,0,0,0,2.47669-8.33171C75.58528,106.7347,72.80638,107.90076,69.52889,109.276Zm13.2869-17.23086c2.30941-1.40648,4.25374-2.545,6.12473-3.79353.2103-.14035.20231-1.08162-.03906-1.34606a44.663,44.663,0,0,0-4.01733-3.99454c-1.20115-1.01944-2.00469-.63816-2.04879.90973C82.76308,86.35568,82.81579,88.89412,82.81579,92.04519ZM111.703,105.55284l-.45506.51007.4057,8.30979c2.506-1.79284,4.60218-3.29246,7.16017-5.1225ZM93,96.616c-1.65408,1.21653-3.03717,2.18434-4.36133,3.227-.751.59136-1.40542,1.30535-2.10336,1.96411.82087.35549,1.645.70366,2.46149,1.06893.59084.26438,1.15231.60938,1.76215.81244A22.63585,22.63585,0,0,0,93,104.18225Z"/></svg>