<svg xmlns="http://www.w3.org/2000/svg" viewBox="0 0 200 200"><defs><style>.a{fill:#45b658;}.b{fill:#388a57;}</style></defs><title>room</title><path class="a" d="M50.03569,96.364c-.21742-2.72389-.48217-5.239-.59939-7.76085-.09527-2.05125.13542-2.22138,2.196-2.41747,2.571-.24461,5.142-.48863,7.82418-.74347-.09315-1.57-.199-2.91448-.24319-4.261-.02692-.82067-.21686-1.72016,1.06221-1.95931.27278-.051.39433-.90326.64127-1.5272,2.30627,0,4.71983.14038,7.11029-.03367,3.38856-.24672,6.75322-.81514,10.14143-1.071a41.7313,41.7313,0,0,1,6.176.08079c1.54011.11319,3.05966.50287,4.69889.78873.2816-1.30076,1.0952-1.27248,2.2232-1.15209,2.81633.30051,5.65715.3718,8.48751.545,2.59367.15872,5.1888.302,7.77865.50963,1.12129.08987,2.22594.40514,3.347.4729a37.24617,37.24617,0,0,0,4.35057.01357c1.23138-.06992,1.77.43371,1.76968,1.6142-.00052,2.25291-.00017,4.5058-.00017,7.01.824.0485,1.74075.077,2.65233.16153a41.66633,41.66633,0,0,1,5.44543.63376c.59807.13687,1.16109,1.12,1.41449,1.83131a4.03673,4.03673,0,0,1-.20026,1.9376c-.507,2.49105-1.30484,4.89241.09791,7.46715.62321,1.14391.30188,2.76918.56827,4.14546a4.00747,4.00747,0,0,0,.98316,2.17671,9.7763,9.7763,0,0,1,3.45562,9.06469c-.36065,3.1767-.46439,6.38441-.60178,9.58182-.02032.47373.48932.94878.58852,1.45528a4.07122,4.07122,0,0,1-.11017,1.39118c-.27069,1.63133-1.2501,3.604-.65027,4.791a2.86387,2.86387,0,0,1,.047,2.63356c-.13087.4533.20932,1.03611.094,1.50075-.10378.41823-.53857.75509-.82736,1.12784-.30379-.28-.78165-.50889-.88234-.84858-.54267-1.83007-.87727-2.073-2.98669-2.07668-2.74062-.00476-5.48123-.077-8.22171-.06955-.90842.00248-1.21812-.38418-1.333-1.24112q-.4311-3.21477-1.04773-6.40276a1.3827,1.3827,0,0,0-.91947-.886,52.40189,52.40189,0,0,0-13.28263.39127c-1.822.22742-3.66783.25857-5.49846.42638-1.92687.17663-3.84826.58146-5.77252.58459-4.77144.00777-9.543-.222-14.31484-.23449-5.28921-.01382-10.57862.119-15.86818.16039-1.00091.00783-1.37434.47606-1.29348,1.40145.11472,1.31207.19762,2.62948.38322,3.932.1457,1.02242-.19432,1.49281-1.24326,1.5608-1.93062.12518-3.8577.3074-5.78548.47444-1.82813.15841-3.66.29006-5.48012.51462a3.80106,3.80106,0,0,0-1.64975.63677c-.9973.69819-1.45679.61925-1.54459-.61926-.22325-3.14792-.25923-6.30864-.46018-9.45856-.28726-4.50254-.58643-9.00646-1.0155-13.497-.22735-2.37969.50311-3.95094,2.76236-4.76178a1.79724,1.79724,0,0,0,1.41654-2.19373,32.52663,32.52663,0,0,1-.12118-5.068,2.03641,2.03641,0,0,1,1.02956-1.30766C47.88651,97.20621,49.041,96.79367,50.03569,96.364ZM44.154,125.81879c5.39889-.4097,10.48721-.79265,15.57487-1.18371,1.68726-.1297,3.37189-.38188,5.05957-.39884,2.93132-.02945,5.86727.01366,8.79533.15148,2.78417.131,5.56421.63784,8.34.59457,4.66669-.07276,9.33147-.40668,13.99166-.71227,4.53364-.29729,9.05692-.909,13.59146-.98449a95.26611,95.26611,0,0,1,10.85025.7753c2.1131.2079,4.19369.74876,6.30717.94563,2.74065.25527,2.74777.172,2.90934-2.465.0115-.1879.05779-.37405.06456-.56184.12451-3.47495.39909-6.95324.32574-10.4242a7.65708,7.65708,0,0,0-7.30287-7.12778c-4.53141-.07488-9.0697-.1196-13.59695.04432-5.05324.18293-10.09437.676-15.1464.91922-4.15583.2001-8.32049.33721-12.48.30955-4.15618-.02764-8.31094-.42324-12.46593-.41613-3.34858.00574-6.70762.64271-10.042.5082a36.80174,36.80174,0,0,0-12.16027,1.418c-1.2012.35976-2.8595.62848-3.01839,2.33221a57.29225,57.29225,0,0,0-.1573,5.75039c.01038,1.36082.18359,2.71971.25579,4.08094C43.96355,121.52012,44.05367,123.66714,44.154,125.81879Zm3.40953-21.207c4.48623-.10644,8.67606-.1675,12.86239-.3226,1.8844-.06982,3.75955-.35945,5.643-.48987,1.55792-.1079,3.12262-.19312,4.68312-.17626,6.09118.06581,12.141,1.10706,18.272.49911,5.12073-.50777,10.276-.686,15.41893-.95173,3.80328-.19647,7.61062-.375,11.41776-.41785,2.78146-.03129,5.56532.18079,8.34886.25529a1.66869,1.66869,0,0,0,.85011-.27263c-.16077-1.2138.008-2.79588-.69979-3.52886a6.422,6.422,0,0,0-3.73354-1.42209,44.8647,44.8647,0,0,0-6.24132-.054c-2.68772.08183-5.37155.3411-8.05886.37391-3.49688.0427-6.9955-.06753-10.4935-.10171-3.92039-.03829-7.84117-.046-11.76111-.10722-1.41091-.022-2.82046-.15358-4.22974-.2485-2.26744-.15268-4.53232-.41408-6.80153-.45639-5.7637-.10745-11.53032-.20551-17.29343-.1294-2.58516.03412-5.213.323-7.42582,1.944-.286.20955-.71376.49969-.724.76589C47.53139,101.48523,47.56358,103.20332,47.56358,104.61182Zm47.922-8.18962c1.51785,0,2.97064-.05768,4.41743.01063,4.62824.21858,9.25763.47907,13.83923-.45928a1.67455,1.67455,0,0,0,1.11709-.97871,16.61348,16.61348,0,0,0,.36363-3.46992c.01219-3.48131-.04932-6.96291-.08936-10.44433-.01032-.89491-.44768-1.24735-1.36878-1.14612a6.1997,6.1997,0,0,1-1.807-.10489,54.31942,54.31942,0,0,0-5.66722-1.121c-3.85308-.31081-7.72384-.44393-11.59009-.54379-4.64856-.12-4.00225-.81343-4.52735,3.619-.00983.08264.05418.174.17418.52842,1.06468,0,2.22354-.03786,3.379.008,2.34555.093,2.86277.66413,2.68258,2.90971C96.1197,88.834,95.81518,92.43693,95.48558,96.4222Zm-33.08884-.69279c4.3761,0,8.80193.013,13.22758-.00662,1.68188-.00745,1.67712-.04074,1.36649-1.73093-.0506-.27553-.02827-.56355-.05967-.84356-.28747-2.56268-.47762-5.14166-.90016-7.68226-.38013-2.28547.14438-3.06391,2.4602-3.13406q4.45377-.13493,8.90487-.3478a1.3001,1.3001,0,0,0,.93551-.41306c.319-.512-.92624-2.90608-1.54136-3.00727-3.16163-.52014-6.2831-1.20529-9.5525-.48918-2.35965.51686-4.65262,1.38038-7.18176,1.2226-3.00662-.1876-6.03408-.04415-9.15514-.04415,0,1.49329-.0672,2.7065.0206,3.90851.07443,1.01888-.24065,2.24881,1.13778,2.80112.10062.04031.01691.64648-.05314.97434a6.30428,6.30428,0,0,0-.41934,1.65628C61.78454,90.86953,62.09156,93.13627,62.39674,95.72941Zm31.62157,1.0383c.07571-1.65844.10444-2.95066.20005-4.238.17386-2.3402.39-4.67725.58324-7.016.09068-1.09771-.38333-1.71525-1.53094-1.71709q-7.35913-.01169-14.71827-.01713c-.75533-.00112-1.136.2731-1.03474,1.11074.37819,3.12768.7207,6.25966,1.07569,9.39015a1.93512,1.93512,0,0,0,2.16065,1.9019c2.878.122,5.74811.41823,8.62532.57086C90.92521,96.83514,92.4791,96.7677,94.01831,96.7677Zm-33.52621-1.427c-.20255-2.21514-.49054-4.53095-.5932-6.85486-.04824-1.09264-.48891-1.43-1.45908-1.345-2.02179.17714-4.05115.3081-6.0569.5985a1.80507,1.80507,0,0,0-1.27153,1.06378c-.4166,2.36191-.33578,4.69644,1.28716,6.68022a1.296,1.296,0,0,0,.95184.3048C55.687,95.66664,58.02137,95.50112,60.4921,95.34067Zm68.44975,36.34477c.14007-1.31216.28594-2.7532.45084-4.19208.08617-.75221-.25656-.99054-.978-.99079a18.92557,18.92557,0,0,1-2.81216-.16392c-2.51188-.37944-5.01334-.8272-7.51959-1.2439-.968-.16094-1.46009.18477-1.29727,1.22356.16723,1.06708.246,2.15525.5078,3.19833.29414,1.17222.8061,2.19566,2.32916,2.1788C122.66795,131.66175,125.71388,131.68544,128.94185,131.68544Zm-84.53228-4.03951c0,1.10615.07613,2.23055-.01869,3.34048-.12746,1.49182.55142,1.87323,1.91635,1.73435,3.41075-.34705,6.83237-.59347,10.23736-.98553.36019-.04146.84914-.75377.91005-1.2042.111-.82063-.15018-1.68595-.08294-2.51877.11579-1.43465-.41354-1.91655-1.8606-1.72007C51.834,126.79145,48.14407,127.19693,44.40956,127.64594ZM120.2918,87.9811l-.01771.10186c-.51812,0-1.03644-.01015-1.55428.002-1.1863.02793-1.88426.38907-1.81917,1.82324a22.21684,22.21684,0,0,1-.31946,4.63594c-.19359,1.15862.07606,1.48883,1.24941,1.50055,1.64041.01639,3.27728.29754,4.91894.34061a1.433,1.433,0,0,0,1.1382-.74454c.33394-1.65294.46553-3.34513.75443-5.00872.23117-1.33136-.18779-2.06773-1.58908-2.21548C122.1276,88.319,121.21189,88.12947,120.2918,87.9811Z"/><path class="b" d="M144.34977,105.40318c-.29455-2.23284-.62335-4.36946-.841-6.51722-.11805-1.16453-.62446-1.69614-1.80667-1.65171a17.46842,17.46842,0,0,1-1.84341-.11388c-1.47336-.1016-2.2109-.78859-1.94559-2.24615.5276-2.89865,1.22211-5.76865,1.90284-8.63753a30.9959,30.9959,0,0,1,1.14164-3.75017,1.8544,1.8544,0,0,1,1.02237-1.04544c1.901-.52135,3.83263-.93647,5.76207-1.3488.92159-.197,1.42369.27854,1.5847,1.16764.68274,3.77007,1.38292,7.53709,2.0435,11.311.18425,1.0524.22617,2.12878.38506,3.18647.17,1.1323-.43268,1.55049-1.4264,1.62905-1.31113.10359-2.62548.26527-3.93619.24641-1.15459-.01663-1.5781.42372-1.39646,1.5224.32255,1.95108.64294,3.90254.95159,5.77695,2.28029,0,4.29146.00147,6.30262-.00315.14007-.00033.27917-.059.42021-.06823,2.80477-.18285,3.69009.423,3.951,3.18077.33661,3.55813.40687,7.14059.70716,10.70295.20828,2.471.61974,4.92463.92395,7.388.202,1.63527.39937,3.27185.55108,4.91222.0877.94839-.29973,1.48745-1.37159,1.52633-3.08973.1121-6.1779.27608-9.2644.45832-.59675.03523-1.1778.31952-1.7752.36206-2.57565.18343-5.15379.346-7.73385.435a1.17911,1.17911,0,0,1-.832-.784c-.58779-5.0394-1.18207-10.07983-1.63253-15.13262-.25875-2.90188-.22141-5.82879-.40114-8.73931-.07658-1.2403.10826-2.072,1.55032-2.32581C139.74861,106.42146,142.13053,105.8666,144.34977,105.40318Zm-5.211,27.06986c2.56081-.24941,4.60966-.46377,6.66146-.64477,2.20409-.19444,4.40885-.39483,6.61753-.51833,1.07381-.06,2.157.06741,3.2363.077,1.19613.01067,1.72835-.5619,1.56657-1.78281-.346-2.6106-.661-5.22528-.98382-7.83888a30.95256,30.95256,0,0,1-.39256-3.492,48.28859,48.28859,0,0,0-.88369-10.08039,1.79239,1.79239,0,0,0-1.88273-1.55647,19.82359,19.82359,0,0,0-3.24154-.10108c-3.36491.40173-6.71884.89964-10.0711,1.39946-2.10966.31456-2.10167.34588-2.04985,2.3564.00726.2816-.05255.56451-.052.84676.004,2.2595.02,4.519.021,6.77848.00035.74063.15132,1.32117,1.07423,1.31375,1.84355-.01482,3.7.11856,5.52809-.05289,3.28732-.30832,6.55445-.827,9.83962-1.1656.363-.03741.78846.52546,1.18495.80993-.36509.25371-.70743.68018-1.09916.73121-1.68785.21984-3.38967.33574-5.08735.47805-3.24526.272-6.48788.64836-9.73858.74245-1.12466.03256-1.46849.24568-1.35867,1.27575C138.38459,125.39909,138.74173,128.74907,139.13877,132.473Zm11.08548-38.70538c-.69906-3.42449-1.44331-6.84074-2.0767-10.27723-.28479-1.54509-1.08718-1.96666-2.47267-1.473-1.35256.48192-3.11.39143-3.62966,2.17974-.81041,2.78892-1.6294,5.5801-2.28918,8.40632-.67652,2.898-.5932,3.05674,2.38584,3.02535,2.12942-.02242,4.19167,1.00855,6.40824.1132C149.61723,95.311,150.24954,95.03591,150.22426,93.76766Z"/><path class="b" d="M130.0084,70.63523c-3.961.34545-6.79722-1.28629-8.17337-4.99539a6.0362,6.0362,0,0,1,.54271-5.67691c1.41685-2.01564,3.01937-3.90833,4.62692-5.78161.64065-.74651,1.409-1.1473,2.38275-.1363.37034.3845,1.33856.29894,2.02589.26388,4.09561-.20893,9.66558,4.13687,8.4219,9.51075-.9294,4.01592-4.06491,7.102-8.69367,6.81863C130.76518,70.61521,130.38617,70.63523,130.0084,70.63523Zm-7.23407-7.47529a11.67926,11.67926,0,0,0,.61675,2.41477,6.44037,6.44037,0,0,0,6.8033,3.74874c1.03314-.09094,2.05406-.31311,3.0831-.4574a6.285,6.285,0,0,0,5.33908-6.94267,6.9668,6.9668,0,0,0-8.44135-6.01749,7.885,7.885,0,0,1-1.96469.25413,2.40537,2.40537,0,0,0-2.31721,1.313,11.89513,11.89513,0,0,1-1.65972,2.54222A4.081,4.081,0,0,0,122.77433,63.15993Z"/><path class="b" d="M143.792,122.93722c2.02826-.28513,4.053-.601,6.08766-.82939a3.54913,3.54913,0,0,1,1.27361.37811c-.3007.354-.56185.96664-.9086,1.01972-2.12036.32458-4.25721.56391-6.39683.714-.29617.02078-.70826-.57129-.914-.96037-.05856-.11071.42146-.5063.65447-.77125Z"/><path class="b" d="M130.66078,60.3362c.03973.49439.04421,1.0147.12979,1.52141.19432,1.15041,1.032.92959,1.85793.90374a3.85355,3.85355,0,0,1,1.31158.47376c-.31053.39556-.56,1.04317-.944,1.13527a6.85832,6.85832,0,0,1-2.65247.11191,1.63454,1.63454,0,0,1-.9344-1.15264,18.09836,18.09836,0,0,1-.24576-3.49754c.0099-.43446.43594-.85956.67222-1.28892.2865.45114.58626.89484.84886,1.35936C130.76029,60.00122,130.68061,60.17577,130.66078,60.3362Z"/></svg>