<svg xmlns="http://www.w3.org/2000/svg" viewBox="0 0 200 200"><defs><style>.a{fill:#1586c8;}</style></defs><title>router</title><path class="a" d="M118.45312,142.89295c-3.44551,3.50459-7.49379,2.77977-11.56032,3.0178.11946,1.10767.21869,2.02795.31332,2.90554,1.52358.24909,2.87943.38832,4.19315.7031,2.55734.61273,2.85252,1.45665,1.2356,3.9634-2.20309-.31792-4.53583-.74863-6.88835-.959a29.98008,29.98008,0,0,0-4.33114.14932c-2.17057.12332-4.33794.3494-6.50957.39617-3.07154.06614-6.14625-.02511-9.21853.02139-1.15865.01753-2.25.032-3.1066-.95337.24976-1.69315,1.40968-2.06023,2.79709-2.1271,1.19725-.05771,2.3946-.11206,3.81456-.17829.02974-1.52731.05566-2.85738.08515-4.37227-.79207-.12288-1.49166-.22435-2.1887-.34081-2.3092-.38583-4.63589-.69215-6.92112-1.18915-2.496-.54284-4.115-3.88232-3.22523-6.29479a7.22631,7.22631,0,0,0,.52991-2.34375c.03551-2.99221-.03709-5.98556-.05717-8.97856-.01518-2.26225-.0011-4.52469-.01921-6.78686-.03353-4.19284-.08893-8.38547-.11439-12.57831-.0039-.64635.14525-1.293.15053-1.94015.0185-2.28756-.1164-2.81085,3.25472-2.93257,2.74909-.09923,5.49122-.40217,8.24041-.48828,1.84369-.05776,3.69393.13778,5.542.16061,1.77132.02185,3.5458.01624,5.315-.06337a33.44429,33.44429,0,0,1,13.17449,1.5428,4.10874,4.10874,0,0,0,1.09975.03477c.01075-2.81752.029-5.53641.02915-8.25525.00036-2.75247-.07814-5.50663-.00232-8.25676a4.64409,4.64409,0,0,0-1.3881-3.74153,1.87029,1.87029,0,0,1-.61694-2.17c.47455-1.31936,2.50758-2.59179,4.29353-2.7275a3.8256,3.8256,0,0,1,3.59971,2.07006,2.30742,2.30742,0,0,1-.40823,3.11879c-1.94594,1.47068-1.79658,3.53787-1.75716,5.525.07859,3.95386.29093,7.906.49787,11.85623.19768,3.77366.84192,7.56858.602,11.31-.35781,5.57894.74868,11.13634-.21143,16.72964-.51274,2.987-.18875,6.11889-.22673,9.18559C118.44779,139.67374,118.45706,141.44227,118.45312,142.89295ZM80.29628,105.4793c-.07.89568-.1973,1.69883-.184,2.49966.05495,3.32167.18551,6.64223.22529,9.96394.04359,3.636.01068,7.27292.02546,10.90937.00687,1.69836.03809,3.39679.07526,5.09483.0492,2.24561.115,4.49082.17308,6.715a29.86335,29.86335,0,0,0,3.925,1.20285,105.7835,105.7835,0,0,0,20.108.89235c1.18921-.03958,2.37158-.3554,3.55873-.36638a13.05052,13.05052,0,0,0,4.42895-.83652,3.02748,3.02748,0,0,0,2.34094-2.76845c.09807-1.84486.12831-3.69343.23321-5.5378.20711-3.64055.5838-7.27738.63489-10.91933.06024-4.28958-.1158-8.58415-.25809-12.87427-.076-2.29208-.13594-2.30926-2.40994-2.937-1.01176-.27922-2.05532-.441-3.07515-.69334a45.61142,45.61142,0,0,0-13.247-1.11389,20.63289,20.63289,0,0,1-5.0551-.01021c-3.18794-.65579-6.29287.27352-9.43915.14006A6.54205,6.54205,0,0,0,80.29628,105.4793Zm12.02146,44.6089c2.95047-.14047,5.7395-.25349,8.526-.4116,2.74448-.15571,3.15843-.71379,2.81284-3.63425-2.55753-.1089-5.11365-.29558-7.67061-.30933C91.563,145.70923,92.30026,145.74344,92.31774,150.0882Z"/><path class="a" d="M139.4049,76.3277c.2549.83678.43534,1.429.6606,2.16835a13.90292,13.90292,0,0,1-9.03487,2.00945,1.59577,1.59577,0,0,1-1.43323-1.87737c.03959-.91351.71873-1.38877,1.69307-1.28167a5.14956,5.14956,0,0,1,.72194.05463C134.56844,78.0649,137.057,78.14481,139.4049,76.3277Z"/><path class="a" d="M113.72434,65.9621c-2.03707,1.22937-2.09237,1.22732-3.30808-.00128-.33889-.34246-.60811-.87123-1.01373-1.01066-2.13781-.73476-1.89477-2.57806-1.99021-4.21265-.02636-.45138.41011-1.29475.69276-1.32076a2.07289,2.07289,0,0,1,1.63338.61213C111.10795,61.90288,112.34244,63.87556,113.72434,65.9621Z"/><path class="a" d="M120.94726,65.74651c.9929-1.30087,1.91635-2.40665,2.72291-3.592,1.20167-1.76606,2.83668-2.06984,5.12277-.60464-.87054.83051-1.7004,1.60405-2.50917,2.399-.80063.787-1.58259,1.59319-2.36828,2.39532C122.60383,67.683,121.92783,67.551,120.94726,65.74651Z"/><path class="a" d="M102.56786,75.09791c-1.48915-1.1003-3.05619-2.18188-4.50666-3.4021a1.55392,1.55392,0,0,1,.04914-1.49439,1.85866,1.85866,0,0,1,1.46865-.43189,6.50922,6.50922,0,0,1,1.4987.693c.889.364,1.82319.62815,2.68484,1.045.59684.2887,1.40032.65838,1.58443,1.17847.31516.89008-.4634,1.44869-1.24165,1.80476C103.67064,74.68966,103.21572,74.84429,102.56786,75.09791Z"/></svg>