<svg xmlns="http://www.w3.org/2000/svg" viewBox="0 0 200 200"><defs><style>.a{fill:#fdb635;}</style></defs><title>shopping</title><path class="a" d="M114.14221,99.90872c1.70181,0,3.20306-.03066,4.70249.00823,1.64744.04272,3.29344.215,4.93966.209a44.41718,44.41718,0,0,0,4.46986-.28492c1.50789-.15847,2.03316.08442,2.43686,1.53214.32323,1.15938.53644,2.35055.77366,3.53259,1.09966,5.48,1.30972,11.05292,1.75894,16.60287.175,2.16154.5808,4.30386.85939,6.4578.12146.93976.18744,1.8867.26819,2.72213-1.23832.65064-2.19915,1.22816-3.22192,1.65849a2.67567,2.67567,0,0,1-1.49622.05178,21.25843,21.25843,0,0,0-8.06351.17911c-2.88393.48754-5.83185.60543-8.75444.85388-2.84991.24227-5.69994.50933-8.5556.64909a64.59284,64.59284,0,0,0-9.60448,1.22966,25.4455,25.4455,0,0,1-3.82728.30246c-2.68448.12445-5.37051.21527-8.348.33128l.55641-2.359c-1.36453-.753-1.23046-2.265-1.36708-3.6327-.15581-1.56-.14441-3.13609-.23877-4.7032a3.755,3.755,0,0,0-.345-.92383c-3.59819,1.47871-7.39212,1.14289-11.07062,1.63118-2.21972.29466-2.96468-.64938-2.79267-2.89663.35055-4.5784.75823-9.154,1.00436-13.73824.15724-2.92788-.01206-5.87219.10426-8.80361.24142-6.07971.28954-12.18806.97184-18.22192.45514-4.02552-.22854-4.34988,4.47484-4.32289a75.97878,75.97878,0,0,0,8.18448-.78531,5.92162,5.92162,0,0,0,.56072-4.136c-.58976-3.32,2.79742-7.45633,5.746-7.92538a8.63278,8.63278,0,0,1,7.526,2.22054c2.13211,2.065,3.98237,4.34356,4.11732,7.51839.04541,1.06785.66227,1.4512,1.60706,1.47673,1.86928.05051,3.74067.13677,5.6084.09208,1.36752-.03272,2.02968.2608,2.32226,1.83576.56321,3.0317.944,6.09714,1.4111,9.147.32887,2.14735.60121,4.30727,1.03854,6.43279a36.63709,36.63709,0,0,0,1.32814,4.52855A7.62074,7.62074,0,0,0,114.14221,99.90872Zm14.867,2.84368a66.98873,66.98873,0,0,0-8.1451-.83586c-4.88507.07578-9.76958.447-14.64436.82361-2.69532.20825-5.36144.81653-8.05721.993-3.22723.21127-6.47188.16793-9.70935.20793-1.807.02234-3.61473-.00561-5.42206-.01927-1.07587-.00813-1.7366-.36979-1.306-1.90506,9.61272-.54561,19.36134.13873,29.14923-2.15681-.37146-1.854-.7001-3.60561-1.07858-5.34642-.28567-1.31361-.73871-2.598-.93517-3.92236-.45088-3.03968-.73921-6.10372-1.20485-9.14081a16.13143,16.13143,0,0,0-.97018-2.83588,30.3396,30.3396,0,0,1-3.44332.2681c-.98859-.0371-1.98034-.78741-3.14421.17274a14.1573,14.1573,0,0,0,1.11564,2.14764c1.38981,1.84358,1.47985,2.67711.2886,4.54157A2.75568,2.75568,0,0,1,98.1597,86.7661c-2.4049-1.57042-2.53548-4.29513-.197-6.086-.07234-.667-.15094-1.3921-.23423-2.16015a38.2556,38.2556,0,0,0-12.2852.65176c.301,1.34987.23479,2.80649.91376,3.69126,1.04457,1.3611.526,2.45386-.02334,3.54755-.61758,1.22958-2.56717,1.36315-3.773.421a2.031,2.031,0,0,1-.18451-3.09244,3.24858,3.24858,0,0,0,.16692-3.70879,1.80917,1.80917,0,0,0-1.34208-.55561c-2.97286.29563-5.93677.68157-9.004,1.0505a11.27432,11.27432,0,0,0-.56686,1.96889c-.42334,4.27394-.92366,8.54609-1.15187,12.832-.25188,4.7302-.19613,9.47594-.35542,14.21218-.12422,3.69318-.39955,7.38112-.54568,11.07386a14.69742,14.69742,0,0,0,.2735,2.4198c4.06063.99007,7.4597-1.28284,11.12863-1.06848.10464.0061.22079-.18569.21919-.18428-.19026-4.82245-.34944-9.54719-.5818-14.26833-.05979-1.21489.00785-2.23951,1.641-2.84452.16067,2.20349.3037,4.27041.46332,6.33605.45221,5.85192.93732,11.70148,1.35059,17.55613.11255,1.59458.017,3.20385.017,4.89063,2.26607,0,4.58125.00909,6.89627-.00486a16.26691,16.26691,0,0,0,2.48426-.11449,98.72553,98.72553,0,0,1,13.855-1.52455c4.42854-.08608,8.85062-.68456,13.26744-1.13683,3.35422-.34346,6.69572-.81116,10.29673-1.25484a23.31177,23.31177,0,0,0,.65066-4.24137c-.06178-2.99912-.53091-5.9911-.56725-8.98922A69.42351,69.42351,0,0,0,129.00919,102.75239ZM85.62351,76.62272l11.41718-.5969A7.64875,7.64875,0,0,0,90.67,67.84927a3.74068,3.74068,0,0,0-4.04785,1.66292C84.96489,71.707,84.96782,74.02644,85.62351,76.62272Z"/><path class="a" d="M95.48263,107.55721a15.231,15.231,0,0,1,2.9222-.60272,2.49591,2.49591,0,0,1,2.28581,3.35488,6.36022,6.36022,0,0,0,.0833,3.76057,38.38559,38.38559,0,0,1,.80961,4.19465,3.36215,3.36215,0,0,0,2.07625,2.46844,8.14219,8.14219,0,0,0,8.873-2.05632,5.791,5.791,0,0,0,.39225-7.37418c-.2229-.30281-.49789-.56973-.70093-.88418-.6188-.95829-.644-2.52038.23556-3.09775a4.77372,4.77372,0,0,1,3.04554-.92484c.69712.12024,1.19844,1.37583,1.57382,1.854-.16831,2.55572-.33921,4.78068-.45636,7.00846a9.25532,9.25532,0,0,1-8.1998,8.23388,12.69815,12.69815,0,0,1-7.36922-1.59812,2.82894,2.82894,0,0,1-1.21863-1.48793,43.67142,43.67142,0,0,1-1.13787-4.80831c-.316-1.69453-.43987-3.36529-2.26518-4.35617C95.17589,110.55967,95.61067,109.10923,95.48263,107.55721Z"/></svg>