<svg xmlns="http://www.w3.org/2000/svg" viewBox="0 0 200 200"><defs><style>.a{fill:#1586c8;}</style></defs><title>speaker</title><path class="a" d="M94.93276,148.73634c-2.906.11412-5.8114.25667-8.7185.32809-1.13587.02792-2.27687-.0867-3.41347-.1659-5.821-.40563-11.64617-.7652-17.45955-1.26164-2.17589-.18581-4.32207-.70922-6.48543-1.05619a24.742,24.742,0,0,0-2.53249-.29856c-2.35733-.13142-2.7029-1.17765-2.7591-2.93846-.089-2.78822.25421-5.53181.40537-8.2965.22921-4.192.19771-8.405.11111-12.60567-.07929-3.84426-.4573-7.68182-.56-11.52618-.11408-4.271-.10838-8.5468-.06729-12.81965a47.88258,47.88258,0,0,1,.41919-5.32607c.17406-1.42555,2.33064-3.03082,3.71325-3.03553,3.77442-.01281,7.54847-.10756,11.32292-.14174,1.99172-.018,3.98576.08257,5.97561.02379,3.71221-.10967,7.38277.33236,11.07361.59041,5.01186.3504,10.05395.332,15.08321.3374,1.91432.00208,3.82552-.41778,5.74459-.55494,2.12909-.15223,4.267-.17642,6.39845-.301,3.12325-.1826,6.24146-.49553,9.36674-.58963,5.05713-.15225,10.08246-.8803,15.1734-.54815a63.075,63.075,0,0,0,9.14944-.25757c2.75085-.22244,3.71521,1.58213,4.0534,3.70947.6,3.77457.97373,7.58515,1.43962,11.381a5.81423,5.81423,0,0,1,.069.85341c-.10522,4.02331-.27549,8.04585-.316,12.06973-.05815,5.77249-.12546,11.54876.03469,17.31723a20.82257,20.82257,0,0,0,1.30632,5.13442c.809,2.70952-1.16578,5.995-3.97162,6.27393-2.97657.2959-5.977.34336-8.96038.58163-2.69454.21518-5.37863.55736-8.07005.81547-5.8145.55766-11.62915,1.11441-17.44684,1.63726-2.97838.26768-5.96067.51027-8.94607.67646-3.70141.20607-7.40787.32124-11.11215.47567Zm55.25794-6.08106a25.24476,25.24476,0,0,0,.57674-3.94685c-.06987-4.18959-.33342-8.37583-.41292-12.56543-.06488-3.416-.01223-6.83588.06-10.25252a95.39044,95.39044,0,0,0-.6527-16.83335c-.31778-2.03211-.48213-4.08932-.68284-6.13835a2.87645,2.87645,0,0,0-3.24643-2.82079c-3.34316.09084-6.68737.16236-10.0285.30436q-7.02591.29859-14.04757.69485c-2.41185.13336-4.85569.69742-7.22035.44946-3.96667-.41586-7.83253.248-11.71617.59a60.588,60.588,0,0,1-7.86432.29258c-5.959-.24984-11.9129-.638-17.87339-.83218a85.90955,85.90955,0,0,0-11.92879-.01747c-2.46271.26141-4.96842.1149-7.45471.15854-.69206.01214-1.3837.04937-2.15858.07821a13.25076,13.25076,0,0,0-.21522,1.59926c-.02184,4.7072-.12606,9.41718-.00323,14.12105.1321,5.0568.55285,10.10569.71384,15.16231.11085,3.48334.03831,6.9749-.03489,10.461-.06127,2.91854-.16931,5.84028-.39761,8.74956-.13875,1.7678-.00294,2.09571,1.74122,2.36412,2.10175.32347,4.19939.6732,6.29963,1.00659,2.4594.39044,4.90725.9336,7.38229,1.12752,4.17823.32739,8.37237.48844,12.563.60692,2.12883.0602,4.26426-.13607,6.39728-.19674,3.5435-.10077,7.07828.98828,10.63132.08174.19232-.04906.42173.07178.63381.07158,1.27808-.00109,2.56.04656,3.83352-.03473,4.67645-.29858,9.35328-.6017,14.02378-.97982,3.90458-.31611,7.80277-.71713,11.69968-1.12033,5.72127-.592,11.43925-1.21588,17.15754-1.83626C148.66342,142.92449,149.354,142.78673,150.19071,142.65528Z"/><path class="a" d="M39.42953,65.02246c-1.25181.77552-2.18384,1.26772-3.01764,1.89124-1.02174.76405-1.959,1.64079-2.93714,2.46356a1.90534,1.90534,0,0,0-.78672,2.06657c.7693,2.86663,1.38092,5.78826,2.35254,8.58474,1.26732,3.64761-1.0717,6.07011-6.30935,5.79379-.992-.05233-1.55745,1.232-1.59488.236-.101-2.69026.78531-5.78821,3.87918-6.93185.93876-.347,1.08516-.96186.88179-1.86432-.48377-2.14666-.92426-4.30377-1.34151-6.46452-.40105-2.07661-.29859-1.965,1.33421-3.09114,2.09023-1.44159,4.04425-3.08237,6.0372-4.66225.50067-.39689.87295-.97149,1.40246-1.31135.428-.27469,1.15271-.58526,1.47855-.40276a2.32844,2.32844,0,0,1,1.0076,1.47765c.332,1.95876.50393,3.94434.7503,5.918a2.81066,2.81066,0,0,0,1.76929,2.44411c1.30456.555,1.77183,1.32085,1.3675,2.64876A7.52737,7.52737,0,0,1,42.229,78.48384a2.423,2.423,0,0,1-3.71357-2.02805,3.87284,3.87284,0,0,1,1.07319-3.35452,3.00724,3.00724,0,0,0,.97678-3.0685C40.28711,68.51711,39.89,67.02325,39.42953,65.02246Z"/><path class="a" d="M73.26465,51c.83529,1.11839,1.538,2.08249,2.26571,3.02734.8176,1.06162.17969,1.964-.46485,2.66331a2.21842,2.21842,0,0,0-.51986,1.897c.061,1.69645-.11249,3.40078-.176,5.10245-.04766,1.27792-.15611,2.56131-.08563,3.83385a3.34948,3.34948,0,0,1-1.60377,3.27479,48.36924,48.36924,0,0,1-5.59707,3.01568c-1.37321.602-2.388-.3089-2.43663-1.89059-.07587-2.46884.5112-3.44057,2.79634-4.40933a31.49666,31.49666,0,0,1,3.60179-1.30315,1.68092,1.68092,0,0,0,1.36438-1.63684,41.65612,41.65612,0,0,0-.30364-9.77743C71.96356,53.48753,71.72507,52.08961,73.26465,51Z"/><path class="a" d="M166.41659,65.72583l.80282,2.08022A40.46226,40.46226,0,0,0,155.485,76.28978c-.19689.19914-.48637.514-.6726.47647a3.31009,3.31009,0,0,1-1.42373-.60595c-.12617-.10352.03737-.8671.28221-1.06715q2.883-2.35548,5.8593-4.59617c1.75479-1.32423,3.5507-2.59433,5.34033-3.8717C165.2618,66.346,165.70331,66.13718,166.41659,65.72583Z"/><path class="a" d="M143.35681,72.53947c.35886-1.28751.66322-2.23371.88293-3.19917q.614-2.69837,1.14013-5.4164c.14567-.75394-.00038-1.67573,1.17151-1.65686a1.78919,1.78919,0,0,1,1.19675,2.16563c-1.32441,2.52051-1.47925,5.28121-1.917,7.9943a1.35537,1.35537,0,0,1-1.73189,1.12192C143.70859,73.35407,143.51353,72.7669,143.35681,72.53947Z"/><path class="a" d="M163.14245,83.17729c2.24071-.8441,4.01662-1.503,5.78408-2.18384.72956-.28105,1.42207-.67245,2.1669-.89493a3.86672,3.86672,0,0,1,1.674-.12921c.34319.05575.897.47711.88333.70633a1.60519,1.60519,0,0,1-.64889,1.18924,6.33421,6.33421,0,0,1-2.41973.76035,11.25239,11.25239,0,0,0-5.28673,2.04878,1.68067,1.68067,0,0,1-.76794.35234,2.84961,2.84961,0,0,1-1.53812-.273c-.2094-.15063-.03585-.87819.0244-1.33777C163.0389,83.22339,163.21841,83.05148,163.14245,83.17729Z"/><path class="a" d="M95.55879,96.87735c1.80248,1.898,4.03471.48392,5.813,1.42505.33171-1.00024-.44843-2.11588.83263-2.40144a1.18444,1.18444,0,0,1,.91494.29741c.78367.75215-.10065,1.35818-.50777,2.21226,2.05425.20921,3.87485.426,5.70123.56912,1.13475.089,2.27828.08819,3.41785.08806,1.25595-.00019,2.41435.15425,2.979,1.76554.51469-.64563.879-1.1026,1.46036-1.83183.37251.68718.636,1.17329.9928,1.83148-.832.26041-1.41079.44159-2.29293.7177-.14733,2.03921-.33771,4.19644-.44531,6.35784-.05666,1.13878-.26914,1.51114-1.36956,1.24123-2.798-.68632-5.55041-.17757-8.26529.28884a21.06079,21.06079,0,0,1-7.82794-.55147c-2.09053-.41708-4.151-.98236-6.23551-1.43266a1.8845,1.8845,0,0,1-1.60763-1.98413c.042-1.57055-.63681-3.31677.82486-4.64673-.10641-2.08879,1.47549-2.23057,2.92706-2.65567A17.51743,17.51743,0,0,0,95.55879,96.87735Zm-5.04732,4.79532c.12206,1.16044.25954,2.46732.38334,3.64438,2.18749.5874,4.08052,1.24639,6.02923,1.57932a32.74576,32.74576,0,0,0,6.75879.624,77.57906,77.57906,0,0,0,7.9071-1.09238l.17787-4.796a9.6029,9.6029,0,0,0-1.75548-.45412c-1.406-.11826-2.82624-.06989-4.23129-.19506-2.33278-.20789-4.65524-.53176-6.98789-.74192a37.68052,37.68052,0,0,0-4.00285-.13777,5.56583,5.56583,0,0,0-1.8334.41138C92.18824,100.80645,91.46354,101.21425,90.51148,101.67267Z"/><path class="a" d="M128.40426,126.94642c-.23767.45708-.37868,1.17944-.71167,1.28273a2.13832,2.13832,0,0,1-2.58847-.71676C125.88557,125.90113,125.88557,125.90113,128.40426,126.94642Z"/><path class="a" d="M116.23952,141.37094c.02078-.56031-.12039-1.08967.07984-1.31315a10.79142,10.79142,0,0,1,1.85181-1.54684c.10963-.07735.45639.18148.80287.33269A3.81457,3.81457,0,0,1,116.23952,141.37094Z"/><path class="a" d="M63.64,105.84041c-.644.48917-1.185,1.041-1.30048.963a7.00386,7.00386,0,0,1-1.18958-1.2639c.3575-.26316.74481-.76857,1.06509-.72915C62.63226,104.86169,62.99626,105.34527,63.64,105.84041Z"/><path class="a" d="M127.65672,136.7519c1.66063.1265,1.68833.1704,1.40345,2.43206l-1.44634-.17069.08413-2.26845Z"/><path class="a" d="M80.77193,123.80939c.40485.61933.85966,1.017.90674,1.45828.06761.634-.25247,1.361-1.03859,1.22064-.274-.04892-.54029-.84289-.572-1.31263C80.04507,124.83446,80.4136,124.46681,80.77193,123.80939Z"/><path class="a" d="M140.49312,126.51077c.38992,1.31832.19126,2.04462-.578,2.42178-.30756.15079-.83091-.1386-1.7418-.32931C139.08827,127.77795,139.65639,127.26551,140.49312,126.51077Z"/><path class="a" d="M122.86775,99.95518c-.38506,1.70862-.577,1.84157-2.24954,1.77035C120.97132,100.54718,121.89344,100.22039,122.86775,99.95518Z"/><path class="a" d="M73.65121,136.32317c-.36321.49126-.59268.82952-.85089,1.14417-.36821.44875-.87913.6284-1.17086.0543a1.5319,1.5319,0,0,1,.21693-1.24365C72.11571,135.85451,72.48627,135.90651,73.65121,136.32317Z"/><path class="a" d="M110.369,95.35271c1.16935.70366.89886,1.34822.20831,1.91186a.907.907,0,0,1-.86751.01726C109.02974,96.39676,109.81118,95.95306,110.369,95.35271Z"/><path class="a" d="M146.62823,127.681l.13354,1.617-2.363.10415c.744-.80862,1.25317-1.3621,1.7624-1.91555Z"/><path class="a" d="M85.29191,132.50747c.48214,1.64906.48214,1.64906-1.116,1.61712C84.23159,132.93773,84.23159,132.93773,85.29191,132.50747Z"/><path class="a" d="M100.63258,127.97453c.55431,1.52183.55431,1.52183-.44561,2.63817C99.42954,129.52126,99.47377,129.25937,100.63258,127.97453Z"/><path class="a" d="M84.20379,106.30859c.0525.66363.105,1.32726.15866,2.00573-1.10764.29129-1.48262-.337-1.54953-.88758-.04763-.39188.43227-.84786.67672-1.27522Z"/><path class="a" d="M130.41829,128.03609c.85092.24649,1.497.59442,1.12237,1.59338a.90883.90883,0,0,1-.83606.31289C129.7792,129.50772,129.80807,128.84017,130.41829,128.03609Z"/><path class="a" d="M83.81339,127.62546c.92272.12873,1.32554.54025,1.0359,1.31688-.08383.22478-.635.50723-.815.424C83.26231,129.00938,83.37807,128.39087,83.81339,127.62546Z"/><path class="a" d="M75.71464,119.34192c-.34708,1.06786-.54926,1.69-.7726,2.37717C73.465,120.6044,73.4938,120.48258,75.71464,119.34192Z"/><path class="a" d="M88.43392,97.59294l-.83286,1.10151c-.78422-.30537-1.48693-.56254-1.52426-1.92257C86.96154,97.08006,87.6029,97.30349,88.43392,97.59294Z"/><path class="a" d="M61.5288,116.4724l2.55292-1.19642c-.24048.95157-.376,1.4878-.56492,2.23522C62.89786,117.18776,62.458,116.95791,61.5288,116.4724Z"/><path class="a" d="M140.90924,138.358c-.61351-1.556.29339-1.82049,1.27988-2.29913C142.02048,137.47111,142.02048,137.47111,140.90924,138.358Z"/><path class="a" d="M76.80675,109.05185c-.29543.57065-.59084,1.1413-.90951,1.75692C74.56828,109.601,74.58654,109.55413,76.80675,109.05185Z"/><path class="a" d="M88.38828,123.88738c-.87095-.42679-1.3121-.88775-.72355-1.7003.12748-.176.57539-.33916.714-.25177C89.17038,122.43454,89.06175,123.05983,88.38828,123.88738Z"/><path class="a" d="M141.11642,98.09539c-.54709.45029-.889.92529-1.1182.876-.36666-.07875-.65857-.50548-.98212-.7851.21436-.23374.44048-.67025.64057-.65864A5.58567,5.58567,0,0,1,141.11642,98.09539Z"/><path class="a" d="M83.97721,138.50121c-.42358.40116-.678.82774-.98458.86924-.21538.02914-.70446-.467-.70327-.727a1.094,1.094,0,0,1,.64688-.8455C83.17915,137.74583,83.52554,138.1756,83.97721,138.50121Z"/><path class="a" d="M132.74517,104.04332c.11061.41163.242.6253.19929.79534a6.56443,6.56443,0,0,1-.47679,1.26963.76088.76088,0,0,1-.56443-.1235,1.06762,1.06762,0,0,1,.11653-1.5279A3.59135,3.59135,0,0,1,132.74517,104.04332Z"/><path class="a" d="M117.242,131.32065c1.03964,1.05362.17316,1.71294-.28926,2.42A2.085,2.085,0,0,1,117.242,131.32065Z"/><path class="a" d="M103.79371,122.52359c.00432-.77459.19172-1.40036,1.12985-1.26159.18839.02788.48463.5497.43154.7724C105.13962,122.93885,104.56679,123.04042,103.79371,122.52359Z"/><path class="a" d="M129.75124,119.47549c.50157-.62525,1.105-.784,1.57772-.14586a1.28879,1.28879,0,0,1-.35809,1.18419C130.16583,120.79029,129.91547,120.14281,129.75124,119.47549Z"/><path class="a" d="M83.04125,97.55453c.2033.05313.32209.06411.32469.0878.07523.68707.27946,1.43669-.6649,1.717a.40459.40459,0,0,1-.355-.16347C81.94382,98.31836,82.59687,97.9693,83.04125,97.55453Z"/><path class="a" d="M110.62379,137.21521c-.18094,1.9571-.18094,1.9571-1.62558,1.19183C109.602,137.96437,110.11286,137.58978,110.62379,137.21521Z"/><path class="a" d="M64.98607,102.6562c-.28583-.6103-.609-.98006-.55578-1.2838a1.01394,1.01394,0,0,1,.79837-.61916c.28726.03176.79279.56008.74022.71077C65.83568,101.84577,65.44335,102.13712,64.98607,102.6562Z"/><path class="a" d="M126.91827,112.38479c.25595,1.063.40691,1.776-.69188,2.253C125.7202,113.73976,125.80915,113.10861,126.91827,112.38479Z"/><path class="a" d="M80.57563,132.89214a4.49811,4.49811,0,0,1-.2098,1.388c-.12312.25205-.60583.32844-.92726.48361-.0828-.36006-.30916-.765-.214-1.06945a4.94364,4.94364,0,0,1,.77748-1.1856Z"/><path class="a" d="M96.141,135.08641a9.96477,9.96477,0,0,1,.217,1.43731c-.01823.50719-.18146,1.08434-.82277.80318a1.33193,1.33193,0,0,1-.45948-1.11906C95.10367,135.917,95.56193,135.66739,96.141,135.08641Z"/><path class="a" d="M78.17786,95.82028c.0206.80856-.06647,1.4152-.91931,1.38425-.16328-.006-.43208-.36725-.449-.58069C76.73661,95.70089,77.33648,95.67444,78.17786,95.82028Z"/><path class="a" d="M121.84778,123.6607c-.51572-.83669-.40291-1.43779.452-1.72112a.9106.9106,0,0,1,.77537.43809C123.22257,123.29725,122.57551,123.50819,121.84778,123.6607Z"/><path class="a" d="M95.94937,113.93542c.35569.52643.72361.83306.72363,1.13975,0,.29045-.38589.58091-.60206.87136-.26657-.27122-.70025-.51491-.75082-.82171C95.27329,114.84051,95.636,114.48876,95.94937,113.93542Z"/><path class="a" d="M77.345,116.342q-.31843.73083-.63689,1.46165c-.26021-.16441-.66759-.27347-.7541-.50324C75.65011,116.49276,76.17277,116.21732,77.345,116.342Z"/><path class="a" d="M79.24,107.56834c-.94872-.757-.98468-1.43132-.069-2.28031C80.072,106.05658,80.06881,106.73257,79.24,107.56834Z"/><path class="a" d="M128.65716,94.64013c.81008-.17732,1.3594-.03822,1.36565.82831.00123.17167-.37561.49705-.57336.49341C128.52922,95.94493,128.52689,95.34755,128.65716,94.64013Z"/><path class="a" d="M127.89133,101.79838c-.76975-1.24256.02316-1.49146.80649-1.95218C129.09009,100.81435,128.80478,101.33188,127.89133,101.79838Z"/><path class="a" d="M71.64147,98.04231c.43189.6816.288,1.181-.39,1.37766-.19085.0554-.73381-.33919-.73529-.5303C70.51054,98.16084,71.03071,97.99945,71.64147,98.04231Z"/><path class="a" d="M75.0935,101.63637c.09748,1.06133-.11281,1.66761-1.43344,1.4336C73.73284,102.14921,73.99277,101.58887,75.0935,101.63637Z"/><path class="a" d="M140.06755,112.4861l1.43361-1.56541c.42493,1.51551-.09272,1.88794-.97641,1.98835Z"/><path class="a" d="M100.62606,138.34472c1.01407.61128,1.10946,1.17957.7604,2.06463C100.39653,140.0114,100.32742,139.41079,100.62606,138.34472Z"/><path class="a" d="M91.41615,139.06222c-.60277-.9051-.49821-1.42543.36336-1.88173C92.39164,137.91413,92.37133,138.44766,91.41615,139.06222Z"/><path class="a" d="M63.93812,135.77251c.43724.85947.35863,1.45958-.58584,1.94916C62.637,136.76241,62.66319,136.14744,63.93812,135.77251Z"/><path class="a" d="M85.815,108.20414c.40348-.33773.807-.67546,1.43192-1.19854.19549,1.41376-.07484,1.9199-1.071,1.70243Z"/><path class="a" d="M127.698,136.74481c-.18366-.80432-.74007-1.67512.393-2.25372.63765.92912.63765.92912-.42228,2.256C127.65672,136.7519,127.698,136.74481,127.698,136.74481Z"/><path class="a" d="M144.80869,102.20743c-.7251.55613-.977.89849-1.20423.88286-.24123-.01662-.4591-.373-.68719-.581.25545-.27563.46889-.68656.78-.78324C143.93772,101.65126,144.30053,101.97025,144.80869,102.20743Z"/><path class="a" d="M107.89745,115.42116c.36142,1.00374.10952,1.50426-.864,1.79058C106.74281,116.29834,107.08054,115.84041,107.89745,115.42116Z"/><path class="a" d="M100.69972,114.9536c.17956,1.58772.17956,1.58772-1.35338,1.42494Z"/><path class="a" d="M90.79543,119.36548c.33143.58039.33651,1.10911-.33848,1.33943-.21228.07246-.7885-.2281-.80734-.4006C89.56222,119.50385,90.04608,119.246,90.79543,119.36548Z"/><path class="a" d="M138.51759,133.59c.56837.48833.51513.96082-.03754,1.3419-.14227.09813-.64773-.01829-.6891-.13844C137.57608,134.16912,137.87118,133.77534,138.51759,133.59Z"/><path class="a" d="M146.86136,105.91254c-.37842.33141-.59158.62469-.8723.72093-.15033.05154-.417-.23608-.63115-.37065a4.792,4.792,0,0,1,.72673-.82408C146.15691,105.38446,146.49178,105.68,146.86136,105.91254Z"/><path class="a" d="M92.52676,131.72921l-.06914,1.86426C91.28438,132.85035,91.28438,132.85035,92.52676,131.72921Z"/><path class="a" d="M116.16784,111.52183c-.12867.42072-.24383.847-.4098,1.25239a2.58851,2.58851,0,0,1-.55773-.105q.14786-.676.29568-1.352Z"/><path class="a" d="M106.85889,133.148c-1.01091-.96394-.63041-1.35167.3777-2.029C107.07871,131.96715,106.99513,132.416,106.85889,133.148Z"/><path class="a" d="M122.14265,111.69082c-.56916.52578-.89063.82277-1.2121,1.11975C120.68517,111.84436,120.94753,111.47629,122.14265,111.69082Z"/><path class="a" d="M148.21791,115.77207c-.0537.38671-.09935.77521-.18506,1.15465a1.71093,1.71093,0,0,1-.523-.066,11.297,11.297,0,0,1,.01823-1.16586Z"/><path class="a" d="M143.30259,121.03566c-.18981-.40755-.43073-.70167-.36253-.82554.136-.24691.44175-.40036.67737-.59244.14368.19779.44336.44882.39788.58212C143.9261,120.46136,143.64475,120.6574,143.30259,121.03566Z"/><path class="a" d="M145.011,135.23651l.1661-1.24195.4739.01983.01575,1.26349Z"/><path class="a" d="M136.70928,122.97152c.24053.3287.51192.53812.49675.72418-.01518.1863-.32594.496-.49024.48552a.74533.74533,0,0,1-.558-.46627C136.13507,123.53665,136.43676,123.31691,136.70928,122.97152Z"/><path class="a" d="M93.63932,125.18585a3.11694,3.11694,0,0,1,.16927-.73666c.07568-.1541.28615-.242.8174-.65716l-.46071,1.58285Z"/><path class="a" d="M72.49681,127.23175a4.25079,4.25079,0,0,1-.93134.6566c-.088.02884-.45969-.37268-.42405-.49909a.89748.89748,0,0,1,.53809-.51889C71.83688,126.82159,72.07482,127.03288,72.49681,127.23175Z"/><path class="a" d="M120.20471,125.13863c.19508.35935.41885.63006.367.70187a2.327,2.327,0,0,1-.70017.59932c-.04488.0268-.39784-.30714-.37549-.34847A8.23734,8.23734,0,0,1,120.20471,125.13863Z"/><path class="a" d="M78.57921,122.13368c-.15364-.48612-.295-.69339-.24859-.842a2.6142,2.6142,0,0,1,.41816-.63347c.13555.10841.39837.24183.38288.32057A6.56792,6.56792,0,0,1,78.57921,122.13368Z"/><path class="a" d="M113.0065,131.12311l-.46763.73932-.34166-.22121.50875-.763Z"/><path class="a" d="M135.10731,114.73579c-.15595-.20587-.38162-.3773-.36042-.509a.592.592,0,0,1,.41776-.37417c.10651-.01577.36744.25482.35452.37516C135.50182,114.38933,135.28687,114.52962,135.10731,114.73579Z"/><path class="a" d="M72.94387,106.05061c-.28085.13429-.53419.35815-.705.30691-.1573-.04718-.22584-.39008-.33346-.60272a2.80047,2.80047,0,0,1,.69137-.2779C72.66634,105.46714,72.77978,105.77,72.94387,106.05061Z"/></svg>