<svg xmlns="http://www.w3.org/2000/svg" viewBox="0 0 200 200"><defs><style>.a{fill:#1586c8;}.b{fill:#1b4e68;}</style></defs><title>stove</title><path class="a" d="M134.77579,51.64469c1.65466,6.44554.352,12.93085,1.63758,19.40533,2.66509-.67679,3.68755,1.70649,5.32655,2.94266a3.38911,3.38911,0,0,1,.77477,2.41734c.0097,4.94887-.09411,9.89794-.1478,14.84706-.01577,1.45768.06833,2.91856.00149,4.37315-.21209,4.61793-.51346,9.232-.69668,13.85092-.07048,1.77664.139,3.56265.125,5.34363-.02762,3.48445-.10387,6.96887-.19625,10.45233-.06232,2.35112-.16351,4.70187-.29119,7.0504-.09191,1.69109-.30488,3.37637-.36953,5.06786a12.942,12.942,0,0,0,.20072,2.89427c.612,3.21494-.90084,4.62343-4.20976,4.07078-2.42223-.40455-4.88476-.58993-7.33616-.7899-2.23223-.18209-4.47363-.25221-7.08015-.39139.15054.95452.2225,1.69632.39036,2.41574.36346,1.55858-.0306,2.55906-1.54252,2.993a12.54933,12.54933,0,0,1-3.28343.29711,11.2807,11.2807,0,0,1-4.26351-.25543c-1.29275-.46915-2.0958-.995-2.32812-2.38766a25.45908,25.45908,0,0,0-.82739-2.877,5.95309,5.95309,0,0,0-3.91469.19066,22.31561,22.31561,0,0,1-5.64757,1.3722c-1.89324.15-3.82951-.37857-5.74971-.40422-3.52618-.04713-7.05443.05653-10.77478.09955-.063,1.2822-.162,2.30827-.15339,3.33343.01679,1.99439-.60525,2.70361-2.51348,2.67165-2.2586-.03782-4.51785-.08377-6.77467-.1767-1.84621-.076-2.599-.85668-2.87337-2.75313-.11375-.7862-.32506-1.5583-.515-2.4441-2.64122-.15408-5.21048-.38781-7.75307.31994-2.3889.665-4.39547-.72523-6.54252-1.28787-.33941-.08894-.57846-1.09725-.61661-1.69626-.10328-1.61879-.10756-3.24647-.09-4.87.07351-6.80169.30459-13.60475.22274-20.40425-.10024-8.32683-.45762-16.65052-.69959-24.9757-.099-3.40774-.17387-6.81622-.28715-10.22346-.0403-1.21119-.21881-2.419-.23268-3.62958a3.74008,3.74008,0,0,1,3.31207-3.7971c1.43645-.226,2.87575-.43453,4.59274-.69284.03946-.96247.12583-1.89717.108-2.82986-.09589-5.02914-.22113-10.05772-.3256-15.08672-.01179-.56745.04738-1.13616.06661-1.70452.0328-.97027.51036-1.41167,1.49859-1.52819,4.40708-.51962,8.79862-1.187,13.214-1.61228a45.71653,45.71653,0,0,1,5.80472.15173c5.34792.17289,10.698.51806,16.02883-.29844,5.40406-.82769,10.80543.09133,16.20842.04676,1.78336-.0147,3.57082-.17042,5.34828-.08759,2.33884.109,4.66619.45573,7.00491.57629C130.5452,51.7242,132.49391,51.64469,134.77579,51.64469ZM58.6762,93.759c0,1.10287-.06024,1.73626.00964,2.355a81.51784,81.51784,0,0,1,.38078,14.54932c-.20673,3.12973.50763,6.21886.17369,9.402-.36911,3.51888-.01423,7.11043-.037,10.66993-.02018,3.16514-.11083,6.33015-.20226,9.4943-.02857.98868.185,1.85463,1.22412,2.10739,1.63282.39717,3.21564,1.01256,4.99822.69523a31.59981,31.59981,0,0,1,4.353-.20974c1.45835-.05356,2.92135-.0449,4.37446-.16159,3.45111-.27713,6.8764-.93717,10.37078-.40927a8.63928,8.63928,0,0,0,3.15-.10368c2.74843-.63016,5.461-.1158,8.19.0217,2.00907.10121,4.13565.585,6.01067.11078a57.608,57.608,0,0,1,15.30525-1.82289c4.02672.07741,8.04707.458,12.07253.65631,1.20371.05932,2.41813-.10386,3.6226-.05156,1.26633.055,2.53283-.22956,3.79231.474,1.40734.78616,2.06747.36211,2.22878-1.27988.30869-3.14253.57382-6.29088.7731-9.44213.16381-2.59015.21042-5.18783.30137-7.78243.09929-2.8325.21107-5.6648.2784-8.49811.07518-3.16188-.1125-6.34694.20488-9.48238a126.9228,126.9228,0,0,0,.10958-16.50659c-.00815-.28466-.23744-.563-.47673-1.09565-7.74075.39362-15.49252.7526-23.2394,1.197-3.71933.21335-7.42575.76947-11.1446.84529-5.02322.10238-9.98268.66389-14.96078,1.25449-6.02811.7152-12.09241,1.12412-18.14011,1.676a65.54511,65.54511,0,0,1-7.00979.6205c-1.94074-.03341-3.61677.21225-4.90661,1.69024C59.947,94.44359,59.54211,94.22549,58.6762,93.759ZM131.72938,54.5859c-1.2971-.17386-2.57563-.36221-3.85856-.51312-1.83794-.21618-3.67552-.5228-5.51971-.57972-3.32534-.10262-6.69746.27971-9.9737-.13848-4.7322-.60407-9.37184-.01743-14.05226.246-2.89337.16283-5.79537.18984-8.6941.22927-.9621.0131-1.92556-.16837-2.88974-.185-1.94133-.03348-3.88362-.02208-5.82549-.01519a34.33964,34.33964,0,0,0-3.87166.07271c-3.46153.407-6.91187.90971-10.36358,1.39649a6.2691,6.2691,0,0,0-1.13918.40192c.38727,6.45207.76787,12.793,1.1471,19.11036,2.283.0858,2.283.0858,3.72088-.93843.11262-1.52215.13548-2.86536.331-4.183a2.06822,2.06822,0,0,1,2.30872-1.9487,24.259,24.259,0,0,1,3.10063.35066c.95477.16713,2.00991,1.27911,1.9308,1.90766a2.27951,2.27951,0,0,1-2.3142,1.69294c-.53888-.00676-1.07728-.04558-1.81258-.07877.10054,1.03263.18274,1.8773.25179,2.58649H89.72391c1.08132-2.81624-2.13009-2.62859-2.62307-4.43549,1.4643-2.35915,3.70814-1.03385,5.20018-1.17232,2.746,1.30592.73781,3.83472,2.20378,5.61431,3.6307-.34587,7.3992-.70016,11.16609-1.06982.45376-.04452.89948-.172,1.51186-.29337-.19012-.547-.29649-.916-.44566-1.2668a14.20686,14.20686,0,0,1-.61185-1.31752c-.382-1.24512-.05292-2.33906,1.087-2.56944a40.80491,40.80491,0,0,1,6.25008-.691c.43262-.01935,1.09156.70313,1.28639,1.21946.1281.33957-.26756,1.08684-.64167,1.36369-.87311.646-1.625,1.6016-2.98129,1.33764-.63435-.12345-1.32305.10939-1.31936,1.15062,1.53585,1.14568,3.32266.78194,5.05733.63173,3.31016-.28657,6.61746-.60888,9.9234-.94149.975-.09808,2.36146.43615,2.62057-1.05552.22113-1.27317-1.23287-.98675-1.83187-1.51491a3.07844,3.07844,0,0,1-1.07775-1.69867,2.03591,2.03591,0,0,1,.84192-1.57567c1.59365-1.02742,4.95709.37995,5.38608,2.23909a26.6929,26.6929,0,0,1,.36334,3.30223c1.91746.26155,2.00068.24137,2.02907-1.03028.06845-3.06611.21607-6.13826.09161-9.19821C133.12047,58.82593,133.49244,56.436,131.72938,54.5859ZM58.68537,90.098c3.11278.275,5.86043.72557,8.73886.27673,3.91142-.60992,7.88956-.79062,11.83878-1.15912,3.228-.30122,6.457-.59164,9.6828-.91559,6.60014-.66281,13.19028-1.44362,19.8-1.98769,5.24268-.43152,10.50829-.5867,15.764-.85712,3.39969-.17494,6.79872-.38073,10.20066-.48611,1.80556-.05592,3.61677.07278,5.58114.12207-.02589.06241.14988-.15759.14036-.36933-.12631-2.83166-.25226-5.664-.453-8.49092a1.79533,1.79533,0,0,0-.696-1.18728c-1.42329-.9757-2.93724-1.72983-4.76679-1.25191a6.44061,6.44061,0,0,1-1.42686.20116c-5.16727.1524-10.33787.22326-15.50186.44716-6.53121.28316-13.09445.17886-19.557,1.42795a9.15653,9.15653,0,0,1-2.144.31237,188.31341,188.31341,0,0,0-20.64377.353c-1.75931.10247-3.61195-.32813-5.27548.08089-2.13538.525-4.17356.179-6.25942.15094-1.97842-.02665-3.95826.04414-6.01936.07323C58.039,81.50273,58.36191,85.7968,58.68537,90.098ZM80.8891,144.791c-1.77472-.52678-3.49683-.01793-5.20495.11206-.265.02016-.66394.507-.69168.80671a1.27125,1.27125,0,0,0,.5112.97166C77.28572,147.86036,79.76159,147.0213,80.8891,144.791Zm33.49548-1.45939c.16167,1.25811.44132,2.06474,1.8099,1.9015,1.58-.18845,1.93157-.41865,2.38229-2.22371A4.90545,4.90545,0,0,0,114.38458,143.33159Z"/><path class="b" d="M82.26579,98.54474c2.99045.113,5.984.36157,8.97035.29378,2.1714-.04929,4.32642-.60136,6.501-.77989,4.443-.3648,8.92862-.38667,13.33112-1.01155a41.69613,41.69613,0,0,1,10.387-.19473,19.76614,19.76614,0,0,0,4.09106-.42112c2.20318-.24029,3.65886.3518,4.31321,1.83532a2.5312,2.5312,0,0,1,.13435,1.35954c-.15286.93278-.54138,1.83788-.61269,2.77118-.30244,3.95841-.6159,7.92032-.73043,11.88659a19.60518,19.60518,0,0,0,.66531,4.7567,21.40285,21.40285,0,0,1,.2375,7.45771,43.06779,43.06779,0,0,0,.12048,5.09841c-.00732,1.75823-.32137,2.00733-2.10568,2.27643a14.19228,14.19228,0,0,0-1.8127.52492c-.2231.0652-.48328.2206-.67007.1602-2.86986-.92827-5.83031-.722-8.77243-.72935-2.90914-.00725-5.8196-.04813-8.72707.02324-3.39558.08337-6.78913.258-10.18245.41846q-10.04039.47477-20.07882.98849a20.6871,20.6871,0,0,0-2.40193.36082c-2.33485.40036-3.23391-.3014-3.26635-2.59373-.02845-2.01-.078-4.02131-.03756-6.03041.08143-4.04946.34762-8.09952.295-12.14618-.05363-4.123-.34917-8.24571-.633-12.362-.20024-2.90225,1.26127-4.6076,4.21993-4.48257,1.85258.0783,3.69386.41444,5.54156.62321.40268.04549.81084.0413,1.2165.06Zm-8.19105,12.021c.21417,7.57193-.33643,14.74333.217,21.934a65.03721,65.03721,0,0,0,7.659-.0525c4.74143-.58015,9.49071.15037,14.23458-.41636,4.17946-.4993,8.4054-.6604,12.61647-.82836a59.91507,59.91507,0,0,1,9.69994.04877,20.448,20.448,0,0,0,8.78922-.54181,30.87847,30.87847,0,0,0,.17607-10.30923,38.17691,38.17691,0,0,1-.53626-11.61946c.11167-.84773.10714-1.71075.17072-2.82185-4.71321.27682-9.137.49039-13.55261.81564-2.17378.16014-4.32744.576-6.49877.78919q-5.68132.55771-11.37359,1.00061c-4.43887.34137-8.88761.56138-13.32243.94543C79.66028,109.74307,76.98489,110.18695,74.07473,110.5657Zm53.25954-10.812a13.43178,13.43178,0,0,0-2.77539-.5237c-4.40815.16165-8.861-1.15051-13.23112.37972a2.92731,2.92731,0,0,1-.96936.02213,128.397,128.397,0,0,0-18.3535,1.50325,11.924,11.924,0,0,1-2.41122.01c-1.283-.09941-2.55664-.32807-3.84-.41032-2.7423-.17576-5.48757-.31021-8.2332-.42374a11.0244,11.0244,0,0,0-2.65944.11525c-.4634.09572-1.21085.65843-1.18835.96312.139,1.88615-.63257,3.875.53608,5.78847a17.126,17.126,0,0,0,2.59444.16909c4.42678-.35953,8.84541-.81915,13.27261-1.1733,5.14215-.41137,10.32614-.23478,15.43609-1.12777a48.65141,48.65141,0,0,1,5.02923-.67854c3.13968-.21518,6.287-.4003,9.43238-.42253,2.197-.01554,4.449-.24061,6.74526.76827C126.91539,103.12874,127.10218,101.62393,127.33427,99.75375Z"/><path class="b" d="M93.86182,77.20282a8.68561,8.68561,0,0,1,1.31281,1.13158,3.691,3.691,0,0,1,.84084,3.96349c-.6656,1.7744-1.45865,2.90574-3.43177,3.11648-1.95485.20881-5.073-2.48918-4.86018-4.4261a2.36144,2.36144,0,0,1,.81983-1.64542c1.1746-.65175,2.05509-2.07574,3.78594-1.54163C92.73133,77.92527,93.32521,77.42748,93.86182,77.20282Z"/><path class="b" d="M77.692,81.73776a3.80735,3.80735,0,0,1,.03321-1.426A3.21011,3.21011,0,0,1,78.89908,78.7c2.01258-.96074,5.00905.64114,5.48239,2.826a12.97188,12.97188,0,0,1,.27959,1.9165,1.95474,1.95474,0,0,1-1.8505,2.348,11.05689,11.05689,0,0,1-2.41193.14584C78.38478,85.77891,77.48263,84.33049,77.692,81.73776Zm1.73222.63425c.85763.59154,1.11025.90119,1.33335.88122.21863-.01955.61394-.46746.57013-.56508a1.28714,1.28714,0,0,0-.68656-.70267C80.37832,81.9162,80.03254,82.16168,79.4242,82.372Z"/><path class="b" d="M113.43957,80.042a4.4882,4.4882,0,0,1-3.3329,4.4193,2.288,2.288,0,0,1-2.60218-1.30714A4.3551,4.3551,0,0,1,109.958,76.9251c2.103-.60943,3.067-.018,3.3876,2.0919C113.40618,79.41589,113.42016,79.82184,113.43957,80.042Z"/><path class="b" d="M121.55741,83.90182c-3.56635-.19218-4.98274-1.92781-4.52583-4.949a2.22464,2.22464,0,0,1,.7134-1.14945,3.69781,3.69781,0,0,1,5.17209.248c1.24055,1.29015,1.29871,4.12059-.00643,5.29313A3.21314,3.21314,0,0,1,121.55741,83.90182Z"/><path class="a" d="M118.8416,114.621c1.17472.1597,2.124.29006,2.2639,1.4258a1.61437,1.61437,0,0,1-1.30389,1.78143c-2.90867.96908-5.13679,2.90144-7.3914,4.90089a37.30349,37.30349,0,0,1-5.93448,4.07579c-1.20418.70688-2.17723.05008-2.12134-1.2333a1.4989,1.4989,0,0,1,.65554-1.13168c4.02642-1.68282,7.1261-4.612,10.26846-7.49287a17.27119,17.27119,0,0,1,2.025-1.69892A7.04589,7.04589,0,0,1,118.8416,114.621Z"/><path class="a" d="M99.39267,122.17339a9.26363,9.26363,0,0,1,1.24329-1.81672,18.9241,18.9241,0,0,1,2.56116-1.80816q2.448-1.54641,4.9422-3.01891c.40554-.2406.95221-.603,1.30656-.4942a4.51149,4.51149,0,0,1,1.91949,1.168c.12869.13778-.52947,1.01412-.83251,1.54756a.38672.38672,0,0,1-.17655.16306,27.66987,27.66987,0,0,0-8.73957,5.35228,1.46021,1.46021,0,0,1-1.3018.08683C99.95422,123.18588,99.75654,122.66686,99.39267,122.17339Z"/></svg>