<svg xmlns="http://www.w3.org/2000/svg" viewBox="0 0 400 400"><defs><style>.a{fill:#45b658;}.b{fill:#388a57;}</style></defs><title>sustainability</title><path class="a" d="M248.1722,226.0741q.64718-.9907,1.29428-1.98134l-.37062-.51046c-2.33611,1.53652-4.68262,3.05748-7.0059,4.61324-3.50233,2.34518-6.96439,4.75188-10.50484,7.03754a2.62988,2.62988,0,0,1-2.21923.35361c-2.09778-1.39793-2.807-.02412-3.77139,1.44422-.54458.8292-1.53582,1.365-2.85069,2.47658-.0935-3.215-.07395-5.50663-.24845-7.7834-.212-2.76671-.01456-5.75209-1.01464-8.23117-1.94235-4.81486,1.11937-9.62667-.56189-14.33347-.16748-.46884.3653-1.18792.57308-1.79084l.76284.04273a14.60041,14.60041,0,0,0,.57475,2.6853c.17636.43567.84163.67349,1.286,1.00075.28555-.4924.84981-1.00841.81038-1.47325-.21607-2.54874.44427-3.46839,3.17378-3.53407,5.41659-.13055,10.83767-.0707,16.25479-.18635,8.09086-.17278,16.18283-.10093,24.1486-2.13959,2.08348-.53322,4.53.46554,6.81918.59721,3.9509.22732,7.91674.2366,11.857.5676a2.6974,2.6974,0,0,1,1.75192,1.95283c.07549,8.92594-.0129,17.8532-.04392,26.78023-.00248.716.1117,1.43275.17572,2.14869.3436,3.84169-2.04084,6.44989-5.83268,7.05976-11.73992,1.88812-23.38363-.36677-35.06956-.62645-6.31351-.1402-12.61873-.65413-18.92753-1.00223a10.2909,10.2909,0,0,1-2.14979-.18332c-.42031-.11614-.73918-.59957-1.10361-.91811.40853-.36965.78648-1.007,1.23133-1.05776a13.27029,13.27029,0,0,1,3.78229-.00088c2.39639.42755,4.01478-.26024,4.96411-2.583a14.83971,14.83971,0,0,1,1.82616-2.53442l.618,2.36877c14.47366-9.64471,28.85141-19.22551,43.3471-28.88495-3.705-1.74969-4.60729-1.39924-7.52473.95907-3.41694,2.762-7.12387,5.16667-10.71811,7.70782-3.60843,2.55117-7.19552,5.1357-10.86983,7.58889a40.7738,40.7738,0,0,1-4.52816,2.29835Zm.29917-7.6621c-.6241.73284-1.26367,1.45326-1.86667,2.203-.37365.46461-.593,1.11275-1.052,1.439-1.90506,1.35421-3.89821,2.58386-5.8142,3.92347-1.85152,1.29448-3.648,2.66769-5.46869,4.00639l.41726.68645a23.94366,23.94366,0,0,0,2.6472-1.35462c1.94094-1.30364,3.74244-2.83039,5.74631-4.0213,2.742-1.62952,5.906-2.80956,5.33335-6.93389a13.77585,13.77585,0,0,0,8.07552-5.69808A14.69579,14.69579,0,0,0,248.47137,218.412Zm18.05449,11.3852c-2.30542,1.83186-4.623,3.64865-6.9124,5.50034-1.80368,1.459-3.57258,2.961-5.35691,4.44391q.30181.52775.60368,1.0555a10.31453,10.31453,0,0,0,3.08186-1.139c1.72458-1.3898,3.18014-3.10761,4.83894-4.58663,1.33542-1.19073,2.85817-2.17058,4.20169-3.35318.946-.83273,1.18642-1.68679-.53927-1.85356a16.19484,16.19484,0,0,1,2.21176-2.28679c4.39966-3.07429,8.85722-6.06548,13.29458-9.08571,1.25991-.47982,2.557-.88359,3.76317-1.47333.55332-.27045,1.33619-.924,1.3164-1.373-.11226-2.54356-.4361-5.07775-.73142-8.05327-6.86273,4.71008-13.48561,8.876-19.67373,13.61029-6.06464,4.6398-13.07732,8.02332-18.34842,13.79261a42.67776,42.67776,0,0,0,8.49857-4.29193c8.14665-5.12533,16.24227-10.33193,24.3988-15.44133a18.40294,18.40294,0,0,1,3.43194-1.30644l.20663.58843c-.93926,1.32751-1.87855,2.65495-2.83056,3.97179-1.43852.35627-3.11553.35434-4.27643,1.12748-6.9679,4.64044-13.83086,9.4395-20.6918,14.23862a27.37785,27.37785,0,0,0-2.825,2.61181q.27011.35808.54016.71608c.90258-.55988,1.80833-1.1146,2.70709-1.68048Q261.98505,232.6646,266.52586,229.79719Zm15.7777.67077.46583.668q-1.99239,2.1957-3.98474,4.39141a3.60733,3.60733,0,0,0,1.7696-.102c.99032-.16524,1.99228-.26069,2.98943-.385-.21249.94674-.36044,1.9142-.65634,2.83411-.27456.85364-.70713,1.6564-1.13272,2.6239,4.49989.12232,4.48412.121,4.80984-3.67134.14665-1.70753.47156-3.40468.53375-5.11323.07652-2.10355-.03665-4.214-.06781-6.32151q-.45151-.2596-.903-.51926l-7.5093,5.532.41532.59992Zm-56.97588,1.764c.23037-.83317.88232-1.856.60948-2.46285-.72273-1.607-.12112-2.54357,1.01792-3.49312,1.3774-1.14823,2.75021-2.30675,4.05945-3.53093,1.69521-1.58511,3.32567-3.2394,4.984-4.86391-.68653-.3745-.97977-.37613-1.17095-.2373-2.6827,1.9485-5.41569,3.83553-8.00826,5.89855C223.13024,226.478,223.01859,227.15623,225.32768,232.232Zm45.6127-2.30384.39849.58151c2.33209-1.36388,4.643-2.76582,7.00218-4.081,2.355-1.31285,4.855-2.39462,7.08365-3.88784.69614-.46651.71711-1.9407,1.04717-2.95357a6.80316,6.80316,0,0,0-2.41163.51088c-2.15307,1.44538-4.1948,3.05761-6.26772,4.62108C275.50193,226.44683,273.22391,228.1911,270.94038,229.92813ZM253.241,208.76235q-.30733-.39439-.61469-.78871c-4.2983,1.23771-12.69328,7.56418-13.24122,10.49879C244.24958,215.06344,248.7453,211.9129,253.241,208.76235Zm-7.33142,24.90194c-2.44881,1.773-4.67575,3.38536-7.11209,5.14926C242.61612,240.39315,245.51594,238.22962,245.9096,233.66429Zm-22.06532-11.70522q.51113.57731,1.02224,1.15454l6.93041-6.79267-.58771-.66376C227.41543,216.77777,224.14956,219.57223,223.84428,221.95907Zm21.22747,17.08547c3.84277,2.34262,5.59809,1.40141,6.11417-3.20625Zm25.18456-31.54285-.60417-.85583c-2.48794.71145-4.73728,1.76711-6.1118,4.08523l.59094.87639Q267.19376,209.55459,270.25631,207.5017Zm-4.06546,29.34624-.51914-.60776c-1.742,1.35834-3.48406,2.71669-5.52349,4.30689C262.8693,241.27568,265.26038,239.5795,266.19085,236.84794Zm-26.40638-25.15966.60207.74958c1.33234-.82139,2.71218-1.57863,3.96584-2.50641.34028-.25188.2997-1.01836.43392-1.5487-.48914-.04069-1.16926-.30768-1.43484-.08358C242.10023,209.35518,240.96263,210.54572,239.78448,211.68828Zm-1.44181,12.53212q-.39823-.49329-.79648-.98665-2.57641,2.13939-5.15281,4.27872.32589.3985.65184.79707Q235.694,226.26493,238.34266,224.22039Z"/><path class="a" d="M212.0338,154.461c-2.86478,2.41135-5.717,4.83787-8.6037,7.22267a8.06963,8.06963,0,0,1-2.223,1.42938c-1.8018.665-2.97994.3718-2.79181-2.00875.213-2.69462.32653-5.40643.29613-8.10874-.06159-5.47356-.17247-10.94905-.409-16.41738-.19864-4.593-.63935-9.17531-.88426-13.767a8.63308,8.63308,0,0,1,.56313-2.37508l.70361-.03209c.46283,1.14967.9257,2.29927,1.37553,3.41663,2.946-.787,5.73-1.56181,8.53376-2.25685.66092-.1639,1.78442-.35177,2.02212-.03051,1.7217,2.32656,2.948.52466,4.19106-.43117,1.268-.975,2.179-1.63434,3.64607-.00179.38935.43322,2.58036-.75248,3.94411-1.19487-.87842-.5051-1.75552-1.44-2.63555-1.44276-4.49456-.01408-8.98911.27015-13.48524.32725-1.85.02345-3.70388-.26055-5.556-.40461l-.05333-1.15059a7.457,7.457,0,0,1,2.05761-.59837c7.92592.07469,15.85221.1668,23.77649.34161,8.29442.18284,16.58627.481,24.88041.67824,1.50207.0357,2.49678.28,2.14668,2.13618-1.6131,8.55184-.38475,17.06943.301,25.60089.332,4.13114.392,8.28371.60974,12.42475.09219,1.7541-.9402,3.86359,1.5045,4.95276a1.36662,1.36662,0,0,1,.08513,1.1646,4.01822,4.01822,0,0,1-1.90649.70645c-2.7891.07049-5.58824-.10652-8.37088.04373-11.08061.59854-22.15325,1.34868-33.23589,1.902a97.75611,97.75611,0,0,1-10.00087-.25055c-.66912-.03537-1.30912-.62167-1.96254-.954.59627-.40708,1.17249-.8481,1.7927-1.21456a27.00833,27.00833,0,0,0,4.46222-2.63671c2.15443-1.9327,4.03227-4.17376,6.02627-6.28524Q212.43366,154.85368,212.0338,154.461ZM204.982,150.04c.32336,3.34019,1.77333,2.12031,2.95276,1.18006,6.20331-4.94542,12.3267-9.992,18.56283-14.89533,5.42682-4.2669,10.96672-8.39009,15.44205-11.803,1.29046.65837,2.36229,1.20515,3.48343,1.7771C233.60641,137.465,222,148.43245,210.39353,159.39988q.34267.41236.6853.82479c2.01185-1.40784,4.05291-2.776,6.03072-4.23019,9.93538-7.305,19.84523-14.64475,29.80037-21.92263a7.47214,7.47214,0,0,1,2.32783-.70227l.24281.70511c-5.97973,6.06939-13.98522,9.87762-19.15494,16.88677,4.90351-2.55294,8.67982-6.91475,14.176-8.58315a3.924,3.924,0,0,1-1.05946,2.00291c-.58822.62784-1.25461,1.1825-1.88716,1.76889a17.14245,17.14245,0,0,0,4.0977-1.26066c.524-.17262,1.23912.23494,1.86722.37832a5.57927,5.57927,0,0,1-.683,1.77991,10.71045,10.71045,0,0,1-2.10763,1.44237c2.91995.40157,4.06946,2.36809,3.53706,5.34777,4.4341-.07985,4.66028-.32759,4.1628-4.56336-.02108-.17941-.05952-.35722-.07433-.537-.51683-6.27315-1.10405-12.54188-1.51394-18.82206-.18131-2.77832.0354-5.58088-.01656-8.37078-.01195-.6419-.2884-1.7734-.60788-1.83576-2.28516-.44614-4.60751-.73028-6.92891-.95317-1.84577-.17725-2.24488,1.37589-2.90462,2.62024-.19625.37021-.65663.60258-1.00142.89155-1.78556,1.49653-3.50239,3.08689-5.37628,4.4633-2.77816,2.04058-5.66809,3.929-8.51046,5.88215q-.20052-.273-.40108-.54589c.74544-.58357,1.51975-1.13453,2.22777-1.7604.65082-.57525,1.23033-1.23117,1.84125-1.85159q-.32463-.39554-.64921-.7912c-8.84687,4.94007-16.16463,12.40132-25.931,16.9662,1.05392-2.95482,1.53773-5.36783,2.72879-7.3575,1.22677-2.04929,3.14269-3.68589,4.75711-5.50308l-.47524-.51715c-.4691.27975-.96472.52359-1.40249.84586-1.45131,1.06874-2.82475,2.25782-4.34986,3.20434-.56606.35131-1.46913.15949-2.21853.21541a18.36544,18.36544,0,0,1,.43734-2.0335c.16259-.4961.81059-1.04013.69826-1.386-.78653-2.421,1.03079-3.60987,2.23387-5.10882.43762-.54528.80181-1.14944,1.46842-2.117-4.93594,1.10052-6.95175,4.16019-6.48525,8.18065.48667,4.1941.65525,8.43775.72754,12.6638.07825,4.57716-.11521,9.15891-.199,14.27594,1.56122-.22617,2.96959-.033,3.82278-.63136a79.69954,79.69954,0,0,0,6.17333-5.17209c4.16067-3.59924,8.28592-7.23986,12.47551-10.805,3.2111-2.73262,6.51158-5.36012,9.73645-8.0769a6.52929,6.52929,0,0,0,1.006-1.49627q-.35073-.31828-.70139-.63649c-9.93238,8.40074-19.86475,16.80141-29.92943,25.314l3.70675-4.42391C203.46219,153.78649,203.5549,152.3292,204.982,150.04Zm27.04-30.16151q-.26231-.46024-.52458-.92054c-2.37456.21541-5.19714-1.26534-6.71143,2.23172a2.26763,2.26763,0,0,1-.95228.93694c-5.90221,3.35167-9.53,9.00345-13.98613,13.81484-.06332.06836.065.31422.29312,1.27043C217.61941,131.2876,224.8207,125.5831,232.022,119.87852Zm-9.49052,35.03668q-.369-.39156-.738-.78306l-11.43995,9.07456.46115,1.10908c2.44838-.14808,4.90645-.21811,7.33576-.51979.41317-.05134,1.14653-1.3309.98044-1.6435-1.4274-2.6857.909-3.85885,2.05274-5.501C221.60179,156.051,222.08045,155.49272,222.53148,154.91521Zm-.35942,7.6013.39559,1.17226c1.817-.16622,3.63893-.29152,5.449-.51391,1.10687-.13606,2.19541-.42136,3.29218-.63959-.94024-.42921-1.88045-.85836-3.21068-1.46565,1.17386-1.501,2.36118-3.01929,3.54854-4.53759l-.36857-.36944Q226.7251,159.33958,222.17207,162.51651Zm6.17651-37.85726.63026.87434c3.30931-1.84151,6.61861-3.683,10.28717-5.7245-3.43626-1.76534-3.59216-1.71071-5.44242.14319-.73806.73952-1.70389,1.24591-2.50112,1.93372C230.297,122.77084,229.33688,123.73133,228.34858,124.65925Zm23.45418,30.79869c-2.17487,2.4381-3.93519,4.41148-6.06473,6.79884C252.30141,162.28063,253.00451,161.512,251.80276,155.45794Zm-11.33388,6.20434c3.04721,1.04238,5.22589-.9929,5.33029-4.27556C243.85973,158.94238,242.1643,160.30236,240.46888,161.66228Zm-2.2879-3.14006c-1.47419,1.24753-2.94842,2.49513-4.945,4.18476C236.78215,163.02292,237.44888,162.45732,238.181,158.52222Z"/><path class="a" d="M307.85155,278.05977c-.157-2.086-.31407-4.172-.50008-6.64292-1.73854,1.26763-3.25089,1.86186-1.73059,4.16834,1.08142,1.64069-1.3331,3.6181-4.00019,3.69574-4.9416.14384-9.88687.35481-14.81257.75811a40.39847,40.39847,0,0,0-6.0682,1.46978c-3.36866-8.96056-2.29311-18.65016-3.45974-28.58909a10.05579,10.05579,0,0,1,2.70058-.8359c7.27535-.584,14.56256-1.02013,21.83922-1.58944,1.78517-.13975,3.54449-.60116,5.318-.90129,1.627-.27533,2.63367.1118,2.52088,2.0765a35.845,35.845,0,0,0,.18959,3.99984c2.8713,1.19767,2.50957,1.0006.99953,3.77226-.98819,1.81392-.89911,4.2919-1.0128,6.487-.17217,3.32453-.06175,6.66279-.16351,9.99246a8.58008,8.58008,0,0,1-.66244,2.17379Zm-9.87541-16.59191-.58558-.87866a14.56919,14.56919,0,0,0-2.19,1.175q-5.77726,4.4673-11.48846,9.01991a5.96912,5.96912,0,0,0-1.82534,7.24346,2.02272,2.02272,0,0,0,1.52786,1.078c1.32178-.14549,2.92746-.24485,3.85122-1.03141,3.87251-3.29754,7.53642-6.83991,11.27674-10.29262l-.36179-.74433a15.3563,15.3563,0,0,0-2.96244,1.50615c-3.21548,2.61528-6.30889,5.38074-9.52412,7.9963a6.86538,6.86538,0,0,1-2.29959.74261,7.55164,7.55164,0,0,1,.8806-2.51585c1.28109-1.50662,2.77126-2.83807,4.20219-4.21406Q293.21444,265.99736,297.97614,261.46786Zm-3.09825,4.83939c.91945.27391,1.14574.41556,1.23057.35594,3.6111-2.5376,7.25323-5.03569,10.76461-7.70559.55547-.42237.5139-1.62992.74836-2.47445q-.486-.35388-.97209-.70763C302.83155,259.1912,299.01375,262.60694,294.87788,266.30725Zm13.00307-3.42058q-.39359-.35662-.78716-.71318l-5.13822,4.31929c3.525-.29812,3.525-.29812,4.71423,2.43469C308.5221,266.97468,307.68565,264.81807,307.88095,262.88666Zm-.76421-11.55572c-1.90774.649-3.283,1.11679-4.65833,1.58469.38.54329.697,1.48691,1.15129,1.55847C305.30471,254.74094,306.38505,253.85718,307.11674,251.33095ZM284.048,254.28062c-3.347-.71179-4.19162-.02414-3.43828,2.71735C281.74814,256.09829,282.76935,255.29117,284.048,254.28062Z"/><path class="a" d="M138.85481,182.81423c1.66537,2.47532,2.78383,4.32871,4.087,6.04175,5.69215,7.48267,10.05735,15.567,11.23869,25.04337.695,5.57512-1.9983,9.4192-7.29987,11.06a34.99743,34.99743,0,0,0-5.191,2.14091,2.22438,2.22438,0,0,0-1.10325,1.62979c.16319,4.20138.50983,8.3954.7092,12.59592a18.594,18.594,0,0,1-.32879,3.85317c-.01658.10126-1.5209.22709-1.6321-.00093a11.085,11.085,0,0,1-1.20575-3.55172c-.4025-3.75494-.5394-7.53841-.94337-11.29311-.21477-1.996-1.11021-3.59376-3.47828-3.79673-4.46314-.38243-7.16379-3.48567-9.55652-6.71686a7.65934,7.65934,0,0,1-1.21584-4.8131,41.52407,41.52407,0,0,1,6.456-18.34444c2.28672-3.742,4.24267-7.68756,6.56523-11.40552C136.66982,184.11431,138.10556,183.42292,138.85481,182.81423Zm-1.143,5.34644c-3.11569,5.02216-6.17268,9.66888-8.932,14.48606a26.2963,26.2963,0,0,0-3.33112,12.66985c-.04756,2.27342,3.721,8.05345,5.51894,8.48576,5.22692,1.25686,10.38123,1.18807,15.34494-1.14976,3.71876-1.75152,5.37124-4.50442,5.01867-8.69588-.50913-6.05208-2.89965-11.46089-6.03932-16.56231C143.33359,194.21243,141.75964,190.69773,137.7118,188.16066Z"/><path class="b" d="M99.947,197.8508a61.00376,61.00376,0,0,0-2.77776,6.83288c-1.72424,6.21528-4.83836,12.27718-3.89194,18.91066,1.62067,11.35924,5.88283,21.013,16.68949,27.16227A40.42155,40.42155,0,0,0,121.99,255.50567c.87846.183,1.51092,1.54715,2.25676,2.36679-1.08168.219-2.21471.76449-3.23683.604-6.87771-1.08027-12.49784-4.74626-17.83176-8.95571-4.299-3.39274-6.79421-8.03375-8.97824-12.8921a33.09357,33.09357,0,0,1-2.38929-21.41182c1.32666-5.97777,2.665-11.86928,5.48931-17.339.74615-1.4451.31118-2.319-1.35832-2.25709a36.484,36.484,0,0,1-4.56429.36919c-.8865-.08183-1.69869-.96823-2.54427-1.49283.75743-.56851,1.50486-1.60737,2.274-1.62372a83.24453,83.24453,0,0,1,9.71725.36743,3.16575,3.16575,0,0,1,2.29884,1.68444c1.54491,5.25971,3.16541,10.46435,5.86517,15.28624.26523.47379-.30859,1.41728-.493,2.14274-.8305-.33255-2.10115-.43694-2.413-1.0384a75.2575,75.2575,0,0,1-2.9345-6.93421c-.82663-2.08234-1.60018-4.18574-2.39719-6.27982Q100.34883,197.97634,99.947,197.8508Z"/><path class="b" d="M176.61709,190.53328c.47665-1.44549,1.04154-2.86916,1.40656-4.34235a45.10672,45.10672,0,0,1,1.037-5.005c.265-.70675,1.4841-1.05566,2.27023-1.56694.24519.68348.81867,1.44254.68153,2.03794-.80471,3.494-1.67663,6.98126-2.76607,10.39417a2.96188,2.96188,0,0,1-2.20025,1.72145c-3.58966-.29283-7.16786-.82282-10.7145-1.46584-.7012-.12711-1.2465-1.114-1.8637-1.70425a7.20283,7.20283,0,0,1,2.41212-.96,23.93287,23.93287,0,0,1,3.14068.71437c1.35049.1851,2.72564.19059,4.09014.27355l.35226-.6984c-2.8229-2.958-5.59442-5.96748-8.48526-8.85756a56.65809,56.65809,0,0,0-6.9148-6.35311c-6.83131-4.85591-14.32906-7.35861-22.83333-5.3821-.95972.223-1.96409.24614-2.94037.40706-7.46985,1.23092-14.80792,2.833-21.07446,7.47183a6.8982,6.8982,0,0,1-1.3957.61957l-.68916-.61292c.83633-1.05954,1.47477-2.41582,2.54276-3.12791a43.54207,43.54207,0,0,1,16.47789-6.42148c1.94061-.3582,3.942-.4651,5.83715-.977,6.49713-1.75469,12.57411-.07915,18.73662,1.80408,6.95723,2.12593,10.67075,8.26484,16.0287,12.35311,1.132.86356,2.03368,2.02226,3.11158,2.96482,1.98695,1.73749,4.09909,3.37893,2.671,6.80556Z"/><path class="b" d="M142.50346,262.151a11.39136,11.39136,0,0,0,4.78927,6.1392,3.99812,3.99812,0,0,1,1.46436,2.051c.09115.35164-.86409,1.38311-1.33974,1.37975a3.28844,3.28844,0,0,1-2.24425-1.00166c-2.04495-2.40349-3.84527-5.01749-5.92325-7.38967-1.46039-1.66705-1.37679-3.12841-.25316-4.85718,1.35953-2.09172,2.58369-4.27111,3.91329-6.383.20345-.32325.65878-.48783,1.10106-.79855,1.85015,2.80538-1.1022,4.52239-1.37062,7.26181,2.40032-.3193,4.6958-.26941,6.73561-.967,4.85824-1.66134,9.684-3.481,14.35922-5.59819,5.60661-2.53893,9.47894-7.1532,12.73473-12.18085a87.30279,87.30279,0,0,0,5.35769-10.22122,9.95158,9.95158,0,0,0,.57075-3.70016c.17328-3.68039.45124-7.37272.3038-11.04487-.08384-2.088-1.05846-4.12633-1.35442-6.22611a8.99162,8.99162,0,0,1,.64389-2.99488c.66781.654,1.68712,1.20014,1.92835,1.98519a13.24379,13.24379,0,0,1,.65162,4.75358c-.53906,7.237,1.26582,14.861-1.92928,21.62452-2.3376,4.94835-6.04538,9.28333-9.3646,13.72568-4.32054,5.78248-10.94606,7.97987-17.32652,10.37054-3.5035,1.31278-7.22679,2.03507-10.84026,3.06129C144.26647,261.38008,143.46539,261.77311,142.50346,262.151Z"/><path class="b" d="M186.39257,136.12075c-1.0893.30105-2.1739.62044-3.26893.899a48.77921,48.77921,0,0,1-5.4095,1.29977c-5.77248.77949-11.56322,1.42427-17.31319,2.11719a27.53561,27.53561,0,0,1-.88237-17.03046l.77579-.0725c.37138,4.83457.74275,9.6692,1.16208,15.12807,6.64473-.966,12.84435-1.865,19.04236-2.77462.35444-.052.69049-.22455,1.04464-.28432,4.10125-.693,4.10638-.71844,3.74078-5.072-.20317-2.41881-.31855-4.845-.5092-7.26493-.1167-1.48143-.84531-1.88915-2.38444-1.68965-3.92209.50838-7.86782.96569-11.81578,1.1a71.4153,71.4153,0,0,1-9.09314-.55779c-.43958-.04152-.81413-.771-1.21879-1.18222.416-.344.80456-.93278,1.25348-.98314a11.70027,11.70027,0,0,1,3.2378.06988c6.213,1.06275,12.3504.30048,18.48136-.672,2.72837-.43276,3.83095.17151,4.047,2.89321.328,4.13076.39895,8.28426.48335,12.43008a7.56989,7.56989,0,0,1-.67155,2.22188Q186.7434,136.40845,186.39257,136.12075Z"/><path class="b" d="M134.43339,119.40344c3.76008.22859,7.53158.353,11.27172.76324.87482.09592,2.27856,1.09009,2.357,1.792.48749,4.36285.81715,8.75766.89182,13.14705.04457,2.61929-2.009,4.077-4.65545,4.03134-3.68914-.06367-7.38327-.07091-11.07054.04645-4.28643.13655-7.80243-2.51586-8.14066-6.67518a72.74312,72.74312,0,0,1-.05677-9.70766c.13807-2.61163,1.65042-3.82532,4.2806-3.79968,1.71073.01653,3.41992.19139,5.12978.29534Zm12.04277,17.64889c-.17628-4.48384-.16783-8.52273-.61847-12.50984a3.76115,3.76115,0,0,0-2.75714-2.33947c-4.75667-.23589-9.535-.15891-14.298.015-.59094.02148-1.64507,1.304-1.61837,1.96748.1436,3.56678.64254,7.11794.84755,10.68428.09332,1.62316.90508,1.93493,2.25942,1.94858C135.51439,136.87119,140.73726,136.96559,146.47616,137.05233Z"/><path class="b" d="M240.7658,253.07843c.29025,1.18238.66683,2.35123.85413,3.54965.51145,3.27284.87166,6.57061,1.44466,9.83166.20346,1.15806.08861,2.92061,2.29463,2.465.21948-.04533,1.02319,1.194.90888,1.344-.49967.65546-1.20612,1.54861-1.89484,1.601-4.72139.35845-9.45651.54105-14.18851.75152-3.09326.13761-3.68929-.62946-3.83362-3.72183-.18765-4.02062-.66854-8.027-.99732-12.04162-.34219-4.17875.63326-6.25108,4.69687-5.94556,1.98858.1495,4.02954-.59038,6.05873-.6934a7.20792,7.20792,0,0,1,2.47868.85338c-.60306.60391-1.1441,1.6364-1.82045,1.73426-2.383.34484-4.81182.38089-7.22453.51056-1.361.07315-2.59014.23111-2.41482,2.08829q.58136,6.158,1.12394,12.3195c.24562,2.80831.76039,3.054,3.6467,2.51328a35.10722,35.10722,0,0,1,6.70255-.57c1.8902.01463,2.33363-.66993,2.12111-2.43327-.47409-3.93371-.8092-7.88459-1.159-11.83224a14.80629,14.80629,0,0,1,.11692-2.17377Q240.22315,253.15368,240.7658,253.07843Z"/><path class="b" d="M199.64812,184.05856c1.02971-6.53246,1.0145-6.66094,7.338-7.40939,4.1-.48516,8.25348-.50946,12.38058-.77721,1.98323-.12864,2.94056.646,3.14283,2.71991.27032,2.77152.93656,5.50372,1.228,8.27433a18.06544,18.06544,0,0,1-.3325,4.00373c-.186,1.51035-1.02154,1.98551-2.58866,2.00034-5.21066.04923-10.41955.29429-15.62874.47541-.4331.01508-1.01047-.04411-1.27118.199-1.81787,1.69512-2.53884.004-2.82234-1.15129C200.42362,189.6614,200.1075,186.84244,199.64812,184.05856Zm3.47141,7.87793c5.79375-.34986,10.80295-.67794,15.81552-.942,1.84992-.09745,2.82258-.69655,2.44895-2.79979a44.79969,44.79969,0,0,1-.85681-7.20908c-.03616-2.8411-1.62121-3.24753-3.86893-3.0777-3.76647.2847-7.54041.48824-11.29909.85179a3.67469,3.67469,0,0,0-3.62285,3.96251A91.67,91.67,0,0,0,203.11953,191.93649Z"/><path class="b" d="M250.90934,252.78123c4.904-.354,9.55748-.8467,14.221-.97347,3.27846-.08912,3.7757.68508,4.18176,3.96333.35253,2.8456,1.00266,5.6576,1.27477,8.50787.07707.80746-.71032,1.69742-1.10125,2.54949-.51973-.74915-1.37433-1.44679-1.499-2.25675-.44765-2.908-.47879-5.88743-1.0453-8.76549a3.34818,3.34818,0,0,0-2.39709-2.13926,65.22174,65.22174,0,0,0-9.94246.92836,3.14234,3.14234,0,0,0-1.98731,2.29334,96.62424,96.62424,0,0,0,.72742,9.90387c.176,1.59985,1.38405,2.03632,2.80555,1.67085,2.16766-.55717,4.28085-1.35252,6.46774-1.79962a28.56,28.56,0,0,1,4.51824-.2297l.17007,1.06046a35.35247,35.35247,0,0,1-4.32657,1.45832c-2.64019.54178-5.315.94813-7.99266,1.26325-2.18422.25692-3.62215-.4659-3.69686-3.05231-.11973-4.14392-.45624-8.28117-.65238-12.42363A9.93534,9.93534,0,0,1,250.90934,252.78123Z"/><path class="b" d="M173.859,159.9829c-3.01308.31324-6.02826.608-9.03863.946-2.16836.24335-3.96744.22609-4.04361-2.783a12.5314,12.5314,0,0,0-1.24633-3.81328c-1.45255-3.82223-.034-5.10634,3.81339-5.95428,4.27162-.94141,8.62757-1.49868,12.94488-2.23483,2.50392-.42689,2.79179.049,2.41652,2.5162-.414,2.72208-.31625,5.518-.62527,8.26108C177.65638,160.68012,177.5822,160.67176,173.859,159.9829Zm2.53288-6.70814.06822.00395a7.93157,7.93157,0,0,0,.09582-2.93409c-.27981-.77273-1.3363-1.87971-1.9435-1.81628-3.3923.35423-6.75748.98939-10.12111,1.58919-1.92738.34374-3.08731,1.22307-2.51162,3.51838.56044,2.23453.34807,4.95161,3.81409,4.81211a62.42239,62.42239,0,0,1,7.264-.29048c2.2398.17373,3.199-.54723,3.20926-2.72463C176.27037,154.71337,176.34811,153.99411,176.39184,153.27476Z"/><path class="b" d="M198.44684,273.84c.104-1.711.27815-3.42135.29279-5.13312a2.48711,2.48711,0,0,1,2.59489-2.785c3.37621-.32369,6.74728-.92311,10.119-.913.82844.00251,2.11363,1.802,2.38989,2.96508a89.03029,89.03029,0,0,1,1.75648,10.60952c.0727.64579-1.03689,2.05957-1.55365,2.03711-4.32692-.18819-8.30207,1.10135-12.29064,2.47344-2.34242.80577-3.099.27629-3.30017-2.21579-.09417-1.167-.1-2.34491-.077-3.51655.023-1.172.13178-2.3423.203-3.51333Zm2.125,7.10871c3.88738-.69831,7.27049-1.20707,10.59206-1.98013.72574-.16892,1.81532-1.35243,1.74237-1.9466-.40184-3.27355.48464-6.87951-1.85144-9.435-2.7952.06925-5.30183.17828-7.80857.18005-2.46882.00182-3.24424.839-3.08709,3.24673.13436,2.05824.06468,4.12909.13088,6.19287C200.3264,278.34052,200.45692,279.47138,200.57184,280.94872Z"/><path class="b" d="M199.85373,247.9038c-.14912-1.965-.24078-3.93651-.45969-5.89384-.41043-3.66922.65576-4.9243,4.29561-5.07865,2.33509-.099,4.66622-.30745,6.9965-.49814,2.134-.17469,3.09277.49656,2.97666,2.9101-.23819,4.95061-.19386,9.91708-.18189,14.87673.00881,3.65847-.54279,4.18069-4.08985,4.05869a33.70928,33.70928,0,0,0-6.14578.336c-1.88184.2834-2.65142-.34928-2.86847-2.17621-.33529-2.82239-.81919-5.62706-1.24-8.43926Zm1.46732-9.26565c.066,4.53832.15245,8.828.18395,13.11815.03229,4.40314.00876,4.40324,4.49481,4.4995a13.54863,13.54863,0,0,1,1.889.05452c2.2864.37553,3.51042-.724,3.63825-2.86925.251-4.212.45486-8.43709.36872-12.65045a3.33538,3.33538,0,0,0-2.13946-2.446A73.76007,73.76007,0,0,0,201.321,238.63814Z"/><path class="b" d="M242.21,191.80386c1.70692.02287,3.41611-.00184,5.12037.07795,4.21325.19728,5.10181-.53933,4.72186-4.71155a43.35585,43.35585,0,0,0-1.50886-7.66205,3.63527,3.63527,0,0,0-4.49879-2.89632,16.69607,16.69607,0,0,1-4.03053.37576c-2.53885-.19609-3.46066.929-3.22872,3.316.29558,3.04164.64475,6.0805.82768,9.12916a11.5134,11.5134,0,0,1-.55367,2.8596,11.48617,11.48617,0,0,1-1.24593-2.41259c-1.17089-4.737-.77565-9.44947.44822-14.39305,3.438-.29033,6.90972-.7059,10.39235-.84293,3.44617-.13553,3.92907,2.81934,4.48661,5.15716.79023,3.31375,1.10491,6.74194,1.60171,10.12426.23379,1.59142-.31,2.621-2.0587,2.83009-2.65127.31686-5.28778.80139-7.94643.98759-.87586.06137-1.801-.58116-2.70357-.90183Z"/><path class="b" d="M101.28681,147.19587c.685,2.27907,1.21615,2.96248,3.5207,2.14817,3.1953-1.1289,6.79063-1.30421,10.236-1.4877,2.59262-.13818,3.13062.93383,2.87967,3.55519a31.64032,31.64032,0,0,0,.2171,4.52461c.06775,1.35813-.35826,2.10328-1.93932,2.28623-4.37225.5061-8.71117,1.30784-13.08662,1.77213-.76968.08169-2.30734-.8275-2.37482-1.40853-.3827-3.29634-.44786-6.63145-.55-9.9556C100.17987,148.31614,100.663,147.98673,101.28681,147.19587Zm11.31118,2.69094-.16882-.74362c-2.95267,1.17212-5.9901,2.18007-8.79942,3.63-.71754.37037-1.0412,2.18448-.899,3.24888.06962.52116,1.64254,1.23035,2.49951,1.18482,2.597-.13791,5.174-.6248,7.76391-.93324,1.82235-.217,3.15554-.86571,2.9778-3.01824C115.8047,151.22957,115.499,149.31914,112.598,149.88681Z"/><path class="b" d="M268.77969,176.01953c.86056-.22735,1.71294-.49422,2.58342-.67352a43.72673,43.72673,0,0,0,4.88009-.96893c1.67384-.55142,2.4612-.00361,2.00966,1.54183-1.27592,4.36688-.17817,8.11379,2.43074,11.63387a1.88545,1.88545,0,0,1,.15334,1.71276c-.22668.36039-1.05063.42432-1.6239.47442-3.47967.30392-6.97116.49072-10.44237.86724-2.6782.2904-4.01461-.46367-4.17279-3.21026a56.6471,56.6471,0,0,1,.348-7.81125c.036-.44174.66348-.83537,1.01771-1.25119.35253.53073.99173,1.05493,1.00383,1.5933.03635,1.61645-.289,3.24057-.25925,4.85768.05316,2.88421.7866,3.495,3.60274,3.32094,1.61823-.10006,3.241-.33131,4.85317-.27186,1.87742.06927,2.17171-.82843,1.81368-2.35918-.185-.79119-.34482-1.58821-.52346-2.38094-1.14645-5.08822-1.14818-5.0799-6.156-5.73635a7.81053,7.81053,0,0,1-1.42406-.46945Z"/><path class="b" d="M143.35486,145.12079c2.28978-.00534,3.04133.80005,2.7521,3.20286-.298,2.47528.0978,5.029.11477,7.549.01329,1.96858-.253,3.07658-2.99817,2.581-3.21544-.58061-6.62309-.099-9.94735-.07421-2.83259.02112-3.66751-.81675-3.63974-3.69651.00957-.99147.12277-1.985.083-2.97336-.15585-3.87335-.18718-3.99285,3.59251-4.828C136.62741,146.1489,140.00483,145.6968,143.35486,145.12079Zm-6.46112,11.085-.00373.12461c1.70829.002,3.41791-.037,5.12456.01714,1.76487.056,1.96695-1.26251,1.76738-2.36013-.38783-2.13344,1.62569-4.7253-1.142-6.38721a1.72,1.72,0,0,0-1.065-.00641c-2.53569.48-5.07449.948-7.59745,1.48923-3.13261.67192-2.70476,3.11753-2.52235,5.35211.20722,2.53825,2.2568,1.35523,3.557,1.63981A12.37253,12.37253,0,0,0,136.89374,156.20578Z"/><path class="b" d="M176.87417,264.85073a40.92744,40.92744,0,0,1-.43625-5.31655,2.75887,2.75887,0,0,1,1.37051-2.12994,85.53939,85.53939,0,0,1,9.44874-2.06769c.53281-.086,1.7385.93455,1.80769,1.53824.42887,3.74268.73514,7.509.849,11.27443.064,2.11827-.98865,3.29168-3.4238,2.97261a23.9638,23.9638,0,0,0-5.64528-.03128c-3.6996.401-4.50511-.26685-4.32708-4.04836.034-.72213.08632-1.44341.1302-2.16506Zm1.67123,3.87561c1.74476-.08307,3.34082-.28243,4.92461-.2107,4.20927.19066,4.20969.23715,4.1383-4.00849-.009-.53958-.05683-1.07873-.09339-1.61759-.48617-7.16179-.45986-5.21425-6.32656-4.905a2.01615,2.01615,0,0,0-1.24929.44755c-.52015.531-1.22247,1.19249-1.25994,1.834C178.51825,263.02093,178.57164,265.78829,178.5454,268.72634Z"/><path class="b" d="M197.69836,214.24448c.23777-1.79762.3672-2.33768,2.3674-2.06589,3.11991.42395,6.41005-.16022,9.59657-.56505,1.82993-.23253,2.47315.439,2.617,2.0913.31014,3.56184.74872,7.117.88481,10.68442.0183.48-1.37278,1.38345-2.171,1.459-2.95212.27932-5.92974.3706-8.89678.354-.74412-.00416-2.0161-.54513-2.14141-1.05965C199.0483,221.41983,198.37378,217.64058,197.69836,214.24448Zm12.752,7.0343c-.04651-1.0416-.08113-1.58128-.09312-2.12143-.12428-5.60984-.12377-5.61611-5.53559-5.15795a4.97594,4.97594,0,0,0-1.83413.36607c-1.07377.556-2.977,1.34239-2.933,1.90893a48.27206,48.27206,0,0,0,1.54777,7.45716c.02678.11074.50527.19942.74885.15716,2.29551-.39821,4.60774-.73953,6.8624-1.30688C209.80067,222.43409,210.20359,221.554,210.45035,221.27878Z"/><path class="b" d="M268.43492,158.61851c-4.34246-.13127-4.61175-.12454-4.75381-5.83826-.057-2.29272.70962-5.30469,2.25561-6.77868,2.46932-2.35429,6.03061-1.95514,9.09492-.46421.65614.31923,1.09431,1.68083,1.12534,2.57973.09476,2.74784-.19788,5.51128-.0611,8.2547.08133,1.63153-.26063,2.40342-1.98465,2.33425C272.221,158.63007,270.32716,158.64475,268.43492,158.61851Zm5.04524-7.41671.06972.00437a9.19469,9.19469,0,0,0,.10567-2.94816c-.22362-.769-1.248-1.999-1.65527-1.90355-2.01924.47328-4.97365.79786-5.66655,2.15859-.9606,1.88654-.23342,4.65166-.12771,7.03607.01218.275.63517.60187,1.0321.76856a4.3497,4.3497,0,0,0,6.15924-3.76518C273.42967,152.10265,273.45278,151.652,273.48015,151.2018Z"/><path class="a" d="M248.10792,226.00223l-5.637,5.4626-.56938-.65853a16.0031,16.0031,0,0,1,6.27055-4.73154Z"/><path class="a" d="M219.08171,136.91866c-2.226,2.24173-4.20618,4.23592-6.18635,6.23011q-.27-.31228-.53995-.62462C214.51273,140.72629,216.67,138.9285,219.08171,136.91866Z"/><path class="a" d="M136.62561,205.60476c-.07566-2.13968-.26807-4.01808-.14293-5.87511.04711-.6991.83-1.34868,1.27751-2.02092.43718.66443,1.15358,1.28717,1.25991,2.0009.33993,2.28218.45369,4.598.68684,7.26863a19.24542,19.24542,0,0,1,3.15235-1.56482,5.80066,5.80066,0,0,1,2.13764.25161c-.21822.714-.23846,1.60691-.69165,2.1087-1.37673,1.52424-3.0814,2.77322-4.327,4.3854a3.38147,3.38147,0,0,0-.365,3.055c1.32133,2.137-.25246,3.37-1.29941,4.45193-1.05325,1.08849-2.22585.17488-2.06552-1.14092.31037-2.54747-1.23078-3.73382-2.89979-5.05942a8.08387,8.08387,0,0,1-1.40758-2.20665c.803.0469,1.60782.075,2.40855.14729.52794.04763,1.05018.15848,1.69842.26048.6356-1.81273.645-3.07644-1.46494-3.88643-1.33254-.51153-4.08327-.58253-3.26556-2.65191.88757-2.24625,2.665.16965,4.0749.33713C135.6541,205.49672,135.9162,205.5248,136.62561,205.60476Z"/></svg>