<svg xmlns="http://www.w3.org/2000/svg" viewBox="0 0 200 200"><defs><style>.a{fill:#45b658;}.b{fill:#1d7c2a;}</style></defs><title>sustainable-living</title><path class="a" d="M113.977,96.64968c-.137,4.03607-.30164,7.6795-.36279,11.32461-.022,1.31068.2369,2.6237.30915,3.93886.06949,1.26544-.135,1.47771-1.33226,1.51735-1.73184.05736-3.46566.06331-5.19654.13883-2.00521.08743-4.007.294-6.01237.328-3.30441.05613-6.61045.01527-10.01207.01527-.302-6.053-.59315-11.88931-.90051-18.05-1.21488.81163-1.6282,2.37234-3.05428,2.4041a.88774.88774,0,0,1-.081-1.46865,33.0881,33.0881,0,0,1,4.61748-4.74983c2.78892-2.0164,5.377-4.31709,7.98752-6.56989a2.09565,2.09565,0,0,1,2.48637-.41187,15.80255,15.80255,0,0,1,4.099,2.70615,43.29612,43.29612,0,0,0,5.80875,4.67507c1.60255,1.20676,3.22186,2.39117,4.82528,3.59676.21609.1625.50434.36933.54434.59391a1.74684,1.74684,0,0,1-.12224,1.12431.981.981,0,0,1-.90494.17919C115.90961,97.64946,115.18715,97.24243,113.977,96.64968Zm-2.5008,14.44649a3.7282,3.7282,0,0,0,.172-.70394c.07766-4.50448.11194-9.01008.23141-13.51338.05191-1.957-.97886-3.05476-2.58431-3.86257a8.58729,8.58729,0,0,1-1.87586-1.21806c-1.13482-1.01683-2.14188-2.17839-3.29413-3.17308-2.2341-1.92856-3.44236-1.84413-5.549.11558-1.52173,1.41567-3.06985,2.81078-4.69446,4.10416a2.19424,2.19424,0,0,0-1.01377,1.88663c.02753,2.90371.08148,5.80976-.00066,8.71129a23.22352,23.22352,0,0,0,1.18078,8.25417c1.42738.10265,2.89043.63646,4.54313-.04982-.05293-.70145-.0997-1.37827-.15586-2.05437-.18937-2.28059-.41625-4.55878-.56358-6.84206-.139-2.15453.33131-2.62879,2.45746-2.46237,1.65481.12952,3.29886.3909,4.951.56155,1.451.14978,1.59858.29319,1.63242,1.8021.04041,1.802.11173,3.60389.12357,5.40609.02127,3.24143-.18708,3.58847,3.7186,3.27421A3.80789,3.80789,0,0,0,111.47621,111.09618Zm-11.428-8.53479a27.84617,27.84617,0,0,0,1.04736,9.36194c1.02792-.1026,1.97457-.214,2.92417-.287a1.18029,1.18029,0,0,0,1.20482-1.38086c-.11545-2.34614-.27749-4.68993-.43747-7.2974C103.26232,102.83045,101.79077,102.70724,100.04821,102.56138Z"/><path class="b" d="M123.63723,82.73074c.33978-1.18416.57518-2.03106.8268-2.87313.193-.64593.5576-1.282,1.28867-.92135a1.562,1.562,0,0,1,.49976,1.38778c-.47722,1.94541-1.0692,3.86446-1.67316,5.77617-.26278.83178-.82527,1.28254-1.75863.8927-1.52654-.63748-3.09122-1.20223-4.553-1.96414a1.74378,1.74378,0,0,1-.67315-1.52377c.20945-.81682,1.02991-.80593,1.73375-.54221a5.67892,5.67892,0,0,0,1.75945.54378,8.28066,8.28066,0,0,0-1.25371-1.87085,52.53194,52.53194,0,0,0-4.273-3.27405c-4.1705-2.89277-8.92427-3.67549-13.87925-4.08915a22.37539,22.37539,0,0,0-7.56463.5273A14.7409,14.7409,0,0,0,90.117,76.46035c-2.05345,1.26411-3.96566,2.75719-5.94381,4.14462a1.97449,1.97449,0,0,1-.89023.47035,1.44916,1.44916,0,0,1-1.08691-.3505,1.60178,1.60178,0,0,1-.05244-1.1492c.05166-.22973.33543-.43467.55564-.59493,2.40255-1.74779,4.692-3.67962,7.57339-4.65232a15.227,15.227,0,0,0,1.52372-.64358,18.24315,18.24315,0,0,1,9.48887-1.67548,47.02787,47.02787,0,0,1,10.77222,2.18033,20.51578,20.51578,0,0,1,9.594,6.33085C122.21021,81.2,122.82662,81.83208,123.63723,82.73074Z"/><path class="b" d="M76.37075,91.97762a15.59347,15.59347,0,0,1-2.20323,1.08278,1.431,1.431,0,0,1-1.24213-.19436,1.73706,1.73706,0,0,1-.07817-1.31078,1.48557,1.48557,0,0,1,.69448-.73534,8.77512,8.77512,0,0,1,5.53874-1.39567,2.41479,2.41479,0,0,1,2.352,1.98215c.46429,2.02511,1.00416,4.03291,1.478,6.056.05173.221-.12021.49427-.2539.98258-2.47214-1.46214-1.94213-4.37623-3.44073-6.46134a7.53543,7.53543,0,0,0-2.49591,4.54631,23.558,23.558,0,0,0,3.10761,16.5512c2.47217,4.16966,6.13932,6.64486,10.34086,8.59637,1.16472.54093,2.47856.81306,3.45363,1.8252a1.96392,1.96392,0,0,1-2.458,1.19286,15.76279,15.76279,0,0,1-2.74938-.946A22.60463,22.60463,0,0,1,76.32532,110.822a26.51762,26.51762,0,0,1-1.37966-14.88091A28.71744,28.71744,0,0,1,76.37075,91.97762Z"/><path class="b" d="M104.27212,125.21742c3.70722-1.02426,7.14121-1.8078,10.45768-2.93669a11.12057,11.12057,0,0,0,6.93845-6.44291,41.06386,41.06386,0,0,0,2.9133-20.94834c-.03178-.27523-.17634-.5989-.07888-.81423.17876-.39518.45045-.955.77308-1.0235a1.49124,1.49124,0,0,1,1.202.53371,2.94418,2.94418,0,0,1,.36055,1.375,37.27643,37.27643,0,0,1-.57666,11.57973,43.06392,43.06392,0,0,1-2.04216,8.02673c-2.3455,6.05379-6.59725,9.574-13.00777,10.47842a9.73768,9.73768,0,0,0-4.718,1.77772c.35592.53.67275,1.00187,1.1166,1.6628-.24744.13756-.45228.35217-.60111.31859-1.53051-.3452-3.06532-.68521-4.56924-1.12767a.93423.93423,0,0,1-.59811-1.34946q1.00309-2.276,2.088-4.51511a2.39714,2.39714,0,0,1,.80445-.92782c.24138-.15634.78865-.22352.92278-.07705a1.25042,1.25042,0,0,1,.3164,1.05327,22.23328,22.23328,0,0,1-1.1791,1.94678A10.77527,10.77527,0,0,0,104.27212,125.21742Z"/></svg>