<svg xmlns="http://www.w3.org/2000/svg" viewBox="0 0 200 200"><defs><style>.a{fill:#1586c8;}</style></defs><title>thermostat</title><path class="a" d="M100.27138,84.31744c2.18049.5634,4.42967,1.19758,6.70494,1.71754a18.89652,18.89652,0,0,1,6.55572,2.35587,24.41984,24.41984,0,0,1,9.13326,10.885,67.63273,67.63273,0,0,1,2.918,9.5518,11.65125,11.65125,0,0,1,.20627,5.27989,65.06264,65.06264,0,0,1-1.75563,7.868c-1.00808,3.06466-2.6432,6.01284-5.37071,7.76125-2.685,1.72126-5.59169,3.37738-9.05,3.23657-1.05747-.043-2.12216.12945-3.18319.12447-1.05847-.005-2.11877-.08316-3.1739-.17805-.70728-.06359-1.40461-.28976-2.11028-.31065-5.01021-.14846-9.7695-1.59395-14.55245-2.86262a11.91959,11.91959,0,0,1-3.143-1.77566,19.48974,19.48974,0,0,1-8.90768-13.15516c-1.19065-5.98248-.24659-11.728,1.12869-17.47669.65741-2.74781,2.57316-4.70494,4.65593-6.48362a19.55643,19.55643,0,0,0,1.67462-1.32041c2.29532-2.4511,5.34115-3.313,8.41346-4.26005C93.63021,84.284,96.91792,84.98558,100.27138,84.31744ZM75.71112,107.82968c.27172,4.33281.57518,8.30456,2.5645,11.86961a17.485,17.485,0,0,0,10.59411,8.62639,51.651,51.651,0,0,0,11.234,2.25761c2.60182.18693,5.14854.77659,7.80149.673a17.40513,17.40513,0,0,0,8.84111-2.65546,14.22992,14.22992,0,0,0,6.08377-8.41325c.3695-1.28693.41316-2.67554.84729-3.93435,1.54586-4.48185.19894-8.8068-.97454-12.98676a23.10491,23.10491,0,0,0-8.00633-12.31729,14.097,14.097,0,0,0-5.542-3.00048c-2.06757-.47255-4.05238-1.35919-6.13325-1.7086-2.56521-.43082-5.23129-.90264-7.58089.95514a2.113,2.113,0,0,1-1.58143.43457c-2.38048-.62135-4.45473.40589-6.59425,1.0711-2.75.855-4.60767,3.02956-6.68579,4.80972A8.388,8.388,0,0,0,77.99468,97.327C77.00128,100.87264,76.40283,104.529,75.71112,107.82968Z"/><path class="a" d="M80.653,106.205c-.401-3.44737.99845-6.47036,2.56076-9.32066a8.22887,8.22887,0,0,1,4.09448-3.85151c1.83028-.72115,3.62065-1.54371,5.428-2.32286,2.64577-1.14052,5.43755-1.06671,8.19925-.81453a30.13873,30.13873,0,0,1,9.33737,1.9262,11.80734,11.80734,0,0,1,4.56852,3.69493,22.41971,22.41971,0,0,1,4.94283,13.76959,18.52,18.52,0,0,1-4.0479,12.532,9.81047,9.81047,0,0,1-7.20356,3.56133,4.49582,4.49582,0,0,0-1.81034.5671c-2.85324,1.52124-5.89339,1.38394-8.94748,1.05031a17.64478,17.64478,0,0,1-4.19053-.73734,12.62526,12.62526,0,0,1-3.81872-2.23028,34.223,34.223,0,0,1-6.65069-7.44779,13.84071,13.84071,0,0,1-2.43077-7.1716C80.6633,108.34184,80.66282,107.27334,80.653,106.205ZM95.66911,92.02447c-.70749.36926-1.36886.72867-2.04317,1.0618-.55233.27287-1.1601.7926-1.67348.71858-1.61888-.23332-2.70161.68944-3.87356,1.47179-.35016.23378-.62361.70016-.989.77235-1.34432.26561-1.75947,1.38359-2.263,2.36966a15.304,15.304,0,0,0-1.15113,2.97991c-1.35305,5.05764-1.50749,10.00554,1.76429,14.48928,1.08044,1.48073,2.42093,2.7731,3.4859,4.26355,3.26882,4.57487,8.192,4.89511,12.99036,4.59025,3.18052-.202,6.29231-1.62135,9.4138-2.5652a6.30464,6.30464,0,0,0,4.08453-3.78205c.74609-1.826,1.201-3.76939,1.82445-5.64771a9.5646,9.5646,0,0,0-.00583-6.87207,8.17388,8.17388,0,0,1-.66019-2.24678c-.28693-2.995-1.86385-5.31543-3.70963-7.53306a8.69913,8.69913,0,0,0-5.156-3.18962c-2.58111-.48309-5.17291-.91885-7.77277-1.2852a12.24454,12.24454,0,0,0-2.53791.23154c2.18329,2.3416,1.69768,4.9024,1.72155,7.33661a1.58273,1.58273,0,0,1-.94955,1.1706c-.70613.17624-1.18132-.382-1.30392-1.09993C96.47543,96.97822,96.1084,94.69387,95.66911,92.02447Z"/><path class="a" d="M103.67429,106.02781a15.12952,15.12952,0,0,1,2.54186.81669,2.475,2.475,0,0,1,1.39462,2.43271,20.14983,20.14983,0,0,0,.17266,2.326,5.52638,5.52638,0,0,1-2.83857,5.33258,2.58634,2.58634,0,0,1-3.92949-1.08619,9.296,9.296,0,0,1-1.24155-6.49359C100.33205,106.809,101.07721,106.119,103.67429,106.02781Zm-1.63782,2.20754c-1.29643,2.33123-.435,4.14893.5007,5.9267.22948.43588.73392,1.0597,1.06667,1.033a2.19334,2.19334,0,0,0,1.53241-.88506,7.39539,7.39539,0,0,0,.89468-4.69321,1.2931,1.2931,0,0,0-.70261-.94223C104.25345,108.4406,103.14317,108.36928,102.03646,108.23535Z"/><path class="a" d="M94.651,112.70838c.03933-1.06036.15147-2.12434.09938-3.18019-.06412-1.29935-.5801-1.70356-1.89922-1.72545a5.93915,5.93915,0,0,1-2.09469-.11343,1.93391,1.93391,0,0,1-1.01579-1.40239c-.02049-.74454.65167-.88737,1.40858-.82822,1.26622.09893,2.54728-.00905,3.81824.05092,1.60089.07556,2.128.65811,2.12676,2.27-.00106,1.27479-.10844,2.55163-.06181,3.82364.04087,1.1157.23379,2.22558.35151,3.33887a8.24185,8.24185,0,0,1,.0662,1.05593c-.02783,1.17479-.64475,2.14291-1.23341,1.84453a3.16114,3.16114,0,0,1-1.5602-1.74924,14.94827,14.94827,0,0,1-.10964-3.388Z"/></svg>