<svg xmlns="http://www.w3.org/2000/svg" viewBox="0 0 200 200"><defs><style>.a{fill:#0f6698;}.b{fill:#1286c9;}</style></defs><title>transparency-privacy</title><path class="a" d="M114.57724,59.96984c6.64336.28825,11.20782,1.38276,14.83979,8.46975,2.21156,4.31534,2.20043,8.66465,1.79821,13.28249-.38119,4.37745-2.5941,7.361-5.979,9.74484A2.12828,2.12828,0,0,0,124.274,94.186c1.06076,3.1754,2.04271,6.37725,3.0469,9.57142.85094,2.7067,1.65109,5.43,2.54126,8.12358,1.52078,4.6017,3.12124,9.17719,4.61456,13.78757a2.66928,2.66928,0,0,1-.10133,2.07357c-.26192.3644-1.26676.32315-1.91392.243-.55356-.06852-1.04751-.53232-1.60525-.67279-1.00545-.25327-2.35642-.90086-3.00393-.49395-2.412,1.51573-4.95573.20074-7.42891.72164-4.02593.84793-8.21111.908-12.3063,1.46743-4.02693.55013-8.00954,1.44134-12.04273,1.92191-2.21677.26415-2.62782-.17646-2.40118-2.36076a75.17493,75.17493,0,0,1,1.5979-10.14982c1.15258-4.69634,2.74435-9.28305,4.03188-13.94877.87857-3.1839,1.65369-6.4048,2.26048-9.64931a3.9169,3.9169,0,0,0-.836-2.68174c-1.51552-2.02044-3.20771-3.91-4.86162-5.824-.53032-.61368-1.15835-1.14291-1.74212-1.71029-.16251-.15792-.47005-.31482-.46918-.47092.01768-3.31708-2.6107-6.15884-1.73638-9.6165a13.35273,13.35273,0,0,1,.95731-3.13836,17.35906,17.35906,0,0,1,8.27676-7.23395C105.4306,62.12361,109.78176,60.33081,114.57724,59.96984Zm9.452,65.50733c-1.78856-10.3353-5.04511-19.75758-8.99427-29.305-2.1038,1.91837-4.02867,3.36715-5.3799,5.64791-2.0371,3.43813-4.78341,6.22834-9.62461,5.67569-.84142,2.75615-1.82558,5.52822-2.5208,8.371-.88448,3.61641-1.49145,7.29976-2.30254,10.93541-.48734,2.18474-.2647,2.59492,1.99978,2.27092,2.14838-.3074,4.24466-.98593,6.39422-1.27734,3.85743-.523,7.73823-.87246,11.608-1.30527C118.12656,126.16417,121.04215,125.821,124.02922,125.47717ZM93.43375,76.13175c.267.98312.67058,2.57394,1.13659,4.14625a1.60524,1.60524,0,0,0,1.954,1.28538c4.24149-.34118,8.273.07419,11.16163,3.82784a1.71962,1.71962,0,0,0,1.41732.37233c1.09539-.20263,2.14217-.74494,3.23756-.85111a12.81117,12.81117,0,0,1,4.27291.10928c1.66894.4196,2.32605.33346,3.08418-1.29709,1.894-4.07353.64246-10.94671-2.70985-13.75428a20.51534,20.51534,0,0,0-6.87522-4.02826,12.14654,12.14654,0,0,0-12.54207,2.38349A10.085,10.085,0,0,0,93.43375,76.13175ZM111.715,93.65883c2.55408-1.20476,4.4909-3.70978,4.32774-5.67176-1.61328,0-3.24682-.05451-4.87079.04569-.32749.0202-.93563.70484-.87519.95051C110.684,90.55695,111.22167,92.09358,111.715,93.65883Z"/><path class="b" d="M84.94751,73.6703c1.19259-.6734,2.75591-.7474,3.20254-2.56885.12505-.51016,1.54033-.704,2.44845-1.07773.13939.2176.4687.59419.4127.66473-.9338,1.1758-1.70922,2.69173-2.93949,3.36352-1.54159.84184-2.13139,2.03376-1.10374,3.6138a6.96857,6.96857,0,0,1,.86576,2.54237c.05831.32469-.33857.86865-.674,1.074-.1957.11982-.74092-.15686-1.02544-.38445-2.0089-1.60716-3.58925-1.74957-5.66972-.44544-.19522.12236-.52067.31124-.50976.447.148,1.83821-1.75089,2.31015-2.3891,3.62849a2.26206,2.26206,0,0,1-2.62981,1.3302c0-1.39377-.00156-2.65841.00083-3.923a7.36187,7.36187,0,0,1,.03037-1.40133c.24167-1.21638.10311-2.09615-1.39251-2.303-.37185-.05142-.67062-.593-1.01423-.8965-.53888-.47616-1.10678-.9212-1.62458-1.41878a11.34471,11.34471,0,0,1-.86958-1.05038q1.1076-.79473,2.21512-1.58947c.24085.37248.49855.73534.71911,1.11949.46418.80864.79246,2.22409,1.382,2.3393,2.3964.4684,1.87264,2.33856,2.17384,3.81533a12.31993,12.31993,0,0,1,.10385,1.86693l.49925.21048c.50716-.69093,1.05525-1.35582,1.51422-2.0774C80.46978,77.72572,82.32708,77.15282,85,78.49295V73.62446Z"/><path class="b" d="M83.06283,68.01038l-2.9454.30083c.07765.75011.15529,1.50022.255,2.46379-.82261-.267-1.40767-.44331-1.98309-.64683-.95335-.3372-.779-.83276-.19735-1.40681.33331-.32892.79676-.65591.90186-1.06144.29407-1.135,2.44041-2.9568,3.01748-2.36044C82.727,65.93574,82.77984,67.11652,83.06283,68.01038Z"/><path class="b" d="M85,73.62446a4.09661,4.09661,0,0,1-1.13181-.59684,18.87753,18.87753,0,0,0-1.37374-1.72413c-1.31187-1.05535-.6956-1.58133.58237-2.24073.39757.8409.755,1.597,1.1322,2.39477a4.0605,4.0605,0,0,1,.51172-.24936c.6223-.19349,1.24912-.37263,1.87425-.55708-.27635.558-.53744,1.1242-.83373,1.67138-.24936.4604-.5397.89861-.81283,1.34723Z"/><path class="b" d="M82.9387,108.71281a2.63289,2.63289,0,0,1,.86971-.14458,6.295,6.295,0,0,1,1.136.42395c-.234.36277-.39666.9446-.715,1.04823a16.69742,16.69742,0,0,1-3.26945.713c-.33887.03843-.73493-.42658-1.10478-.661.27669-.34367.487-.85237.84412-.99589a13.44886,13.44886,0,0,1,2.21143-.511Z"/><path class="b" d="M88.198,88.53416c.792,1.314.73914,4.17325.03811,4.92712a1.3235,1.3235,0,0,1-.90708.381c-.18749-.00556-.5009-.37828-.52293-.60859A5.772,5.772,0,0,1,88.198,88.53416Z"/><path class="b" d="M87.9285,97.33438q1.63527,1.79925,3.27058,3.59855l-.23255.60451a5.279,5.279,0,0,1-1.85313-.45706A2.8486,2.8486,0,0,1,87.9285,97.33438Z"/><path class="b" d="M77.36783,109.75526c-1.206,1.81555-2.60335,1.49727-3.84444,1.1287-.33826-.10046-.39558-1.147-.58185-1.75934a5.62126,5.62126,0,0,1,1.312-.07621C75.2158,109.21495,76.16194,109.4745,77.36783,109.75526Z"/><path class="b" d="M87.33113,106.84414a30.85274,30.85274,0,0,1,2.83742-1.599c.31128-.139.82765.181,1.25017.291-.15156.34026-.21691.77653-.47,1.0038-.99554.89417-2.05861,1.681-3.40472.98909Z"/><path class="b" d="M79.67963,96.00709c-.1798,1.818-1.7502,3.50609-2.79319,3.53655a.89437.89437,0,0,1-.70512-.32977.81649.81649,0,0,1,.09768-.77725C77.26685,97.67581,78.3028,96.97739,79.67963,96.00709Z"/><path class="b" d="M74.50764,74.98734c-.07043-.503-.138-.98507-.19535-1.3951a16.45426,16.45426,0,0,1,2.2713-1.00515c.33-.09233.77351.22136,1.16552.35076-.15725.44342-.19622,1.14317-.49451,1.28082A16.8965,16.8965,0,0,1,74.50764,74.98734Z"/><path class="b" d="M73.00828,105.354c.07669-1.63616.45436-2.90382,2.127-3.39479C75.37843,104.13364,74.69852,105.289,73.00828,105.354Z"/><path class="b" d="M92.91278,104.09871c.97525.43842,1.83.793,2.65206,1.21182.22255.11338.53071.50314.47757.62235a1.1917,1.1917,0,0,1-.68287.61837C93.87087,106.93478,92.85712,105.90265,92.91278,104.09871Z"/><path class="b" d="M97.934,102.401c-.47066,1.59017-1.29744,1.95628-3.34132.9547q1.52043-.7315,3.0409-1.463Z"/><path class="b" d="M57.10061,80.914l1.58426.7905c-.388.32836-.80692.95978-1.15775.924a11.0521,11.0521,0,0,1-2.37958-.76384C55.75185,81.57048,56.35616,81.27634,57.10061,80.914Z"/><path class="b" d="M66.60416,77.11708c1.91944.631,1.77027,1.84966,1.90393,2.888.01834.1425-.32332.48678-.43016.46056-.30889-.07591-.764-.23516-.838-.46566C66.9824,79.198,66.86156,78.35208,66.60416,77.11708Z"/><path class="b" d="M91.50063,84.28324c.47679.60405,1.00819,1.12333.94127,1.21753a8.41224,8.41224,0,0,1-1.50357,1.55489c-.04163.03457-.85185-.64859-.80288-.746A17.68285,17.68285,0,0,1,91.50063,84.28324Z"/><path class="b" d="M88.54076,119.89068l.32432-1.97347,1.49784.60024q-.43694.82476-.8738,1.64951Z"/><path class="a" d="M103.55787,120.20874c.09216-1.02974.20526-2.05812.27222-3.0895.14569-2.2442-.50694-2.84063-2.72719-2.892a6.0906,6.0906,0,0,1-2.011-.8507,6.61418,6.61418,0,0,1,1.846-1.24706c1.41041-.35651,2.81474-.44945,2.89582-2.45312a2.47938,2.47938,0,0,1,2.01746-.66345c1.46542.76226,2.74787.07847,4.11431-.05129a11.2662,11.2662,0,0,1,2.26474.22907,5.83977,5.83977,0,0,1-.49947,2.16272,3.24924,3.24924,0,0,0-.18523,3.77446c.262.51557.48378,1.469.22386,1.73577a2.17254,2.17254,0,0,1-1.86486.52783c-1.51626-.52981-2.356-.06714-3.22713,1.20719a10.59513,10.59513,0,0,1-2.50824,1.98272Z"/><path class="a" d="M99.5345,75.22354c-1.64883-1.68426-1.40207-2.3028.75583-3.19281.82052-.33842,1.39164-1.29974,2.05414-1.99832.84785-.894,1.52925-1.461,2.06157.317.13943.46584,1.01875.72645,1.57822,1.04653.88188.50453,2.28051.77992,2.57116,1.50755.6651,1.66466-.95353,2.62745-1.96393,3.60972a2.17594,2.17594,0,0,1-2.8711.55582,1.67322,1.67322,0,0,0-1.566.218c-.75152.71876-1.3183,1.97456-2.54044,1.10986C98.37658,77.52137,98.67339,76.2782,99.5345,75.22354Z"/></svg>