<svg xmlns="http://www.w3.org/2000/svg" viewBox="0 0 200 200"><defs><style>.a{fill:#1286c9;}.b{fill:#0f6698;}</style></defs><title>trash-recycling</title><path class="a" d="M95.13835,65.13044l2.76138-.18673a7.2487,7.2487,0,0,1,.337,1.40816c.11566,2.64035.22028,5.28211.26116,7.92444.03272,2.11414-.02937,4.22979-.05244,6.34474q-.04541,4.16622-.09933,8.33232c-.00768.5297-.05147,1.06-.10251,1.58771-.16984,1.75712-.35422,3.51284-.52466,5.26991-.04559.46992-.06128.94278-.09278,1.4482a2.93215,2.93215,0,0,0,2.18537.07386c1.65379-.61477,2.65951.04443,2.74,1.776a10.81874,10.81874,0,0,1-.12232,2.58729c-.38281,1.92594-.351,3.93714-1.15983,5.77924-.06694.15234.0063.36621.01325.52478,1.18113.61384,2.30823,1.19963,3.51709,1.82791-.12024-3.13321-.31808-6.16524-.3258-9.19776-.00552-2.19978-.22607-4.3803-.2997-6.56976-.10672-3.17161-.05214-6.34851-.0787-9.52307-.00759-.91126-.05847-1.82214-.08765-2.73324-.10179-3.17664-.18668-6.35391-.31214-9.52959-.049-1.24153-.206-2.47852-.27444-3.71974-.01732-.31392.00535-.7698.19987-.93125a20.76087,20.76087,0,0,1,2.55217-1.83385c.27251-.16364.74708-.00668,1.127.027,1.96129.17369,3.9241.33423,5.88212.53978,1.81357.19038,3.6199.44917,5.4331.64378a27.27151,27.27151,0,0,0,3.02777.20435c3.64627-.0171,7.29342-.15358,10.93815-.101,2.48878.03594,4.97289.33481,7.46178.4639a3.82335,3.82335,0,0,0,1.94082-.23829,2.77932,2.77932,0,0,1,3.10342.02926,3.56859,3.56859,0,0,0,.77622.27787c.33387,1.72131.13937,2.01441-1.55276,2.50506-.13307,2.13492-.21009,4.245-.41065,6.34325a43.39822,43.39822,0,0,0,.3061,6.28179c.08492,1.75592.5238,3.49179.69309,5.24741.16758,1.73806.15487,3.49293.29819,5.2341.07337.89176.40343,1.76392.46142,2.65509.109,1.67377.10507,3.3549.14708,5.033.02038.81345.06,1.62717.05172,2.44038-.00925.90915-.06957,1.81765-.09466,2.7268-.013.46769.012.93634.00312,1.40425-.02541,1.336.00774,2.67749-.104,4.00658-.22945,2.72825-.85133,5.40831-.79184,8.1812a29.04,29.04,0,0,1-.58305,4.53471c-.02639.18922-.1474.40114-.09507.55986.53588,1.626-.16883,3.1202-.43452,4.668-.24334,1.4178-.34672,2.8592-.535,4.28711-.09318.70689-.24817,1.40542-.35669,2.11057-.07275.47248-.30047,1.03579-.13015,1.40806.40173.87807-.20625,1.57271-.27372,2.34931-.05422.6243-.79367.8173-1.4223,1.03006-2.32456.78675-4.74075.4924-7.10938.72969a12.75733,12.75733,0,0,1-2.1153.28753c-1.98273-.14681-3.8025.70258-5.73389.82135-.2859.01756-.56752.10852-.85334.12366-.46527.02467-1.11454-.20121-1.26265.38012a2.32962,2.32962,0,0,0,.10476,1.76467,3.01709,3.01709,0,0,1,.5643,1.72264c.05944.42558.16841.844.23778,1.26848.11477.70236.23064,1.40523.31346,2.11173.02735.23327-.14559.52618-.05713.71023.5713,1.18912-.22391,1.98789-.76843,2.857-.121.19316-.30891.49407-.46316.49232-.97546-.011-1.338.83853-1.9965,1.40438a2.16,2.16,0,0,0-2.6572-.61771,16.21065,16.21065,0,0,1-6.663.90566,16.47438,16.47438,0,0,0-3.56036.39555,4.63069,4.63069,0,0,1-.98511.10676c-.95366-.09313-1.89893-.2906-2.85356-.35094a32.26837,32.26837,0,0,1-5.74713-1.13352,2.72242,2.72242,0,0,0-.42076-.10493c-2.06236-.1685-4.124-.34917-6.18833-.48922-1.8138-.123-3.64859.17711-5.44688-.36251a4.72615,4.72615,0,0,0-1.71928-.0527,4.079,4.079,0,0,1-2.78084-.51587,1.68818,1.68818,0,0,0-.95766-.17391c-1.33731.06226-1.97059-.32459-2.16111-1.66279a9.24273,9.24273,0,0,1-.01662-3.15132,19.50814,19.50814,0,0,1,1.54943-5.37915,9.8111,9.8111,0,0,0,.78884-2.47156,5.37853,5.37853,0,0,0-.04272-1.37447c-.38868-.04944-.62511-.07736-.8609-.10986-2.04737-.28212-4.08884-.62192-6.14363-.83a17.55557,17.55557,0,0,1-4.82117-1.25722,14.0022,14.0022,0,0,0-3.70212-.44683,29.556,29.556,0,0,1-5.44421-.64525c-1.79367-.52555-2.4926-1.21339-2.73407-3.04524a16.86291,16.86291,0,0,0-.4369-2.10528,58.827,58.827,0,0,1-1.12791-8.717c-.26427-2.38991-.53221-4.78568-.633-7.18578-.11878-2.82855-.60543-5.61556-.77978-8.43264-.071-1.147.074-2.306.0369-3.45682-.06024-1.87338-.19544-3.74421-.28788-5.61665-.16309-3.30472-.34394-6.60886-.46756-9.91511-.09353-2.50027-.258-5.01171-.11882-7.503.143-2.56047-.38986-5.06023-.36257-7.5953.02115-1.97329.03159-3.95388.21222-5.916.14593-1.58513.75127-1.899,2.33375-1.54524A1.85424,1.85424,0,0,0,58.62286,63.184a12.51642,12.51642,0,0,1,2.92209-5.07094,18.8086,18.8086,0,0,1,3.029-2.307c.70468-.49309,1.47587-.89006,2.20266-1.353a23.2776,23.2776,0,0,1,6.0417-2.86814,19.42726,19.42726,0,0,1,2.4084-.37961c.32543-.0502.64935-.11033.97324-.16993a3.22816,3.22816,0,0,1,1.12514-.194c1.75394.3733,3.42623-.30283,5.1429-.32266a1.519,1.519,0,0,0,1.35179-.84722A3.55653,3.55653,0,0,0,84.48,46.87816a7.32066,7.32066,0,0,1,.15966-2.44269c.17756-.96292.59551-1.1289,1.5559-.81127a3.44715,3.44715,0,0,1,1.82957,1.081,1.375,1.375,0,0,0,.85755.41208c1.002.12759,2.01236.19007,3.0198.2742a2.19017,2.19017,0,0,1,.28818-.00865c1.94035.4448,2.58472.73154,1.61995,2.80385-.68516,1.47166-1.19826,3.008-1.91618,4.45705a3.40425,3.40425,0,0,1-.71076.86813,1.01213,1.01213,0,0,0-.11975,1.52432c.44935.60992.78349,1.30466,1.232,1.91527a2.27909,2.27909,0,0,0,.869.67476,2.96812,2.96812,0,0,1,1.66341,1.86941c.10414.31733.29582.6096.37291.93123a4.48976,4.48976,0,0,1,.14562,1.196C95.30465,62.76027,95.2153,63.89593,95.13835,65.13044ZM83.09258,136.02661c.04521-.72531.1388-1.39111.11789-2.05334-.05579-1.7719-.15816-3.54237-.24716-5.31318-.06009-1.19642-.14951-2.39174-.1877-3.58878-.03531-1.10619-.0381-2.21429-.02058-3.321a7.89506,7.89506,0,0,1,.162-2.43593,48.87564,48.87564,0,0,1,2.08837-4.86586,19.857,19.857,0,0,1,4.88519-6.026c.38443-.34579.76147-.69982,1.2776-1.175a25.921,25.921,0,0,0-2.09759-1.70231,4.8406,4.8406,0,0,1-2.07094-2.85868c-.32015-1.14092-.60439-2.29277-.87051-3.44763a1.60345,1.60345,0,0,1,.71317-1.75669,1.66536,1.66536,0,0,1,1.75978.26878c.4303.38337.8902.73475,1.34892,1.08463a1.64444,1.64444,0,0,0,2.23963-.04673,4.43133,4.43133,0,0,1,1.36444-.77551c1.73262-.54511,1.94021-.77986,2.021-2.60216.0576-1.29986.08342-2.6034.20759-3.89723.08692-.9056.40242-1.79194.46166-2.69694.09662-1.4756.06561-2.95946.09158-4.43977.03018-1.72362.09758-3.44742.0871-5.17075-.01257-2.0645-.09555-4.12852-.13807-6.19293-.02475-1.20453-.01006-2.41007-.04913-3.614-.04419-1.36226-.42892-1.68124-1.78241-1.63693a7.051,7.051,0,0,1-1.4078-.11272,19.60746,19.60746,0,0,0-2.25182-.4417c-1.19457-.05989-2.39638.044-3.59519.04527-2.785.0029-5.57528-.42473-8.35416.10974a2.44107,2.44107,0,0,1-.4333-.00837c-2.25219.01333-4.47876-.36434-6.75369-.22443-2.47549.15225-4.97367-.06369-7.46194-.12022-2.06282-.04686-4.12579-.08941-6.18837-.1452-1.40587-.038-1.48295.02577-1.54047,1.38068a2.57109,2.57109,0,0,1-.10093.85065c-.70216,1.70353-.04113,3.4264-.07218,5.13663a34.35584,34.35584,0,0,0,.37161,3.95209.68316.68316,0,0,1-.05841.281,9.44361,9.44361,0,0,0-.11264,4.80607,6.38656,6.38656,0,0,1-.025,3.14084,2.74427,2.74427,0,0,0-.01335.989A20.75838,20.75838,0,0,0,56.63,89.6707a13.767,13.767,0,0,1,.23275,4.525c-.03423.21428.148.45541.19144.69121a23.26655,23.26655,0,0,1,.49982,2.96235c.09979,1.9183-.12737,3.87354.15555,5.75719.32985,2.19571-.49341,4.46841.52582,6.5949.07213.15048-.0354.37809-.022.56718.0742,1.04848.17594,2.09518.238,3.14429a28.05367,28.05367,0,0,1,.16253,4.47,5.545,5.545,0,0,0,.32423,2.33989c.39848,1.29813,1.04337,2.57951.46181,4.03605-.1445.36188.09322.911.23746,1.3469.39832,1.2034,1.158,2.34634.51805,3.69553a.37746.37746,0,0,0-.01337.2821,8.13814,8.13814,0,0,0,.99984,2.01746,3.2277,3.2277,0,0,0,2.14871,1.05944c2.1479.21294,4.29531.45741,6.42826.78457,1.23178.18894,2.43354.57016,3.65177.85207,1.44861.33523,2.89623.67672,4.35185.979A10.96246,10.96246,0,0,0,83.09258,136.02661ZM107.95124,111.647c.66278.92951,1.22931,1.74254,1.81951,2.538a3.9656,3.9656,0,0,0,.5338.46374,10.21158,10.21158,0,0,1,2.9278,4.1602,8.45087,8.45087,0,0,0,.70914,1.39223c.356.62691.75623,1.22905,1.10452,1.86,1.62638,2.94628,1.36476,6.25084,1.774,9.42839.12194.94667.243,1.89413.39972,2.83536a11.29582,11.29582,0,0,1,.32911,1.25119,3.28954,3.28954,0,0,0,1.36047,2.29115c.59656.549,1.17489,1.11818,1.78084,1.65638.23458.20837.52049.50214.7874.50684a34.58014,34.58014,0,0,0,4.01962-.08448c2.34449-.23313,4.67345-.62037,7.01712-.86426,1.56274-.16261,3.13871-.22635,4.7105-.26475,1.482-.03619,2.12771-.77138,2.31776-2.278.15947-1.26447-.01414-2.59024.65632-3.79482a16.60739,16.60739,0,0,0,1.51531-6.11038c.35966-2.75289.51325-5.532.81345-8.29362.18705-1.72116.60257-3.42362.70254-5.14684.22333-3.84848.33686-7.704.44437-11.55811a35.16072,35.16072,0,0,0-.13825-3.89368c-.2271-2.72357-.49667-5.44394-.78047-8.16231-.154-1.47563-.405-2.94124-.55507-4.41716-.20278-1.9937-.34907-3.99312-.52325-5.98977-.04176-.479-.13025-.956-.14152-1.43517-.04866-2.071-.06262-4.14289-.11782-6.21368-.0287-1.07794-.386-1.40054-1.48163-1.48721-2.16114-.171-4.3201-.3753-6.48331-.51253a23.87276,23.87276,0,0,0-2.66578.05034c-1.10009.05372-2.20318.247-3.29672.19733-2.97683-.13514-5.95138-.33942-8.9229-.56774-2.62314-.20154-5.24056-.4768-7.86134-.71007-.81524-.07257-1.63351-.16208-2.44985-.15671a2.47651,2.47651,0,0,0-1.89241.54171c-.19962.97225-.34371,1.659-.48013,2.3473a3.14234,3.14234,0,0,0-.10227.702c.0789,2.28358.22086,4.56611.24694,6.85006.03,2.63648-.03989,5.274-.06227,7.91118a1.77039,1.77039,0,0,0,.05145.71025,6.87338,6.87338,0,0,1,.24742,3.12871c-.01165.578-.05072,1.15827-.01676,1.73394.13256,2.24808.34258,4.49288.42126,6.74248.07172,2.05075.2294,4.09825.27413,6.1448a19.30418,19.30418,0,0,0,.39316,2.65017C107.54847,109.14488,108.57212,110.38293,107.95124,111.647Zm-14.60667-2.26019a4.66442,4.66442,0,0,0-1.4338.6387c-1.26607,1.23614-2.45519,2.55151-3.66057,3.84882a1.56493,1.56493,0,0,0-.23.51371c-.71777,1.88456-1.47409,3.756-2.12685,5.66285a6.61312,6.61312,0,0,0-.26135,2.11385c.00074,1.34628.06436,2.69417.14861,4.03845.13216,2.10789.23549,4.22112.47666,6.31764a14.49945,14.49945,0,0,1-.44362,6.14789c-.33357,1.05123-.5865,2.12833-.929,3.17637a13.013,13.013,0,0,1-.94816,2.39753,9.98234,9.98234,0,0,0-1.16629,3.98512,1.746,1.746,0,0,0,1.60741,2.159,27.651,27.651,0,0,0,5.55976.5703c3.05315-.17835,5.96578.93341,8.996.71192.135-.00987.27431.09279.416.11406,1.562.2344,2.93227,1.169,4.58261,1.14864,1.24175-.01536,2.48544.21279,3.73009.309a7.20942,7.20942,0,0,0,1.991.04915,13.21057,13.21057,0,0,1,3.86453-.28036,3.77461,3.77461,0,0,0,.98186-.1724c.64895-.12715,1.3033-.233,1.9448-.39077a12.67369,12.67369,0,0,0,2.859-.82481,3.90687,3.90687,0,0,1,1.52074-.652c.53123-.04361,1.51284-1.04091,1.48514-1.51858a8.64706,8.64706,0,0,0-.31965-2.40881c-.79627-2.20644-2.39106-3.91535-3.82207-5.716-.19867-.25-.58579-.34381-.80931-.58165-.73435-.78141-1.7869-1.309-2.01492-2.50385-.20485-1.07363-.44018-2.14146-.64191-3.21562a14.40608,14.40608,0,0,1-.21572-1.57055c-.13412-1.77284-.22939-3.54876-.37765-5.32031a7.13285,7.13285,0,0,0-.34119-1.82774,58.46006,58.46006,0,0,0-2.14125-5.479,22.9896,22.9896,0,0,0-6.17657-7.349,16.7964,16.7964,0,0,0-2.64182-1.63313c-.40674-.231-.90091-.31162-1.29935-.553a1.32281,1.32281,0,0,0-1.58618.00535,1.539,1.539,0,0,1-2.39732-.55027,1.32805,1.32805,0,0,0-1.47949-.65223A2.6447,2.6447,0,0,1,93.34458,109.38685Zm-6.9625-57.19832c-.49544,1.08408-.47509.9577-1.64633.76908a16.25052,16.25052,0,0,0-3.255-.00616,9.6467,9.6467,0,0,1-1.99181.22274c-2.3742-.43581-4.51923.65215-6.78517.89353a1.86706,1.86706,0,0,0-.64228.32148c-2.43425,1.40483-5.08486,2.4303-7.3128,4.20022-.44636.35463-1.12576.4899-1.44476.91579a23.60736,23.60736,0,0,0-1.85031,3.02229c-.81457,1.51936-.406,2.20769,1.3212,2.34241.14187.01108.28739-.03751.43124-.03763,3.21383-.00289,6.41683-.27429,9.64441-.06518a41.26794,41.26794,0,0,0,8.6046.14766c2.41628-.34625,4.86174.43577,7.31136.02768.97408-.16227,1.99229-.0543,2.96983-.2039a1.26421,1.26421,0,0,0,.85252-.799,9.74369,9.74369,0,0,0,.06736-2.28658,2.31408,2.31408,0,0,0-1.3004-2.07234,7.83917,7.83917,0,0,1-1.763-1.83626,17.35444,17.35444,0,0,0-1.24913-1.53608,2.89863,2.89863,0,0,1-1.055-2.94208C87.47223,52.3982,87.44342,52.3921,86.38208,52.18852Zm7.14133,48.69684c-1.91792,1.46836-1.12023,1.26027-4.17418,1.26057,1.66786,1.41774,2.57106,3.32607,4.73521,3.79666a4.15,4.15,0,0,1,1.00023.50341,11.83063,11.83063,0,0,0,1.37813.74794c1.399.52834,1.93981.32033,2.48639-1.05378a18.42894,18.42894,0,0,0,.90457-5.675,3.39028,3.39028,0,0,0-3.40679.824,1.5094,1.5094,0,0,1-2.17146.16C94.03439,101.29554,93.816,101.10631,93.52341,100.88536ZM90.7833,47.95747c-.92086-.11036-1.50712-.84857-2.34626-.29108-.49907.33157-1.31625.35887-1.353,1.12073-.03842.7971.79049.85012,1.29156,1.17083,1.25736.80475,1.51665.32156,2.09673-.7269A5.62871,5.62871,0,0,0,90.7833,47.95747Zm15.02063,18.83474-.39847-.02418-.0509.81665a1.80368,1.80368,0,0,0,.38308-.0097A7.29607,7.29607,0,0,0,105.80393,66.79221Z"/><path class="b" d="M130.03643,89.7819a15.98758,15.98758,0,0,1,1.19676-1.131c.68744-.52919,1.28623-.29463,1.51386.51307.12293.43615.34174.84458.47748,1.278.12792.40839.3985.91119.268,1.237-.52858,1.3202-.11334,2.72794-.49762,4.06121a1.47791,1.47791,0,0,1-.949,1.12551,4.70665,4.70665,0,0,1-4.2821-.04466c-.73715-.41414-1.60631-.55234-2.09014-1.42549-.1858-.33535-.83593-.416-1.27711-.60677-1.02469-.443-1.79446-1.50212-1.56335-2.15693.22363-.63374,1.53831-.97926,2.58823-.65957.66918.20376,1.32811.44118,2.21942.73981a5.53754,5.53754,0,0,0-.10554-1.26706c-.50969-1.389-1.0437-2.77031-1.61529-4.135-.58606-1.39912-1.488-1.5708-2.26663-.32235a38.06546,38.06546,0,0,0-3.47708,6.27306,27.17352,27.17352,0,0,1-2.01036,3.76849,1.27273,1.27273,0,0,1-1.64164.459,1.07054,1.07054,0,0,1-.41095-1.3977,13.2993,13.2993,0,0,1,1.33978-2.83374c1.27281-2.0555,2.85825-3.93987,3.69707-6.26043a4.19526,4.19526,0,0,1,.81508-1.17394,18.9707,18.9707,0,0,0,2.2688-2.56644,1.58723,1.58723,0,0,1,2.87287.18851,7.62386,7.62386,0,0,1,1.24166,3.3496c-.00175.46188.43018.93459.6923,1.386C129.35,88.71241,129.68965,89.227,130.03643,89.7819Z"/><path class="b" d="M123.37529,110.15061c-.36646.50716-.60248.87-.877,1.20091-.17947.2163-.39544.5219-.6282.55505-1.52477.21737-2.99589.97675-4.61052.3339a5.99637,5.99637,0,0,0-3.96551.10619c-.4763.13738-.97971.57786-1.472.06-.55179-.58053-1.37211-1.07479-1.24014-2.00038a24.54556,24.54556,0,0,1,.77479-3.34676,20.453,20.453,0,0,1,.83027-1.99981c.276-.67311.59869-1.30164-.33791-1.83668-.25332-.14471-.07437-.91776-.2699-1.31593-.59406-1.20991.10278-1.7842,1.00576-2.30169.167-.09572.33037-.19775.49583-.29614,1.73882-1.034,2.49806-.83329,3.73359.82434a9.12947,9.12947,0,0,0,1.6371,1.57755,3.0046,3.0046,0,0,1,.99839,3.15908,2.93631,2.93631,0,0,1-2.15049-.3521c-.40153-.302-1.08587-.22788-1.826-.35474-.22809,1.56777-1.54724,2.69735-1.20455,4.49555.46992.0929.9236.19219,1.38086.27031.46772.07988.93954.13535,1.40859.20805.64387.09979,1.235.37088,1.86894-.26421a2.1478,2.1478,0,0,1,1.58719-.22232,10.19616,10.19616,0,0,1,2.30886.67563C123.06919,109.42668,123.18393,109.84923,123.37529,110.15061Z"/><path class="b" d="M126.52974,106.7311c1.40434.47352.31722,1.64946.66924,2.48151q1.89733-.55,3.80955-1.10388c.45928-.13263.91568-.27885,1.381-.38591a1.04479,1.04479,0,0,0,.90926-1.45,12.0558,12.0558,0,0,0-.69205-1.89262c-.4382-1.00485-.92343-1.98909-1.37248-2.98935a1.282,1.282,0,0,1,.00065-.46419l.96075-.41472c-.21783-.46673-.4071-.87214-.59249-1.26931,1.19183-.79273,1.43391-.74442,1.93968.42708,1.06677,2.47069,2.10532,4.9536,3.17672,7.42224.88335,2.03518-.12821,3.91155-2.28452,3.96941a6.06741,6.06741,0,0,0-2.61868.62059,14.22912,14.22912,0,0,1-2.261.67657c-.16853.312-.42383.71978-.61688,1.15514-.41489.93569-.90886,1.33778-1.81413,1.22055a14.40981,14.40981,0,0,1-2.50846-.56335,1.031,1.031,0,0,1-.50228-.77161,10.13664,10.13664,0,0,1,.01245-2.42495C124.5479,108.44963,124.76356,108.13256,126.52974,106.7311Z"/></svg>