<svg xmlns="http://www.w3.org/2000/svg" viewBox="0 0 200 200"><defs><style>.a{fill:#1586c8;}</style></defs><title>wifi</title><path class="a" d="M122.92982,95.421c-2.00354.79282-3.61689-.55989-5.06-1.4456-3.31962-2.03744-6.7055-3.44592-10.67525-3.27269-1.10519.04824-2.23539-.46148-3.3398-.40986A37.86616,37.86616,0,0,0,88.653,93.94651C85.62263,95.444,82.67753,97.114,79.6944,98.707c-.143.07634-.283.15835-.42489.237a1.54041,1.54041,0,0,1-2.30485-.53179c-.46423-.83629.0531-1.593.74953-2.08864a20.69979,20.69979,0,0,1,2.6923-1.65371c2.36687-1.18778,4.72292-2.4147,7.16289-3.43573a48.49338,48.49338,0,0,1,15.74585-3.71543,25.20013,25.20013,0,0,1,13.43564,2.50463c1.20912.62409,2.66968.765,3.87064,1.40021C122.89941,92.62839,123.49727,93.26514,122.92982,95.421Z"/><path class="a" d="M83.36242,107.49533a3.96388,3.96388,0,0,1,2.22425-2.8881,9.60881,9.60881,0,0,0,2.28658-1.78252c1.74484-1.61478,9.02946-4.814,11.34419-5.11142a34.56624,34.56624,0,0,1,10.3443.28509,22.71967,22.71967,0,0,1,7.81819,3.09937,1.5493,1.5493,0,0,1,.80174,2.06419,1.62686,1.62686,0,0,1-2.09223.80252,19.9845,19.9845,0,0,1-3.53463-1.59148c-2.6267-1.50119-5.47007-1.67255-8.3801-1.56282-.08024.003-.163.05195-.23887.04085a15.74548,15.74548,0,0,0-10.87115,2.5447c-1.4202.88526-2.82254,1.80709-4.16964,2.79841-.70608.51962-1.22805,1.28427-1.91568,1.83517C85.32114,109.35773,84.97375,109.2899,83.36242,107.49533Z"/><path class="a" d="M103.17088,107.83565c1.382.35547,3.21861.71535,4.97351,1.31427a45.3203,45.3203,0,0,1,4.16839,1.9133,1.71472,1.71472,0,0,1,1.13234,1.92379,1.58775,1.58775,0,0,1-1.73514,1.39,3.8938,3.8938,0,0,1-2.45771-.69438c-1.83234-1.71563-4.13654-2.07617-6.39865-2.60334a2.15962,2.15962,0,0,0-1.17513.1581c-3.2323,1.23781-6.435,2.52585-8.99743,4.9895a2.10907,2.10907,0,0,1-2.83992-.14558c-.683-.9747-.06506-1.54157.63412-2.24105,3.02385-3.02531,6.99914-4.247,10.78305-5.83187A7.953,7.953,0,0,1,103.17088,107.83565Z"/><path class="a" d="M106.45962,121.51195c-.2,3.801-1.66788,5.67421-4.314,5.50514-2.34479-.14984-5.63334-2.80172-5.48834-4.42572.26857-3.00685,2.93575-5.4872,5.67834-5.28057C104.84394,117.49977,106.57777,119.26609,106.45962,121.51195Z"/></svg>